<?xml version="1.0" encoding="UTF-8"?>
<svg width="376px" height="50px" viewBox="0 0 376 50" version="1.1" xmlns="http://www.w3.org/2000/svg" xmlns:xlink="http://www.w3.org/1999/xlink">
    <title>ALYSSADRESS</title>
    <g id="final-copy" stroke="none" stroke-width="1" fill="none" fill-rule="evenodd">
        <path d="M21.4160156,49.4238281 C21.7480469,49.3847656 21.9824219,49.2285156 22.1191406,48.9550781 L22.1191406,48.9550781 L22.2070312,48.1347656 C22.2851562,46.6113281 22.3535156,45.2050781 22.4121094,43.9160156 C22.4902344,43.3886719 22.5537109,42.8076172 22.6025391,42.1728516 C22.6513672,41.5380859 22.7636719,40.5517578 22.9394531,39.2138672 C23.1152344,37.8759766 23.2958984,36.40625 23.4814453,34.8046875 C23.6669922,33.203125 23.8867188,31.8066406 24.140625,30.6152344 C25.2734375,30.5175781 26.7675781,30.4101562 28.6230469,30.2929688 C31.2597656,30.0195313 32.8808594,29.7558594 33.4863281,29.5019531 C34.0917969,29.2480469 34.1162109,29.0429688 33.5595703,28.8867188 C33.0029297,28.7304687 32.1679688,28.671875 31.0546875,28.7109375 C29.9414062,28.75 28.7792969,28.7988281 27.5683594,28.8574219 C26.3574219,28.9160156 25.390625,28.9648438 24.6679688,29.0039062 L24.6679688,29.0039062 L24.2871094,29.0039062 L24.2871094,28.8867188 C24.4042969,28.1054688 24.4970703,27.4609375 24.5654297,26.953125 C24.6337891,26.4453125 24.7802734,25.5615234 25.0048828,24.3017578 C25.2294922,23.0419922 25.5273438,21.3671875 25.8984375,19.2773438 C26.2695312,17.1875 26.6503906,15.4003906 27.0410156,13.9160156 C27.3925781,12.2753906 27.8613281,10.5175781 28.4472656,8.64257812 C28.7402344,7.64648438 29.4628906,6.29882812 30.6152344,4.59960938 L30.6152344,4.59960938 L30.6152344,3.95507812 C30.3417969,3.56445312 29.8730469,3.30078125 29.2089844,3.1640625 C28.8183594,3.61328125 28.5058594,4.11621094 28.2714844,4.67285156 C28.0371094,5.22949219 27.5292969,6.23046875 26.7480469,7.67578125 C25.5371094,9.74609375 24.7119141,11.1425781 24.2724609,11.8652344 C23.8330078,12.5878906 23.2128906,13.5742188 22.4121094,14.8242188 C21.0449219,16.8164062 20.0390625,18.2666016 19.3945312,19.1748047 C18.75,20.0830078 17.9785156,21.171875 17.0800781,22.4414062 C16.1816406,23.7109375 15.5029297,24.6533203 15.0439453,25.2685547 C14.5849609,25.8837891 14.0283203,26.6162109 13.3740234,27.4658203 C12.7197266,28.3154297 11.7285156,29.4433594 10.4003906,30.8496094 C8.31054688,31.3183594 6.70410156,31.6455078 5.58105469,31.8310547 C4.45800781,32.0166016 3.56445312,32.1337891 2.90039062,32.1826172 C2.23632812,32.2314453 1.77734375,32.2558594 1.5234375,32.2558594 C1.26953125,32.2558594 1.07421875,32.3242188 0.9375,32.4609375 C0.9375,33.3984375 1.6015625,33.8671875 2.9296875,33.8671875 C3.3984375,33.8671875 3.6328125,33.9550781 3.6328125,34.1308594 C4.9609375,34.2089844 6.12304688,34.4238281 7.11914062,34.7753906 C5.53710938,36.4550781 4.35546875,37.6074219 3.57421875,38.2324219 C2.79296875,38.8574219 2.00195312,39.3652344 1.20117188,39.7558594 C0.400390625,40.1464844 0,40.4394531 0,40.6347656 C0.05859375,41.3378906 0.56640625,41.6894531 1.5234375,41.6894531 C3.9453125,40.0292969 5.58105469,38.7792969 6.43066406,37.9394531 C7.28027344,37.0996094 8.125,36.2402344 8.96484375,35.3613281 C10,35.7324219 11.0742188,36.1914062 12.1875,36.7382812 C13.6523438,37.6757812 14.7509766,38.5107422 15.4833984,39.2431641 C16.2158203,39.9755859 16.8554688,40.6835938 17.4023438,41.3671875 C17.9492187,42.0507812 18.5009766,42.8662109 19.0576172,43.8134766 C19.6142578,44.7607422 19.9707031,45.390625 20.1269531,45.703125 C20.2832031,46.015625 20.390625,46.3476562 20.4492188,46.6992188 C20.5078125,47.6953125 20.5810547,48.3349609 20.6689453,48.6181641 C20.7568359,48.9013672 21.0058594,49.1699219 21.4160156,49.4238281 Z M13.3300781,30.4101562 C14.2480469,29.3164062 15.5078125,27.65625 17.109375,25.4296875 C18.6523438,23.125 19.6875,21.6601562 20.2148438,21.0351562 C20.6835938,20.2734375 21.1376953,19.5800781 21.5771484,18.9550781 C22.0166016,18.3300781 22.7148438,17.3144531 23.671875,15.9082031 C24.0625,15.3417969 24.5800781,14.5898438 25.2246094,13.6523438 L25.2246094,13.6523438 L25.2832031,13.6523438 L25.2832031,13.7109375 L24.9316406,15.6738281 C24.5996094,17.1777344 24.375,18.1835938 24.2578125,18.6914062 C24.140625,19.1992188 23.9453125,20.1660156 23.671875,21.5917969 C23.515625,22.7832031 23.3789062,23.8769531 23.2617188,24.8730469 L23.2617188,24.8730469 L22.5878906,29.1503906 C21.3769531,29.3261719 20.2539062,29.4726562 19.21875,29.5898438 C17.265625,29.9023438 15.3027344,30.1757812 13.3300781,30.4101562 Z M20.8300781,44.6191406 C20.4003906,43.7597656 20.0097656,43.0273438 19.6582031,42.421875 C19.3066406,41.8164062 18.8867188,41.2158203 18.3984375,40.6201172 C17.9101562,40.0244141 17.2851562,39.3603516 16.5234375,38.6279297 C15.7617188,37.8955078 14.9609375,37.2363281 14.1210938,36.6503906 C13.28125,36.0644531 12.5976562,35.6542969 12.0703125,35.4199219 C11.5429688,35.1855469 10.7519531,34.8535156 9.69726562,34.4238281 C10.3808594,33.7597656 11.0351562,33.0859375 11.6601562,32.4023438 C14.1210938,31.9726562 16.1621094,31.6601562 17.7832031,31.4648438 C19.1699219,31.25 20.390625,31.0839844 21.4453125,30.9667969 L21.4453125,30.9667969 L22.3535156,30.8789062 L22.1191406,32.1972656 C21.8652344,34.1308594 21.6699219,35.6542969 21.5332031,36.7675781 C21.3964844,37.8808594 21.25,39.3359375 21.09375,41.1328125 C20.9570312,42.5 20.8691406,43.6621094 20.8300781,44.6191406 Z M7.88085938,33.8671875 C6.90429688,33.59375 6.35742188,33.4472656 6.24023438,33.4277344 L6.24023438,33.4277344 L6.24023438,33.3691406 C7.23632812,33.1152344 8.14453125,32.9296875 8.96484375,32.8125 C8.6328125,33.1445312 8.27148438,33.4960938 7.88085938,33.8671875 Z M35.3688616,43.7695312 C36.6969866,44.84375 38.4694475,45.2880859 40.6862444,45.1025391 C42.9030413,44.9169922 44.8512835,44.609375 46.530971,44.1796875 L46.530971,44.1796875 L48.6989397,43.7988281 L51.7458147,43.1835938 L60.0075335,41.6601562 L60.7106585,41.25 C60.437221,40.8984375 58.9430804,40.8251953 56.2282366,41.0302734 C53.5133929,41.2353516 51.4870257,41.4453125 50.149135,41.6601562 C48.8112444,41.875 47.390346,42.1435547 45.8864397,42.4658203 C44.3825335,42.7880859 42.9762835,43.0322266 41.6676897,43.1982422 C40.359096,43.3642578 39.2751116,43.3740234 38.4157366,43.2275391 C37.5563616,43.0810547 36.8581194,42.6123047 36.32101,41.8212891 C35.7839007,41.0302734 35.7887835,39.140625 36.3356585,36.1523438 C36.8825335,33.1640625 38.2448382,29.2431641 40.4225725,24.3896484 C42.6003069,19.5361328 44.3630022,15.5078125 45.7106585,12.3046875 C47.0583147,9.1015625 48.3083147,6.484375 49.4606585,4.453125 C48.2887835,2.28515625 47.3610491,2.32421875 46.6774554,4.5703125 C46.4040179,5.60546875 45.4421038,7.95410156 43.7917132,11.6162109 C42.1413225,15.2783203 40.2370257,19.6240234 38.0788225,24.6533203 C35.9206194,29.6826172 34.6657366,33.5449219 34.3141741,36.2402344 C33.9626116,38.9355469 33.9577288,40.7714844 34.2995257,41.7480469 C34.6413225,42.7246094 34.9977679,43.3984375 35.3688616,43.7695312 Z M63.5160435,47.6074219 C63.1547154,48.5253906 63.320731,48.7207031 64.0140904,48.1933594 C64.7074498,47.6660156 65.3812779,46.8164062 66.0355748,45.6445312 C66.6898717,44.4726562 67.3344029,43.3056641 67.9691685,42.1435547 C68.6039342,40.9814453 69.7074498,38.9160156 71.2797154,35.9472656 C72.851981,32.9785156 74.8148717,29.3847656 77.1683873,25.1660156 C79.5219029,20.9472656 81.655692,17.0361328 83.5697545,13.4326172 C85.483817,9.82910156 86.9193638,7.10449219 87.8763951,5.25878906 C88.8334263,3.41308594 89.233817,2.12890625 89.077567,1.40625 C88.921317,0.68359375 88.6283482,0.234375 88.1986607,0.05859375 C87.7885045,-0.1171875 87.2513951,0.161132813 86.5873326,0.893554688 C85.9232701,1.62597656 85.3470982,2.40722656 84.858817,3.23730469 C84.3705357,4.06738281 83.9408482,5.06347656 83.5697545,6.22558594 C83.1986607,7.38769531 82.9008092,8.39355469 82.6761998,9.24316406 C82.4515904,10.0927734 81.8656529,10.9375 80.9183873,11.7773438 C79.9711217,12.6171875 78.7797154,13.5400391 77.3441685,14.5458984 C75.9086217,15.5517578 74.5658482,16.3134766 73.3158482,16.8310547 C72.0658482,17.3486328 71.2064732,17.4169922 70.7377232,17.0361328 C70.2689732,16.6552734 69.8197545,15.7226562 69.390067,14.2382813 C68.9799107,12.3828125 68.7308873,11.1474609 68.6429967,10.5322266 C68.555106,9.91699219 68.4037388,9.32128906 68.1888951,8.74511719 C67.9740513,8.16894531 67.6029576,7.76855469 67.0756138,7.54394531 C66.5482701,7.31933594 66.186942,7.49023438 65.9916295,8.05664062 C66.3236607,8.38867188 66.6263951,9.34570312 66.8998326,10.9277344 C67.5638951,14.5410156 68.2767857,16.8652344 69.0385045,17.9003906 C69.8002232,18.9355469 70.718192,19.375 71.7924107,19.21875 C72.8666295,19.0625 74.4437779,18.3886719 76.523856,17.1972656 C78.6039342,16.0058594 80.2885045,14.6875 81.577567,13.2421875 C72.2447545,30.309375 66.8104107,40.3699062 65.2745357,43.4237812 L65.175858,43.6211426 C65.0214635,43.9319824 64.9174107,44.1523438 64.8636998,44.2822266 C64.3265904,45.5810547 63.8773717,46.6894531 63.5160435,47.6074219 Z M84.858817,7.5 C85.4642857,5.64453125 86.2064732,4.07226562 87.0853795,2.78320312 C87.1439732,3.21289062 86.4017857,4.78515625 84.858817,7.5 Z M86.8878348,45.0878906 C88.2940848,45.1660156 89.9151786,45.0439453 91.7511161,44.7216797 C93.5870536,44.3994141 95.3448661,43.8671875 97.0245536,43.125 C98.7042411,42.3828125 100.232561,41.5185547 101.609515,40.5322266 C102.986468,39.5458984 104.207171,38.4375 105.271624,37.2070312 C106.336077,35.9765625 107.009905,34.9316406 107.293108,34.0722656 C107.576311,33.2128906 107.532366,32.3974609 107.161272,31.6259766 C106.790179,30.8544922 106.380022,30.234375 105.930804,29.765625 C105.481585,29.296875 104.920061,28.7744141 104.246233,28.1982422 C103.572405,27.6220703 102.908343,27.0751953 102.254046,26.5576172 C101.599749,26.0400391 100.6476,25.234375 99.3976005,24.140625 C98.1476005,23.046875 96.9659598,21.7724609 95.8526786,20.3173828 C94.7393973,18.8623047 93.9727958,17.6171875 93.5528739,16.5820312 C93.132952,15.546875 93.0206473,14.3164062 93.2159598,12.890625 C93.4112723,11.4648437 94.1436942,10.1220703 95.4132255,8.86230469 C96.6827567,7.60253906 98.4942801,6.58203125 100.847796,5.80078125 C103.201311,5.01953125 105.452288,4.58496094 107.600725,4.49707031 C109.749163,4.40917969 111.253069,4.87304687 112.112444,5.88867187 C113.421038,6.86523437 113.870257,8.26171875 113.4601,10.078125 C112.5226,11.9726562 110.696429,13.90625 107.981585,15.8789062 C107.981585,16.0742188 108.235491,16.09375 108.743304,15.9375 C110.169085,15.4492187 111.438616,14.5800781 112.551897,13.3300781 C113.665179,12.0800781 114.358538,11.1425781 114.631975,10.5175781 C115.315569,9.63867187 115.486468,8.60351562 115.144671,7.41210937 C114.802874,6.22070312 113.99721,5.19042969 112.727679,4.32128906 C111.458147,3.45214844 109.758929,3.02734375 107.630022,3.046875 C105.501116,3.06640625 103.577288,3.33007812 101.858538,3.83789062 C100.139788,4.34570312 98.6456473,4.92675781 97.3761161,5.58105469 C96.1065848,6.23535156 95.1007255,6.90429687 94.358538,7.58789062 C93.6163505,8.27148437 92.9962333,8.99902344 92.4981864,9.77050781 C92.0001395,10.5419922 91.6827567,11.5087891 91.546038,12.6708984 C91.4093192,13.8330078 91.5411551,15.1855469 91.9415458,16.7285156 C92.3419364,18.2714844 93.1427176,19.7558594 94.3438895,21.1816406 C95.5450614,22.6074219 96.8780692,23.9746094 98.342913,25.2832031 C100.80385,27.3925781 102.595843,28.9208984 103.71889,29.8681641 C104.841936,30.8154297 105.40346,31.7773438 105.40346,32.7539062 C105.40346,33.7304688 104.724749,35.0341797 103.367327,36.6650391 C102.009905,38.2958984 99.9786551,39.7851562 97.273577,41.1328125 C94.5684989,42.4804688 91.8341239,43.2373047 89.070452,43.4033203 C86.3067801,43.5693359 83.9972098,43.28125 82.1417411,42.5390625 C81.7901786,41.7578125 81.467913,41.2792969 81.1749442,41.1035156 C80.8819755,40.8886719 80.711077,40.9033203 80.6622489,41.1474609 C80.6134208,41.3916016 80.5938895,41.7773438 80.6036551,42.3046875 C80.6134208,42.8320312 80.8722098,43.3349609 81.3800223,43.8134766 C81.8878348,44.2919922 82.5811942,44.6044922 83.4601005,44.7509766 C84.3390067,44.8974609 85.4815848,45.0097656 86.8878348,45.0878906 Z M117.041853,45.0878906 C118.448103,45.1660156 120.069196,45.0439453 121.905134,44.7216797 C123.741071,44.3994141 125.498884,43.8671875 127.178571,43.125 C128.858259,42.3828125 130.386579,41.5185547 131.763532,40.5322266 C133.140486,39.5458984 134.361189,38.4375 135.425642,37.2070312 C136.490095,35.9765625 137.163923,34.9316406 137.447126,34.0722656 C137.730329,33.2128906 137.686384,32.3974609 137.31529,31.6259766 C136.944196,30.8544922 136.53404,30.234375 136.084821,29.765625 C135.635603,29.296875 135.074079,28.7744141 134.400251,28.1982422 C133.726423,27.6220703 133.062361,27.0751953 132.408064,26.5576172 C131.753767,26.0400391 130.801618,25.234375 129.551618,24.140625 C128.301618,23.046875 127.119978,21.7724609 126.006696,20.3173828 C124.893415,18.8623047 124.126814,17.6171875 123.706892,16.5820312 C123.28697,15.546875 123.174665,14.3164062 123.369978,12.890625 C123.56529,11.4648437 124.297712,10.1220703 125.567243,8.86230469 C126.836775,7.60253906 128.648298,6.58203125 131.001814,5.80078125 C133.355329,5.01953125 135.606306,4.58496094 137.754743,4.49707031 C139.903181,4.40917969 141.407087,4.87304687 142.266462,5.88867187 C143.575056,6.86523437 144.024275,8.26171875 143.614118,10.078125 C142.676618,11.9726562 140.850446,13.90625 138.135603,15.8789062 C138.135603,16.0742188 138.389509,16.09375 138.897321,15.9375 C140.323103,15.4492187 141.592634,14.5800781 142.705915,13.3300781 C143.819196,12.0800781 144.512556,11.1425781 144.785993,10.5175781 C145.469587,9.63867187 145.640486,8.60351562 145.298689,7.41210937 C144.956892,6.22070312 144.151228,5.19042969 142.881696,4.32128906 C141.612165,3.45214844 139.912946,3.02734375 137.78404,3.046875 C135.655134,3.06640625 133.731306,3.33007812 132.012556,3.83789062 C130.293806,4.34570312 128.799665,4.92675781 127.530134,5.58105469 C126.260603,6.23535156 125.254743,6.90429687 124.512556,7.58789062 C123.770368,8.27148437 123.150251,8.99902344 122.652204,9.77050781 C122.154157,10.5419922 121.836775,11.5087891 121.700056,12.6708984 C121.563337,13.8330078 121.695173,15.1855469 122.095564,16.7285156 C122.495954,18.2714844 123.296736,19.7558594 124.497907,21.1816406 C125.699079,22.6074219 127.032087,23.9746094 128.496931,25.2832031 C130.957868,27.3925781 132.749861,28.9208984 133.872907,29.8681641 C134.995954,30.8154297 135.557478,31.7773438 135.557478,32.7539062 C135.557478,33.7304688 134.878767,35.0341797 133.521345,36.6650391 C132.163923,38.2958984 130.132673,39.7851562 127.427595,41.1328125 C124.722517,42.4804688 121.988142,43.2373047 119.22447,43.4033203 C116.460798,43.5693359 114.151228,43.28125 112.295759,42.5390625 C111.944196,41.7578125 111.621931,41.2792969 111.328962,41.1035156 C111.035993,40.8886719 110.865095,40.9033203 110.816267,41.1474609 C110.767439,41.3916016 110.747907,41.7773438 110.757673,42.3046875 C110.767439,42.8320312 111.026228,43.3349609 111.53404,43.8134766 C112.041853,44.2919922 112.735212,44.6044922 113.614118,44.7509766 C114.493025,44.8974609 115.635603,45.0097656 117.041853,45.0878906 Z M163.426339,49.4238281 C163.758371,49.3847656 163.992746,49.2285156 164.129464,48.9550781 L164.129464,48.9550781 L164.217355,48.1347656 C164.29548,46.6113281 164.363839,45.2050781 164.422433,43.9160156 C164.500558,43.3886719 164.564035,42.8076172 164.612863,42.1728516 C164.661691,41.5380859 164.773996,40.5517578 164.949777,39.2138672 C165.125558,37.8759766 165.306222,36.40625 165.491769,34.8046875 C165.677316,33.203125 165.897042,31.8066406 166.150949,30.6152344 C167.283761,30.5175781 168.777902,30.4101562 170.633371,30.2929688 C173.270089,30.0195313 174.891183,29.7558594 175.496652,29.5019531 C176.102121,29.2480469 176.126535,29.0429688 175.569894,28.8867188 C175.013253,28.7304687 174.178292,28.671875 173.065011,28.7109375 C171.95173,28.75 170.789621,28.7988281 169.578683,28.8574219 C168.367746,28.9160156 167.400949,28.9648438 166.678292,29.0039062 L166.678292,29.0039062 L166.297433,29.0039062 L166.297433,28.8867188 C166.414621,28.1054688 166.507394,27.4609375 166.575753,26.953125 C166.644113,26.4453125 166.790597,25.5615234 167.015206,24.3017578 C167.239816,23.0419922 167.537667,21.3671875 167.908761,19.2773438 C168.279855,17.1875 168.660714,15.4003906 169.051339,13.9160156 C169.402902,12.2753906 169.871652,10.5175781 170.457589,8.64257812 C170.750558,7.64648438 171.473214,6.29882812 172.625558,4.59960938 L172.625558,4.59960938 L172.625558,3.95507812 C172.352121,3.56445312 171.883371,3.30078125 171.219308,3.1640625 C170.828683,3.61328125 170.516183,4.11621094 170.281808,4.67285156 C170.047433,5.22949219 169.539621,6.23046875 168.758371,7.67578125 C167.547433,9.74609375 166.722238,11.1425781 166.282785,11.8652344 C165.843331,12.5878906 165.223214,13.5742188 164.422433,14.8242188 C163.055246,16.8164062 162.049386,18.2666016 161.404855,19.1748047 C160.760324,20.0830078 159.988839,21.171875 159.090402,22.4414062 C158.191964,23.7109375 157.513253,24.6533203 157.054269,25.2685547 C156.595285,25.8837891 156.038644,26.6162109 155.384347,27.4658203 C154.73005,28.3154297 153.738839,29.4433594 152.410714,30.8496094 C150.320871,31.3183594 148.714425,31.6455078 147.591378,31.8310547 C146.468331,32.0166016 145.574777,32.1337891 144.910714,32.1826172 C144.246652,32.2314453 143.787667,32.2558594 143.533761,32.2558594 C143.279855,32.2558594 143.084542,32.3242188 142.947824,32.4609375 C142.947824,33.3984375 143.611886,33.8671875 144.940011,33.8671875 C145.408761,33.8671875 145.643136,33.9550781 145.643136,34.1308594 C146.971261,34.2089844 148.133371,34.4238281 149.129464,34.7753906 C147.547433,36.4550781 146.365792,37.6074219 145.584542,38.2324219 C144.803292,38.8574219 144.012277,39.3652344 143.211496,39.7558594 C142.410714,40.1464844 142.010324,40.4394531 142.010324,40.6347656 C142.068917,41.3378906 142.57673,41.6894531 143.533761,41.6894531 C145.955636,40.0292969 147.591378,38.7792969 148.440988,37.9394531 C149.290597,37.0996094 150.135324,36.2402344 150.975167,35.3613281 C152.010324,35.7324219 153.084542,36.1914062 154.197824,36.7382812 C155.662667,37.6757812 156.7613,38.5107422 157.493722,39.2431641 C158.226144,39.9755859 158.865792,40.6835938 159.412667,41.3671875 C159.959542,42.0507812 160.5113,42.8662109 161.067941,43.8134766 C161.624581,44.7607422 161.981027,45.390625 162.137277,45.703125 C162.293527,46.015625 162.400949,46.3476562 162.459542,46.6992188 C162.518136,47.6953125 162.591378,48.3349609 162.679269,48.6181641 C162.76716,48.9013672 163.016183,49.1699219 163.426339,49.4238281 Z M155.340402,30.4101562 C156.258371,29.3164062 157.518136,27.65625 159.119699,25.4296875 C160.662667,23.125 161.697824,21.6601562 162.225167,21.0351562 C162.693917,20.2734375 163.148019,19.5800781 163.587472,18.9550781 C164.026925,18.3300781 164.725167,17.3144531 165.682199,15.9082031 C166.072824,15.3417969 166.590402,14.5898438 167.234933,13.6523438 L167.234933,13.6523438 L167.293527,13.6523438 L167.293527,13.7109375 L166.941964,15.6738281 C166.609933,17.1777344 166.385324,18.1835938 166.268136,18.6914062 C166.150949,19.1992188 165.955636,20.1660156 165.682199,21.5917969 C165.525949,22.7832031 165.38923,23.8769531 165.272042,24.8730469 L165.272042,24.8730469 L164.598214,29.1503906 C163.387277,29.3261719 162.26423,29.4726562 161.229074,29.5898438 C159.275949,29.9023438 157.313058,30.1757812 155.340402,30.4101562 Z M162.840402,44.6191406 C162.410714,43.7597656 162.020089,43.0273438 161.668527,42.421875 C161.316964,41.8164062 160.897042,41.2158203 160.408761,40.6201172 C159.92048,40.0244141 159.29548,39.3603516 158.533761,38.6279297 C157.772042,37.8955078 156.971261,37.2363281 156.131417,36.6503906 C155.291574,36.0644531 154.60798,35.6542969 154.080636,35.4199219 C153.553292,35.1855469 152.762277,34.8535156 151.707589,34.4238281 C152.391183,33.7597656 153.04548,33.0859375 153.67048,32.4023438 C156.131417,31.9726562 158.172433,31.6601562 159.793527,31.4648438 C161.180246,31.25 162.400949,31.0839844 163.455636,30.9667969 L163.455636,30.9667969 L164.363839,30.8789062 L164.129464,32.1972656 C163.875558,34.1308594 163.680246,35.6542969 163.543527,36.7675781 C163.406808,37.8808594 163.260324,39.3359375 163.104074,41.1328125 C162.967355,42.5 162.879464,43.6621094 162.840402,44.6191406 Z M149.891183,33.8671875 C148.914621,33.59375 148.367746,33.4472656 148.250558,33.4277344 L148.250558,33.4277344 L148.250558,33.3691406 C149.246652,33.1152344 150.154855,32.9296875 150.975167,32.8125 C150.643136,33.1445312 150.281808,33.4960938 149.891183,33.8671875 Z M210.968471,43.7695312 C210.79269,44.7265625 210.91476,45.1367188 211.334682,45 C211.754604,44.8632812 212.081752,44.3847656 212.316127,43.5644531 C214.269252,43.2128906 216.271205,42.6953125 218.321987,42.0117188 C220.372768,41.328125 222.262416,40.6640625 223.990932,40.0195312 C225.719448,39.375 227.023159,38.8378906 227.902065,38.4082031 C228.780971,37.9785156 230.465541,36.9824219 232.955776,35.4199219 C235.44601,33.8574219 237.540737,32.0556641 239.239955,30.0146484 C240.939174,27.9736328 241.915737,25.9423828 242.169643,23.9208984 C242.423549,21.8994141 242.281948,20.0439453 241.744838,18.3544922 C241.207729,16.6650391 240.343471,14.9365234 239.152065,13.1689453 C237.960659,11.4013672 236.466518,9.84863281 234.669643,8.51074219 C232.872768,7.17285156 231.017299,6.08886719 229.103237,5.25878906 C227.189174,4.42871094 225.572963,3.89160156 224.254604,3.64746094 C222.936244,3.40332031 220.997768,3.203125 218.439174,3.046875 C215.900112,2.87109375 213.336635,2.98828125 210.748744,3.3984375 C208.160854,3.80859375 206.256557,4.25292969 205.035854,4.73144531 C203.815151,5.20996094 202.745815,5.83007812 201.827846,6.59179688 C200.909877,7.35351562 200.538784,8.42773438 200.714565,9.81445312 C200.968471,10.8496094 201.549526,11.5087891 202.457729,11.7919922 C203.365932,12.0751953 203.561244,11.7529297 203.043666,10.8251953 C202.526088,9.89746094 202.433315,9.21875 202.765346,8.7890625 C203.663784,7.87109375 204.513393,7.2265625 205.314174,6.85546875 C206.114955,6.484375 207.272182,6.11816406 208.785854,5.75683594 C210.299526,5.39550781 212.081752,5.14160156 214.132534,4.99511719 C216.183315,4.84863281 218.13644,4.86816406 219.991909,5.05371094 C221.847377,5.23925781 223.966518,5.67871094 226.34933,6.37207031 C228.732143,7.06542969 231.007534,8.28613281 233.175502,10.0341797 C235.343471,11.7822266 236.935268,13.5644531 237.950893,15.3808594 C238.966518,17.1972656 239.601284,18.7304688 239.85519,19.9804688 C240.109096,21.2304688 240.172573,22.5439453 240.045619,23.9208984 C239.918666,25.2978516 239.283901,26.6894531 238.141323,28.0957031 C236.998744,29.5019531 235.787807,30.7470703 234.50851,31.8310547 C233.229213,32.9150391 231.837612,33.9208984 230.333705,34.8486328 C228.829799,35.7763672 226.744838,36.8115234 224.078823,37.9541016 C221.412807,39.0966797 217.696987,40.3515625 212.931362,41.71875 C213.673549,38.5546875 214.269252,35.9277344 214.718471,33.8378906 C215.16769,31.7480469 215.60226,29.7021484 216.022182,27.7001953 C216.442104,25.6982422 216.881557,23.5546875 217.340541,21.2695312 C217.799526,18.984375 218.351284,16.5185547 218.995815,13.8720703 C219.640346,11.2255859 219.63058,9.56542969 218.966518,8.89160156 C218.302455,8.21777344 217.858119,8.28613281 217.63351,9.09667969 C217.408901,9.90722656 217.062221,11.4746094 216.593471,13.7988281 C216.124721,16.1230469 215.665737,18.359375 215.216518,20.5078125 C214.767299,22.65625 214.342494,24.7802734 213.942104,26.8798828 C213.541713,28.9794922 213.082729,31.4355469 212.565151,34.2480469 C212.047573,37.0605469 211.632534,39.6289062 211.320034,41.953125 C208.624721,42.265625 206.344448,42.3046875 204.479213,42.0703125 C202.613979,41.8359375 202.071987,42.0263672 202.853237,42.6416016 C203.634487,43.2568359 204.464565,43.6279297 205.343471,43.7548828 C206.222377,43.8818359 207.071987,43.9306641 207.892299,43.9013672 C208.712612,43.8720703 209.738002,43.828125 210.968471,43.7695312 Z M250.819754,48.4863281 C251.171317,48.3300781 251.405692,48.1787109 251.522879,48.0322266 C251.640067,47.8857422 251.825614,47.5292969 252.07952,46.9628906 C252.841239,43.6621094 253.412528,40.8496094 253.793387,38.5253906 C254.174247,36.2011719 254.437919,34.5947266 254.584403,33.7060547 C254.730887,32.8173828 255.028739,30.7519531 255.477958,27.5097656 C259.520926,30.4589844 262.39202,32.7001953 264.091239,34.2333984 C265.790458,35.7666016 268.124442,37.5830078 271.093192,39.6826172 C274.061942,41.7822266 277.030692,43.2617188 279.999442,44.1210938 C281.229911,44.21875 281.308036,43.9355469 280.233817,43.2714844 C279.433036,42.9980469 278.261161,42.4072266 276.718192,41.4990234 C275.175223,40.5908203 273.241629,39.2431641 270.917411,37.4560547 C268.593192,35.6689453 266.1762,33.7451172 263.666434,31.6845703 C261.156669,29.6240234 258.515067,27.6855469 255.741629,25.8691406 C255.878348,24.9902344 256.015067,24.1894531 256.151786,23.4667969 C257.499442,23.1542969 259.237723,22.5732422 261.366629,21.7236328 C263.495536,20.8740234 265.165458,20.0878906 266.376395,19.3652344 C267.587333,18.6425781 268.754325,17.7099609 269.877372,16.5673828 C271.000419,15.4248047 271.806083,14.4335937 272.294364,13.59375 C272.782645,12.7539062 273.060965,11.9042969 273.129325,11.0449219 C273.197684,10.1855469 273.158622,9.4921875 273.012137,8.96484375 C272.865653,8.4375 272.538504,7.8125 272.030692,7.08984375 C271.522879,6.3671875 270.687919,5.68359375 269.525809,5.0390625 C268.3637,4.39453125 266.854911,3.93554688 264.999442,3.66210938 C263.143973,3.38867188 261.151786,3.23242188 259.022879,3.19335938 C258.729911,2.11914063 258.339286,1.53320313 257.851004,1.43554688 C257.362723,1.31835938 257.167411,1.484375 257.265067,1.93359375 L257.265067,1.93359375 L257.265067,2.78320313 L257.147879,3.48632813 C256.425223,3.70117188 255.643973,3.95019531 254.804129,4.23339844 C253.964286,4.51660156 252.948661,4.99511719 251.757254,5.66894531 C250.565848,6.34277344 249.85784,6.9140625 249.633231,7.3828125 C249.408622,7.8515625 249.296317,8.26171875 249.296317,8.61328125 C249.296317,8.96484375 249.364676,9.23339844 249.501395,9.41894531 C249.638114,9.60449219 249.828544,10.0048828 250.072684,10.6201172 C250.316825,11.2353516 250.624442,11.9238281 250.995536,12.6855469 C251.386161,12.3339844 251.503348,11.9287109 251.347098,11.4697266 C251.190848,11.0107422 250.980887,10.3955078 250.717215,9.62402344 C250.453544,8.85253906 250.634208,8.21289062 251.259208,7.70507813 C251.884208,7.19726563 252.523856,6.77246094 253.178153,6.43066406 C253.83245,6.08886719 255.116629,5.63476563 257.030692,5.06835938 C256.444754,8.79882812 256.054129,11.2060547 255.858817,12.2900391 C255.663504,13.3740234 255.453544,14.6923828 255.228934,16.2451172 C255.211657,16.3645583 255.194119,16.4862241 255.176321,16.6101146 L255.066415,17.3801544 C254.878036,18.7080483 254.663655,20.2584135 254.42327,22.03125 C252.743583,22.3632812 251.410575,22.5830078 250.424247,22.6904297 C249.437919,22.7978516 248.490653,22.8710938 247.58245,22.9101562 C246.674247,22.9492188 246.229911,23.1542969 246.249442,23.5253906 C246.268973,23.8964844 246.493583,24.3457031 246.92327,24.8730469 C247.431083,24.8730469 247.987723,24.8242188 248.593192,24.7265625 C249.550223,24.7265625 250.604911,24.9707031 251.757254,25.4589844 L251.757254,25.4589844 L253.690848,26.484375 C253.183036,30.2734375 252.70452,33.5253906 252.255301,36.2402344 C251.806083,38.9550781 251.395926,41.25 251.024833,43.125 C250.653739,45 250.331473,46.5820312 250.058036,47.8710938 L250.058036,47.8710938 L250.556083,48.4863281 L250.819754,48.4863281 Z M256.503348,21.4453125 C256.776786,19.609375 256.996512,18.1152344 257.162528,16.9628906 C257.236313,16.4507378 257.315884,15.8971113 257.401243,15.302011 L257.533622,14.3782552 C257.601981,13.9008247 257.673596,13.4000651 257.748465,12.8759766 C257.804618,12.4829102 257.857718,12.1112061 257.907767,11.7608643 L258.048758,10.7739258 C258.136649,10.1586914 258.212333,9.62890625 258.275809,9.18457031 C258.402762,8.29589844 258.622489,6.86523438 258.934989,4.89257812 C260.36077,4.75585938 261.933036,4.8046875 263.651786,5.0390625 C265.370536,5.2734375 266.654715,5.52734375 267.504325,5.80078125 C268.353934,6.07421875 269.247489,6.50390625 270.184989,7.08984375 C271.044364,8.14453125 271.513114,8.95019531 271.591239,9.50683594 C271.669364,10.0634766 271.581473,10.7373047 271.327567,11.5283203 C271.073661,12.3193359 270.541434,13.1933594 269.730887,14.1503906 C268.92034,15.1074219 267.938895,16.0205078 266.786551,16.8896484 C265.634208,17.7587891 264.14495,18.5986328 262.318778,19.4091797 C260.492606,20.2197266 258.554129,20.8984375 256.503348,21.4453125 Z M254.013114,24.7558594 C253.720145,24.5996094 253.32952,24.4335938 252.841239,24.2578125 C253.270926,24.1601562 253.700614,24.0527344 254.130301,23.9355469 L254.130301,23.9355469 L254.013114,24.7558594 Z M288.796038,44.9121094 C291.159319,45.0097656 293.844866,45.0097656 296.852679,44.9121094 C300.954241,44.4824219 304.821429,43.4863281 308.454241,41.9238281 C309.118304,41.4941406 308.756975,41.3476562 307.370257,41.484375 C305.065569,41.7773438 303.063616,42.0996094 301.364397,42.4511719 C299.665179,42.8027344 296.80385,43.125 292.780413,43.4179688 C289.714007,43.3789062 287.804827,43.3007812 287.052874,43.1835938 C286.300921,43.0664062 285.612444,42.9199219 284.987444,42.7441406 C284.108538,42.1386719 283.786272,41.3574219 284.020647,40.4003906 L284.020647,40.4003906 L284.401507,39.4921875 C284.967913,38.6132812 285.43178,37.9394531 285.793108,37.4707031 C286.154436,37.0019531 286.852679,36.1914062 287.887835,35.0390625 C288.981585,33.9648438 290.202288,32.8417969 291.549944,31.6699219 C292.8976,30.7128906 293.962054,29.9121094 294.743304,29.2675781 C295.524554,28.6230469 296.393694,27.9882812 297.350725,27.3632812 C298.698382,26.5429688 299.948382,25.7128906 301.100725,24.8730469 C302.350725,23.9746094 303.766741,23.0859375 305.348772,22.2070312 C306.130022,21.7773438 306.598772,21.2988281 306.755022,20.7714844 C306.676897,20.0292969 306.315569,19.5800781 305.671038,19.4238281 C305.046038,19.3847656 304.4601,19.4042969 303.913225,19.4824219 C302.819475,19.5605469 301.628069,19.6875 300.339007,19.8632812 L300.339007,19.8632812 L297.702288,19.9804688 C295.768694,19.9609375 294.391741,19.9023438 293.571429,19.8046875 C292.751116,19.7070312 291.852679,19.5117188 290.876116,19.21875 C289.99721,18.6914062 289.538225,18.0810547 289.499163,17.3876953 C289.4601,16.6943359 289.660296,15.8984375 290.099749,15 C290.539202,14.1015625 291.325335,12.9833984 292.458147,11.6455078 C293.59096,10.3076172 294.909319,9.23828125 296.413225,8.4375 C298.483538,7.265625 300.158343,6.46484375 301.43764,6.03515625 C302.716936,5.60546875 303.898577,5.28808594 304.982561,5.08300781 C306.066546,4.87792969 307.155413,4.78515625 308.249163,4.8046875 C309.714007,4.765625 310.592913,5.2734375 310.885882,6.328125 C311.120257,7.3046875 311.442522,7.79296875 311.852679,7.79296875 C312.008929,7.734375 312.174944,7.49023438 312.350725,7.06054688 L312.350725,7.06054688 L312.350725,5.859375 C312.253069,5.25390625 312.06264,4.78027344 311.779436,4.43847656 C311.496233,4.09667969 311.139788,3.81835938 310.7101,3.60351562 L310.7101,3.60351562 L309.128069,3.046875 L307.370257,3.046875 C306.296038,3.1640625 305.509905,3.25195312 305.011858,3.31054688 C304.513811,3.36914062 303.483538,3.61328125 301.921038,4.04296875 C300.339007,4.53125 298.854632,5.14648438 297.467913,5.88867188 C295.143694,7.02148438 293.092913,8.34960938 291.315569,9.87304688 L291.315569,9.87304688 L289.792132,11.8359375 C288.8351,13.4179688 288.249163,14.8535156 288.034319,16.1425781 L288.034319,16.1425781 L287.946429,17.34375 C288.12221,18.8476562 288.766741,19.8535156 289.880022,20.3613281 C290.895647,20.8300781 292.223772,21.1132812 293.864397,21.2109375 C295.46596,21.25 296.862444,21.2597656 298.05385,21.2402344 L298.05385,21.2402344 L300.046038,21.2402344 C301.549944,21.1425781 302.682757,21.0351562 303.444475,20.9179688 L303.444475,20.9179688 L304.411272,20.7714844 C303.981585,21.0449219 303.43471,21.4160156 302.770647,21.8847656 C301.969866,22.4316406 301.169085,22.9394531 300.368304,23.4082031 C298.571429,24.4824219 297.433733,25.1708984 296.955218,25.4736328 C296.476702,25.7763672 296.042132,26.0742188 295.651507,26.3671875 C295.260882,26.6601562 294.611468,27.1289062 293.703265,27.7734375 C292.795061,28.4179688 291.603655,29.3261719 290.129046,30.4980469 C288.654436,31.6699219 287.624163,32.5634766 287.038225,33.1787109 C286.452288,33.7939453 285.851702,34.4628906 285.236468,35.1855469 C284.621233,35.9082031 283.922991,36.875 283.141741,38.0859375 C282.770647,38.7109375 282.477679,39.5605469 282.262835,40.6347656 C282.262835,42.0214844 282.692522,43.0957031 283.551897,43.8574219 C284.68471,44.4628906 286.432757,44.8144531 288.796038,44.9121094 Z M316.987165,45.0878906 C318.393415,45.1660156 320.014509,45.0439453 321.850446,44.7216797 C323.686384,44.3994141 325.444196,43.8671875 327.123884,43.125 C328.803571,42.3828125 330.331892,41.5185547 331.708845,40.5322266 C333.085798,39.5458984 334.306501,38.4375 335.370954,37.2070312 C336.435407,35.9765625 337.109236,34.9316406 337.392439,34.0722656 C337.675642,33.2128906 337.631696,32.3974609 337.260603,31.6259766 C336.889509,30.8544922 336.479353,30.234375 336.030134,29.765625 C335.580915,29.296875 335.019392,28.7744141 334.345564,28.1982422 C333.671736,27.6220703 333.007673,27.0751953 332.353376,26.5576172 C331.699079,26.0400391 330.746931,25.234375 329.496931,24.140625 C328.246931,23.046875 327.06529,21.7724609 325.952009,20.3173828 C324.838728,18.8623047 324.072126,17.6171875 323.652204,16.5820312 C323.232282,15.546875 323.119978,14.3164062 323.31529,12.890625 C323.510603,11.4648437 324.243025,10.1220703 325.512556,8.86230469 C326.782087,7.60253906 328.593611,6.58203125 330.947126,5.80078125 C333.300642,5.01953125 335.551618,4.58496094 337.700056,4.49707031 C339.848493,4.40917969 341.3524,4.87304687 342.211775,5.88867187 C343.520368,6.86523437 343.969587,8.26171875 343.559431,10.078125 C342.621931,11.9726562 340.795759,13.90625 338.080915,15.8789062 C338.080915,16.0742188 338.334821,16.09375 338.842634,15.9375 C340.268415,15.4492187 341.537946,14.5800781 342.651228,13.3300781 C343.764509,12.0800781 344.457868,11.1425781 344.731306,10.5175781 C345.4149,9.63867187 345.585798,8.60351562 345.244001,7.41210937 C344.902204,6.22070312 344.09654,5.19042969 342.827009,4.32128906 C341.557478,3.45214844 339.858259,3.02734375 337.729353,3.046875 C335.600446,3.06640625 333.676618,3.33007812 331.957868,3.83789062 C330.239118,4.34570312 328.744978,4.92675781 327.475446,5.58105469 C326.205915,6.23535156 325.200056,6.90429687 324.457868,7.58789062 C323.715681,8.27148437 323.095564,8.99902344 322.597517,9.77050781 C322.09947,10.5419922 321.782087,11.5087891 321.645368,12.6708984 C321.50865,13.8330078 321.640486,15.1855469 322.040876,16.7285156 C322.441267,18.2714844 323.242048,19.7558594 324.44322,21.1816406 C325.644392,22.6074219 326.9774,23.9746094 328.442243,25.2832031 C330.903181,27.3925781 332.695173,28.9208984 333.81822,29.8681641 C334.941267,30.8154297 335.50279,31.7773438 335.50279,32.7539062 C335.50279,33.7304688 334.824079,35.0341797 333.466657,36.6650391 C332.109236,38.2958984 330.077986,39.7851562 327.372907,41.1328125 C324.667829,42.4804688 321.933454,43.2373047 319.169782,43.4033203 C316.406111,43.5693359 314.09654,43.28125 312.241071,42.5390625 C311.889509,41.7578125 311.567243,41.2792969 311.274275,41.1035156 C310.981306,40.8886719 310.810407,40.9033203 310.761579,41.1474609 C310.712751,41.3916016 310.69322,41.7773438 310.702986,42.3046875 C310.712751,42.8320312 310.97154,43.3349609 311.479353,43.8134766 C311.987165,44.2919922 312.680525,44.6044922 313.559431,44.7509766 C314.438337,44.8974609 315.580915,45.0097656 316.987165,45.0878906 Z M347.141183,45.0878906 C348.547433,45.1660156 350.168527,45.0439453 352.004464,44.7216797 C353.840402,44.3994141 355.598214,43.8671875 357.277902,43.125 C358.957589,42.3828125 360.48591,41.5185547 361.862863,40.5322266 C363.239816,39.5458984 364.460519,38.4375 365.524972,37.2070312 C366.589425,35.9765625 367.263253,34.9316406 367.546457,34.0722656 C367.82966,33.2128906 367.785714,32.3974609 367.414621,31.6259766 C367.043527,30.8544922 366.633371,30.234375 366.184152,29.765625 C365.734933,29.296875 365.17341,28.7744141 364.499582,28.1982422 C363.825753,27.6220703 363.161691,27.0751953 362.507394,26.5576172 C361.853097,26.0400391 360.900949,25.234375 359.650949,24.140625 C358.400949,23.046875 357.219308,21.7724609 356.106027,20.3173828 C354.992746,18.8623047 354.226144,17.6171875 353.806222,16.5820312 C353.3863,15.546875 353.273996,14.3164062 353.469308,12.890625 C353.664621,11.4648437 354.397042,10.1220703 355.666574,8.86230469 C356.936105,7.60253906 358.747628,6.58203125 361.101144,5.80078125 C363.45466,5.01953125 365.705636,4.58496094 367.854074,4.49707031 C370.002511,4.40917969 371.506417,4.87304687 372.365792,5.88867187 C373.674386,6.86523437 374.123605,8.26171875 373.713449,10.078125 C372.775949,11.9726562 370.949777,13.90625 368.234933,15.8789062 C368.234933,16.0742188 368.488839,16.09375 368.996652,15.9375 C370.422433,15.4492187 371.691964,14.5800781 372.805246,13.3300781 C373.918527,12.0800781 374.611886,11.1425781 374.885324,10.5175781 C375.568917,9.63867187 375.739816,8.60351562 375.398019,7.41210937 C375.056222,6.22070312 374.250558,5.19042969 372.981027,4.32128906 C371.711496,3.45214844 370.012277,3.02734375 367.883371,3.046875 C365.754464,3.06640625 363.830636,3.33007812 362.111886,3.83789062 C360.393136,4.34570312 358.898996,4.92675781 357.629464,5.58105469 C356.359933,6.23535156 355.354074,6.90429687 354.611886,7.58789062 C353.869699,8.27148437 353.249582,8.99902344 352.751535,9.77050781 C352.253488,10.5419922 351.936105,11.5087891 351.799386,12.6708984 C351.662667,13.8330078 351.794503,15.1855469 352.194894,16.7285156 C352.595285,18.2714844 353.396066,19.7558594 354.597238,21.1816406 C355.79841,22.6074219 357.131417,23.9746094 358.596261,25.2832031 C361.057199,27.3925781 362.849191,28.9208984 363.972238,29.8681641 C365.095285,30.8154297 365.656808,31.7773438 365.656808,32.7539062 C365.656808,33.7304688 364.978097,35.0341797 363.620675,36.6650391 C362.263253,38.2958984 360.232003,39.7851562 357.526925,41.1328125 C354.821847,42.4804688 352.087472,43.2373047 349.3238,43.4033203 C346.560128,43.5693359 344.250558,43.28125 342.395089,42.5390625 C342.043527,41.7578125 341.721261,41.2792969 341.428292,41.1035156 C341.135324,40.8886719 340.964425,40.9033203 340.915597,41.1474609 C340.866769,41.3916016 340.847238,41.7773438 340.857003,42.3046875 C340.866769,42.8320312 341.125558,43.3349609 341.633371,43.8134766 C342.141183,44.2919922 342.834542,44.6044922 343.713449,44.7509766 C344.592355,44.8974609 345.734933,45.0097656 347.141183,45.0878906 Z" id="ALYSSADRESS" fill="#000000" fill-rule="nonzero"></path>
    </g>
</svg>