<?xml version="1.0" encoding="UTF-8"?>
<svg width="401px" height="41px" viewBox="0 0 401 41" version="1.1" xmlns="http://www.w3.org/2000/svg" xmlns:xlink="http://www.w3.org/1999/xlink">
    <title>ALYSSAGOWN</title>
    <g id="final-copy" stroke="none" stroke-width="1" fill="none" fill-rule="evenodd">
        <path d="M10.89,40 L10.89,39.45 L8.25,39.45 C6.655,39.45 5.5,37.69 5.5,35.93 C5.5,35.545 5.555,34.995 5.72,34.61 L9.13,25.37 L24.53,25.37 L29.975,39.45 L25.355,39.45 L25.355,40 L35.86,40 L35.86,39.45 L33.165,39.45 L18.7,1.5 L17.435,1.5 L3.19,39.45 L0.44,39.45 L0.44,40 L10.89,40 Z M24.365,24.875 L9.295,24.875 L16.775,4.91 L24.365,24.875 Z M65.3007143,40 L65.3007143,32.19 L64.7507143,32.19 L64.7507143,33.675 C64.7507143,36.535 61.9457143,39.45 59.0857143,39.45 L47.0407143,39.45 L47.0407143,2.05 L52.1557143,2.05 L52.1557143,1.5 L39.3957143,1.5 L39.3957143,2.05 L43.9607143,2.05 L43.9607143,39.45 L39.3957143,39.45 L39.3957143,40 L65.3007143,40 Z M84.0714286,40 L84.0714286,39.45 L79.5614286,39.45 L79.5614286,20.475 L92.9264286,2.05 L95.2914286,2.05 L95.2914286,1.5 L83.7414286,1.5 L83.7414286,2.05 L86.4914286,2.05 C88.0864286,2.05 89.4064286,3.425 89.4064286,4.91 C89.4064286,5.405 89.2414286,5.955 88.8564286,6.45 L79.2314286,19.87 L67.1864286,2.05 L71.7514286,2.05 L71.7514286,1.5 L60.6964286,1.5 L60.6964286,2.05 L63.2814286,2.05 L76.4814286,21.575 L76.4814286,39.45 L71.9714286,39.45 L71.9714286,40 L84.0714286,40 Z M112.302143,40.55 C119.122143,40.55 124.347143,36.48 124.347143,29.935 C124.347143,21.9252299 118.222952,20.0752563 112.219903,18.5694717 L111.705798,18.4411118 L111.705798,18.4411118 L110.937665,18.2499524 C110.512388,18.1437891 110.090005,18.0372625 109.672792,17.9282532 L109.174764,17.7961146 C108.762051,17.68478 108.355419,17.5701149 107.957143,17.45 C103.887143,16.24 100.642143,14.37 100.642143,9.695 C100.642143,4.8 104.877143,1.5 110.927143,1.5 C116.812143,1.5 120.992143,4.525 122.147143,11.73 L122.642143,11.73 L122.642143,1.445 L122.147143,1.445 C122.147143,2.71 120.992143,3.7 119.837143,3.7 C119.452143,3.7 119.012143,3.59 118.627143,3.26 C116.812143,1.885 114.502143,0.95 110.927143,0.95 C104.162143,0.95 99.1021429,4.745 99.1021429,11.235 C99.1021429,18.4671839 104.689704,20.0811058 110.382777,21.5358772 L111.171184,21.7368267 C112.834747,22.1611725 114.485706,22.5934483 115.987143,23.17 C119.672143,24.6 122.532143,26.745 122.532143,31.64 C122.532143,36.59 118.407143,40 112.302143,40 C106.417143,40 100.752143,37.03 99.7071429,29.44 L99.1571429,29.44 L99.1571429,40.055 L99.6521429,40.055 C99.6521429,38.79 100.917143,37.69 102.182143,37.69 C102.567143,37.69 103.062143,37.8 103.447143,38.075 C105.537143,39.56 108.232143,40.55 112.302143,40.55 Z M146.527857,40.55 C153.347857,40.55 158.572857,36.48 158.572857,29.935 C158.572857,22.8406322 153.768492,20.5785619 148.49923,19.1079084 L147.987995,18.967922 C147.902596,18.9449575 147.817113,18.922165 147.731563,18.8995275 L147.217614,18.765427 C146.960387,18.6991712 146.702891,18.6340054 146.445617,18.5694717 L145.674956,18.3773096 C144.478717,18.0799168 143.29803,17.7863218 142.182857,17.45 C138.112857,16.24 134.867857,14.37 134.867857,9.695 C134.867857,4.8 139.102857,1.5 145.152857,1.5 C151.037857,1.5 155.217857,4.525 156.372857,11.73 L156.867857,11.73 L156.867857,1.445 L156.372857,1.445 C156.372857,2.71 155.217857,3.7 154.062857,3.7 C153.677857,3.7 153.237857,3.59 152.852857,3.26 C151.037857,1.885 148.727857,0.95 145.152857,0.95 C138.387857,0.95 133.327857,4.745 133.327857,11.235 C133.327857,18.0221264 138.248878,19.861193 143.559939,21.2642237 L144.345829,21.468601 L144.345829,21.468601 L145.134146,21.6698708 C145.659781,21.8037304 146.184877,21.9376652 146.705124,22.0759689 L147.223594,22.2158879 C148.256662,22.4992747 149.264581,22.8058621 150.212857,23.17 C153.897857,24.6 156.757857,26.745 156.757857,31.64 C156.757857,36.59 152.632857,40 146.527857,40 C140.642857,40 134.977857,37.03 133.932857,29.44 L133.382857,29.44 L133.382857,40.055 L133.877857,40.055 C133.877857,38.79 135.142857,37.69 136.407857,37.69 C136.792857,37.69 137.287857,37.8 137.672857,38.075 C139.762857,39.56 142.457857,40.55 146.527857,40.55 Z M174.318571,40 L174.318571,39.45 L171.678571,39.45 C170.083571,39.45 168.928571,37.69 168.928571,35.93 C168.928571,35.545 168.983571,34.995 169.148571,34.61 L172.558571,25.37 L187.958571,25.37 L193.403571,39.45 L188.783571,39.45 L188.783571,40 L199.288571,40 L199.288571,39.45 L196.593571,39.45 L182.128571,1.5 L180.863571,1.5 L166.618571,39.45 L163.868571,39.45 L163.868571,40 L174.318571,40 Z M187.793571,24.875 L172.723571,24.875 L180.203571,4.91 L187.793571,24.875 Z M248.175714,40.55 C253.345714,40.55 258.020714,37.415 258.680714,32.245 C259.340714,33.125 260.935714,37.8 260.935714,40.055 L261.430714,40.055 L261.430714,21.575 L265.610714,21.575 L265.610714,21.025 L249.330714,21.025 L249.330714,21.575 L258.350714,21.575 L258.350714,30.155 C258.350714,36.535 253.675714,40 248.175714,40 C239.485714,40 235.140714,33.345 235.140714,20.86 C235.140714,8.155 240.035714,1.5 248.725714,1.5 C255.325714,1.5 260.055714,6.45 260.825714,12.72 L261.375714,12.72 L261.375714,1.445 L260.935714,1.445 C260.935714,2.49 259.505714,4.305 258.185714,4.305 C257.855714,4.305 257.470714,4.195 257.195714,3.92 C255.270714,2.27 252.575714,0.95 248.725714,0.95 C238.935714,0.95 231.785714,7.935 231.785714,20.86 C231.785714,33.565 238.385714,40.55 248.175714,40.55 Z M288.946429,40.55 C298.791429,40.55 305.941429,33.565 305.941429,20.86 C305.941429,7.935 298.791429,0.95 288.946429,0.95 C279.156429,0.95 272.006429,7.935 272.006429,20.86 C272.006429,33.565 279.156429,40.55 288.946429,40.55 Z M288.946429,40 C280.256429,40 275.361429,33.345 275.361429,20.86 C275.361429,8.155 280.256429,1.5 288.946429,1.5 C297.691429,1.5 302.586429,8.155 302.586429,20.86 C302.586429,33.345 297.691429,40 288.946429,40 Z M329.827143,40 L337.362143,19.87 L345.062143,40 L346.382143,40 L360.627143,2.05 L363.377143,2.05 L363.377143,1.5 L352.872143,1.5 L352.872143,2.05 L355.237143,2.05 C356.887143,2.05 358.317143,3.425 358.317143,5.46 C358.317143,6.065 358.207143,6.725 357.932143,7.44 L347.042143,36.37 L333.842143,2.05 L337.967143,2.05 L337.967143,1.5 L327.682143,1.5 L327.682143,2.05 L330.597143,2.05 L336.977143,18.88 L330.487143,36.37 L317.287143,2.05 L321.522143,2.05 L321.522143,1.5 L311.347143,1.5 L311.347143,2.05 L314.042143,2.05 L328.507143,40 L329.827143,40 Z M396.282857,40.11 L396.282857,5.955 C396.282857,4.03 398.042857,2.05 399.857857,2.05 L400.957857,2.05 L400.957857,1.5 L389.572857,1.5 L389.572857,2.05 L392.047857,2.05 C393.862857,2.05 395.677857,4.03 395.677857,5.955 L395.677857,34.445 L374.007857,1.5 L366.747857,1.5 L366.747857,2.05 L370.377857,2.05 L371.477857,3.48 L371.477857,35.545 C371.477857,37.525 369.717857,39.45 367.902857,39.45 L366.747857,39.45 L366.747857,40 L378.187857,40 L378.187857,39.45 L375.657857,39.45 C373.897857,39.45 372.027857,37.47 372.027857,35.545 L372.027857,4.14 L395.732857,40.11 L396.282857,40.11 Z" id="ALYSSAGOWN" fill="#000000" fill-rule="nonzero"></path>
    </g>
</svg>