<?xml version="1.0" encoding="UTF-8"?>
<svg width="415px" height="41px" viewBox="0 0 415 41" version="1.1" xmlns="http://www.w3.org/2000/svg" xmlns:xlink="http://www.w3.org/1999/xlink">
    <title>AZALEAGOWN</title>
    <g id="final-copy" stroke="none" stroke-width="1" fill="none" fill-rule="evenodd">
        <path d="M10.89,40 L10.89,39.45 L8.25,39.45 C6.655,39.45 5.5,37.69 5.5,35.93 C5.5,35.545 5.555,34.995 5.72,34.61 L9.13,25.37 L24.53,25.37 L29.975,39.45 L25.355,39.45 L25.355,40 L35.86,40 L35.86,39.45 L33.165,39.45 L18.7,1.5 L17.435,1.5 L3.19,39.45 L0.44,39.45 L0.44,40 L10.89,40 Z M24.365,24.875 L9.295,24.875 L16.775,4.91 L24.365,24.875 Z M70.4707143,40 L70.4707143,32.355 L69.9207143,32.355 L69.9207143,33.455 C69.9207143,36.26 67.4457143,39.45 64.3107143,39.45 L44.5107143,39.45 L69.9207143,1.995 L69.9207143,1.5 L41.8707143,1.5 L41.8707143,9.035 L42.4757143,9.035 L42.4757143,7.99 C42.4757143,5.075 45.0057143,2.05 47.9757143,2.05 L66.1257143,2.05 L40.6607143,39.505 L40.6607143,40 L70.4707143,40 Z M86.2164286,40 L86.2164286,39.45 L83.5764286,39.45 C81.9814286,39.45 80.8264286,37.69 80.8264286,35.93 C80.8264286,35.545 80.8814286,34.995 81.0464286,34.61 L84.4564286,25.37 L99.8564286,25.37 L105.301429,39.45 L100.681429,39.45 L100.681429,40 L111.186429,40 L111.186429,39.45 L108.491429,39.45 L94.0264286,1.5 L92.7614286,1.5 L78.5164286,39.45 L75.7664286,39.45 L75.7664286,40 L86.2164286,40 Z M99.6914286,24.875 L84.6214286,24.875 L92.1014286,4.91 L99.6914286,24.875 Z M140.627143,40 L140.627143,32.19 L140.077143,32.19 L140.077143,33.675 C140.077143,36.535 137.272143,39.45 134.412143,39.45 L122.367143,39.45 L122.367143,2.05 L127.482143,2.05 L127.482143,1.5 L114.722143,1.5 L114.722143,2.05 L119.287143,2.05 L119.287143,39.45 L114.722143,39.45 L114.722143,40 L140.627143,40 Z M172.707857,40 L172.707857,32.74 L172.157857,32.74 L172.157857,33.84 C172.157857,36.81 169.352857,39.45 166.382857,39.45 L152.962857,39.45 L152.962857,20.09 L161.212857,20.09 C163.302857,20.09 165.117857,21.96 165.117857,24.105 L165.117857,24.985 L165.667857,24.985 L165.667857,14.645 L165.117857,14.645 L165.117857,15.58 C165.117857,17.67 163.302857,19.54 161.212857,19.54 L152.962857,19.54 L152.962857,2.05 L166.327857,2.05 C169.077857,2.05 171.607857,4.47 171.607857,7.11 L171.607857,8.21 L172.157857,8.21 L172.157857,1.5 L145.372857,1.5 L145.372857,2.05 L149.882857,2.05 L149.882857,39.45 L145.372857,39.45 L145.372857,40 L172.707857,40 Z M187.518571,40 L187.518571,39.45 L184.878571,39.45 C183.283571,39.45 182.128571,37.69 182.128571,35.93 C182.128571,35.545 182.183571,34.995 182.348571,34.61 L185.758571,25.37 L201.158571,25.37 L206.603571,39.45 L201.983571,39.45 L201.983571,40 L212.488571,40 L212.488571,39.45 L209.793571,39.45 L195.328571,1.5 L194.063571,1.5 L179.818571,39.45 L177.068571,39.45 L177.068571,40 L187.518571,40 Z M200.993571,24.875 L185.923571,24.875 L193.403571,4.91 L200.993571,24.875 Z M261.375714,40.55 C266.545714,40.55 271.220714,37.415 271.880714,32.245 C272.540714,33.125 274.135714,37.8 274.135714,40.055 L274.630714,40.055 L274.630714,21.575 L278.810714,21.575 L278.810714,21.025 L262.530714,21.025 L262.530714,21.575 L271.550714,21.575 L271.550714,30.155 C271.550714,36.535 266.875714,40 261.375714,40 C252.685714,40 248.340714,33.345 248.340714,20.86 C248.340714,8.155 253.235714,1.5 261.925714,1.5 C268.525714,1.5 273.255714,6.45 274.025714,12.72 L274.575714,12.72 L274.575714,1.445 L274.135714,1.445 C274.135714,2.49 272.705714,4.305 271.385714,4.305 C271.055714,4.305 270.670714,4.195 270.395714,3.92 C268.470714,2.27 265.775714,0.95 261.925714,0.95 C252.135714,0.95 244.985714,7.935 244.985714,20.86 C244.985714,33.565 251.585714,40.55 261.375714,40.55 Z M302.146429,40.55 C311.991429,40.55 319.141429,33.565 319.141429,20.86 C319.141429,7.935 311.991429,0.95 302.146429,0.95 C292.356429,0.95 285.206429,7.935 285.206429,20.86 C285.206429,33.565 292.356429,40.55 302.146429,40.55 Z M302.146429,40 C293.456429,40 288.561429,33.345 288.561429,20.86 C288.561429,8.155 293.456429,1.5 302.146429,1.5 C310.891429,1.5 315.786429,8.155 315.786429,20.86 C315.786429,33.345 310.891429,40 302.146429,40 Z M343.027143,40 L350.562143,19.87 L358.262143,40 L359.582143,40 L373.827143,2.05 L376.577143,2.05 L376.577143,1.5 L366.072143,1.5 L366.072143,2.05 L368.437143,2.05 C370.087143,2.05 371.517143,3.425 371.517143,5.46 C371.517143,6.065 371.407143,6.725 371.132143,7.44 L360.242143,36.37 L347.042143,2.05 L351.167143,2.05 L351.167143,1.5 L340.882143,1.5 L340.882143,2.05 L343.797143,2.05 L350.177143,18.88 L343.687143,36.37 L330.487143,2.05 L334.722143,2.05 L334.722143,1.5 L324.547143,1.5 L324.547143,2.05 L327.242143,2.05 L341.707143,40 L343.027143,40 Z M409.482857,40.11 L409.482857,5.955 C409.482857,4.03 411.242857,2.05 413.057857,2.05 L414.157857,2.05 L414.157857,1.5 L402.772857,1.5 L402.772857,2.05 L405.247857,2.05 C407.062857,2.05 408.877857,4.03 408.877857,5.955 L408.877857,34.445 L387.207857,1.5 L379.947857,1.5 L379.947857,2.05 L383.577857,2.05 L384.677857,3.48 L384.677857,35.545 C384.677857,37.525 382.917857,39.45 381.102857,39.45 L379.947857,39.45 L379.947857,40 L391.387857,40 L391.387857,39.45 L388.857857,39.45 C387.097857,39.45 385.227857,37.47 385.227857,35.545 L385.227857,4.14 L408.932857,40.11 L409.482857,40.11 Z" id="AZALEAGOWN" fill="#F99393" fill-rule="nonzero"></path>
    </g>
</svg>