<?xml version="1.0" encoding="UTF-8"?>
<svg width="392px" height="49px" viewBox="0 0 392 49" version="1.1" xmlns="http://www.w3.org/2000/svg" xmlns:xlink="http://www.w3.org/1999/xlink">
    <title>AZALEADRESS</title>
    <g id="final-copy" stroke="none" stroke-width="1" fill="none" fill-rule="evenodd">
        <path d="M21.4160156,48.4238281 C21.7480469,48.3847656 21.9824219,48.2285156 22.1191406,47.9550781 L22.1191406,47.9550781 L22.2070312,47.1347656 C22.2851562,45.6113281 22.3535156,44.2050781 22.4121094,42.9160156 C22.4902344,42.3886719 22.5537109,41.8076172 22.6025391,41.1728516 C22.6513672,40.5380859 22.7636719,39.5517578 22.9394531,38.2138672 C23.1152344,36.8759766 23.2958984,35.40625 23.4814453,33.8046875 C23.6669922,32.203125 23.8867188,30.8066406 24.140625,29.6152344 C25.2734375,29.5175781 26.7675781,29.4101562 28.6230469,29.2929688 C31.2597656,29.0195313 32.8808594,28.7558594 33.4863281,28.5019531 C34.0917969,28.2480469 34.1162109,28.0429688 33.5595703,27.8867188 C33.0029297,27.7304687 32.1679688,27.671875 31.0546875,27.7109375 C29.9414062,27.75 28.7792969,27.7988281 27.5683594,27.8574219 C26.3574219,27.9160156 25.390625,27.9648438 24.6679688,28.0039062 L24.6679688,28.0039062 L24.2871094,28.0039062 L24.2871094,27.8867188 C24.4042969,27.1054688 24.4970703,26.4609375 24.5654297,25.953125 C24.6337891,25.4453125 24.7802734,24.5615234 25.0048828,23.3017578 C25.2294922,22.0419922 25.5273438,20.3671875 25.8984375,18.2773438 C26.2695312,16.1875 26.6503906,14.4003906 27.0410156,12.9160156 C27.3925781,11.2753906 27.8613281,9.51757812 28.4472656,7.64257812 C28.7402344,6.64648438 29.4628906,5.29882812 30.6152344,3.59960938 L30.6152344,3.59960938 L30.6152344,2.95507812 C30.3417969,2.56445312 29.8730469,2.30078125 29.2089844,2.1640625 C28.8183594,2.61328125 28.5058594,3.11621094 28.2714844,3.67285156 C28.0371094,4.22949219 27.5292969,5.23046875 26.7480469,6.67578125 C25.5371094,8.74609375 24.7119141,10.1425781 24.2724609,10.8652344 C23.8330078,11.5878906 23.2128906,12.5742188 22.4121094,13.8242188 C21.0449219,15.8164062 20.0390625,17.2666016 19.3945312,18.1748047 C18.75,19.0830078 17.9785156,20.171875 17.0800781,21.4414062 C16.1816406,22.7109375 15.5029297,23.6533203 15.0439453,24.2685547 C14.5849609,24.8837891 14.0283203,25.6162109 13.3740234,26.4658203 C12.7197266,27.3154297 11.7285156,28.4433594 10.4003906,29.8496094 C8.31054688,30.3183594 6.70410156,30.6455078 5.58105469,30.8310547 C4.45800781,31.0166016 3.56445312,31.1337891 2.90039062,31.1826172 C2.23632812,31.2314453 1.77734375,31.2558594 1.5234375,31.2558594 C1.26953125,31.2558594 1.07421875,31.3242187 0.9375,31.4609375 C0.9375,32.3984375 1.6015625,32.8671875 2.9296875,32.8671875 C3.3984375,32.8671875 3.6328125,32.9550781 3.6328125,33.1308594 C4.9609375,33.2089844 6.12304688,33.4238281 7.11914062,33.7753906 C5.53710938,35.4550781 4.35546875,36.6074219 3.57421875,37.2324219 C2.79296875,37.8574219 2.00195312,38.3652344 1.20117188,38.7558594 C0.400390625,39.1464844 0,39.4394531 0,39.6347656 C0.05859375,40.3378906 0.56640625,40.6894531 1.5234375,40.6894531 C3.9453125,39.0292969 5.58105469,37.7792969 6.43066406,36.9394531 C7.28027344,36.0996094 8.125,35.2402344 8.96484375,34.3613281 C10,34.7324219 11.0742188,35.1914062 12.1875,35.7382812 C13.6523438,36.6757812 14.7509766,37.5107422 15.4833984,38.2431641 C16.2158203,38.9755859 16.8554688,39.6835938 17.4023438,40.3671875 C17.9492187,41.0507812 18.5009766,41.8662109 19.0576172,42.8134766 C19.6142578,43.7607422 19.9707031,44.390625 20.1269531,44.703125 C20.2832031,45.015625 20.390625,45.3476562 20.4492188,45.6992188 C20.5078125,46.6953125 20.5810547,47.3349609 20.6689453,47.6181641 C20.7568359,47.9013672 21.0058594,48.1699219 21.4160156,48.4238281 Z M13.3300781,29.4101562 C14.2480469,28.3164062 15.5078125,26.65625 17.109375,24.4296875 C18.6523438,22.125 19.6875,20.6601562 20.2148438,20.0351562 C20.6835938,19.2734375 21.1376953,18.5800781 21.5771484,17.9550781 C22.0166016,17.3300781 22.7148438,16.3144531 23.671875,14.9082031 C24.0625,14.3417969 24.5800781,13.5898438 25.2246094,12.6523438 L25.2246094,12.6523438 L25.2832031,12.6523438 L25.2832031,12.7109375 L24.9316406,14.6738281 C24.5996094,16.1777344 24.375,17.1835938 24.2578125,17.6914062 C24.140625,18.1992188 23.9453125,19.1660156 23.671875,20.5917969 C23.515625,21.7832031 23.3789062,22.8769531 23.2617188,23.8730469 L23.2617188,23.8730469 L22.5878906,28.1503906 C21.3769531,28.3261719 20.2539062,28.4726562 19.21875,28.5898438 C17.265625,28.9023438 15.3027344,29.1757812 13.3300781,29.4101562 Z M20.8300781,43.6191406 C20.4003906,42.7597656 20.0097656,42.0273438 19.6582031,41.421875 C19.3066406,40.8164062 18.8867188,40.2158203 18.3984375,39.6201172 C17.9101562,39.0244141 17.2851562,38.3603516 16.5234375,37.6279297 C15.7617188,36.8955078 14.9609375,36.2363281 14.1210938,35.6503906 C13.28125,35.0644531 12.5976562,34.6542969 12.0703125,34.4199219 C11.5429688,34.1855469 10.7519531,33.8535156 9.69726562,33.4238281 C10.3808594,32.7597656 11.0351562,32.0859375 11.6601562,31.4023438 C14.1210938,30.9726562 16.1621094,30.6601562 17.7832031,30.4648438 C19.1699219,30.25 20.390625,30.0839844 21.4453125,29.9667969 L21.4453125,29.9667969 L22.3535156,29.8789062 L22.1191406,31.1972656 C21.8652344,33.1308594 21.6699219,34.6542969 21.5332031,35.7675781 C21.3964844,36.8808594 21.25,38.3359375 21.09375,40.1328125 C20.9570312,41.5 20.8691406,42.6621094 20.8300781,43.6191406 Z M7.88085938,32.8671875 C6.90429688,32.59375 6.35742188,32.4472656 6.24023438,32.4277344 L6.24023438,32.4277344 L6.24023438,32.3691406 C7.23632812,32.1152344 8.14453125,31.9296875 8.96484375,31.8125 C8.6328125,32.1445312 8.27148438,32.4960938 7.88085938,32.8671875 Z M31.0036272,43.8828125 C31.1598772,43.8046875 31.4479632,43.6582031 31.867885,43.4433594 C32.2878069,43.2285156 32.8786272,42.5546875 33.640346,41.421875 C35.1833147,41.109375 36.7067522,40.8701172 38.2106585,40.7041016 C39.7145647,40.5380859 41.0768694,40.4550781 42.2975725,40.4550781 C43.5182757,40.4550781 45.671596,40.5087891 48.7575335,40.6162109 C51.843471,40.7236328 54.3874163,40.796875 56.3893694,40.8359375 C58.3913225,40.875 61.0524554,40.8359375 64.3727679,40.71875 C67.6930804,40.6015625 69.6755022,40.3378906 70.3200335,39.9277344 L70.3200335,39.9277344 L70.3200335,39.7226562 C70.3200335,39.625 69.7438616,39.5126953 68.5915179,39.3857422 C67.4391741,39.2587891 66.0671038,39.2197266 64.4753069,39.2685547 C62.88351,39.3173828 61.0915179,39.3173828 59.0993304,39.2685547 C57.1071429,39.2197266 54.8659319,39.1416016 52.3756975,39.0341797 C49.8854632,38.9267578 47.4294085,38.8535156 45.0075335,38.8144531 C42.5856585,38.7753906 40.515346,38.8046875 38.796596,38.9023438 C37.077846,39 35.827846,39.1367188 35.046596,39.3125 C36.3942522,37.359375 37.57101,35.5917969 38.5768694,34.0097656 C39.5827288,32.4277344 40.5348772,30.9140625 41.4333147,29.46875 C42.3317522,28.0234375 43.0690569,26.8613281 43.6452288,25.9824219 C44.2214007,25.1035156 44.7829241,24.2929688 45.3297991,23.5507812 C47.1657366,23.3945312 48.6061663,23.2919922 49.6510882,23.2431641 C50.69601,23.1943359 51.5895647,23.1162109 52.3317522,23.0087891 C53.0739397,22.9013672 53.8942522,22.7207031 54.7926897,22.4667969 C55.4176897,21.9199219 55.3981585,21.6464844 54.734096,21.6464844 C53.9919085,21.7050781 53.2399554,21.7539062 52.4782366,21.7929688 C51.7165179,21.8320312 50.9792132,21.8564453 50.2663225,21.8662109 C49.69601,21.8740234 48.7788225,21.8787109 47.51476,21.8802734 L46.5016741,21.8808594 C46.9899554,21.1386719 47.57101,20.3085938 48.2448382,19.390625 C48.9186663,18.4726562 49.5973772,17.5302734 50.280971,16.5634766 C50.9645647,15.5966797 51.5065569,14.8349609 51.9069475,14.2783203 C52.3073382,13.7216797 52.702846,13.1650391 53.093471,12.6083984 C53.484096,12.0517578 54.187221,11.0800781 55.202846,9.69335938 C56.2380022,8.38476562 56.9508929,7.53515625 57.3415179,7.14453125 C57.7321429,6.75390625 58.1618304,6.34375 58.6305804,5.9140625 C59.0993304,5.484375 59.5631975,5.1328125 60.0221819,4.859375 C60.4811663,4.5859375 61.0817522,4.25390625 61.8239397,3.86328125 C62.390346,3.765625 62.6735491,3.54101562 62.6735491,3.18945312 L62.6735491,3.18945312 L62.6735491,2.80859375 C62.4196429,2.26171875 62.155971,1.98828125 61.8825335,1.98828125 L61.8825335,1.98828125 L61.3258929,2.13476562 C60.9352679,2.40820312 60.3493304,2.74023438 59.5680804,3.13085938 C58.7868304,3.52148438 57.9518694,3.88769531 57.0631975,4.22949219 C56.1745257,4.57128906 55.0954241,4.86914062 53.8258929,5.12304688 C52.5563616,5.37695312 51.4381975,5.60644531 50.4714007,5.81152344 C49.5046038,6.01660156 48.6208147,6.20214844 47.8200335,6.36816406 C47.0192522,6.53417969 46.1208147,6.68554688 45.124721,6.82226562 C44.1286272,6.95898438 42.9176897,7.13476562 41.4919085,7.34960938 C40.0661272,7.56445313 38.9137835,7.7109375 38.0348772,7.7890625 C37.859096,7.2421875 37.3317522,6.99804688 36.452846,7.05664062 C35.984096,7.34960938 35.7204241,7.62304687 35.6618304,7.87695312 L35.6618304,7.87695312 L35.6618304,8.40429688 C35.6618304,8.69726562 35.8473772,8.99023438 36.218471,9.28320312 C36.530971,9.47851562 36.9508929,9.57617188 37.4782366,9.57617188 C38.0055804,9.57617188 38.4889788,9.52734375 38.9284319,9.4296875 C39.0882331,9.39417614 39.2867739,9.35220816 39.5240543,9.30378357 L39.9090298,9.22630424 C40.254055,9.15770274 40.6596109,9.07901278 41.1256975,8.99023438 C42.1510882,8.79492188 43.3913225,8.58007812 44.8464007,8.34570312 C46.3014788,8.11132812 47.8102679,7.83789062 49.3727679,7.52539062 C50.9352679,7.21289062 52.1120257,6.97851562 52.9030413,6.82226562 C53.6940569,6.66601562 54.6462054,6.421875 55.7594866,6.08984375 L55.7594866,6.08984375 L56.5505022,5.85546875 C55.2614397,7.359375 54.265346,8.60449219 53.562221,9.59082031 C52.859096,10.5771484 52.0339007,11.7148438 51.086635,13.0039062 C50.1393694,14.2929688 49.3727679,15.3085938 48.7868304,16.0507812 C48.2008929,16.7929688 47.702846,17.4472656 47.2926897,18.0136719 C46.8825335,18.5800781 46.4333147,19.1855469 45.9450335,19.8300781 C45.4567522,20.4746094 44.9098772,21.1875 44.3044085,21.96875 C43.3083147,22.0273438 42.5807757,22.0615234 42.1217913,22.0712891 C41.6628069,22.0810547 41.1989397,22.0810547 40.7301897,22.0712891 C40.2614397,22.0615234 40.0221819,22.1835938 40.0124163,22.4375 C40.0026507,22.6914062 40.0661272,22.984375 40.202846,23.3164062 C40.3395647,23.6484375 40.5348772,23.8535156 40.7887835,23.9316406 C41.8825335,23.7949219 42.6833147,23.7167969 43.1911272,23.6972656 C42.3317522,25.1035156 41.5358538,26.3583984 40.8034319,27.4619141 C40.07101,28.5654297 39.2506975,29.8300781 38.3424944,31.2558594 C37.4342913,32.6816406 36.5602679,34.0195312 35.7204241,35.2695312 C34.8805804,36.5195312 34.0212054,37.6523438 33.1422991,38.6679688 C32.6149554,39.3515625 32.2438616,39.703125 32.0290179,39.7226562 C31.5602679,39.9570312 30.905971,40.0742188 30.0661272,40.0742188 C29.7731585,40.0742188 29.5094866,40.25 29.2751116,40.6015625 C29.2751116,40.6796875 29.3532366,40.9335938 29.5094866,41.3632812 L29.5094866,41.3632812 L29.2751116,42.3300781 C29.3337054,42.5839844 29.3630022,42.7304688 29.3630022,42.7695312 C29.6755022,43.5117188 30.2223772,43.8828125 31.0036272,43.8828125 Z M84.6537388,48.4238281 C84.9857701,48.3847656 85.2201451,48.2285156 85.3568638,47.9550781 L85.3568638,47.9550781 L85.4447545,47.1347656 C85.5228795,45.6113281 85.5912388,44.2050781 85.6498326,42.9160156 C85.7279576,42.3886719 85.7914342,41.8076172 85.8402623,41.1728516 C85.8890904,40.5380859 86.0013951,39.5517578 86.1771763,38.2138672 C86.3529576,36.8759766 86.5336217,35.40625 86.7191685,33.8046875 C86.9047154,32.203125 87.124442,30.8066406 87.3783482,29.6152344 C88.5111607,29.5175781 90.0053013,29.4101562 91.8607701,29.2929688 C94.4974888,29.0195313 96.1185826,28.7558594 96.7240513,28.5019531 C97.3295201,28.2480469 97.3539342,28.0429688 96.7972935,27.8867188 C96.2406529,27.7304687 95.405692,27.671875 94.2924107,27.7109375 C93.1791295,27.75 92.0170201,27.7988281 90.8060826,27.8574219 C89.5951451,27.9160156 88.6283482,27.9648438 87.905692,28.0039062 L87.905692,28.0039062 L87.5248326,28.0039062 L87.5248326,27.8867188 C87.6420201,27.1054688 87.7347935,26.4609375 87.8031529,25.953125 C87.8715123,25.4453125 88.0179967,24.5615234 88.242606,23.3017578 C88.4672154,22.0419922 88.765067,20.3671875 89.1361607,18.2773438 C89.5072545,16.1875 89.8881138,14.4003906 90.2787388,12.9160156 C90.6303013,11.2753906 91.0990513,9.51757812 91.6849888,7.64257812 C91.9779576,6.64648438 92.7006138,5.29882812 93.8529576,3.59960938 L93.8529576,3.59960938 L93.8529576,2.95507812 C93.5795201,2.56445312 93.1107701,2.30078125 92.4467076,2.1640625 C92.0560826,2.61328125 91.7435826,3.11621094 91.5092076,3.67285156 C91.2748326,4.22949219 90.7670201,5.23046875 89.9857701,6.67578125 C88.7748326,8.74609375 87.9496373,10.1425781 87.5101842,10.8652344 C87.070731,11.5878906 86.4506138,12.5742188 85.6498326,13.8242188 C84.2826451,15.8164062 83.2767857,17.2666016 82.6322545,18.1748047 C81.9877232,19.0830078 81.2162388,20.171875 80.3178013,21.4414062 C79.4193638,22.7109375 78.7406529,23.6533203 78.2816685,24.2685547 C77.8226842,24.8837891 77.2660435,25.6162109 76.6117467,26.4658203 C75.9574498,27.3154297 74.9662388,28.4433594 73.6381138,29.8496094 C71.5482701,30.3183594 69.9418248,30.6455078 68.8187779,30.8310547 C67.695731,31.0166016 66.8021763,31.1337891 66.1381138,31.1826172 C65.4740513,31.2314453 65.015067,31.2558594 64.7611607,31.2558594 C64.5072545,31.2558594 64.311942,31.3242187 64.1752232,31.4609375 C64.1752232,32.3984375 64.8392857,32.8671875 66.1674107,32.8671875 C66.6361607,32.8671875 66.8705357,32.9550781 66.8705357,33.1308594 C68.1986607,33.2089844 69.3607701,33.4238281 70.3568638,33.7753906 C68.7748326,35.4550781 67.593192,36.6074219 66.811942,37.2324219 C66.030692,37.8574219 65.2396763,38.3652344 64.4388951,38.7558594 C63.6381138,39.1464844 63.2377232,39.4394531 63.2377232,39.6347656 C63.296317,40.3378906 63.8041295,40.6894531 64.7611607,40.6894531 C67.1830357,39.0292969 68.8187779,37.7792969 69.6683873,36.9394531 C70.5179967,36.0996094 71.3627232,35.2402344 72.202567,34.3613281 C73.2377232,34.7324219 74.311942,35.1914062 75.4252232,35.7382812 C76.890067,36.6757812 77.9886998,37.5107422 78.7211217,38.2431641 C79.4535435,38.9755859 80.093192,39.6835938 80.640067,40.3671875 C81.186942,41.0507812 81.7386998,41.8662109 82.2953404,42.8134766 C82.851981,43.7607422 83.2084263,44.390625 83.3646763,44.703125 C83.5209263,45.015625 83.6283482,45.3476562 83.686942,45.6992188 C83.7455357,46.6953125 83.8187779,47.3349609 83.9066685,47.6181641 C83.9945592,47.9013672 84.2435826,48.1699219 84.6537388,48.4238281 Z M76.5678013,29.4101562 C77.4857701,28.3164062 78.7455357,26.65625 80.3470982,24.4296875 C81.890067,22.125 82.9252232,20.6601562 83.452567,20.0351562 C83.921317,19.2734375 84.3754185,18.5800781 84.8148717,17.9550781 C85.2543248,17.3300781 85.952567,16.3144531 86.9095982,14.9082031 C87.3002232,14.3417969 87.8178013,13.5898438 88.4623326,12.6523438 L88.4623326,12.6523438 L88.5209263,12.6523438 L88.5209263,12.7109375 L88.1693638,14.6738281 C87.8373326,16.1777344 87.6127232,17.1835938 87.4955357,17.6914062 C87.3783482,18.1992188 87.1830357,19.1660156 86.9095982,20.5917969 C86.7533482,21.7832031 86.6166295,22.8769531 86.499442,23.8730469 L86.499442,23.8730469 L85.8256138,28.1503906 C84.6146763,28.3261719 83.4916295,28.4726562 82.4564732,28.5898438 C80.5033482,28.9023438 78.5404576,29.1757812 76.5678013,29.4101562 Z M84.0678013,43.6191406 C83.6381138,42.7597656 83.2474888,42.0273438 82.8959263,41.421875 C82.5443638,40.8164062 82.124442,40.2158203 81.6361607,39.6201172 C81.1478795,39.0244141 80.5228795,38.3603516 79.7611607,37.6279297 C78.999442,36.8955078 78.1986607,36.2363281 77.358817,35.6503906 C76.5189732,35.0644531 75.8353795,34.6542969 75.3080357,34.4199219 C74.780692,34.1855469 73.9896763,33.8535156 72.9349888,33.4238281 C73.6185826,32.7597656 74.2728795,32.0859375 74.8978795,31.4023438 C77.358817,30.9726562 79.3998326,30.6601562 81.0209263,30.4648438 C82.4076451,30.25 83.6283482,30.0839844 84.6830357,29.9667969 L84.6830357,29.9667969 L85.5912388,29.8789062 L85.3568638,31.1972656 C85.1029576,33.1308594 84.9076451,34.6542969 84.7709263,35.7675781 C84.6342076,36.8808594 84.4877232,38.3359375 84.3314732,40.1328125 C84.1947545,41.5 84.1068638,42.6621094 84.0678013,43.6191406 Z M71.1185826,32.8671875 C70.1420201,32.59375 69.5951451,32.4472656 69.4779576,32.4277344 L69.4779576,32.4277344 L69.4779576,32.3691406 C70.4740513,32.1152344 71.3822545,31.9296875 72.202567,31.8125 C71.8705357,32.1445312 71.5092076,32.4960938 71.1185826,32.8671875 Z M98.6065848,42.7695312 C99.9347098,43.84375 101.707171,44.2880859 103.923968,44.1025391 C106.140765,43.9169922 108.089007,43.609375 109.768694,43.1796875 L109.768694,43.1796875 L111.936663,42.7988281 L114.983538,42.1835938 L123.245257,40.6601562 L123.948382,40.25 C123.674944,39.8984375 122.180804,39.8251953 119.46596,40.0302734 C116.751116,40.2353516 114.724749,40.4453125 113.386858,40.6601562 C112.048968,40.875 110.628069,41.1435547 109.124163,41.4658203 C107.620257,41.7880859 106.214007,42.0322266 104.905413,42.1982422 C103.596819,42.3642578 102.512835,42.3740234 101.65346,42.2275391 C100.794085,42.0810547 100.095843,41.6123047 99.5587333,40.8212891 C99.0216239,40.0302734 99.0265067,38.140625 99.5733817,35.1523438 C100.120257,32.1640625 101.482561,28.2431641 103.660296,23.3896484 C105.83803,18.5361328 107.600725,14.5078125 108.948382,11.3046875 C110.296038,8.1015625 111.546038,5.484375 112.698382,3.453125 C111.526507,1.28515625 110.598772,1.32421875 109.915179,3.5703125 C109.641741,4.60546875 108.679827,6.95410156 107.029436,10.6162109 C105.379046,14.2783203 103.474749,18.6240234 101.316546,23.6533203 C99.1583426,28.6826172 97.9034598,32.5449219 97.5518973,35.2402344 C97.2003348,37.9355469 97.195452,39.7714844 97.5372489,40.7480469 C97.8790458,41.7246094 98.2354911,42.3984375 98.6065848,42.7695312 Z M135.118025,43.9121094 C137.481306,44.0097656 140.166853,44.0097656 143.174665,43.9121094 C147.276228,43.4824219 151.143415,42.4863281 154.776228,40.9238281 C155.44029,40.4941406 155.078962,40.3476562 153.692243,40.484375 C151.387556,40.7773438 149.385603,41.0996094 147.686384,41.4511719 C145.987165,41.8027344 143.125837,42.125 139.1024,42.4179688 C136.035993,42.3789062 134.126814,42.3007812 133.374861,42.1835938 C132.622907,42.0664062 131.934431,41.9199219 131.309431,41.7441406 C130.430525,41.1386719 130.108259,40.3574219 130.342634,39.4003906 L130.342634,39.4003906 L130.723493,38.4921875 C131.2899,37.6132812 131.753767,36.9394531 132.115095,36.4707031 C132.476423,36.0019531 133.174665,35.1914062 134.209821,34.0390625 C135.303571,32.9648438 136.524275,31.8417969 137.871931,30.6699219 C139.219587,29.7128906 140.28404,28.9121094 141.06529,28.2675781 C141.84654,27.6230469 142.715681,26.9882812 143.672712,26.3632812 C145.020368,25.5429688 146.270368,24.7128906 147.422712,23.8730469 C148.672712,22.9746094 150.088728,22.0859375 151.670759,21.2070312 C152.452009,20.7773438 152.920759,20.2988281 153.077009,19.7714844 C152.998884,19.0292969 152.637556,18.5800781 151.993025,18.4238281 C151.368025,18.3847656 150.782087,18.4042969 150.235212,18.4824219 C149.141462,18.5605469 147.950056,18.6875 146.660993,18.8632812 L146.660993,18.8632812 L144.024275,18.9804688 C142.090681,18.9609375 140.713728,18.9023438 139.893415,18.8046875 C139.073103,18.7070312 138.174665,18.5117188 137.198103,18.21875 C136.319196,17.6914062 135.860212,17.0810547 135.82115,16.3876953 C135.782087,15.6943359 135.982282,14.8984375 136.421736,14 C136.861189,13.1015625 137.647321,11.9833984 138.780134,10.6455078 C139.912946,9.30761719 141.231306,8.23828125 142.735212,7.4375 C144.805525,6.265625 146.480329,5.46484375 147.759626,5.03515625 C149.038923,4.60546875 150.220564,4.28808594 151.304548,4.08300781 C152.388532,3.87792969 153.4774,3.78515625 154.57115,3.8046875 C156.035993,3.765625 156.9149,4.2734375 157.207868,5.328125 C157.442243,6.3046875 157.764509,6.79296875 158.174665,6.79296875 C158.330915,6.734375 158.496931,6.49023438 158.672712,6.06054688 L158.672712,6.06054688 L158.672712,4.859375 C158.575056,4.25390625 158.384626,3.78027344 158.101423,3.43847656 C157.81822,3.09667969 157.461775,2.81835938 157.032087,2.60351562 L157.032087,2.60351562 L155.450056,2.046875 L153.692243,2.046875 C152.618025,2.1640625 151.831892,2.25195312 151.333845,2.31054688 C150.835798,2.36914062 149.805525,2.61328125 148.243025,3.04296875 C146.660993,3.53125 145.176618,4.14648438 143.7899,4.88867188 C141.465681,6.02148438 139.4149,7.34960938 137.637556,8.87304688 L137.637556,8.87304688 L136.114118,10.8359375 C135.157087,12.4179688 134.57115,13.8535156 134.356306,15.1425781 L134.356306,15.1425781 L134.268415,16.34375 C134.444196,17.8476562 135.088728,18.8535156 136.202009,19.3613281 C137.217634,19.8300781 138.545759,20.1132812 140.186384,20.2109375 C141.787946,20.25 143.184431,20.2597656 144.375837,20.2402344 L144.375837,20.2402344 L146.368025,20.2402344 C147.871931,20.1425781 149.004743,20.0351562 149.766462,19.9179688 L149.766462,19.9179688 L150.733259,19.7714844 C150.303571,20.0449219 149.756696,20.4160156 149.092634,20.8847656 C148.291853,21.4316406 147.491071,21.9394531 146.69029,22.4082031 C144.893415,23.4824219 143.75572,24.1708984 143.277204,24.4736328 C142.798689,24.7763672 142.364118,25.0742188 141.973493,25.3671875 C141.582868,25.6601562 140.933454,26.1289062 140.025251,26.7734375 C139.117048,27.4179688 137.925642,28.3261719 136.451032,29.4980469 C134.976423,30.6699219 133.94615,31.5634766 133.360212,32.1787109 C132.774275,32.7939453 132.173689,33.4628906 131.558454,34.1855469 C130.94322,34.9082031 130.244978,35.875 129.463728,37.0859375 C129.092634,37.7109375 128.799665,38.5605469 128.584821,39.6347656 C128.584821,41.0214844 129.014509,42.0957031 129.873884,42.8574219 C131.006696,43.4628906 132.754743,43.8144531 135.118025,43.9121094 Z M179.539621,48.4238281 C179.871652,48.3847656 180.106027,48.2285156 180.242746,47.9550781 L180.242746,47.9550781 L180.330636,47.1347656 C180.408761,45.6113281 180.477121,44.2050781 180.535714,42.9160156 C180.613839,42.3886719 180.677316,41.8076172 180.726144,41.1728516 C180.774972,40.5380859 180.887277,39.5517578 181.063058,38.2138672 C181.238839,36.8759766 181.419503,35.40625 181.60505,33.8046875 C181.790597,32.203125 182.010324,30.8066406 182.26423,29.6152344 C183.397042,29.5175781 184.891183,29.4101562 186.746652,29.2929688 C189.383371,29.0195313 191.004464,28.7558594 191.609933,28.5019531 C192.215402,28.2480469 192.239816,28.0429688 191.683175,27.8867188 C191.126535,27.7304687 190.291574,27.671875 189.178292,27.7109375 C188.065011,27.75 186.902902,27.7988281 185.691964,27.8574219 C184.481027,27.9160156 183.51423,27.9648438 182.791574,28.0039062 L182.791574,28.0039062 L182.410714,28.0039062 L182.410714,27.8867188 C182.527902,27.1054688 182.620675,26.4609375 182.689035,25.953125 C182.757394,25.4453125 182.903878,24.5615234 183.128488,23.3017578 C183.353097,22.0419922 183.650949,20.3671875 184.022042,18.2773438 C184.393136,16.1875 184.773996,14.4003906 185.164621,12.9160156 C185.516183,11.2753906 185.984933,9.51757812 186.570871,7.64257812 C186.863839,6.64648438 187.586496,5.29882812 188.738839,3.59960938 L188.738839,3.59960938 L188.738839,2.95507812 C188.465402,2.56445312 187.996652,2.30078125 187.332589,2.1640625 C186.941964,2.61328125 186.629464,3.11621094 186.395089,3.67285156 C186.160714,4.22949219 185.652902,5.23046875 184.871652,6.67578125 C183.660714,8.74609375 182.835519,10.1425781 182.396066,10.8652344 C181.956613,11.5878906 181.336496,12.5742188 180.535714,13.8242188 C179.168527,15.8164062 178.162667,17.2666016 177.518136,18.1748047 C176.873605,19.0830078 176.102121,20.171875 175.203683,21.4414062 C174.305246,22.7109375 173.626535,23.6533203 173.16755,24.2685547 C172.708566,24.8837891 172.151925,25.6162109 171.497628,26.4658203 C170.843331,27.3154297 169.852121,28.4433594 168.523996,29.8496094 C166.434152,30.3183594 164.827706,30.6455078 163.70466,30.8310547 C162.581613,31.0166016 161.688058,31.1337891 161.023996,31.1826172 C160.359933,31.2314453 159.900949,31.2558594 159.647042,31.2558594 C159.393136,31.2558594 159.197824,31.3242187 159.061105,31.4609375 C159.061105,32.3984375 159.725167,32.8671875 161.053292,32.8671875 C161.522042,32.8671875 161.756417,32.9550781 161.756417,33.1308594 C163.084542,33.2089844 164.246652,33.4238281 165.242746,33.7753906 C163.660714,35.4550781 162.479074,36.6074219 161.697824,37.2324219 C160.916574,37.8574219 160.125558,38.3652344 159.324777,38.7558594 C158.523996,39.1464844 158.123605,39.4394531 158.123605,39.6347656 C158.182199,40.3378906 158.690011,40.6894531 159.647042,40.6894531 C162.068917,39.0292969 163.70466,37.7792969 164.554269,36.9394531 C165.403878,36.0996094 166.248605,35.2402344 167.088449,34.3613281 C168.123605,34.7324219 169.197824,35.1914062 170.311105,35.7382812 C171.775949,36.6757812 172.874581,37.5107422 173.607003,38.2431641 C174.339425,38.9755859 174.979074,39.6835938 175.525949,40.3671875 C176.072824,41.0507812 176.624581,41.8662109 177.181222,42.8134766 C177.737863,43.7607422 178.094308,44.390625 178.250558,44.703125 C178.406808,45.015625 178.51423,45.3476562 178.572824,45.6992188 C178.631417,46.6953125 178.70466,47.3349609 178.79255,47.6181641 C178.880441,47.9013672 179.129464,48.1699219 179.539621,48.4238281 Z M171.453683,29.4101562 C172.371652,28.3164062 173.631417,26.65625 175.23298,24.4296875 C176.775949,22.125 177.811105,20.6601562 178.338449,20.0351562 C178.807199,19.2734375 179.2613,18.5800781 179.700753,17.9550781 C180.140206,17.3300781 180.838449,16.3144531 181.79548,14.9082031 C182.186105,14.3417969 182.703683,13.5898438 183.348214,12.6523438 L183.348214,12.6523438 L183.406808,12.6523438 L183.406808,12.7109375 L183.055246,14.6738281 C182.723214,16.1777344 182.498605,17.1835938 182.381417,17.6914062 C182.26423,18.1992188 182.068917,19.1660156 181.79548,20.5917969 C181.63923,21.7832031 181.502511,22.8769531 181.385324,23.8730469 L181.385324,23.8730469 L180.711496,28.1503906 C179.500558,28.3261719 178.377511,28.4726562 177.342355,28.5898438 C175.38923,28.9023438 173.426339,29.1757812 171.453683,29.4101562 Z M178.953683,43.6191406 C178.523996,42.7597656 178.133371,42.0273438 177.781808,41.421875 C177.430246,40.8164062 177.010324,40.2158203 176.522042,39.6201172 C176.033761,39.0244141 175.408761,38.3603516 174.647042,37.6279297 C173.885324,36.8955078 173.084542,36.2363281 172.244699,35.6503906 C171.404855,35.0644531 170.721261,34.6542969 170.193917,34.4199219 C169.666574,34.1855469 168.875558,33.8535156 167.820871,33.4238281 C168.504464,32.7597656 169.158761,32.0859375 169.783761,31.4023438 C172.244699,30.9726562 174.285714,30.6601562 175.906808,30.4648438 C177.293527,30.25 178.51423,30.0839844 179.568917,29.9667969 L179.568917,29.9667969 L180.477121,29.8789062 L180.242746,31.1972656 C179.988839,33.1308594 179.793527,34.6542969 179.656808,35.7675781 C179.520089,36.8808594 179.373605,38.3359375 179.217355,40.1328125 C179.080636,41.5 178.992746,42.6621094 178.953683,43.6191406 Z M166.004464,32.8671875 C165.027902,32.59375 164.481027,32.4472656 164.363839,32.4277344 L164.363839,32.4277344 L164.363839,32.3691406 C165.359933,32.1152344 166.268136,31.9296875 167.088449,31.8125 C166.756417,32.1445312 166.395089,32.4960938 166.004464,32.8671875 Z M227.081752,42.7695312 C226.905971,43.7265625 227.028041,44.1367188 227.447963,44 C227.867885,43.8632812 228.195034,43.3847656 228.429409,42.5644531 C230.382534,42.2128906 232.384487,41.6953125 234.435268,41.0117188 C236.486049,40.328125 238.375698,39.6640625 240.104213,39.0195312 C241.832729,38.375 243.13644,37.8378906 244.015346,37.4082031 C244.894252,36.9785156 246.578823,35.9824219 249.069057,34.4199219 C251.559291,32.8574219 253.654018,31.0556641 255.353237,29.0146484 C257.052455,26.9736328 258.029018,24.9423828 258.282924,22.9208984 C258.53683,20.8994141 258.395229,19.0439453 257.858119,17.3544922 C257.32101,15.6650391 256.456752,13.9365234 255.265346,12.1689453 C254.07394,10.4013672 252.579799,8.84863281 250.782924,7.51074219 C248.986049,6.17285156 247.13058,5.08886719 245.216518,4.25878906 C243.302455,3.42871094 241.686244,2.89160156 240.367885,2.64746094 C239.049526,2.40332031 237.111049,2.203125 234.552455,2.046875 C232.013393,1.87109375 229.449916,1.98828125 226.862026,2.3984375 C224.274135,2.80859375 222.369838,3.25292969 221.149135,3.73144531 C219.928432,4.20996094 218.859096,4.83007812 217.941127,5.59179688 C217.023159,6.35351562 216.652065,7.42773438 216.827846,8.81445312 C217.081752,9.84960938 217.662807,10.5087891 218.57101,10.7919922 C219.479213,11.0751953 219.674526,10.7529297 219.156948,9.82519531 C218.639369,8.89746094 218.546596,8.21875 218.878627,7.7890625 C219.777065,6.87109375 220.626674,6.2265625 221.427455,5.85546875 C222.228237,5.484375 223.385463,5.11816406 224.899135,4.75683594 C226.412807,4.39550781 228.195034,4.14160156 230.245815,3.99511719 C232.296596,3.84863281 234.249721,3.86816406 236.10519,4.05371094 C237.960659,4.23925781 240.079799,4.67871094 242.462612,5.37207031 C244.845424,6.06542969 247.120815,7.28613281 249.288784,9.03417969 C251.456752,10.7822266 253.048549,12.5644531 254.064174,14.3808594 C255.079799,16.1972656 255.714565,17.7304688 255.968471,18.9804688 C256.222377,20.2304688 256.285854,21.5439453 256.158901,22.9208984 C256.031948,24.2978516 255.397182,25.6894531 254.254604,27.0957031 C253.112026,28.5019531 251.901088,29.7470703 250.621791,30.8310547 C249.342494,31.9150391 247.950893,32.9208984 246.446987,33.8486328 C244.94308,34.7763672 242.858119,35.8115234 240.192104,36.9541016 C237.526088,38.0966797 233.810268,39.3515625 229.044643,40.71875 C229.78683,37.5546875 230.382534,34.9277344 230.831752,32.8378906 C231.280971,30.7480469 231.715541,28.7021484 232.135463,26.7001953 C232.555385,24.6982422 232.994838,22.5546875 233.453823,20.2695312 C233.912807,17.984375 234.464565,15.5185547 235.109096,12.8720703 C235.753627,10.2255859 235.743862,8.56542969 235.079799,7.89160156 C234.415737,7.21777344 233.971401,7.28613281 233.746791,8.09667969 C233.723148,8.18200041 233.698153,8.27570713 233.671804,8.37779984 L233.588702,8.70923595 C233.370801,9.6007212 233.076818,10.9639186 232.706752,12.7988281 C232.238002,15.1230469 231.779018,17.359375 231.329799,19.5078125 C230.88058,21.65625 230.455776,23.7802734 230.055385,25.8798828 C229.654994,27.9794922 229.19601,30.4355469 228.678432,33.2480469 C228.160854,36.0605469 227.745815,38.6289062 227.433315,40.953125 C224.738002,41.265625 222.457729,41.3046875 220.592494,41.0703125 C218.72726,40.8359375 218.185268,41.0263672 218.966518,41.6416016 C219.747768,42.2568359 220.577846,42.6279297 221.456752,42.7548828 C222.335659,42.8818359 223.185268,42.9306641 224.00558,42.9013672 C224.825893,42.8720703 225.851284,42.828125 227.081752,42.7695312 Z M266.933036,47.4863281 C267.284598,47.3300781 267.518973,47.1787109 267.636161,47.0322266 C267.753348,46.8857422 267.938895,46.5292969 268.192801,45.9628906 C268.95452,42.6621094 269.525809,39.8496094 269.906669,37.5253906 C270.287528,35.2011719 270.5512,33.5947266 270.697684,32.7060547 C270.844169,31.8173828 271.14202,29.7519531 271.591239,26.5097656 C275.634208,29.4589844 278.505301,31.7001953 280.20452,33.2333984 C281.903739,34.7666016 284.237723,36.5830078 287.206473,38.6826172 C290.175223,40.7822266 293.143973,42.2617188 296.112723,43.1210938 C297.343192,43.21875 297.421317,42.9355469 296.347098,42.2714844 C295.546317,41.9980469 294.374442,41.4072266 292.831473,40.4990234 C291.288504,39.5908203 289.354911,38.2431641 287.030692,36.4560547 C284.706473,34.6689453 282.289481,32.7451172 279.779715,30.6845703 C277.26995,28.6240234 274.628348,26.6855469 271.854911,24.8691406 C271.991629,23.9902344 272.128348,23.1894531 272.265067,22.4667969 C273.612723,22.1542969 275.351004,21.5732422 277.479911,20.7236328 C279.608817,19.8740234 281.278739,19.0878906 282.489676,18.3652344 C283.700614,17.6425781 284.867606,16.7099609 285.990653,15.5673828 C287.1137,14.4248047 287.919364,13.4335937 288.407645,12.59375 C288.895926,11.7539062 289.174247,10.9042969 289.242606,10.0449219 C289.310965,9.18554688 289.271903,8.4921875 289.125419,7.96484375 C288.978934,7.4375 288.651786,6.8125 288.143973,6.08984375 C287.636161,5.3671875 286.8012,4.68359375 285.63909,4.0390625 C284.476981,3.39453125 282.968192,2.93554688 281.112723,2.66210938 C279.257254,2.38867188 277.265067,2.23242188 275.136161,2.19335938 C274.843192,1.11914063 274.452567,0.533203125 273.964286,0.435546875 C273.476004,0.318359375 273.280692,0.484375 273.378348,0.93359375 L273.378348,0.93359375 L273.378348,1.78320313 L273.261161,2.48632813 C272.538504,2.70117188 271.757254,2.95019531 270.917411,3.23339844 C270.077567,3.51660156 269.061942,3.99511719 267.870536,4.66894531 C266.679129,5.34277344 265.971122,5.9140625 265.746512,6.3828125 C265.521903,6.8515625 265.409598,7.26171875 265.409598,7.61328125 C265.409598,7.96484375 265.477958,8.23339844 265.614676,8.41894531 C265.751395,8.60449219 265.941825,9.00488281 266.185965,9.62011719 C266.430106,10.2353516 266.737723,10.9238281 267.108817,11.6855469 C267.499442,11.3339844 267.616629,10.9287109 267.460379,10.4697266 C267.304129,10.0107422 267.094169,9.39550781 266.830497,8.62402344 C266.566825,7.85253906 266.747489,7.21289063 267.372489,6.70507813 C267.997489,6.19726563 268.637137,5.77246094 269.291434,5.43066406 C269.945731,5.08886719 271.229911,4.63476563 273.143973,4.06835938 C272.558036,7.79882813 272.167411,10.2060547 271.972098,11.2900391 C271.776786,12.3740234 271.566825,13.6923828 271.342215,15.2451172 C271.324938,15.3645583 271.3074,15.4862241 271.289602,15.6101146 L271.179696,16.3801544 C270.991317,17.7080483 270.776936,19.2584135 270.536551,21.03125 C268.856864,21.3632812 267.523856,21.5830078 266.537528,21.6904297 C265.5512,21.7978516 264.603934,21.8710938 263.695731,21.9101562 C262.787528,21.9492188 262.343192,22.1542969 262.362723,22.5253906 C262.382254,22.8964844 262.606864,23.3457031 263.036551,23.8730469 C263.544364,23.8730469 264.101004,23.8242188 264.706473,23.7265625 C265.663504,23.7265625 266.718192,23.9707031 267.870536,24.4589844 L267.870536,24.4589844 L269.804129,25.484375 C269.296317,29.2734375 268.817801,32.5253906 268.368583,35.2402344 C267.919364,37.9550781 267.509208,40.25 267.138114,42.125 C266.76702,44 266.444754,45.5820312 266.171317,46.8710938 L266.171317,46.8710938 L266.669364,47.4863281 L266.933036,47.4863281 Z M272.616629,20.4453125 C272.890067,18.609375 273.109794,17.1152344 273.275809,15.9628906 C273.349594,15.4507378 273.429166,14.8971113 273.514524,14.302011 L273.646903,13.3782552 C273.715262,12.9008247 273.786877,12.4000651 273.861747,11.8759766 C273.917899,11.4829102 273.971,11.1112061 274.021048,10.7608643 L274.16204,9.77392578 C274.24993,9.15869141 274.325614,8.62890625 274.38909,8.18457031 C274.516044,7.29589844 274.73577,5.86523438 275.04827,3.89257812 C276.474051,3.75585938 278.046317,3.8046875 279.765067,4.0390625 C281.483817,4.2734375 282.767997,4.52734375 283.617606,4.80078125 C284.467215,5.07421875 285.36077,5.50390625 286.29827,6.08984375 C287.157645,7.14453125 287.626395,7.95019531 287.70452,8.50683594 C287.782645,9.06347656 287.694754,9.73730469 287.440848,10.5283203 C287.186942,11.3193359 286.654715,12.1933594 285.844169,13.1503906 C285.033622,14.1074219 284.052176,15.0205078 282.899833,15.8896484 C281.747489,16.7587891 280.258231,17.5986328 278.432059,18.4091797 C276.605887,19.2197266 274.667411,19.8984375 272.616629,20.4453125 Z M270.126395,23.7558594 C269.833426,23.5996094 269.442801,23.4335938 268.95452,23.2578125 C269.384208,23.1601562 269.813895,23.0527344 270.243583,22.9355469 L270.243583,22.9355469 L270.126395,23.7558594 Z M304.909319,43.9121094 C307.2726,44.0097656 309.958147,44.0097656 312.96596,43.9121094 C317.067522,43.4824219 320.93471,42.4863281 324.567522,40.9238281 C325.231585,40.4941406 324.870257,40.3476562 323.483538,40.484375 C321.17885,40.7773438 319.176897,41.0996094 317.477679,41.4511719 C315.77846,41.8027344 312.917132,42.125 308.893694,42.4179688 C305.827288,42.3789062 303.918108,42.3007812 303.166155,42.1835938 C302.414202,42.0664062 301.725725,41.9199219 301.100725,41.7441406 C300.221819,41.1386719 299.899554,40.3574219 300.133929,39.4003906 L300.133929,39.4003906 L300.514788,38.4921875 C301.081194,37.6132812 301.545061,36.9394531 301.90639,36.4707031 C302.267718,36.0019531 302.96596,35.1914062 304.001116,34.0390625 C305.094866,32.9648438 306.315569,31.8417969 307.663225,30.6699219 C309.010882,29.7128906 310.075335,28.9121094 310.856585,28.2675781 C311.637835,27.6230469 312.506975,26.9882812 313.464007,26.3632812 C314.811663,25.5429688 316.061663,24.7128906 317.214007,23.8730469 C318.464007,22.9746094 319.880022,22.0859375 321.462054,21.2070312 C322.243304,20.7773438 322.712054,20.2988281 322.868304,19.7714844 C322.790179,19.0292969 322.42885,18.5800781 321.784319,18.4238281 C321.159319,18.3847656 320.573382,18.4042969 320.026507,18.4824219 C318.932757,18.5605469 317.74135,18.6875 316.452288,18.8632812 L316.452288,18.8632812 L313.815569,18.9804688 C311.881975,18.9609375 310.505022,18.9023438 309.68471,18.8046875 C308.864397,18.7070312 307.96596,18.5117188 306.989397,18.21875 C306.110491,17.6914062 305.651507,17.0810547 305.612444,16.3876953 C305.573382,15.6943359 305.773577,14.8984375 306.21303,14 C306.652483,13.1015625 307.438616,11.9833984 308.571429,10.6455078 C309.704241,9.30761719 311.0226,8.23828125 312.526507,7.4375 C314.596819,6.265625 316.271624,5.46484375 317.550921,5.03515625 C318.830218,4.60546875 320.011858,4.28808594 321.095843,4.08300781 C322.179827,3.87792969 323.268694,3.78515625 324.362444,3.8046875 C325.827288,3.765625 326.706194,4.2734375 326.999163,5.328125 C327.233538,6.3046875 327.555804,6.79296875 327.96596,6.79296875 C328.12221,6.734375 328.288225,6.49023438 328.464007,6.06054688 L328.464007,6.06054688 L328.464007,4.859375 C328.36635,4.25390625 328.175921,3.78027344 327.892718,3.43847656 C327.609515,3.09667969 327.253069,2.81835938 326.823382,2.60351562 L326.823382,2.60351562 L325.24135,2.046875 L323.483538,2.046875 C322.409319,2.1640625 321.623186,2.25195312 321.12514,2.31054688 C320.627093,2.36914062 319.596819,2.61328125 318.034319,3.04296875 C316.452288,3.53125 314.967913,4.14648438 313.581194,4.88867188 C311.256975,6.02148438 309.206194,7.34960938 307.42885,8.87304688 L307.42885,8.87304688 L305.905413,10.8359375 C304.948382,12.4179688 304.362444,13.8535156 304.1476,15.1425781 L304.1476,15.1425781 L304.05971,16.34375 C304.235491,17.8476562 304.880022,18.8535156 305.993304,19.3613281 C307.008929,19.8300781 308.337054,20.1132812 309.977679,20.2109375 C311.579241,20.25 312.975725,20.2597656 314.167132,20.2402344 L314.167132,20.2402344 L316.159319,20.2402344 C317.663225,20.1425781 318.796038,20.0351562 319.557757,19.9179688 L319.557757,19.9179688 L320.524554,19.7714844 C320.094866,20.0449219 319.547991,20.4160156 318.883929,20.8847656 C318.083147,21.4316406 317.282366,21.9394531 316.481585,22.4082031 C314.68471,23.4824219 313.547015,24.1708984 313.068499,24.4736328 C312.589983,24.7763672 312.155413,25.0742188 311.764788,25.3671875 C311.374163,25.6601562 310.724749,26.1289062 309.816546,26.7734375 C308.908343,27.4179688 307.716936,28.3261719 306.242327,29.4980469 C304.767718,30.6699219 303.737444,31.5634766 303.151507,32.1787109 C302.565569,32.7939453 301.964983,33.4628906 301.349749,34.1855469 C300.734515,34.9082031 300.036272,35.875 299.255022,37.0859375 C298.883929,37.7109375 298.59096,38.5605469 298.376116,39.6347656 C298.376116,41.0214844 298.805804,42.0957031 299.665179,42.8574219 C300.797991,43.4628906 302.546038,43.8144531 304.909319,43.9121094 Z M333.100446,44.0878906 C334.506696,44.1660156 336.12779,44.0439453 337.963728,43.7216797 C339.799665,43.3994141 341.557478,42.8671875 343.237165,42.125 C344.916853,41.3828125 346.445173,40.5185547 347.822126,39.5322266 C349.199079,38.5458984 350.419782,37.4375 351.484236,36.2070312 C352.548689,34.9765625 353.222517,33.9316406 353.50572,33.0722656 C353.788923,32.2128906 353.744978,31.3974609 353.373884,30.6259766 C353.00279,29.8544922 352.592634,29.234375 352.143415,28.765625 C351.694196,28.296875 351.132673,27.7744141 350.458845,27.1982422 C349.785017,26.6220703 349.120954,26.0751953 348.466657,25.5576172 C347.812361,25.0400391 346.860212,24.234375 345.610212,23.140625 C344.360212,22.046875 343.178571,20.7724609 342.06529,19.3173828 C340.952009,17.8623047 340.185407,16.6171875 339.765486,15.5820312 C339.345564,14.546875 339.233259,13.3164062 339.428571,11.890625 C339.623884,10.4648437 340.356306,9.12207031 341.625837,7.86230469 C342.895368,6.60253906 344.706892,5.58203125 347.060407,4.80078125 C349.413923,4.01953125 351.6649,3.58496094 353.813337,3.49707031 C355.961775,3.40917969 357.465681,3.87304687 358.325056,4.88867187 C359.63365,5.86523437 360.082868,7.26171875 359.672712,9.078125 C358.735212,10.9726562 356.90904,12.90625 354.194196,14.8789062 C354.194196,15.0742187 354.448103,15.09375 354.955915,14.9375 C356.381696,14.4492187 357.651228,13.5800781 358.764509,12.3300781 C359.87779,11.0800781 360.57115,10.1425781 360.844587,9.51757812 C361.528181,8.63867187 361.699079,7.60351562 361.357282,6.41210937 C361.015486,5.22070312 360.209821,4.19042969 358.94029,3.32128906 C357.670759,2.45214844 355.97154,2.02734375 353.842634,2.046875 C351.713728,2.06640625 349.7899,2.33007812 348.07115,2.83789062 C346.3524,3.34570312 344.858259,3.92675781 343.588728,4.58105469 C342.319196,5.23535156 341.313337,5.90429687 340.57115,6.58789062 C339.828962,7.27148437 339.208845,7.99902344 338.710798,8.77050781 C338.212751,9.54199219 337.895368,10.5087891 337.75865,11.6708984 C337.621931,12.8330078 337.753767,14.1855469 338.154157,15.7285156 C338.554548,17.2714844 339.355329,18.7558594 340.556501,20.1816406 C341.757673,21.6074219 343.090681,22.9746094 344.555525,24.2832031 C347.016462,26.3925781 348.808454,27.9208984 349.931501,28.8681641 C351.054548,29.8154297 351.616071,30.7773438 351.616071,31.7539062 C351.616071,32.7304688 350.937361,34.0341797 349.579939,35.6650391 C348.222517,37.2958984 346.191267,38.7851562 343.486189,40.1328125 C340.781111,41.4804688 338.046736,42.2373047 335.283064,42.4033203 C332.519392,42.5693359 330.209821,42.28125 328.354353,41.5390625 C328.00279,40.7578125 327.680525,40.2792969 327.387556,40.1035156 C327.094587,39.8886719 326.923689,39.9033203 326.874861,40.1474609 C326.826032,40.3916016 326.806501,40.7773438 326.816267,41.3046875 C326.826032,41.8320312 327.084821,42.3349609 327.592634,42.8134766 C328.100446,43.2919922 328.793806,43.6044922 329.672712,43.7509766 C330.551618,43.8974609 331.694196,44.0097656 333.100446,44.0878906 Z M363.254464,44.0878906 C364.660714,44.1660156 366.281808,44.0439453 368.117746,43.7216797 C369.953683,43.3994141 371.711496,42.8671875 373.391183,42.125 C375.070871,41.3828125 376.599191,40.5185547 377.976144,39.5322266 C379.353097,38.5458984 380.5738,37.4375 381.638253,36.2070312 C382.702707,34.9765625 383.376535,33.9316406 383.659738,33.0722656 C383.942941,32.2128906 383.898996,31.3974609 383.527902,30.6259766 C383.156808,29.8544922 382.746652,29.234375 382.297433,28.765625 C381.848214,28.296875 381.286691,27.7744141 380.612863,27.1982422 C379.939035,26.6220703 379.274972,26.0751953 378.620675,25.5576172 C377.966378,25.0400391 377.01423,24.234375 375.76423,23.140625 C374.51423,22.046875 373.332589,20.7724609 372.219308,19.3173828 C371.106027,17.8623047 370.339425,16.6171875 369.919503,15.5820312 C369.499582,14.546875 369.387277,13.3164062 369.582589,11.890625 C369.777902,10.4648437 370.510324,9.12207031 371.779855,7.86230469 C373.049386,6.60253906 374.86091,5.58203125 377.214425,4.80078125 C379.567941,4.01953125 381.818917,3.58496094 383.967355,3.49707031 C386.115792,3.40917969 387.619699,3.87304687 388.479074,4.88867187 C389.787667,5.86523437 390.236886,7.26171875 389.82673,9.078125 C388.88923,10.9726562 387.063058,12.90625 384.348214,14.8789062 C384.348214,15.0742187 384.602121,15.09375 385.109933,14.9375 C386.535714,14.4492187 387.805246,13.5800781 388.918527,12.3300781 C390.031808,11.0800781 390.725167,10.1425781 390.998605,9.51757812 C391.682199,8.63867187 391.853097,7.60351562 391.5113,6.41210937 C391.169503,5.22070312 390.363839,4.19042969 389.094308,3.32128906 C387.824777,2.45214844 386.125558,2.02734375 383.996652,2.046875 C381.867746,2.06640625 379.943917,2.33007812 378.225167,2.83789062 C376.506417,3.34570312 375.012277,3.92675781 373.742746,4.58105469 C372.473214,5.23535156 371.467355,5.90429687 370.725167,6.58789062 C369.98298,7.27148437 369.362863,7.99902344 368.864816,8.77050781 C368.366769,9.54199219 368.049386,10.5087891 367.912667,11.6708984 C367.775949,12.8330078 367.907785,14.1855469 368.308175,15.7285156 C368.708566,17.2714844 369.509347,18.7558594 370.710519,20.1816406 C371.911691,21.6074219 373.244699,22.9746094 374.709542,24.2832031 C377.17048,26.3925781 378.962472,27.9208984 380.085519,28.8681641 C381.208566,29.8154297 381.770089,30.7773438 381.770089,31.7539062 C381.770089,32.7304688 381.091378,34.0341797 379.733957,35.6650391 C378.376535,37.2958984 376.345285,38.7851562 373.640207,40.1328125 C370.935128,41.4804688 368.200753,42.2373047 365.437082,42.4033203 C362.67341,42.5693359 360.363839,42.28125 358.508371,41.5390625 C358.156808,40.7578125 357.834542,40.2792969 357.541574,40.1035156 C357.248605,39.8886719 357.077707,39.9033203 357.028878,40.1474609 C356.98005,40.3916016 356.960519,40.7773438 356.970285,41.3046875 C356.98005,41.8320312 357.238839,42.3349609 357.746652,42.8134766 C358.254464,43.2919922 358.947824,43.6044922 359.82673,43.7509766 C360.705636,43.8974609 361.848214,44.0097656 363.254464,44.0878906 Z" id="AZALEADRESS" fill="#000000" fill-rule="nonzero"></path>
    </g>
</svg>