<?xml version="1.0" encoding="UTF-8"?>
<svg width="142px" height="107px" viewBox="0 0 142 107" version="1.1" xmlns="http://www.w3.org/2000/svg" xmlns:xlink="http://www.w3.org/1999/xlink">
    <title>Sands FW 2021_M</title>
    <g id="final-copy" stroke="none" stroke-width="1" fill="none" fill-rule="evenodd">
        <g id="Cover-page_375" transform="translate(-217.000000, -263.000000)" fill="#000000" fill-rule="nonzero">
            <g id="Sands-FW-2021_M" transform="translate(217.183128, 263.221496)">
                <path d="M23.7536352,104.690127 C23.7756991,105.17811 23.9522105,105.173714 24.2831694,104.676939 C24.6141282,104.180164 25.1370432,103.199802 25.8519142,101.735855 C26.5667853,100.271907 27.3081331,98.6980533 28.0759576,97.0142937 C28.8437821,95.3305341 29.3291884,94.2468611 29.5321765,93.7632748 C31.5267551,93.2621035 33.0094506,92.9367818 33.9802632,92.7873097 C34.9510758,92.6378376 35.8865861,92.499356 36.7867941,92.3718651 C37.6870022,92.2443742 38.0598825,92.1080908 37.905435,91.9630149 C37.7509876,91.817939 37.3251539,91.762986 36.6279339,91.7981559 C35.930714,91.8333258 35.1143488,91.9124581 34.1788385,92.0355528 C33.2433282,92.1586475 31.8886034,92.3784595 30.114664,92.6949887 C31.5797085,90.0572452 33.1771365,87.5645776 34.906948,85.2169859 C35.8777605,84.8213243 36.6279339,84.4960026 37.157468,84.2410208 C37.6870022,83.9860389 38.1569637,83.7002833 38.5673527,83.3837541 C38.9777416,83.0672249 39.2005873,82.7836675 39.2358895,82.5330818 C39.2711918,82.2824962 39.1939681,82.0472974 39.0042183,81.8274854 C38.8144686,81.6076735 38.6048613,81.50656 38.3753966,81.5241449 C38.1547573,81.5329374 37.9208798,81.5856923 37.6737638,81.6824096 C37.4266479,81.7791268 37.1618808,81.9154102 36.8794626,82.0912598 C36.5970444,82.2671094 36.2793239,82.5067044 35.9263012,82.8100449 C35.5732784,83.1133854 35.2312876,83.4716789 34.9003288,83.8849254 C34.56937,84.2981719 34.3509371,84.5531537 34.2450303,84.649871 C33.6272405,84.834513 33.1043255,84.9751927 32.6762854,85.07191 C32.2482453,85.1686272 31.824618,85.2543539 31.4054035,85.32909 C30.986189,85.403826 30.4345909,85.4543828 29.7506093,85.4807602 C29.0666277,85.5071376 28.6253493,85.4653734 28.426774,85.3554674 C28.2281987,85.2455614 28.1311174,85.2917219 28.1355302,85.4939489 C28.139943,85.6961759 28.2304051,85.8654311 28.4069164,86.0017145 C28.5834278,86.137998 28.8327501,86.2061397 29.1548834,86.2061397 C29.4770167,86.2061397 29.827833,86.1973472 30.2073325,86.1797622 C30.586832,86.1621773 31.0236976,86.120413 31.5179295,86.0544694 C32.0121614,85.9885258 32.7182069,85.8280631 33.636066,85.5730812 C32.3210563,87.481049 31.3811332,88.8944399 30.8162968,89.8132539 C30.2514604,90.7320679 29.6292577,91.7805709 28.9496889,92.958763 C28.3318991,93.0906502 27.7361732,93.2137449 27.1625112,93.3280471 C26.5888492,93.4423493 26.0549023,93.5610478 25.5606705,93.6841425 C25.0664386,93.8072372 24.8193227,94.0182567 24.8193227,94.3172009 C24.8722761,94.484258 25.0554066,94.5787772 25.3687143,94.6007584 C25.682022,94.6227396 26.0791726,94.5721828 26.5601661,94.4490881 C27.0411597,94.3259934 27.6479175,94.1809175 28.3804397,94.0138604 C27.8685567,95.200845 27.2000199,96.6845757 26.3748292,98.4650526 C25.5496385,100.245529 24.9009592,101.606165 24.4287912,102.546961 C23.9566233,103.487756 23.7315713,104.202145 23.7536352,104.690127 Z M35.6028267,84.3068114 C36.174423,83.7085922 36.6223157,83.2941118 36.9465047,83.0633702 C37.2792249,82.8240825 37.6204765,82.6168423 37.9702593,82.4416495 C38.3200421,82.2664568 38.5034648,82.2429553 38.5205274,82.3711451 C38.53759,82.499335 38.3541673,82.7108482 37.9702593,83.0056847 C37.5863513,83.3005213 36.7972071,83.7342302 35.6028267,84.3068114 Z M48.0120169,102.452672 C48.3558689,102.373726 48.6468206,102.049168 48.884872,101.478999 C49.1229234,100.908831 49.5858011,99.5009527 50.2735051,97.2553654 C51.0229262,94.9834625 51.6004212,93.3804114 52.0059903,92.446212 C52.4115593,91.5120126 52.702511,90.8475468 52.8788454,90.4528146 C53.0551798,90.0580825 53.2755977,89.6129123 53.5400993,89.1173042 C53.8046008,88.621696 54.1793114,87.9506514 54.6642309,87.1041702 C55.1491504,86.257689 55.5789654,85.5756796 55.9536759,85.0581419 C56.3283865,84.5406042 56.7008928,84.0647327 57.071195,83.6305273 C57.4414971,83.1963219 57.7699199,82.8520278 58.0564632,82.5976448 C58.3430066,82.3432619 58.6030998,82.1700183 58.8367428,82.0779142 C59.0703859,81.98581 59.2092492,81.8432678 59.2533328,81.6502877 L59.2533328,81.6502877 L58.9359309,81.3871329 L58.7640049,81.3871329 C58.1909182,81.5537976 57.5957897,81.9748452 56.9786194,82.6502758 C55.9999637,83.7555258 55.2174799,84.7620928 54.6311682,85.6699767 C54.0448564,86.5778607 53.6194497,87.2796067 53.3549482,87.7752149 C53.0904466,88.270823 52.8634161,88.6852918 52.6738567,89.0186211 C52.4842973,89.3519505 52.1470578,90.0756261 51.6621383,91.189648 C51.3006528,91.9615686 51.0361513,92.5317373 50.8686336,92.900154 C50.701116,93.2685706 50.5358025,93.6830394 50.3726932,94.1435602 C50.2095839,94.6040811 50.0442705,95.0580231 49.8767528,95.5053862 C49.7092352,95.9527493 49.4932256,96.617215 49.228724,97.4987835 C48.9642225,98.380352 48.6159621,99.5097245 48.1839429,100.886901 C48.1134091,100.290417 48.0715297,99.8277032 48.0583046,99.4987597 C48.0450796,99.1698163 48.0450796,98.7399968 48.0583046,98.2093014 C48.0715297,97.6786059 48.086959,97.0470345 48.1045924,96.3145871 C48.1222259,95.5821396 48.1464718,94.6742557 48.1773303,93.5909352 C48.2081889,92.5076148 48.234639,91.6611336 48.2566808,91.0514917 C48.2787226,90.4418498 48.3294187,89.1194971 48.4087692,87.0844336 C48.4087692,85.7949752 48.3051728,85.0405982 48.0979799,84.8213026 C47.890787,84.602007 47.6902067,84.5274465 47.4962389,84.5976211 C47.1876537,84.702883 46.8504142,85.0427912 46.4845204,85.6173458 C46.1186266,86.1919004 45.6777907,86.9945224 45.1620127,88.0252119 C44.6462346,89.0559014 44.2164196,89.9484347 43.8725676,90.7028117 C43.5287156,91.4571887 43.2069054,92.2356882 42.907137,93.0383102 C42.6073685,93.8409323 42.2855583,94.7751317 41.9417063,95.8409085 C41.5978543,96.9066853 41.3686196,97.676413 41.2540023,98.1500916 C41.4038865,96.018538 41.4611951,93.9659308 41.4259283,91.99227 C41.3906614,90.0186093 41.2407772,88.5054693 40.9762756,87.4528503 C40.7999413,86.461634 40.416414,85.9660258 39.8256939,85.9660258 C39.7551601,86.0011131 39.7198933,86.0515511 39.7198933,86.1173398 C39.7198933,86.1831285 39.7794061,86.2708468 39.8984318,86.3804946 C40.0174575,86.4901424 40.121054,86.8519802 40.2092211,87.466008 C40.3591054,89.2379168 40.4494767,90.88702 40.4803352,92.4133176 C40.5111937,93.9396153 40.4957645,95.3562651 40.4340475,96.6632671 C40.3723304,97.9702691 40.3260427,98.983415 40.2951841,99.7027047 C40.2643256,100.421994 40.3701263,100.928567 40.612586,101.222423 C40.8550458,101.51628 41.0754637,101.492157 41.2738399,101.150056 C41.472216,100.807955 41.6529588,100.246558 41.8160681,99.4658654 C41.9791773,98.6851729 42.1533075,97.9812339 42.3384586,97.3540484 C42.5236097,96.7268629 42.7308026,96.06459 42.9600373,95.3672299 C43.1892719,94.6698698 43.4978571,93.8211956 43.8857927,92.8212075 C44.2737283,91.8212194 44.6109678,91.0054396 44.8975111,90.3738682 C45.1840545,89.7422968 45.4772104,89.1216901 45.7769788,88.5120482 C46.0767472,87.9024063 46.3478613,87.367325 46.590321,86.9068041 C46.8327808,86.4462833 47.0598113,86.0471652 47.2714125,85.7094499 C47.4830138,85.3717347 47.5976311,85.4506811 47.6152646,85.9462892 C47.632898,86.4418974 47.6218771,87.014259 47.5822019,87.6633741 C47.5425266,88.3124892 47.5094639,88.9813409 47.4830138,89.6699292 L47.4550942,90.3534006 C47.4355015,90.8056369 47.4139495,91.2510508 47.3904382,91.689642 C47.3551714,92.347529 47.3132919,93.4681297 47.2648,95.0514442 C47.2251248,96.3468833 47.2031558,97.4382688 47.1988932,98.3256006 L47.1986746,98.8869249 C47.203083,99.8605976 47.2449624,100.772867 47.3243128,101.623734 C47.3243128,102.027238 47.5535475,102.303551 48.0120169,102.452672 Z M60.2759258,101.613611 C60.6804829,101.456218 61.1993714,101.307569 61.8325912,101.167664 C62.465811,101.027759 63.2749253,100.887854 64.2599339,100.747949 C65.2449425,100.608044 66.3948521,100.592742 67.7096628,100.702043 C69.0244734,100.811344 70.1787804,100.975295 71.1725837,101.193896 C71.4012464,101.097711 71.5331672,101.008085 71.5683461,100.925016 C71.603525,100.841948 71.5705448,100.677997 71.4694055,100.433163 C71.3682662,100.188329 70.8251923,100.015634 69.8401836,99.9150775 C68.855175,99.8145209 67.6612918,99.7554985 66.258534,99.7380104 C64.8557762,99.7205222 63.3232962,99.8691712 61.6610942,100.183957 C63.2001702,98.3914253 64.3786626,96.9836319 65.1965716,95.960577 C66.0144805,94.9375221 66.8983499,93.7461441 67.8481796,92.386443 C68.7980093,91.0267419 69.3674675,90.0648954 69.5565539,89.5009037 C69.7456404,88.9369119 69.7962101,88.3772921 69.7082629,87.8220444 C69.6203157,87.2667967 69.4620107,86.8274077 69.233348,86.5038775 C68.8199961,85.7081682 68.1164186,85.1529205 67.1226152,84.8381344 C66.6477003,84.776926 66.1024277,84.8031581 65.4867973,84.9168309 C64.8711669,85.0305037 64.2159603,85.3365457 63.5211774,85.8349571 C62.8263946,86.3333684 62.3866586,86.9498245 62.2019694,87.6843255 C62.3250955,88.7685887 62.4790031,89.3107204 62.6636922,89.3107204 C62.9187391,89.249512 63.0528586,88.9434699 63.0660507,88.3925942 C63.0792428,87.8417185 63.2683292,87.3782834 63.6333101,87.0022889 C63.998291,86.6262944 64.4600138,86.3246243 65.0184785,86.0972788 C65.5769432,85.8699333 66.1222158,85.7715626 66.6542964,85.8021668 C67.1863769,85.832771 67.6722852,86.0972788 68.1120212,86.5956902 C68.8507777,87.6449772 68.8397843,88.8254251 68.079041,90.1370339 C67.3182977,91.4486427 66.4806007,92.6946711 65.5659498,93.875119 C64.6512989,95.0555669 63.7476415,96.1791785 62.8549774,97.2459536 C61.9623133,98.3127288 61.0938347,99.3008074 60.2495416,100.21019 C59.8713687,100.271398 59.6822822,100.494371 59.6822822,100.87911 C59.7702294,101.167664 59.8493819,101.357847 59.9197396,101.44966 C59.9900974,101.541472 60.1088261,101.596123 60.2759258,101.613611 Z M77.0178685,102.51503 C77.7263891,102.567519 78.4786455,102.346631 79.2746377,101.852369 C80.0706299,101.358106 80.8075788,100.651705 81.4854842,99.7331638 C82.1633897,98.8146229 82.675099,97.9923101 83.0206121,97.2662254 C83.3661252,96.5401407 83.6679025,95.781251 83.925944,94.9895563 C84.1839854,94.1978615 84.409225,93.2508896 84.6016626,92.1486405 C84.7941003,91.0463915 84.8662644,89.9900695 84.818155,88.9796745 C84.7700456,87.9692795 84.5819815,87.1732108 84.2539627,86.5914682 C83.925944,86.0097256 83.5170139,85.6095043 83.0271725,85.3908041 C82.3361463,84.9796477 81.8944143,84.7740695 81.7019766,84.7740695 C81.3345956,84.249189 80.8797429,83.8905206 80.3374185,83.6980644 C80.0050262,83.7155604 79.6923149,83.7964795 79.3992848,83.9408217 C79.1062547,84.0851638 78.767302,84.3519781 78.3824266,84.7412644 C77.9975512,85.1305508 77.4967759,85.8828795 76.8801006,86.9982506 C76.2634253,88.1136217 75.7145405,89.3033508 75.2334463,90.567438 C74.7523521,91.8315252 74.4024654,92.9184653 74.1837863,93.8282581 C73.9651071,94.738051 73.8142184,95.5734858 73.7311203,96.3345625 C73.6480222,97.0956393 73.6064732,97.826098 73.6064732,98.5259386 C73.6064732,99.6631797 73.9694807,100.691071 74.6954955,101.609612 C75.4127633,102.213224 76.1737668,102.51503 76.9785062,102.51503 L76.9785062,102.51503 L77.0178685,102.51503 Z M76.6566447,101.626166 C75.9828093,101.5212 75.4973818,101.320016 75.2003622,101.022614 C74.9033426,100.725211 74.692769,100.226625 74.5686415,99.5268545 C74.4622464,98.3110034 74.484412,97.2219856 74.6351384,96.2598013 C74.7858647,95.2976169 75.0252536,94.2414009 75.3533051,93.0911533 C75.6813566,91.9409057 76.2266313,90.5435516 76.9891293,88.8990911 C77.5654359,87.6744928 78.05308,86.7954062 78.4520615,86.2618313 C78.780113,85.6845207 79.2721902,85.2034285 79.9282931,84.8185548 L79.9282931,84.8185548 L80.0745863,84.8579169 C80.0745863,84.9978709 80.305109,85.067848 80.7661543,85.067848 C81.8478375,85.2952734 82.6458005,85.6539057 83.1600433,86.143745 C83.426031,86.4236532 83.6321715,86.8303947 83.7784647,87.3639697 C83.9247579,87.8975447 83.9668726,88.7525766 83.9048088,89.9290657 C83.842745,91.1055547 83.6964518,92.1573971 83.4659292,93.084593 C83.2354065,94.0117888 82.9805017,94.8252719 82.7012146,95.5250423 C82.4219275,96.2248128 81.9431497,97.0907787 81.2648812,98.12294 C80.5866126,99.1551014 79.8706624,99.9620242 79.1170307,100.543708 C78.363399,101.125393 77.5432703,101.486212 76.6566447,101.626166 Z M84.9774534,101.595698 C85.3820105,101.438305 85.900899,101.289656 86.5341188,101.149751 C87.1673386,101.009846 87.9764529,100.869941 88.9614615,100.730037 C89.9464701,100.590132 91.0963797,100.57483 92.4111904,100.68413 C93.726001,100.793431 94.880308,100.957382 95.8741113,101.175984 C96.102774,101.079799 96.2346948,100.990172 96.2698737,100.907104 C96.3050526,100.824035 96.2720724,100.660084 96.1709331,100.41525 C96.0697938,100.170417 95.5267199,99.9977216 94.5417112,99.897165 C93.5567026,99.7966083 92.3628194,99.7375859 90.9600616,99.7200978 C89.5573038,99.7026097 88.0248238,99.8512587 86.3626218,100.166045 C87.9016977,98.3735127 89.0801902,96.9657193 89.8980992,95.9426644 C90.7160081,94.9196096 91.5998775,93.7282316 92.5497072,92.3685304 C93.4995369,91.0088293 94.0689951,90.0469829 94.2580815,89.4829911 C94.447168,88.9189993 94.4977376,88.3593795 94.4097904,87.8041318 C94.3218432,87.2488841 94.1635383,86.8094951 93.9348756,86.485965 C93.5215237,85.6902556 92.8179462,85.1350079 91.8241428,84.8202218 C91.3492279,84.7590134 90.8039553,84.7852455 90.1883249,84.8989183 C89.5726945,85.0125911 88.9174879,85.3186331 88.222705,85.8170445 C87.5279222,86.3154558 87.0881862,86.931912 86.903497,87.6664129 C87.0266231,88.7506762 87.1805307,89.2928078 87.3652198,89.2928078 C87.6202667,89.2315994 87.7543862,88.9255573 87.7675783,88.3746816 C87.7807703,87.8238059 87.9698568,87.3603708 88.3348377,86.9843763 C88.6998186,86.6083818 89.1615414,86.3067118 89.7200061,86.0793662 C90.2784708,85.8520207 90.8237434,85.75365 91.355824,85.7842543 C91.8879045,85.8148585 92.3738128,86.0793662 92.8135488,86.5777776 C93.5523053,87.6270646 93.5413119,88.8075125 92.7805686,90.1191213 C92.0198253,91.4307301 91.1821283,92.6767585 90.2674774,93.8572064 C89.3528265,95.0376544 88.4491691,96.1612659 87.556505,97.2280411 C86.6638409,98.2948162 85.7953623,99.2828948 84.9510692,100.192277 C84.5728963,100.253485 84.3838098,100.476459 84.3838098,100.861197 C84.471757,101.149751 84.5509095,101.339935 84.6212672,101.431747 C84.691625,101.52356 84.8103537,101.57821 84.9774534,101.595698 Z M99.3322157,102.459698 C99.6465469,102.17965 99.8665788,101.77708 99.9923113,101.251988 C100.118044,100.726897 100.315623,99.7992356 100.58505,98.4690043 C100.854477,97.1387729 101.328219,94.9990257 102.006276,92.0497627 C102.684334,89.1004997 103.247884,86.5581825 103.696929,84.4228111 C103.696929,84.18652 103.636308,84.0202411 103.515066,83.9239743 C103.393824,83.8277076 103.20747,83.7314408 102.956006,83.6351741 L102.956006,83.6351741 L102.726993,83.6351741 L101.272088,90.5138706 C100.48177,93.8482005 99.9563877,96.147663 99.6959418,97.4122579 C99.435496,98.6768529 99.2626138,99.6154537 99.1772953,100.22806 C99.0919769,100.840667 99.0268654,101.413891 98.9819609,101.947734 C99.0089036,102.289044 99.1256552,102.459698 99.3322157,102.459698 Z" id="FW2021" transform="translate(63.724543, 93.219990) rotate(-1.000000) translate(-63.724543, -93.219990) "></path>
                <path d="M32.2128776,23.4489563 C32.8495426,23.4839185 33.5834758,23.4292901 34.4146772,23.2850713 C35.2458787,23.1408524 36.0417099,22.9026728 36.8021708,22.5705325 C37.5626317,22.2383921 38.2545627,21.8516234 38.8779638,21.4102263 C39.5013649,20.9688293 40.0540254,20.4728039 40.5359454,19.9221501 C41.0178654,19.3714964 41.322934,18.9038777 41.4511513,18.5192941 C41.5793685,18.1347105 41.5594727,17.7697932 41.3914639,17.424542 C41.2234551,17.0792908 41.0377612,16.8017788 40.8343821,16.592006 C40.631003,16.3822331 40.3767792,16.1484238 40.0717105,15.890578 C39.7666419,15.6327322 39.4659946,15.3879972 39.1697685,15.156373 C38.8735425,14.9247488 38.4424673,14.5642017 37.8765429,14.0747317 C37.3106185,13.5852616 36.7756431,13.0149417 36.2716167,12.3637718 C35.7675902,11.7126018 35.4205194,11.1553927 35.2304042,10.6921443 C35.040289,10.2288959 34.9894442,9.67824214 35.0778699,9.04018302 C35.1662956,8.40212391 35.4978919,7.80121207 36.0726589,7.23744751 C36.6474258,6.67368295 37.4675741,6.21698995 38.5331036,5.86736852 C39.5986331,5.51774709 40.6177392,5.32327017 41.5904217,5.28393776 C42.5631043,5.24460534 43.2439821,5.45219307 43.6330551,5.90670093 C44.2255072,6.34372772 44.4288863,6.96867603 44.2431923,7.78154586 C43.818749,8.62937784 42.9919688,9.49469088 41.7628518,10.377485 C41.7628518,10.4648904 41.8778052,10.4736309 42.107712,10.4037066 C42.7532195,10.1851932 43.3279865,9.79623937 43.8320129,9.23684508 C44.3360393,8.67745079 44.6499505,8.25790507 44.7737464,7.97820792 C45.0832363,7.58488381 45.1606088,7.12163541 45.0058639,6.58846273 C44.8511189,6.05529004 44.486363,5.59422678 43.911596,5.20527293 C43.336829,4.81631909 42.5675256,4.62621244 41.6036856,4.63495297 C40.6398456,4.64369351 39.7688526,4.76169074 38.9907065,4.98894467 C38.2125605,5.2161986 37.536104,5.47622954 36.961337,5.76903749 C36.38657,6.06184544 35.9311778,6.36120879 35.5951601,6.66712755 C35.2591425,6.9730463 34.978391,7.29863126 34.7529055,7.64388243 C34.52742,7.98913359 34.3837282,8.42179011 34.3218303,8.94185199 C34.2599323,9.46191388 34.3196196,10.067196 34.5008923,10.7576983 C34.6821649,11.4482006 35.0447102,12.1124814 35.5885282,12.7505405 C36.1323462,13.3885996 36.7358515,14.0004371 37.3990442,14.586053 C38.5132078,15.5300309 39.3245135,16.2139778 39.8329612,16.6378938 C40.3414089,17.0618098 40.5956327,17.4922812 40.5956327,17.9293079 C40.5956327,18.3663347 40.2883535,18.9497655 39.673795,19.6796002 C39.0592364,20.409435 38.1396093,21.0759008 36.9149135,21.6789978 C35.6902178,22.2820948 34.4522581,22.6207905 33.2010347,22.6950851 C31.9498112,22.7693797 30.9041775,22.6404567 30.0641334,22.3083164 C29.9049672,21.958695 29.7590648,21.7445518 29.6264263,21.665887 C29.4937878,21.5697411 29.4164153,21.5762965 29.3943089,21.6855532 C29.3722024,21.7948099 29.3633599,21.9674355 29.3677812,22.20343 C29.3722024,22.4394244 29.4893665,22.6644932 29.7192733,22.8786364 C29.94918,23.0927795 30.2630912,23.2326281 30.6610068,23.2981821 C31.0589224,23.3637361 31.5762127,23.4139942 32.2128776,23.4489563 Z M53.1239576,25.4943703 C53.2732322,25.4767715 53.3786025,25.4063761 53.4400685,25.2831841 L53.4400685,25.2831841 L53.4795824,24.9136083 C53.5147058,24.2272532 53.5454389,23.5936946 53.5717814,23.0129325 C53.6069049,22.7753481 53.6354427,22.5135652 53.6573948,22.2275839 C53.679347,21.9416026 53.7298369,21.4972316 53.8088646,20.894471 C53.8878924,20.2917104 53.9691153,19.6295537 54.0525335,18.9080009 C54.1359516,18.186448 54.2347363,17.5572892 54.3488875,17.0205243 C54.8581773,16.9765271 55.529913,16.9281303 56.3640946,16.8753338 C57.5495106,16.7521418 58.2783219,16.6333496 58.5505286,16.518957 C58.8227352,16.4045645 58.8337113,16.3121706 58.5834568,16.2417752 C58.3332023,16.1713798 57.9578206,16.1449815 57.4573116,16.1625803 C56.9568026,16.1801792 56.4343415,16.2021778 55.8899282,16.228576 C55.345515,16.2549743 54.9108625,16.2769729 54.5859707,16.2945717 L54.5859707,16.2945717 L54.4147439,16.2945717 L54.4147439,16.2417752 C54.4674291,15.8897982 54.5091381,15.5994172 54.5398712,15.3706321 C54.5706042,15.1418471 54.6364606,14.7436731 54.7374405,14.1761102 C54.8384204,13.6085473 54.9723285,12.8539966 55.1391648,11.9124582 C55.3060011,10.9709197 55.4772279,10.1657723 55.652845,9.49701606 C55.8109005,8.75786438 56.0216411,7.96591614 56.2850669,7.12117136 C56.4167798,6.6724007 56.7416716,6.06524039 57.2597423,5.29969043 L57.2597423,5.29969043 L57.2597423,5.00930941 C57.1368102,4.83332092 56.9260696,4.71452868 56.6275204,4.65293271 C56.4519032,4.85531948 56.3114095,5.08190467 56.2060392,5.33268827 C56.1006689,5.58347188 55.8723665,6.0344424 55.5211322,6.68559984 C54.9767189,7.61833886 54.6057276,8.24749774 54.4081583,8.57307645 C54.2105889,8.89865517 53.9317967,9.34302612 53.5717814,9.90618931 C52.9571213,10.8037306 52.504907,11.4570879 52.2151387,11.8662612 C51.9253703,12.2754344 51.5785264,12.7660024 51.1746069,13.337965 C50.7706874,13.9099276 50.4655525,14.3344998 50.2592023,14.6116817 C50.0528521,14.8888636 49.8025976,15.218842 49.5084389,15.601617 C49.2142801,15.984392 48.7686515,16.4925588 48.1715531,17.1261174 C47.2320011,17.3373036 46.5097755,17.4846939 46.0048761,17.5682885 C45.4999767,17.651883 45.0982524,17.7046795 44.7997031,17.7266781 C44.5011539,17.7486767 44.2948037,17.7596759 44.1806526,17.7596759 C44.0665014,17.7596759 43.9786928,17.7904739 43.9172268,17.8520699 C43.9172268,18.2744423 44.215776,18.4856285 44.8128744,18.4856285 C45.0236151,18.4856285 45.1289854,18.5252259 45.1289854,18.6044207 C45.7260838,18.6396184 46.2485449,18.7364121 46.6963687,18.8948017 C45.9851191,19.6515523 45.4538771,20.1707183 45.1026428,20.4522999 C44.7514084,20.7338815 44.3957836,20.9626666 44.0357684,21.1386551 C43.6757532,21.3146436 43.4957456,21.4466349 43.4957456,21.5346292 C43.5220881,21.8514085 43.7503905,22.0097981 44.1806526,22.0097981 C45.2694791,21.261847 46.0048761,20.6986838 46.3868434,20.3203086 C46.7688108,19.9419333 47.148583,19.5547586 47.5261599,19.1587845 C47.9915454,19.3259736 48.4744927,19.53276 48.9750017,19.7791439 C49.6335661,20.2015163 50.1274894,20.5776917 50.4567716,20.9076702 C50.7860539,21.2376486 51.073627,21.5566277 51.3194911,21.8646076 C51.5653551,22.1725875 51.8134144,22.5399635 52.0636689,22.9667356 C52.3139234,23.3935077 52.474174,23.6772891 52.5444209,23.8180799 C52.6146678,23.9588707 52.6629625,24.1084609 52.6893051,24.2668506 C52.7156477,24.7156212 52.7485759,25.0038024 52.7880898,25.1313941 C52.8276036,25.2589857 52.9395596,25.3799778 53.1239576,25.4943703 Z M49.3664953,16.9944487 C49.7803207,16.4971419 50.34823,15.7423012 51.0702232,14.7299267 C51.7658021,13.6820303 52.2324563,13.0159944 52.4701858,12.7318191 C52.6815009,12.3854805 52.8862124,12.0702235 53.0843203,11.7860482 C53.2824282,11.5018729 53.5971996,11.040088 54.0286346,10.4006936 C54.2047305,10.1431597 54.4380576,9.8012613 54.7286159,9.37499835 L54.7286159,9.37499835 L54.7550303,9.37499835 L54.7550303,9.40163978 L54.596544,10.2941278 C54.4468624,10.9779247 54.3456073,11.4352693 54.2927785,11.6661617 C54.2692991,11.7687806 54.2388627,11.9126224 54.2014695,12.0976872 L54.140162,12.4062016 C54.1068995,12.5759174 54.0697237,12.7688211 54.0286346,12.9849127 C53.9581963,13.5266219 53.8965627,14.0239287 53.8437339,14.4768331 L53.8437339,14.4768331 L53.5399685,16.4216578 C52.9940711,16.5015821 52.4877954,16.5681857 52.0211412,16.6214686 C51.1406616,16.7635562 50.2557796,16.8878829 49.3664953,16.9944487 Z M52.835489,23.2467209 C52.6449223,22.8542646 52.4716798,22.5197848 52.3157615,22.2432814 C52.1598432,21.9667781 51.9736075,21.6925047 51.7570544,21.4204611 C51.5405013,21.1484175 51.2633132,20.8451558 50.9254904,20.510676 C50.5876675,20.1761962 50.2325203,19.8751643 49.8600489,19.6075805 C49.4875775,19.3399966 49.1844031,19.1526879 48.9505257,19.0456544 C48.7166484,18.9386208 48.3658323,18.78699 47.8980775,18.5907618 C48.2012519,18.2875001 48.4914331,17.9797787 48.7686211,17.6675975 C49.8600489,17.4713693 50.765241,17.3286579 51.4841974,17.2394633 C52.0992084,17.1413492 52.6405912,17.0655338 53.108346,17.0120171 L53.108346,17.0120171 L53.5111348,16.9718795 L53.4071893,17.5739432 C53.2945817,18.4569699 53.2079604,19.1526879 53.1473255,19.6610972 C53.0866907,20.1695066 53.0217247,20.8340065 52.9524277,21.654597 C52.8917928,22.2789593 52.8528133,22.8096673 52.835489,23.2467209 Z M47.0343315,18.4629939 C46.6319618,18.3526939 46.4066348,18.2936047 46.3583504,18.2857261 L46.3583504,18.2857261 L46.3583504,18.2620904 C46.7687675,18.159669 47.1429713,18.0848226 47.4809619,18.0375512 C47.3441562,18.1714869 47.1952794,18.3133011 47.0343315,18.4629939 Z M68.6967938,23.5393103 C68.8382121,23.5393103 68.9752112,23.3124432 69.1077909,22.8587091 C69.2403706,22.404975 69.381789,21.8785554 69.532046,21.2794501 C69.682303,20.6803449 69.8878016,19.9292608 70.1485417,19.0261977 C70.4092818,18.1231347 70.670022,17.2465028 70.9307621,16.396302 C71.1915022,15.5461012 71.4566616,14.7025081 71.7262404,13.8655229 C71.9958192,13.0285376 72.3073815,12.0990435 72.6609275,11.0770405 C73.0144734,10.0550374 73.3547613,9.10792253 73.6817913,8.2356958 C74.0088213,7.36346907 74.4463344,6.38551788 74.9943306,5.30184224 C75.5423267,4.21816661 75.9975171,3.38558654 76.3599017,2.80410205 C76.7222863,2.22261757 77.0846708,1.75126271 77.4470554,1.3900375 C77.3851849,1.31955453 77.1907346,1.35039083 76.8637046,1.4825464 C76.5366747,1.60589159 76.0903229,2.09927237 75.5246494,2.96268873 C74.958976,3.82610509 74.4220281,4.75119405 73.9138058,5.73795561 C73.4055836,6.72471717 72.8774743,7.92292763 72.3294782,9.33258699 C71.781482,10.7422464 71.2820983,12.1497031 70.8313273,13.5549573 C70.3805562,14.9602115 69.9297852,16.4249357 69.4790141,17.9491299 C69.0282431,19.4733241 68.6967938,20.6186723 68.4846662,21.3851746 C68.0869271,20.3719819 67.6516236,19.175974 67.178756,17.797151 C66.7058883,16.4183279 66.2948911,15.1980915 65.9457645,14.1364418 C65.5966379,13.0747921 65.269608,12.0197502 64.9646746,10.971316 C64.6597412,9.92288185 64.3945818,9.01981882 64.1691963,8.26212691 C63.9438107,7.504435 63.7626185,6.97361015 63.6256194,6.66965235 C63.4886204,6.36569455 63.3096377,6.19168972 63.0886715,6.14763786 C62.8677053,6.10358601 62.6820937,6.20050009 62.5318367,6.43838011 C62.5318367,6.74674309 62.6091749,6.92515311 62.7638512,6.97361015 C62.9185276,7.02206719 63.0113334,7.22911091 63.0422686,7.59474131 C63.0732039,7.9603717 63.0798329,8.35463581 63.0621556,8.77753362 C63.0444783,9.20043143 62.9008503,9.98675704 62.6312715,11.1365105 C62.3616927,12.2862639 62.0744367,13.2950514 61.7695033,14.1628729 C61.4645699,15.0306945 61.0889274,15.8698823 60.6425757,16.6804364 C60.1962239,17.4909906 59.7609205,18.1561736 59.3366654,18.6759855 C58.9124103,19.1957974 58.443962,19.7023937 57.9313204,20.1957745 C57.4717107,20.5922412 57.6661609,20.6406982 58.5146711,20.3411456 C58.9124103,20.0592137 59.3278268,19.6891781 59.7609205,19.2310389 C60.1940143,18.7728996 60.5983824,18.2530877 60.974025,17.6716032 C61.3496675,17.0901187 61.7275197,16.3610605 62.1075816,15.4844286 C62.4876435,14.6077967 62.7903672,13.7531907 63.0157527,12.9206106 C63.2411382,12.0880305 63.4775721,11.0065575 63.7250542,9.67619146 C64.0344069,10.900833 64.2973567,11.8633661 64.5139036,12.5637906 C64.7304504,13.2642151 65.0044485,14.0901874 65.3358978,15.0417074 C65.6673471,15.9932275 66.0231027,17.0042176 66.4031646,18.0746777 C66.7832265,19.1451377 67.1235144,20.112076 67.4240284,20.9754923 C67.7245425,21.8389087 67.963186,22.4600398 68.1399589,22.8388858 C68.1929908,23.3058355 68.3786024,23.5393103 68.6967938,23.5393103 Z M80.79741,23.4013939 L80.8498155,23.3903791 C81.0378368,23.3291856 81.1843185,23.1150086 81.2892606,22.7478479 C82.1637783,22.5904933 83.0601589,22.3588324 83.9784025,22.0528652 C84.8966461,21.746898 85.742742,21.4496727 86.5166901,21.1611893 C87.2906383,20.8727059 87.8743788,20.6323031 88.2679118,20.4399808 C88.6614448,20.2476586 89.4157163,19.8018206 90.5307263,19.102467 C91.6457364,18.4031133 92.5836566,17.5966711 93.344487,16.6831404 C94.1053174,15.7696097 94.5425763,14.8604499 94.6562636,13.9556611 C94.7699509,13.0508723 94.7065483,12.2203899 94.466056,11.4642137 C94.2255636,10.7080376 93.8385895,9.93437758 93.3051337,9.14323375 C92.7716779,8.35208993 92.1026719,7.65710723 91.2981156,7.05828566 C90.4935593,6.45946408 89.6627675,5.97428748 88.8057402,5.60275585 C87.9487129,5.23122422 87.2250495,4.9908214 86.63475,4.88154739 C86.0444506,4.77227338 85.1764918,4.68266869 84.0308736,4.61273333 C82.8940006,4.53405604 81.7461961,4.58650756 80.5874602,4.7700879 C79.4287242,4.95366824 78.5760695,5.15254693 78.0294959,5.36672399 C77.4829223,5.58090105 77.0041239,5.85845703 76.5931006,6.19939194 C76.1820773,6.54032685 76.0159189,7.02113249 76.0946255,7.64180887 C76.2083128,8.10513067 76.4684818,8.40017049 76.8751325,8.52692834 C77.2817833,8.65368619 77.369235,8.5094445 77.1374878,8.09420326 C76.9057407,7.67896203 76.8642011,7.37518028 77.0128691,7.18285803 C77.4151472,6.77198775 77.7955624,6.48350437 78.1541147,6.31740787 C78.5126669,6.15131138 79.0308187,5.98740036 79.7085699,5.82567483 C80.3863211,5.6639493 81.1843185,5.55030433 82.1025621,5.48473992 C83.0208056,5.41917552 83.8953233,5.42791744 84.7261151,5.51096568 C85.556907,5.59401393 86.5057587,5.79070715 87.5726702,6.10104533 C88.6395818,6.41138352 89.6583949,6.95775357 90.6291096,7.74015547 C91.5998242,8.52255738 92.3125562,9.32025765 92.7673054,10.1332563 C93.2220546,10.9462549 93.5062728,11.6324957 93.6199601,12.1919786 C93.7336474,12.7514615 93.7620692,13.3393557 93.7052256,13.9556611 C93.6483819,14.5719665 93.3641637,15.1948284 92.8525708,15.8242467 C92.340978,16.453665 91.798777,17.0109624 91.2259679,17.496139 C90.6531588,17.9813156 90.030065,18.4315245 89.3566863,18.8467658 C88.6833077,19.262007 87.7497601,19.7253288 86.5560434,20.2367312 C85.3623268,20.7481335 83.6985569,21.309802 81.5647337,21.9217364 C81.8970504,20.5055452 82.1637783,19.3297569 82.3649174,18.3943714 C82.5660564,17.4589859 82.7606366,16.5432697 82.9486579,15.6472228 C83.1366792,14.7511759 83.3334457,13.7917501 83.5389574,12.7689454 C83.744469,11.7461407 83.9915203,10.6424732 84.2801111,9.4579429 C84.568702,8.27341264 84.5643294,7.53034938 84.2669934,7.22875311 C83.9696573,6.92715684 83.7707046,6.95775357 83.670135,7.32054328 C83.5695655,7.68333299 83.4143386,8.38487213 83.2044544,9.4251607 C82.9945701,10.4654493 82.7890585,11.4663992 82.5879194,12.4280105 C82.3867803,13.3896218 82.1965727,14.3403056 82.0172966,15.2800621 C81.8380205,16.2198186 81.6325088,17.3191151 81.4007616,18.5779517 C81.1690144,19.8367883 80.9831794,20.9863509 80.8432566,22.0266395 C79.6364222,22.1665102 78.6154228,22.183994 77.7802584,22.079091 C76.945094,21.9741879 76.7024153,22.0594217 77.0522224,22.3347922 C77.4020295,22.6101627 77.7736995,22.7762592 78.1672324,22.8330816 C78.5607654,22.8899041 78.9411806,22.9117589 79.308478,22.898646 C79.6757755,22.8855332 80.1348972,22.8658638 80.6858434,22.8396381 C80.6071368,23.2679922 80.6617942,23.4515725 80.8498155,23.3903791 L80.79741,23.4013939 Z M95.5381133,23.4315526 C96.1747782,23.4665148 96.9087114,23.4118864 97.7399129,23.2676676 C98.5711144,23.1234487 99.3669455,22.8852691 100.127406,22.5531288 C100.887867,22.2209884 101.579798,21.8342197 102.203199,21.3928226 C102.826601,20.9514256 103.379261,20.4554002 103.861181,19.9047464 C104.343101,19.3540927 104.64817,18.886474 104.776387,18.5018904 C104.904604,18.1173068 104.884708,17.7523895 104.7167,17.4071383 C104.548691,17.0618871 104.362997,16.7843751 104.159618,16.5746023 C103.956239,16.3648294 103.702015,16.1310201 103.396946,15.8731743 C103.091878,15.6153285 102.79123,15.3705935 102.495004,15.1389693 C102.198778,14.9073451 101.767703,14.546798 101.201779,14.057328 C100.635854,13.567858 100.100879,12.997538 99.5968523,12.3463681 C99.0928259,11.6951982 98.7457551,11.137989 98.5556399,10.6747406 C98.3655246,10.2114922 98.3146799,9.66083845 98.4031056,9.02277933 C98.4915312,8.38472022 98.8231276,7.78380838 99.3978945,7.22004382 C99.9726615,6.65627926 100.79281,6.19958626 101.858339,5.84996483 C102.923869,5.5003434 103.942975,5.30586648 104.915657,5.26653407 C105.88834,5.22720165 106.569218,5.43478938 106.958291,5.88929724 C107.550743,6.32632403 107.754122,6.95127234 107.568428,7.76414218 C107.143985,8.61197415 106.317205,9.47728719 105.088087,10.3600813 C105.088087,10.4474867 105.203041,10.4562272 105.432948,10.3863029 C106.078455,10.1677895 106.653222,9.77883568 107.157249,9.21944139 C107.661275,8.6600471 107.975186,8.24050138 108.098982,7.96080423 C108.408472,7.56748012 108.485844,7.10423172 108.3311,6.57105904 C108.176355,6.03788635 107.811599,5.57682309 107.236832,5.18786924 C106.662065,4.7989154 105.892761,4.60880875 104.928921,4.61754928 C103.965081,4.62628982 103.094088,4.74428705 102.315942,4.97154098 C101.537796,5.19879491 100.86134,5.45882585 100.286573,5.7516338 C99.7118057,6.04444175 99.2564134,6.34380511 98.9203958,6.64972386 C98.5843782,6.95564261 98.3036267,7.28122757 98.0781412,7.62647874 C97.8526556,7.9717299 97.7089639,8.40438642 97.6470659,8.9244483 C97.5851679,9.44451019 97.6448553,10.0497923 97.8261279,10.7402946 C98.0074006,11.4307969 98.3699459,12.0950777 98.9137639,12.7331368 C99.4575819,13.3711959 100.061087,13.9830334 100.72428,14.5686493 C101.838443,15.5126272 102.649749,16.1965741 103.158197,16.6204901 C103.666645,17.0444061 103.920868,17.4748775 103.920868,17.9119043 C103.920868,18.348931 103.613589,18.9323618 102.999031,19.6621966 C102.384472,20.3920313 101.464845,21.0584971 100.240149,21.6615941 C99.0154534,22.2646911 97.7774938,22.6033869 96.5262703,22.6776814 C95.2750469,22.751976 94.2294131,22.6230531 93.3893691,22.2909127 C93.2302029,21.9412913 93.0843005,21.7271481 92.951662,21.6484833 C92.8190234,21.5523374 92.741651,21.5588928 92.7195445,21.6681495 C92.6974381,21.7774062 92.6885955,21.9500318 92.6930168,22.1860263 C92.6974381,22.4220207 92.8146021,22.6470895 93.0445089,22.8612327 C93.2744157,23.0753758 93.5883269,23.2152244 93.9862425,23.2807784 C94.3841581,23.3463324 94.9014484,23.3965905 95.5381133,23.4315526 Z M5.55212347,52.1762919 C7.474154,52.386237 9.05171102,52.3403115 10.2847945,52.0385154 C11.517878,51.7367193 12.2989772,51.3911847 12.628092,51.0019115 C12.9572068,50.6126383 13.0998233,50.4114409 13.0559413,50.3983194 C13.0120593,50.3851978 12.6456448,50.5273481 11.9566978,50.8247703 C11.2677508,51.1221926 10.4076641,51.3321376 9.37643764,51.4546056 C8.34521122,51.5770736 7.38419595,51.6055037 6.49339185,51.5398958 C5.60258774,51.474288 4.786383,51.2971468 4.04477761,51.0084723 C3.30317222,50.7197978 2.68224227,50.1752527 2.18198775,49.374837 C1.68173322,48.5744214 1.41624727,47.6799678 1.38552989,46.6914763 C1.35481251,45.7029848 1.76510898,44.0715365 2.6164193,41.7971313 L2.6164193,41.7971313 L3.90654939,39.5008569 C4.83684727,38.2849249 5.62452873,37.4167145 6.26959377,36.8962256 C6.91465881,36.3757367 7.48731859,35.9689681 7.98757311,35.6759197 C8.48782764,35.3828714 9.06706971,35.1357485 9.72529935,34.9345511 C10.383529,34.7333537 11.0593114,34.6546243 11.7526466,34.6983629 C12.4459818,34.7421014 12.9879242,34.908308 13.3784738,35.1969825 C13.7690234,35.485657 13.9642982,35.8858648 13.9642982,36.397606 C13.9642982,36.9093471 13.9138339,37.3117419 13.8129054,37.6047903 C13.7119768,37.8978386 13.6659008,38.1755785 13.6746771,38.4380099 C13.9291926,38.403019 14.1529907,38.1799523 14.3460714,37.7688099 C14.5391521,37.3576674 14.6554393,36.9530857 14.6949331,36.5550648 C14.7344269,36.1570439 14.6905449,35.7743315 14.5632872,35.4069276 C14.4360294,35.0395237 14.1617671,34.7464753 13.7405001,34.5277825 C13.3192331,34.3090897 12.8738311,34.1494439 12.404294,34.0488453 C11.9347568,33.9482466 11.4761902,33.9110688 11.028594,33.9373119 C10.5897743,33.9548073 9.89205085,34.1057054 8.93542379,34.390006 C7.97879672,34.6743067 6.87297093,35.3566282 5.61794643,36.4369707 C4.36292193,37.5173131 3.25270795,38.8928909 2.28730449,40.5637039 C1.69928601,41.6834111 1.31751283,42.5931732 1.14198492,43.2929901 L1.14198492,43.2929901 L0.826034701,44.3952019 L0.628565811,45.5498999 C0.567131045,46.2672123 0.549578255,46.7898881 0.57590744,47.1179273 C0.602236625,47.4459665 0.652700897,47.7980619 0.727300256,48.1742135 C0.801899614,48.5503652 0.966457022,49.040237 1.22097248,49.6438292 C1.58080468,50.3611416 2.10738839,50.9341167 2.8007236,51.3627546 C3.46772963,51.7564017 4.38486292,52.0275808 5.55212347,52.1762919 Z M20.3450647,52.3469382 L20.677467,52.342365 C21.4558839,52.3116078 22.1993157,52.138049 22.9077625,51.8216888 C23.6162092,51.5053286 24.2634322,51.1406356 24.8494314,50.7276098 C25.4354306,50.3145839 25.9492732,49.8729978 26.3909591,49.4028514 C26.8326451,48.9327049 27.2852639,48.3307418 27.7488155,47.5969618 C28.2123671,46.8631819 28.6387471,46.0700844 29.0279555,45.2176694 C29.4171639,44.3652544 29.7167232,43.5348088 29.9266334,42.7263327 C30.1365435,41.9178566 30.2283792,41.1796828 30.2021404,40.5118112 C30.1759017,39.8439396 30.1015585,39.21781 29.9791109,38.6334224 C29.8566633,38.0490348 29.6708054,37.4954044 29.421537,36.9725313 C29.1722687,36.4496582 28.8683363,35.9729209 28.5097398,35.5423195 C28.1511433,35.1117181 27.7028976,34.7206617 27.1650029,34.3691504 C26.6271081,34.017639 26.2422728,33.8045353 26.010497,33.7298391 C25.7787212,33.655143 25.4944678,33.6002193 25.157737,33.5650682 C24.8210061,33.529917 24.5039543,33.5167354 24.2065816,33.5255231 C23.9179551,33.5343109 23.5003214,33.6573399 22.9536803,33.8946101 C22.4070393,34.1318802 21.8341595,34.4943763 21.2350409,34.9820983 C20.6359223,35.4698203 19.9012368,36.3376139 19.0309842,37.5854792 C18.1607317,38.8333445 17.4938297,40.0196953 17.0302781,41.1445316 C16.5667265,42.2693679 16.2365553,43.2557967 16.0397645,44.1038178 C15.8429737,44.9518389 15.7139664,45.7075883 15.6527426,46.371066 C15.5915188,47.0345437 15.6002651,47.7837022 15.6789814,48.6185417 C15.8189215,49.3567155 16.1228539,50.0443596 16.5907787,50.6814739 C17.0587034,51.3185882 17.6621951,51.7623713 18.4012538,52.0128231 C19.1403125,52.263275 19.8990502,52.3731223 20.677467,52.342365 L20.3450647,52.3469382 Z M21.2301292,51.5751028 C20.7937576,51.6936879 20.2670261,51.704668 19.6499348,51.6080431 C19.0328435,51.5114182 18.5127237,51.3555008 18.0895754,51.1402908 C17.6664271,50.9250808 17.3138035,50.6242261 17.0317046,50.2377265 C16.7496057,49.851227 16.5380316,49.4032389 16.3969821,48.8937622 C16.2559327,48.3842855 16.2449132,47.6552068 16.3639237,46.7065261 C16.4829341,45.7578454 16.6658576,44.8684573 16.9126941,44.0383616 C17.1595307,43.208266 17.43061,42.4352669 17.7259323,41.7193644 C18.0212546,41.0034618 18.570025,40.0086647 19.3722437,38.734973 C20.1744624,37.4612813 20.9105641,36.5389528 21.5805489,35.9679876 C22.2505338,35.3970224 22.8213432,35.0258949 23.2929773,34.8546054 C23.7646113,34.6833158 24.3001584,34.6152392 24.8996185,34.6503755 C25.5078942,34.6767277 26.0676841,35.028091 26.5789884,35.7044652 C26.6054351,35.7044652 26.6495131,35.6978771 26.7112222,35.684701 C26.7729313,35.6715249 26.8302327,35.6254084 26.8831262,35.5463517 L26.8831262,35.5463517 L26.8699028,35.2696532 C27.8748801,36.2710384 28.5007869,37.1143101 28.7476235,37.7994684 C28.99446,38.4846267 29.1641601,39.1456287 29.2567238,39.7824746 C29.3492875,40.4193204 29.3074134,41.1769474 29.1311016,42.0553554 C28.9547898,42.9337635 28.6682831,43.8209556 28.2715816,44.7169319 C27.8748801,45.6129081 27.4010421,46.4935122 26.8500677,47.3587441 C26.2990934,48.223976 25.7282839,48.9047423 25.1376394,49.4010428 C24.5469949,49.8973434 23.857175,50.3541156 23.0681797,50.7713594 C22.2791844,51.1886032 21.6665009,51.4565177 21.2301292,51.5751028 Z M32.3718116,51.7625698 C32.9645337,52.2464561 33.7555561,52.446609 34.744879,52.3630287 C35.7342019,52.2794483 36.6036729,52.1408809 37.353292,51.9473264 L37.353292,51.9473264 L38.3208237,51.7757667 L39.6805978,51.4986319 L43.3676779,50.8123932 L43.6814719,50.6276366 C43.5594409,50.4692738 42.8926285,50.4362816 41.6810349,50.5286599 C40.4694412,50.6210382 39.5651042,50.7156159 38.9680239,50.8123932 C38.3709435,50.9091704 37.7368181,51.030142 37.0656475,51.1753079 C36.3944769,51.3204737 35.7668888,51.4304479 35.1828832,51.5052303 C34.5988776,51.5800127 34.1151118,51.5844117 33.7315858,51.5184272 C33.3480597,51.4524427 33.0364448,51.2412924 32.796741,50.8849761 C32.5570372,50.5286599 32.5592164,49.67746 32.8032784,48.3313764 C33.0473404,46.9852928 33.6553164,45.2191079 34.6272063,43.0328219 C35.5990962,40.8465358 36.3857604,39.0319623 36.987199,37.5891015 C37.5886376,36.1462406 38.1464936,34.9673177 38.6607672,34.0523328 C38.1377771,33.0757624 37.7237433,33.0933582 37.4186658,34.1051204 C37.2966348,34.5714108 36.8673471,35.6293621 36.1308027,37.2789744 C35.3942584,38.9285866 34.5443995,40.8861265 33.5812261,43.1515939 C32.6180527,45.4170614 32.0580175,47.1568525 31.9011205,48.3709671 C31.7442235,49.5850817 31.7420444,50.4120873 31.8945831,50.8519839 C32.0471219,51.2918805 32.2061981,51.5954091 32.3718116,51.7625698 Z M46.069504,51.7770802 C46.662226,52.2609665 47.4532485,52.4611194 48.4425714,52.3775391 C49.4318943,52.2939587 50.3013653,52.1553913 51.0509844,51.9618368 L51.0509844,51.9618368 L52.018516,51.7902771 L53.3782902,51.5131422 L57.0653702,50.8269035 L57.3791643,50.642147 C57.2571333,50.4837842 56.5903209,50.450792 55.3787273,50.5431702 C54.1671336,50.6355485 53.2627966,50.7301263 52.6657163,50.8269035 C52.0686359,50.9236808 51.4345105,51.0446524 50.7633399,51.1898182 C50.0921693,51.3349841 49.4645812,51.4449583 48.8805756,51.5197407 C48.29657,51.5945231 47.8128042,51.5989221 47.4292781,51.5329376 C47.0457521,51.4669531 46.7341372,51.2558027 46.4944334,50.8994865 C46.2547296,50.5431702 46.2569087,49.6919703 46.5009708,48.3458867 C46.7450328,46.9998032 47.3530088,45.2336183 48.3248986,43.0473322 C49.2967885,40.8610461 50.0834528,39.0464727 50.6848914,37.6036118 C51.2863299,36.160751 51.844186,34.9818281 52.3584596,34.0668432 C51.8354695,33.0902728 51.4214357,33.1078686 51.1163582,34.1196308 C50.9943271,34.5859212 50.5650395,35.6438725 49.8284951,37.2934847 C49.0919508,38.943097 48.2420919,40.9006368 47.2789185,43.1661043 C46.3157451,45.4315718 45.7557099,47.1713628 45.5988129,48.3854774 C45.4419159,49.599592 45.4397367,50.4265976 45.5922755,50.8664942 C45.7448143,51.3063908 45.9038904,51.6099195 46.069504,51.7770802 Z M62.3247141,52.3952223 C63.3828328,52.4390563 64.5852404,52.4390563 65.9319369,52.3952223 C67.7683413,52.2023525 69.4998082,51.7552454 71.1263378,51.0539009 C71.4236604,50.8610312 71.2618819,50.7952801 70.6410023,50.8566478 C69.609118,50.9881499 68.7127778,51.1328022 67.9519817,51.2906047 C67.1911856,51.4484072 65.910075,51.5930595 64.1086498,51.7245616 C62.7357189,51.707028 61.8809164,51.6719608 61.5442423,51.6193599 C61.2075681,51.5667591 60.8993145,51.501008 60.6194815,51.4221068 C60.2259663,51.1503358 60.0816774,50.7996636 60.1866148,50.3700901 L60.1866148,50.3700901 L60.357138,49.9624336 C60.6107367,49.5679273 60.8184253,49.2654725 60.9802038,49.0550691 C61.1419823,48.8446658 61.4546082,48.4808433 61.9180817,47.9636018 C62.4077895,47.4814275 62.9543385,46.9773361 63.5577284,46.4513277 C64.1611184,46.0217542 64.6377091,45.6623152 64.9875004,45.3730106 C65.3372917,45.083706 65.7264345,44.7987848 66.1549289,44.518247 C66.7583189,44.1500412 67.317985,43.7774519 67.8339271,43.4004792 C68.3935932,42.9972062 69.02759,42.5983165 69.7359173,42.2038102 C70.0857087,42.0109405 70.2955834,41.7961537 70.3655417,41.55945 C70.3305626,41.2263113 70.1687841,41.0246748 69.8802063,40.9545403 C69.6003732,40.9370067 69.3380297,40.9457735 69.0931758,40.9808408 C68.603468,41.015908 68.0700363,41.0728922 67.4928806,41.1517935 L67.4928806,41.1517935 L66.312335,41.2043943 C65.4466015,41.1956275 64.8300943,41.1693271 64.4628134,41.1254931 C64.0955326,41.081659 63.6932726,40.993991 63.2560335,40.8624889 C62.8625182,40.6257851 62.6570158,40.3518224 62.6395263,40.0406008 C62.6220367,39.7293792 62.7116707,39.3721319 62.9084283,38.9688588 C63.105186,38.5655857 63.4571634,38.063686 63.9643608,37.4631598 C64.4715582,36.8626336 65.0618311,36.382651 65.7351793,36.0232119 C66.6621263,35.4972036 67.4119914,35.1377645 67.9847746,34.9448948 C68.5575579,34.7520251 69.0866172,34.6095645 69.5719527,34.517513 C70.0572881,34.4254615 70.5448097,34.3838192 71.0345176,34.392586 C71.6903763,34.3750524 72.0838915,34.6029894 72.2150632,35.0763969 C72.3200006,35.5147372 72.4642895,35.7339073 72.64793,35.7339073 C72.7178882,35.7076069 72.7922189,35.5980218 72.8709219,35.4051521 L72.8709219,35.4051521 L72.8709219,34.8659935 C72.827198,34.5942225 72.7419364,34.3816275 72.615137,34.2282084 C72.4883377,34.0747893 72.3287454,33.9498623 72.1363602,33.8534274 L72.1363602,33.8534274 L71.4280328,33.6035735 L70.6410023,33.6035735 C70.1600393,33.6561743 69.8080618,33.6956249 69.5850698,33.7219253 C69.3620779,33.7482258 68.9007906,33.8578108 68.201208,34.0506806 C67.4928806,34.2698507 66.8282771,34.5460051 66.2073976,34.8791437 C65.1667684,35.3876185 64.2485663,35.9837613 63.4527911,36.6675722 L63.4527911,36.6675722 L62.770698,37.5486362 C62.3422037,38.2587475 62.0798602,38.9031077 61.9836676,39.4817169 L61.9836676,39.4817169 L61.9443161,40.0208755 C62.0230191,40.6959196 62.3115969,41.1474101 62.8100495,41.375347 C63.2647782,41.5857504 63.8594234,41.7128691 64.5939852,41.7567031 C65.3110574,41.7742367 65.9363093,41.7786201 66.4697411,41.7698533 L66.4697411,41.7698533 L67.3617089,41.7698533 C68.0350571,41.7260193 68.5422545,41.6778018 68.883301,41.625201 L68.883301,41.625201 L69.3161678,41.55945 C69.1237826,41.6821852 68.8789287,41.8487546 68.581606,42.0591579 C68.22307,42.3046285 67.8645339,42.5325654 67.5059978,42.7429688 C66.7014778,43.2251431 66.1920942,43.534173 65.977847,43.6700585 C65.7635999,43.805944 65.5690284,43.9396378 65.3941328,44.0711399 C65.2692073,44.16507 65.0851653,44.2992558 64.8420069,44.4736973 L64.5218407,44.7023499 C64.1152083,44.9916545 63.5817766,45.399311 62.9215455,45.9253194 C62.2613144,46.4513277 61.8000271,46.8524091 61.5376837,47.1285635 C61.2753402,47.4047179 61.0064381,47.704981 60.7309775,48.0293528 C60.4555168,48.3537247 60.1428908,48.7876816 59.7930995,49.3312235 C59.6269487,49.6117613 59.4957769,49.9931174 59.3995843,50.4752917 C59.3995843,51.097735 59.5919695,51.5799093 59.97674,51.9218147 C60.4839374,52.1935857 61.2665954,52.3513882 62.3247141,52.3952223 Z M78.0813711,52.3192437 C80.0034017,52.5291888 81.5809587,52.4832633 82.8140422,52.1814672 C84.0471257,51.8796712 84.8282249,51.5341365 85.1573397,51.1448633 C85.4864545,50.7555901 85.6290709,50.5543928 85.5851889,50.5412712 C85.541307,50.5281496 85.1748925,50.6702999 84.4859455,50.9677222 C83.7969984,51.2651444 82.9369117,51.4750895 81.9056853,51.5975574 C80.8744589,51.7200254 79.9134436,51.7484555 79.0226395,51.6828476 C78.1318354,51.6172398 77.3156307,51.4400986 76.5740253,51.1514241 C75.8324199,50.8627496 75.2114899,50.3182045 74.7112354,49.5177889 C74.2109809,48.7173732 73.9454949,47.8229196 73.9147775,46.8344281 C73.8840602,45.8459367 74.2943566,44.2144883 75.145667,41.9400832 L75.145667,41.9400832 L76.435797,39.6438087 C77.3660949,38.4278767 78.1537764,37.5596663 78.7988414,37.0391774 C79.4439065,36.5186885 80.0165662,36.1119199 80.5168208,35.8188715 C81.0170753,35.5258232 81.5963174,35.2787003 82.254547,35.0775029 C82.9127766,34.8763056 83.5885591,34.7975761 84.2818943,34.8413147 C84.9752295,34.8850533 85.5171719,35.0512598 85.9077215,35.3399343 C86.2982711,35.6286088 86.4935458,36.0288166 86.4935458,36.5405578 C86.4935458,37.052299 86.4430816,37.4546937 86.342153,37.7477421 C86.2412245,38.0407904 86.1951484,38.3185303 86.2039248,38.5809617 C86.4584403,38.5459708 86.6822383,38.3229042 86.875319,37.9117617 C87.0683997,37.5006192 87.184687,37.0960375 87.2241807,36.6980166 C87.2636745,36.2999957 87.2197925,35.9172833 87.0925348,35.5498794 C86.9652771,35.1824755 86.6910147,34.8894271 86.2697478,34.6707343 C85.8484808,34.4520415 85.4030787,34.2923958 84.9335416,34.1917971 C84.4640045,34.0911984 84.0054378,34.0540206 83.5578417,34.0802637 C83.1190219,34.0977592 82.4212985,34.2486572 81.4646714,34.5329579 C80.5080444,34.8172585 79.4022186,35.4995801 78.1471941,36.5799225 C76.8921696,37.660265 75.7819556,39.0358427 74.8165521,40.7066557 C74.2285337,41.8263629 73.8467605,42.736125 73.6712326,43.435942 L73.6712326,43.435942 L73.3552824,44.5381537 L73.1578135,45.6928517 C73.0963787,46.4101641 73.0788259,46.9328399 73.1051551,47.2608791 C73.1314843,47.5889183 73.1819486,47.9410137 73.2565479,48.3171654 C73.3311473,48.693317 73.4957047,49.1831889 73.7502201,49.786781 C74.1100523,50.5040934 74.636636,51.0770686 75.3299713,51.5057065 C75.9969773,51.8993535 76.9141106,52.1705326 78.0813711,52.3192437 Z M92.5767686,52.4106181 C92.7533306,52.5950797 92.9298926,52.3688947 93.1064546,51.732063 C93.2830166,51.0952313 93.5566877,50.3200534 93.9274679,49.4065293 C94.2982481,48.4930052 94.649165,47.6519482 94.9802188,46.8833582 C95.3112725,46.1147682 95.7173651,45.1924602 96.1984966,44.1164342 C96.679628,43.0404082 97.1541384,42.0148896 97.6220277,41.0398783 C98.089917,40.064867 98.4209707,39.3314126 98.6151889,38.839515 C98.9947972,37.9084231 99.2750894,37.1749687 99.4560654,36.6391517 C99.6370415,36.1033346 99.7540138,35.618025 99.8069824,35.1832226 C99.859951,34.7484203 99.7054592,34.3773011 99.3435071,34.0698651 C99.2287418,33.8854036 98.9241724,33.7492533 98.4297988,33.6614145 L98.4297988,33.6614145 L97.2512475,33.6482386 C96.0329697,33.7799969 95.0111171,33.9227351 94.1856898,34.0764531 C93.3602625,34.2301711 92.6253231,34.3992609 91.9808719,34.5837225 C91.3364206,34.768184 90.9457772,34.8801786 90.8089416,34.9197061 C90.6721061,34.9592336 90.4315403,35.0382885 90.0872444,35.156871 C89.7429485,35.2754534 89.5310742,35.3501165 89.4516213,35.3808601 C89.3721684,35.4116037 89.2816803,35.4533271 89.1801572,35.5060304 C89.078634,35.5587337 89.0322865,35.6861001 89.0411146,35.8881295 C89.3324419,36.2394849 90.1843535,36.1209024 91.5968495,35.5323821 L91.5968495,35.5323821 L93.4639926,35.0712281 C94.9647696,34.7462243 96.1080085,34.5354111 96.8937094,34.4387883 C97.6794103,34.3421656 98.2068893,34.3421656 98.4761463,34.4387883 C98.7454034,34.5354111 98.8844459,34.772576 98.893274,35.1502831 C98.9021021,35.5279901 98.7299542,36.1736057 98.3768302,37.0871298 C97.741207,38.5013354 97.2777318,39.52905 96.9864045,40.1702736 C96.6950772,40.8114973 96.4015429,41.4307612 96.1058015,42.0280654 C95.8100602,42.6253697 95.4657643,43.3807838 95.0729138,44.2943079 C94.6800634,45.207832 94.3203183,46.0444971 93.9936786,46.8043032 C93.6670389,47.5641093 93.3117079,48.4007744 92.9276856,49.3142985 C92.5436632,50.2278226 92.3516521,50.9129657 92.3516521,51.3697277 C92.3251678,51.8791931 92.4002066,52.2261565 92.5767686,52.4106181 Z M98.7947473,52.3677325 C98.9894025,52.3940299 99.2172375,52.1924167 99.4782524,51.7628927 C99.7392672,51.3333688 100.113094,50.5050012 100.599732,49.27779 C100.652819,49.6897824 100.902774,50.1193063 101.349596,50.5663618 C101.796418,51.0134173 102.344992,51.1668187 102.995317,51.026566 C103.645642,50.8863133 104.125644,50.6627855 104.435323,50.3559827 C104.745002,50.0491799 104.851177,49.8804384 104.753849,49.8497581 C104.656522,49.8190778 104.490623,49.8957785 104.256152,50.0798602 C104.021681,50.2639419 103.667762,50.4063861 103.194396,50.5071927 C102.72103,50.6079993 102.252088,50.4721295 101.78757,50.0995832 C101.323052,49.727037 101.081945,49.0805596 101.064249,48.1601512 C101.435864,47.318635 101.685819,46.7839215 101.814114,46.5560109 C101.94241,46.3281002 102.168033,45.8700875 102.490983,45.1819726 C102.813934,44.4938577 103.18776,43.630427 103.612462,42.5916803 C104.037165,41.5529337 104.415415,40.5295272 104.747214,39.5214609 C105.079012,38.5133945 105.326755,37.7398131 105.490442,37.2007168 C105.65413,36.6616204 105.800121,36.0984181 105.928416,35.5111099 C106.056712,34.9238017 106.118648,34.3562165 106.114224,33.8083544 C106.1098,33.2604922 105.983716,32.9032861 105.735973,32.736736 C105.497078,32.5614201 105.196248,32.6490781 104.833481,32.9997098 C104.470715,33.3503416 104.052649,34.0187334 103.579283,35.0048853 C103.105917,35.9910372 102.703334,36.9881463 102.371536,37.9962126 C102.039737,39.004279 101.747755,39.9268788 101.495588,40.7640122 C101.243421,41.6011456 100.982406,42.7648048 100.712543,44.2549898 C100.44268,45.7451749 100.312173,46.9680032 100.321021,47.9234748 C99.7635991,49.3084703 99.3698648,50.2617504 99.1398178,50.7833152 C98.9097708,51.30488 98.7416596,51.4648557 98.635484,51.2632425 C98.5293085,51.0616292 98.4341929,50.83591 98.3501373,50.5860848 C98.2660816,50.3362597 98.0692145,50.044797 97.7595358,49.7116968 L97.7595358,49.7116968 L99.3787128,48.935924 C99.325625,48.7167792 99.2216615,48.5765265 99.0668222,48.5151659 C98.9119828,48.4538054 98.7372356,48.4954429 98.5425804,48.6400785 C98.3479253,48.7847141 98.0581545,48.9446898 97.6732682,49.1200057 C97.2883819,49.2953216 97.027367,49.3829796 96.8902236,49.3829796 C96.7530802,49.3829796 96.6845085,49.4794033 96.6845085,49.6722508 C97.1888423,50.0667115 97.5383368,50.5334901 97.7329919,51.0725864 C97.9276471,51.6116828 98.1046063,51.9557402 98.2638696,52.1047587 C98.423133,52.2537772 98.6000922,52.3414352 98.7947473,52.3677325 Z M100.991319,46.5730615 C101.069252,46.0965532 101.160174,45.580336 101.264084,45.0244096 C101.367995,44.4684833 101.504377,43.8243147 101.673232,43.0919039 C101.842086,42.359493 102.119181,41.3711796 102.504515,40.1269635 C102.88985,38.8827475 103.234053,37.8326645 103.537125,36.9767144 C103.840197,36.1119402 104.173577,35.3618809 104.537263,34.7265365 C104.90095,34.0911921 105.12176,33.7823442 105.199693,33.7999926 C105.303603,33.8441138 105.266801,34.1860526 105.089288,34.8258091 C104.911774,35.4655655 104.677975,36.3171034 104.387892,37.3804228 C104.097809,38.4437422 103.801231,39.3879345 103.498159,40.2129998 C103.195087,41.038065 102.848719,41.969021 102.459054,43.0058677 C102.06939,44.0427144 101.785801,44.7530647 101.608288,45.1369185 C101.430774,45.5207724 101.225118,45.9994867 100.991319,46.5730615 Z M111.514661,52.3663775 L111.847064,52.3618043 C112.625481,52.331047 113.368912,52.1574883 114.077359,51.8411281 C114.785806,51.5247679 115.433029,51.1600749 116.019028,50.747049 C116.605027,50.3340232 117.11887,49.8924371 117.560556,49.4222906 C118.002242,48.9521442 118.454861,48.350181 118.918412,47.6164011 C119.381964,46.8826211 119.808344,46.0895237 120.197552,45.2371086 C120.586761,44.3846936 120.88632,43.5542481 121.09623,42.745772 C121.30614,41.9372959 121.397976,41.199122 121.371737,40.5312505 C121.345498,39.8633789 121.271155,39.2372493 121.148708,38.6528617 C121.02626,38.0684741 120.840402,37.5148437 120.591134,36.9919706 C120.341865,36.4690974 120.037933,35.9923602 119.679336,35.5617588 C119.32074,35.1311574 118.872494,34.740101 118.334599,34.3885897 C117.796705,34.0370783 117.411869,33.8239745 117.180094,33.7492784 C116.948318,33.6745822 116.664064,33.6196586 116.327334,33.5845074 C115.990603,33.5493563 115.673551,33.5361746 115.376178,33.5449624 C115.087552,33.5537502 114.669918,33.6767792 114.123277,33.9140493 C113.576636,34.1513195 113.003756,34.5138156 112.404638,35.0015376 C111.805519,35.4892596 111.070833,36.3570532 110.200581,37.6049185 C109.330328,38.8527838 108.663426,40.0391346 108.199875,41.1639709 C107.736323,42.2888072 107.406152,43.2752359 107.209361,44.1232571 C107.01257,44.9712782 106.883563,45.7270276 106.822339,46.3905053 C106.761115,47.0539829 106.769862,47.8031415 106.848578,48.6379809 C106.988518,49.3761548 107.292451,50.0637988 107.760375,50.7009132 C108.2283,51.3380275 108.831792,51.7818106 109.57085,52.0322624 C110.309909,52.2827142 111.068647,52.3925615 111.847064,52.3618043 L111.514661,52.3663775 Z M112.399726,51.5945421 C111.963354,51.7131271 111.436623,51.7241073 110.819531,51.6274824 C110.20244,51.5308575 109.68232,51.37494 109.259172,51.1597301 C108.836024,50.9445201 108.4834,50.6436653 108.201301,50.2571658 C107.919202,49.8706662 107.707628,49.4226781 107.566579,48.9132015 C107.425529,48.4037248 107.41451,47.6746461 107.53352,46.7259654 C107.652531,45.7772847 107.835454,44.8878965 108.082291,44.0578009 C108.329127,43.2277053 108.600207,42.4547062 108.895529,41.7388036 C109.190851,41.0229011 109.739622,40.0281039 110.54184,38.7544122 C111.344059,37.4807206 112.080161,36.5583921 112.750146,35.9874269 C113.42013,35.4164616 113.99094,35.0453342 114.462574,34.8740446 C114.934208,34.7027551 115.469755,34.6346784 116.069215,34.6698148 C116.677491,34.696167 117.237281,35.0475302 117.748585,35.7239044 C117.775032,35.7239044 117.81911,35.7173164 117.880819,35.7041403 C117.942528,35.6909641 117.999829,35.6448477 118.052723,35.565791 L118.052723,35.565791 L118.039499,35.2890925 C119.044477,36.2904776 119.670384,37.1337494 119.91722,37.8189077 C120.164057,38.504066 120.333757,39.165068 120.42632,39.8019139 C120.518884,40.4387597 120.47701,41.1963867 120.300698,42.0747947 C120.124386,42.9532028 119.83788,43.8403949 119.441178,44.7363711 C119.044477,45.6323474 118.570639,46.5129514 118.019664,47.3781834 C117.46869,48.2434153 116.897881,48.9241816 116.307236,49.4204821 C115.716592,49.9167827 115.026772,50.3735549 114.237776,50.7907987 C113.448781,51.2080425 112.836098,51.475957 112.399726,51.5945421 Z M131.741037,52.4305056 C131.882455,52.4305056 132.019454,52.2036386 132.152034,51.7499045 C132.284614,51.2961704 132.426032,50.7697507 132.576289,50.1706455 C132.726546,49.5715402 132.932045,48.8204561 133.192785,47.9173931 C133.453525,47.01433 133.714265,46.1376981 133.975005,45.2874973 C134.235745,44.4372965 134.500905,43.5937035 134.770484,42.7567182 C135.040062,41.919733 135.351625,40.9902388 135.705171,39.9682358 C136.058717,38.9462328 136.399004,37.9991179 136.726034,37.1268911 C137.053064,36.2546644 137.490578,35.2767132 138.038574,34.1930376 C138.58657,33.1093619 139.04176,32.2767819 139.404145,31.6952974 C139.766529,31.1138129 140.128914,30.642458 140.491299,30.2812328 C140.429428,30.2107499 140.234978,30.2415862 139.907948,30.3737417 C139.580918,30.4970869 139.134566,30.9904677 138.568893,31.8538841 C138.003219,32.7173004 137.466271,33.6423894 136.958049,34.6291509 C136.449827,35.6159125 135.921717,36.814123 135.373721,38.2237823 C134.825725,39.6334417 134.326342,41.0408985 133.87557,42.4461526 C133.424799,43.8514068 132.974028,45.316131 132.523257,46.8403252 C132.072486,48.3645194 131.741037,49.5098676 131.528909,50.2763699 C131.13117,49.2631772 130.695867,48.0671694 130.222999,46.6883463 C129.750131,45.3095232 129.339134,44.0892868 128.990008,43.0276371 C128.640881,41.9659874 128.313851,40.9109455 128.008918,39.8625113 C127.703984,38.8140772 127.438825,37.9110142 127.213439,37.1533222 C126.988054,36.3956303 126.806862,35.8648055 126.669863,35.5608477 C126.532864,35.2568899 126.353881,35.0828851 126.132915,35.0388332 C125.911948,34.9947813 125.726337,35.0916954 125.57608,35.3295754 C125.57608,35.6379384 125.653418,35.8163484 125.808094,35.8648055 C125.962771,35.9132625 126.055577,36.1203062 126.086512,36.4859366 C126.117447,36.851567 126.124076,37.2458311 126.106399,37.668729 C126.088721,38.0916268 125.945093,38.8779524 125.675515,40.0277058 C125.405936,41.1774592 125.11868,42.1862467 124.813746,43.0540682 C124.508813,43.9218898 124.133171,44.7610776 123.686819,45.5716318 C123.240467,46.3821859 122.805164,47.0473689 122.380909,47.5671808 C121.956653,48.0869927 121.488205,48.593589 120.975564,49.0869698 C120.515954,49.4834365 120.710404,49.5318936 121.558914,49.2323409 C121.956653,48.9504091 122.37207,48.5803735 122.805164,48.1222342 C123.238257,47.6640949 123.642626,47.144283 124.018268,46.5627985 C124.393911,45.981314 124.771763,45.2522558 125.151825,44.3756239 C125.531887,43.498992 125.83461,42.644386 126.059996,41.8118059 C126.285381,40.9792259 126.521815,39.8977528 126.769297,38.5673868 C127.07865,39.7920284 127.3416,40.7545614 127.558147,41.4549859 C127.774694,42.1554104 128.048692,42.9813827 128.380141,43.9329028 C128.71159,44.8844228 129.067346,45.8954129 129.447408,46.965873 C129.82747,48.0363331 130.167758,49.0032713 130.468272,49.8666877 C130.768786,50.730104 131.007429,51.3512352 131.184202,51.7300811 C131.237234,52.1970308 131.422846,52.4305056 131.741037,52.4305056 Z" id="SANDSCOLLECTION" transform="translate(70.527679, 26.913013) rotate(-1.000000) translate(-70.527679, -26.913013) "></path>
            </g>
        </g>
    </g>
</svg>