<?xml version="1.0" encoding="UTF-8"?>
<svg width="86px" height="55px" viewBox="0 0 86 55" version="1.1" xmlns="http://www.w3.org/2000/svg" xmlns:xlink="http://www.w3.org/1999/xlink">
    <title>FOLLOW ME_M</title>
    <g id="final-copy" stroke="none" stroke-width="1" fill="none" fill-rule="evenodd">
        <g id="Cover-page_375" transform="translate(-16.000000, -96.000000)" fill="#000000" fill-rule="nonzero" stroke="#000000" stroke-width="0.2">
            <g id="Group-3" transform="translate(-0.339073, 0.000000)">
                <path d="M20.1457363,105.578267 L20.1457363,105.457447 L18.9942847,105.457447 L18.9942847,101.361626 L20.7934279,101.361626 C21.2492109,101.361626 21.6450224,101.784498 21.6450224,102.243617 L21.6450224,102.449012 L21.7649653,102.449012 L21.7649653,100.165502 L21.6450224,100.165502 L21.6450224,100.370897 C21.6450224,100.830015 21.2492109,101.252888 20.7934279,101.252888 L18.9942847,101.252888 L18.9942847,97.2416413 L21.9088967,97.2416413 C22.5086112,97.2416413 23.0603484,97.7732523 23.0603484,98.3531915 L23.0603484,98.5948328 L23.1802913,98.5948328 L23.1802913,97.1208207 L17.3390728,97.1208207 L17.3390728,97.2416413 L18.3226045,97.2416413 L18.3226045,105.457447 L17.3390728,105.457447 L17.3390728,105.578267 L20.1457363,105.578267 Z M29.4133232,105.699088 C31.5603008,105.699088 33.1195583,104.164666 33.1195583,101.373708 C33.1195583,98.5344225 31.5603008,97 29.4133232,97 C27.2783399,97 25.7190824,98.5344225 25.7190824,101.373708 C25.7190824,104.164666 27.2783399,105.699088 29.4133232,105.699088 Z M29.4133232,105.578267 C27.5182256,105.578267 26.450734,104.116337 26.450734,101.373708 C26.450734,98.5827508 27.5182256,97.1208207 29.4133232,97.1208207 C31.3204151,97.1208207 32.3879067,98.5827508 32.3879067,101.373708 C32.3879067,104.116337 31.3204151,105.578267 29.4133232,105.578267 Z M42.1352651,105.578267 L42.1352651,103.862614 L42.0153223,103.862614 L42.0153223,104.18883 C42.0153223,104.817097 41.4036135,105.457447 40.7799105,105.457447 L38.1531614,105.457447 L38.1531614,97.2416413 L39.2686302,97.2416413 L39.2686302,97.1208207 L36.4859553,97.1208207 L36.4859553,97.2416413 L37.4814812,97.2416413 L37.4814812,105.457447 L36.4859553,105.457447 L36.4859553,105.578267 L42.1352651,105.578267 Z M50.6472118,105.578267 L50.6472118,103.862614 L50.5272689,103.862614 L50.5272689,104.18883 C50.5272689,104.817097 49.9155602,105.457447 49.2918572,105.457447 L46.6651081,105.457447 L46.6651081,97.2416413 L47.7805769,97.2416413 L47.7805769,97.1208207 L44.997902,97.1208207 L44.997902,97.2416413 L45.9934279,97.2416413 L45.9934279,105.457447 L44.997902,105.457447 L44.997902,105.578267 L50.6472118,105.578267 Z M57.6118953,105.699088 C59.7588729,105.699088 61.3181304,104.164666 61.3181304,101.373708 C61.3181304,98.5344225 59.7588729,97 57.6118953,97 C55.476912,97 53.9176545,98.5344225 53.9176545,101.373708 C53.9176545,104.164666 55.476912,105.699088 57.6118953,105.699088 Z M57.6118953,105.578267 C55.7167977,105.578267 54.6493061,104.116337 54.6493061,101.373708 C54.6493061,98.5827508 55.7167977,97.1208207 57.6118953,97.1208207 C59.5189872,97.1208207 60.5864788,98.5827508 60.5864788,101.373708 C60.5864788,104.116337 59.5189872,105.578267 57.6118953,105.578267 Z M68.3547797,105.578267 L69.9979972,101.156231 L71.6771976,105.578267 L71.9650605,105.578267 L75.0715812,97.2416413 L75.6712956,97.2416413 L75.6712956,97.1208207 L73.3803865,97.1208207 L73.3803865,97.2416413 L73.8961409,97.2416413 C74.2559696,97.2416413 74.5678211,97.543693 74.5678211,97.9907295 C74.5678211,98.1236322 74.5438325,98.268617 74.483861,98.4256839 L72.1089919,104.780851 L69.2303627,97.2416413 L70.1299343,97.2416413 L70.1299343,97.1208207 L67.8870024,97.1208207 L67.8870024,97.2416413 L68.5226997,97.2416413 L69.9140372,100.938754 L68.4987111,104.780851 L65.6200819,97.2416413 L66.5436421,97.2416413 L66.5436421,97.1208207 L64.3246987,97.1208207 L64.3246987,97.2416413 L64.9124189,97.2416413 L68.0669167,105.578267 L68.3547797,105.578267 Z M85.5106102,105.578267 L85.5106102,105.457447 L84.9588729,105.457447 C84.5750557,105.457447 84.1672499,105.022492 84.1672499,104.59962 L84.1672499,97.2537234 L87.4656792,105.578267 L87.621605,105.578267 L90.7641085,97.3020517 L90.7641085,105.457447 L89.7805769,105.457447 L89.7805769,105.578267 L92.4313146,105.578267 L92.4313146,105.457447 L91.4357887,105.457447 L91.4357887,97.2416413 L92.4313146,97.2416413 L92.4313146,97.1208207 L90.7161314,97.1208207 L87.8375022,104.66003 L84.8269358,97.1208207 L83.0157982,97.1208207 L83.0157982,97.2416413 L84.047307,97.2416413 L84.047307,104.59962 C84.047307,105.034574 83.6634898,105.457447 83.2676783,105.457447 L83.0157982,105.457447 L83.0157982,105.578267 L85.5106102,105.578267 Z M101.339073,105.578267 L101.339073,103.983435 L101.21913,103.983435 L101.21913,104.225076 C101.21913,104.877508 100.607421,105.457447 99.9597297,105.457447 L97.0331233,105.457447 L97.0331233,101.204559 L98.8322666,101.204559 C99.2880495,101.204559 99.683861,101.61535 99.683861,102.08655 L99.683861,102.279863 L99.8038039,102.279863 L99.8038039,100.008435 L99.683861,100.008435 L99.683861,100.21383 C99.683861,100.672948 99.2880495,101.083739 98.8322666,101.083739 L97.0331233,101.083739 L97.0331233,97.2416413 L99.9477354,97.2416413 C100.54745,97.2416413 101.099187,97.7732523 101.099187,98.3531915 L101.099187,98.5948328 L101.21913,98.5948328 L101.21913,97.1208207 L95.3779115,97.1208207 L95.3779115,97.2416413 L96.3614431,97.2416413 L96.3614431,105.457447 L95.3779115,105.457447 L95.3779115,105.578267 L101.339073,105.578267 Z M19.9778163,127.728723 L19.9778163,127.607903 L18.9942847,127.607903 L18.9942847,119.392097 L19.9778163,119.392097 L19.9778163,119.271277 L17.3390728,119.271277 L17.3390728,119.392097 L18.3226045,119.392097 L18.3226045,127.607903 L17.3390728,127.607903 L17.3390728,127.728723 L19.9778163,127.728723 Z M29.3773403,127.752888 L29.3773403,120.249924 C29.3773403,119.827052 29.7611576,119.392097 30.1569691,119.392097 L30.3968549,119.392097 L30.3968549,119.271277 L27.9140372,119.271277 L27.9140372,119.392097 L28.4537801,119.392097 C28.8495916,119.392097 29.2454032,119.827052 29.2454032,120.249924 L29.2454032,126.508435 L24.5196535,119.271277 L22.9364075,119.271277 L22.9364075,119.392097 L23.7280305,119.392097 L23.9679163,119.706231 L23.9679163,126.750076 C23.9679163,127.18503 23.584099,127.607903 23.1882875,127.607903 L22.9364075,127.607903 L22.9364075,127.728723 L25.4312194,127.728723 L25.4312194,127.607903 L24.8794822,127.607903 C24.4956649,127.607903 24.0878591,127.172948 24.0878591,126.750076 L24.0878591,119.851216 L29.2573975,127.752888 L29.3773403,127.752888 Z M37.7333613,127.728723 L37.7333613,127.607903 L36.7378353,127.607903 L36.7378353,119.392097 L38.4410243,119.392097 C38.9807673,119.392097 39.5564931,119.947872 39.5564931,120.503647 L39.5564931,120.950684 L39.6644417,120.950684 L39.6644417,119.271277 L33.1395488,119.271277 L33.1395488,120.950684 L33.2594917,120.950684 L33.2594917,120.503647 C33.2594917,119.947872 33.8232233,119.392097 34.3629662,119.392097 L36.0661552,119.392097 L36.0661552,127.607903 L35.0706292,127.607903 L35.0706292,127.728723 L37.7333613,127.728723 Z M46.2692966,127.849544 C48.4162742,127.849544 49.9755317,126.315122 49.9755317,123.524164 C49.9755317,120.684878 48.4162742,119.150456 46.2692966,119.150456 C44.1343132,119.150456 42.5750557,120.684878 42.5750557,123.524164 C42.5750557,126.315122 44.1343132,127.849544 46.2692966,127.849544 Z M46.2692966,127.728723 C44.374199,127.728723 43.3067073,126.266793 43.3067073,123.524164 C43.3067073,120.733207 44.374199,119.271277 46.2692966,119.271277 C48.1763884,119.271277 49.2438801,120.733207 49.2438801,123.524164 C49.2438801,126.266793 48.1763884,127.728723 46.2692966,127.728723 Z M62.4895726,127.728723 L62.4895726,127.607903 L61.4940467,127.607903 L61.4940467,119.392097 L63.1972356,119.392097 C63.7369786,119.392097 64.3127045,119.947872 64.3127045,120.503647 L64.3127045,120.950684 L64.420653,120.950684 L64.420653,119.271277 L57.8957601,119.271277 L57.8957601,120.950684 L58.015703,120.950684 L58.015703,120.503647 C58.015703,119.947872 58.5794346,119.392097 59.1191776,119.392097 L60.8223665,119.392097 L60.8223665,127.607903 L59.8268406,127.607903 L59.8268406,127.728723 L62.4895726,127.728723 Z M69.8020905,127.728723 L69.8020905,127.607903 L68.8185588,127.607903 L68.8185588,123.355015 L73.2084684,123.355015 L73.2084684,127.607903 L72.2249367,127.607903 L72.2249367,127.728723 L74.8636802,127.728723 L74.8636802,127.607903 L73.8801485,127.607903 L73.8801485,119.392097 L74.8636802,119.392097 L74.8636802,119.271277 L72.2249367,119.271277 L72.2249367,119.392097 L73.2084684,119.392097 L73.2084684,123.234195 L68.8185588,123.234195 L68.8185588,119.392097 L69.8020905,119.392097 L69.8020905,119.271277 L67.163347,119.271277 L67.163347,119.392097 L68.1468787,119.392097 L68.1468787,127.607903 L67.163347,127.607903 L67.163347,127.728723 L69.8020905,127.728723 Z M83.7834327,127.728723 L83.7834327,126.133891 L83.6634898,126.133891 L83.6634898,126.375532 C83.6634898,127.027964 83.0517811,127.607903 82.4040895,127.607903 L79.4774831,127.607903 L79.4774831,123.355015 L81.2766264,123.355015 C81.7324094,123.355015 82.1282209,123.765805 82.1282209,124.237006 L82.1282209,124.430319 L82.2481638,124.430319 L82.2481638,122.158891 L82.1282209,122.158891 L82.1282209,122.364286 C82.1282209,122.823404 81.7324094,123.234195 81.2766264,123.234195 L79.4774831,123.234195 L79.4774831,119.392097 L82.3920952,119.392097 C82.9918096,119.392097 83.5435469,119.923708 83.5435469,120.503647 L83.5435469,120.745289 L83.6634898,120.745289 L83.6634898,119.271277 L77.8222713,119.271277 L77.8222713,119.392097 L78.805803,119.392097 L78.805803,127.607903 L77.8222713,127.607903 L77.8222713,127.728723 L83.7834327,127.728723 Z M20.7574451,149.879179 C22.8924284,149.879179 24.4636802,148.465578 24.4636802,145.67462 C24.4636802,142.835334 22.8924284,141.421733 20.7574451,141.421733 L17.3390728,141.421733 L17.3390728,141.542553 L18.3226045,141.542553 L18.3226045,149.758359 L17.3390728,149.758359 L17.3390728,149.879179 L20.7574451,149.879179 Z M20.7574451,149.758359 L18.9942847,149.758359 L18.9942847,141.542553 L20.7574451,141.542553 C22.6525426,141.542553 23.7200343,142.883663 23.7200343,145.67462 C23.7200343,148.417249 22.6525426,149.758359 20.7574451,149.758359 Z M33.8512099,149.879179 L33.8512099,148.284347 L33.731267,148.284347 L33.731267,148.525988 C33.731267,149.178419 33.1195583,149.758359 32.4718668,149.758359 L29.5452604,149.758359 L29.5452604,145.505471 L31.3444036,145.505471 C31.8001866,145.505471 32.1959981,145.916261 32.1959981,146.387462 L32.1959981,146.580775 L32.315941,146.580775 L32.315941,144.309347 L32.1959981,144.309347 L32.1959981,144.514742 C32.1959981,144.97386 31.8001866,145.38465 31.3444036,145.38465 L29.5452604,145.38465 L29.5452604,141.542553 L32.4598725,141.542553 C33.0595869,141.542553 33.6113242,142.074164 33.6113242,142.654103 L33.6113242,142.895745 L33.731267,142.895745 L33.731267,141.421733 L27.8900486,141.421733 L27.8900486,141.542553 L28.8735802,141.542553 L28.8735802,149.758359 L27.8900486,149.758359 L27.8900486,149.879179 L33.8512099,149.879179 Z M40.3121333,150 C41.7994251,150 42.9388825,149.105927 42.9388825,147.668161 C42.9388825,145.481307 40.8758649,145.38465 39.3645845,144.925532 C38.4770072,144.659726 37.7693441,144.248936 37.7693441,143.22196 C37.7693441,142.146657 38.6929044,141.421733 40.0122761,141.421733 C41.2956649,141.421733 42.2072309,142.086246 42.4591109,143.668997 L42.5670595,143.668997 L42.5670595,141.40965 L42.4591109,141.40965 C42.4591109,141.687538 42.2072309,141.905015 41.9553508,141.905015 C41.8713908,141.905015 41.7754365,141.880851 41.6914765,141.808359 C41.2956649,141.506307 40.7919048,141.300912 40.0122761,141.300912 C38.5369786,141.300912 37.4335041,142.134574 37.4335041,143.560258 C37.4335041,145.069347 38.5329347,145.464875 39.7071937,145.774623 L40.0285316,145.857745 C40.4037941,145.954041 40.7772022,146.051113 41.1157506,146.182067 C41.9193679,146.496201 42.5430709,146.967401 42.5430709,148.042705 C42.5430709,149.130091 41.6434993,149.879179 40.3121333,149.879179 C39.0287444,149.879179 37.7933327,149.226748 37.5654412,147.559422 L37.4454984,147.559422 L37.4454984,149.891261 L37.553447,149.891261 C37.553447,149.613374 37.8293156,149.371733 38.1051842,149.371733 C38.1891442,149.371733 38.2970928,149.395897 38.3810529,149.456307 C38.8368358,149.782523 39.424556,150 40.3121333,150 Z M52.2664408,149.879179 L52.2664408,148.284347 L52.1464979,148.284347 L52.1464979,148.525988 C52.1464979,149.178419 51.5347892,149.758359 50.8870976,149.758359 L47.9604912,149.758359 L47.9604912,145.505471 L49.7596345,145.505471 C50.2154174,145.505471 50.611229,145.916261 50.611229,146.387462 L50.611229,146.580775 L50.7311718,146.580775 L50.7311718,144.309347 L50.611229,144.309347 L50.611229,144.514742 C50.611229,144.97386 50.2154174,145.38465 49.7596345,145.38465 L47.9604912,145.38465 L47.9604912,141.542553 L50.8751033,141.542553 C51.4748177,141.542553 52.026555,142.074164 52.026555,142.654103 L52.026555,142.895745 L52.1464979,142.895745 L52.1464979,141.421733 L46.3052794,141.421733 L46.3052794,141.542553 L47.2888111,141.542553 L47.2888111,149.758359 L46.3052794,149.758359 L46.3052794,149.879179 L52.2664408,149.879179 Z M61.7019477,149.963754 C62.421605,149.963754 62.6255079,149.577128 62.6255079,148.985106 L62.6255079,148.453495 L62.505565,148.453495 L62.505565,148.985106 C62.505565,149.504635 62.3736278,149.746277 61.965822,149.746277 C61.6179877,149.746277 61.5100391,149.504635 61.5100391,148.997188 C61.5100391,146.387462 60.7903817,145.67462 59.5669643,145.541717 C61.1262218,145.32424 61.7739134,144.575152 61.7739134,143.463602 C61.7739134,142.194985 60.9223189,141.421733 58.5834327,141.421733 L55.4289348,141.421733 L55.4289348,141.542553 L56.4124665,141.542553 L56.4124665,149.758359 L55.4289348,149.758359 L55.4289348,149.879179 L58.1876212,149.879179 L58.1876212,149.758359 L57.0841466,149.758359 L57.0841466,145.590046 L58.6673927,145.590046 C60.4185588,145.590046 60.8143703,146.121657 60.8143703,148.985106 C60.8143703,149.58921 61.1262218,149.963754 61.7019477,149.963754 Z M58.6673927,145.469225 L57.0841466,145.469225 L57.0841466,141.542553 L58.4514955,141.542553 C60.4305531,141.542553 61.0422618,142.194985 61.0422618,143.463602 C61.0422618,144.720137 60.5984731,145.469225 58.6673927,145.469225 Z M69.6861457,149.879179 L69.6861457,149.758359 L68.6906197,149.758359 L68.6906197,141.542553 L70.3938087,141.542553 C70.9335517,141.542553 71.5092775,142.098328 71.5092775,142.654103 L71.5092775,143.10114 L71.6172261,143.10114 L71.6172261,141.421733 L65.0923332,141.421733 L65.0923332,143.10114 L65.2122761,143.10114 L65.2122761,142.654103 C65.2122761,142.098328 65.7760076,141.542553 66.3157506,141.542553 L68.0189396,141.542553 L68.0189396,149.758359 L67.0234136,149.758359 L67.0234136,149.879179 L69.6861457,149.879179 Z" id="FOLLOW-ME_M"></path>
            </g>
        </g>
    </g>
</svg>