<?xml version="1.0" encoding="UTF-8"?>
<svg width="362px" height="41px" viewBox="0 0 362 41" version="1.1" xmlns="http://www.w3.org/2000/svg" xmlns:xlink="http://www.w3.org/1999/xlink">
    <title>DAISYGOWN</title>
    <g id="final-copy" stroke="none" stroke-width="1" fill="none" fill-rule="evenodd">
        <path d="M15.875,40 C25.665,40 32.87,33.565 32.87,20.86 C32.87,7.935 25.665,1.5 15.875,1.5 L0.2,1.5 L0.2,2.05 L4.71,2.05 L4.71,39.45 L0.2,39.45 L0.2,40 L15.875,40 Z M15.875,39.45 L7.79,39.45 L7.79,2.05 L15.875,2.05 C24.565,2.05 29.46,8.155 29.46,20.86 C29.46,33.345 24.565,39.45 15.875,39.45 Z M48.3407143,40 L48.3407143,39.45 L45.7007143,39.45 C44.1057143,39.45 42.9507143,37.69 42.9507143,35.93 C42.9507143,35.545 43.0057143,34.995 43.1707143,34.61 L46.5807143,25.37 L61.9807143,25.37 L67.4257143,39.45 L62.8057143,39.45 L62.8057143,40 L73.3107143,40 L73.3107143,39.45 L70.6157143,39.45 L56.1507143,1.5 L54.8857143,1.5 L40.6407143,39.45 L37.8907143,39.45 L37.8907143,40 L48.3407143,40 Z M61.8157143,24.875 L46.7457143,24.875 L54.2257143,4.91 L61.8157143,24.875 Z M88.9464286,40 L88.9464286,39.45 L84.4364286,39.45 L84.4364286,2.05 L88.9464286,2.05 L88.9464286,1.5 L76.8464286,1.5 L76.8464286,2.05 L81.3564286,2.05 L81.3564286,39.45 L76.8464286,39.45 L76.8464286,40 L88.9464286,40 Z M109.257143,40.55 C116.077143,40.55 121.302143,36.48 121.302143,29.935 C121.302143,21.9252299 115.177952,20.0752563 109.174903,18.5694717 L108.660798,18.4411118 L108.660798,18.4411118 L107.892665,18.2499524 C107.467388,18.1437891 107.045005,18.0372625 106.627792,17.9282532 L106.129764,17.7961146 C105.717051,17.68478 105.310419,17.5701149 104.912143,17.45 C100.842143,16.24 97.5971429,14.37 97.5971429,9.695 C97.5971429,4.8 101.832143,1.5 107.882143,1.5 C113.767143,1.5 117.947143,4.525 119.102143,11.73 L119.597143,11.73 L119.597143,1.445 L119.102143,1.445 C119.102143,2.71 117.947143,3.7 116.792143,3.7 C116.407143,3.7 115.967143,3.59 115.582143,3.26 C113.767143,1.885 111.457143,0.95 107.882143,0.95 C101.117143,0.95 96.0571429,4.745 96.0571429,11.235 C96.0571429,18.4671839 101.644704,20.0811058 107.337777,21.5358772 L108.126184,21.7368267 C109.789747,22.1611725 111.440706,22.5934483 112.942143,23.17 C116.627143,24.6 119.487143,26.745 119.487143,31.64 C119.487143,36.59 115.362143,40 109.257143,40 C103.372143,40 97.7071429,37.03 96.6621429,29.44 L96.1121429,29.44 L96.1121429,40.055 L96.6071429,40.055 C96.6071429,38.79 97.8721429,37.69 99.1371429,37.69 C99.5221429,37.69 100.017143,37.8 100.402143,38.075 C102.492143,39.56 105.187143,40.55 109.257143,40.55 Z M148.432857,40 L148.432857,39.45 L143.922857,39.45 L143.922857,20.475 L157.287857,2.05 L159.652857,2.05 L159.652857,1.5 L148.102857,1.5 L148.102857,2.05 L150.852857,2.05 C152.447857,2.05 153.767857,3.425 153.767857,4.91 C153.767857,5.405 153.602857,5.955 153.217857,6.45 L143.592857,19.87 L131.547857,2.05 L136.112857,2.05 L136.112857,1.5 L125.057857,1.5 L125.057857,2.05 L127.642857,2.05 L140.842857,21.575 L140.842857,39.45 L136.332857,39.45 L136.332857,40 L148.432857,40 Z M208.54,40.55 C213.71,40.55 218.385,37.415 219.045,32.245 C219.705,33.125 221.3,37.8 221.3,40.055 L221.795,40.055 L221.795,21.575 L225.975,21.575 L225.975,21.025 L209.695,21.025 L209.695,21.575 L218.715,21.575 L218.715,30.155 C218.715,36.535 214.04,40 208.54,40 C199.85,40 195.505,33.345 195.505,20.86 C195.505,8.155 200.4,1.5 209.09,1.5 C215.69,1.5 220.42,6.45 221.19,12.72 L221.74,12.72 L221.74,1.445 L221.3,1.445 C221.3,2.49 219.87,4.305 218.55,4.305 C218.22,4.305 217.835,4.195 217.56,3.92 C215.635,2.27 212.94,0.95 209.09,0.95 C199.3,0.95 192.15,7.935 192.15,20.86 C192.15,33.565 198.75,40.55 208.54,40.55 Z M249.310714,40.55 C259.155714,40.55 266.305714,33.565 266.305714,20.86 C266.305714,7.935 259.155714,0.95 249.310714,0.95 C239.520714,0.95 232.370714,7.935 232.370714,20.86 C232.370714,33.565 239.520714,40.55 249.310714,40.55 Z M249.310714,40 C240.620714,40 235.725714,33.345 235.725714,20.86 C235.725714,8.155 240.620714,1.5 249.310714,1.5 C258.055714,1.5 262.950714,8.155 262.950714,20.86 C262.950714,33.345 258.055714,40 249.310714,40 Z M290.191429,40 L297.726429,19.87 L305.426429,40 L306.746429,40 L320.991429,2.05 L323.741429,2.05 L323.741429,1.5 L313.236429,1.5 L313.236429,2.05 L315.601429,2.05 C317.251429,2.05 318.681429,3.425 318.681429,5.46 C318.681429,6.065 318.571429,6.725 318.296429,7.44 L307.406429,36.37 L294.206429,2.05 L298.331429,2.05 L298.331429,1.5 L288.046429,1.5 L288.046429,2.05 L290.961429,2.05 L297.341429,18.88 L290.851429,36.37 L277.651429,2.05 L281.886429,2.05 L281.886429,1.5 L271.711429,1.5 L271.711429,2.05 L274.406429,2.05 L288.871429,40 L290.191429,40 Z M356.647143,40.11 L356.647143,5.955 C356.647143,4.03 358.407143,2.05 360.222143,2.05 L361.322143,2.05 L361.322143,1.5 L349.937143,1.5 L349.937143,2.05 L352.412143,2.05 C354.227143,2.05 356.042143,4.03 356.042143,5.955 L356.042143,34.445 L334.372143,1.5 L327.112143,1.5 L327.112143,2.05 L330.742143,2.05 L331.842143,3.48 L331.842143,35.545 C331.842143,37.525 330.082143,39.45 328.267143,39.45 L327.112143,39.45 L327.112143,40 L338.552143,40 L338.552143,39.45 L336.022143,39.45 C334.262143,39.45 332.392143,37.47 332.392143,35.545 L332.392143,4.14 L356.097143,40.11 L356.647143,40.11 Z" id="DAISYGOWN" fill="#000000" fill-rule="nonzero"></path>
    </g>
</svg>