<?xml version="1.0" encoding="UTF-8"?>
<svg width="372px" height="41px" viewBox="0 0 372 41" version="1.1" xmlns="http://www.w3.org/2000/svg" xmlns:xlink="http://www.w3.org/1999/xlink">
    <title>HOLLYGOWN</title>
    <g id="final-copy" stroke="none" stroke-width="1" fill="none" fill-rule="evenodd">
        <path d="M12.3,40 L12.3,39.45 L7.79,39.45 L7.79,20.09 L27.92,20.09 L27.92,39.45 L23.41,39.45 L23.41,40 L35.51,40 L35.51,39.45 L31,39.45 L31,2.05 L35.51,2.05 L35.51,1.5 L23.41,1.5 L23.41,2.05 L27.92,2.05 L27.92,19.54 L7.79,19.54 L7.79,2.05 L12.3,2.05 L12.3,1.5 L0.2,1.5 L0.2,2.05 L4.71,2.05 L4.71,39.45 L0.2,39.45 L0.2,40 L12.3,40 Z M59.5057143,40.55 C69.3507143,40.55 76.5007143,33.565 76.5007143,20.86 C76.5007143,7.935 69.3507143,0.95 59.5057143,0.95 C49.7157143,0.95 42.5657143,7.935 42.5657143,20.86 C42.5657143,33.565 49.7157143,40.55 59.5057143,40.55 Z M59.5057143,40 C50.8157143,40 45.9207143,33.345 45.9207143,20.86 C45.9207143,8.155 50.8157143,1.5 59.5057143,1.5 C68.2507143,1.5 73.1457143,8.155 73.1457143,20.86 C73.1457143,33.345 68.2507143,40 59.5057143,40 Z M109.461429,40 L109.461429,32.19 L108.911429,32.19 L108.911429,33.675 C108.911429,36.535 106.106429,39.45 103.246429,39.45 L91.2014286,39.45 L91.2014286,2.05 L96.3164286,2.05 L96.3164286,1.5 L83.5564286,1.5 L83.5564286,2.05 L88.1214286,2.05 L88.1214286,39.45 L83.5564286,39.45 L83.5564286,40 L109.461429,40 Z M140.112143,40 L140.112143,32.19 L139.562143,32.19 L139.562143,33.675 C139.562143,36.535 136.757143,39.45 133.897143,39.45 L121.852143,39.45 L121.852143,2.05 L126.967143,2.05 L126.967143,1.5 L114.207143,1.5 L114.207143,2.05 L118.772143,2.05 L118.772143,39.45 L114.207143,39.45 L114.207143,40 L140.112143,40 Z M158.882857,40 L158.882857,39.45 L154.372857,39.45 L154.372857,20.475 L167.737857,2.05 L170.102857,2.05 L170.102857,1.5 L158.552857,1.5 L158.552857,2.05 L161.302857,2.05 C162.897857,2.05 164.217857,3.425 164.217857,4.91 C164.217857,5.405 164.052857,5.955 163.667857,6.45 L154.042857,19.87 L141.997857,2.05 L146.562857,2.05 L146.562857,1.5 L135.507857,1.5 L135.507857,2.05 L138.092857,2.05 L151.292857,21.575 L151.292857,39.45 L146.782857,39.45 L146.782857,40 L158.882857,40 Z M218.99,40.55 C224.16,40.55 228.835,37.415 229.495,32.245 C230.155,33.125 231.75,37.8 231.75,40.055 L232.245,40.055 L232.245,21.575 L236.425,21.575 L236.425,21.025 L220.145,21.025 L220.145,21.575 L229.165,21.575 L229.165,30.155 C229.165,36.535 224.49,40 218.99,40 C210.3,40 205.955,33.345 205.955,20.86 C205.955,8.155 210.85,1.5 219.54,1.5 C226.14,1.5 230.87,6.45 231.64,12.72 L232.19,12.72 L232.19,1.445 L231.75,1.445 C231.75,2.49 230.32,4.305 229,4.305 C228.67,4.305 228.285,4.195 228.01,3.92 C226.085,2.27 223.39,0.95 219.54,0.95 C209.75,0.95 202.6,7.935 202.6,20.86 C202.6,33.565 209.2,40.55 218.99,40.55 Z M259.760714,40.55 C269.605714,40.55 276.755714,33.565 276.755714,20.86 C276.755714,7.935 269.605714,0.95 259.760714,0.95 C249.970714,0.95 242.820714,7.935 242.820714,20.86 C242.820714,33.565 249.970714,40.55 259.760714,40.55 Z M259.760714,40 C251.070714,40 246.175714,33.345 246.175714,20.86 C246.175714,8.155 251.070714,1.5 259.760714,1.5 C268.505714,1.5 273.400714,8.155 273.400714,20.86 C273.400714,33.345 268.505714,40 259.760714,40 Z M300.641429,40 L308.176429,19.87 L315.876429,40 L317.196429,40 L331.441429,2.05 L334.191429,2.05 L334.191429,1.5 L323.686429,1.5 L323.686429,2.05 L326.051429,2.05 C327.701429,2.05 329.131429,3.425 329.131429,5.46 C329.131429,6.065 329.021429,6.725 328.746429,7.44 L317.856429,36.37 L304.656429,2.05 L308.781429,2.05 L308.781429,1.5 L298.496429,1.5 L298.496429,2.05 L301.411429,2.05 L307.791429,18.88 L301.301429,36.37 L288.101429,2.05 L292.336429,2.05 L292.336429,1.5 L282.161429,1.5 L282.161429,2.05 L284.856429,2.05 L299.321429,40 L300.641429,40 Z M367.097143,40.11 L367.097143,5.955 C367.097143,4.03 368.857143,2.05 370.672143,2.05 L371.772143,2.05 L371.772143,1.5 L360.387143,1.5 L360.387143,2.05 L362.862143,2.05 C364.677143,2.05 366.492143,4.03 366.492143,5.955 L366.492143,34.445 L344.822143,1.5 L337.562143,1.5 L337.562143,2.05 L341.192143,2.05 L342.292143,3.48 L342.292143,35.545 C342.292143,37.525 340.532143,39.45 338.717143,39.45 L337.562143,39.45 L337.562143,40 L349.002143,40 L349.002143,39.45 L346.472143,39.45 C344.712143,39.45 342.842143,37.47 342.842143,35.545 L342.842143,4.14 L366.547143,40.11 L367.097143,40.11 Z" id="HOLLYGOWN" fill="#000000" fill-rule="nonzero"></path>
    </g>
</svg>