<?xml version="1.0" encoding="UTF-8"?>
<svg width="397px" height="59px" viewBox="0 0 397 59" version="1.1" xmlns="http://www.w3.org/2000/svg" xmlns:xlink="http://www.w3.org/1999/xlink">
    <title>INDIGODRESS</title>
    <g id="final-copy" stroke="none" stroke-width="1" fill="none" fill-rule="evenodd">
        <path d="M4.65820312,50.0292969 C5.08789062,50.0878906 5.59082031,49.6386719 6.16699219,48.6816406 C6.74316406,47.7246094 7.56835938,45.8789062 8.64257812,43.1445312 C8.75976562,44.0625 9.31152344,45.0195312 10.2978516,46.015625 C11.2841797,47.0117188 12.4951172,47.3535156 13.9306641,47.0410156 C15.3662109,46.7285156 16.4257812,46.2304688 17.109375,45.546875 C17.7929688,44.8632812 18.0273438,44.4873047 17.8125,44.4189453 C17.5976562,44.3505859 17.2314453,44.5214844 16.7138672,44.9316406 C16.1962891,45.3417969 15.4150391,45.6591797 14.3701172,45.8837891 C13.3251953,46.1083984 12.2900391,45.8056641 11.2646484,44.9755859 C10.2392578,44.1455078 9.70703125,42.7050781 9.66796875,40.6542969 C10.4882812,38.7792969 11.0400391,37.5878906 11.3232422,37.0800781 C11.6064453,36.5722656 12.1044922,35.5517578 12.8173828,34.0185547 C13.5302734,32.4853516 14.3554688,30.5615234 15.2929688,28.2470703 C16.2304688,25.9326172 17.0654297,23.6523438 17.7978516,21.40625 C18.5302734,19.1601562 19.0771484,17.4365234 19.4384766,16.2353516 C19.7998047,15.0341797 20.1220703,13.7792969 20.4052734,12.4707031 C20.6884766,11.1621094 20.8251953,9.89746094 20.8154297,8.67675781 C20.8056641,7.45605469 20.5273438,6.66015625 19.9804688,6.2890625 C19.453125,5.8984375 18.7890625,6.09375 17.9882812,6.875 C17.1875,7.65625 16.2646484,9.14550781 15.2197266,11.3427734 C14.1748047,13.5400391 13.2861328,15.7617188 12.5537109,18.0078125 C11.8212891,20.2539062 11.1767578,22.3095703 10.6201172,24.1748047 C10.0634766,26.0400391 9.48730469,28.6328125 8.89160156,31.953125 C8.29589844,35.2734375 8.0078125,37.9980469 8.02734375,40.1269531 C6.796875,43.2128906 5.92773438,45.3369141 5.41992188,46.4990234 C4.91210938,47.6611328 4.54101562,48.0175781 4.30664062,47.5683594 C4.07226562,47.1191406 3.86230469,46.6162109 3.67675781,46.0595703 C3.49121094,45.5029297 3.05664063,44.8535156 2.37304688,44.1113281 L2.37304688,44.1113281 L5.94726562,42.3828125 C5.83007812,41.8945312 5.60058594,41.5820312 5.25878906,41.4453125 C4.91699219,41.3085938 4.53125,41.4013672 4.1015625,41.7236328 C3.671875,42.0458984 3.03222656,42.4023438 2.18261719,42.7929688 C1.33300781,43.1835938 0.756835938,43.3789062 0.454101562,43.3789062 C0.151367188,43.3789062 0,43.59375 0,44.0234375 C1.11328125,44.9023438 1.88476562,45.9423828 2.31445312,47.1435547 C2.74414062,48.3447266 3.13476562,49.1113281 3.48632812,49.4433594 C3.83789062,49.7753906 4.22851562,49.9707031 4.65820312,50.0292969 Z M9.55078125,36.7871094 C9.7265625,35.7324219 9.93164062,34.5898438 10.1660156,33.359375 C10.4003906,32.1289062 10.7080078,30.703125 11.0888672,29.0820312 C11.4697266,27.4609375 12.0947266,25.2734375 12.9638672,22.5195312 C13.8330078,19.765625 14.609375,17.4414062 15.2929688,15.546875 C15.9765625,13.6328125 16.7285156,11.9726562 17.5488281,10.5664062 C18.3691406,9.16015625 18.8671875,8.4765625 19.0429688,8.515625 C19.2773438,8.61328125 19.1943359,9.37011719 18.7939453,10.7861328 C18.3935547,12.2021484 17.8662109,14.0869141 17.2119141,16.4404297 C16.5576172,18.7939453 15.8886719,20.8837891 15.2050781,22.7099609 C14.5214844,24.5361328 13.7402344,26.5966797 12.8613281,28.8916016 C11.9824219,31.1865234 11.3427734,32.7587891 10.9423828,33.6083984 C10.5419922,34.4580078 10.078125,35.5175781 9.55078125,36.7871094 Z M44.2751116,50 C44.5876116,50 44.890346,49.4970703 45.1833147,48.4912109 C45.4762835,47.4853516 45.7887835,46.3183594 46.1208147,44.9902344 C46.452846,43.6621094 46.9069475,41.9970703 47.4831194,39.9951172 C48.0592913,37.9931641 48.6354632,36.0498047 49.211635,34.1650391 C49.7878069,32.2802734 50.3737444,30.4101562 50.9694475,28.5546875 C51.5651507,26.6992187 52.2536272,24.6386719 53.0348772,22.3730469 C53.8161272,20.1074219 54.5680804,18.0078125 55.2907366,16.0742188 C56.0133929,14.140625 56.9801897,11.9726563 58.1911272,9.5703125 C59.4020647,7.16796875 60.4079241,5.32226563 61.2087054,4.03320312 C62.0094866,2.74414063 62.8102679,1.69921875 63.6110491,0.8984375 C63.4743304,0.7421875 63.0446429,0.810546875 62.3219866,1.10351563 C61.5993304,1.37695313 60.6130022,2.47070313 59.3630022,4.38476562 C58.1130022,6.29882813 56.9264788,8.34960938 55.8034319,10.5371094 C54.680385,12.7246094 53.5133929,15.3808594 52.3024554,18.5058594 C51.0915179,21.6308594 49.9880022,24.7509766 48.9919085,27.8662109 C47.9958147,30.9814453 46.999721,34.2285156 46.0036272,37.6074219 C45.0075335,40.9863281 44.2751116,43.5253906 43.8063616,45.2246094 C42.9274554,42.9785156 41.9655413,40.3271484 40.9206194,37.2705078 C39.8756975,34.2138672 38.9674944,31.5087891 38.19601,29.1552734 C37.4245257,26.8017578 36.7018694,24.4628906 36.0280413,22.1386719 C35.3542132,19.8144531 34.7682757,17.8125 34.2702288,16.1328125 C33.7721819,14.453125 33.3717913,13.2763672 33.0690569,12.6025391 C32.7663225,11.9287109 32.3708147,11.5429688 31.8825335,11.4453125 C31.3942522,11.3476563 30.984096,11.5625 30.6520647,12.0898438 C30.6520647,12.7734375 30.8229632,13.1689453 31.16476,13.2763672 C31.5065569,13.3837891 31.711635,13.8427734 31.7799944,14.6533203 C31.8483538,15.4638672 31.8630022,16.3378906 31.8239397,17.2753906 C31.7848772,18.2128906 31.4674944,19.9560547 30.8717913,22.5048828 C30.2760882,25.0537109 29.6413225,27.2900391 28.9674944,29.2138672 C28.2936663,31.1376953 27.4635882,32.9980469 26.47726,34.7949219 C25.4909319,36.5917969 24.5290179,38.0664062 23.5915179,39.21875 C22.6540179,40.3710938 21.6188616,41.4941406 20.4860491,42.5878906 C19.4704241,43.4667969 19.9001116,43.5742188 21.7751116,42.9101562 C22.6540179,42.2851562 23.5719866,41.4648438 24.5290179,40.4492188 C25.4860491,39.4335938 26.3796038,38.28125 27.2096819,36.9921875 C28.03976,35.703125 28.874721,34.0869141 29.7145647,32.1435547 C30.5544085,30.2001953 31.2233538,28.3056641 31.7214007,26.4599609 C32.2194475,24.6142578 32.7419085,22.2167969 33.2887835,19.2675781 C33.9723772,21.9824219 34.5534319,24.1162109 35.0319475,25.6689453 C35.5104632,27.2216797 36.1159319,29.0527344 36.8483538,31.1621094 C37.5807757,33.2714844 38.3669085,35.5126953 39.2067522,37.8857422 C40.046596,40.2587891 40.7985491,42.4023438 41.4626116,44.3164062 C42.1266741,46.2304688 42.6540179,47.6074219 43.0446429,48.4472656 C43.1618304,49.4824219 43.5719866,50 44.2751116,50 Z M71.030692,48.7695312 C70.8549107,49.7265625 70.976981,50.1367188 71.3969029,50 C71.8168248,49.8632812 72.1439732,49.3847656 72.3783482,48.5644531 C74.3314732,48.2128906 76.3334263,47.6953125 78.3842076,47.0117188 C80.4349888,46.328125 82.3246373,45.6640625 84.0531529,45.0195312 C85.7816685,44.375 87.0853795,43.8378906 87.9642857,43.4082031 C88.843192,42.9785156 90.5277623,41.9824219 93.0179967,40.4199219 C95.508231,38.8574219 97.6029576,37.0556641 99.3021763,35.0146484 C101.001395,32.9736328 101.977958,30.9423828 102.231864,28.9208984 C102.48577,26.8994141 102.344169,25.0439453 101.807059,23.3544922 C101.26995,21.6650391 100.405692,19.9365234 99.2142857,18.1689453 C98.0228795,16.4013672 96.5287388,14.8486328 94.7318638,13.5107422 C92.9349888,12.1728516 91.0795201,11.0888672 89.1654576,10.2587891 C87.2513951,9.42871094 85.6351842,8.89160156 84.3168248,8.64746094 C82.9984654,8.40332031 81.0599888,8.203125 78.5013951,8.046875 C75.9623326,7.87109375 73.398856,7.98828125 70.8109654,8.3984375 C68.2230748,8.80859375 66.3187779,9.25292969 65.0980748,9.73144531 C63.8773717,10.2099609 62.8080357,10.8300781 61.890067,11.5917969 C60.9720982,12.3535156 60.6010045,13.4277344 60.7767857,14.8144531 C61.030692,15.8496094 61.6117467,16.5087891 62.5199498,16.7919922 C63.4281529,17.0751953 63.6234654,16.7529297 63.1058873,15.8251953 C62.5883092,14.8974609 62.4955357,14.21875 62.827567,13.7890625 C63.7260045,12.8710938 64.5756138,12.2265625 65.3763951,11.8554688 C66.1771763,11.484375 67.3344029,11.1181641 68.8480748,10.7568359 C70.3617467,10.3955078 72.1439732,10.1416016 74.1947545,9.99511719 C76.2455357,9.84863281 78.1986607,9.86816406 80.0541295,10.0537109 C81.9095982,10.2392578 84.0287388,10.6787109 86.4115513,11.3720703 C88.7943638,12.0654297 91.0697545,13.2861328 93.2377232,15.0341797 C95.405692,16.7822266 96.9974888,18.5644531 98.0131138,20.3808594 C99.0287388,22.1972656 99.6635045,23.7304688 99.9174107,24.9804688 C100.171317,26.2304688 100.234794,27.5439453 100.10784,28.9208984 C99.9808873,30.2978516 99.3461217,31.6894531 98.2035435,33.0957031 C97.0609654,34.5019531 95.8500279,35.7470703 94.570731,36.8310547 C93.2914342,37.9150391 91.8998326,38.9208984 90.3959263,39.8486328 C88.8920201,40.7763672 86.8070592,41.8115234 84.1410435,42.9541016 C81.4750279,44.0966797 77.7592076,45.3515625 72.9935826,46.71875 C73.7357701,43.5546875 74.3314732,40.9277344 74.780692,38.8378906 C75.2299107,36.7480469 75.664481,34.7021484 76.0844029,32.7001953 C76.5043248,30.6982422 76.9437779,28.5546875 77.4027623,26.2695312 C77.8617467,23.984375 78.4135045,21.5185547 79.0580357,18.8720703 C79.702567,16.2255859 79.6928013,14.5654297 79.0287388,13.8916016 C78.3646763,13.2177734 77.9203404,13.2861328 77.695731,14.0966797 C77.6720879,14.1820004 77.6470923,14.2757071 77.620744,14.3777998 L77.5376415,14.709236 C77.3197409,15.6007212 77.0257578,16.9639186 76.655692,18.7988281 C76.186942,21.1230469 75.7279576,23.359375 75.2787388,25.5078125 C74.8295201,27.65625 74.4047154,29.7802734 74.0043248,31.8798828 C73.6039342,33.9794922 73.1449498,36.4355469 72.6273717,39.2480469 C72.1097935,42.0605469 71.6947545,44.6289062 71.3822545,46.953125 C68.686942,47.265625 66.4066685,47.3046875 64.5414342,47.0703125 C62.6761998,46.8359375 62.1342076,47.0263672 62.9154576,47.6416016 C63.6967076,48.2568359 64.5267857,48.6279297 65.405692,48.7548828 C66.2845982,48.8818359 67.1342076,48.9306641 67.9545201,48.9013672 C68.7748326,48.8720703 69.8002232,48.828125 71.030692,48.7695312 Z M105.374163,50.0292969 C105.80385,50.0878906 106.30678,49.6386719 106.882952,48.6816406 C107.459124,47.7246094 108.284319,45.8789062 109.358538,43.1445312 C109.475725,44.0625 110.027483,45.0195312 111.013811,46.015625 C112.00014,47.0117188 113.211077,47.3535156 114.646624,47.0410156 C116.082171,46.7285156 117.141741,46.2304688 117.825335,45.546875 C118.508929,44.8632812 118.743304,44.4873047 118.52846,44.4189453 C118.313616,44.3505859 117.947405,44.5214844 117.429827,44.9316406 C116.912249,45.3417969 116.130999,45.6591797 115.086077,45.8837891 C114.041155,46.1083984 113.005999,45.8056641 111.980608,44.9755859 C110.955218,44.1455078 110.422991,42.7050781 110.383929,40.6542969 C111.204241,38.7792969 111.755999,37.5878906 112.039202,37.0800781 C112.322405,36.5722656 112.820452,35.5517578 113.533343,34.0185547 C114.246233,32.4853516 115.071429,30.5615234 116.008929,28.2470703 C116.946429,25.9326172 117.78139,23.6523438 118.513811,21.40625 C119.246233,19.1601562 119.793108,17.4365234 120.154436,16.2353516 C120.515765,15.0341797 120.83803,13.7792969 121.121233,12.4707031 C121.404436,11.1621094 121.541155,9.89746094 121.53139,8.67675781 C121.521624,7.45605469 121.243304,6.66015625 120.696429,6.2890625 C120.169085,5.8984375 119.505022,6.09375 118.704241,6.875 C117.90346,7.65625 116.980608,9.14550781 115.935686,11.3427734 C114.890765,13.5400391 114.002093,15.7617188 113.269671,18.0078125 C112.537249,20.2539062 111.892718,22.3095703 111.336077,24.1748047 C110.779436,26.0400391 110.203265,28.6328125 109.607561,31.953125 C109.011858,35.2734375 108.723772,37.9980469 108.743304,40.1269531 C107.512835,43.2128906 106.643694,45.3369141 106.135882,46.4990234 C105.628069,47.6611328 105.256975,48.0175781 105.0226,47.5683594 C104.788225,47.1191406 104.578265,46.6162109 104.392718,46.0595703 C104.207171,45.5029297 103.7726,44.8535156 103.089007,44.1113281 L103.089007,44.1113281 L106.663225,42.3828125 C106.546038,41.8945312 106.316546,41.5820312 105.974749,41.4453125 C105.632952,41.3085938 105.24721,41.4013672 104.817522,41.7236328 C104.387835,42.0458984 103.748186,42.4023438 102.898577,42.7929688 C102.048968,43.1835938 101.472796,43.3789062 101.170061,43.3789062 C100.867327,43.3789062 100.71596,43.59375 100.71596,44.0234375 C101.829241,44.9023438 102.600725,45.9423828 103.030413,47.1435547 C103.4601,48.3447266 103.850725,49.1113281 104.202288,49.4433594 C104.55385,49.7753906 104.944475,49.9707031 105.374163,50.0292969 Z M110.266741,36.7871094 C110.442522,35.7324219 110.6476,34.5898438 110.881975,33.359375 C111.11635,32.1289062 111.423968,30.703125 111.804827,29.0820312 C112.185686,27.4609375 112.810686,25.2734375 113.679827,22.5195312 C114.548968,19.765625 115.325335,17.4414062 116.008929,15.546875 C116.692522,13.6328125 117.444475,11.9726562 118.264788,10.5664062 C119.0851,9.16015625 119.583147,8.4765625 119.758929,8.515625 C119.993304,8.61328125 119.910296,9.37011719 119.509905,10.7861328 C119.109515,12.2021484 118.582171,14.0869141 117.927874,16.4404297 C117.273577,18.7939453 116.604632,20.8837891 115.921038,22.7099609 C115.237444,24.5361328 114.456194,26.5966797 113.577288,28.8916016 C112.698382,31.1865234 112.058733,32.7587891 111.658343,33.6083984 C111.257952,34.4580078 110.794085,35.5175781 110.266741,36.7871094 Z M146.426618,58.0273437 C146.700056,58.3203125 147.090681,57.9736328 147.598493,56.9873047 C148.106306,56.0009766 148.604353,54.9072266 149.092634,53.7060547 C149.580915,52.5048828 150.225446,50.8984375 151.026228,48.8867187 C151.827009,46.875 152.520368,45.0244141 153.106306,43.3349609 C153.692243,41.6455078 154.048689,40.4541016 154.175642,39.7607422 C154.302595,39.0673828 154.419782,38.5107422 154.527204,38.0908203 C154.634626,37.6708984 154.683454,37.1435547 154.673689,36.5087891 C154.663923,35.8740234 154.507673,35.3662109 154.204939,34.9853516 C153.902204,34.6044922 153.540876,34.3261719 153.120954,34.1503906 C152.701032,33.9746094 152.198103,33.8867188 151.612165,33.8867188 C151.026228,33.8867188 150.420759,33.9501953 149.795759,34.0771484 C149.170759,34.2041016 148.25279,34.4335938 147.041853,34.765625 C145.830915,35.0976562 144.717634,35.4394531 143.702009,35.7910156 C142.686384,36.1425781 142.320173,36.5527344 142.603376,37.0214844 C142.886579,37.4902344 143.179548,37.7685547 143.482282,37.8564453 C143.785017,37.9443359 144.449079,37.7832031 145.47447,37.3730469 C146.499861,36.9628906 147.652204,36.5673828 148.931501,36.1865234 C150.210798,35.8056641 151.192243,35.6738281 151.875837,35.7910156 C152.461775,35.9472656 152.813337,36.2792969 152.930525,36.7871094 C152.813337,37.5683594 152.652204,38.4179688 152.447126,39.3359375 C152.242048,40.2539062 151.973493,41.3183594 151.641462,42.5292969 C151.094587,42.7246094 150.391462,42.9296875 149.532087,43.1445312 C148.672712,43.359375 147.530134,43.6230469 146.104353,43.9355469 C144.678571,44.2480469 142.979353,44.4824219 141.006696,44.6386719 C139.03404,44.7949219 137.090681,44.8144531 135.176618,44.6972656 C133.262556,44.5800781 131.84654,44.4091797 130.928571,44.1845703 C130.010603,43.9599609 129.165876,43.5595703 128.394392,42.9833984 C127.622907,42.4072266 127.041853,41.7138672 126.651228,40.9033203 C126.260603,40.0927734 125.967634,39.1748047 125.772321,38.1494141 C125.577009,37.1240234 125.542829,35.8837891 125.669782,34.4287109 C125.796736,32.9736328 126.011579,31.6601562 126.314314,30.4882812 C126.617048,29.3164062 126.949079,28.3105469 127.310407,27.4707031 C127.671736,26.6308594 128.033064,25.8349609 128.394392,25.0830078 C128.75572,24.3310547 129.200056,23.5644531 129.7274,22.7832031 C130.254743,22.0019531 130.845564,21.2158203 131.499861,20.4248047 C132.154157,19.6337891 132.871931,18.8525391 133.653181,18.0810547 C134.434431,17.3095703 135.381696,16.5380859 136.494978,15.7666016 C137.608259,14.9951172 139.009626,14.2333984 140.699079,13.4814453 C142.388532,12.7294922 143.965681,12.2265625 145.430525,11.9726562 C146.895368,11.71875 148.052595,11.6845703 148.902204,11.8701172 C149.751814,12.0556641 150.430525,12.3730469 150.938337,12.8222656 C151.44615,13.2714844 151.763532,13.8232422 151.890486,14.4775391 C152.017439,15.1318359 152.061384,15.8007812 152.022321,16.484375 C151.983259,17.1679687 151.890486,17.7783203 151.744001,18.3154297 C151.597517,18.8525391 151.597517,19.3603516 151.744001,19.8388672 C151.890486,20.3173828 152.115095,20.4394531 152.417829,20.2050781 C152.720564,19.9707031 153.018415,19.2138672 153.311384,17.9345703 C153.604353,16.6552734 153.72154,15.4443359 153.662946,14.3017578 C153.604353,13.1591797 152.881696,12.109375 151.494978,11.1523437 C150.108259,10.1953125 147.62779,9.98046875 144.053571,10.5078125 C142.647321,10.859375 141.338728,11.2744141 140.12779,11.7529297 C138.916853,12.2314453 137.896345,12.7001953 137.066267,13.1591797 C136.236189,13.6181641 135.303571,14.2236328 134.268415,14.9755859 C133.233259,15.7275391 132.232282,16.6210937 131.265486,17.65625 C130.298689,18.6914062 129.463728,19.6582031 128.760603,20.5566406 C128.057478,21.4550781 127.388532,22.4902344 126.753767,23.6621094 C126.119001,24.8339844 125.523298,26.2646484 124.966657,27.9541016 C124.410017,29.6435547 124.063337,31.9335937 123.926618,34.8242187 C124.004743,36.9921875 124.19029,38.6035156 124.483259,39.6582031 C124.776228,40.7128906 125.230329,41.6796875 125.845564,42.5585937 C126.460798,43.4375 127.19322,44.1064453 128.042829,44.5654297 C128.892439,45.0244141 129.790876,45.3759766 130.738142,45.6201172 C131.685407,45.8642578 133.658064,46.0107422 136.656111,46.0595703 C139.654157,46.1083984 142.271345,45.9277344 144.507673,45.5175781 C146.744001,45.1074219 148.985212,44.453125 151.231306,43.5546875 C151.016462,43.9648437 150.826032,44.3847656 150.660017,44.8144531 C150.494001,45.2441406 150.147321,46.1376953 149.619978,47.4951172 C149.092634,48.8525391 148.487165,50.4052734 147.803571,52.1533203 C147.119978,53.9013672 146.660993,55.5761719 146.426618,57.1777344 L146.426618,57.1777344 L146.426618,58.0273437 Z M171.713118,50.0258636 L172.186105,50.0146484 C173.924386,49.9462891 175.584542,49.5605469 177.166574,48.8574219 C178.748605,48.1542969 180.193917,47.34375 181.502511,46.4257812 C182.811105,45.5078125 183.958566,44.5263672 184.944894,43.4814453 C185.931222,42.4365234 186.941964,41.0986328 187.977121,39.4677734 C189.012277,37.8369141 189.964425,36.0742188 190.833566,34.1796875 C191.702706,32.2851562 192.371652,30.4394531 192.840402,28.6425781 C193.309152,26.8457031 193.51423,25.2050781 193.455636,23.7207031 C193.397042,22.2363281 193.231027,20.8447266 192.957589,19.5458984 C192.684152,18.2470703 192.269113,17.0166016 191.712472,15.8544922 C191.155831,14.6923828 190.477121,13.6328125 189.676339,12.6757812 C188.875558,11.71875 187.874581,10.8496094 186.67341,10.0683594 C185.472238,9.28710938 184.612863,8.81347656 184.095285,8.64746094 C183.577706,8.48144531 182.942941,8.359375 182.190988,8.28125 C181.439035,8.203125 180.731027,8.17382812 180.066964,8.19335938 C179.422433,8.21289062 178.489816,8.48632812 177.269113,9.01367188 C176.04841,9.54101562 174.769113,10.3466797 173.431222,11.4306641 C172.093331,12.5146484 170.452706,14.4433594 168.509347,17.2167969 C166.565988,19.9902344 165.07673,22.6269531 164.041574,25.1269531 C163.006417,27.6269531 162.269113,29.8193359 161.82966,31.7041016 C161.390206,33.5888672 161.102121,35.2685547 160.965402,36.7431641 C160.828683,38.2177734 160.848214,39.8828125 161.023996,41.7382812 C161.336496,43.3789062 162.015206,44.9072266 163.060128,46.3232422 C164.10505,47.7392578 165.452706,48.7255859 167.103097,49.2822266 C168.753488,49.8388672 170.447824,50.0830078 172.186105,50.0146484 L171.713118,50.0258636 Z M173.665597,47.9931641 C172.6988,48.2568359 171.531808,48.28125 170.164621,48.0664062 C168.797433,47.8515625 167.645089,47.5048828 166.707589,47.0263672 C165.770089,46.5478516 164.988839,45.8789062 164.363839,45.0195312 C163.738839,44.1601562 163.270089,43.1640625 162.957589,42.03125 C162.645089,40.8984375 162.620675,39.2773438 162.884347,37.1679688 C163.148019,35.0585938 163.553292,33.0810547 164.100167,31.2353516 C164.647042,29.3896484 165.247628,27.6708984 165.901925,26.0791016 C166.556222,24.4873047 167.772042,22.2753906 169.549386,19.4433594 C171.32673,16.6113281 172.957589,14.5605469 174.441964,13.2910156 C175.926339,12.0214844 177.190988,11.1962891 178.23591,10.8154297 C179.280831,10.4345703 180.467355,10.2832031 181.79548,10.3613281 C183.143136,10.4199219 184.383371,11.2011719 185.516183,12.7050781 C185.574777,12.7050781 185.672433,12.6904297 185.809152,12.6611328 C185.945871,12.6318359 186.072824,12.5292969 186.190011,12.3535156 L186.190011,12.3535156 L186.160714,11.7382812 C188.387277,13.9648438 189.773996,15.8398438 190.320871,17.3632812 C190.867746,18.8867188 191.243722,20.3564453 191.4488,21.7724609 C191.653878,23.1884766 191.561105,24.8730469 191.17048,26.8261719 C190.779855,28.7792969 190.145089,30.7519531 189.266183,32.7441406 C188.387277,34.7363281 187.337472,36.6943359 186.116769,38.6181641 C184.896066,40.5419922 183.631417,42.0556641 182.322824,43.1591797 C181.01423,44.2626953 179.48591,45.2783203 177.737863,46.2060547 C175.989816,47.1337891 174.632394,47.7294922 173.665597,47.9931641 Z M231.769252,48.7695312 C231.593471,49.7265625 231.715541,50.1367188 232.135463,50 C232.555385,49.8632812 232.882534,49.3847656 233.116909,48.5644531 C235.070034,48.2128906 237.071987,47.6953125 239.122768,47.0117188 C241.173549,46.328125 243.063198,45.6640625 244.791713,45.0195312 C246.520229,44.375 247.82394,43.8378906 248.702846,43.4082031 C249.581752,42.9785156 251.266323,41.9824219 253.756557,40.4199219 C256.246791,38.8574219 258.341518,37.0556641 260.040737,35.0146484 C261.739955,32.9736328 262.716518,30.9423828 262.970424,28.9208984 C263.22433,26.8994141 263.082729,25.0439453 262.545619,23.3544922 C262.00851,21.6650391 261.144252,19.9365234 259.952846,18.1689453 C258.76144,16.4013672 257.267299,14.8486328 255.470424,13.5107422 C253.673549,12.1728516 251.81808,11.0888672 249.904018,10.2587891 C247.989955,9.42871094 246.373744,8.89160156 245.055385,8.64746094 C243.737026,8.40332031 241.798549,8.203125 239.239955,8.046875 C236.700893,7.87109375 234.137416,7.98828125 231.549526,8.3984375 C228.961635,8.80859375 227.057338,9.25292969 225.836635,9.73144531 C224.615932,10.2099609 223.546596,10.8300781 222.628627,11.5917969 C221.710659,12.3535156 221.339565,13.4277344 221.515346,14.8144531 C221.769252,15.8496094 222.350307,16.5087891 223.25851,16.7919922 C224.166713,17.0751953 224.362026,16.7529297 223.844448,15.8251953 C223.326869,14.8974609 223.234096,14.21875 223.566127,13.7890625 C224.464565,12.8710938 225.314174,12.2265625 226.114955,11.8554688 C226.915737,11.484375 228.072963,11.1181641 229.586635,10.7568359 C231.100307,10.3955078 232.882534,10.1416016 234.933315,9.99511719 C236.984096,9.84863281 238.937221,9.86816406 240.79269,10.0537109 C242.648159,10.2392578 244.767299,10.6787109 247.150112,11.3720703 C249.532924,12.0654297 251.808315,13.2861328 253.976284,15.0341797 C256.144252,16.7822266 257.736049,18.5644531 258.751674,20.3808594 C259.767299,22.1972656 260.402065,23.7304688 260.655971,24.9804688 C260.909877,26.2304688 260.973354,27.5439453 260.846401,28.9208984 C260.719448,30.2978516 260.084682,31.6894531 258.942104,33.0957031 C257.799526,34.5019531 256.588588,35.7470703 255.309291,36.8310547 C254.029994,37.9150391 252.638393,38.9208984 251.134487,39.8486328 C249.63058,40.7763672 247.545619,41.8115234 244.879604,42.9541016 C242.213588,44.0966797 238.497768,45.3515625 233.732143,46.71875 C234.47433,43.5546875 235.070034,40.9277344 235.519252,38.8378906 C235.968471,36.7480469 236.403041,34.7021484 236.822963,32.7001953 C237.242885,30.6982422 237.682338,28.5546875 238.141323,26.2695312 C238.600307,23.984375 239.152065,21.5185547 239.796596,18.8720703 C240.441127,16.2255859 240.431362,14.5654297 239.767299,13.8916016 C239.103237,13.2177734 238.658901,13.2861328 238.434291,14.0966797 C238.209682,14.9072266 237.863002,16.4746094 237.394252,18.7988281 C236.925502,21.1230469 236.466518,23.359375 236.017299,25.5078125 C235.56808,27.65625 235.143276,29.7802734 234.742885,31.8798828 C234.342494,33.9794922 233.88351,36.4355469 233.365932,39.2480469 C232.848354,42.0605469 232.433315,44.6289062 232.120815,46.953125 C229.425502,47.265625 227.145229,47.3046875 225.279994,47.0703125 C223.41476,46.8359375 222.872768,47.0263672 223.654018,47.6416016 C224.435268,48.2568359 225.265346,48.6279297 226.144252,48.7548828 C227.023159,48.8818359 227.872768,48.9306641 228.69308,48.9013672 C229.513393,48.8720703 230.538784,48.828125 231.769252,48.7695312 Z M271.620536,53.4863281 C271.972098,53.3300781 272.206473,53.1787109 272.323661,53.0322266 C272.440848,52.8857422 272.626395,52.5292969 272.880301,51.9628906 C273.64202,48.6621094 274.213309,45.8496094 274.594169,43.5253906 C274.975028,41.2011719 275.2387,39.5947266 275.385184,38.7060547 C275.531669,37.8173828 275.82952,35.7519531 276.278739,32.5097656 C280.321708,35.4589844 283.192801,37.7001953 284.89202,39.2333984 C286.591239,40.7666016 288.925223,42.5830078 291.893973,44.6826172 C294.862723,46.7822266 297.831473,48.2617188 300.800223,49.1210938 C302.030692,49.21875 302.108817,48.9355469 301.034598,48.2714844 C300.233817,47.9980469 299.061942,47.4072266 297.518973,46.4990234 C295.976004,45.5908203 294.042411,44.2431641 291.718192,42.4560547 C289.393973,40.6689453 286.976981,38.7451172 284.467215,36.6845703 C281.95745,34.6240234 279.315848,32.6855469 276.542411,30.8691406 C276.679129,29.9902344 276.815848,29.1894531 276.952567,28.4667969 C278.300223,28.1542969 280.038504,27.5732422 282.167411,26.7236328 C284.296317,25.8740234 285.966239,25.0878906 287.177176,24.3652344 C288.388114,23.6425781 289.555106,22.7099609 290.678153,21.5673828 C291.8012,20.4248047 292.606864,19.4335938 293.095145,18.59375 C293.583426,17.7539062 293.861747,16.9042969 293.930106,16.0449219 C293.998465,15.1855469 293.959403,14.4921875 293.812919,13.9648438 C293.666434,13.4375 293.339286,12.8125 292.831473,12.0898438 C292.323661,11.3671875 291.4887,10.6835938 290.32659,10.0390625 C289.164481,9.39453125 287.655692,8.93554688 285.800223,8.66210938 C283.944754,8.38867188 281.952567,8.23242188 279.823661,8.19335938 C279.530692,7.11914063 279.140067,6.53320313 278.651786,6.43554688 C278.163504,6.31835938 277.968192,6.484375 278.065848,6.93359375 L278.065848,6.93359375 L278.065848,7.78320313 L277.948661,8.48632812 C277.226004,8.70117188 276.444754,8.95019531 275.604911,9.23339844 C274.765067,9.51660156 273.749442,9.99511719 272.558036,10.6689453 C271.366629,11.3427734 270.658622,11.9140625 270.434012,12.3828125 C270.209403,12.8515625 270.097098,13.2617188 270.097098,13.6132812 C270.097098,13.9648438 270.165458,14.2333984 270.302176,14.4189453 C270.438895,14.6044922 270.629325,15.0048828 270.873465,15.6201172 C271.117606,16.2353516 271.425223,16.9238281 271.796317,17.6855469 C272.186942,17.3339844 272.304129,16.9287109 272.147879,16.4697266 C271.991629,16.0107422 271.781669,15.3955078 271.517997,14.6240234 C271.254325,13.8525391 271.434989,13.2128906 272.059989,12.7050781 C272.684989,12.1972656 273.324637,11.7724609 273.978934,11.4306641 C274.633231,11.0888672 275.917411,10.6347656 277.831473,10.0683594 C277.245536,13.7988281 276.854911,16.2060547 276.659598,17.2900391 C276.464286,18.3740234 276.254325,19.6923828 276.029715,21.2451172 C275.805106,22.7978516 275.536551,24.7265625 275.224051,27.03125 C273.544364,27.3632812 272.211356,27.5830078 271.225028,27.6904297 C270.2387,27.7978516 269.291434,27.8710938 268.383231,27.9101562 C267.475028,27.9492188 267.030692,28.1542969 267.050223,28.5253906 C267.069754,28.8964844 267.294364,29.3457031 267.724051,29.8730469 C268.231864,29.8730469 268.788504,29.8242188 269.393973,29.7265625 C270.351004,29.7265625 271.405692,29.9707031 272.558036,30.4589844 L272.558036,30.4589844 L274.491629,31.484375 C273.983817,35.2734375 273.505301,38.5253906 273.056083,41.2402344 C272.606864,43.9550781 272.196708,46.25 271.825614,48.125 C271.45452,50 271.132254,51.5820312 270.858817,52.8710938 L270.858817,52.8710938 L271.356864,53.4863281 L271.620536,53.4863281 Z M277.304129,26.4453125 C277.577567,24.609375 277.797294,23.1152344 277.963309,21.9628906 C278.037094,21.4507378 278.116666,20.8971113 278.202024,20.302011 L278.334403,19.3782552 C278.402762,18.9008247 278.474377,18.4000651 278.549247,17.8759766 C278.605399,17.4829102 278.6585,17.1112061 278.708548,16.7608643 L278.84954,15.7739258 C278.93743,15.1586914 279.013114,14.6289063 279.07659,14.1845703 C279.203544,13.2958984 279.42327,11.8652344 279.73577,9.89257813 C281.161551,9.75585938 282.733817,9.8046875 284.452567,10.0390625 C286.171317,10.2734375 287.455497,10.5273438 288.305106,10.8007813 C289.154715,11.0742188 290.04827,11.5039063 290.98577,12.0898438 C291.845145,13.1445313 292.313895,13.9501953 292.39202,14.5068359 C292.470145,15.0634766 292.382254,15.7373047 292.128348,16.5283203 C291.874442,17.3193359 291.342215,18.1933594 290.531669,19.1503906 C289.721122,20.1074219 288.739676,21.0205078 287.587333,21.8896484 C286.434989,22.7587891 284.945731,23.5986328 283.119559,24.4091797 C281.293387,25.2197266 279.354911,25.8984375 277.304129,26.4453125 Z M274.813895,29.7558594 C274.520926,29.5996094 274.130301,29.4335938 273.64202,29.2578125 C274.071708,29.1601562 274.501395,29.0527344 274.931083,28.9355469 L274.931083,28.9355469 L274.813895,29.7558594 Z M309.596819,49.9121094 C311.9601,50.0097656 314.645647,50.0097656 317.65346,49.9121094 C321.755022,49.4824219 325.62221,48.4863281 329.255022,46.9238281 C329.919085,46.4941406 329.557757,46.3476562 328.171038,46.484375 C325.86635,46.7773438 323.864397,47.0996094 322.165179,47.4511719 C320.46596,47.8027344 317.604632,48.125 313.581194,48.4179688 C310.514788,48.3789062 308.605608,48.3007812 307.853655,48.1835938 C307.101702,48.0664062 306.413225,47.9199219 305.788225,47.7441406 C304.909319,47.1386719 304.587054,46.3574219 304.821429,45.4003906 L304.821429,45.4003906 L305.202288,44.4921875 C305.768694,43.6132812 306.232561,42.9394531 306.59389,42.4707031 C306.955218,42.0019531 307.65346,41.1914062 308.688616,40.0390625 C309.782366,38.9648438 311.003069,37.8417969 312.350725,36.6699219 C313.698382,35.7128906 314.762835,34.9121094 315.544085,34.2675781 C316.325335,33.6230469 317.194475,32.9882812 318.151507,32.3632812 C319.499163,31.5429688 320.749163,30.7128906 321.901507,29.8730469 C323.151507,28.9746094 324.567522,28.0859375 326.149554,27.2070312 C326.930804,26.7773438 327.399554,26.2988281 327.555804,25.7714844 C327.477679,25.0292969 327.11635,24.5800781 326.471819,24.4238281 C325.846819,24.3847656 325.260882,24.4042969 324.714007,24.4824219 C323.620257,24.5605469 322.42885,24.6875 321.139788,24.8632812 L321.139788,24.8632812 L318.503069,24.9804688 C316.569475,24.9609375 315.192522,24.9023438 314.37221,24.8046875 C313.551897,24.7070312 312.65346,24.5117188 311.676897,24.21875 C310.797991,23.6914062 310.339007,23.0810547 310.299944,22.3876953 C310.260882,21.6943359 310.461077,20.8984375 310.90053,20 C311.339983,19.1015625 312.126116,17.9833984 313.258929,16.6455078 C314.391741,15.3076172 315.7101,14.2382812 317.214007,13.4375 C319.284319,12.265625 320.959124,11.4648438 322.238421,11.0351562 C323.517718,10.6054688 324.699358,10.2880859 325.783343,10.0830078 C326.867327,9.87792969 327.956194,9.78515625 329.049944,9.8046875 C330.514788,9.765625 331.393694,10.2734375 331.686663,11.328125 C331.921038,12.3046875 332.243304,12.7929688 332.65346,12.7929688 C332.80971,12.734375 332.975725,12.4902344 333.151507,12.0605469 L333.151507,12.0605469 L333.151507,10.859375 C333.05385,10.2539062 332.863421,9.78027344 332.580218,9.43847656 C332.297015,9.09667969 331.940569,8.81835938 331.510882,8.60351562 L331.510882,8.60351562 L329.92885,8.046875 L328.171038,8.046875 C327.096819,8.1640625 326.310686,8.25195312 325.81264,8.31054688 C325.314593,8.36914062 324.284319,8.61328125 322.721819,9.04296875 C321.139788,9.53125 319.655413,10.1464844 318.268694,10.8886719 C315.944475,12.0214844 313.893694,13.3496094 312.11635,14.8730469 L312.11635,14.8730469 L310.592913,16.8359375 C309.635882,18.4179688 309.049944,19.8535156 308.8351,21.1425781 L308.8351,21.1425781 L308.74721,22.34375 C308.922991,23.8476562 309.567522,24.8535156 310.680804,25.3613281 C311.696429,25.8300781 313.024554,26.1132812 314.665179,26.2109375 C316.266741,26.25 317.663225,26.2597656 318.854632,26.2402344 L318.854632,26.2402344 L320.846819,26.2402344 C322.350725,26.1425781 323.483538,26.0351562 324.245257,25.9179688 L324.245257,25.9179688 L325.212054,25.7714844 C324.782366,26.0449219 324.235491,26.4160156 323.571429,26.8847656 C322.770647,27.4316406 321.969866,27.9394531 321.169085,28.4082031 C319.37221,29.4824219 318.234515,30.1708984 317.755999,30.4736328 C317.277483,30.7763672 316.842913,31.0742188 316.452288,31.3671875 C316.061663,31.6601562 315.412249,32.1289062 314.504046,32.7734375 C313.595843,33.4179688 312.404436,34.3261719 310.929827,35.4980469 C309.455218,36.6699219 308.424944,37.5634766 307.839007,38.1787109 C307.253069,38.7939453 306.652483,39.4628906 306.037249,40.1855469 C305.422015,40.9082031 304.723772,41.875 303.942522,43.0859375 C303.571429,43.7109375 303.27846,44.5605469 303.063616,45.6347656 C303.063616,47.0214844 303.493304,48.0957031 304.352679,48.8574219 C305.485491,49.4628906 307.233538,49.8144531 309.596819,49.9121094 Z M337.787946,50.0878906 C339.194196,50.1660156 340.81529,50.0439453 342.651228,49.7216797 C344.487165,49.3994141 346.244978,48.8671875 347.924665,48.125 C349.604353,47.3828125 351.132673,46.5185547 352.509626,45.5322266 C353.886579,44.5458984 355.107282,43.4375 356.171736,42.2070312 C357.236189,40.9765625 357.910017,39.9316406 358.19322,39.0722656 C358.476423,38.2128906 358.432478,37.3974609 358.061384,36.6259766 C357.69029,35.8544922 357.280134,35.234375 356.830915,34.765625 C356.381696,34.296875 355.820173,33.7744141 355.146345,33.1982422 C354.472517,32.6220703 353.808454,32.0751953 353.154157,31.5576172 C352.499861,31.0400391 351.547712,30.234375 350.297712,29.140625 C349.047712,28.046875 347.866071,26.7724609 346.75279,25.3173828 C345.639509,23.8623047 344.872907,22.6171875 344.452986,21.5820312 C344.033064,20.546875 343.920759,19.3164063 344.116071,17.890625 C344.311384,16.4648438 345.043806,15.1220703 346.313337,13.8623047 C347.582868,12.6025391 349.394392,11.5820313 351.747907,10.8007813 C354.101423,10.0195313 356.3524,9.58496094 358.500837,9.49707031 C360.649275,9.40917969 362.153181,9.87304688 363.012556,10.8886719 C364.32115,11.8652344 364.770368,13.2617188 364.360212,15.078125 C363.422712,16.9726562 361.59654,18.90625 358.881696,20.8789062 C358.881696,21.0742188 359.135603,21.09375 359.643415,20.9375 C361.069196,20.4492188 362.338728,19.5800781 363.452009,18.3300781 C364.56529,17.0800781 365.25865,16.1425781 365.532087,15.5175781 C366.215681,14.6386719 366.386579,13.6035156 366.044782,12.4121094 C365.702986,11.2207031 364.897321,10.1904297 363.62779,9.32128906 C362.358259,8.45214844 360.65904,8.02734375 358.530134,8.046875 C356.401228,8.06640625 354.4774,8.33007813 352.75865,8.83789063 C351.0399,9.34570313 349.545759,9.92675781 348.276228,10.5810547 C347.006696,11.2353516 346.000837,11.9042969 345.25865,12.5878906 C344.516462,13.2714844 343.896345,13.9990234 343.398298,14.7705078 C342.900251,15.5419922 342.582868,16.5087891 342.44615,17.6708984 C342.309431,18.8330078 342.441267,20.1855469 342.841657,21.7285156 C343.242048,23.2714844 344.042829,24.7558594 345.244001,26.1816406 C346.445173,27.6074219 347.778181,28.9746094 349.243025,30.2832031 C351.703962,32.3925781 353.495954,33.9208984 354.619001,34.8681641 C355.742048,35.8154297 356.303571,36.7773438 356.303571,37.7539062 C356.303571,38.7304688 355.624861,40.0341797 354.267439,41.6650391 C352.910017,43.2958984 350.878767,44.7851562 348.173689,46.1328125 C345.468611,47.4804688 342.734236,48.2373047 339.970564,48.4033203 C337.206892,48.5693359 334.897321,48.28125 333.041853,47.5390625 C332.69029,46.7578125 332.368025,46.2792969 332.075056,46.1035156 C331.782087,45.8886719 331.611189,45.9033203 331.562361,46.1474609 C331.513532,46.3916016 331.494001,46.7773438 331.503767,47.3046875 C331.513532,47.8320312 331.772321,48.3349609 332.280134,48.8134766 C332.787946,49.2919922 333.481306,49.6044922 334.360212,49.7509766 C335.239118,49.8974609 336.381696,50.0097656 337.787946,50.0878906 Z M367.941964,50.0878906 C369.348214,50.1660156 370.969308,50.0439453 372.805246,49.7216797 C374.641183,49.3994141 376.398996,48.8671875 378.078683,48.125 C379.758371,47.3828125 381.286691,46.5185547 382.663644,45.5322266 C384.040597,44.5458984 385.2613,43.4375 386.325753,42.2070312 C387.390207,40.9765625 388.064035,39.9316406 388.347238,39.0722656 C388.630441,38.2128906 388.586496,37.3974609 388.215402,36.6259766 C387.844308,35.8544922 387.434152,35.234375 386.984933,34.765625 C386.535714,34.296875 385.974191,33.7744141 385.300363,33.1982422 C384.626535,32.6220703 383.962472,32.0751953 383.308175,31.5576172 C382.653878,31.0400391 381.70173,30.234375 380.45173,29.140625 C379.20173,28.046875 378.020089,26.7724609 376.906808,25.3173828 C375.793527,23.8623047 375.026925,22.6171875 374.607003,21.5820312 C374.187082,20.546875 374.074777,19.3164063 374.270089,17.890625 C374.465402,16.4648438 375.197824,15.1220703 376.467355,13.8623047 C377.736886,12.6025391 379.54841,11.5820313 381.901925,10.8007813 C384.255441,10.0195313 386.506417,9.58496094 388.654855,9.49707031 C390.803292,9.40917969 392.307199,9.87304688 393.166574,10.8886719 C394.475167,11.8652344 394.924386,13.2617188 394.51423,15.078125 C393.57673,16.9726562 391.750558,18.90625 389.035714,20.8789062 C389.035714,21.0742188 389.289621,21.09375 389.797433,20.9375 C391.223214,20.4492188 392.492746,19.5800781 393.606027,18.3300781 C394.719308,17.0800781 395.412667,16.1425781 395.686105,15.5175781 C396.369699,14.6386719 396.540597,13.6035156 396.1988,12.4121094 C395.857003,11.2207031 395.051339,10.1904297 393.781808,9.32128906 C392.512277,8.45214844 390.813058,8.02734375 388.684152,8.046875 C386.555246,8.06640625 384.631417,8.33007813 382.912667,8.83789063 C381.193917,9.34570313 379.699777,9.92675781 378.430246,10.5810547 C377.160714,11.2353516 376.154855,11.9042969 375.412667,12.5878906 C374.67048,13.2714844 374.050363,13.9990234 373.552316,14.7705078 C373.054269,15.5419922 372.736886,16.5087891 372.600167,17.6708984 C372.463449,18.8330078 372.595285,20.1855469 372.995675,21.7285156 C373.396066,23.2714844 374.196847,24.7558594 375.398019,26.1816406 C376.599191,27.6074219 377.932199,28.9746094 379.397042,30.2832031 C381.85798,32.3925781 383.649972,33.9208984 384.773019,34.8681641 C385.896066,35.8154297 386.457589,36.7773438 386.457589,37.7539062 C386.457589,38.7304688 385.778878,40.0341797 384.421457,41.6650391 C383.064035,43.2958984 381.032785,44.7851562 378.327707,46.1328125 C375.622628,47.4804688 372.888253,48.2373047 370.124582,48.4033203 C367.36091,48.5693359 365.051339,48.28125 363.195871,47.5390625 C362.844308,46.7578125 362.522042,46.2792969 362.229074,46.1035156 C361.936105,45.8886719 361.765207,45.9033203 361.716378,46.1474609 C361.66755,46.3916016 361.648019,46.7773438 361.657785,47.3046875 C361.66755,47.8320312 361.926339,48.3349609 362.434152,48.8134766 C362.941964,49.2919922 363.635324,49.6044922 364.51423,49.7509766 C365.393136,49.8974609 366.535714,50.0097656 367.941964,50.0878906 Z" id="INDIGODRESS" fill="#000000" fill-rule="nonzero"></path>
    </g>
</svg>