<?xml version="1.0" encoding="UTF-8"?>
<svg width="310px" height="48px" viewBox="0 0 310 48" version="1.1" xmlns="http://www.w3.org/2000/svg" xmlns:xlink="http://www.w3.org/1999/xlink">
    <title>IRISDRESS</title>
    <g id="final-copy" stroke="none" stroke-width="1" fill="none" fill-rule="evenodd">
        <path d="M4.65820312,44.0292969 C5.08789062,44.0878906 5.59082031,43.6386719 6.16699219,42.6816406 C6.74316406,41.7246094 7.56835938,39.8789062 8.64257812,37.1445312 C8.75976562,38.0625 9.31152344,39.0195312 10.2978516,40.015625 C11.2841797,41.0117188 12.4951172,41.3535156 13.9306641,41.0410156 C15.3662109,40.7285156 16.4257812,40.2304688 17.109375,39.546875 C17.7929688,38.8632812 18.0273438,38.4873047 17.8125,38.4189453 C17.5976562,38.3505859 17.2314453,38.5214844 16.7138672,38.9316406 C16.1962891,39.3417969 15.4150391,39.6591797 14.3701172,39.8837891 C13.3251953,40.1083984 12.2900391,39.8056641 11.2646484,38.9755859 C10.2392578,38.1455078 9.70703125,36.7050781 9.66796875,34.6542969 C10.4882812,32.7792969 11.0400391,31.5878906 11.3232422,31.0800781 C11.6064453,30.5722656 12.1044922,29.5517578 12.8173828,28.0185547 C13.5302734,26.4853516 14.3554688,24.5615234 15.2929688,22.2470703 C16.2304688,19.9326172 17.0654297,17.6523438 17.7978516,15.40625 C18.5302734,13.1601562 19.0771484,11.4365234 19.4384766,10.2353516 C19.7998047,9.03417969 20.1220703,7.77929688 20.4052734,6.47070312 C20.6884766,5.16210938 20.8251953,3.89746094 20.8154297,2.67675781 C20.8056641,1.45605469 20.5273438,0.66015625 19.9804688,0.2890625 C19.453125,-0.1015625 18.7890625,0.09375 17.9882812,0.875 C17.1875,1.65625 16.2646484,3.14550781 15.2197266,5.34277344 C14.1748047,7.54003906 13.2861328,9.76171875 12.5537109,12.0078125 C11.8212891,14.2539062 11.1767578,16.3095703 10.6201172,18.1748047 C10.0634766,20.0400391 9.48730469,22.6328125 8.89160156,25.953125 C8.29589844,29.2734375 8.0078125,31.9980469 8.02734375,34.1269531 C6.796875,37.2128906 5.92773438,39.3369141 5.41992188,40.4990234 C4.91210938,41.6611328 4.54101562,42.0175781 4.30664062,41.5683594 C4.07226562,41.1191406 3.86230469,40.6162109 3.67675781,40.0595703 C3.49121094,39.5029297 3.05664063,38.8535156 2.37304688,38.1113281 L2.37304688,38.1113281 L5.94726562,36.3828125 C5.83007812,35.8945312 5.60058594,35.5820312 5.25878906,35.4453125 C4.91699219,35.3085938 4.53125,35.4013672 4.1015625,35.7236328 C3.671875,36.0458984 3.03222656,36.4023438 2.18261719,36.7929688 C1.33300781,37.1835938 0.756835938,37.3789062 0.454101562,37.3789062 C0.151367188,37.3789062 0,37.59375 0,38.0234375 C1.11328125,38.9023438 1.88476562,39.9423828 2.31445312,41.1435547 C2.74414062,42.3447266 3.13476562,43.1113281 3.48632812,43.4433594 C3.83789062,43.7753906 4.22851562,43.9707031 4.65820312,44.0292969 Z M9.55078125,30.7871094 C9.7265625,29.7324219 9.93164062,28.5898437 10.1660156,27.359375 C10.4003906,26.1289062 10.7080078,24.703125 11.0888672,23.0820312 C11.4697266,21.4609375 12.0947266,19.2734375 12.9638672,16.5195312 C13.8330078,13.765625 14.609375,11.4414062 15.2929688,9.546875 C15.9765625,7.6328125 16.7285156,5.97265625 17.5488281,4.56640625 C18.3691406,3.16015625 18.8671875,2.4765625 19.0429688,2.515625 C19.2773438,2.61328125 19.1943359,3.37011719 18.7939453,4.78613281 C18.3935547,6.20214844 17.8662109,8.08691406 17.2119141,10.4404297 C16.5576172,12.7939453 15.8886719,14.8837891 15.2050781,16.7099609 C14.5214844,18.5361328 13.7402344,20.5966797 12.8613281,22.8916016 C11.9824219,25.1865234 11.3427734,26.7587891 10.9423828,27.6083984 C10.5419922,28.4580078 10.078125,29.5175781 9.55078125,30.7871094 Z M26.5505022,47.4863281 C26.9020647,47.3300781 27.1364397,47.1787109 27.2536272,47.0322266 C27.3708147,46.8857422 27.5563616,46.5292969 27.8102679,45.9628906 C28.5719866,42.6621094 29.1432757,39.8496094 29.524135,37.5253906 C29.9049944,35.2011719 30.1686663,33.5947266 30.3151507,32.7060547 C30.461635,31.8173828 30.7594866,29.7519531 31.2087054,26.5097656 C35.2516741,29.4589844 38.1227679,31.7001953 39.8219866,33.2333984 C41.5212054,34.7666016 43.8551897,36.5830078 46.8239397,38.6826172 C49.7926897,40.7822266 52.7614397,42.2617188 55.7301897,43.1210938 C56.9606585,43.21875 57.0387835,42.9355469 55.9645647,42.2714844 C55.1637835,41.9980469 53.9919085,41.4072266 52.4489397,40.4990234 C50.905971,39.5908203 48.9723772,38.2431641 46.6481585,36.4560547 C44.3239397,34.6689453 41.9069475,32.7451172 39.3971819,30.6845703 C36.8874163,28.6240234 34.2458147,26.6855469 31.4723772,24.8691406 C31.609096,23.9902344 31.7458147,23.1894531 31.8825335,22.4667969 C33.2301897,22.1542969 34.968471,21.5732422 37.0973772,20.7236328 C39.2262835,19.8740234 40.8962054,19.0878906 42.1071429,18.3652344 C43.3180804,17.6425781 44.4850725,16.7099609 45.6081194,15.5673828 C46.7311663,14.4248047 47.5368304,13.4335937 48.0251116,12.59375 C48.5133929,11.7539062 48.7917132,10.9042969 48.8600725,10.0449219 C48.9284319,9.18554688 48.8893694,8.4921875 48.742885,7.96484375 C48.5964007,7.4375 48.2692522,6.8125 47.7614397,6.08984375 C47.2536272,5.3671875 46.4186663,4.68359375 45.2565569,4.0390625 C44.0944475,3.39453125 42.5856585,2.93554688 40.7301897,2.66210938 C38.874721,2.38867188 36.8825335,2.23242188 34.7536272,2.19335938 C34.4606585,1.11914063 34.0700335,0.533203125 33.5817522,0.435546875 C33.093471,0.318359375 32.8981585,0.484375 32.9958147,0.93359375 L32.9958147,0.93359375 L32.9958147,1.78320313 L32.8786272,2.48632813 C32.155971,2.70117188 31.374721,2.95019531 30.5348772,3.23339844 C29.6950335,3.51660156 28.6794085,3.99511719 27.4880022,4.66894531 C26.296596,5.34277344 25.5885882,5.9140625 25.3639788,6.3828125 C25.1393694,6.8515625 25.0270647,7.26171875 25.0270647,7.61328125 C25.0270647,7.96484375 25.0954241,8.23339844 25.2321429,8.41894531 C25.3688616,8.60449219 25.5592913,9.00488281 25.8034319,9.62011719 C26.0475725,10.2353516 26.3551897,10.9238281 26.7262835,11.6855469 C27.1169085,11.3339844 27.234096,10.9287109 27.077846,10.4697266 C26.921596,10.0107422 26.711635,9.39550781 26.4479632,8.62402344 C26.1842913,7.85253906 26.3649554,7.21289063 26.9899554,6.70507813 C27.6149554,6.19726563 28.2546038,5.77246094 28.9089007,5.43066406 C29.5631975,5.08886719 30.8473772,4.63476563 32.7614397,4.06835938 C32.1755022,7.79882813 31.7848772,10.2060547 31.5895647,11.2900391 C31.3942522,12.3740234 31.1842913,13.6923828 30.9596819,15.2451172 C30.7350725,16.7978516 30.4665179,18.7265625 30.1540179,21.03125 C28.4743304,21.3632812 27.1413225,21.5830078 26.1549944,21.6904297 C25.1686663,21.7978516 24.2214007,21.8710938 23.3131975,21.9101562 C22.4049944,21.9492188 21.9606585,22.1542969 21.9801897,22.5253906 C21.999721,22.8964844 22.2243304,23.3457031 22.6540179,23.8730469 C23.1618304,23.8730469 23.718471,23.8242188 24.3239397,23.7265625 C25.280971,23.7265625 26.3356585,23.9707031 27.4880022,24.4589844 L27.4880022,24.4589844 L29.421596,25.484375 C28.9137835,29.2734375 28.4352679,32.5253906 27.9860491,35.2402344 C27.5368304,37.9550781 27.1266741,40.25 26.7555804,42.125 C26.3844866,44 26.062221,45.5820312 25.7887835,46.8710938 L25.7887835,46.8710938 L26.2868304,47.4863281 L26.5505022,47.4863281 Z M32.234096,20.4453125 C32.5075335,18.609375 32.72726,17.1152344 32.8932757,15.9628906 C33.0592913,14.8105469 33.2546038,13.4482422 33.4792132,11.8759766 C33.5353655,11.4829102 33.5884661,11.1112061 33.6385149,10.7608643 L33.7795061,9.77392578 C33.8673968,9.15869141 33.9430804,8.62890625 34.0065569,8.18457031 C34.13351,7.29589844 34.3532366,5.86523438 34.6657366,3.89257812 C36.0915179,3.75585938 37.6637835,3.8046875 39.3825335,4.0390625 C41.1012835,4.2734375 42.3854632,4.52734375 43.2350725,4.80078125 C44.0846819,5.07421875 44.9782366,5.50390625 45.9157366,6.08984375 C46.7751116,7.14453125 47.2438616,7.95019531 47.3219866,8.50683594 C47.4001116,9.06347656 47.312221,9.73730469 47.0583147,10.5283203 C46.8044085,11.3193359 46.2721819,12.1933594 45.461635,13.1503906 C44.6510882,14.1074219 43.6696429,15.0205078 42.5172991,15.8896484 C41.3649554,16.7587891 39.8756975,17.5986328 38.0495257,18.4091797 C36.2233538,19.2197266 34.2848772,19.8984375 32.234096,20.4453125 Z M29.7438616,23.7558594 C29.4508929,23.5996094 29.0602679,23.4335938 28.5719866,23.2578125 C29.0016741,23.1601562 29.4313616,23.0527344 29.8610491,22.9355469 L29.8610491,22.9355469 L29.7438616,23.7558594 Z M62.0365513,44.0292969 C62.4662388,44.0878906 62.9691685,43.6386719 63.5453404,42.6816406 C64.1215123,41.7246094 64.9467076,39.8789062 66.0209263,37.1445312 C66.1381138,38.0625 66.6898717,39.0195312 67.6761998,40.015625 C68.6625279,41.0117188 69.8734654,41.3535156 71.3090123,41.0410156 C72.7445592,40.7285156 73.8041295,40.2304688 74.4877232,39.546875 C75.171317,38.8632812 75.405692,38.4873047 75.1908482,38.4189453 C74.9760045,38.3505859 74.6097935,38.5214844 74.0922154,38.9316406 C73.5746373,39.3417969 72.7933873,39.6591797 71.7484654,39.8837891 C70.7035435,40.1083984 69.6683873,39.8056641 68.6429967,38.9755859 C67.617606,38.1455078 67.0853795,36.7050781 67.046317,34.6542969 C67.8666295,32.7792969 68.4183873,31.5878906 68.7015904,31.0800781 C68.9847935,30.5722656 69.4828404,29.5517578 70.195731,28.0185547 C70.9086217,26.4853516 71.733817,24.5615234 72.671317,22.2470703 C73.608817,19.9326172 74.4437779,17.6523438 75.1761998,15.40625 C75.9086217,13.1601562 76.4554967,11.4365234 76.8168248,10.2353516 C77.1781529,9.03417969 77.5004185,7.77929688 77.7836217,6.47070312 C78.0668248,5.16210938 78.2035435,3.89746094 78.1937779,2.67675781 C78.1840123,1.45605469 77.905692,0.66015625 77.358817,0.2890625 C76.8314732,-0.1015625 76.1674107,0.09375 75.3666295,0.875 C74.5658482,1.65625 73.6429967,3.14550781 72.5980748,5.34277344 C71.5531529,7.54003906 70.664481,9.76171875 69.9320592,12.0078125 C69.1996373,14.2539062 68.555106,16.3095703 67.9984654,18.1748047 C67.4418248,20.0400391 66.8656529,22.6328125 66.2699498,25.953125 C65.6742467,29.2734375 65.3861607,31.9980469 65.405692,34.1269531 C64.1752232,37.2128906 63.3060826,39.3369141 62.7982701,40.4990234 C62.2904576,41.6611328 61.9193638,42.0175781 61.6849888,41.5683594 C61.4506138,41.1191406 61.2406529,40.6162109 61.055106,40.0595703 C60.8695592,39.5029297 60.4349888,38.8535156 59.7513951,38.1113281 L59.7513951,38.1113281 L63.3256138,36.3828125 C63.2084263,35.8945312 62.9789342,35.5820312 62.6371373,35.4453125 C62.2953404,35.3085938 61.9095982,35.4013672 61.4799107,35.7236328 C61.0502232,36.0458984 60.4105748,36.4023438 59.5609654,36.7929688 C58.711356,37.1835938 58.1351842,37.3789062 57.8324498,37.3789062 C57.5297154,37.3789062 57.3783482,37.59375 57.3783482,38.0234375 C58.4916295,38.9023438 59.2631138,39.9423828 59.6928013,41.1435547 C60.1224888,42.3447266 60.5131138,43.1113281 60.8646763,43.4433594 C61.2162388,43.7753906 61.6068638,43.9707031 62.0365513,44.0292969 Z M66.9291295,30.7871094 C67.1049107,29.7324219 67.3099888,28.5898437 67.5443638,27.359375 C67.7787388,26.1289062 68.086356,24.703125 68.4672154,23.0820312 C68.8480748,21.4609375 69.4730748,19.2734375 70.3422154,16.5195312 C71.211356,13.765625 71.9877232,11.4414062 72.671317,9.546875 C73.3549107,7.6328125 74.1068638,5.97265625 74.9271763,4.56640625 C75.7474888,3.16015625 76.2455357,2.4765625 76.421317,2.515625 C76.655692,2.61328125 76.5726842,3.37011719 76.1722935,4.78613281 C75.7719029,6.20214844 75.2445592,8.08691406 74.5902623,10.4404297 C73.9359654,12.7939453 73.2670201,14.8837891 72.5834263,16.7099609 C71.8998326,18.5361328 71.1185826,20.5966797 70.2396763,22.8916016 C69.3607701,25.1865234 68.7211217,26.7587891 68.320731,27.6083984 C67.9203404,28.4580078 67.4564732,29.5175781 66.9291295,30.7871094 Z M83.9288505,44.0878906 C85.3351005,44.1660156 86.9561942,44.0439453 88.7921317,43.7216797 C90.6280692,43.3994141 92.3858817,42.8671875 94.0655692,42.125 C95.7452567,41.3828125 97.273577,40.5185547 98.6505301,39.5322266 C100.027483,38.5458984 101.248186,37.4375 102.31264,36.2070312 C103.377093,34.9765625 104.050921,33.9316406 104.334124,33.0722656 C104.617327,32.2128906 104.573382,31.3974609 104.202288,30.6259766 C103.831194,29.8544922 103.421038,29.234375 102.971819,28.765625 C102.5226,28.296875 101.961077,27.7744141 101.287249,27.1982422 C100.613421,26.6220703 99.9493583,26.0751953 99.2950614,25.5576172 C98.6407645,25.0400391 97.6886161,24.234375 96.4386161,23.140625 C95.1886161,22.046875 94.0069755,20.7724609 92.8936942,19.3173828 C91.780413,17.8623047 91.0138114,16.6171875 90.5938895,15.5820312 C90.1739676,14.546875 90.061663,13.3164062 90.2569755,11.890625 C90.452288,10.4648437 91.1847098,9.12207031 92.4542411,7.86230469 C93.7237723,6.60253906 95.5352958,5.58203125 97.8888114,4.80078125 C100.242327,4.01953125 102.493304,3.58496094 104.641741,3.49707031 C106.790179,3.40917969 108.294085,3.87304687 109.15346,4.88867187 C110.462054,5.86523437 110.911272,7.26171875 110.501116,9.078125 C109.563616,10.9726562 107.737444,12.90625 105.0226,14.8789062 C105.0226,15.0742187 105.276507,15.09375 105.784319,14.9375 C107.2101,14.4492187 108.479632,13.5800781 109.592913,12.3300781 C110.706194,11.0800781 111.399554,10.1425781 111.672991,9.51757812 C112.356585,8.63867187 112.527483,7.60351562 112.185686,6.41210937 C111.84389,5.22070312 111.038225,4.19042969 109.768694,3.32128906 C108.499163,2.45214844 106.799944,2.02734375 104.671038,2.046875 C102.542132,2.06640625 100.618304,2.33007812 98.8995536,2.83789062 C97.1808036,3.34570312 95.686663,3.92675781 94.4171317,4.58105469 C93.1476005,5.23535156 92.1417411,5.90429687 91.3995536,6.58789062 C90.6573661,7.27148437 90.0372489,7.99902344 89.539202,8.77050781 C89.0411551,9.54199219 88.7237723,10.5087891 88.5870536,11.6708984 C88.4503348,12.8330078 88.5821708,14.1855469 88.9825614,15.7285156 C89.382952,17.2714844 90.1837333,18.7558594 91.3849051,20.1816406 C92.586077,21.6074219 93.9190848,22.9746094 95.3839286,24.2832031 C97.8448661,26.3925781 99.6368583,27.9208984 100.759905,28.8681641 C101.882952,29.8154297 102.444475,30.7773438 102.444475,31.7539062 C102.444475,32.7304688 101.765765,34.0341797 100.408343,35.6650391 C99.0509208,37.2958984 97.0196708,38.7851562 94.3145926,40.1328125 C91.6095145,41.4804688 88.8751395,42.2373047 86.1114676,42.4033203 C83.3477958,42.5693359 81.0382255,42.28125 79.1827567,41.5390625 C78.8311942,40.7578125 78.5089286,40.2792969 78.2159598,40.1035156 C77.9229911,39.8886719 77.7520926,39.9033203 77.7032645,40.1474609 C77.6544364,40.3916016 77.6349051,40.7773438 77.6446708,41.3046875 C77.6544364,41.8320312 77.9132255,42.3349609 78.421038,42.8134766 C78.9288505,43.2919922 79.6222098,43.6044922 80.5011161,43.7509766 C81.3800223,43.8974609 82.5226005,44.0097656 83.9288505,44.0878906 Z M144.771763,42.7695312 C144.595982,43.7265625 144.718052,44.1367188 145.137974,44 C145.557896,43.8632812 145.885045,43.3847656 146.11942,42.5644531 C148.072545,42.2128906 150.074498,41.6953125 152.125279,41.0117188 C154.17606,40.328125 156.065709,39.6640625 157.794224,39.0195312 C159.52274,38.375 160.826451,37.8378906 161.705357,37.4082031 C162.584263,36.9785156 164.268834,35.9824219 166.759068,34.4199219 C169.249302,32.8574219 171.344029,31.0556641 173.043248,29.0146484 C174.742467,26.9736328 175.719029,24.9423828 175.972935,22.9208984 C176.226842,20.8994141 176.08524,19.0439453 175.548131,17.3544922 C175.011021,15.6650391 174.146763,13.9365234 172.955357,12.1689453 C171.763951,10.4013672 170.26981,8.84863281 168.472935,7.51074219 C166.67606,6.17285156 164.820592,5.08886719 162.906529,4.25878906 C160.992467,3.42871094 159.376256,2.89160156 158.057896,2.64746094 C156.739537,2.40332031 154.80106,2.203125 152.242467,2.046875 C149.703404,1.87109375 147.139927,1.98828125 144.552037,2.3984375 C141.964146,2.80859375 140.059849,3.25292969 138.839146,3.73144531 C137.618443,4.20996094 136.549107,4.83007812 135.631138,5.59179688 C134.71317,6.35351562 134.342076,7.42773438 134.517857,8.81445312 C134.771763,9.84960938 135.352818,10.5087891 136.261021,10.7919922 C137.169224,11.0751953 137.364537,10.7529297 136.846959,9.82519531 C136.329381,8.89746094 136.236607,8.21875 136.568638,7.7890625 C137.467076,6.87109375 138.316685,6.2265625 139.117467,5.85546875 C139.918248,5.484375 141.075474,5.11816406 142.589146,4.75683594 C144.102818,4.39550781 145.885045,4.14160156 147.935826,3.99511719 C149.986607,3.84863281 151.939732,3.86816406 153.795201,4.05371094 C155.65067,4.23925781 157.76981,4.67871094 160.152623,5.37207031 C162.535435,6.06542969 164.810826,7.28613281 166.978795,9.03417969 C169.146763,10.7822266 170.73856,12.5644531 171.754185,14.3808594 C172.76981,16.1972656 173.404576,17.7304688 173.658482,18.9804688 C173.912388,20.2304688 173.975865,21.5439453 173.848912,22.9208984 C173.721959,24.2978516 173.087193,25.6894531 171.944615,27.0957031 C170.802037,28.5019531 169.591099,29.7470703 168.311802,30.8310547 C167.032506,31.9150391 165.640904,32.9208984 164.136998,33.8486328 C162.633092,34.7763672 160.548131,35.8115234 157.882115,36.9541016 C155.216099,38.0966797 151.500279,39.3515625 146.734654,40.71875 C147.476842,37.5546875 148.072545,34.9277344 148.521763,32.8378906 C148.970982,30.7480469 149.405552,28.7021484 149.825474,26.7001953 C150.245396,24.6982422 150.684849,22.5546875 151.143834,20.2695312 C151.602818,17.984375 152.154576,15.5185547 152.799107,12.8720703 C153.443638,10.2255859 153.433873,8.56542969 152.76981,7.89160156 C152.105748,7.21777344 151.661412,7.28613281 151.436802,8.09667969 C151.413159,8.18200041 151.388164,8.27570713 151.361815,8.37779984 L151.278713,8.70923595 C151.060812,9.6007212 150.766829,10.9639186 150.396763,12.7988281 C149.928013,15.1230469 149.469029,17.359375 149.01981,19.5078125 C148.570592,21.65625 148.145787,23.7802734 147.745396,25.8798828 C147.345006,27.9794922 146.886021,30.4355469 146.368443,33.2480469 C145.850865,36.0605469 145.435826,38.6289062 145.123326,40.953125 C142.428013,41.265625 140.14774,41.3046875 138.282506,41.0703125 C136.417271,40.8359375 135.875279,41.0263672 136.656529,41.6416016 C137.437779,42.2568359 138.267857,42.6279297 139.146763,42.7548828 C140.02567,42.8818359 140.875279,42.9306641 141.695592,42.9013672 C142.515904,42.8720703 143.541295,42.828125 144.771763,42.7695312 Z M184.623047,47.4863281 C184.974609,47.3300781 185.208984,47.1787109 185.326172,47.0322266 C185.443359,46.8857422 185.628906,46.5292969 185.882813,45.9628906 C186.644531,42.6621094 187.21582,39.8496094 187.59668,37.5253906 C187.977539,35.2011719 188.241211,33.5947266 188.387695,32.7060547 C188.53418,31.8173828 188.832031,29.7519531 189.28125,26.5097656 C193.324219,29.4589844 196.195313,31.7001953 197.894531,33.2333984 C199.59375,34.7666016 201.927734,36.5830078 204.896484,38.6826172 C207.865234,40.7822266 210.833984,42.2617188 213.802734,43.1210938 C215.033203,43.21875 215.111328,42.9355469 214.037109,42.2714844 C213.236328,41.9980469 212.064453,41.4072266 210.521484,40.4990234 C208.978516,39.5908203 207.044922,38.2431641 204.720703,36.4560547 C202.396484,34.6689453 199.979492,32.7451172 197.469727,30.6845703 C194.959961,28.6240234 192.318359,26.6855469 189.544922,24.8691406 C189.681641,23.9902344 189.818359,23.1894531 189.955078,22.4667969 C191.302734,22.1542969 193.041016,21.5732422 195.169922,20.7236328 C197.298828,19.8740234 198.96875,19.0878906 200.179688,18.3652344 C201.390625,17.6425781 202.557617,16.7099609 203.680664,15.5673828 C204.803711,14.4248047 205.609375,13.4335937 206.097656,12.59375 C206.585938,11.7539062 206.864258,10.9042969 206.932617,10.0449219 C207.000977,9.18554688 206.961914,8.4921875 206.81543,7.96484375 C206.668945,7.4375 206.341797,6.8125 205.833984,6.08984375 C205.326172,5.3671875 204.491211,4.68359375 203.329102,4.0390625 C202.166992,3.39453125 200.658203,2.93554688 198.802734,2.66210938 C196.947266,2.38867188 194.955078,2.23242188 192.826172,2.19335938 C192.533203,1.11914063 192.142578,0.533203125 191.654297,0.435546875 C191.166016,0.318359375 190.970703,0.484375 191.068359,0.93359375 L191.068359,0.93359375 L191.068359,1.78320313 L190.951172,2.48632813 C190.228516,2.70117188 189.447266,2.95019531 188.607422,3.23339844 C187.767578,3.51660156 186.751953,3.99511719 185.560547,4.66894531 C184.369141,5.34277344 183.661133,5.9140625 183.436523,6.3828125 C183.211914,6.8515625 183.099609,7.26171875 183.099609,7.61328125 C183.099609,7.96484375 183.167969,8.23339844 183.304688,8.41894531 C183.441406,8.60449219 183.631836,9.00488281 183.875977,9.62011719 C184.120117,10.2353516 184.427734,10.9238281 184.798828,11.6855469 C185.189453,11.3339844 185.306641,10.9287109 185.150391,10.4697266 C184.994141,10.0107422 184.78418,9.39550781 184.520508,8.62402344 C184.256836,7.85253906 184.4375,7.21289063 185.0625,6.70507813 C185.6875,6.19726563 186.327148,5.77246094 186.981445,5.43066406 C187.635742,5.08886719 188.919922,4.63476563 190.833984,4.06835938 C190.248047,7.79882813 189.857422,10.2060547 189.662109,11.2900391 C189.466797,12.3740234 189.256836,13.6923828 189.032227,15.2451172 C189.014949,15.3645583 188.997411,15.4862241 188.979614,15.6101146 L188.869707,16.3801544 C188.681329,17.7080483 188.466947,19.2584135 188.226563,21.03125 C186.546875,21.3632812 185.213867,21.5830078 184.227539,21.6904297 C183.241211,21.7978516 182.293945,21.8710938 181.385742,21.9101562 C180.477539,21.9492188 180.033203,22.1542969 180.052734,22.5253906 C180.072266,22.8964844 180.296875,23.3457031 180.726563,23.8730469 C181.234375,23.8730469 181.791016,23.8242188 182.396484,23.7265625 C183.353516,23.7265625 184.408203,23.9707031 185.560547,24.4589844 L185.560547,24.4589844 L187.494141,25.484375 C186.986328,29.2734375 186.507813,32.5253906 186.058594,35.2402344 C185.609375,37.9550781 185.199219,40.25 184.828125,42.125 C184.457031,44 184.134766,45.5820312 183.861328,46.8710938 L183.861328,46.8710938 L184.359375,47.4863281 L184.623047,47.4863281 Z M190.306641,20.4453125 C190.580078,18.609375 190.799805,17.1152344 190.96582,15.9628906 C191.039605,15.4507378 191.119177,14.8971113 191.204536,14.302011 L191.336914,13.3782552 C191.405273,12.9008247 191.476888,12.4000651 191.551758,11.8759766 C191.60791,11.4829102 191.661011,11.1112061 191.71106,10.7608643 L191.852051,9.77392578 C191.939941,9.15869141 192.015625,8.62890625 192.079102,8.18457031 C192.206055,7.29589844 192.425781,5.86523438 192.738281,3.89257812 C194.164063,3.75585938 195.736328,3.8046875 197.455078,4.0390625 C199.173828,4.2734375 200.458008,4.52734375 201.307617,4.80078125 C202.157227,5.07421875 203.050781,5.50390625 203.988281,6.08984375 C204.847656,7.14453125 205.316406,7.95019531 205.394531,8.50683594 C205.472656,9.06347656 205.384766,9.73730469 205.130859,10.5283203 C204.876953,11.3193359 204.344727,12.1933594 203.53418,13.1503906 C202.723633,14.1074219 201.742188,15.0205078 200.589844,15.8896484 C199.4375,16.7587891 197.948242,17.5986328 196.12207,18.4091797 C194.295898,19.2197266 192.357422,19.8984375 190.306641,20.4453125 Z M187.816406,23.7558594 C187.523438,23.5996094 187.132813,23.4335938 186.644531,23.2578125 C187.074219,23.1601562 187.503906,23.0527344 187.933594,22.9355469 L187.933594,22.9355469 L187.816406,23.7558594 Z M222.59933,43.9121094 C224.962612,44.0097656 227.648159,44.0097656 230.655971,43.9121094 C234.757534,43.4824219 238.624721,42.4863281 242.257534,40.9238281 C242.921596,40.4941406 242.560268,40.3476562 241.173549,40.484375 C238.868862,40.7773438 236.866909,41.0996094 235.16769,41.4511719 C233.468471,41.8027344 230.607143,42.125 226.583705,42.4179688 C223.517299,42.3789062 221.608119,42.3007812 220.856166,42.1835938 C220.104213,42.0664062 219.415737,41.9199219 218.790737,41.7441406 C217.91183,41.1386719 217.589565,40.3574219 217.82394,39.4003906 L217.82394,39.4003906 L218.204799,38.4921875 C218.771205,37.6132812 219.235073,36.9394531 219.596401,36.4707031 C219.957729,36.0019531 220.655971,35.1914062 221.691127,34.0390625 C222.784877,32.9648438 224.00558,31.8417969 225.353237,30.6699219 C226.700893,29.7128906 227.765346,28.9121094 228.546596,28.2675781 C229.327846,27.6230469 230.196987,26.9882812 231.154018,26.3632812 C232.501674,25.5429688 233.751674,24.7128906 234.904018,23.8730469 C236.154018,22.9746094 237.570034,22.0859375 239.152065,21.2070312 C239.933315,20.7773438 240.402065,20.2988281 240.558315,19.7714844 C240.48019,19.0292969 240.118862,18.5800781 239.47433,18.4238281 C238.84933,18.3847656 238.263393,18.4042969 237.716518,18.4824219 C236.622768,18.5605469 235.431362,18.6875 234.142299,18.8632812 L234.142299,18.8632812 L231.50558,18.9804688 C229.571987,18.9609375 228.195034,18.9023438 227.374721,18.8046875 C226.554409,18.7070312 225.655971,18.5117188 224.679409,18.21875 C223.800502,17.6914062 223.341518,17.0810547 223.302455,16.3876953 C223.263393,15.6943359 223.463588,14.8984375 223.903041,14 C224.342494,13.1015625 225.128627,11.9833984 226.26144,10.6455078 C227.394252,9.30761719 228.712612,8.23828125 230.216518,7.4375 C232.28683,6.265625 233.961635,5.46484375 235.240932,5.03515625 C236.520229,4.60546875 237.701869,4.28808594 238.785854,4.08300781 C239.869838,3.87792969 240.958705,3.78515625 242.052455,3.8046875 C243.517299,3.765625 244.396205,4.2734375 244.689174,5.328125 C244.923549,6.3046875 245.245815,6.79296875 245.655971,6.79296875 C245.812221,6.734375 245.978237,6.49023438 246.154018,6.06054688 L246.154018,6.06054688 L246.154018,4.859375 C246.056362,4.25390625 245.865932,3.78027344 245.582729,3.43847656 C245.299526,3.09667969 244.94308,2.81835938 244.513393,2.60351562 L244.513393,2.60351562 L242.931362,2.046875 L241.173549,2.046875 C240.09933,2.1640625 239.313198,2.25195312 238.815151,2.31054688 C238.317104,2.36914062 237.28683,2.61328125 235.72433,3.04296875 C234.142299,3.53125 232.657924,4.14648438 231.271205,4.88867188 C228.946987,6.02148438 226.896205,7.34960938 225.118862,8.87304688 L225.118862,8.87304688 L223.595424,10.8359375 C222.638393,12.4179688 222.052455,13.8535156 221.837612,15.1425781 L221.837612,15.1425781 L221.749721,16.34375 C221.925502,17.8476562 222.570034,18.8535156 223.683315,19.3613281 C224.69894,19.8300781 226.027065,20.1132812 227.66769,20.2109375 C229.269252,20.25 230.665737,20.2597656 231.857143,20.2402344 L231.857143,20.2402344 L233.84933,20.2402344 C235.353237,20.1425781 236.486049,20.0351562 237.247768,19.9179688 L237.247768,19.9179688 L238.214565,19.7714844 C237.784877,20.0449219 237.238002,20.4160156 236.57394,20.8847656 C235.773159,21.4316406 234.972377,21.9394531 234.171596,22.4082031 C232.374721,23.4824219 231.237026,24.1708984 230.75851,24.4736328 C230.279994,24.7763672 229.845424,25.0742188 229.454799,25.3671875 C229.064174,25.6601562 228.41476,26.1289062 227.506557,26.7734375 C226.598354,27.4179688 225.406948,28.3261719 223.932338,29.4980469 C222.457729,30.6699219 221.427455,31.5634766 220.841518,32.1787109 C220.25558,32.7939453 219.654994,33.4628906 219.03976,34.1855469 C218.424526,34.9082031 217.726284,35.875 216.945034,37.0859375 C216.57394,37.7109375 216.280971,38.5605469 216.066127,39.6347656 C216.066127,41.0214844 216.495815,42.0957031 217.35519,42.8574219 C218.488002,43.4628906 220.236049,43.8144531 222.59933,43.9121094 Z M250.790458,44.0878906 C252.196708,44.1660156 253.817801,44.0439453 255.653739,43.7216797 C257.489676,43.3994141 259.247489,42.8671875 260.927176,42.125 C262.606864,41.3828125 264.135184,40.5185547 265.512137,39.5322266 C266.88909,38.5458984 268.109794,37.4375 269.174247,36.2070312 C270.2387,34.9765625 270.912528,33.9316406 271.195731,33.0722656 C271.478934,32.2128906 271.434989,31.3974609 271.063895,30.6259766 C270.692801,29.8544922 270.282645,29.234375 269.833426,28.765625 C269.384208,28.296875 268.822684,27.7744141 268.148856,27.1982422 C267.475028,26.6220703 266.810965,26.0751953 266.156669,25.5576172 C265.502372,25.0400391 264.550223,24.234375 263.300223,23.140625 C262.050223,22.046875 260.868583,20.7724609 259.755301,19.3173828 C258.64202,17.8623047 257.875419,16.6171875 257.455497,15.5820312 C257.035575,14.546875 256.92327,13.3164062 257.118583,11.890625 C257.313895,10.4648437 258.046317,9.12207031 259.315848,7.86230469 C260.585379,6.60253906 262.396903,5.58203125 264.750419,4.80078125 C267.103934,4.01953125 269.354911,3.58496094 271.503348,3.49707031 C273.651786,3.40917969 275.155692,3.87304687 276.015067,4.88867187 C277.323661,5.86523437 277.772879,7.26171875 277.362723,9.078125 C276.425223,10.9726562 274.599051,12.90625 271.884208,14.8789062 C271.884208,15.0742187 272.138114,15.09375 272.645926,14.9375 C274.071708,14.4492187 275.341239,13.5800781 276.45452,12.3300781 C277.567801,11.0800781 278.261161,10.1425781 278.534598,9.51757812 C279.218192,8.63867187 279.38909,7.60351562 279.047294,6.41210937 C278.705497,5.22070312 277.899833,4.19042969 276.630301,3.32128906 C275.36077,2.45214844 273.661551,2.02734375 271.532645,2.046875 C269.403739,2.06640625 267.479911,2.33007812 265.761161,2.83789062 C264.042411,3.34570312 262.54827,3.92675781 261.278739,4.58105469 C260.009208,5.23535156 259.003348,5.90429687 258.261161,6.58789062 C257.518973,7.27148437 256.898856,7.99902344 256.400809,8.77050781 C255.902762,9.54199219 255.585379,10.5087891 255.448661,11.6708984 C255.311942,12.8330078 255.443778,14.1855469 255.844169,15.7285156 C256.244559,17.2714844 257.04534,18.7558594 258.246512,20.1816406 C259.447684,21.6074219 260.780692,22.9746094 262.245536,24.2832031 C264.706473,26.3925781 266.498465,27.9208984 267.621512,28.8681641 C268.744559,29.8154297 269.306083,30.7773438 269.306083,31.7539062 C269.306083,32.7304688 268.627372,34.0341797 267.26995,35.6650391 C265.912528,37.2958984 263.881278,38.7851562 261.1762,40.1328125 C258.471122,41.4804688 255.736747,42.2373047 252.973075,42.4033203 C250.209403,42.5693359 247.899833,42.28125 246.044364,41.5390625 C245.692801,40.7578125 245.370536,40.2792969 245.077567,40.1035156 C244.784598,39.8886719 244.6137,39.9033203 244.564872,40.1474609 C244.516044,40.3916016 244.496512,40.7773438 244.506278,41.3046875 C244.516044,41.8320312 244.774833,42.3349609 245.282645,42.8134766 C245.790458,43.2919922 246.483817,43.6044922 247.362723,43.7509766 C248.241629,43.8974609 249.384208,44.0097656 250.790458,44.0878906 Z M280.944475,44.0878906 C282.350725,44.1660156 283.971819,44.0439453 285.807757,43.7216797 C287.643694,43.3994141 289.401507,42.8671875 291.081194,42.125 C292.760882,41.3828125 294.289202,40.5185547 295.666155,39.5322266 C297.043108,38.5458984 298.263811,37.4375 299.328265,36.2070312 C300.392718,34.9765625 301.066546,33.9316406 301.349749,33.0722656 C301.632952,32.2128906 301.589007,31.3974609 301.217913,30.6259766 C300.846819,29.8544922 300.436663,29.234375 299.987444,28.765625 C299.538225,28.296875 298.976702,27.7744141 298.302874,27.1982422 C297.629046,26.6220703 296.964983,26.0751953 296.310686,25.5576172 C295.65639,25.0400391 294.704241,24.234375 293.454241,23.140625 C292.204241,22.046875 291.0226,20.7724609 289.909319,19.3173828 C288.796038,17.8623047 288.029436,16.6171875 287.609515,15.5820312 C287.189593,14.546875 287.077288,13.3164062 287.2726,11.890625 C287.467913,10.4648437 288.200335,9.12207031 289.469866,7.86230469 C290.739397,6.60253906 292.550921,5.58203125 294.904436,4.80078125 C297.257952,4.01953125 299.508929,3.58496094 301.657366,3.49707031 C303.805804,3.40917969 305.30971,3.87304687 306.169085,4.88867187 C307.477679,5.86523437 307.926897,7.26171875 307.516741,9.078125 C306.579241,10.9726562 304.753069,12.90625 302.038225,14.8789062 C302.038225,15.0742187 302.292132,15.09375 302.799944,14.9375 C304.225725,14.4492187 305.495257,13.5800781 306.608538,12.3300781 C307.721819,11.0800781 308.415179,10.1425781 308.688616,9.51757812 C309.37221,8.63867187 309.543108,7.60351562 309.201311,6.41210937 C308.859515,5.22070312 308.05385,4.19042969 306.784319,3.32128906 C305.514788,2.45214844 303.815569,2.02734375 301.686663,2.046875 C299.557757,2.06640625 297.633929,2.33007812 295.915179,2.83789062 C294.196429,3.34570312 292.702288,3.92675781 291.432757,4.58105469 C290.163225,5.23535156 289.157366,5.90429687 288.415179,6.58789062 C287.672991,7.27148437 287.052874,7.99902344 286.554827,8.77050781 C286.05678,9.54199219 285.739397,10.5087891 285.602679,11.6708984 C285.46596,12.8330078 285.597796,14.1855469 285.998186,15.7285156 C286.398577,17.2714844 287.199358,18.7558594 288.40053,20.1816406 C289.601702,21.6074219 290.93471,22.9746094 292.399554,24.2832031 C294.860491,26.3925781 296.652483,27.9208984 297.77553,28.8681641 C298.898577,29.8154297 299.4601,30.7773438 299.4601,31.7539062 C299.4601,32.7304688 298.78139,34.0341797 297.423968,35.6650391 C296.066546,37.2958984 294.035296,38.7851562 291.330218,40.1328125 C288.62514,41.4804688 285.890765,42.2373047 283.127093,42.4033203 C280.363421,42.5693359 278.05385,42.28125 276.198382,41.5390625 C275.846819,40.7578125 275.524554,40.2792969 275.231585,40.1035156 C274.938616,39.8886719 274.767718,39.9033203 274.71889,40.1474609 C274.670061,40.3916016 274.65053,40.7773438 274.660296,41.3046875 C274.670061,41.8320312 274.92885,42.3349609 275.436663,42.8134766 C275.944475,43.2919922 276.637835,43.6044922 277.516741,43.7509766 C278.395647,43.8974609 279.538225,44.0097656 280.944475,44.0878906 Z" id="IRISDRESS" fill="#000000" fill-rule="nonzero"></path>
    </g>
</svg>