<?xml version="1.0" encoding="UTF-8"?>
<svg width="278px" height="49px" viewBox="0 0 278 49" version="1.1" xmlns="http://www.w3.org/2000/svg" xmlns:xlink="http://www.w3.org/1999/xlink">
    <title>IVYDRESS</title>
    <g id="final-copy" stroke="none" stroke-width="1" fill="none" fill-rule="evenodd">
        <path d="M4.65820312,45.0292969 C5.08789062,45.0878906 5.59082031,44.6386719 6.16699219,43.6816406 C6.74316406,42.7246094 7.56835938,40.8789062 8.64257812,38.1445312 C8.75976562,39.0625 9.31152344,40.0195312 10.2978516,41.015625 C11.2841797,42.0117188 12.4951172,42.3535156 13.9306641,42.0410156 C15.3662109,41.7285156 16.4257812,41.2304688 17.109375,40.546875 C17.7929688,39.8632812 18.0273438,39.4873047 17.8125,39.4189453 C17.5976562,39.3505859 17.2314453,39.5214844 16.7138672,39.9316406 C16.1962891,40.3417969 15.4150391,40.6591797 14.3701172,40.8837891 C13.3251953,41.1083984 12.2900391,40.8056641 11.2646484,39.9755859 C10.2392578,39.1455078 9.70703125,37.7050781 9.66796875,35.6542969 C10.4882812,33.7792969 11.0400391,32.5878906 11.3232422,32.0800781 C11.6064453,31.5722656 12.1044922,30.5517578 12.8173828,29.0185547 C13.5302734,27.4853516 14.3554688,25.5615234 15.2929688,23.2470703 C16.2304688,20.9326172 17.0654297,18.6523438 17.7978516,16.40625 C18.5302734,14.1601562 19.0771484,12.4365234 19.4384766,11.2353516 C19.7998047,10.0341797 20.1220703,8.77929688 20.4052734,7.47070312 C20.6884766,6.16210938 20.8251953,4.89746094 20.8154297,3.67675781 C20.8056641,2.45605469 20.5273438,1.66015625 19.9804688,1.2890625 C19.453125,0.8984375 18.7890625,1.09375 17.9882812,1.875 C17.1875,2.65625 16.2646484,4.14550781 15.2197266,6.34277344 C14.1748047,8.54003906 13.2861328,10.7617188 12.5537109,13.0078125 C11.8212891,15.2539062 11.1767578,17.3095703 10.6201172,19.1748047 C10.0634766,21.0400391 9.48730469,23.6328125 8.89160156,26.953125 C8.29589844,30.2734375 8.0078125,32.9980469 8.02734375,35.1269531 C6.796875,38.2128906 5.92773438,40.3369141 5.41992188,41.4990234 C4.91210938,42.6611328 4.54101562,43.0175781 4.30664062,42.5683594 C4.07226562,42.1191406 3.86230469,41.6162109 3.67675781,41.0595703 C3.49121094,40.5029297 3.05664063,39.8535156 2.37304688,39.1113281 L2.37304688,39.1113281 L5.94726562,37.3828125 C5.83007812,36.8945312 5.60058594,36.5820312 5.25878906,36.4453125 C4.91699219,36.3085938 4.53125,36.4013672 4.1015625,36.7236328 C3.671875,37.0458984 3.03222656,37.4023438 2.18261719,37.7929688 C1.33300781,38.1835938 0.756835938,38.3789062 0.454101562,38.3789062 C0.151367188,38.3789062 0,38.59375 0,39.0234375 C1.11328125,39.9023438 1.88476562,40.9423828 2.31445312,42.1435547 C2.74414062,43.3447266 3.13476562,44.1113281 3.48632812,44.4433594 C3.83789062,44.7753906 4.22851562,44.9707031 4.65820312,45.0292969 Z M9.55078125,31.7871094 C9.7265625,30.7324219 9.93164062,29.5898437 10.1660156,28.359375 C10.4003906,27.1289062 10.7080078,25.703125 11.0888672,24.0820312 C11.4697266,22.4609375 12.0947266,20.2734375 12.9638672,17.5195312 C13.8330078,14.765625 14.609375,12.4414062 15.2929688,10.546875 C15.9765625,8.6328125 16.7285156,6.97265625 17.5488281,5.56640625 C18.3691406,4.16015625 18.8671875,3.4765625 19.0429688,3.515625 C19.2773438,3.61328125 19.1943359,4.37011719 18.7939453,5.78613281 C18.3935547,7.20214844 17.8662109,9.08691406 17.2119141,11.4404297 C16.5576172,13.7939453 15.8886719,15.8837891 15.2050781,17.7099609 C14.5214844,19.5361328 13.7402344,21.5966797 12.8613281,23.8916016 C11.9824219,26.1865234 11.3427734,27.7587891 10.9423828,28.6083984 C10.5419922,29.4580078 10.078125,30.5175781 9.55078125,31.7871094 Z M29.4801897,44.9414062 C30.1442522,44.84375 30.5837054,44.6630859 30.7985491,44.3994141 C31.0133929,44.1357422 31.296596,43.7792969 31.6481585,43.3300781 L31.6481585,43.3300781 L32.8493304,41.4550781 C38.3962054,31.1425781 41.9020647,24.5117187 43.3669085,21.5625 C44.8317522,18.6132812 46.5016741,15.2929688 48.3766741,11.6015625 C50.2516741,7.91015625 51.6139788,5.36132812 52.4635882,3.95507812 C53.3131975,2.54882812 54.030971,1.22070312 54.6169085,-0.029296875 C54.0505022,0.107421875 53.0592913,1.04980469 51.6432757,2.79785156 C50.22726,4.54589844 49.0212054,6.37695313 48.0251116,8.29101562 C47.0290179,10.2050781 45.6520647,12.8320313 43.8942522,16.171875 C42.1364397,19.5117188 40.0661272,23.5009766 37.6833147,28.1396484 C35.3005022,32.7783203 32.9958147,37.0703125 30.7692522,41.015625 L30.7692522,41.015625 L30.7692522,40.9277344 C31.2575335,38.6230469 31.5797991,36.8847656 31.7360491,35.7128906 C31.8922991,34.5410156 31.9850725,32.6220703 32.0143694,29.9560547 C32.0436663,27.2900391 31.9167132,24.6289062 31.63351,21.9726562 C31.3503069,19.3164062 31.062221,17.1435547 30.7692522,15.4541016 C30.4762835,13.7646484 30.124721,12.1289062 29.7145647,10.546875 C29.3044085,8.96484375 28.8356585,7.75390625 28.3083147,6.9140625 C27.780971,6.07421875 27.1364397,5.65429688 26.374721,5.65429688 L26.374721,5.65429688 L26.2868304,5.65429688 C25.5446429,5.75195313 25.5739397,6.2109375 26.374721,7.03125 C27.1950335,8.0859375 27.780971,9.47265625 28.1325335,11.1914062 C28.484096,12.9101562 28.8112444,14.7949219 29.1139788,16.8457031 C29.4167132,18.8964844 29.6413225,21.2207031 29.7878069,23.8183594 C29.9342913,26.4160156 29.9977679,28.6474609 29.9782366,30.5126953 C29.9587054,32.3779297 29.8268694,34.4287109 29.5827288,36.6650391 C29.3385882,38.9013672 28.9626116,41.2890625 28.4547991,43.828125 C28.7672991,44.4726562 29.109096,44.84375 29.4801897,44.9414062 Z M53.2328404,47.6074219 C52.8715123,48.5253906 53.0375279,48.7207031 53.7308873,48.1933594 C54.4242467,47.6660156 55.0980748,46.8164062 55.7523717,45.6445312 C56.4066685,44.4726562 57.0511998,43.3056641 57.6859654,42.1435547 C58.320731,40.9814453 59.4242467,38.9160156 60.9965123,35.9472656 C62.5687779,32.9785156 64.5316685,29.3847656 66.8851842,25.1660156 C69.2386998,20.9472656 71.3724888,17.0361328 73.2865513,13.4326172 C75.2006138,9.82910156 76.6361607,7.10449219 77.593192,5.25878906 C78.5502232,3.41308594 78.9506138,2.12890625 78.7943638,1.40625 C78.6381138,0.68359375 78.3451451,0.234375 77.9154576,0.05859375 C77.5053013,-0.1171875 76.968192,0.161132813 76.3041295,0.893554688 C75.640067,1.62597656 75.0638951,2.40722656 74.5756138,3.23730469 C74.0873326,4.06738281 73.6576451,5.06347656 73.2865513,6.22558594 C72.9154576,7.38769531 72.617606,8.39355469 72.3929967,9.24316406 C72.1683873,10.0927734 71.5824498,10.9375 70.6351842,11.7773438 C69.6879185,12.6171875 68.4965123,13.5400391 67.0609654,14.5458984 C65.6254185,15.5517578 64.2826451,16.3134766 63.0326451,16.8310547 C61.7826451,17.3486328 60.9232701,17.4169922 60.4545201,17.0361328 C59.9857701,16.6552734 59.5365513,15.7226562 59.1068638,14.2382813 C58.6967076,12.3828125 58.4476842,11.1474609 58.3597935,10.5322266 C58.2719029,9.91699219 58.1205357,9.32128906 57.905692,8.74511719 C57.6908482,8.16894531 57.3197545,7.76855469 56.7924107,7.54394531 C56.265067,7.31933594 55.9037388,7.49023438 55.7084263,8.05664062 C56.0404576,8.38867188 56.343192,9.34570312 56.6166295,10.9277344 C57.280692,14.5410156 57.9935826,16.8652344 58.7553013,17.9003906 C59.5170201,18.9355469 60.4349888,19.375 61.5092076,19.21875 C62.5834263,19.0625 64.1605748,18.3886719 66.2406529,17.1972656 C68.320731,16.0058594 70.0053013,14.6875 71.2943638,13.2421875 C61.9615513,30.309375 56.5272076,40.3699062 54.9913326,43.4237812 L54.8478468,43.7116802 C54.7179532,43.9751499 54.6288365,44.165332 54.5804967,44.2822266 C54.0433873,45.5810547 53.5941685,46.6894531 53.2328404,47.6074219 Z M74.5756138,7.5 C75.1810826,5.64453125 75.9232701,4.07226562 76.8021763,2.78320312 C76.8607701,3.21289062 76.1185826,4.78515625 74.5756138,7.5 Z M113.152902,43.7695312 C112.977121,44.7265625 113.099191,45.1367188 113.519113,45 C113.939035,44.8632812 114.266183,44.3847656 114.500558,43.5644531 C116.453683,43.2128906 118.455636,42.6953125 120.506417,42.0117188 C122.557199,41.328125 124.446847,40.6640625 126.175363,40.0195312 C127.903878,39.375 129.207589,38.8378906 130.086496,38.4082031 C130.965402,37.9785156 132.649972,36.9824219 135.140206,35.4199219 C137.630441,33.8574219 139.725167,32.0556641 141.424386,30.0146484 C143.123605,27.9736328 144.100167,25.9423828 144.354074,23.9208984 C144.60798,21.8994141 144.466378,20.0439453 143.929269,18.3544922 C143.39216,16.6650391 142.527902,14.9365234 141.336496,13.1689453 C140.145089,11.4013672 138.650949,9.84863281 136.854074,8.51074219 C135.057199,7.17285156 133.20173,6.08886719 131.287667,5.25878906 C129.373605,4.42871094 127.757394,3.89160156 126.439035,3.64746094 C125.120675,3.40332031 123.182199,3.203125 120.623605,3.046875 C118.084542,2.87109375 115.521066,2.98828125 112.933175,3.3984375 C110.345285,3.80859375 108.440988,4.25292969 107.220285,4.73144531 C105.999581,5.20996094 104.930246,5.83007812 104.012277,6.59179688 C103.094308,7.35351562 102.723214,8.42773438 102.898996,9.81445312 C103.152902,10.8496094 103.733956,11.5087891 104.64216,11.7919922 C105.550363,12.0751953 105.745675,11.7529297 105.228097,10.8251953 C104.710519,9.89746094 104.617746,9.21875 104.949777,8.7890625 C105.848214,7.87109375 106.697824,7.2265625 107.498605,6.85546875 C108.299386,6.484375 109.456613,6.11816406 110.970285,5.75683594 C112.483956,5.39550781 114.266183,5.14160156 116.316964,4.99511719 C118.367746,4.84863281 120.320871,4.86816406 122.176339,5.05371094 C124.031808,5.23925781 126.150949,5.67871094 128.533761,6.37207031 C130.916574,7.06542969 133.191964,8.28613281 135.359933,10.0341797 C137.527902,11.7822266 139.119699,13.5644531 140.135324,15.3808594 C141.150949,17.1972656 141.785714,18.7304688 142.039621,19.9804688 C142.293527,21.2304688 142.357003,22.5439453 142.23005,23.9208984 C142.103097,25.2978516 141.468331,26.6894531 140.325753,28.0957031 C139.183175,29.5019531 137.972238,30.7470703 136.692941,31.8310547 C135.413644,32.9150391 134.022042,33.9208984 132.518136,34.8486328 C131.01423,35.7763672 128.929269,36.8115234 126.263253,37.9541016 C123.597238,39.0966797 119.881417,40.3515625 115.115792,41.71875 C115.85798,38.5546875 116.453683,35.9277344 116.902902,33.8378906 C117.352121,31.7480469 117.786691,29.7021484 118.206613,27.7001953 C118.626535,25.6982422 119.065988,23.5546875 119.524972,21.2695312 C119.983956,18.984375 120.535714,16.5185547 121.180246,13.8720703 C121.824777,11.2255859 121.815011,9.56542969 121.150949,8.89160156 C120.486886,8.21777344 120.04255,8.28613281 119.817941,9.09667969 C119.794298,9.18200041 119.769302,9.27570713 119.742954,9.37779984 L119.659851,9.70923595 C119.441951,10.6007212 119.147968,11.9639186 118.777902,13.7988281 C118.309152,16.1230469 117.850167,18.359375 117.400949,20.5078125 C116.95173,22.65625 116.526925,24.7802734 116.126535,26.8798828 C115.726144,28.9794922 115.26716,31.4355469 114.749581,34.2480469 C114.232003,37.0605469 113.816964,39.6289062 113.504464,41.953125 C110.809152,42.265625 108.528878,42.3046875 106.663644,42.0703125 C104.79841,41.8359375 104.256417,42.0263672 105.037667,42.6416016 C105.818917,43.2568359 106.648996,43.6279297 107.527902,43.7548828 C108.406808,43.8818359 109.256417,43.9306641 110.07673,43.9013672 C110.897042,43.8720703 111.922433,43.828125 113.152902,43.7695312 Z M153.004185,48.4863281 C153.355748,48.3300781 153.590123,48.1787109 153.70731,48.0322266 C153.824498,47.8857422 154.010045,47.5292969 154.263951,46.9628906 C155.02567,43.6621094 155.596959,40.8496094 155.977818,38.5253906 C156.358677,36.2011719 156.622349,34.5947266 156.768834,33.7060547 C156.915318,32.8173828 157.21317,30.7519531 157.662388,27.5097656 C161.705357,30.4589844 164.576451,32.7001953 166.27567,34.2333984 C167.974888,35.7666016 170.308873,37.5830078 173.277623,39.6826172 C176.246373,41.7822266 179.215123,43.2617188 182.183873,44.1210938 C183.414342,44.21875 183.492467,43.9355469 182.418248,43.2714844 C181.617467,42.9980469 180.445592,42.4072266 178.902623,41.4990234 C177.359654,40.5908203 175.42606,39.2431641 173.101842,37.4560547 C170.777623,35.6689453 168.360631,33.7451172 165.850865,31.6845703 C163.341099,29.6240234 160.699498,27.6855469 157.92606,25.8691406 C158.062779,24.9902344 158.199498,24.1894531 158.336217,23.4667969 C159.683873,23.1542969 161.422154,22.5732422 163.55106,21.7236328 C165.679967,20.8740234 167.349888,20.0878906 168.560826,19.3652344 C169.771763,18.6425781 170.938756,17.7099609 172.061802,16.5673828 C173.184849,15.4248047 173.990513,14.4335937 174.478795,13.59375 C174.967076,12.7539062 175.245396,11.9042969 175.313756,11.0449219 C175.382115,10.1855469 175.343052,9.4921875 175.196568,8.96484375 C175.050084,8.4375 174.722935,7.8125 174.215123,7.08984375 C173.70731,6.3671875 172.872349,5.68359375 171.71024,5.0390625 C170.548131,4.39453125 169.039342,3.93554688 167.183873,3.66210938 C165.328404,3.38867188 163.336217,3.23242188 161.20731,3.19335938 C160.914342,2.11914063 160.523717,1.53320313 160.035435,1.43554688 C159.547154,1.31835938 159.351842,1.484375 159.449498,1.93359375 L159.449498,1.93359375 L159.449498,2.78320313 L159.33231,3.48632813 C158.609654,3.70117188 157.828404,3.95019531 156.98856,4.23339844 C156.148717,4.51660156 155.133092,4.99511719 153.941685,5.66894531 C152.750279,6.34277344 152.042271,6.9140625 151.817662,7.3828125 C151.593052,7.8515625 151.480748,8.26171875 151.480748,8.61328125 C151.480748,8.96484375 151.549107,9.23339844 151.685826,9.41894531 C151.822545,9.60449219 152.012974,10.0048828 152.257115,10.6201172 C152.501256,11.2353516 152.808873,11.9238281 153.179967,12.6855469 C153.570592,12.3339844 153.687779,11.9287109 153.531529,11.4697266 C153.375279,11.0107422 153.165318,10.3955078 152.901646,9.62402344 C152.637974,8.85253906 152.818638,8.21289062 153.443638,7.70507813 C154.068638,7.19726563 154.708287,6.77246094 155.362584,6.43066406 C156.016881,6.08886719 157.30106,5.63476563 159.215123,5.06835938 C158.629185,8.79882812 158.23856,11.2060547 158.043248,12.2900391 C157.847935,13.3740234 157.637974,14.6923828 157.413365,16.2451172 C157.396087,16.3645583 157.37855,16.4862241 157.360752,16.6101146 L157.250845,17.3801544 C157.062467,18.7080483 156.848086,20.2584135 156.607701,22.03125 C154.928013,22.3632812 153.595006,22.5830078 152.608677,22.6904297 C151.622349,22.7978516 150.675084,22.8710938 149.766881,22.9101562 C148.858677,22.9492188 148.414342,23.1542969 148.433873,23.5253906 C148.453404,23.8964844 148.678013,24.3457031 149.107701,24.8730469 C149.615513,24.8730469 150.172154,24.8242188 150.777623,24.7265625 C151.734654,24.7265625 152.789342,24.9707031 153.941685,25.4589844 L153.941685,25.4589844 L155.875279,26.484375 C155.367467,30.2734375 154.888951,33.5253906 154.439732,36.2402344 C153.990513,38.9550781 153.580357,41.25 153.209263,43.125 C152.83817,45 152.515904,46.5820312 152.242467,47.8710938 L152.242467,47.8710938 L152.740513,48.4863281 L153.004185,48.4863281 Z M158.687779,21.4453125 C158.961217,19.609375 159.180943,18.1152344 159.346959,16.9628906 C159.512974,15.8105469 159.708287,14.4482422 159.932896,12.8759766 C159.989049,12.4829102 160.042149,12.1112061 160.092198,11.7608643 L160.233189,10.7739258 C160.32108,10.1586914 160.396763,9.62890625 160.46024,9.18457031 C160.587193,8.29589844 160.80692,6.86523438 161.11942,4.89257812 C162.545201,4.75585938 164.117467,4.8046875 165.836217,5.0390625 C167.554967,5.2734375 168.839146,5.52734375 169.688756,5.80078125 C170.538365,6.07421875 171.43192,6.50390625 172.36942,7.08984375 C173.228795,8.14453125 173.697545,8.95019531 173.77567,9.50683594 C173.853795,10.0634766 173.765904,10.7373047 173.511998,11.5283203 C173.258092,12.3193359 172.725865,13.1933594 171.915318,14.1503906 C171.104771,15.1074219 170.123326,16.0205078 168.970982,16.8896484 C167.818638,17.7587891 166.329381,18.5986328 164.503209,19.4091797 C162.677037,20.2197266 160.73856,20.8984375 158.687779,21.4453125 Z M156.197545,24.7558594 C155.904576,24.5996094 155.513951,24.4335938 155.02567,24.2578125 C155.455357,24.1601562 155.885045,24.0527344 156.314732,23.9355469 L156.314732,23.9355469 L156.197545,24.7558594 Z M190.980469,44.9121094 C193.34375,45.0097656 196.029297,45.0097656 199.037109,44.9121094 C203.138672,44.4824219 207.005859,43.4863281 210.638672,41.9238281 C211.302734,41.4941406 210.941406,41.3476562 209.554688,41.484375 C207.25,41.7773438 205.248047,42.0996094 203.548828,42.4511719 C201.849609,42.8027344 198.988281,43.125 194.964844,43.4179688 C191.898438,43.3789062 189.989258,43.3007812 189.237305,43.1835938 C188.485352,43.0664062 187.796875,42.9199219 187.171875,42.7441406 C186.292969,42.1386719 185.970703,41.3574219 186.205078,40.4003906 L186.205078,40.4003906 L186.585938,39.4921875 C187.152344,38.6132812 187.616211,37.9394531 187.977539,37.4707031 C188.338867,37.0019531 189.037109,36.1914062 190.072266,35.0390625 C191.166016,33.9648438 192.386719,32.8417969 193.734375,31.6699219 C195.082031,30.7128906 196.146484,29.9121094 196.927734,29.2675781 C197.708984,28.6230469 198.578125,27.9882812 199.535156,27.3632812 C200.882813,26.5429688 202.132813,25.7128906 203.285156,24.8730469 C204.535156,23.9746094 205.951172,23.0859375 207.533203,22.2070312 C208.314453,21.7773438 208.783203,21.2988281 208.939453,20.7714844 C208.861328,20.0292969 208.5,19.5800781 207.855469,19.4238281 C207.230469,19.3847656 206.644531,19.4042969 206.097656,19.4824219 C205.003906,19.5605469 203.8125,19.6875 202.523438,19.8632812 L202.523438,19.8632812 L199.886719,19.9804688 C197.953125,19.9609375 196.576172,19.9023438 195.755859,19.8046875 C194.935547,19.7070312 194.037109,19.5117188 193.060547,19.21875 C192.181641,18.6914062 191.722656,18.0810547 191.683594,17.3876953 C191.644531,16.6943359 191.844727,15.8984375 192.28418,15 C192.723633,14.1015625 193.509766,12.9833984 194.642578,11.6455078 C195.775391,10.3076172 197.09375,9.23828125 198.597656,8.4375 C200.667969,7.265625 202.342773,6.46484375 203.62207,6.03515625 C204.901367,5.60546875 206.083008,5.28808594 207.166992,5.08300781 C208.250977,4.87792969 209.339844,4.78515625 210.433594,4.8046875 C211.898438,4.765625 212.777344,5.2734375 213.070313,6.328125 C213.304688,7.3046875 213.626953,7.79296875 214.037109,7.79296875 C214.193359,7.734375 214.359375,7.49023438 214.535156,7.06054688 L214.535156,7.06054688 L214.535156,5.859375 C214.4375,5.25390625 214.24707,4.78027344 213.963867,4.43847656 C213.680664,4.09667969 213.324219,3.81835938 212.894531,3.60351562 L212.894531,3.60351562 L211.3125,3.046875 L209.554688,3.046875 C208.480469,3.1640625 207.694336,3.25195312 207.196289,3.31054688 C206.698242,3.36914062 205.667969,3.61328125 204.105469,4.04296875 C202.523438,4.53125 201.039063,5.14648438 199.652344,5.88867188 C197.328125,7.02148438 195.277344,8.34960938 193.5,9.87304688 L193.5,9.87304688 L191.976563,11.8359375 C191.019531,13.4179688 190.433594,14.8535156 190.21875,16.1425781 L190.21875,16.1425781 L190.130859,17.34375 C190.306641,18.8476562 190.951172,19.8535156 192.064453,20.3613281 C193.080078,20.8300781 194.408203,21.1132812 196.048828,21.2109375 C197.650391,21.25 199.046875,21.2597656 200.238281,21.2402344 L200.238281,21.2402344 L202.230469,21.2402344 C203.734375,21.1425781 204.867188,21.0351562 205.628906,20.9179688 L205.628906,20.9179688 L206.595703,20.7714844 C206.166016,21.0449219 205.619141,21.4160156 204.955078,21.8847656 C204.154297,22.4316406 203.353516,22.9394531 202.552734,23.4082031 C200.755859,24.4824219 199.618164,25.1708984 199.139648,25.4736328 C198.661133,25.7763672 198.226563,26.0742188 197.835938,26.3671875 C197.445313,26.6601562 196.795898,27.1289062 195.887695,27.7734375 C194.979492,28.4179688 193.788086,29.3261719 192.313477,30.4980469 C190.838867,31.6699219 189.808594,32.5634766 189.222656,33.1787109 C188.636719,33.7939453 188.036133,34.4628906 187.420898,35.1855469 C186.805664,35.9082031 186.107422,36.875 185.326172,38.0859375 C184.955078,38.7109375 184.662109,39.5605469 184.447266,40.6347656 C184.447266,42.0214844 184.876953,43.0957031 185.736328,43.8574219 C186.869141,44.4628906 188.617188,44.8144531 190.980469,44.9121094 Z M219.171596,45.0878906 C220.577846,45.1660156 222.19894,45.0439453 224.034877,44.7216797 C225.870815,44.3994141 227.628627,43.8671875 229.308315,43.125 C230.988002,42.3828125 232.516323,41.5185547 233.893276,40.5322266 C235.270229,39.5458984 236.490932,38.4375 237.555385,37.2070312 C238.619838,35.9765625 239.293666,34.9316406 239.576869,34.0722656 C239.860073,33.2128906 239.816127,32.3974609 239.445034,31.6259766 C239.07394,30.8544922 238.663784,30.234375 238.214565,29.765625 C237.765346,29.296875 237.203823,28.7744141 236.529994,28.1982422 C235.856166,27.6220703 235.192104,27.0751953 234.537807,26.5576172 C233.88351,26.0400391 232.931362,25.234375 231.681362,24.140625 C230.431362,23.046875 229.249721,21.7724609 228.13644,20.3173828 C227.023159,18.8623047 226.256557,17.6171875 225.836635,16.5820312 C225.416713,15.546875 225.304409,14.3164062 225.499721,12.890625 C225.695034,11.4648437 226.427455,10.1220703 227.696987,8.86230469 C228.966518,7.60253906 230.778041,6.58203125 233.131557,5.80078125 C235.485073,5.01953125 237.736049,4.58496094 239.884487,4.49707031 C242.032924,4.40917969 243.53683,4.87304687 244.396205,5.88867187 C245.704799,6.86523437 246.154018,8.26171875 245.743862,10.078125 C244.806362,11.9726562 242.98019,13.90625 240.265346,15.8789062 C240.265346,16.0742188 240.519252,16.09375 241.027065,15.9375 C242.452846,15.4492187 243.722377,14.5800781 244.835659,13.3300781 C245.94894,12.0800781 246.642299,11.1425781 246.915737,10.5175781 C247.59933,9.63867187 247.770229,8.60351562 247.428432,7.41210937 C247.086635,6.22070312 246.280971,5.19042969 245.01144,4.32128906 C243.741909,3.45214844 242.04269,3.02734375 239.913784,3.046875 C237.784877,3.06640625 235.861049,3.33007812 234.142299,3.83789062 C232.423549,4.34570312 230.929409,4.92675781 229.659877,5.58105469 C228.390346,6.23535156 227.384487,6.90429687 226.642299,7.58789062 C225.900112,8.27148437 225.279994,8.99902344 224.781948,9.77050781 C224.283901,10.5419922 223.966518,11.5087891 223.829799,12.6708984 C223.69308,13.8330078 223.824916,15.1855469 224.225307,16.7285156 C224.625698,18.2714844 225.426479,19.7558594 226.627651,21.1816406 C227.828823,22.6074219 229.16183,23.9746094 230.626674,25.2832031 C233.087612,27.3925781 234.879604,28.9208984 236.002651,29.8681641 C237.125698,30.8154297 237.687221,31.7773438 237.687221,32.7539062 C237.687221,33.7304688 237.00851,35.0341797 235.651088,36.6650391 C234.293666,38.2958984 232.262416,39.7851562 229.557338,41.1328125 C226.85226,42.4804688 224.117885,43.2373047 221.354213,43.4033203 C218.590541,43.5693359 216.280971,43.28125 214.425502,42.5390625 C214.07394,41.7578125 213.751674,41.2792969 213.458705,41.1035156 C213.165737,40.8886719 212.994838,40.9033203 212.94601,41.1474609 C212.897182,41.3916016 212.877651,41.7773438 212.887416,42.3046875 C212.897182,42.8320312 213.155971,43.3349609 213.663784,43.8134766 C214.171596,44.2919922 214.864955,44.6044922 215.743862,44.7509766 C216.622768,44.8974609 217.765346,45.0097656 219.171596,45.0878906 Z M249.325614,45.0878906 C250.731864,45.1660156 252.352958,45.0439453 254.188895,44.7216797 C256.024833,44.3994141 257.782645,43.8671875 259.462333,43.125 C261.14202,42.3828125 262.67034,41.5185547 264.047294,40.5322266 C265.424247,39.5458984 266.64495,38.4375 267.709403,37.2070312 C268.773856,35.9765625 269.447684,34.9316406 269.730887,34.0722656 C270.01409,33.2128906 269.970145,32.3974609 269.599051,31.6259766 C269.227958,30.8544922 268.817801,30.234375 268.368583,29.765625 C267.919364,29.296875 267.35784,28.7744141 266.684012,28.1982422 C266.010184,27.6220703 265.346122,27.0751953 264.691825,26.5576172 C264.037528,26.0400391 263.085379,25.234375 261.835379,24.140625 C260.585379,23.046875 259.403739,21.7724609 258.290458,20.3173828 C257.177176,18.8623047 256.410575,17.6171875 255.990653,16.5820312 C255.570731,15.546875 255.458426,14.3164062 255.653739,12.890625 C255.849051,11.4648437 256.581473,10.1220703 257.851004,8.86230469 C259.120536,7.60253906 260.932059,6.58203125 263.285575,5.80078125 C265.63909,5.01953125 267.890067,4.58496094 270.038504,4.49707031 C272.186942,4.40917969 273.690848,4.87304687 274.550223,5.88867187 C275.858817,6.86523437 276.308036,8.26171875 275.897879,10.078125 C274.960379,11.9726562 273.134208,13.90625 270.419364,15.8789062 C270.419364,16.0742188 270.67327,16.09375 271.181083,15.9375 C272.606864,15.4492187 273.876395,14.5800781 274.989676,13.3300781 C276.102958,12.0800781 276.796317,11.1425781 277.069754,10.5175781 C277.753348,9.63867187 277.924247,8.60351562 277.58245,7.41210937 C277.240653,6.22070312 276.434989,5.19042969 275.165458,4.32128906 C273.895926,3.45214844 272.196708,3.02734375 270.067801,3.046875 C267.938895,3.06640625 266.015067,3.33007812 264.296317,3.83789062 C262.577567,4.34570312 261.083426,4.92675781 259.813895,5.58105469 C258.544364,6.23535156 257.538504,6.90429687 256.796317,7.58789062 C256.054129,8.27148437 255.434012,8.99902344 254.935965,9.77050781 C254.437919,10.5419922 254.120536,11.5087891 253.983817,12.6708984 C253.847098,13.8330078 253.978934,15.1855469 254.379325,16.7285156 C254.779715,18.2714844 255.580497,19.7558594 256.781669,21.1816406 C257.98284,22.6074219 259.315848,23.9746094 260.780692,25.2832031 C263.241629,27.3925781 265.033622,28.9208984 266.156669,29.8681641 C267.279715,30.8154297 267.841239,31.7773438 267.841239,32.7539062 C267.841239,33.7304688 267.162528,35.0341797 265.805106,36.6650391 C264.447684,38.2958984 262.416434,39.7851562 259.711356,41.1328125 C257.006278,42.4804688 254.271903,43.2373047 251.508231,43.4033203 C248.744559,43.5693359 246.434989,43.28125 244.57952,42.5390625 C244.227958,41.7578125 243.905692,41.2792969 243.612723,41.1035156 C243.319754,40.8886719 243.148856,40.9033203 243.100028,41.1474609 C243.0512,41.3916016 243.031669,41.7773438 243.041434,42.3046875 C243.0512,42.8320312 243.309989,43.3349609 243.817801,43.8134766 C244.325614,44.2919922 245.018973,44.6044922 245.897879,44.7509766 C246.776786,44.8974609 247.919364,45.0097656 249.325614,45.0878906 Z" id="IVYDRESS" fill="#000000" fill-rule="nonzero"></path>
    </g>
</svg>