<?xml version="1.0" encoding="UTF-8"?>
<svg width="290px" height="41px" viewBox="0 0 290 41" version="1.1" xmlns="http://www.w3.org/2000/svg" xmlns:xlink="http://www.w3.org/1999/xlink">
    <title>IVYGOWN</title>
    <g id="final-copy" stroke="none" stroke-width="1" fill="none" fill-rule="evenodd">
        <path d="M12.3,40 L12.3,39.45 L7.79,39.45 L7.79,2.05 L12.3,2.05 L12.3,1.5 L0.2,1.5 L0.2,2.05 L4.71,2.05 L4.71,39.45 L0.2,39.45 L0.2,40 L12.3,40 Z M34.2607143,40 L48.5057143,2.05 L51.2557143,2.05 L51.2557143,1.5 L40.8057143,1.5 L40.8057143,2.05 L43.2807143,2.05 C45.0957143,2.05 46.2507143,3.755 46.2507143,5.57 C46.2507143,6.01 46.1957143,6.56 45.9757143,7.055 L34.9207143,36.37 L21.7207143,2.05 L26.1757143,2.05 L26.1757143,1.5 L15.8357143,1.5 L15.8357143,2.05 L18.5307143,2.05 L32.9957143,40 L34.2607143,40 Z M76.4064286,40 L76.4064286,39.45 L71.8964286,39.45 L71.8964286,20.475 L85.2614286,2.05 L87.6264286,2.05 L87.6264286,1.5 L76.0764286,1.5 L76.0764286,2.05 L78.8264286,2.05 C80.4214286,2.05 81.7414286,3.425 81.7414286,4.91 C81.7414286,5.405 81.5764286,5.955 81.1914286,6.45 L71.5664286,19.87 L59.5214286,2.05 L64.0864286,2.05 L64.0864286,1.5 L53.0314286,1.5 L53.0314286,2.05 L55.6164286,2.05 L68.8164286,21.575 L68.8164286,39.45 L64.3064286,39.45 L64.3064286,40 L76.4064286,40 Z M136.513571,40.55 C141.683571,40.55 146.358571,37.415 147.018571,32.245 C147.678571,33.125 149.273571,37.8 149.273571,40.055 L149.768571,40.055 L149.768571,21.575 L153.948571,21.575 L153.948571,21.025 L137.668571,21.025 L137.668571,21.575 L146.688571,21.575 L146.688571,30.155 C146.688571,36.535 142.013571,40 136.513571,40 C127.823571,40 123.478571,33.345 123.478571,20.86 C123.478571,8.155 128.373571,1.5 137.063571,1.5 C143.663571,1.5 148.393571,6.45 149.163571,12.72 L149.713571,12.72 L149.713571,1.445 L149.273571,1.445 C149.273571,2.49 147.843571,4.305 146.523571,4.305 C146.193571,4.305 145.808571,4.195 145.533571,3.92 C143.608571,2.27 140.913571,0.95 137.063571,0.95 C127.273571,0.95 120.123571,7.935 120.123571,20.86 C120.123571,33.565 126.723571,40.55 136.513571,40.55 Z M177.284286,40.55 C187.129286,40.55 194.279286,33.565 194.279286,20.86 C194.279286,7.935 187.129286,0.95 177.284286,0.95 C167.494286,0.95 160.344286,7.935 160.344286,20.86 C160.344286,33.565 167.494286,40.55 177.284286,40.55 Z M177.284286,40 C168.594286,40 163.699286,33.345 163.699286,20.86 C163.699286,8.155 168.594286,1.5 177.284286,1.5 C186.029286,1.5 190.924286,8.155 190.924286,20.86 C190.924286,33.345 186.029286,40 177.284286,40 Z M218.165,40 L225.7,19.87 L233.4,40 L234.72,40 L248.965,2.05 L251.715,2.05 L251.715,1.5 L241.21,1.5 L241.21,2.05 L243.575,2.05 C245.225,2.05 246.655,3.425 246.655,5.46 C246.655,6.065 246.545,6.725 246.27,7.44 L235.38,36.37 L222.18,2.05 L226.305,2.05 L226.305,1.5 L216.02,1.5 L216.02,2.05 L218.935,2.05 L225.315,18.88 L218.825,36.37 L205.625,2.05 L209.86,2.05 L209.86,1.5 L199.685,1.5 L199.685,2.05 L202.38,2.05 L216.845,40 L218.165,40 Z M284.620714,40.11 L284.620714,5.955 C284.620714,4.03 286.380714,2.05 288.195714,2.05 L289.295714,2.05 L289.295714,1.5 L277.910714,1.5 L277.910714,2.05 L280.385714,2.05 C282.200714,2.05 284.015714,4.03 284.015714,5.955 L284.015714,34.445 L262.345714,1.5 L255.085714,1.5 L255.085714,2.05 L258.715714,2.05 L259.815714,3.48 L259.815714,35.545 C259.815714,37.525 258.055714,39.45 256.240714,39.45 L255.085714,39.45 L255.085714,40 L266.525714,40 L266.525714,39.45 L263.995714,39.45 C262.235714,39.45 260.365714,37.47 260.365714,35.545 L260.365714,4.14 L284.070714,40.11 L284.620714,40.11 Z" id="IVYGOWN" fill="#F99393" fill-rule="nonzero"></path>
    </g>
</svg>