<?xml version="1.0" encoding="UTF-8"?>
<svg width="391px" height="49px" viewBox="0 0 391 49" version="1.1" xmlns="http://www.w3.org/2000/svg" xmlns:xlink="http://www.w3.org/1999/xlink">
    <title>LAURELDRESS</title>
    <g id="final-copy" stroke="none" stroke-width="1" fill="none" fill-rule="evenodd">
        <path d="M2.28515625,42.7695312 C3.61328125,43.84375 5.38574219,44.2880859 7.60253906,44.1025391 C9.81933594,43.9169922 11.7675781,43.609375 13.4472656,43.1796875 L13.4472656,43.1796875 L15.6152344,42.7988281 L18.6621094,42.1835938 L26.9238281,40.6601562 L27.6269531,40.25 C27.3535156,39.8984375 25.859375,39.8251953 23.1445312,40.0302734 C20.4296875,40.2353516 18.4033203,40.4453125 17.0654297,40.6601562 C15.7275391,40.875 14.3066406,41.1435547 12.8027344,41.4658203 C11.2988281,41.7880859 9.89257812,42.0322266 8.58398438,42.1982422 C7.27539062,42.3642578 6.19140625,42.3740234 5.33203125,42.2275391 C4.47265625,42.0810547 3.77441406,41.6123047 3.23730469,40.8212891 C2.70019531,40.0302734 2.70507812,38.140625 3.25195312,35.1523438 C3.79882812,32.1640625 5.16113281,28.2431641 7.33886719,23.3896484 C9.51660156,18.5361328 11.2792969,14.5078125 12.6269531,11.3046875 C13.9746094,8.1015625 15.2246094,5.484375 16.3769531,3.453125 C15.2050781,1.28515625 14.2773438,1.32421875 13.59375,3.5703125 C13.3203125,4.60546875 12.3583984,6.95410156 10.7080078,10.6162109 C9.05761719,14.2783203 7.15332031,18.6240234 4.99511719,23.6533203 C2.83691406,28.6826172 1.58203125,32.5449219 1.23046875,35.2402344 C0.87890625,37.9355469 0.874023437,39.7714844 1.21582031,40.7480469 C1.55761719,41.7246094 1.9140625,42.3984375 2.28515625,42.7695312 Z M51.5993304,48.4238281 C51.9313616,48.3847656 52.1657366,48.2285156 52.3024554,47.9550781 L52.3024554,47.9550781 L52.390346,47.1347656 C52.468471,45.6113281 52.5368304,44.2050781 52.5954241,42.9160156 C52.6735491,42.3886719 52.7370257,41.8076172 52.7858538,41.1728516 C52.8346819,40.5380859 52.9469866,39.5517578 53.1227679,38.2138672 C53.2985491,36.8759766 53.4792132,35.40625 53.66476,33.8046875 C53.8503069,32.203125 54.0700335,30.8066406 54.3239397,29.6152344 C55.4567522,29.5175781 56.9508929,29.4101562 58.8063616,29.2929688 C61.4430804,29.0195313 63.0641741,28.7558594 63.6696429,28.5019531 C64.2751116,28.2480469 64.2995257,28.0429688 63.742885,27.8867188 C63.1862444,27.7304687 62.3512835,27.671875 61.2380022,27.7109375 C60.124721,27.75 58.9626116,27.7988281 57.7516741,27.8574219 C56.5407366,27.9160156 55.5739397,27.9648438 54.8512835,28.0039062 L54.8512835,28.0039062 L54.4704241,28.0039062 L54.4704241,27.8867188 C54.5876116,27.1054688 54.680385,26.4609375 54.7487444,25.953125 C54.8171038,25.4453125 54.9635882,24.5615234 55.1881975,23.3017578 C55.4128069,22.0419922 55.7106585,20.3671875 56.0817522,18.2773438 C56.452846,16.1875 56.8337054,14.4003906 57.2243304,12.9160156 C57.5758929,11.2753906 58.0446429,9.51757812 58.6305804,7.64257812 C58.9235491,6.64648438 59.6462054,5.29882812 60.7985491,3.59960938 L60.7985491,3.59960938 L60.7985491,2.95507812 C60.5251116,2.56445312 60.0563616,2.30078125 59.3922991,2.1640625 C59.0016741,2.61328125 58.6891741,3.11621094 58.4547991,3.67285156 C58.2204241,4.22949219 57.7126116,5.23046875 56.9313616,6.67578125 C55.7204241,8.74609375 54.8952288,10.1425781 54.4557757,10.8652344 C54.0163225,11.5878906 53.3962054,12.5742188 52.5954241,13.8242188 C51.2282366,15.8164062 50.2223772,17.2666016 49.577846,18.1748047 C48.9333147,19.0830078 48.1618304,20.171875 47.2633929,21.4414062 C46.3649554,22.7109375 45.6862444,23.6533203 45.22726,24.2685547 C44.7682757,24.8837891 44.211635,25.6162109 43.5573382,26.4658203 C42.9030413,27.3154297 41.9118304,28.4433594 40.5837054,29.8496094 C38.4938616,30.3183594 36.8874163,30.6455078 35.7643694,30.8310547 C34.6413225,31.0166016 33.7477679,31.1337891 33.0837054,31.1826172 C32.4196429,31.2314453 31.9606585,31.2558594 31.7067522,31.2558594 C31.452846,31.2558594 31.2575335,31.3242187 31.1208147,31.4609375 C31.1208147,32.3984375 31.7848772,32.8671875 33.1130022,32.8671875 C33.5817522,32.8671875 33.8161272,32.9550781 33.8161272,33.1308594 C35.1442522,33.2089844 36.3063616,33.4238281 37.3024554,33.7753906 C35.7204241,35.4550781 34.5387835,36.6074219 33.7575335,37.2324219 C32.9762835,37.8574219 32.1852679,38.3652344 31.3844866,38.7558594 C30.5837054,39.1464844 30.1833147,39.4394531 30.1833147,39.6347656 C30.2419085,40.3378906 30.749721,40.6894531 31.7067522,40.6894531 C34.1286272,39.0292969 35.7643694,37.7792969 36.6139788,36.9394531 C37.4635882,36.0996094 38.3083147,35.2402344 39.1481585,34.3613281 C40.1833147,34.7324219 41.2575335,35.1914062 42.3708147,35.7382812 C43.8356585,36.6757812 44.9342913,37.5107422 45.6667132,38.2431641 C46.399135,38.9755859 47.0387835,39.6835938 47.5856585,40.3671875 C48.1325335,41.0507812 48.6842913,41.8662109 49.2409319,42.8134766 C49.7975725,43.7607422 50.1540179,44.390625 50.3102679,44.703125 C50.4665179,45.015625 50.5739397,45.3476562 50.6325335,45.6992188 C50.6911272,46.6953125 50.7643694,47.3349609 50.85226,47.6181641 C50.9401507,47.9013672 51.1891741,48.1699219 51.5993304,48.4238281 Z M43.5133929,29.4101562 C44.4313616,28.3164062 45.6911272,26.65625 47.2926897,24.4296875 C48.8356585,22.125 49.8708147,20.6601562 50.3981585,20.0351562 C50.8669085,19.2734375 51.32101,18.5800781 51.7604632,17.9550781 C52.1999163,17.3300781 52.8981585,16.3144531 53.8551897,14.9082031 C54.2458147,14.3417969 54.7633929,13.5898438 55.4079241,12.6523438 L55.4079241,12.6523438 L55.4665179,12.6523438 L55.4665179,12.7109375 L55.1149554,14.6738281 C54.7829241,16.1777344 54.5583147,17.1835938 54.4411272,17.6914062 C54.3239397,18.1992188 54.1286272,19.1660156 53.8551897,20.5917969 C53.6989397,21.7832031 53.562221,22.8769531 53.4450335,23.8730469 L53.4450335,23.8730469 L52.7712054,28.1503906 C51.5602679,28.3261719 50.437221,28.4726562 49.4020647,28.5898438 C47.4489397,28.9023438 45.4860491,29.1757812 43.5133929,29.4101562 Z M51.0133929,43.6191406 C50.5837054,42.7597656 50.1930804,42.0273438 49.8415179,41.421875 C49.4899554,40.8164062 49.0700335,40.2158203 48.5817522,39.6201172 C48.093471,39.0244141 47.468471,38.3603516 46.7067522,37.6279297 C45.9450335,36.8955078 45.1442522,36.2363281 44.3044085,35.6503906 C43.4645647,35.0644531 42.780971,34.6542969 42.2536272,34.4199219 C41.7262835,34.1855469 40.9352679,33.8535156 39.8805804,33.4238281 C40.5641741,32.7597656 41.218471,32.0859375 41.843471,31.4023438 C44.3044085,30.9726562 46.3454241,30.6601562 47.9665179,30.4648438 C49.3532366,30.25 50.5739397,30.0839844 51.6286272,29.9667969 L51.6286272,29.9667969 L52.5368304,29.8789062 L52.3024554,31.1972656 C52.0485491,33.1308594 51.8532366,34.6542969 51.7165179,35.7675781 C51.5797991,36.8808594 51.4333147,38.3359375 51.2770647,40.1328125 C51.140346,41.5 51.0524554,42.6621094 51.0133929,43.6191406 Z M38.0641741,32.8671875 C37.0876116,32.59375 36.5407366,32.4472656 36.4235491,32.4277344 L36.4235491,32.4277344 L36.4235491,32.3691406 C37.4196429,32.1152344 38.327846,31.9296875 39.1481585,31.8125 C38.8161272,32.1445312 38.4547991,32.4960938 38.0641741,32.8671875 Z M72.0853795,43.9707031 C72.983817,44.1660156 74.1849888,44.0292969 75.6888951,43.5605469 C77.1928013,43.0917969 78.5941685,42.3886719 79.8929967,41.4511719 C81.1918248,40.5136719 82.515067,39.078125 83.8627232,37.1445312 C85.2103795,35.2109375 86.2601842,33.4238281 87.0121373,31.7832031 C87.7640904,30.1425781 88.4232701,28.6044922 88.9896763,27.1689453 C89.5560826,25.7333984 90.1517857,24.0341797 90.7767857,22.0712891 C91.4017857,20.1083984 91.9193638,18.1845703 92.3295201,16.2998047 C92.7396763,14.4150391 93.0961217,12.6523438 93.398856,11.0117188 C93.7015904,9.37109375 93.7845982,7.89160156 93.6478795,6.57324219 C93.5111607,5.25488281 93.2670201,4.26367188 92.9154576,3.59960938 C92.5638951,2.93554688 92.2758092,2.49121094 92.0511998,2.26660156 C91.8265904,2.04199219 91.6263951,1.9296875 91.4506138,1.9296875 L91.4506138,1.9296875 L91.1283482,2.07617188 C91.6166295,3.67773438 91.8851842,5.02050781 91.9340123,6.10449219 C91.9828404,7.18847656 91.8998326,8.43847656 91.6849888,9.85449219 C91.4701451,11.2705078 90.9623326,13.5214844 90.1615513,16.6074219 C89.3607701,19.6933594 88.5746373,22.3105469 87.8031529,24.4589844 C87.0316685,26.6074219 86.2553013,28.5410156 85.4740513,30.2597656 C84.6928013,31.9785156 83.7504185,33.7070312 82.6469029,35.4453125 C81.5433873,37.1835938 80.3959263,38.5898438 79.2045201,39.6640625 C78.0131138,40.7382812 76.8949498,41.4902344 75.8500279,41.9199219 C74.805106,42.3496094 73.921317,42.5498047 73.1986607,42.5205078 C72.4760045,42.4912109 71.6996373,42.1738281 70.8695592,41.5683594 C70.039481,40.9628906 69.3412388,40.1035156 68.7748326,38.9902344 C68.2084263,37.8769531 67.695731,36.4072266 67.2367467,34.5810547 C66.7777623,32.7548828 66.5336217,30.6601562 66.5043248,28.296875 C66.4750279,25.9335937 66.5726842,23.6484375 66.7972935,21.4414062 C67.0219029,19.234375 67.2758092,17.2568359 67.5590123,15.5087891 C67.8422154,13.7607422 68.1547154,12.0761719 68.4965123,10.4550781 C68.8383092,8.83398438 69.1996373,7.359375 69.5804967,6.03125 C69.961356,4.703125 70.1517857,3.59960938 70.1517857,2.72070312 C70.0541295,2.29101562 69.5267857,2.02734375 68.5697545,1.9296875 L68.5697545,1.9296875 L68.3060826,2.07617188 C67.9935826,3.48242188 67.7299107,4.53710938 67.515067,5.24023438 C67.3002232,5.94335938 67.0072545,7.05664062 66.6361607,8.58007812 C66.265067,10.1035156 65.9037388,11.8662109 65.5521763,13.8681641 C65.2006138,15.8701172 64.9125279,18.0966797 64.6879185,20.5478516 C64.4633092,22.9990234 64.3949498,25.0058594 64.4828404,26.5683594 C64.570731,28.1308594 64.6390904,29.4882812 64.6879185,30.640625 C64.7367467,31.7929688 64.9271763,33.0380859 65.2592076,34.3759766 C65.5912388,35.7138672 66.0648717,37.0859375 66.680106,38.4921875 C67.2953404,39.8984375 68.1254185,41.1142578 69.1703404,42.1396484 C70.2152623,43.1650391 71.186942,43.7753906 72.0853795,43.9707031 Z M98.6065848,47.4863281 C98.9581473,47.3300781 99.1925223,47.1787109 99.3097098,47.0322266 C99.4268973,46.8857422 99.6124442,46.5292969 99.8663505,45.9628906 C100.628069,42.6621094 101.199358,39.8496094 101.580218,37.5253906 C101.961077,35.2011719 102.224749,33.5947266 102.371233,32.7060547 C102.517718,31.8173828 102.815569,29.7519531 103.264788,26.5097656 C107.307757,29.4589844 110.17885,31.7001953 111.878069,33.2333984 C113.577288,34.7666016 115.911272,36.5830078 118.880022,38.6826172 C121.848772,40.7822266 124.817522,42.2617188 127.786272,43.1210938 C129.016741,43.21875 129.094866,42.9355469 128.020647,42.2714844 C127.219866,41.9980469 126.047991,41.4072266 124.505022,40.4990234 C122.962054,39.5908203 121.02846,38.2431641 118.704241,36.4560547 C116.380022,34.6689453 113.96303,32.7451172 111.453265,30.6845703 C108.943499,28.6240234 106.301897,26.6855469 103.52846,24.8691406 C103.665179,23.9902344 103.801897,23.1894531 103.938616,22.4667969 C105.286272,22.1542969 107.024554,21.5732422 109.15346,20.7236328 C111.282366,19.8740234 112.952288,19.0878906 114.163225,18.3652344 C115.374163,17.6425781 116.541155,16.7099609 117.664202,15.5673828 C118.787249,14.4248047 119.592913,13.4335937 120.081194,12.59375 C120.569475,11.7539062 120.847796,10.9042969 120.916155,10.0449219 C120.984515,9.18554688 120.945452,8.4921875 120.798968,7.96484375 C120.652483,7.4375 120.325335,6.8125 119.817522,6.08984375 C119.30971,5.3671875 118.474749,4.68359375 117.31264,4.0390625 C116.15053,3.39453125 114.641741,2.93554688 112.786272,2.66210938 C110.930804,2.38867188 108.938616,2.23242188 106.80971,2.19335938 C106.516741,1.11914063 106.126116,0.533203125 105.637835,0.435546875 C105.149554,0.318359375 104.954241,0.484375 105.051897,0.93359375 L105.051897,0.93359375 L105.051897,1.78320313 L104.93471,2.48632813 C104.212054,2.70117188 103.430804,2.95019531 102.59096,3.23339844 C101.751116,3.51660156 100.735491,3.99511719 99.5440848,4.66894531 C98.3526786,5.34277344 97.6446708,5.9140625 97.4200614,6.3828125 C97.195452,6.8515625 97.0831473,7.26171875 97.0831473,7.61328125 C97.0831473,7.96484375 97.1515067,8.23339844 97.2882255,8.41894531 C97.4249442,8.60449219 97.6153739,9.00488281 97.8595145,9.62011719 C98.1036551,10.2353516 98.4112723,10.9238281 98.7823661,11.6855469 C99.1729911,11.3339844 99.2901786,10.9287109 99.1339286,10.4697266 C98.9776786,10.0107422 98.7677176,9.39550781 98.5040458,8.62402344 C98.2403739,7.85253906 98.421038,7.21289063 99.046038,6.70507813 C99.671038,6.19726563 100.310686,5.77246094 100.964983,5.43066406 C101.61928,5.08886719 102.90346,4.63476563 104.817522,4.06835938 C104.231585,7.79882813 103.84096,10.2060547 103.645647,11.2900391 C103.450335,12.3740234 103.240374,13.6923828 103.015765,15.2451172 C102.791155,16.7978516 102.5226,18.7265625 102.2101,21.03125 C100.530413,21.3632812 99.1974051,21.5830078 98.211077,21.6904297 C97.2247489,21.7978516 96.2774833,21.8710938 95.3692801,21.9101562 C94.461077,21.9492188 94.0167411,22.1542969 94.0362723,22.5253906 C94.0558036,22.8964844 94.280413,23.3457031 94.7101005,23.8730469 C95.217913,23.8730469 95.7745536,23.8242188 96.3800223,23.7265625 C97.3370536,23.7265625 98.3917411,23.9707031 99.5440848,24.4589844 L99.5440848,24.4589844 L101.477679,25.484375 C100.969866,29.2734375 100.49135,32.5253906 100.042132,35.2402344 C99.592913,37.9550781 99.1827567,40.25 98.811663,42.125 C98.4405692,44 98.1183036,45.5820312 97.8448661,46.8710938 L97.8448661,46.8710938 L98.342913,47.4863281 L98.6065848,47.4863281 Z M104.290179,20.4453125 C104.563616,18.609375 104.783343,17.1152344 104.949358,15.9628906 C105.023143,15.4507378 105.102715,14.8971113 105.188074,14.302011 L105.320452,13.3782552 C105.388811,12.9008247 105.460426,12.4000651 105.535296,11.8759766 C105.591448,11.4829102 105.644549,11.1112061 105.694598,10.7608643 L105.835589,9.77392578 C105.923479,9.15869141 105.999163,8.62890625 106.06264,8.18457031 C106.189593,7.29589844 106.409319,5.86523438 106.721819,3.89257812 C108.1476,3.75585938 109.719866,3.8046875 111.438616,4.0390625 C113.157366,4.2734375 114.441546,4.52734375 115.291155,4.80078125 C116.140765,5.07421875 117.034319,5.50390625 117.971819,6.08984375 C118.831194,7.14453125 119.299944,7.95019531 119.378069,8.50683594 C119.456194,9.06347656 119.368304,9.73730469 119.114397,10.5283203 C118.860491,11.3193359 118.328265,12.1933594 117.517718,13.1503906 C116.707171,14.1074219 115.725725,15.0205078 114.573382,15.8896484 C113.421038,16.7587891 111.93178,17.5986328 110.105608,18.4091797 C108.279436,19.2197266 106.34096,19.8984375 104.290179,20.4453125 Z M101.799944,23.7558594 C101.506975,23.5996094 101.11635,23.4335938 100.628069,23.2578125 C101.057757,23.1601562 101.487444,23.0527344 101.917132,22.9355469 L101.917132,22.9355469 L101.799944,23.7558594 Z M136.582868,43.9121094 C138.94615,44.0097656 141.631696,44.0097656 144.639509,43.9121094 C148.741071,43.4824219 152.608259,42.4863281 156.241071,40.9238281 C156.905134,40.4941406 156.543806,40.3476562 155.157087,40.484375 C152.8524,40.7773438 150.850446,41.0996094 149.151228,41.4511719 C147.452009,41.8027344 144.590681,42.125 140.567243,42.4179688 C137.500837,42.3789062 135.591657,42.3007812 134.839704,42.1835938 C134.087751,42.0664062 133.399275,41.9199219 132.774275,41.7441406 C131.895368,41.1386719 131.573103,40.3574219 131.807478,39.4003906 L131.807478,39.4003906 L132.188337,38.4921875 C132.754743,37.6132812 133.218611,36.9394531 133.579939,36.4707031 C133.941267,36.0019531 134.639509,35.1914062 135.674665,34.0390625 C136.768415,32.9648438 137.989118,31.8417969 139.336775,30.6699219 C140.684431,29.7128906 141.748884,28.9121094 142.530134,28.2675781 C143.311384,27.6230469 144.180525,26.9882812 145.137556,26.3632812 C146.485212,25.5429688 147.735212,24.7128906 148.887556,23.8730469 C150.137556,22.9746094 151.553571,22.0859375 153.135603,21.2070312 C153.916853,20.7773438 154.385603,20.2988281 154.541853,19.7714844 C154.463728,19.0292969 154.1024,18.5800781 153.457868,18.4238281 C152.832868,18.3847656 152.246931,18.4042969 151.700056,18.4824219 C150.606306,18.5605469 149.4149,18.6875 148.125837,18.8632812 L148.125837,18.8632812 L145.489118,18.9804688 C143.555525,18.9609375 142.178571,18.9023438 141.358259,18.8046875 C140.537946,18.7070312 139.639509,18.5117188 138.662946,18.21875 C137.78404,17.6914062 137.325056,17.0810547 137.285993,16.3876953 C137.246931,15.6943359 137.447126,14.8984375 137.886579,14 C138.326032,13.1015625 139.112165,11.9833984 140.244978,10.6455078 C141.37779,9.30761719 142.69615,8.23828125 144.200056,7.4375 C146.270368,6.265625 147.945173,5.46484375 149.22447,5.03515625 C150.503767,4.60546875 151.685407,4.28808594 152.769392,4.08300781 C153.853376,3.87792969 154.942243,3.78515625 156.035993,3.8046875 C157.500837,3.765625 158.379743,4.2734375 158.672712,5.328125 C158.907087,6.3046875 159.229353,6.79296875 159.639509,6.79296875 C159.795759,6.734375 159.961775,6.49023438 160.137556,6.06054688 L160.137556,6.06054688 L160.137556,4.859375 C160.0399,4.25390625 159.84947,3.78027344 159.566267,3.43847656 C159.283064,3.09667969 158.926618,2.81835938 158.496931,2.60351562 L158.496931,2.60351562 L156.9149,2.046875 L155.157087,2.046875 C154.082868,2.1640625 153.296736,2.25195312 152.798689,2.31054688 C152.300642,2.36914062 151.270368,2.61328125 149.707868,3.04296875 C148.125837,3.53125 146.641462,4.14648438 145.254743,4.88867188 C142.930525,6.02148438 140.879743,7.34960938 139.1024,8.87304688 L139.1024,8.87304688 L137.578962,10.8359375 C136.621931,12.4179688 136.035993,13.8535156 135.82115,15.1425781 L135.82115,15.1425781 L135.733259,16.34375 C135.90904,17.8476562 136.553571,18.8535156 137.666853,19.3613281 C138.682478,19.8300781 140.010603,20.1132812 141.651228,20.2109375 C143.25279,20.25 144.649275,20.2597656 145.840681,20.2402344 L145.840681,20.2402344 L147.832868,20.2402344 C149.336775,20.1425781 150.469587,20.0351562 151.231306,19.9179688 L151.231306,19.9179688 L152.198103,19.7714844 C151.768415,20.0449219 151.22154,20.4160156 150.557478,20.8847656 C149.756696,21.4316406 148.955915,21.9394531 148.155134,22.4082031 C146.358259,23.4824219 145.220564,24.1708984 144.742048,24.4736328 C144.263532,24.7763672 143.828962,25.0742188 143.438337,25.3671875 C143.047712,25.6601562 142.398298,26.1289062 141.490095,26.7734375 C140.581892,27.4179688 139.390486,28.3261719 137.915876,29.4980469 C136.441267,30.6699219 135.410993,31.5634766 134.825056,32.1787109 C134.239118,32.7939453 133.638532,33.4628906 133.023298,34.1855469 C132.408064,34.9082031 131.709821,35.875 130.928571,37.0859375 C130.557478,37.7109375 130.264509,38.5605469 130.049665,39.6347656 C130.049665,41.0214844 130.479353,42.0957031 131.338728,42.8574219 C132.47154,43.4628906 134.219587,43.8144531 136.582868,43.9121094 Z M161.873605,42.7695312 C163.20173,43.84375 164.974191,44.2880859 167.190988,44.1025391 C169.407785,43.9169922 171.356027,43.609375 173.035714,43.1796875 L173.035714,43.1796875 L175.203683,42.7988281 L178.250558,42.1835938 L186.512277,40.6601562 L187.215402,40.25 C186.941964,39.8984375 185.447824,39.8251953 182.73298,40.0302734 C180.018136,40.2353516 177.991769,40.4453125 176.653878,40.6601562 C175.315988,40.875 173.895089,41.1435547 172.391183,41.4658203 C170.887277,41.7880859 169.481027,42.0322266 168.172433,42.1982422 C166.863839,42.3642578 165.779855,42.3740234 164.92048,42.2275391 C164.061105,42.0810547 163.362863,41.6123047 162.825753,40.8212891 C162.288644,40.0302734 162.293527,38.140625 162.840402,35.1523438 C163.387277,32.1640625 164.749581,28.2431641 166.927316,23.3896484 C169.10505,18.5361328 170.867746,14.5078125 172.215402,11.3046875 C173.563058,8.1015625 174.813058,5.484375 175.965402,3.453125 C174.793527,1.28515625 173.865792,1.32421875 173.182199,3.5703125 C172.908761,4.60546875 171.946847,6.95410156 170.296456,10.6162109 C168.646066,14.2783203 166.741769,18.6240234 164.583566,23.6533203 C162.425363,28.6826172 161.17048,32.5449219 160.818917,35.2402344 C160.467355,37.9355469 160.462472,39.7714844 160.804269,40.7480469 C161.146066,41.7246094 161.502511,42.3984375 161.873605,42.7695312 Z M225.646205,42.7695312 C225.470424,43.7265625 225.592494,44.1367188 226.012416,44 C226.432338,43.8632812 226.759487,43.3847656 226.993862,42.5644531 C228.946987,42.2128906 230.94894,41.6953125 232.999721,41.0117188 C235.050502,40.328125 236.940151,39.6640625 238.668666,39.0195312 C240.397182,38.375 241.700893,37.8378906 242.579799,37.4082031 C243.458705,36.9785156 245.143276,35.9824219 247.63351,34.4199219 C250.123744,32.8574219 252.218471,31.0556641 253.91769,29.0146484 C255.616909,26.9736328 256.593471,24.9423828 256.847377,22.9208984 C257.101284,20.8994141 256.959682,19.0439453 256.422573,17.3544922 C255.885463,15.6650391 255.021205,13.9365234 253.829799,12.1689453 C252.638393,10.4013672 251.144252,8.84863281 249.347377,7.51074219 C247.550502,6.17285156 245.695034,5.08886719 243.780971,4.25878906 C241.866909,3.42871094 240.250698,2.89160156 238.932338,2.64746094 C237.613979,2.40332031 235.675502,2.203125 233.116909,2.046875 C230.577846,1.87109375 228.014369,1.98828125 225.426479,2.3984375 C222.838588,2.80859375 220.934291,3.25292969 219.713588,3.73144531 C218.492885,4.20996094 217.423549,4.83007812 216.50558,5.59179688 C215.587612,6.35351562 215.216518,7.42773438 215.392299,8.81445312 C215.646205,9.84960938 216.22726,10.5087891 217.135463,10.7919922 C218.043666,11.0751953 218.238979,10.7529297 217.721401,9.82519531 C217.203823,8.89746094 217.111049,8.21875 217.44308,7.7890625 C218.341518,6.87109375 219.191127,6.2265625 219.991909,5.85546875 C220.79269,5.484375 221.949916,5.11816406 223.463588,4.75683594 C224.97726,4.39550781 226.759487,4.14160156 228.810268,3.99511719 C230.861049,3.84863281 232.814174,3.86816406 234.669643,4.05371094 C236.525112,4.23925781 238.644252,4.67871094 241.027065,5.37207031 C243.409877,6.06542969 245.685268,7.28613281 247.853237,9.03417969 C250.021205,10.7822266 251.613002,12.5644531 252.628627,14.3808594 C253.644252,16.1972656 254.279018,17.7304688 254.532924,18.9804688 C254.78683,20.2304688 254.850307,21.5439453 254.723354,22.9208984 C254.596401,24.2978516 253.961635,25.6894531 252.819057,27.0957031 C251.676479,28.5019531 250.465541,29.7470703 249.186244,30.8310547 C247.906948,31.9150391 246.515346,32.9208984 245.01144,33.8486328 C243.507534,34.7763672 241.422573,35.8115234 238.756557,36.9541016 C236.090541,38.0966797 232.374721,39.3515625 227.609096,40.71875 C228.351284,37.5546875 228.946987,34.9277344 229.396205,32.8378906 C229.845424,30.7480469 230.279994,28.7021484 230.699916,26.7001953 C231.119838,24.6982422 231.559291,22.5546875 232.018276,20.2695312 C232.47726,17.984375 233.029018,15.5185547 233.673549,12.8720703 C234.31808,10.2255859 234.308315,8.56542969 233.644252,7.89160156 C232.98019,7.21777344 232.535854,7.28613281 232.311244,8.09667969 C232.086635,8.90722656 231.739955,10.4746094 231.271205,12.7988281 C230.802455,15.1230469 230.343471,17.359375 229.894252,19.5078125 C229.445034,21.65625 229.020229,23.7802734 228.619838,25.8798828 C228.219448,27.9794922 227.760463,30.4355469 227.242885,33.2480469 C226.725307,36.0605469 226.310268,38.6289062 225.997768,40.953125 C223.302455,41.265625 221.022182,41.3046875 219.156948,41.0703125 C217.291713,40.8359375 216.749721,41.0263672 217.530971,41.6416016 C218.312221,42.2568359 219.142299,42.6279297 220.021205,42.7548828 C220.900112,42.8818359 221.749721,42.9306641 222.570034,42.9013672 C223.390346,42.8720703 224.415737,42.828125 225.646205,42.7695312 Z M265.497489,47.4863281 C265.849051,47.3300781 266.083426,47.1787109 266.200614,47.0322266 C266.317801,46.8857422 266.503348,46.5292969 266.757254,45.9628906 C267.518973,42.6621094 268.090262,39.8496094 268.471122,37.5253906 C268.851981,35.2011719 269.115653,33.5947266 269.262137,32.7060547 C269.408622,31.8173828 269.706473,29.7519531 270.155692,26.5097656 C274.198661,29.4589844 277.069754,31.7001953 278.768973,33.2333984 C280.468192,34.7666016 282.802176,36.5830078 285.770926,38.6826172 C288.739676,40.7822266 291.708426,42.2617188 294.677176,43.1210938 C295.907645,43.21875 295.98577,42.9355469 294.911551,42.2714844 C294.11077,41.9980469 292.938895,41.4072266 291.395926,40.4990234 C289.852958,39.5908203 287.919364,38.2431641 285.595145,36.4560547 C283.270926,34.6689453 280.853934,32.7451172 278.344169,30.6845703 C275.834403,28.6240234 273.192801,26.6855469 270.419364,24.8691406 C270.556083,23.9902344 270.692801,23.1894531 270.82952,22.4667969 C272.177176,22.1542969 273.915458,21.5732422 276.044364,20.7236328 C278.17327,19.8740234 279.843192,19.0878906 281.054129,18.3652344 C282.265067,17.6425781 283.432059,16.7099609 284.555106,15.5673828 C285.678153,14.4248047 286.483817,13.4335937 286.972098,12.59375 C287.460379,11.7539062 287.7387,10.9042969 287.807059,10.0449219 C287.875419,9.18554688 287.836356,8.4921875 287.689872,7.96484375 C287.543387,7.4375 287.216239,6.8125 286.708426,6.08984375 C286.200614,5.3671875 285.365653,4.68359375 284.203544,4.0390625 C283.041434,3.39453125 281.532645,2.93554688 279.677176,2.66210938 C277.821708,2.38867188 275.82952,2.23242188 273.700614,2.19335938 C273.407645,1.11914063 273.01702,0.533203125 272.528739,0.435546875 C272.040458,0.318359375 271.845145,0.484375 271.942801,0.93359375 L271.942801,0.93359375 L271.942801,1.78320313 L271.825614,2.48632813 C271.102958,2.70117188 270.321708,2.95019531 269.481864,3.23339844 C268.64202,3.51660156 267.626395,3.99511719 266.434989,4.66894531 C265.243583,5.34277344 264.535575,5.9140625 264.310965,6.3828125 C264.086356,6.8515625 263.974051,7.26171875 263.974051,7.61328125 C263.974051,7.96484375 264.042411,8.23339844 264.179129,8.41894531 C264.315848,8.60449219 264.506278,9.00488281 264.750419,9.62011719 C264.994559,10.2353516 265.302176,10.9238281 265.67327,11.6855469 C266.063895,11.3339844 266.181083,10.9287109 266.024833,10.4697266 C265.868583,10.0107422 265.658622,9.39550781 265.39495,8.62402344 C265.131278,7.85253906 265.311942,7.21289063 265.936942,6.70507813 C266.561942,6.19726563 267.20159,5.77246094 267.855887,5.43066406 C268.510184,5.08886719 269.794364,4.63476563 271.708426,4.06835938 C271.122489,7.79882813 270.731864,10.2060547 270.536551,11.2900391 C270.341239,12.3740234 270.131278,13.6923828 269.906669,15.2451172 C269.682059,16.7978516 269.413504,18.7265625 269.101004,21.03125 C267.421317,21.3632812 266.088309,21.5830078 265.101981,21.6904297 C264.115653,21.7978516 263.168387,21.8710938 262.260184,21.9101562 C261.351981,21.9492188 260.907645,22.1542969 260.927176,22.5253906 C260.946708,22.8964844 261.171317,23.3457031 261.601004,23.8730469 C262.108817,23.8730469 262.665458,23.8242188 263.270926,23.7265625 C264.227958,23.7265625 265.282645,23.9707031 266.434989,24.4589844 L266.434989,24.4589844 L268.368583,25.484375 C267.86077,29.2734375 267.382254,32.5253906 266.933036,35.2402344 C266.483817,37.9550781 266.073661,40.25 265.702567,42.125 C265.331473,44 265.009208,45.5820312 264.73577,46.8710938 L264.73577,46.8710938 L265.233817,47.4863281 L265.497489,47.4863281 Z M271.181083,20.4453125 C271.45452,18.609375 271.674247,17.1152344 271.840262,15.9628906 C272.006278,14.8105469 272.20159,13.4482422 272.4262,11.8759766 C272.482352,11.4829102 272.535453,11.1112061 272.585502,10.7608643 L272.726493,9.77392578 C272.814383,9.15869141 272.890067,8.62890625 272.953544,8.18457031 C273.080497,7.29589844 273.300223,5.86523438 273.612723,3.89257812 C275.038504,3.75585938 276.61077,3.8046875 278.32952,4.0390625 C280.04827,4.2734375 281.33245,4.52734375 282.182059,4.80078125 C283.031669,5.07421875 283.925223,5.50390625 284.862723,6.08984375 C285.722098,7.14453125 286.190848,7.95019531 286.268973,8.50683594 C286.347098,9.06347656 286.259208,9.73730469 286.005301,10.5283203 C285.751395,11.3193359 285.219169,12.1933594 284.408622,13.1503906 C283.598075,14.1074219 282.616629,15.0205078 281.464286,15.8896484 C280.311942,16.7587891 278.822684,17.5986328 276.996512,18.4091797 C275.17034,19.2197266 273.231864,19.8984375 271.181083,20.4453125 Z M268.690848,23.7558594 C268.397879,23.5996094 268.007254,23.4335938 267.518973,23.2578125 C267.948661,23.1601562 268.378348,23.0527344 268.808036,22.9355469 L268.808036,22.9355469 L268.690848,23.7558594 Z M303.473772,43.9121094 C305.837054,44.0097656 308.5226,44.0097656 311.530413,43.9121094 C315.631975,43.4824219 319.499163,42.4863281 323.131975,40.9238281 C323.796038,40.4941406 323.43471,40.3476562 322.047991,40.484375 C319.743304,40.7773438 317.74135,41.0996094 316.042132,41.4511719 C314.342913,41.8027344 311.481585,42.125 307.458147,42.4179688 C304.391741,42.3789062 302.482561,42.3007812 301.730608,42.1835938 C300.978655,42.0664062 300.290179,41.9199219 299.665179,41.7441406 C298.786272,41.1386719 298.464007,40.3574219 298.698382,39.4003906 L298.698382,39.4003906 L299.079241,38.4921875 C299.645647,37.6132812 300.109515,36.9394531 300.470843,36.4707031 C300.832171,36.0019531 301.530413,35.1914062 302.565569,34.0390625 C303.659319,32.9648438 304.880022,31.8417969 306.227679,30.6699219 C307.575335,29.7128906 308.639788,28.9121094 309.421038,28.2675781 C310.202288,27.6230469 311.071429,26.9882812 312.02846,26.3632812 C313.376116,25.5429688 314.626116,24.7128906 315.77846,23.8730469 C317.02846,22.9746094 318.444475,22.0859375 320.026507,21.2070312 C320.807757,20.7773438 321.276507,20.2988281 321.432757,19.7714844 C321.354632,19.0292969 320.993304,18.5800781 320.348772,18.4238281 C319.723772,18.3847656 319.137835,18.4042969 318.59096,18.4824219 C317.49721,18.5605469 316.305804,18.6875 315.016741,18.8632812 L315.016741,18.8632812 L312.380022,18.9804688 C310.446429,18.9609375 309.069475,18.9023438 308.249163,18.8046875 C307.42885,18.7070312 306.530413,18.5117188 305.55385,18.21875 C304.674944,17.6914062 304.21596,17.0810547 304.176897,16.3876953 C304.137835,15.6943359 304.33803,14.8984375 304.777483,14 C305.216936,13.1015625 306.003069,11.9833984 307.135882,10.6455078 C308.268694,9.30761719 309.587054,8.23828125 311.09096,7.4375 C313.161272,6.265625 314.836077,5.46484375 316.115374,5.03515625 C317.394671,4.60546875 318.576311,4.28808594 319.660296,4.08300781 C320.74428,3.87792969 321.833147,3.78515625 322.926897,3.8046875 C324.391741,3.765625 325.270647,4.2734375 325.563616,5.328125 C325.797991,6.3046875 326.120257,6.79296875 326.530413,6.79296875 C326.686663,6.734375 326.852679,6.49023438 327.02846,6.06054688 L327.02846,6.06054688 L327.02846,4.859375 C326.930804,4.25390625 326.740374,3.78027344 326.457171,3.43847656 C326.173968,3.09667969 325.817522,2.81835938 325.387835,2.60351562 L325.387835,2.60351562 L323.805804,2.046875 L322.047991,2.046875 C320.973772,2.1640625 320.18764,2.25195312 319.689593,2.31054688 C319.191546,2.36914062 318.161272,2.61328125 316.598772,3.04296875 C315.016741,3.53125 313.532366,4.14648438 312.145647,4.88867188 C309.821429,6.02148438 307.770647,7.34960938 305.993304,8.87304688 L305.993304,8.87304688 L304.469866,10.8359375 C303.512835,12.4179688 302.926897,13.8535156 302.712054,15.1425781 L302.712054,15.1425781 L302.624163,16.34375 C302.799944,17.8476562 303.444475,18.8535156 304.557757,19.3613281 C305.573382,19.8300781 306.901507,20.1132812 308.542132,20.2109375 C310.143694,20.25 311.540179,20.2597656 312.731585,20.2402344 L312.731585,20.2402344 L314.723772,20.2402344 C316.227679,20.1425781 317.360491,20.0351562 318.12221,19.9179688 L318.12221,19.9179688 L319.089007,19.7714844 C318.659319,20.0449219 318.112444,20.4160156 317.448382,20.8847656 C316.6476,21.4316406 315.846819,21.9394531 315.046038,22.4082031 C313.249163,23.4824219 312.111468,24.1708984 311.632952,24.4736328 C311.154436,24.7763672 310.719866,25.0742188 310.329241,25.3671875 C309.938616,25.6601562 309.289202,26.1289062 308.380999,26.7734375 C307.472796,27.4179688 306.28139,28.3261719 304.80678,29.4980469 C303.332171,30.6699219 302.301897,31.5634766 301.71596,32.1787109 C301.130022,32.7939453 300.529436,33.4628906 299.914202,34.1855469 C299.298968,34.9082031 298.600725,35.875 297.819475,37.0859375 C297.448382,37.7109375 297.155413,38.5605469 296.940569,39.6347656 C296.940569,41.0214844 297.370257,42.0957031 298.229632,42.8574219 C299.362444,43.4628906 301.110491,43.8144531 303.473772,43.9121094 Z M331.6649,44.0878906 C333.07115,44.1660156 334.692243,44.0439453 336.528181,43.7216797 C338.364118,43.3994141 340.121931,42.8671875 341.801618,42.125 C343.481306,41.3828125 345.009626,40.5185547 346.386579,39.5322266 C347.763532,38.5458984 348.984236,37.4375 350.048689,36.2070312 C351.113142,34.9765625 351.78697,33.9316406 352.070173,33.0722656 C352.353376,32.2128906 352.309431,31.3974609 351.938337,30.6259766 C351.567243,29.8544922 351.157087,29.234375 350.707868,28.765625 C350.25865,28.296875 349.697126,27.7744141 349.023298,27.1982422 C348.34947,26.6220703 347.685407,26.0751953 347.031111,25.5576172 C346.376814,25.0400391 345.424665,24.234375 344.174665,23.140625 C342.924665,22.046875 341.743025,20.7724609 340.629743,19.3173828 C339.516462,17.8623047 338.749861,16.6171875 338.329939,15.5820312 C337.910017,14.546875 337.797712,13.3164062 337.993025,11.890625 C338.188337,10.4648437 338.920759,9.12207031 340.19029,7.86230469 C341.459821,6.60253906 343.271345,5.58203125 345.624861,4.80078125 C347.978376,4.01953125 350.229353,3.58496094 352.37779,3.49707031 C354.526228,3.40917969 356.030134,3.87304687 356.889509,4.88867187 C358.198103,5.86523437 358.647321,7.26171875 358.237165,9.078125 C357.299665,10.9726562 355.473493,12.90625 352.75865,14.8789062 C352.75865,15.0742187 353.012556,15.09375 353.520368,14.9375 C354.94615,14.4492187 356.215681,13.5800781 357.328962,12.3300781 C358.442243,11.0800781 359.135603,10.1425781 359.40904,9.51757812 C360.092634,8.63867187 360.263532,7.60351562 359.921736,6.41210937 C359.579939,5.22070312 358.774275,4.19042969 357.504743,3.32128906 C356.235212,2.45214844 354.535993,2.02734375 352.407087,2.046875 C350.278181,2.06640625 348.354353,2.33007812 346.635603,2.83789062 C344.916853,3.34570312 343.422712,3.92675781 342.153181,4.58105469 C340.88365,5.23535156 339.87779,5.90429687 339.135603,6.58789062 C338.393415,7.27148437 337.773298,7.99902344 337.275251,8.77050781 C336.777204,9.54199219 336.459821,10.5087891 336.323103,11.6708984 C336.186384,12.8330078 336.31822,14.1855469 336.718611,15.7285156 C337.119001,17.2714844 337.919782,18.7558594 339.120954,20.1816406 C340.322126,21.6074219 341.655134,22.9746094 343.119978,24.2832031 C345.580915,26.3925781 347.372907,27.9208984 348.495954,28.8681641 C349.619001,29.8154297 350.180525,30.7773438 350.180525,31.7539062 C350.180525,32.7304688 349.501814,34.0341797 348.144392,35.6650391 C346.78697,37.2958984 344.75572,38.7851562 342.050642,40.1328125 C339.345564,41.4804688 336.611189,42.2373047 333.847517,42.4033203 C331.083845,42.5693359 328.774275,42.28125 326.918806,41.5390625 C326.567243,40.7578125 326.244978,40.2792969 325.952009,40.1035156 C325.65904,39.8886719 325.488142,39.9033203 325.439314,40.1474609 C325.390486,40.3916016 325.370954,40.7773438 325.38072,41.3046875 C325.390486,41.8320312 325.649275,42.3349609 326.157087,42.8134766 C326.6649,43.2919922 327.358259,43.6044922 328.237165,43.7509766 C329.116071,43.8974609 330.25865,44.0097656 331.6649,44.0878906 Z M361.818917,44.0878906 C363.225167,44.1660156 364.846261,44.0439453 366.682199,43.7216797 C368.518136,43.3994141 370.275949,42.8671875 371.955636,42.125 C373.635324,41.3828125 375.163644,40.5185547 376.540597,39.5322266 C377.91755,38.5458984 379.138253,37.4375 380.202707,36.2070312 C381.26716,34.9765625 381.940988,33.9316406 382.224191,33.0722656 C382.507394,32.2128906 382.463449,31.3974609 382.092355,30.6259766 C381.721261,29.8544922 381.311105,29.234375 380.861886,28.765625 C380.412667,28.296875 379.851144,27.7744141 379.177316,27.1982422 C378.503488,26.6220703 377.839425,26.0751953 377.185128,25.5576172 C376.530832,25.0400391 375.578683,24.234375 374.328683,23.140625 C373.078683,22.046875 371.897042,20.7724609 370.783761,19.3173828 C369.67048,17.8623047 368.903878,16.6171875 368.483957,15.5820312 C368.064035,14.546875 367.95173,13.3164062 368.147042,11.890625 C368.342355,10.4648437 369.074777,9.12207031 370.344308,7.86230469 C371.613839,6.60253906 373.425363,5.58203125 375.778878,4.80078125 C378.132394,4.01953125 380.383371,3.58496094 382.531808,3.49707031 C384.680246,3.40917969 386.184152,3.87304687 387.043527,4.88867187 C388.352121,5.86523437 388.801339,7.26171875 388.391183,9.078125 C387.453683,10.9726562 385.627511,12.90625 382.912667,14.8789062 C382.912667,15.0742187 383.166574,15.09375 383.674386,14.9375 C385.100167,14.4492187 386.369699,13.5800781 387.48298,12.3300781 C388.596261,11.0800781 389.289621,10.1425781 389.563058,9.51757812 C390.246652,8.63867187 390.41755,7.60351562 390.075753,6.41210937 C389.733957,5.22070312 388.928292,4.19042969 387.658761,3.32128906 C386.38923,2.45214844 384.690011,2.02734375 382.561105,2.046875 C380.432199,2.06640625 378.508371,2.33007812 376.789621,2.83789062 C375.070871,3.34570312 373.57673,3.92675781 372.307199,4.58105469 C371.037667,5.23535156 370.031808,5.90429687 369.289621,6.58789062 C368.547433,7.27148437 367.927316,7.99902344 367.429269,8.77050781 C366.931222,9.54199219 366.613839,10.5087891 366.477121,11.6708984 C366.340402,12.8330078 366.472238,14.1855469 366.872628,15.7285156 C367.273019,17.2714844 368.0738,18.7558594 369.274972,20.1816406 C370.476144,21.6074219 371.809152,22.9746094 373.273996,24.2832031 C375.734933,26.3925781 377.526925,27.9208984 378.649972,28.8681641 C379.773019,29.8154297 380.334542,30.7773438 380.334542,31.7539062 C380.334542,32.7304688 379.655832,34.0341797 378.29841,35.6650391 C376.940988,37.2958984 374.909738,38.7851562 372.20466,40.1328125 C369.499582,41.4804688 366.765207,42.2373047 364.001535,42.4033203 C361.237863,42.5693359 358.928292,42.28125 357.072824,41.5390625 C356.721261,40.7578125 356.398996,40.2792969 356.106027,40.1035156 C355.813058,39.8886719 355.64216,39.9033203 355.593332,40.1474609 C355.544503,40.3916016 355.524972,40.7773438 355.534738,41.3046875 C355.544503,41.8320312 355.803292,42.3349609 356.311105,42.8134766 C356.818917,43.2919922 357.512277,43.6044922 358.391183,43.7509766 C359.270089,43.8974609 360.412667,44.0097656 361.818917,44.0878906 Z" id="LAURELDRESS" fill="#000000" fill-rule="nonzero"></path>
    </g>
</svg>