<?xml version="1.0" encoding="UTF-8"?>
<svg width="488px" height="41px" viewBox="0 0 488 41" version="1.1" xmlns="http://www.w3.org/2000/svg" xmlns:xlink="http://www.w3.org/1999/xlink">
    <title>LAVENDERGOWN</title>
    <g id="final-copy" stroke="none" stroke-width="1" fill="none" fill-rule="evenodd">
        <path d="M26.105,40 L26.105,32.19 L25.555,32.19 L25.555,33.675 C25.555,36.535 22.75,39.45 19.89,39.45 L7.845,39.45 L7.845,2.05 L12.96,2.05 L12.96,1.5 L0.2,1.5 L0.2,2.05 L4.765,2.05 L4.765,39.45 L0.2,39.45 L0.2,40 L26.105,40 Z M39.5407143,40 L39.5407143,39.45 L36.9007143,39.45 C35.3057143,39.45 34.1507143,37.69 34.1507143,35.93 C34.1507143,35.545 34.2057143,34.995 34.3707143,34.61 L37.7807143,25.37 L53.1807143,25.37 L58.6257143,39.45 L54.0057143,39.45 L54.0057143,40 L64.5107143,40 L64.5107143,39.45 L61.8157143,39.45 L47.3507143,1.5 L46.0857143,1.5 L31.8407143,39.45 L29.0907143,39.45 L29.0907143,40 L39.5407143,40 Z M53.0157143,24.875 L37.9457143,24.875 L45.4257143,4.91 L53.0157143,24.875 Z M84.8214286,40 L99.0664286,2.05 L101.816429,2.05 L101.816429,1.5 L91.3664286,1.5 L91.3664286,2.05 L93.8414286,2.05 C95.6564286,2.05 96.8114286,3.755 96.8114286,5.57 C96.8114286,6.01 96.7564286,6.56 96.5364286,7.055 L85.4814286,36.37 L72.2814286,2.05 L76.7364286,2.05 L76.7364286,1.5 L66.3964286,1.5 L66.3964286,2.05 L69.0914286,2.05 L83.5564286,40 L84.8214286,40 Z M132.577143,40 L132.577143,32.74 L132.027143,32.74 L132.027143,33.84 C132.027143,36.81 129.222143,39.45 126.252143,39.45 L112.832143,39.45 L112.832143,20.09 L121.082143,20.09 C123.172143,20.09 124.987143,21.96 124.987143,24.105 L124.987143,24.985 L125.537143,24.985 L125.537143,14.645 L124.987143,14.645 L124.987143,15.58 C124.987143,17.67 123.172143,19.54 121.082143,19.54 L112.832143,19.54 L112.832143,2.05 L126.197143,2.05 C128.947143,2.05 131.477143,4.47 131.477143,7.11 L131.477143,8.21 L132.027143,8.21 L132.027143,1.5 L105.242143,1.5 L105.242143,2.05 L109.752143,2.05 L109.752143,39.45 L105.242143,39.45 L105.242143,40 L132.577143,40 Z M168.232857,40.11 L168.232857,5.955 C168.232857,4.03 169.992857,2.05 171.807857,2.05 L172.907857,2.05 L172.907857,1.5 L161.522857,1.5 L161.522857,2.05 L163.997857,2.05 C165.812857,2.05 167.627857,4.03 167.627857,5.955 L167.627857,34.445 L145.957857,1.5 L138.697857,1.5 L138.697857,2.05 L142.327857,2.05 L143.427857,3.48 L143.427857,35.545 C143.427857,37.525 141.667857,39.45 139.852857,39.45 L138.697857,39.45 L138.697857,40 L150.137857,40 L150.137857,39.45 L147.607857,39.45 C145.847857,39.45 143.977857,37.47 143.977857,35.545 L143.977857,4.14 L167.682857,40.11 L168.232857,40.11 Z M193.823571,40 C203.613571,40 210.818571,33.565 210.818571,20.86 C210.818571,7.935 203.613571,1.5 193.823571,1.5 L178.148571,1.5 L178.148571,2.05 L182.658571,2.05 L182.658571,39.45 L178.148571,39.45 L178.148571,40 L193.823571,40 Z M193.823571,39.45 L185.738571,39.45 L185.738571,2.05 L193.823571,2.05 C202.513571,2.05 207.408571,8.155 207.408571,20.86 C207.408571,33.345 202.513571,39.45 193.823571,39.45 Z M245.484286,40 L245.484286,32.74 L244.934286,32.74 L244.934286,33.84 C244.934286,36.81 242.129286,39.45 239.159286,39.45 L225.739286,39.45 L225.739286,20.09 L233.989286,20.09 C236.079286,20.09 237.894286,21.96 237.894286,24.105 L237.894286,24.985 L238.444286,24.985 L238.444286,14.645 L237.894286,14.645 L237.894286,15.58 C237.894286,17.67 236.079286,19.54 233.989286,19.54 L225.739286,19.54 L225.739286,2.05 L239.104286,2.05 C241.854286,2.05 244.384286,4.47 244.384286,7.11 L244.384286,8.21 L244.934286,8.21 L244.934286,1.5 L218.149286,1.5 L218.149286,2.05 L222.659286,2.05 L222.659286,39.45 L218.149286,39.45 L218.149286,40 L245.484286,40 Z M280.37,40.385 C283.67,40.385 284.605,38.625 284.605,35.93 L284.605,33.51 L284.055,33.51 L284.055,35.93 C284.055,38.295 283.45,39.395 281.58,39.395 C279.985,39.395 279.49,38.295 279.49,35.985 C279.49,24.105 276.19,20.86 270.58,20.255 C277.73,19.265 280.7,15.855 280.7,10.795 C280.7,5.02 276.795,1.5 266.07,1.5 L251.605,1.5 L251.605,2.05 L256.115,2.05 L256.115,39.45 L251.605,39.45 L251.605,40 L264.255,40 L264.255,39.45 L259.195,39.45 L259.195,20.475 L266.455,20.475 C274.485,20.475 276.3,22.895 276.3,35.93 C276.3,38.68 277.73,40.385 280.37,40.385 Z M266.455,19.925 L259.195,19.925 L259.195,2.05 L265.465,2.05 C274.54,2.05 277.345,5.02 277.345,10.795 C277.345,16.515 275.31,19.925 266.455,19.925 Z M334.482143,40.55 C339.652143,40.55 344.327143,37.415 344.987143,32.245 C345.647143,33.125 347.242143,37.8 347.242143,40.055 L347.737143,40.055 L347.737143,21.575 L351.917143,21.575 L351.917143,21.025 L335.637143,21.025 L335.637143,21.575 L344.657143,21.575 L344.657143,30.155 C344.657143,36.535 339.982143,40 334.482143,40 C325.792143,40 321.447143,33.345 321.447143,20.86 C321.447143,8.155 326.342143,1.5 335.032143,1.5 C341.632143,1.5 346.362143,6.45 347.132143,12.72 L347.682143,12.72 L347.682143,1.445 L347.242143,1.445 C347.242143,2.49 345.812143,4.305 344.492143,4.305 C344.162143,4.305 343.777143,4.195 343.502143,3.92 C341.577143,2.27 338.882143,0.95 335.032143,0.95 C325.242143,0.95 318.092143,7.935 318.092143,20.86 C318.092143,33.565 324.692143,40.55 334.482143,40.55 Z M375.252857,40.55 C385.097857,40.55 392.247857,33.565 392.247857,20.86 C392.247857,7.935 385.097857,0.95 375.252857,0.95 C365.462857,0.95 358.312857,7.935 358.312857,20.86 C358.312857,33.565 365.462857,40.55 375.252857,40.55 Z M375.252857,40 C366.562857,40 361.667857,33.345 361.667857,20.86 C361.667857,8.155 366.562857,1.5 375.252857,1.5 C383.997857,1.5 388.892857,8.155 388.892857,20.86 C388.892857,33.345 383.997857,40 375.252857,40 Z M416.133571,40 L423.668571,19.87 L431.368571,40 L432.688571,40 L446.933571,2.05 L449.683571,2.05 L449.683571,1.5 L439.178571,1.5 L439.178571,2.05 L441.543571,2.05 C443.193571,2.05 444.623571,3.425 444.623571,5.46 C444.623571,6.065 444.513571,6.725 444.238571,7.44 L433.348571,36.37 L420.148571,2.05 L424.273571,2.05 L424.273571,1.5 L413.988571,1.5 L413.988571,2.05 L416.903571,2.05 L423.283571,18.88 L416.793571,36.37 L403.593571,2.05 L407.828571,2.05 L407.828571,1.5 L397.653571,1.5 L397.653571,2.05 L400.348571,2.05 L414.813571,40 L416.133571,40 Z M482.589286,40.11 L482.589286,5.955 C482.589286,4.03 484.349286,2.05 486.164286,2.05 L487.264286,2.05 L487.264286,1.5 L475.879286,1.5 L475.879286,2.05 L478.354286,2.05 C480.169286,2.05 481.984286,4.03 481.984286,5.955 L481.984286,34.445 L460.314286,1.5 L453.054286,1.5 L453.054286,2.05 L456.684286,2.05 L457.784286,3.48 L457.784286,35.545 C457.784286,37.525 456.024286,39.45 454.209286,39.45 L453.054286,39.45 L453.054286,40 L464.494286,40 L464.494286,39.45 L461.964286,39.45 C460.204286,39.45 458.334286,37.47 458.334286,35.545 L458.334286,4.14 L482.039286,40.11 L482.589286,40.11 Z" id="LAVENDERGOWN" fill="#000000" fill-rule="nonzero"></path>
    </g>
</svg>