<?xml version="1.0" encoding="UTF-8"?>
<svg width="460px" height="55px" viewBox="0 0 460 55" version="1.1" xmlns="http://www.w3.org/2000/svg" xmlns:xlink="http://www.w3.org/1999/xlink">
    <title>LAVENDERDRESS</title>
    <g id="final-copy" stroke="none" stroke-width="1" fill="none" fill-rule="evenodd">
        <path d="M2.28515625,48.7695312 C3.61328125,49.84375 5.38574219,50.2880859 7.60253906,50.1025391 C9.81933594,49.9169922 11.7675781,49.609375 13.4472656,49.1796875 L13.4472656,49.1796875 L15.6152344,48.7988281 L18.6621094,48.1835938 L26.9238281,46.6601562 L27.6269531,46.25 C27.3535156,45.8984375 25.859375,45.8251953 23.1445312,46.0302734 C20.4296875,46.2353516 18.4033203,46.4453125 17.0654297,46.6601562 C15.7275391,46.875 14.3066406,47.1435547 12.8027344,47.4658203 C11.2988281,47.7880859 9.89257812,48.0322266 8.58398438,48.1982422 C7.27539062,48.3642578 6.19140625,48.3740234 5.33203125,48.2275391 C4.47265625,48.0810547 3.77441406,47.6123047 3.23730469,46.8212891 C2.70019531,46.0302734 2.70507812,44.140625 3.25195312,41.1523438 C3.79882812,38.1640625 5.16113281,34.2431641 7.33886719,29.3896484 C9.51660156,24.5361328 11.2792969,20.5078125 12.6269531,17.3046875 C13.9746094,14.1015625 15.2246094,11.484375 16.3769531,9.453125 C15.2050781,7.28515625 14.2773438,7.32421875 13.59375,9.5703125 C13.3203125,10.6054688 12.3583984,12.9541016 10.7080078,16.6162109 C9.05761719,20.2783203 7.15332031,24.6240234 4.99511719,29.6533203 C2.83691406,34.6826172 1.58203125,38.5449219 1.23046875,41.2402344 C0.87890625,43.9355469 0.874023437,45.7714844 1.21582031,46.7480469 C1.55761719,47.7246094 1.9140625,48.3984375 2.28515625,48.7695312 Z M51.5993304,54.4238281 C51.9313616,54.3847656 52.1657366,54.2285156 52.3024554,53.9550781 L52.3024554,53.9550781 L52.390346,53.1347656 C52.468471,51.6113281 52.5368304,50.2050781 52.5954241,48.9160156 C52.6735491,48.3886719 52.7370257,47.8076172 52.7858538,47.1728516 C52.8346819,46.5380859 52.9469866,45.5517578 53.1227679,44.2138672 C53.2985491,42.8759766 53.4792132,41.40625 53.66476,39.8046875 C53.8503069,38.203125 54.0700335,36.8066406 54.3239397,35.6152344 C55.4567522,35.5175781 56.9508929,35.4101562 58.8063616,35.2929688 C61.4430804,35.0195312 63.0641741,34.7558594 63.6696429,34.5019531 C64.2751116,34.2480469 64.2995257,34.0429688 63.742885,33.8867188 C63.1862444,33.7304688 62.3512835,33.671875 61.2380022,33.7109375 C60.124721,33.75 58.9626116,33.7988281 57.7516741,33.8574219 C56.5407366,33.9160156 55.5739397,33.9648438 54.8512835,34.0039062 L54.8512835,34.0039062 L54.4704241,34.0039062 L54.4704241,33.8867188 C54.5876116,33.1054688 54.680385,32.4609375 54.7487444,31.953125 C54.8171038,31.4453125 54.9635882,30.5615234 55.1881975,29.3017578 C55.4128069,28.0419922 55.7106585,26.3671875 56.0817522,24.2773438 C56.452846,22.1875 56.8337054,20.4003906 57.2243304,18.9160156 C57.5758929,17.2753906 58.0446429,15.5175781 58.6305804,13.6425781 C58.9235491,12.6464844 59.6462054,11.2988281 60.7985491,9.59960938 L60.7985491,9.59960938 L60.7985491,8.95507812 C60.5251116,8.56445312 60.0563616,8.30078125 59.3922991,8.1640625 C59.0016741,8.61328125 58.6891741,9.11621094 58.4547991,9.67285156 C58.2204241,10.2294922 57.7126116,11.2304688 56.9313616,12.6757812 C55.7204241,14.7460938 54.8952288,16.1425781 54.4557757,16.8652344 C54.0163225,17.5878906 53.3962054,18.5742188 52.5954241,19.8242188 C51.2282366,21.8164062 50.2223772,23.2666016 49.577846,24.1748047 C48.9333147,25.0830078 48.1618304,26.171875 47.2633929,27.4414062 C46.3649554,28.7109375 45.6862444,29.6533203 45.22726,30.2685547 C44.7682757,30.8837891 44.211635,31.6162109 43.5573382,32.4658203 C42.9030413,33.3154297 41.9118304,34.4433594 40.5837054,35.8496094 C38.4938616,36.3183594 36.8874163,36.6455078 35.7643694,36.8310547 C34.6413225,37.0166016 33.7477679,37.1337891 33.0837054,37.1826172 C32.4196429,37.2314453 31.9606585,37.2558594 31.7067522,37.2558594 C31.452846,37.2558594 31.2575335,37.3242188 31.1208147,37.4609375 C31.1208147,38.3984375 31.7848772,38.8671875 33.1130022,38.8671875 C33.5817522,38.8671875 33.8161272,38.9550781 33.8161272,39.1308594 C35.1442522,39.2089844 36.3063616,39.4238281 37.3024554,39.7753906 C35.7204241,41.4550781 34.5387835,42.6074219 33.7575335,43.2324219 C32.9762835,43.8574219 32.1852679,44.3652344 31.3844866,44.7558594 C30.5837054,45.1464844 30.1833147,45.4394531 30.1833147,45.6347656 C30.2419085,46.3378906 30.749721,46.6894531 31.7067522,46.6894531 C34.1286272,45.0292969 35.7643694,43.7792969 36.6139788,42.9394531 C37.4635882,42.0996094 38.3083147,41.2402344 39.1481585,40.3613281 C40.1833147,40.7324219 41.2575335,41.1914062 42.3708147,41.7382812 C43.8356585,42.6757812 44.9342913,43.5107422 45.6667132,44.2431641 C46.399135,44.9755859 47.0387835,45.6835938 47.5856585,46.3671875 C48.1325335,47.0507812 48.6842913,47.8662109 49.2409319,48.8134766 C49.7975725,49.7607422 50.1540179,50.390625 50.3102679,50.703125 C50.4665179,51.015625 50.5739397,51.3476562 50.6325335,51.6992188 C50.6911272,52.6953125 50.7643694,53.3349609 50.85226,53.6181641 C50.9401507,53.9013672 51.1891741,54.1699219 51.5993304,54.4238281 Z M43.5133929,35.4101562 C44.4313616,34.3164062 45.6911272,32.65625 47.2926897,30.4296875 C48.8356585,28.125 49.8708147,26.6601562 50.3981585,26.0351562 C50.8669085,25.2734375 51.32101,24.5800781 51.7604632,23.9550781 C52.1999163,23.3300781 52.8981585,22.3144531 53.8551897,20.9082031 C54.2458147,20.3417969 54.7633929,19.5898438 55.4079241,18.6523438 L55.4079241,18.6523438 L55.4665179,18.6523438 L55.4665179,18.7109375 L55.1149554,20.6738281 C54.7829241,22.1777344 54.5583147,23.1835938 54.4411272,23.6914062 C54.3239397,24.1992188 54.1286272,25.1660156 53.8551897,26.5917969 C53.6989397,27.7832031 53.562221,28.8769531 53.4450335,29.8730469 L53.4450335,29.8730469 L52.7712054,34.1503906 C51.5602679,34.3261719 50.437221,34.4726562 49.4020647,34.5898438 C47.4489397,34.9023438 45.4860491,35.1757812 43.5133929,35.4101562 Z M51.0133929,49.6191406 C50.5837054,48.7597656 50.1930804,48.0273438 49.8415179,47.421875 C49.4899554,46.8164062 49.0700335,46.2158203 48.5817522,45.6201172 C48.093471,45.0244141 47.468471,44.3603516 46.7067522,43.6279297 C45.9450335,42.8955078 45.1442522,42.2363281 44.3044085,41.6503906 C43.4645647,41.0644531 42.780971,40.6542969 42.2536272,40.4199219 C41.7262835,40.1855469 40.9352679,39.8535156 39.8805804,39.4238281 C40.5641741,38.7597656 41.218471,38.0859375 41.843471,37.4023438 C44.3044085,36.9726562 46.3454241,36.6601562 47.9665179,36.4648438 C49.3532366,36.25 50.5739397,36.0839844 51.6286272,35.9667969 L51.6286272,35.9667969 L52.5368304,35.8789062 L52.3024554,37.1972656 C52.0485491,39.1308594 51.8532366,40.6542969 51.7165179,41.7675781 C51.5797991,42.8808594 51.4333147,44.3359375 51.2770647,46.1328125 C51.140346,47.5 51.0524554,48.6621094 51.0133929,49.6191406 Z M38.0641741,38.8671875 C37.0876116,38.59375 36.5407366,38.4472656 36.4235491,38.4277344 L36.4235491,38.4277344 L36.4235491,38.3691406 C37.4196429,38.1152344 38.327846,37.9296875 39.1481585,37.8125 C38.8161272,38.1445312 38.4547991,38.4960938 38.0641741,38.8671875 Z M68.7455357,49.9414062 C69.4095982,49.84375 69.8490513,49.6630859 70.0638951,49.3994141 C70.2787388,49.1357422 70.561942,48.7792969 70.9135045,48.3300781 L70.9135045,48.3300781 L72.1146763,46.4550781 C77.3643973,36.6950335 80.7859254,30.2327339 82.3792606,27.0681794 L82.6322545,26.5625 C84.0970982,23.6132812 85.7670201,20.2929688 87.6420201,16.6015625 C89.5170201,12.9101562 90.8793248,10.3613281 91.7289342,8.95507812 C92.5785435,7.54882812 93.296317,6.22070312 93.8822545,4.97070312 C93.3158482,5.10742188 92.3246373,6.04980469 90.9086217,7.79785156 C89.492606,9.54589844 88.2865513,11.3769531 87.2904576,13.2910156 C86.2943638,15.2050781 84.9174107,17.8320312 83.1595982,21.171875 C81.4017857,24.5117188 79.3314732,28.5009766 76.9486607,33.1396484 C74.5658482,37.7783203 72.2611607,42.0703125 70.0345982,46.015625 L70.0345982,46.015625 L70.0345982,45.9277344 C70.5228795,43.6230469 70.8451451,41.8847656 71.0013951,40.7128906 C71.1576451,39.5410156 71.2504185,37.6220703 71.2797154,34.9560547 C71.3090123,32.2900391 71.1820592,29.6289062 70.898856,26.9726562 C70.6156529,24.3164062 70.327567,22.1435547 70.0345982,20.4541016 C69.7416295,18.7646484 69.390067,17.1289062 68.9799107,15.546875 C68.5697545,13.9648438 68.1010045,12.7539062 67.5736607,11.9140625 C67.046317,11.0742188 66.4017857,10.6542969 65.640067,10.6542969 L65.640067,10.6542969 L65.5521763,10.6542969 C64.8099888,10.7519531 64.8392857,11.2109375 65.640067,12.03125 C66.4603795,13.0859375 67.046317,14.4726562 67.3978795,16.1914062 C67.749442,17.9101562 68.0765904,19.7949219 68.3793248,21.8457031 C68.6820592,23.8964844 68.9066685,26.2207031 69.0531529,28.8183594 C69.1996373,31.4160156 69.2631138,33.6474609 69.2435826,35.5126953 C69.2240513,37.3779297 69.0922154,39.4287109 68.8480748,41.6650391 C68.6039342,43.9013672 68.2279576,46.2890625 67.7201451,48.828125 C68.0326451,49.4726562 68.374442,49.84375 68.7455357,49.9414062 Z M93.5382255,49.9121094 C95.9015067,50.0097656 98.5870536,50.0097656 101.594866,49.9121094 C105.696429,49.4824219 109.563616,48.4863281 113.196429,46.9238281 C113.860491,46.4941406 113.499163,46.3476562 112.112444,46.484375 C109.807757,46.7773438 107.805804,47.0996094 106.106585,47.4511719 C104.407366,47.8027344 101.546038,48.125 97.5226005,48.4179688 C94.4561942,48.3789062 92.5470145,48.3007812 91.7950614,48.1835938 C91.0431083,48.0664062 90.3546317,47.9199219 89.7296317,47.7441406 C88.8507255,47.1386719 88.5284598,46.3574219 88.7628348,45.4003906 L88.7628348,45.4003906 L89.1436942,44.4921875 C89.7101005,43.6132812 90.1739676,42.9394531 90.5352958,42.4707031 C90.8966239,42.0019531 91.5948661,41.1914062 92.6300223,40.0390625 C93.7237723,38.9648438 94.9444755,37.8417969 96.2921317,36.6699219 C97.639788,35.7128906 98.7042411,34.9121094 99.4854911,34.2675781 C100.266741,33.6230469 101.135882,32.9882812 102.092913,32.3632812 C103.440569,31.5429688 104.690569,30.7128906 105.842913,29.8730469 C107.092913,28.9746094 108.508929,28.0859375 110.09096,27.2070312 C110.87221,26.7773438 111.34096,26.2988281 111.49721,25.7714844 C111.419085,25.0292969 111.057757,24.5800781 110.413225,24.4238281 C109.788225,24.3847656 109.202288,24.4042969 108.655413,24.4824219 C107.561663,24.5605469 106.370257,24.6875 105.081194,24.8632812 L105.081194,24.8632812 L102.444475,24.9804688 C100.510882,24.9609375 99.1339286,24.9023438 98.3136161,24.8046875 C97.4933036,24.7070312 96.5948661,24.5117188 95.6183036,24.21875 C94.7393973,23.6914062 94.280413,23.0810547 94.2413505,22.3876953 C94.202288,21.6943359 94.4024833,20.8984375 94.8419364,20 C95.2813895,19.1015625 96.0675223,17.9833984 97.2003348,16.6455078 C98.3331473,15.3076172 99.6515067,14.2382812 101.155413,13.4375 C103.225725,12.265625 104.90053,11.4648438 106.179827,11.0351562 C107.459124,10.6054688 108.640765,10.2880859 109.724749,10.0830078 C110.808733,9.87792969 111.8976,9.78515625 112.99135,9.8046875 C114.456194,9.765625 115.3351,10.2734375 115.628069,11.328125 C115.862444,12.3046875 116.18471,12.7929688 116.594866,12.7929688 C116.751116,12.734375 116.917132,12.4902344 117.092913,12.0605469 L117.092913,12.0605469 L117.092913,10.859375 C116.995257,10.2539062 116.804827,9.78027344 116.521624,9.43847656 C116.238421,9.09667969 115.881975,8.81835938 115.452288,8.60351562 L115.452288,8.60351562 L113.870257,8.046875 L112.112444,8.046875 C111.038225,8.1640625 110.252093,8.25195312 109.754046,8.31054688 C109.255999,8.36914062 108.225725,8.61328125 106.663225,9.04296875 C105.081194,9.53125 103.596819,10.1464844 102.2101,10.8886719 C99.8858817,12.0214844 97.8351005,13.3496094 96.0577567,14.8730469 L96.0577567,14.8730469 L94.5343192,16.8359375 C93.577288,18.4179688 92.9913505,19.8535156 92.7765067,21.1425781 L92.7765067,21.1425781 L92.6886161,22.34375 C92.8643973,23.8476562 93.5089286,24.8535156 94.6222098,25.3613281 C95.6378348,25.8300781 96.9659598,26.1132812 98.6065848,26.2109375 C100.208147,26.25 101.604632,26.2597656 102.796038,26.2402344 L102.796038,26.2402344 L104.788225,26.2402344 C106.292132,26.1425781 107.424944,26.0351562 108.186663,25.9179688 L108.186663,25.9179688 L109.15346,25.7714844 C108.723772,26.0449219 108.176897,26.4160156 107.512835,26.8847656 C106.712054,27.4316406 105.911272,27.9394531 105.110491,28.4082031 C103.313616,29.4824219 102.175921,30.1708984 101.697405,30.4736328 C101.21889,30.7763672 100.784319,31.0742188 100.393694,31.3671875 C100.003069,31.6601562 99.3536551,32.1289062 98.445452,32.7734375 C97.5372489,33.4179688 96.3458426,34.3261719 94.8712333,35.4980469 C93.3966239,36.6699219 92.3663505,37.5634766 91.780413,38.1787109 C91.1944755,38.7939453 90.5938895,39.4628906 89.9786551,40.1855469 C89.3634208,40.9082031 88.6651786,41.875 87.8839286,43.0859375 C87.5128348,43.7109375 87.2198661,44.5605469 87.0050223,45.6347656 C87.0050223,47.0214844 87.4347098,48.0957031 88.2940848,48.8574219 C89.4268973,49.4628906 91.1749442,49.8144531 93.5382255,49.9121094 Z M135.938337,50 C136.250837,50 136.553571,49.4970703 136.84654,48.4912109 C137.139509,47.4853516 137.452009,46.3183594 137.78404,44.9902344 C138.116071,43.6621094 138.570173,41.9970703 139.146345,39.9951172 C139.722517,37.9931641 140.298689,36.0498047 140.874861,34.1650391 C141.451032,32.2802734 142.03697,30.4101562 142.632673,28.5546875 C143.228376,26.6992187 143.916853,24.6386719 144.698103,22.3730469 C145.479353,20.1074219 146.231306,18.0078125 146.953962,16.0742188 C147.676618,14.140625 148.643415,11.9726563 149.854353,9.5703125 C151.06529,7.16796875 152.07115,5.32226563 152.871931,4.03320312 C153.672712,2.74414063 154.473493,1.69921875 155.274275,0.8984375 C155.137556,0.7421875 154.707868,0.810546875 153.985212,1.10351563 C153.262556,1.37695313 152.276228,2.47070313 151.026228,4.38476562 C149.776228,6.29882813 148.589704,8.34960938 147.466657,10.5371094 C146.343611,12.7246094 145.176618,15.3808594 143.965681,18.5058594 C142.754743,21.6308594 141.651228,24.7509766 140.655134,27.8662109 C139.65904,30.9814453 138.662946,34.2285156 137.666853,37.6074219 C136.670759,40.9863281 135.938337,43.5253906 135.469587,45.2246094 C134.590681,42.9785156 133.628767,40.3271484 132.583845,37.2705078 C131.538923,34.2138672 130.63072,31.5087891 129.859236,29.1552734 C129.087751,26.8017578 128.365095,24.4628906 127.691267,22.1386719 C127.017439,19.8144531 126.431501,17.8125 125.933454,16.1328125 C125.435407,14.453125 125.035017,13.2763672 124.732282,12.6025391 C124.429548,11.9287109 124.03404,11.5429688 123.545759,11.4453125 C123.057478,11.3476563 122.647321,11.5625 122.31529,12.0898438 C122.31529,12.7734375 122.486189,13.1689453 122.827986,13.2763672 C123.169782,13.3837891 123.374861,13.8427734 123.44322,14.6533203 C123.511579,15.4638672 123.526228,16.3378906 123.487165,17.2753906 C123.448103,18.2128906 123.13072,19.9560547 122.535017,22.5048828 C121.939314,25.0537109 121.304548,27.2900391 120.63072,29.2138672 C119.956892,31.1376953 119.126814,32.9980469 118.140486,34.7949219 C117.154157,36.5917969 116.192243,38.0664062 115.254743,39.21875 C114.317243,40.3710938 113.282087,41.4941406 112.149275,42.5878906 C111.13365,43.4667969 111.563337,43.5742188 113.438337,42.9101562 C114.317243,42.2851562 115.235212,41.4648438 116.192243,40.4492188 C117.149275,39.4335938 118.042829,38.28125 118.872907,36.9921875 C119.702986,35.703125 120.537946,34.0869141 121.37779,32.1435547 C122.217634,30.2001953 122.886579,28.3056641 123.384626,26.4599609 C123.882673,24.6142578 124.405134,22.2167969 124.952009,19.2675781 C125.635603,21.9824219 126.216657,24.1162109 126.695173,25.6689453 C127.173689,27.2216797 127.779157,29.0527344 128.511579,31.1621094 C129.244001,33.2714844 130.030134,35.5126953 130.869978,37.8857422 C131.709821,40.2587891 132.461775,42.4023438 133.125837,44.3164062 C133.7899,46.2304688 134.317243,47.6074219 134.707868,48.4472656 C134.825056,49.4824219 135.235212,50 135.938337,50 Z M162.693917,48.7695312 C162.518136,49.7265625 162.640206,50.1367188 163.060128,50 C163.48005,49.8632812 163.807199,49.3847656 164.041574,48.5644531 C165.994699,48.2128906 167.996652,47.6953125 170.047433,47.0117188 C172.098214,46.328125 173.987863,45.6640625 175.716378,45.0195312 C177.444894,44.375 178.748605,43.8378906 179.627511,43.4082031 C180.506417,42.9785156 182.190988,41.9824219 184.681222,40.4199219 C187.171456,38.8574219 189.266183,37.0556641 190.965402,35.0146484 C192.664621,32.9736328 193.641183,30.9423828 193.895089,28.9208984 C194.148996,26.8994141 194.007394,25.0439453 193.470285,23.3544922 C192.933175,21.6650391 192.068917,19.9365234 190.877511,18.1689453 C189.686105,16.4013672 188.191964,14.8486328 186.395089,13.5107422 C184.598214,12.1728516 182.742746,11.0888672 180.828683,10.2587891 C178.914621,9.42871094 177.29841,8.89160156 175.98005,8.64746094 C174.661691,8.40332031 172.723214,8.203125 170.164621,8.046875 C167.625558,7.87109375 165.062081,7.98828125 162.474191,8.3984375 C159.8863,8.80859375 157.982003,9.25292969 156.7613,9.73144531 C155.540597,10.2099609 154.471261,10.8300781 153.553292,11.5917969 C152.635324,12.3535156 152.26423,13.4277344 152.440011,14.8144531 C152.693917,15.8496094 153.274972,16.5087891 154.183175,16.7919922 C155.091378,17.0751953 155.286691,16.7529297 154.769113,15.8251953 C154.251535,14.8974609 154.158761,14.21875 154.490792,13.7890625 C155.38923,12.8710938 156.238839,12.2265625 157.039621,11.8554688 C157.840402,11.484375 158.997628,11.1181641 160.5113,10.7568359 C162.024972,10.3955078 163.807199,10.1416016 165.85798,9.99511719 C167.908761,9.84863281 169.861886,9.86816406 171.717355,10.0537109 C173.572824,10.2392578 175.691964,10.6787109 178.074777,11.3720703 C180.457589,12.0654297 182.73298,13.2861328 184.900949,15.0341797 C187.068917,16.7822266 188.660714,18.5644531 189.676339,20.3808594 C190.691964,22.1972656 191.32673,23.7304688 191.580636,24.9804688 C191.834542,26.2304688 191.898019,27.5439453 191.771066,28.9208984 C191.644113,30.2978516 191.009347,31.6894531 189.866769,33.0957031 C188.724191,34.5019531 187.513253,35.7470703 186.233956,36.8310547 C184.95466,37.9150391 183.563058,38.9208984 182.059152,39.8486328 C180.555246,40.7763672 178.470285,41.8115234 175.804269,42.9541016 C173.138253,44.0966797 169.422433,45.3515625 164.656808,46.71875 C165.398996,43.5546875 165.994699,40.9277344 166.443917,38.8378906 C166.893136,36.7480469 167.327706,34.7021484 167.747628,32.7001953 C168.16755,30.6982422 168.607003,28.5546875 169.065988,26.2695312 C169.524972,23.984375 170.07673,21.5185547 170.721261,18.8720703 C171.365792,16.2255859 171.356027,14.5654297 170.691964,13.8916016 C170.027902,13.2177734 169.583566,13.2861328 169.358956,14.0966797 C169.335313,14.1820004 169.310318,14.2757071 169.283969,14.3777998 L169.200867,14.709236 C168.982966,15.6007212 168.688983,16.9639186 168.318917,18.7988281 C167.850167,21.1230469 167.391183,23.359375 166.941964,25.5078125 C166.492746,27.65625 166.067941,29.7802734 165.66755,31.8798828 C165.26716,33.9794922 164.808175,36.4355469 164.290597,39.2480469 C163.773019,42.0605469 163.35798,44.6289062 163.04548,46.953125 C160.350167,47.265625 158.069894,47.3046875 156.20466,47.0703125 C154.339425,46.8359375 153.797433,47.0263672 154.578683,47.6416016 C155.359933,48.2568359 156.190011,48.6279297 157.068917,48.7548828 C157.947824,48.8818359 158.797433,48.9306641 159.617746,48.9013672 C160.438058,48.8720703 161.463449,48.828125 162.693917,48.7695312 Z M200.406529,49.9121094 C202.76981,50.0097656 205.455357,50.0097656 208.46317,49.9121094 C212.564732,49.4824219 216.43192,48.4863281 220.064732,46.9238281 C220.728795,46.4941406 220.367467,46.3476562 218.980748,46.484375 C216.67606,46.7773438 214.674107,47.0996094 212.974888,47.4511719 C211.27567,47.8027344 208.414342,48.125 204.390904,48.4179688 C201.324498,48.3789062 199.415318,48.3007812 198.663365,48.1835938 C197.911412,48.0664062 197.222935,47.9199219 196.597935,47.7441406 C195.719029,47.1386719 195.396763,46.3574219 195.631138,45.4003906 L195.631138,45.4003906 L196.011998,44.4921875 C196.578404,43.6132812 197.042271,42.9394531 197.403599,42.4707031 C197.764927,42.0019531 198.46317,41.1914062 199.498326,40.0390625 C200.592076,38.9648438 201.812779,37.8417969 203.160435,36.6699219 C204.508092,35.7128906 205.572545,34.9121094 206.353795,34.2675781 C207.135045,33.6230469 208.004185,32.9882812 208.961217,32.3632812 C210.308873,31.5429688 211.558873,30.7128906 212.711217,29.8730469 C213.961217,28.9746094 215.377232,28.0859375 216.959263,27.2070312 C217.740513,26.7773438 218.209263,26.2988281 218.365513,25.7714844 C218.287388,25.0292969 217.92606,24.5800781 217.281529,24.4238281 C216.656529,24.3847656 216.070592,24.4042969 215.523717,24.4824219 C214.429967,24.5605469 213.23856,24.6875 211.949498,24.8632812 L211.949498,24.8632812 L209.312779,24.9804688 C207.379185,24.9609375 206.002232,24.9023438 205.18192,24.8046875 C204.361607,24.7070312 203.46317,24.5117188 202.486607,24.21875 C201.607701,23.6914062 201.148717,23.0810547 201.109654,22.3876953 C201.070592,21.6943359 201.270787,20.8984375 201.71024,20 C202.149693,19.1015625 202.935826,17.9833984 204.068638,16.6455078 C205.201451,15.3076172 206.51981,14.2382812 208.023717,13.4375 C210.094029,12.265625 211.768834,11.4648438 213.048131,11.0351562 C214.327427,10.6054688 215.509068,10.2880859 216.593052,10.0830078 C217.677037,9.87792969 218.765904,9.78515625 219.859654,9.8046875 C221.324498,9.765625 222.203404,10.2734375 222.496373,11.328125 C222.730748,12.3046875 223.053013,12.7929688 223.46317,12.7929688 C223.61942,12.734375 223.785435,12.4902344 223.961217,12.0605469 L223.961217,12.0605469 L223.961217,10.859375 C223.86356,10.2539062 223.673131,9.78027344 223.389927,9.43847656 C223.106724,9.09667969 222.750279,8.81835938 222.320592,8.60351562 L222.320592,8.60351562 L220.73856,8.046875 L218.980748,8.046875 C217.906529,8.1640625 217.120396,8.25195312 216.622349,8.31054688 C216.124302,8.36914062 215.094029,8.61328125 213.531529,9.04296875 C211.949498,9.53125 210.465123,10.1464844 209.078404,10.8886719 C206.754185,12.0214844 204.703404,13.3496094 202.92606,14.8730469 L202.92606,14.8730469 L201.402623,16.8359375 C200.445592,18.4179688 199.859654,19.8535156 199.64481,21.1425781 L199.64481,21.1425781 L199.55692,22.34375 C199.732701,23.8476562 200.377232,24.8535156 201.490513,25.3613281 C202.506138,25.8300781 203.834263,26.1132812 205.474888,26.2109375 C207.076451,26.25 208.472935,26.2597656 209.664342,26.2402344 L209.664342,26.2402344 L211.656529,26.2402344 C213.160435,26.1425781 214.293248,26.0351562 215.054967,25.9179688 L215.054967,25.9179688 L216.021763,25.7714844 C215.592076,26.0449219 215.045201,26.4160156 214.381138,26.8847656 C213.580357,27.4316406 212.779576,27.9394531 211.978795,28.4082031 C210.18192,29.4824219 209.044224,30.1708984 208.565709,30.4736328 C208.087193,30.7763672 207.652623,31.0742188 207.261998,31.3671875 C206.871373,31.6601562 206.221959,32.1289062 205.313756,32.7734375 C204.405552,33.4179688 203.214146,34.3261719 201.739537,35.4980469 C200.264927,36.6699219 199.234654,37.5634766 198.648717,38.1787109 C198.062779,38.7939453 197.462193,39.4628906 196.846959,40.1855469 C196.231724,40.9082031 195.533482,41.875 194.752232,43.0859375 C194.381138,43.7109375 194.08817,44.5605469 193.873326,45.6347656 C193.873326,47.0214844 194.303013,48.0957031 195.162388,48.8574219 C196.295201,49.4628906 198.043248,49.8144531 200.406529,49.9121094 Z M228.597656,53.4863281 C228.949219,53.3300781 229.183594,53.1787109 229.300781,53.0322266 C229.417969,52.8857422 229.603516,52.5292969 229.857422,51.9628906 C230.619141,48.6621094 231.19043,45.8496094 231.571289,43.5253906 C231.952148,41.2011719 232.21582,39.5947266 232.362305,38.7060547 C232.508789,37.8173828 232.806641,35.7519531 233.255859,32.5097656 C237.298828,35.4589844 240.169922,37.7001953 241.869141,39.2333984 C243.568359,40.7666016 245.902344,42.5830078 248.871094,44.6826172 C251.839844,46.7822266 254.808594,48.2617188 257.777344,49.1210938 C259.007813,49.21875 259.085938,48.9355469 258.011719,48.2714844 C257.210938,47.9980469 256.039063,47.4072266 254.496094,46.4990234 C252.953125,45.5908203 251.019531,44.2431641 248.695313,42.4560547 C246.371094,40.6689453 243.954102,38.7451172 241.444336,36.6845703 C238.93457,34.6240234 236.292969,32.6855469 233.519531,30.8691406 C233.65625,29.9902344 233.792969,29.1894531 233.929688,28.4667969 C235.277344,28.1542969 237.015625,27.5732422 239.144531,26.7236328 C241.273438,25.8740234 242.943359,25.0878906 244.154297,24.3652344 C245.365234,23.6425781 246.532227,22.7099609 247.655273,21.5673828 C248.77832,20.4248047 249.583984,19.4335938 250.072266,18.59375 C250.560547,17.7539062 250.838867,16.9042969 250.907227,16.0449219 C250.975586,15.1855469 250.936523,14.4921875 250.790039,13.9648438 C250.643555,13.4375 250.316406,12.8125 249.808594,12.0898438 C249.300781,11.3671875 248.46582,10.6835938 247.303711,10.0390625 C246.141602,9.39453125 244.632813,8.93554688 242.777344,8.66210938 C240.921875,8.38867188 238.929688,8.23242188 236.800781,8.19335938 C236.507813,7.11914063 236.117188,6.53320313 235.628906,6.43554688 C235.140625,6.31835938 234.945313,6.484375 235.042969,6.93359375 L235.042969,6.93359375 L235.042969,7.78320313 L234.925781,8.48632812 C234.203125,8.70117188 233.421875,8.95019531 232.582031,9.23339844 C231.742188,9.51660156 230.726563,9.99511719 229.535156,10.6689453 C228.34375,11.3427734 227.635742,11.9140625 227.411133,12.3828125 C227.186523,12.8515625 227.074219,13.2617188 227.074219,13.6132812 C227.074219,13.9648438 227.142578,14.2333984 227.279297,14.4189453 C227.416016,14.6044922 227.606445,15.0048828 227.850586,15.6201172 C228.094727,16.2353516 228.402344,16.9238281 228.773438,17.6855469 C229.164063,17.3339844 229.28125,16.9287109 229.125,16.4697266 C228.96875,16.0107422 228.758789,15.3955078 228.495117,14.6240234 C228.231445,13.8525391 228.412109,13.2128906 229.037109,12.7050781 C229.662109,12.1972656 230.301758,11.7724609 230.956055,11.4306641 C231.610352,11.0888672 232.894531,10.6347656 234.808594,10.0683594 C234.222656,13.7988281 233.832031,16.2060547 233.636719,17.2900391 C233.441406,18.3740234 233.231445,19.6923828 233.006836,21.2451172 C232.989558,21.3645583 232.972021,21.4862241 232.954223,21.6101146 L232.844316,22.3801544 C232.655938,23.7080483 232.441557,25.2584135 232.201172,27.03125 C230.521484,27.3632812 229.188477,27.5830078 228.202148,27.6904297 C227.21582,27.7978516 226.268555,27.8710938 225.360352,27.9101562 C224.452148,27.9492188 224.007813,28.1542969 224.027344,28.5253906 C224.046875,28.8964844 224.271484,29.3457031 224.701172,29.8730469 C225.208984,29.8730469 225.765625,29.8242188 226.371094,29.7265625 C227.328125,29.7265625 228.382813,29.9707031 229.535156,30.4589844 L229.535156,30.4589844 L231.46875,31.484375 C230.960938,35.2734375 230.482422,38.5253906 230.033203,41.2402344 C229.583984,43.9550781 229.173828,46.25 228.802734,48.125 C228.431641,50 228.109375,51.5820312 227.835938,52.8710938 L227.835938,52.8710938 L228.333984,53.4863281 L228.597656,53.4863281 Z M234.28125,26.4453125 C234.554688,24.609375 234.774414,23.1152344 234.94043,21.9628906 C235.014214,21.4507378 235.093786,20.8971113 235.179145,20.302011 L235.311523,19.3782552 C235.379883,18.9008247 235.451497,18.4000651 235.526367,17.8759766 C235.58252,17.4829102 235.63562,17.1112061 235.685669,16.7608643 L235.82666,15.7739258 C235.914551,15.1586914 235.990234,14.6289063 236.053711,14.1845703 C236.180664,13.2958984 236.400391,11.8652344 236.712891,9.89257813 C238.138672,9.75585938 239.710938,9.8046875 241.429688,10.0390625 C243.148438,10.2734375 244.432617,10.5273438 245.282227,10.8007813 C246.131836,11.0742188 247.025391,11.5039063 247.962891,12.0898438 C248.822266,13.1445313 249.291016,13.9501953 249.369141,14.5068359 C249.447266,15.0634766 249.359375,15.7373047 249.105469,16.5283203 C248.851563,17.3193359 248.319336,18.1933594 247.508789,19.1503906 C246.698242,20.1074219 245.716797,21.0205078 244.564453,21.8896484 C243.412109,22.7587891 241.922852,23.5986328 240.09668,24.4091797 C238.270508,25.2197266 236.332031,25.8984375 234.28125,26.4453125 Z M231.791016,29.7558594 C231.498047,29.5996094 231.107422,29.4335938 230.619141,29.2578125 C231.048828,29.1601562 231.478516,29.0527344 231.908203,28.9355469 L231.908203,28.9355469 L231.791016,29.7558594 Z M295.299944,48.7695312 C295.124163,49.7265625 295.246233,50.1367188 295.666155,50 C296.086077,49.8632812 296.413225,49.3847656 296.6476,48.5644531 C298.600725,48.2128906 300.602679,47.6953125 302.65346,47.0117188 C304.704241,46.328125 306.59389,45.6640625 308.322405,45.0195312 C310.050921,44.375 311.354632,43.8378906 312.233538,43.4082031 C313.112444,42.9785156 314.797015,41.9824219 317.287249,40.4199219 C319.777483,38.8574219 321.87221,37.0556641 323.571429,35.0146484 C325.270647,32.9736328 326.24721,30.9423828 326.501116,28.9208984 C326.755022,26.8994141 326.613421,25.0439453 326.076311,23.3544922 C325.539202,21.6650391 324.674944,19.9365234 323.483538,18.1689453 C322.292132,16.4013672 320.797991,14.8486328 319.001116,13.5107422 C317.204241,12.1728516 315.348772,11.0888672 313.43471,10.2587891 C311.520647,9.42871094 309.904436,8.89160156 308.586077,8.64746094 C307.267718,8.40332031 305.329241,8.203125 302.770647,8.046875 C300.231585,7.87109375 297.668108,7.98828125 295.080218,8.3984375 C292.492327,8.80859375 290.58803,9.25292969 289.367327,9.73144531 C288.146624,10.2099609 287.077288,10.8300781 286.159319,11.5917969 C285.24135,12.3535156 284.870257,13.4277344 285.046038,14.8144531 C285.299944,15.8496094 285.880999,16.5087891 286.789202,16.7919922 C287.697405,17.0751953 287.892718,16.7529297 287.37514,15.8251953 C286.857561,14.8974609 286.764788,14.21875 287.096819,13.7890625 C287.995257,12.8710938 288.844866,12.2265625 289.645647,11.8554688 C290.446429,11.484375 291.603655,11.1181641 293.117327,10.7568359 C294.630999,10.3955078 296.413225,10.1416016 298.464007,9.99511719 C300.514788,9.84863281 302.467913,9.86816406 304.323382,10.0537109 C306.17885,10.2392578 308.297991,10.6787109 310.680804,11.3720703 C313.063616,12.0654297 315.339007,13.2861328 317.506975,15.0341797 C319.674944,16.7822266 321.266741,18.5644531 322.282366,20.3808594 C323.297991,22.1972656 323.932757,23.7304688 324.186663,24.9804688 C324.440569,26.2304688 324.504046,27.5439453 324.377093,28.9208984 C324.25014,30.2978516 323.615374,31.6894531 322.472796,33.0957031 C321.330218,34.5019531 320.11928,35.7470703 318.839983,36.8310547 C317.560686,37.9150391 316.169085,38.9208984 314.665179,39.8486328 C313.161272,40.7763672 311.076311,41.8115234 308.410296,42.9541016 C305.74428,44.0966797 302.02846,45.3515625 297.262835,46.71875 C298.005022,43.5546875 298.600725,40.9277344 299.049944,38.8378906 C299.499163,36.7480469 299.933733,34.7021484 300.353655,32.7001953 C300.773577,30.6982422 301.21303,28.5546875 301.672015,26.2695312 C302.130999,23.984375 302.682757,21.5185547 303.327288,18.8720703 C303.971819,16.2255859 303.962054,14.5654297 303.297991,13.8916016 C302.633929,13.2177734 302.189593,13.2861328 301.964983,14.0966797 C301.94134,14.1820004 301.916345,14.2757071 301.889996,14.3777998 L301.806894,14.709236 C301.588993,15.6007212 301.29501,16.9639186 300.924944,18.7988281 C300.456194,21.1230469 299.99721,23.359375 299.547991,25.5078125 C299.098772,27.65625 298.673968,29.7802734 298.273577,31.8798828 C297.873186,33.9794922 297.414202,36.4355469 296.896624,39.2480469 C296.379046,42.0605469 295.964007,44.6289062 295.651507,46.953125 C292.956194,47.265625 290.675921,47.3046875 288.810686,47.0703125 C286.945452,46.8359375 286.40346,47.0263672 287.18471,47.6416016 C287.96596,48.2568359 288.796038,48.6279297 289.674944,48.7548828 C290.55385,48.8818359 291.40346,48.9306641 292.223772,48.9013672 C293.044085,48.8720703 294.069475,48.828125 295.299944,48.7695312 Z M335.151228,53.4863281 C335.50279,53.3300781 335.737165,53.1787109 335.854353,53.0322266 C335.97154,52.8857422 336.157087,52.5292969 336.410993,51.9628906 C337.172712,48.6621094 337.744001,45.8496094 338.124861,43.5253906 C338.50572,41.2011719 338.769392,39.5947266 338.915876,38.7060547 C339.062361,37.8173828 339.360212,35.7519531 339.809431,32.5097656 C343.8524,35.4589844 346.723493,37.7001953 348.422712,39.2333984 C350.121931,40.7666016 352.455915,42.5830078 355.424665,44.6826172 C358.393415,46.7822266 361.362165,48.2617188 364.330915,49.1210938 C365.561384,49.21875 365.639509,48.9355469 364.56529,48.2714844 C363.764509,47.9980469 362.592634,47.4072266 361.049665,46.4990234 C359.506696,45.5908203 357.573103,44.2431641 355.248884,42.4560547 C352.924665,40.6689453 350.507673,38.7451172 347.997907,36.6845703 C345.488142,34.6240234 342.84654,32.6855469 340.073103,30.8691406 C340.209821,29.9902344 340.34654,29.1894531 340.483259,28.4667969 C341.830915,28.1542969 343.569196,27.5732422 345.698103,26.7236328 C347.827009,25.8740234 349.496931,25.0878906 350.707868,24.3652344 C351.918806,23.6425781 353.085798,22.7099609 354.208845,21.5673828 C355.331892,20.4248047 356.137556,19.4335938 356.625837,18.59375 C357.114118,17.7539062 357.392439,16.9042969 357.460798,16.0449219 C357.529157,15.1855469 357.490095,14.4921875 357.343611,13.9648438 C357.197126,13.4375 356.869978,12.8125 356.362165,12.0898438 C355.854353,11.3671875 355.019392,10.6835938 353.857282,10.0390625 C352.695173,9.39453125 351.186384,8.93554688 349.330915,8.66210938 C347.475446,8.38867188 345.483259,8.23242188 343.354353,8.19335938 C343.061384,7.11914063 342.670759,6.53320313 342.182478,6.43554688 C341.694196,6.31835938 341.498884,6.484375 341.59654,6.93359375 L341.59654,6.93359375 L341.59654,7.78320313 L341.479353,8.48632812 C340.756696,8.70117188 339.975446,8.95019531 339.135603,9.23339844 C338.295759,9.51660156 337.280134,9.99511719 336.088728,10.6689453 C334.897321,11.3427734 334.189314,11.9140625 333.964704,12.3828125 C333.740095,12.8515625 333.62779,13.2617188 333.62779,13.6132812 C333.62779,13.9648438 333.69615,14.2333984 333.832868,14.4189453 C333.969587,14.6044922 334.160017,15.0048828 334.404157,15.6201172 C334.648298,16.2353516 334.955915,16.9238281 335.327009,17.6855469 C335.717634,17.3339844 335.834821,16.9287109 335.678571,16.4697266 C335.522321,16.0107422 335.312361,15.3955078 335.048689,14.6240234 C334.785017,13.8525391 334.965681,13.2128906 335.590681,12.7050781 C336.215681,12.1972656 336.855329,11.7724609 337.509626,11.4306641 C338.163923,11.0888672 339.448103,10.6347656 341.362165,10.0683594 C340.776228,13.7988281 340.385603,16.2060547 340.19029,17.2900391 C339.994978,18.3740234 339.785017,19.6923828 339.560407,21.2451172 C339.54313,21.3645583 339.525592,21.4862241 339.507794,21.6101146 L339.397888,22.3801544 C339.209509,23.7080483 338.995128,25.2584135 338.754743,27.03125 C337.075056,27.3632812 335.742048,27.5830078 334.75572,27.6904297 C333.769392,27.7978516 332.822126,27.8710938 331.913923,27.9101562 C331.00572,27.9492188 330.561384,28.1542969 330.580915,28.5253906 C330.600446,28.8964844 330.825056,29.3457031 331.254743,29.8730469 C331.762556,29.8730469 332.319196,29.8242188 332.924665,29.7265625 C333.881696,29.7265625 334.936384,29.9707031 336.088728,30.4589844 L336.088728,30.4589844 L338.022321,31.484375 C337.514509,35.2734375 337.035993,38.5253906 336.586775,41.2402344 C336.137556,43.9550781 335.7274,46.25 335.356306,48.125 C334.985212,50 334.662946,51.5820312 334.389509,52.8710938 L334.389509,52.8710938 L334.887556,53.4863281 L335.151228,53.4863281 Z M340.834821,26.4453125 C341.108259,24.609375 341.327986,23.1152344 341.494001,21.9628906 C341.660017,20.8105469 341.855329,19.4482422 342.079939,17.8759766 C342.136091,17.4829102 342.189192,17.1112061 342.23924,16.7608643 L342.380232,15.7739258 C342.468122,15.1586914 342.543806,14.6289063 342.607282,14.1845703 C342.734236,13.2958984 342.953962,11.8652344 343.266462,9.89257813 C344.692243,9.75585938 346.264509,9.8046875 347.983259,10.0390625 C349.702009,10.2734375 350.986189,10.5273438 351.835798,10.8007813 C352.685407,11.0742188 353.578962,11.5039063 354.516462,12.0898438 C355.375837,13.1445313 355.844587,13.9501953 355.922712,14.5068359 C356.000837,15.0634766 355.912946,15.7373047 355.65904,16.5283203 C355.405134,17.3193359 354.872907,18.1933594 354.062361,19.1503906 C353.251814,20.1074219 352.270368,21.0205078 351.118025,21.8896484 C349.965681,22.7587891 348.476423,23.5986328 346.650251,24.4091797 C344.824079,25.2197266 342.885603,25.8984375 340.834821,26.4453125 Z M338.344587,29.7558594 C338.051618,29.5996094 337.660993,29.4335938 337.172712,29.2578125 C337.6024,29.1601562 338.032087,29.0527344 338.461775,28.9355469 L338.461775,28.9355469 L338.344587,29.7558594 Z M373.127511,49.9121094 C375.490792,50.0097656 378.176339,50.0097656 381.184152,49.9121094 C385.285714,49.4824219 389.152902,48.4863281 392.785714,46.9238281 C393.449777,46.4941406 393.088449,46.3476562 391.70173,46.484375 C389.397042,46.7773438 387.395089,47.0996094 385.695871,47.4511719 C383.996652,47.8027344 381.135324,48.125 377.111886,48.4179688 C374.04548,48.3789062 372.1363,48.3007812 371.384347,48.1835938 C370.632394,48.0664062 369.943917,47.9199219 369.318917,47.7441406 C368.440011,47.1386719 368.117746,46.3574219 368.352121,45.4003906 L368.352121,45.4003906 L368.73298,44.4921875 C369.299386,43.6132812 369.763253,42.9394531 370.124582,42.4707031 C370.48591,42.0019531 371.184152,41.1914062 372.219308,40.0390625 C373.313058,38.9648438 374.533761,37.8417969 375.881417,36.6699219 C377.229074,35.7128906 378.293527,34.9121094 379.074777,34.2675781 C379.856027,33.6230469 380.725167,32.9882812 381.682199,32.3632812 C383.029855,31.5429688 384.279855,30.7128906 385.432199,29.8730469 C386.682199,28.9746094 388.098214,28.0859375 389.680246,27.2070312 C390.461496,26.7773438 390.930246,26.2988281 391.086496,25.7714844 C391.008371,25.0292969 390.647042,24.5800781 390.002511,24.4238281 C389.377511,24.3847656 388.791574,24.4042969 388.244699,24.4824219 C387.150949,24.5605469 385.959542,24.6875 384.67048,24.8632812 L384.67048,24.8632812 L382.033761,24.9804688 C380.100167,24.9609375 378.723214,24.9023438 377.902902,24.8046875 C377.082589,24.7070312 376.184152,24.5117188 375.207589,24.21875 C374.328683,23.6914062 373.869699,23.0810547 373.830636,22.3876953 C373.791574,21.6943359 373.991769,20.8984375 374.431222,20 C374.870675,19.1015625 375.656808,17.9833984 376.789621,16.6455078 C377.922433,15.3076172 379.240792,14.2382812 380.744699,13.4375 C382.815011,12.265625 384.489816,11.4648438 385.769113,11.0351562 C387.04841,10.6054688 388.23005,10.2880859 389.314035,10.0830078 C390.398019,9.87792969 391.486886,9.78515625 392.580636,9.8046875 C394.04548,9.765625 394.924386,10.2734375 395.217355,11.328125 C395.45173,12.3046875 395.773996,12.7929688 396.184152,12.7929688 C396.340402,12.734375 396.506417,12.4902344 396.682199,12.0605469 L396.682199,12.0605469 L396.682199,10.859375 C396.584542,10.2539062 396.394113,9.78027344 396.11091,9.43847656 C395.827707,9.09667969 395.471261,8.81835938 395.041574,8.60351562 L395.041574,8.60351562 L393.459542,8.046875 L391.70173,8.046875 C390.627511,8.1640625 389.841378,8.25195312 389.343332,8.31054688 C388.845285,8.36914062 387.815011,8.61328125 386.252511,9.04296875 C384.67048,9.53125 383.186105,10.1464844 381.799386,10.8886719 C379.475167,12.0214844 377.424386,13.3496094 375.647042,14.8730469 L375.647042,14.8730469 L374.123605,16.8359375 C373.166574,18.4179688 372.580636,19.8535156 372.365792,21.1425781 L372.365792,21.1425781 L372.277902,22.34375 C372.453683,23.8476562 373.098214,24.8535156 374.211496,25.3613281 C375.227121,25.8300781 376.555246,26.1132812 378.195871,26.2109375 C379.797433,26.25 381.193917,26.2597656 382.385324,26.2402344 L382.385324,26.2402344 L384.377511,26.2402344 C385.881417,26.1425781 387.01423,26.0351562 387.775949,25.9179688 L387.775949,25.9179688 L388.742746,25.7714844 C388.313058,26.0449219 387.766183,26.4160156 387.102121,26.8847656 C386.301339,27.4316406 385.500558,27.9394531 384.699777,28.4082031 C382.902902,29.4824219 381.765207,30.1708984 381.286691,30.4736328 C380.808175,30.7763672 380.373605,31.0742188 379.98298,31.3671875 C379.592355,31.6601562 378.942941,32.1289062 378.034738,32.7734375 C377.126535,33.4179688 375.935128,34.3261719 374.460519,35.4980469 C372.98591,36.6699219 371.955636,37.5634766 371.369699,38.1787109 C370.783761,38.7939453 370.183175,39.4628906 369.567941,40.1855469 C368.952707,40.9082031 368.254464,41.875 367.473214,43.0859375 C367.102121,43.7109375 366.809152,44.5605469 366.594308,45.6347656 C366.594308,47.0214844 367.023996,48.0957031 367.883371,48.8574219 C369.016183,49.4628906 370.76423,49.8144531 373.127511,49.9121094 Z M401.318638,50.0878906 C402.724888,50.1660156 404.345982,50.0439453 406.18192,49.7216797 C408.017857,49.3994141 409.77567,48.8671875 411.455357,48.125 C413.135045,47.3828125 414.663365,46.5185547 416.040318,45.5322266 C417.417271,44.5458984 418.637974,43.4375 419.702427,42.2070312 C420.766881,40.9765625 421.440709,39.9316406 421.723912,39.0722656 C422.007115,38.2128906 421.96317,37.3974609 421.592076,36.6259766 C421.220982,35.8544922 420.810826,35.234375 420.361607,34.765625 C419.912388,34.296875 419.350865,33.7744141 418.677037,33.1982422 C418.003209,32.6220703 417.339146,32.0751953 416.684849,31.5576172 C416.030552,31.0400391 415.078404,30.234375 413.828404,29.140625 C412.578404,28.046875 411.396763,26.7724609 410.283482,25.3173828 C409.170201,23.8623047 408.403599,22.6171875 407.983677,21.5820312 C407.563756,20.546875 407.451451,19.3164063 407.646763,17.890625 C407.842076,16.4648438 408.574498,15.1220703 409.844029,13.8623047 C411.11356,12.6025391 412.925084,11.5820313 415.278599,10.8007813 C417.632115,10.0195313 419.883092,9.58496094 422.031529,9.49707031 C424.179967,9.40917969 425.683873,9.87304688 426.543248,10.8886719 C427.851842,11.8652344 428.30106,13.2617188 427.890904,15.078125 C426.953404,16.9726562 425.127232,18.90625 422.412388,20.8789062 C422.412388,21.0742188 422.666295,21.09375 423.174107,20.9375 C424.599888,20.4492188 425.86942,19.5800781 426.982701,18.3300781 C428.095982,17.0800781 428.789342,16.1425781 429.062779,15.5175781 C429.746373,14.6386719 429.917271,13.6035156 429.575474,12.4121094 C429.233677,11.2207031 428.428013,10.1904297 427.158482,9.32128906 C425.888951,8.45214844 424.189732,8.02734375 422.060826,8.046875 C419.93192,8.06640625 418.008092,8.33007813 416.289342,8.83789063 C414.570592,9.34570313 413.076451,9.92675781 411.80692,10.5810547 C410.537388,11.2353516 409.531529,11.9042969 408.789342,12.5878906 C408.047154,13.2714844 407.427037,13.9990234 406.92899,14.7705078 C406.430943,15.5419922 406.11356,16.5087891 405.976842,17.6708984 C405.840123,18.8330078 405.971959,20.1855469 406.372349,21.7285156 C406.77274,23.2714844 407.573521,24.7558594 408.774693,26.1816406 C409.975865,27.6074219 411.308873,28.9746094 412.773717,30.2832031 C415.234654,32.3925781 417.026646,33.9208984 418.149693,34.8681641 C419.27274,35.8154297 419.834263,36.7773438 419.834263,37.7539062 C419.834263,38.7304688 419.155552,40.0341797 417.798131,41.6650391 C416.440709,43.2958984 414.409459,44.7851562 411.704381,46.1328125 C408.999302,47.4804688 406.264927,48.2373047 403.501256,48.4033203 C400.737584,48.5693359 398.428013,48.28125 396.572545,47.5390625 C396.220982,46.7578125 395.898717,46.2792969 395.605748,46.1035156 C395.312779,45.8886719 395.141881,45.9033203 395.093052,46.1474609 C395.044224,46.3916016 395.024693,46.7773438 395.034459,47.3046875 C395.044224,47.8320312 395.303013,48.3349609 395.810826,48.8134766 C396.318638,49.2919922 397.011998,49.6044922 397.890904,49.7509766 C398.76981,49.8974609 399.912388,50.0097656 401.318638,50.0878906 Z M431.472656,50.0878906 C432.878906,50.1660156 434.5,50.0439453 436.335938,49.7216797 C438.171875,49.3994141 439.929688,48.8671875 441.609375,48.125 C443.289063,47.3828125 444.817383,46.5185547 446.194336,45.5322266 C447.571289,44.5458984 448.791992,43.4375 449.856445,42.2070312 C450.920898,40.9765625 451.594727,39.9316406 451.87793,39.0722656 C452.161133,38.2128906 452.117188,37.3974609 451.746094,36.6259766 C451.375,35.8544922 450.964844,35.234375 450.515625,34.765625 C450.066406,34.296875 449.504883,33.7744141 448.831055,33.1982422 C448.157227,32.6220703 447.493164,32.0751953 446.838867,31.5576172 C446.18457,31.0400391 445.232422,30.234375 443.982422,29.140625 C442.732422,28.046875 441.550781,26.7724609 440.4375,25.3173828 C439.324219,23.8623047 438.557617,22.6171875 438.137695,21.5820312 C437.717773,20.546875 437.605469,19.3164063 437.800781,17.890625 C437.996094,16.4648438 438.728516,15.1220703 439.998047,13.8623047 C441.267578,12.6025391 443.079102,11.5820313 445.432617,10.8007813 C447.786133,10.0195313 450.037109,9.58496094 452.185547,9.49707031 C454.333984,9.40917969 455.837891,9.87304688 456.697266,10.8886719 C458.005859,11.8652344 458.455078,13.2617188 458.044922,15.078125 C457.107422,16.9726562 455.28125,18.90625 452.566406,20.8789062 C452.566406,21.0742188 452.820313,21.09375 453.328125,20.9375 C454.753906,20.4492188 456.023438,19.5800781 457.136719,18.3300781 C458.25,17.0800781 458.943359,16.1425781 459.216797,15.5175781 C459.900391,14.6386719 460.071289,13.6035156 459.729492,12.4121094 C459.387695,11.2207031 458.582031,10.1904297 457.3125,9.32128906 C456.042969,8.45214844 454.34375,8.02734375 452.214844,8.046875 C450.085938,8.06640625 448.162109,8.33007813 446.443359,8.83789063 C444.724609,9.34570313 443.230469,9.92675781 441.960938,10.5810547 C440.691406,11.2353516 439.685547,11.9042969 438.943359,12.5878906 C438.201172,13.2714844 437.581055,13.9990234 437.083008,14.7705078 C436.584961,15.5419922 436.267578,16.5087891 436.130859,17.6708984 C435.994141,18.8330078 436.125977,20.1855469 436.526367,21.7285156 C436.926758,23.2714844 437.727539,24.7558594 438.928711,26.1816406 C440.129883,27.6074219 441.462891,28.9746094 442.927734,30.2832031 C445.388672,32.3925781 447.180664,33.9208984 448.303711,34.8681641 C449.426758,35.8154297 449.988281,36.7773438 449.988281,37.7539062 C449.988281,38.7304688 449.30957,40.0341797 447.952148,41.6650391 C446.594727,43.2958984 444.563477,44.7851562 441.858398,46.1328125 C439.15332,47.4804688 436.418945,48.2373047 433.655273,48.4033203 C430.891602,48.5693359 428.582031,48.28125 426.726563,47.5390625 C426.375,46.7578125 426.052734,46.2792969 425.759766,46.1035156 C425.466797,45.8886719 425.295898,45.9033203 425.24707,46.1474609 C425.198242,46.3916016 425.178711,46.7773438 425.188477,47.3046875 C425.198242,47.8320312 425.457031,48.3349609 425.964844,48.8134766 C426.472656,49.2919922 427.166016,49.6044922 428.044922,49.7509766 C428.923828,49.8974609 430.066406,50.0097656 431.472656,50.0878906 Z" id="LAVENDERDRESS" fill="#000000" fill-rule="nonzero"></path>
    </g>
</svg>