<?xml version="1.0" encoding="UTF-8"?>
<svg width="493px" height="41px" viewBox="0 0 493 41" version="1.1" xmlns="http://www.w3.org/2000/svg" xmlns:xlink="http://www.w3.org/1999/xlink">
    <title>MARIGOLDGOWN</title>
    <g id="final-copy" stroke="none" stroke-width="1" fill="none" fill-rule="evenodd">
        <path d="M11.64,40 L11.64,39.45 L9.11,39.45 C7.35,39.45 5.48,37.47 5.48,35.545 L5.48,2.105 L20.605,40 L21.32,40 L35.73,2.325 L35.73,39.45 L31.22,39.45 L31.22,40 L43.375,40 L43.375,39.45 L38.81,39.45 L38.81,2.05 L43.375,2.05 L43.375,1.5 L35.51,1.5 L22.31,35.82 L8.505,1.5 L0.2,1.5 L0.2,2.05 L4.93,2.05 L4.93,35.545 C4.93,37.525 3.17,39.45 1.355,39.45 L0.2,39.45 L0.2,40 L11.64,40 Z M57.1957143,40 L57.1957143,39.45 L54.5557143,39.45 C52.9607143,39.45 51.8057143,37.69 51.8057143,35.93 C51.8057143,35.545 51.8607143,34.995 52.0257143,34.61 L55.4357143,25.37 L70.8357143,25.37 L76.2807143,39.45 L71.6607143,39.45 L71.6607143,40 L82.1657143,40 L82.1657143,39.45 L79.4707143,39.45 L65.0057143,1.5 L63.7407143,1.5 L49.4957143,39.45 L46.7457143,39.45 L46.7457143,40 L57.1957143,40 Z M70.6707143,24.875 L55.6007143,24.875 L63.0807143,4.91 L70.6707143,24.875 Z M114.466429,40.385 C117.766429,40.385 118.701429,38.625 118.701429,35.93 L118.701429,33.51 L118.151429,33.51 L118.151429,35.93 C118.151429,38.295 117.546429,39.395 115.676429,39.395 C114.081429,39.395 113.586429,38.295 113.586429,35.985 C113.586429,24.105 110.286429,20.86 104.676429,20.255 C111.826429,19.265 114.796429,15.855 114.796429,10.795 C114.796429,5.02 110.891429,1.5 100.166429,1.5 L85.7014286,1.5 L85.7014286,2.05 L90.2114286,2.05 L90.2114286,39.45 L85.7014286,39.45 L85.7014286,40 L98.3514286,40 L98.3514286,39.45 L93.2914286,39.45 L93.2914286,20.475 L100.551429,20.475 C108.581429,20.475 110.396429,22.895 110.396429,35.93 C110.396429,38.68 111.826429,40.385 114.466429,40.385 Z M100.551429,19.925 L93.2914286,19.925 L93.2914286,2.05 L99.5614286,2.05 C108.636429,2.05 111.441429,5.02 111.441429,10.795 C111.441429,16.515 109.406429,19.925 100.551429,19.925 Z M135.327143,40 L135.327143,39.45 L130.817143,39.45 L130.817143,2.05 L135.327143,2.05 L135.327143,1.5 L123.227143,1.5 L123.227143,2.05 L127.737143,2.05 L127.737143,39.45 L123.227143,39.45 L123.227143,40 L135.327143,40 Z M158.772857,40.55 C163.942857,40.55 168.617857,37.415 169.277857,32.245 C169.937857,33.125 171.532857,37.8 171.532857,40.055 L172.027857,40.055 L172.027857,21.575 L176.207857,21.575 L176.207857,21.025 L159.927857,21.025 L159.927857,21.575 L168.947857,21.575 L168.947857,30.155 C168.947857,36.535 164.272857,40 158.772857,40 C150.082857,40 145.737857,33.345 145.737857,20.86 C145.737857,8.155 150.632857,1.5 159.322857,1.5 C165.922857,1.5 170.652857,6.45 171.422857,12.72 L171.972857,12.72 L171.972857,1.445 L171.532857,1.445 C171.532857,2.49 170.102857,4.305 168.782857,4.305 C168.452857,4.305 168.067857,4.195 167.792857,3.92 C165.867857,2.27 163.172857,0.95 159.322857,0.95 C149.532857,0.95 142.382857,7.935 142.382857,20.86 C142.382857,33.565 148.982857,40.55 158.772857,40.55 Z M199.543571,40.55 C209.388571,40.55 216.538571,33.565 216.538571,20.86 C216.538571,7.935 209.388571,0.95 199.543571,0.95 C189.753571,0.95 182.603571,7.935 182.603571,20.86 C182.603571,33.565 189.753571,40.55 199.543571,40.55 Z M199.543571,40 C190.853571,40 185.958571,33.345 185.958571,20.86 C185.958571,8.155 190.853571,1.5 199.543571,1.5 C208.288571,1.5 213.183571,8.155 213.183571,20.86 C213.183571,33.345 208.288571,40 199.543571,40 Z M249.499286,40 L249.499286,32.19 L248.949286,32.19 L248.949286,33.675 C248.949286,36.535 246.144286,39.45 243.284286,39.45 L231.239286,39.45 L231.239286,2.05 L236.354286,2.05 L236.354286,1.5 L223.594286,1.5 L223.594286,2.05 L228.159286,2.05 L228.159286,39.45 L223.594286,39.45 L223.594286,40 L249.499286,40 Z M269.92,40 C279.71,40 286.915,33.565 286.915,20.86 C286.915,7.935 279.71,1.5 269.92,1.5 L254.245,1.5 L254.245,2.05 L258.755,2.05 L258.755,39.45 L254.245,39.45 L254.245,40 L269.92,40 Z M269.92,39.45 L261.835,39.45 L261.835,2.05 L269.92,2.05 C278.61,2.05 283.505,8.155 283.505,20.86 C283.505,33.345 278.61,39.45 269.92,39.45 Z M339.597143,40.55 C344.767143,40.55 349.442143,37.415 350.102143,32.245 C350.762143,33.125 352.357143,37.8 352.357143,40.055 L352.852143,40.055 L352.852143,21.575 L357.032143,21.575 L357.032143,21.025 L340.752143,21.025 L340.752143,21.575 L349.772143,21.575 L349.772143,30.155 C349.772143,36.535 345.097143,40 339.597143,40 C330.907143,40 326.562143,33.345 326.562143,20.86 C326.562143,8.155 331.457143,1.5 340.147143,1.5 C346.747143,1.5 351.477143,6.45 352.247143,12.72 L352.797143,12.72 L352.797143,1.445 L352.357143,1.445 C352.357143,2.49 350.927143,4.305 349.607143,4.305 C349.277143,4.305 348.892143,4.195 348.617143,3.92 C346.692143,2.27 343.997143,0.95 340.147143,0.95 C330.357143,0.95 323.207143,7.935 323.207143,20.86 C323.207143,33.565 329.807143,40.55 339.597143,40.55 Z M380.367857,40.55 C390.212857,40.55 397.362857,33.565 397.362857,20.86 C397.362857,7.935 390.212857,0.95 380.367857,0.95 C370.577857,0.95 363.427857,7.935 363.427857,20.86 C363.427857,33.565 370.577857,40.55 380.367857,40.55 Z M380.367857,40 C371.677857,40 366.782857,33.345 366.782857,20.86 C366.782857,8.155 371.677857,1.5 380.367857,1.5 C389.112857,1.5 394.007857,8.155 394.007857,20.86 C394.007857,33.345 389.112857,40 380.367857,40 Z M421.248571,40 L428.783571,19.87 L436.483571,40 L437.803571,40 L452.048571,2.05 L454.798571,2.05 L454.798571,1.5 L444.293571,1.5 L444.293571,2.05 L446.658571,2.05 C448.308571,2.05 449.738571,3.425 449.738571,5.46 C449.738571,6.065 449.628571,6.725 449.353571,7.44 L438.463571,36.37 L425.263571,2.05 L429.388571,2.05 L429.388571,1.5 L419.103571,1.5 L419.103571,2.05 L422.018571,2.05 L428.398571,18.88 L421.908571,36.37 L408.708571,2.05 L412.943571,2.05 L412.943571,1.5 L402.768571,1.5 L402.768571,2.05 L405.463571,2.05 L419.928571,40 L421.248571,40 Z M487.704286,40.11 L487.704286,5.955 C487.704286,4.03 489.464286,2.05 491.279286,2.05 L492.379286,2.05 L492.379286,1.5 L480.994286,1.5 L480.994286,2.05 L483.469286,2.05 C485.284286,2.05 487.099286,4.03 487.099286,5.955 L487.099286,34.445 L465.429286,1.5 L458.169286,1.5 L458.169286,2.05 L461.799286,2.05 L462.899286,3.48 L462.899286,35.545 C462.899286,37.525 461.139286,39.45 459.324286,39.45 L458.169286,39.45 L458.169286,40 L469.609286,40 L469.609286,39.45 L467.079286,39.45 C465.319286,39.45 463.449286,37.47 463.449286,35.545 L463.449286,4.14 L487.154286,40.11 L487.704286,40.11 Z" id="MARIGOLDGOWN" fill="#000000" fill-rule="nonzero"></path>
    </g>
</svg>