<?xml version="1.0" encoding="UTF-8"?>
<svg width="412px" height="41px" viewBox="0 0 412 41" version="1.1" xmlns="http://www.w3.org/2000/svg" xmlns:xlink="http://www.w3.org/1999/xlink">
    <title>ORCHIDGOWN</title>
    <g id="final-copy" stroke="none" stroke-width="1" fill="none" fill-rule="evenodd">
        <path d="M17.01,40.55 C26.855,40.55 34.005,33.565 34.005,20.86 C34.005,7.935 26.855,0.95 17.01,0.95 C7.22,0.95 0.07,7.935 0.07,20.86 C0.07,33.565 7.22,40.55 17.01,40.55 Z M17.01,40 C8.32,40 3.425,33.345 3.425,20.86 C3.425,8.155 8.32,1.5 17.01,1.5 C25.755,1.5 30.65,8.155 30.65,20.86 C30.65,33.345 25.755,40 17.01,40 Z M69.8257143,40.385 C73.1257143,40.385 74.0607143,38.625 74.0607143,35.93 L74.0607143,33.51 L73.5107143,33.51 L73.5107143,35.93 C73.5107143,38.295 72.9057143,39.395 71.0357143,39.395 C69.4407143,39.395 68.9457143,38.295 68.9457143,35.985 C68.9457143,24.105 65.6457143,20.86 60.0357143,20.255 C67.1857143,19.265 70.1557143,15.855 70.1557143,10.795 C70.1557143,5.02 66.2507143,1.5 55.5257143,1.5 L41.0607143,1.5 L41.0607143,2.05 L45.5707143,2.05 L45.5707143,39.45 L41.0607143,39.45 L41.0607143,40 L53.7107143,40 L53.7107143,39.45 L48.6507143,39.45 L48.6507143,20.475 L55.9107143,20.475 C63.9407143,20.475 65.7557143,22.895 65.7557143,35.93 C65.7557143,38.68 67.1857143,40.385 69.8257143,40.385 Z M55.9107143,19.925 L48.6507143,19.925 L48.6507143,2.05 L54.9207143,2.05 C63.9957143,2.05 66.8007143,5.02 66.8007143,10.795 C66.8007143,16.515 64.7657143,19.925 55.9107143,19.925 Z M97.3964286,40.55 C101.191429,40.55 103.886429,39.23 105.811429,37.58 C106.141429,37.305 106.526429,37.195 106.801429,37.195 C108.176429,37.195 109.606429,39.01 109.606429,40.055 L109.991429,40.055 L109.991429,28.725 L109.496429,28.725 C108.671429,35.05 103.996429,40 97.3964286,40 C88.7064286,40 83.8114286,33.345 83.8114286,20.86 C83.8114286,8.155 88.7064286,1.5 97.3964286,1.5 C103.996429,1.5 108.671429,6.45 109.496429,12.775 L109.991429,12.775 L109.991429,1.445 L109.606429,1.445 C109.606429,2.49 108.176429,4.305 106.801429,4.305 C106.526429,4.305 106.141429,4.195 105.811429,3.92 C103.886429,2.27 101.191429,0.95 97.3964286,0.95 C87.6064286,0.95 80.4564286,7.935 80.4564286,20.86 C80.4564286,33.565 87.6064286,40.55 97.3964286,40.55 Z M128.102143,40 L128.102143,39.45 L123.592143,39.45 L123.592143,20.09 L143.722143,20.09 L143.722143,39.45 L139.212143,39.45 L139.212143,40 L151.312143,40 L151.312143,39.45 L146.802143,39.45 L146.802143,2.05 L151.312143,2.05 L151.312143,1.5 L139.212143,1.5 L139.212143,2.05 L143.722143,2.05 L143.722143,19.54 L123.592143,19.54 L123.592143,2.05 L128.102143,2.05 L128.102143,1.5 L116.002143,1.5 L116.002143,2.05 L120.512143,2.05 L120.512143,39.45 L116.002143,39.45 L116.002143,40 L128.102143,40 Z M168.597857,40 L168.597857,39.45 L164.087857,39.45 L164.087857,2.05 L168.597857,2.05 L168.597857,1.5 L156.497857,1.5 L156.497857,2.05 L161.007857,2.05 L161.007857,39.45 L156.497857,39.45 L156.497857,40 L168.597857,40 Z M189.458571,40 C199.248571,40 206.453571,33.565 206.453571,20.86 C206.453571,7.935 199.248571,1.5 189.458571,1.5 L173.783571,1.5 L173.783571,2.05 L178.293571,2.05 L178.293571,39.45 L173.783571,39.45 L173.783571,40 L189.458571,40 Z M189.458571,39.45 L181.373571,39.45 L181.373571,2.05 L189.458571,2.05 C198.148571,2.05 203.043571,8.155 203.043571,20.86 C203.043571,33.345 198.148571,39.45 189.458571,39.45 Z M259.135714,40.55 C264.305714,40.55 268.980714,37.415 269.640714,32.245 C270.300714,33.125 271.895714,37.8 271.895714,40.055 L272.390714,40.055 L272.390714,21.575 L276.570714,21.575 L276.570714,21.025 L260.290714,21.025 L260.290714,21.575 L269.310714,21.575 L269.310714,30.155 C269.310714,36.535 264.635714,40 259.135714,40 C250.445714,40 246.100714,33.345 246.100714,20.86 C246.100714,8.155 250.995714,1.5 259.685714,1.5 C266.285714,1.5 271.015714,6.45 271.785714,12.72 L272.335714,12.72 L272.335714,1.445 L271.895714,1.445 C271.895714,2.49 270.465714,4.305 269.145714,4.305 C268.815714,4.305 268.430714,4.195 268.155714,3.92 C266.230714,2.27 263.535714,0.95 259.685714,0.95 C249.895714,0.95 242.745714,7.935 242.745714,20.86 C242.745714,33.565 249.345714,40.55 259.135714,40.55 Z M299.906429,40.55 C309.751429,40.55 316.901429,33.565 316.901429,20.86 C316.901429,7.935 309.751429,0.95 299.906429,0.95 C290.116429,0.95 282.966429,7.935 282.966429,20.86 C282.966429,33.565 290.116429,40.55 299.906429,40.55 Z M299.906429,40 C291.216429,40 286.321429,33.345 286.321429,20.86 C286.321429,8.155 291.216429,1.5 299.906429,1.5 C308.651429,1.5 313.546429,8.155 313.546429,20.86 C313.546429,33.345 308.651429,40 299.906429,40 Z M340.787143,40 L348.322143,19.87 L356.022143,40 L357.342143,40 L371.587143,2.05 L374.337143,2.05 L374.337143,1.5 L363.832143,1.5 L363.832143,2.05 L366.197143,2.05 C367.847143,2.05 369.277143,3.425 369.277143,5.46 C369.277143,6.065 369.167143,6.725 368.892143,7.44 L358.002143,36.37 L344.802143,2.05 L348.927143,2.05 L348.927143,1.5 L338.642143,1.5 L338.642143,2.05 L341.557143,2.05 L347.937143,18.88 L341.447143,36.37 L328.247143,2.05 L332.482143,2.05 L332.482143,1.5 L322.307143,1.5 L322.307143,2.05 L325.002143,2.05 L339.467143,40 L340.787143,40 Z M407.242857,40.11 L407.242857,5.955 C407.242857,4.03 409.002857,2.05 410.817857,2.05 L411.917857,2.05 L411.917857,1.5 L400.532857,1.5 L400.532857,2.05 L403.007857,2.05 C404.822857,2.05 406.637857,4.03 406.637857,5.955 L406.637857,34.445 L384.967857,1.5 L377.707857,1.5 L377.707857,2.05 L381.337857,2.05 L382.437857,3.48 L382.437857,35.545 C382.437857,37.525 380.677857,39.45 378.862857,39.45 L377.707857,39.45 L377.707857,40 L389.147857,40 L389.147857,39.45 L386.617857,39.45 C384.857857,39.45 382.987857,37.47 382.987857,35.545 L382.987857,4.14 L406.692857,40.11 L407.242857,40.11 Z" id="ORCHIDGOWN" fill="#000000" fill-rule="nonzero"></path>
    </g>
</svg>