<?xml version="1.0" encoding="UTF-8"?>
<svg width="399px" height="58px" viewBox="0 0 399 58" version="1.1" xmlns="http://www.w3.org/2000/svg" xmlns:xlink="http://www.w3.org/1999/xlink">
    <title>ORCHIDDRESS</title>
    <g id="final-copy" stroke="none" stroke-width="1" fill="none" fill-rule="evenodd">
        <path d="M10.8317003,49.0258636 L11.3046875,49.0146484 C13.0429688,48.9462891 14.703125,48.5605469 16.2851562,47.8574219 C17.8671875,47.1542969 19.3125,46.34375 20.6210938,45.4257812 C21.9296875,44.5078125 23.0771484,43.5263672 24.0634766,42.4814453 C25.0498047,41.4365234 26.0605469,40.0986328 27.0957031,38.4677734 C28.1308594,36.8369141 29.0830078,35.0742188 29.9521484,33.1796875 C30.8212891,31.2851562 31.4902344,29.4394531 31.9589844,27.6425781 C32.4277344,25.8457031 32.6328125,24.2050781 32.5742188,22.7207031 C32.515625,21.2363281 32.3496094,19.8447266 32.0761719,18.5458984 C31.8027344,17.2470703 31.3876953,16.0166016 30.8310547,14.8544922 C30.2744141,13.6923828 29.5957031,12.6328125 28.7949219,11.6757812 C27.9941406,10.71875 26.9931641,9.84960938 25.7919922,9.06835938 C24.5908203,8.28710938 23.7314453,7.81347656 23.2138672,7.64746094 C22.6962891,7.48144531 22.0615234,7.359375 21.3095703,7.28125 C20.5576172,7.203125 19.8496094,7.17382812 19.1855469,7.19335938 C18.5410156,7.21289062 17.6083984,7.48632812 16.3876953,8.01367188 C15.1669922,8.54101562 13.8876953,9.34667969 12.5498047,10.4306641 C11.2119141,11.5146484 9.57128906,13.4433594 7.62792969,16.2167969 C5.68457031,18.9902344 4.1953125,21.6269531 3.16015625,24.1269531 C2.125,26.6269531 1.38769531,28.8193359 0.948242188,30.7041016 C0.508789062,32.5888672 0.220703125,34.2685547 0.083984375,35.7431641 C-0.052734375,37.2177734 -0.033203125,38.8828125 0.142578125,40.7382812 C0.455078125,42.3789062 1.13378906,43.9072266 2.17871094,45.3232422 C3.22363281,46.7392578 4.57128906,47.7255859 6.22167969,48.2822266 C7.87207031,48.8388672 9.56640625,49.0830078 11.3046875,49.0146484 L10.8317003,49.0258636 Z M12.7841797,46.9931641 C11.8173828,47.2568359 10.6503906,47.28125 9.28320312,47.0664062 C7.91601562,46.8515625 6.76367188,46.5048828 5.82617188,46.0263672 C4.88867188,45.5478516 4.10742188,44.8789062 3.48242188,44.0195312 C2.85742188,43.1601562 2.38867188,42.1640625 2.07617188,41.03125 C1.76367187,39.8984375 1.73925781,38.2773438 2.00292969,36.1679688 C2.26660156,34.0585938 2.671875,32.0810547 3.21875,30.2353516 C3.765625,28.3896484 4.36621094,26.6708984 5.02050781,25.0791016 C5.67480469,23.4873047 6.890625,21.2753906 8.66796875,18.4433594 C10.4453125,15.6113281 12.0761719,13.5605469 13.5605469,12.2910156 C15.0449219,11.0214844 16.3095703,10.1962891 17.3544922,9.81542969 C18.3994141,9.43457031 19.5859375,9.28320312 20.9140625,9.36132812 C22.2617188,9.41992188 23.5019531,10.2011719 24.6347656,11.7050781 C24.6933594,11.7050781 24.7910156,11.6904297 24.9277344,11.6611328 C25.0644531,11.6318359 25.1914062,11.5292969 25.3085938,11.3535156 L25.3085938,11.3535156 L25.2792969,10.7382812 C27.5058594,12.9648438 28.8925781,14.8398438 29.4394531,16.3632812 C29.9863281,17.8867188 30.3623047,19.3564453 30.5673828,20.7724609 C30.7724609,22.1884766 30.6796875,23.8730469 30.2890625,25.8261719 C29.8984375,27.7792969 29.2636719,29.7519531 28.3847656,31.7441406 C27.5058594,33.7363281 26.4560547,35.6943359 25.2353516,37.6181641 C24.0146484,39.5419922 22.75,41.0556641 21.4414062,42.1591797 C20.1328125,43.2626953 18.6044922,44.2783203 16.8564453,45.2060547 C15.1083984,46.1337891 13.7509766,46.7294922 12.7841797,46.9931641 Z M40.1989397,52.4863281 C40.5505022,52.3300781 40.7848772,52.1787109 40.9020647,52.0322266 C41.0192522,51.8857422 41.2047991,51.5292969 41.4587054,50.9628906 C42.2204241,47.6621094 42.7917132,44.8496094 43.1725725,42.5253906 C43.5534319,40.2011719 43.8171038,38.5947266 43.9635882,37.7060547 C44.1100725,36.8173828 44.4079241,34.7519531 44.8571429,31.5097656 C48.9001116,34.4589844 51.7712054,36.7001953 53.4704241,38.2333984 C55.1696429,39.7666016 57.5036272,41.5830078 60.4723772,43.6826172 C63.4411272,45.7822266 66.4098772,47.2617188 69.3786272,48.1210938 C70.609096,48.21875 70.687221,47.9355469 69.6130022,47.2714844 C68.812221,46.9980469 67.640346,46.4072266 66.0973772,45.4990234 C64.5544085,44.5908203 62.6208147,43.2431641 60.296596,41.4560547 C57.9723772,39.6689453 55.555385,37.7451172 53.0456194,35.6845703 C50.5358538,33.6240234 47.8942522,31.6855469 45.1208147,29.8691406 C45.2575335,28.9902344 45.3942522,28.1894531 45.530971,27.4667969 C46.8786272,27.1542969 48.6169085,26.5732422 50.7458147,25.7236328 C52.874721,24.8740234 54.5446429,24.0878906 55.7555804,23.3652344 C56.9665179,22.6425781 58.13351,21.7099609 59.2565569,20.5673828 C60.3796038,19.4248047 61.1852679,18.4335938 61.6735491,17.59375 C62.1618304,16.7539062 62.4401507,15.9042969 62.50851,15.0449219 C62.5768694,14.1855469 62.5378069,13.4921875 62.3913225,12.9648438 C62.2448382,12.4375 61.9176897,11.8125 61.4098772,11.0898438 C60.9020647,10.3671875 60.0671038,9.68359375 58.9049944,9.0390625 C57.742885,8.39453125 56.234096,7.93554688 54.3786272,7.66210938 C52.5231585,7.38867188 50.530971,7.23242188 48.4020647,7.19335938 C48.109096,6.11914063 47.718471,5.53320313 47.2301897,5.43554688 C46.7419085,5.31835938 46.546596,5.484375 46.6442522,5.93359375 L46.6442522,5.93359375 L46.6442522,6.78320313 L46.5270647,7.48632813 C45.8044085,7.70117188 45.0231585,7.95019531 44.1833147,8.23339844 C43.343471,8.51660156 42.327846,8.99511719 41.1364397,9.66894531 C39.9450335,10.3427734 39.2370257,10.9140625 39.0124163,11.3828125 C38.7878069,11.8515625 38.6755022,12.2617188 38.6755022,12.6132812 C38.6755022,12.9648438 38.7438616,13.2333984 38.8805804,13.4189453 C39.0172991,13.6044922 39.2077288,14.0048828 39.4518694,14.6201172 C39.69601,15.2353516 40.0036272,15.9238281 40.374721,16.6855469 C40.765346,16.3339844 40.8825335,15.9287109 40.7262835,15.4697266 C40.5700335,15.0107422 40.3600725,14.3955078 40.0964007,13.6240234 C39.8327288,12.8525391 40.0133929,12.2128906 40.6383929,11.7050781 C41.2633929,11.1972656 41.9030413,10.7724609 42.5573382,10.4306641 C43.211635,10.0888672 44.4958147,9.63476562 46.4098772,9.06835938 C45.8239397,12.7988281 45.4333147,15.2060547 45.2380022,16.2900391 C45.0426897,17.3740234 44.8327288,18.6923828 44.6081194,20.2451172 C44.5908418,20.3645583 44.5733041,20.4862241 44.5555064,20.6101146 L44.4455998,21.3801544 C44.2572214,22.7080483 44.04284,24.2584135 43.8024554,26.03125 C42.1227679,26.3632812 40.78976,26.5830078 39.8034319,26.6904297 C38.8171038,26.7978516 37.8698382,26.8710938 36.961635,26.9101562 C36.0534319,26.9492188 35.609096,27.1542969 35.6286272,27.5253906 C35.6481585,27.8964844 35.8727679,28.3457031 36.3024554,28.8730469 C36.8102679,28.8730469 37.3669085,28.8242188 37.9723772,28.7265625 C38.9294085,28.7265625 39.984096,28.9707031 41.1364397,29.4589844 L41.1364397,29.4589844 L43.0700335,30.484375 C42.9346168,31.4947917 42.8012835,32.4670139 42.6700335,33.4010417 L42.474721,34.7734375 C42.184096,36.7890625 41.9040179,38.6113281 41.6344866,40.2402344 C41.1852679,42.9550781 40.7751116,45.25 40.4040179,47.125 C40.0329241,49 39.7106585,50.5820312 39.437221,51.8710938 L39.437221,51.8710938 L39.9352679,52.4863281 L40.1989397,52.4863281 Z M45.8825335,25.4453125 C46.155971,23.609375 46.3756975,22.1152344 46.5417132,20.9628906 C46.6154979,20.4507378 46.6950697,19.8971113 46.7804285,19.302011 L46.9128069,18.3782552 C46.9811663,17.9008247 47.0527809,17.4000651 47.1276507,16.8759766 C47.183803,16.4829102 47.2369036,16.1112061 47.2869524,15.7608643 L47.4279436,14.7739258 C47.5158343,14.1586914 47.5915179,13.6289063 47.6549944,13.1845703 C47.7819475,12.2958984 48.0016741,10.8652344 48.3141741,8.89257813 C49.7399554,8.75585938 51.312221,8.8046875 53.030971,9.0390625 C54.749721,9.2734375 56.0339007,9.52734375 56.88351,9.80078125 C57.7331194,10.0742188 58.6266741,10.5039063 59.5641741,11.0898438 C60.4235491,12.1445313 60.8922991,12.9501953 60.9704241,13.5068359 C61.0485491,14.0634766 60.9606585,14.7373047 60.7067522,15.5283203 C60.452846,16.3193359 59.9206194,17.1933594 59.1100725,18.1503906 C58.2995257,19.1074219 57.3180804,20.0205078 56.1657366,20.8896484 C55.0133929,21.7587891 53.524135,22.5986328 51.6979632,23.4091797 C49.8717913,24.2197266 47.9333147,24.8984375 45.8825335,25.4453125 Z M43.3922991,28.7558594 C43.0993304,28.5996094 42.7087054,28.4335938 42.2204241,28.2578125 C42.6501116,28.1601562 43.0797991,28.0527344 43.5094866,27.9355469 L43.5094866,27.9355469 L43.3922991,28.7558594 Z M82.686942,48.7363281 C86.9642857,49.2050781 90.4750279,49.1025391 93.2191685,48.4287109 C95.9633092,47.7548828 97.7015904,46.9833984 98.4340123,46.1142578 C99.1664342,45.2451172 99.483817,44.7958984 99.3861607,44.7666016 C99.2885045,44.7373047 98.4730748,45.0546875 96.9398717,45.71875 C95.4066685,46.3828125 93.492606,46.8515625 91.1976842,47.125 C88.9027623,47.3984375 86.7640904,47.4619141 84.7816685,47.3154297 C82.7992467,47.1689453 80.9828404,46.7734375 79.3324498,46.1289062 C77.6820592,45.484375 76.3002232,44.2685547 75.186942,42.4814453 C74.0736607,40.6943359 73.4828404,38.6972656 73.414481,36.4902344 C73.3461217,34.2832031 74.2592076,30.640625 76.1537388,25.5625 L76.1537388,25.5625 L79.0248326,20.4355469 C81.0951451,17.7207031 82.8480748,15.7822266 84.2836217,14.6201172 C85.7191685,13.4580078 86.9935826,12.5498047 88.1068638,11.8955078 C89.2201451,11.2412109 90.5092076,10.6894531 91.9740513,10.2402344 C93.4388951,9.79101563 94.9428013,9.61523438 96.4857701,9.71289063 C98.0287388,9.81054688 99.2347935,10.1816406 100.103934,10.8261719 C100.973075,11.4707031 101.407645,12.3642578 101.407645,13.5068359 C101.407645,14.6494141 101.29534,15.5478516 101.070731,16.2021484 C100.846122,16.8564453 100.743583,17.4765625 100.763114,18.0625 C101.32952,17.984375 101.827567,17.4863281 102.257254,16.5683594 C102.686942,15.6503906 102.945731,14.7470703 103.033622,13.8583984 C103.121512,12.9697266 103.023856,12.1152344 102.740653,11.2949219 C102.45745,10.4746094 101.847098,9.8203125 100.909598,9.33203125 C99.9720982,8.84375 98.9808873,8.48730469 97.9359654,8.26269531 C96.8910435,8.03808594 95.8705357,7.95507813 94.874442,8.01367188 C93.8978795,8.05273438 92.3451451,8.38964844 90.2162388,9.02441406 C88.0873326,9.65917969 85.6263951,11.1826172 82.8334263,13.5947266 C80.0404576,16.0068359 77.5697545,19.078125 75.421317,22.8085938 C74.1127232,25.3085938 73.2631138,27.3398438 72.8724888,28.9023438 L72.8724888,28.9023438 L72.1693638,31.3632813 L71.7299107,33.9414062 C71.593192,35.5429688 71.5541295,36.7099609 71.6127232,37.4423828 C71.671317,38.1748047 71.7836217,38.9609375 71.9496373,39.8007812 C72.1156529,40.640625 72.4818638,41.734375 73.0482701,43.0820312 C73.8490513,44.6835938 75.0209263,45.9628906 76.5638951,46.9199219 C78.0482701,47.7988281 80.0892857,48.4042969 82.686942,48.7363281 Z M118.333538,57.1243896 L118.378069,57.1152344 C119.589007,55.6308594 120.575335,53.4628906 121.337054,50.6113281 C122.098772,47.7597656 122.782366,45.1816406 123.387835,42.8769531 C123.993304,40.5722656 124.501116,38.5361328 124.911272,36.7685547 C125.321429,35.0009766 125.985491,32.2714844 126.90346,28.5800781 C129.481585,28.2480469 131.005022,27.8769531 131.473772,27.4667969 C131.942522,27.0566406 131.669085,26.6953125 130.65346,26.3828125 L130.65346,26.3828125 L127.430804,26.6171875 C128.485491,22.90625 129.388811,19.9033203 130.140765,17.6083984 C130.892718,15.3134766 131.737444,12.7695312 132.674944,9.9765625 C134.120257,5.89453125 135.189593,3.55566406 135.882952,2.95996094 C136.576311,2.36425781 136.879046,1.81738281 136.791155,1.31933594 C136.703265,0.821289062 136.307757,0.650390625 135.604632,0.806640625 C134.901507,0.962890625 134.291155,1.39746094 133.773577,2.11035156 C133.255999,2.82324219 132.665179,3.90234375 132.001116,5.34765625 C131.297991,7.26171875 129.999163,11.0605469 128.104632,16.7441406 C126.796038,20.7285156 125.760882,24.0878906 124.999163,26.8222656 C119.940569,27.5058594 115.301897,28.21875 111.083147,28.9609375 C112.157366,26.3046875 112.767718,24.1513672 112.914202,22.5009766 C113.060686,20.8505859 112.889788,19.7128906 112.401507,19.0878906 C111.913225,18.4628906 111.561663,18.1503906 111.346819,18.1503906 C110.682757,18.2675781 110.502093,18.6972656 110.804827,19.4394531 C111.107561,20.1816406 111.107561,21.3339844 110.804827,22.8964844 C110.502093,24.4589844 109.80385,26.6269531 108.7101,29.4003906 C104.862444,30.2988281 101.893694,31.0507813 99.8038505,31.65625 C97.7140067,32.2617188 95.780413,33.0136719 94.0030692,33.9121094 C92.2257255,34.8105469 91.1222098,35.7675781 90.6925223,36.7832031 C90.8097098,37.1347656 91.0831473,37.3105469 91.5128348,37.3105469 L91.5128348,37.3105469 L94.296038,35.9628906 C98.5538505,34.0097656 103.104632,32.6035156 107.948382,31.7441406 C107.206194,33.9121094 106.649554,35.4208984 106.27846,36.2705078 C105.907366,37.1201172 105.541155,38.0136719 105.179827,38.9511719 C104.818499,39.8886719 104.652483,40.9042969 104.68178,41.9980469 C104.711077,43.0917969 104.881975,43.6386719 105.194475,43.6386719 C106.756975,41.4511719 108.021624,39.6445312 108.988421,38.21875 C109.955218,36.7929688 109.930804,36.2070312 108.915179,36.4609375 L108.915179,36.4609375 L108.212054,36.7832031 C109.110491,34.3222656 109.823382,32.4375 110.350725,31.1289062 C115.214007,30.2109375 119.969866,29.4394531 124.618304,28.8144531 C123.876116,31.8222656 123.163225,34.625 122.479632,37.2226562 C121.483538,41.6171875 120.11635,47.5644531 118.378069,55.0644531 C118.065569,56.5292969 118.065569,57.2128906 118.378069,57.1152344 L118.333538,57.1243896 Z M135.407087,49.0292969 C135.836775,49.0878906 136.339704,48.6386719 136.915876,47.6816406 C137.492048,46.7246094 138.317243,44.8789062 139.391462,42.1445312 C139.50865,43.0625 140.060407,44.0195312 141.046736,45.015625 C142.033064,46.0117188 143.244001,46.3535156 144.679548,46.0410156 C146.115095,45.7285156 147.174665,45.2304688 147.858259,44.546875 C148.541853,43.8632812 148.776228,43.4873047 148.561384,43.4189453 C148.34654,43.3505859 147.980329,43.5214844 147.462751,43.9316406 C146.945173,44.3417969 146.163923,44.6591797 145.119001,44.8837891 C144.074079,45.1083984 143.038923,44.8056641 142.013532,43.9755859 C140.988142,43.1455078 140.455915,41.7050781 140.416853,39.6542969 C141.237165,37.7792969 141.788923,36.5878906 142.072126,36.0800781 C142.355329,35.5722656 142.853376,34.5517578 143.566267,33.0185547 C144.279157,31.4853516 145.104353,29.5615234 146.041853,27.2470703 C146.979353,24.9326172 147.814314,22.6523438 148.546736,20.40625 C149.279157,18.1601562 149.826032,16.4365234 150.187361,15.2353516 C150.548689,14.0341797 150.870954,12.7792969 151.154157,11.4707031 C151.437361,10.1621094 151.574079,8.89746094 151.564314,7.67675781 C151.554548,6.45605469 151.276228,5.66015625 150.729353,5.2890625 C150.202009,4.8984375 149.537946,5.09375 148.737165,5.875 C147.936384,6.65625 147.013532,8.14550781 145.968611,10.3427734 C144.923689,12.5400391 144.035017,14.7617188 143.302595,17.0078125 C142.570173,19.2539062 141.925642,21.3095703 141.369001,23.1748047 C140.812361,25.0400391 140.236189,27.6328125 139.640486,30.953125 C139.044782,34.2734375 138.756696,36.9980469 138.776228,39.1269531 C137.545759,42.2128906 136.676618,44.3369141 136.168806,45.4990234 C135.660993,46.6611328 135.2899,47.0175781 135.055525,46.5683594 C134.82115,46.1191406 134.611189,45.6162109 134.425642,45.0595703 C134.240095,44.5029297 133.805525,43.8535156 133.121931,43.1113281 L133.121931,43.1113281 L136.69615,41.3828125 C136.578962,40.8945312 136.34947,40.5820312 136.007673,40.4453125 C135.665876,40.3085938 135.280134,40.4013672 134.850446,40.7236328 C134.420759,41.0458984 133.781111,41.4023438 132.931501,41.7929688 C132.081892,42.1835938 131.50572,42.3789062 131.202986,42.3789062 C130.900251,42.3789062 130.748884,42.59375 130.748884,43.0234375 C131.862165,43.9023438 132.63365,44.9423828 133.063337,46.1435547 C133.493025,47.3447266 133.88365,48.1113281 134.235212,48.4433594 C134.586775,48.7753906 134.9774,48.9707031 135.407087,49.0292969 Z M140.299665,35.7871094 C140.475446,34.7324219 140.680525,33.5898438 140.9149,32.359375 C141.149275,31.1289062 141.456892,29.703125 141.837751,28.0820312 C142.218611,26.4609375 142.843611,24.2734375 143.712751,21.5195312 C144.581892,18.765625 145.358259,16.4414062 146.041853,14.546875 C146.725446,12.6328125 147.4774,10.9726562 148.297712,9.56640625 C149.118025,8.16015625 149.616071,7.4765625 149.791853,7.515625 C150.026228,7.61328125 149.94322,8.37011719 149.542829,9.78613281 C149.142439,11.2021484 148.615095,13.0869141 147.960798,15.4404297 C147.306501,17.7939453 146.637556,19.8837891 145.953962,21.7099609 C145.270368,23.5361328 144.489118,25.5966797 143.610212,27.8916016 C142.731306,30.1865234 142.091657,31.7587891 141.691267,32.6083984 C141.290876,33.4580078 140.827009,34.5175781 140.299665,35.7871094 Z M165.766183,47.7695312 C165.590402,48.7265625 165.712472,49.1367188 166.132394,49 C166.552316,48.8632812 166.879464,48.3847656 167.113839,47.5644531 C169.066964,47.2128906 171.068917,46.6953125 173.119699,46.0117188 C175.17048,45.328125 177.060128,44.6640625 178.788644,44.0195312 C180.51716,43.375 181.820871,42.8378906 182.699777,42.4082031 C183.578683,41.9785156 185.263253,40.9824219 187.753488,39.4199219 C190.243722,37.8574219 192.338449,36.0556641 194.037667,34.0146484 C195.736886,31.9736328 196.713449,29.9423828 196.967355,27.9208984 C197.221261,25.8994141 197.07966,24.0439453 196.54255,22.3544922 C196.005441,20.6650391 195.141183,18.9365234 193.949777,17.1689453 C192.758371,15.4013672 191.26423,13.8486328 189.467355,12.5107422 C187.67048,11.1728516 185.815011,10.0888672 183.900949,9.25878906 C181.986886,8.42871094 180.370675,7.89160156 179.052316,7.64746094 C177.733956,7.40332031 175.79548,7.203125 173.236886,7.046875 C170.697824,6.87109375 168.134347,6.98828125 165.546456,7.3984375 C162.958566,7.80859375 161.054269,8.25292969 159.833566,8.73144531 C158.612863,9.20996094 157.543527,9.83007812 156.625558,10.5917969 C155.707589,11.3535156 155.336496,12.4277344 155.512277,13.8144531 C155.766183,14.8496094 156.347238,15.5087891 157.255441,15.7919922 C158.163644,16.0751953 158.358956,15.7529297 157.841378,14.8251953 C157.3238,13.8974609 157.231027,13.21875 157.563058,12.7890625 C158.461496,11.8710938 159.311105,11.2265625 160.111886,10.8554688 C160.912667,10.484375 162.069894,10.1181641 163.583566,9.75683594 C165.097238,9.39550781 166.879464,9.14160156 168.930246,8.99511719 C170.981027,8.84863281 172.934152,8.86816406 174.789621,9.05371094 C176.645089,9.23925781 178.76423,9.67871094 181.147042,10.3720703 C183.529855,11.0654297 185.805246,12.2861328 187.973214,14.0341797 C190.141183,15.7822266 191.73298,17.5644531 192.748605,19.3808594 C193.76423,21.1972656 194.398996,22.7304688 194.652902,23.9804688 C194.906808,25.2304688 194.970285,26.5439453 194.843331,27.9208984 C194.716378,29.2978516 194.081613,30.6894531 192.939035,32.0957031 C191.796456,33.5019531 190.585519,34.7470703 189.306222,35.8310547 C188.026925,36.9150391 186.635324,37.9208984 185.131417,38.8486328 C183.627511,39.7763672 181.54255,40.8115234 178.876535,41.9541016 C176.210519,43.0966797 172.494699,44.3515625 167.729074,45.71875 C168.471261,42.5546875 169.066964,39.9277344 169.516183,37.8378906 C169.965402,35.7480469 170.399972,33.7021484 170.819894,31.7001953 C171.239816,29.6982422 171.679269,27.5546875 172.138253,25.2695312 C172.597238,22.984375 173.148996,20.5185547 173.793527,17.8720703 C174.438058,15.2255859 174.428292,13.5654297 173.76423,12.8916016 C173.100167,12.2177734 172.655831,12.2861328 172.431222,13.0966797 C172.206613,13.9072266 171.859933,15.4746094 171.391183,17.7988281 C170.922433,20.1230469 170.463449,22.359375 170.01423,24.5078125 C169.565011,26.65625 169.140206,28.7802734 168.739816,30.8798828 C168.339425,32.9794922 167.880441,35.4355469 167.362863,38.2480469 C166.845285,41.0605469 166.430246,43.6289062 166.117746,45.953125 C163.422433,46.265625 161.14216,46.3046875 159.276925,46.0703125 C157.411691,45.8359375 156.869699,46.0263672 157.650949,46.6416016 C158.432199,47.2568359 159.262277,47.6279297 160.141183,47.7548828 C161.020089,47.8818359 161.869699,47.9306641 162.690011,47.9013672 C163.510324,47.8720703 164.535714,47.828125 165.766183,47.7695312 Z M234.25558,47.7695312 C234.079799,48.7265625 234.201869,49.1367188 234.621791,49 C235.041713,48.8632812 235.368862,48.3847656 235.603237,47.5644531 C237.556362,47.2128906 239.558315,46.6953125 241.609096,46.0117188 C243.659877,45.328125 245.549526,44.6640625 247.278041,44.0195312 C249.006557,43.375 250.310268,42.8378906 251.189174,42.4082031 C252.06808,41.9785156 253.752651,40.9824219 256.242885,39.4199219 C258.733119,37.8574219 260.827846,36.0556641 262.527065,34.0146484 C264.226284,31.9736328 265.202846,29.9423828 265.456752,27.9208984 C265.710659,25.8994141 265.569057,24.0439453 265.031948,22.3544922 C264.494838,20.6650391 263.63058,18.9365234 262.439174,17.1689453 C261.247768,15.4013672 259.753627,13.8486328 257.956752,12.5107422 C256.159877,11.1728516 254.304409,10.0888672 252.390346,9.25878906 C250.476284,8.42871094 248.860073,7.89160156 247.541713,7.64746094 C246.223354,7.40332031 244.284877,7.203125 241.726284,7.046875 C239.187221,6.87109375 236.623744,6.98828125 234.035854,7.3984375 C231.447963,7.80859375 229.543666,8.25292969 228.322963,8.73144531 C227.10226,9.20996094 226.032924,9.83007812 225.114955,10.5917969 C224.196987,11.3535156 223.825893,12.4277344 224.001674,13.8144531 C224.25558,14.8496094 224.836635,15.5087891 225.744838,15.7919922 C226.653041,16.0751953 226.848354,15.7529297 226.330776,14.8251953 C225.813198,13.8974609 225.720424,13.21875 226.052455,12.7890625 C226.950893,11.8710938 227.800502,11.2265625 228.601284,10.8554688 C229.402065,10.484375 230.559291,10.1181641 232.072963,9.75683594 C233.586635,9.39550781 235.368862,9.14160156 237.419643,8.99511719 C239.470424,8.84863281 241.423549,8.86816406 243.279018,9.05371094 C245.134487,9.23925781 247.253627,9.67871094 249.63644,10.3720703 C252.019252,11.0654297 254.294643,12.2861328 256.462612,14.0341797 C258.63058,15.7822266 260.222377,17.5644531 261.238002,19.3808594 C262.253627,21.1972656 262.888393,22.7304688 263.142299,23.9804688 C263.396205,25.2304688 263.459682,26.5439453 263.332729,27.9208984 C263.205776,29.2978516 262.57101,30.6894531 261.428432,32.0957031 C260.285854,33.5019531 259.074916,34.7470703 257.795619,35.8310547 C256.516323,36.9150391 255.124721,37.9208984 253.620815,38.8486328 C252.116909,39.7763672 250.031948,40.8115234 247.365932,41.9541016 C244.699916,43.0966797 240.984096,44.3515625 236.218471,45.71875 C236.960659,42.5546875 237.556362,39.9277344 238.00558,37.8378906 C238.454799,35.7480469 238.889369,33.7021484 239.309291,31.7001953 C239.729213,29.6982422 240.168666,27.5546875 240.627651,25.2695312 C241.086635,22.984375 241.638393,20.5185547 242.282924,17.8720703 C242.927455,15.2255859 242.91769,13.5654297 242.253627,12.8916016 C241.589565,12.2177734 241.145229,12.2861328 240.920619,13.0966797 C240.896976,13.1820004 240.871981,13.2757071 240.845632,13.3777998 L240.76253,13.709236 C240.544629,14.6007212 240.250646,15.9639186 239.88058,17.7988281 C239.41183,20.1230469 238.952846,22.359375 238.503627,24.5078125 C238.054409,26.65625 237.629604,28.7802734 237.229213,30.8798828 C236.828823,32.9794922 236.369838,35.4355469 235.85226,38.2480469 C235.334682,41.0605469 234.919643,43.6289062 234.607143,45.953125 C231.91183,46.265625 229.631557,46.3046875 227.766323,46.0703125 C225.901088,45.8359375 225.359096,46.0263672 226.140346,46.6416016 C226.921596,47.2568359 227.751674,47.6279297 228.63058,47.7548828 C229.509487,47.8818359 230.359096,47.9306641 231.179409,47.9013672 C231.999721,47.8720703 233.025112,47.828125 234.25558,47.7695312 Z M274.106864,52.4863281 C274.458426,52.3300781 274.692801,52.1787109 274.809989,52.0322266 C274.927176,51.8857422 275.112723,51.5292969 275.366629,50.9628906 C276.128348,47.6621094 276.699637,44.8496094 277.080497,42.5253906 C277.461356,40.2011719 277.725028,38.5947266 277.871512,37.7060547 C278.017997,36.8173828 278.315848,34.7519531 278.765067,31.5097656 C282.808036,34.4589844 285.679129,36.7001953 287.378348,38.2333984 C289.077567,39.7666016 291.411551,41.5830078 294.380301,43.6826172 C297.349051,45.7822266 300.317801,47.2617188 303.286551,48.1210938 C304.51702,48.21875 304.595145,47.9355469 303.520926,47.2714844 C302.720145,46.9980469 301.54827,46.4072266 300.005301,45.4990234 C298.462333,44.5908203 296.528739,43.2431641 294.20452,41.4560547 C291.880301,39.6689453 289.463309,37.7451172 286.953544,35.6845703 C284.443778,33.6240234 281.802176,31.6855469 279.028739,29.8691406 C279.165458,28.9902344 279.302176,28.1894531 279.438895,27.4667969 C280.786551,27.1542969 282.524833,26.5732422 284.653739,25.7236328 C286.782645,24.8740234 288.452567,24.0878906 289.663504,23.3652344 C290.874442,22.6425781 292.041434,21.7099609 293.164481,20.5673828 C294.287528,19.4248047 295.093192,18.4335938 295.581473,17.59375 C296.069754,16.7539062 296.348075,15.9042969 296.416434,15.0449219 C296.484794,14.1855469 296.445731,13.4921875 296.299247,12.9648438 C296.152762,12.4375 295.825614,11.8125 295.317801,11.0898438 C294.809989,10.3671875 293.975028,9.68359375 292.812919,9.0390625 C291.650809,8.39453125 290.14202,7.93554688 288.286551,7.66210938 C286.431083,7.38867188 284.438895,7.23242188 282.309989,7.19335938 C282.01702,6.11914063 281.626395,5.53320313 281.138114,5.43554688 C280.649833,5.31835938 280.45452,5.484375 280.552176,5.93359375 L280.552176,5.93359375 L280.552176,6.78320313 L280.434989,7.48632813 C279.712333,7.70117188 278.931083,7.95019531 278.091239,8.23339844 C277.251395,8.51660156 276.23577,8.99511719 275.044364,9.66894531 C273.852958,10.3427734 273.14495,10.9140625 272.92034,11.3828125 C272.695731,11.8515625 272.583426,12.2617188 272.583426,12.6132812 C272.583426,12.9648438 272.651786,13.2333984 272.788504,13.4189453 C272.925223,13.6044922 273.115653,14.0048828 273.359794,14.6201172 C273.603934,15.2353516 273.911551,15.9238281 274.282645,16.6855469 C274.67327,16.3339844 274.790458,15.9287109 274.634208,15.4697266 C274.477958,15.0107422 274.267997,14.3955078 274.004325,13.6240234 C273.740653,12.8525391 273.921317,12.2128906 274.546317,11.7050781 C275.171317,11.1972656 275.810965,10.7724609 276.465262,10.4306641 C277.119559,10.0888672 278.403739,9.63476562 280.317801,9.06835938 C279.731864,12.7988281 279.341239,15.2060547 279.145926,16.2900391 C278.950614,17.3740234 278.740653,18.6923828 278.516044,20.2451172 C278.498766,20.3645583 278.481228,20.4862241 278.463431,20.6101146 L278.353524,21.3801544 C278.165146,22.7080483 277.950764,24.2584135 277.710379,26.03125 C276.030692,26.3632812 274.697684,26.5830078 273.711356,26.6904297 C272.725028,26.7978516 271.777762,26.8710938 270.869559,26.9101562 C269.961356,26.9492188 269.51702,27.1542969 269.536551,27.5253906 C269.556083,27.8964844 269.780692,28.3457031 270.210379,28.8730469 C270.718192,28.8730469 271.274833,28.8242188 271.880301,28.7265625 C272.837333,28.7265625 273.89202,28.9707031 275.044364,29.4589844 L275.044364,29.4589844 L276.977958,30.484375 C276.470145,34.2734375 275.991629,37.5253906 275.542411,40.2402344 C275.093192,42.9550781 274.683036,45.25 274.311942,47.125 C273.940848,49 273.618583,50.5820312 273.345145,51.8710938 L273.345145,51.8710938 L273.843192,52.4863281 L274.106864,52.4863281 Z M279.790458,25.4453125 C280.063895,23.609375 280.283622,22.1152344 280.449637,20.9628906 C280.523422,20.4507378 280.602994,19.8971113 280.688353,19.302011 L280.820731,18.3782552 C280.88909,17.9008247 280.960705,17.4000651 281.035575,16.8759766 C281.091727,16.4829102 281.144828,16.1112061 281.194877,15.7608643 L281.335868,14.7739258 C281.423758,14.1586914 281.499442,13.6289063 281.562919,13.1845703 C281.689872,12.2958984 281.909598,10.8652344 282.222098,8.89257813 C283.647879,8.75585938 285.220145,8.8046875 286.938895,9.0390625 C288.657645,9.2734375 289.941825,9.52734375 290.791434,9.80078125 C291.641044,10.0742188 292.534598,10.5039063 293.472098,11.0898438 C294.331473,12.1445313 294.800223,12.9501953 294.878348,13.5068359 C294.956473,14.0634766 294.868583,14.7373047 294.614676,15.5283203 C294.36077,16.3193359 293.828544,17.1933594 293.017997,18.1503906 C292.20745,19.1074219 291.226004,20.0205078 290.073661,20.8896484 C288.921317,21.7587891 287.432059,22.5986328 285.605887,23.4091797 C283.779715,24.2197266 281.841239,24.8984375 279.790458,25.4453125 Z M277.300223,28.7558594 C277.007254,28.5996094 276.616629,28.4335938 276.128348,28.2578125 C276.558036,28.1601562 276.987723,28.0527344 277.417411,27.9355469 L277.417411,27.9355469 L277.300223,28.7558594 Z M312.083147,48.9121094 C314.446429,49.0097656 317.131975,49.0097656 320.139788,48.9121094 C324.24135,48.4824219 328.108538,47.4863281 331.74135,45.9238281 C332.405413,45.4941406 332.044085,45.3476562 330.657366,45.484375 C328.352679,45.7773438 326.350725,46.0996094 324.651507,46.4511719 C322.952288,46.8027344 320.09096,47.125 316.067522,47.4179688 C313.001116,47.3789062 311.091936,47.3007812 310.339983,47.1835938 C309.58803,47.0664062 308.899554,46.9199219 308.274554,46.7441406 C307.395647,46.1386719 307.073382,45.3574219 307.307757,44.4003906 L307.307757,44.4003906 L307.688616,43.4921875 C308.255022,42.6132812 308.71889,41.9394531 309.080218,41.4707031 C309.441546,41.0019531 310.139788,40.1914062 311.174944,39.0390625 C312.268694,37.9648438 313.489397,36.8417969 314.837054,35.6699219 C316.18471,34.7128906 317.249163,33.9121094 318.030413,33.2675781 C318.811663,32.6230469 319.680804,31.9882812 320.637835,31.3632812 C321.985491,30.5429688 323.235491,29.7128906 324.387835,28.8730469 C325.637835,27.9746094 327.05385,27.0859375 328.635882,26.2070312 C329.417132,25.7773438 329.885882,25.2988281 330.042132,24.7714844 C329.964007,24.0292969 329.602679,23.5800781 328.958147,23.4238281 C328.333147,23.3847656 327.74721,23.4042969 327.200335,23.4824219 C326.106585,23.5605469 324.915179,23.6875 323.626116,23.8632812 L323.626116,23.8632812 L320.989397,23.9804688 C319.055804,23.9609375 317.67885,23.9023438 316.858538,23.8046875 C316.038225,23.7070312 315.139788,23.5117188 314.163225,23.21875 C313.284319,22.6914062 312.825335,22.0810547 312.786272,21.3876953 C312.74721,20.6943359 312.947405,19.8984375 313.386858,19 C313.826311,18.1015625 314.612444,16.9833984 315.745257,15.6455078 C316.878069,14.3076172 318.196429,13.2382812 319.700335,12.4375 C321.770647,11.265625 323.445452,10.4648438 324.724749,10.0351562 C326.004046,9.60546875 327.185686,9.28808594 328.269671,9.08300781 C329.353655,8.87792969 330.442522,8.78515625 331.536272,8.8046875 C333.001116,8.765625 333.880022,9.2734375 334.172991,10.328125 C334.407366,11.3046875 334.729632,11.7929688 335.139788,11.7929688 C335.296038,11.734375 335.462054,11.4902344 335.637835,11.0605469 L335.637835,11.0605469 L335.637835,9.859375 C335.540179,9.25390625 335.349749,8.78027344 335.066546,8.43847656 C334.783343,8.09667969 334.426897,7.81835938 333.99721,7.60351562 L333.99721,7.60351562 L332.415179,7.046875 L330.657366,7.046875 C329.583147,7.1640625 328.797015,7.25195312 328.298968,7.31054688 C327.800921,7.36914062 326.770647,7.61328125 325.208147,8.04296875 C323.626116,8.53125 322.141741,9.14648438 320.755022,9.88867188 C318.430804,11.0214844 316.380022,12.3496094 314.602679,13.8730469 L314.602679,13.8730469 L313.079241,15.8359375 C312.12221,17.4179688 311.536272,18.8535156 311.321429,20.1425781 L311.321429,20.1425781 L311.233538,21.34375 C311.409319,22.8476562 312.05385,23.8535156 313.167132,24.3613281 C314.182757,24.8300781 315.510882,25.1132812 317.151507,25.2109375 C318.753069,25.25 320.149554,25.2597656 321.34096,25.2402344 L321.34096,25.2402344 L323.333147,25.2402344 C324.837054,25.1425781 325.969866,25.0351562 326.731585,24.9179688 L326.731585,24.9179688 L327.698382,24.7714844 C327.268694,25.0449219 326.721819,25.4160156 326.057757,25.8847656 C325.256975,26.4316406 324.456194,26.9394531 323.655413,27.4082031 C321.858538,28.4824219 320.720843,29.1708984 320.242327,29.4736328 C319.763811,29.7763672 319.329241,30.0742188 318.938616,30.3671875 C318.547991,30.6601562 317.898577,31.1289062 316.990374,31.7734375 C316.082171,32.4179688 314.890765,33.3261719 313.416155,34.4980469 C311.941546,35.6699219 310.911272,36.5634766 310.325335,37.1787109 C309.739397,37.7939453 309.138811,38.4628906 308.523577,39.1855469 C307.908343,39.9082031 307.2101,40.875 306.42885,42.0859375 C306.057757,42.7109375 305.764788,43.5605469 305.549944,44.6347656 C305.549944,46.0214844 305.979632,47.0957031 306.839007,47.8574219 C307.971819,48.4628906 309.719866,48.8144531 312.083147,48.9121094 Z M340.274275,49.0878906 C341.680525,49.1660156 343.301618,49.0439453 345.137556,48.7216797 C346.973493,48.3994141 348.731306,47.8671875 350.410993,47.125 C352.090681,46.3828125 353.619001,45.5185547 354.995954,44.5322266 C356.372907,43.5458984 357.593611,42.4375 358.658064,41.2070312 C359.722517,39.9765625 360.396345,38.9316406 360.679548,38.0722656 C360.962751,37.2128906 360.918806,36.3974609 360.547712,35.6259766 C360.176618,34.8544922 359.766462,34.234375 359.317243,33.765625 C358.868025,33.296875 358.306501,32.7744141 357.632673,32.1982422 C356.958845,31.6220703 356.294782,31.0751953 355.640486,30.5576172 C354.986189,30.0400391 354.03404,29.234375 352.78404,28.140625 C351.53404,27.046875 350.3524,25.7724609 349.239118,24.3173828 C348.125837,22.8623047 347.359236,21.6171875 346.939314,20.5820312 C346.519392,19.546875 346.407087,18.3164063 346.6024,16.890625 C346.797712,15.4648438 347.530134,14.1220703 348.799665,12.8623047 C350.069196,11.6025391 351.88072,10.5820313 354.234236,9.80078125 C356.587751,9.01953125 358.838728,8.58496094 360.987165,8.49707031 C363.135603,8.40917969 364.639509,8.87304688 365.498884,9.88867188 C366.807478,10.8652344 367.256696,12.2617188 366.84654,14.078125 C365.90904,15.9726563 364.082868,17.90625 361.368025,19.8789062 C361.368025,20.0742188 361.621931,20.09375 362.129743,19.9375 C363.555525,19.4492188 364.825056,18.5800781 365.938337,17.3300781 C367.051618,16.0800781 367.744978,15.1425781 368.018415,14.5175781 C368.702009,13.6386719 368.872907,12.6035156 368.531111,11.4121094 C368.189314,10.2207031 367.38365,9.19042969 366.114118,8.32128906 C364.844587,7.45214844 363.145368,7.02734375 361.016462,7.046875 C358.887556,7.06640625 356.963728,7.33007813 355.244978,7.83789063 C353.526228,8.34570313 352.032087,8.92675781 350.762556,9.58105469 C349.493025,10.2353516 348.487165,10.9042969 347.744978,11.5878906 C347.00279,12.2714844 346.382673,12.9990234 345.884626,13.7705078 C345.386579,14.5419922 345.069196,15.5087891 344.932478,16.6708984 C344.795759,17.8330078 344.927595,19.1855469 345.327986,20.7285156 C345.728376,22.2714844 346.529157,23.7558594 347.730329,25.1816406 C348.931501,26.6074219 350.264509,27.9746094 351.729353,29.2832031 C354.19029,31.3925781 355.982282,32.9208984 357.105329,33.8681641 C358.228376,34.8154297 358.7899,35.7773438 358.7899,36.7539062 C358.7899,37.7304688 358.111189,39.0341797 356.753767,40.6650391 C355.396345,42.2958984 353.365095,43.7851562 350.660017,45.1328125 C347.954939,46.4804688 345.220564,47.2373047 342.456892,47.4033203 C339.69322,47.5693359 337.38365,47.28125 335.528181,46.5390625 C335.176618,45.7578125 334.854353,45.2792969 334.561384,45.1035156 C334.268415,44.8886719 334.097517,44.9033203 334.048689,45.1474609 C333.999861,45.3916016 333.980329,45.7773438 333.990095,46.3046875 C333.999861,46.8320312 334.25865,47.3349609 334.766462,47.8134766 C335.274275,48.2919922 335.967634,48.6044922 336.84654,48.7509766 C337.725446,48.8974609 338.868025,49.0097656 340.274275,49.0878906 Z M370.428292,49.0878906 C371.834542,49.1660156 373.455636,49.0439453 375.291574,48.7216797 C377.127511,48.3994141 378.885324,47.8671875 380.565011,47.125 C382.244699,46.3828125 383.773019,45.5185547 385.149972,44.5322266 C386.526925,43.5458984 387.747628,42.4375 388.812082,41.2070312 C389.876535,39.9765625 390.550363,38.9316406 390.833566,38.0722656 C391.116769,37.2128906 391.072824,36.3974609 390.70173,35.6259766 C390.330636,34.8544922 389.92048,34.234375 389.471261,33.765625 C389.022042,33.296875 388.460519,32.7744141 387.786691,32.1982422 C387.112863,31.6220703 386.4488,31.0751953 385.794503,30.5576172 C385.140207,30.0400391 384.188058,29.234375 382.938058,28.140625 C381.688058,27.046875 380.506417,25.7724609 379.393136,24.3173828 C378.279855,22.8623047 377.513253,21.6171875 377.093332,20.5820312 C376.67341,19.546875 376.561105,18.3164063 376.756417,16.890625 C376.95173,15.4648438 377.684152,14.1220703 378.953683,12.8623047 C380.223214,11.6025391 382.034738,10.5820313 384.388253,9.80078125 C386.741769,9.01953125 388.992746,8.58496094 391.141183,8.49707031 C393.289621,8.40917969 394.793527,8.87304688 395.652902,9.88867188 C396.961496,10.8652344 397.410714,12.2617188 397.000558,14.078125 C396.063058,15.9726563 394.236886,17.90625 391.522042,19.8789062 C391.522042,20.0742188 391.775949,20.09375 392.283761,19.9375 C393.709542,19.4492188 394.979074,18.5800781 396.092355,17.3300781 C397.205636,16.0800781 397.898996,15.1425781 398.172433,14.5175781 C398.856027,13.6386719 399.026925,12.6035156 398.685128,11.4121094 C398.343332,10.2207031 397.537667,9.19042969 396.268136,8.32128906 C394.998605,7.45214844 393.299386,7.02734375 391.17048,7.046875 C389.041574,7.06640625 387.117746,7.33007813 385.398996,7.83789063 C383.680246,8.34570313 382.186105,8.92675781 380.916574,9.58105469 C379.647042,10.2353516 378.641183,10.9042969 377.898996,11.5878906 C377.156808,12.2714844 376.536691,12.9990234 376.038644,13.7705078 C375.540597,14.5419922 375.223214,15.5087891 375.086496,16.6708984 C374.949777,17.8330078 375.081613,19.1855469 375.482003,20.7285156 C375.882394,22.2714844 376.683175,23.7558594 377.884347,25.1816406 C379.085519,26.6074219 380.418527,27.9746094 381.883371,29.2832031 C384.344308,31.3925781 386.1363,32.9208984 387.259347,33.8681641 C388.382394,34.8154297 388.943917,35.7773438 388.943917,36.7539062 C388.943917,37.7304688 388.265207,39.0341797 386.907785,40.6650391 C385.550363,42.2958984 383.519113,43.7851562 380.814035,45.1328125 C378.108957,46.4804688 375.374582,47.2373047 372.61091,47.4033203 C369.847238,47.5693359 367.537667,47.28125 365.682199,46.5390625 C365.330636,45.7578125 365.008371,45.2792969 364.715402,45.1035156 C364.422433,44.8886719 364.251535,44.9033203 364.202707,45.1474609 C364.153878,45.3916016 364.134347,45.7773438 364.144113,46.3046875 C364.153878,46.8320312 364.412667,47.3349609 364.92048,47.8134766 C365.428292,48.2919922 366.121652,48.6044922 367.000558,48.7509766 C367.879464,48.8974609 369.022042,49.0097656 370.428292,49.0878906 Z" id="ORCHIDDRESS" fill="#000000" fill-rule="nonzero"></path>
    </g>
</svg>