<?xml version="1.0" encoding="UTF-8"?>
<svg width="343px" height="50px" viewBox="0 0 343 50" version="1.1" xmlns="http://www.w3.org/2000/svg" xmlns:xlink="http://www.w3.org/1999/xlink">
    <title>POPPYDRESS</title>
    <g id="final-copy" stroke="none" stroke-width="1" fill="none" fill-rule="evenodd">
        <path d="M6.73828125,49.8925781 C6.9921875,49.9316406 7.25585938,49.4726562 7.52929688,48.515625 C8.05664062,45.546875 8.51074219,43.0224609 8.89160156,40.9423828 C9.27246094,38.8623047 9.63867188,36.8994141 9.99023438,35.0537109 C10.3417969,33.2080078 10.9082031,30.2734375 11.6894531,26.25 C13.1347656,25.3320312 14.5751953,24.4970703 16.0107422,23.7451172 C17.4462891,22.9931641 19.3017578,21.8066406 21.5771484,20.1855469 C23.8525391,18.5644531 25.8496094,16.6894531 27.5683594,14.5605469 C29.2871094,12.4316406 30.15625,10.9375 30.1757812,10.078125 C30.1953125,9.21875 30.0537109,8.56445312 29.7509766,8.11523438 C29.4482422,7.66601562 28.828125,7.11425781 27.890625,6.45996094 C26.953125,5.80566406 25.8496094,5.21484375 24.5800781,4.6875 C23.3105469,4.16015625 21.8896484,3.85742188 20.3173828,3.77929688 C18.7451172,3.70117188 16.7773438,3.69140625 14.4140625,3.75 C14.3554688,3.49609375 13.984375,3.26171875 13.3007812,3.046875 L13.3007812,3.046875 L13.2128906,3.046875 C12.9199219,3.18359375 12.7734375,3.515625 12.7734375,4.04296875 C12.1875,4.140625 11.3916016,4.32128906 10.3857422,4.58496094 C9.37988281,4.84863281 8.3984375,5.14648438 7.44140625,5.47851562 C6.484375,5.81054688 5.5078125,6.21582031 4.51171875,6.69433594 C3.515625,7.17285156 2.84667969,7.7734375 2.50488281,8.49609375 C2.16308594,9.21875 1.953125,9.87304688 1.875,10.4589844 C1.796875,11.0449219 1.78710938,11.3964844 1.84570312,11.5136719 C2.25585938,11.5136719 2.51953125,11.4257812 2.63671875,11.25 C3.18359375,9.9609375 3.68652344,9.16503906 4.14550781,8.86230469 C4.60449219,8.55957031 5.17089844,8.25195312 5.84472656,7.93945312 C6.51855469,7.62695312 7.46582031,7.27539062 8.68652344,6.88476562 C9.90722656,6.49414062 11.2207031,6.25 12.6269531,6.15234375 C12.0605469,9.8828125 11.5527344,13.2128906 11.1035156,16.1425781 C10.6542969,19.0722656 10.1464844,22.0507812 9.58007812,25.078125 C7.64648438,26.0742188 6.18164062,26.8652344 5.18554688,27.4511719 C4.18945312,28.0371094 3.37890625,28.4912109 2.75390625,28.8134766 C2.12890625,29.1357422 1.42578125,29.609375 0.64453125,30.234375 C0.64453125,30.546875 0.991210938,30.6933594 1.68457031,30.6738281 C2.37792969,30.6542969 3.13964844,30.4589844 3.96972656,30.0878906 C4.79980469,29.7167969 5.59082031,29.3164062 6.34277344,28.8867188 C7.09472656,28.4570312 8.09570312,27.9492188 9.34570312,27.3632812 C8.91601562,30.1171875 8.56445312,32.1386719 8.29101562,33.4277344 C8.01757812,34.7167969 7.71484375,36.4160156 7.3828125,38.5253906 C7.05078125,40.6347656 6.82128906,42.1240234 6.69433594,42.9931641 C6.56738281,43.8623047 6.46972656,44.9462891 6.40136719,46.2451172 C6.33300781,47.5439453 6.30859375,48.4667969 6.328125,49.0136719 C6.34765625,49.5605469 6.484375,49.8535156 6.73828125,49.8925781 Z M11.9824219,23.9648438 C12.9003906,17.9101562 13.4863281,14.1455078 13.7402344,12.6708984 C13.9941406,11.1962891 14.3164062,8.91601562 14.7070312,5.83007812 C16.953125,5.63476562 18.5888672,5.56640625 19.6142578,5.625 C20.6396484,5.68359375 21.8115234,5.92285156 23.1298828,6.34277344 C24.4482422,6.76269531 25.5908203,7.29492188 26.5576172,7.93945312 C27.5244141,8.58398438 28.0078125,9.2578125 28.0078125,9.9609375 C28.0078125,10.6640625 27.265625,11.9238281 25.78125,13.7402344 C24.296875,15.5566406 22.7783203,17.0703125 21.2255859,18.28125 C19.6728516,19.4921875 18.1542969,20.5078125 16.6699219,21.328125 C15.1855469,22.1484375 13.6230469,23.0273438 11.9824219,23.9648438 Z M39.0560307,45.0258636 L39.5290179,45.0146484 C41.2672991,44.9462891 42.9274554,44.5605469 44.5094866,43.8574219 C46.0915179,43.1542969 47.5368304,42.34375 48.8454241,41.4257812 C50.1540179,40.5078125 51.3014788,39.5263672 52.2878069,38.4814453 C53.274135,37.4365234 54.2848772,36.0986328 55.3200335,34.4677734 C56.3551897,32.8369141 57.3073382,31.0742188 58.1764788,29.1796875 C59.0456194,27.2851562 59.7145647,25.4394531 60.1833147,23.6425781 C60.6520647,21.8457031 60.8571429,20.2050781 60.7985491,18.7207031 C60.7399554,17.2363281 60.5739397,15.8447266 60.3005022,14.5458984 C60.0270647,13.2470703 59.6120257,12.0166016 59.055385,10.8544922 C58.4987444,9.69238281 57.8200335,8.6328125 57.0192522,7.67578125 C56.218471,6.71875 55.2174944,5.84960938 54.0163225,5.06835938 C52.8151507,4.28710938 51.9557757,3.81347656 51.4381975,3.64746094 C50.9206194,3.48144531 50.2858538,3.359375 49.5339007,3.28125 C48.7819475,3.203125 48.0739397,3.17382812 47.4098772,3.19335938 C46.765346,3.21289062 45.8327288,3.48632812 44.6120257,4.01367188 C43.3913225,4.54101562 42.1120257,5.34667969 40.774135,6.43066406 C39.4362444,7.51464844 37.7956194,9.44335938 35.85226,12.2167969 C33.9089007,14.9902344 32.4196429,17.6269531 31.3844866,20.1269531 C30.3493304,22.6269531 29.6120257,24.8193359 29.1725725,26.7041016 C28.7331194,28.5888672 28.4450335,30.2685547 28.3083147,31.7431641 C28.171596,33.2177734 28.1911272,34.8828125 28.3669085,36.7382812 C28.6794085,38.3789062 29.3581194,39.9072266 30.4030413,41.3232422 C31.4479632,42.7392578 32.7956194,43.7255859 34.44601,44.2822266 C36.0964007,44.8388672 37.7907366,45.0830078 39.5290179,45.0146484 L39.0560307,45.0258636 Z M41.00851,42.9931641 C40.0417132,43.2568359 38.874721,43.28125 37.5075335,43.0664062 C36.140346,42.8515625 34.9880022,42.5048828 34.0505022,42.0263672 C33.1130022,41.5478516 32.3317522,40.8789062 31.7067522,40.0195312 C31.0817522,39.1601562 30.6130022,38.1640625 30.3005022,37.03125 C29.9880022,35.8984375 29.9635882,34.2773438 30.22726,32.1679688 C30.4909319,30.0585938 30.8962054,28.0810547 31.4430804,26.2353516 C31.9899554,24.3896484 32.5905413,22.6708984 33.2448382,21.0791016 C33.899135,19.4873047 35.1149554,17.2753906 36.8922991,14.4433594 C38.6696429,11.6113281 40.3005022,9.56054688 41.7848772,8.29101562 C43.2692522,7.02148437 44.5339007,6.19628906 45.5788225,5.81542969 C46.6237444,5.43457031 47.8102679,5.28320312 49.1383929,5.36132812 C50.4860491,5.41992187 51.7262835,6.20117187 52.859096,7.70507812 C52.9176897,7.70507812 53.015346,7.69042969 53.1520647,7.66113281 C53.2887835,7.63183594 53.4157366,7.52929687 53.5329241,7.35351562 L53.5329241,7.35351562 L53.5036272,6.73828125 C55.7301897,8.96484375 57.1169085,10.8398438 57.6637835,12.3632812 C58.2106585,13.8867188 58.586635,15.3564453 58.7917132,16.7724609 C58.9967913,18.1884766 58.9040179,19.8730469 58.5133929,21.8261719 C58.1227679,23.7792969 57.4880022,25.7519531 56.609096,27.7441406 C55.7301897,29.7363281 54.680385,31.6943359 53.4596819,33.6181641 C52.2389788,35.5419922 50.9743304,37.0556641 49.6657366,38.1591797 C48.3571429,39.2626953 46.8288225,40.2783203 45.0807757,41.2060547 C43.3327288,42.1337891 41.9753069,42.7294922 41.00851,42.9931641 Z M69.9760045,49.8925781 C70.2299107,49.9316406 70.4935826,49.4726562 70.7670201,48.515625 C71.2943638,45.546875 71.7484654,43.0224609 72.1293248,40.9423828 C72.5101842,38.8623047 72.8763951,36.8994141 73.2279576,35.0537109 C73.5795201,33.2080078 74.1459263,30.2734375 74.9271763,26.25 C76.3724888,25.3320312 77.8129185,24.4970703 79.2484654,23.7451172 C80.6840123,22.9931641 82.539481,21.8066406 84.8148717,20.1855469 C87.0902623,18.5644531 89.0873326,16.6894531 90.8060826,14.5605469 C92.5248326,12.4316406 93.3939732,10.9375 93.4135045,10.078125 C93.4330357,9.21875 93.2914342,8.56445312 92.9886998,8.11523438 C92.6859654,7.66601562 92.0658482,7.11425781 91.1283482,6.45996094 C90.1908482,5.80566406 89.0873326,5.21484375 87.8178013,4.6875 C86.5482701,4.16015625 85.1273717,3.85742188 83.555106,3.77929688 C81.9828404,3.70117188 80.015067,3.69140625 77.6517857,3.75 C77.593192,3.49609375 77.2220982,3.26171875 76.5385045,3.046875 L76.5385045,3.046875 L76.4506138,3.046875 C76.1576451,3.18359375 76.0111607,3.515625 76.0111607,4.04296875 C75.4252232,4.140625 74.6293248,4.32128906 73.6234654,4.58496094 C72.617606,4.84863281 71.6361607,5.14648438 70.6791295,5.47851562 C69.7220982,5.81054688 68.7455357,6.21582031 67.749442,6.69433594 C66.7533482,7.17285156 66.0844029,7.7734375 65.742606,8.49609375 C65.4008092,9.21875 65.1908482,9.87304688 65.1127232,10.4589844 C65.0345982,11.0449219 65.0248326,11.3964844 65.0834263,11.5136719 C65.4935826,11.5136719 65.7572545,11.4257812 65.874442,11.25 C66.421317,9.9609375 66.9242467,9.16503906 67.383231,8.86230469 C67.8422154,8.55957031 68.4086217,8.25195312 69.0824498,7.93945312 C69.7562779,7.62695312 70.7035435,7.27539062 71.9242467,6.88476562 C73.1449498,6.49414062 74.4584263,6.25 75.8646763,6.15234375 C75.2982701,9.8828125 74.7904576,13.2128906 74.3412388,16.1425781 C73.8920201,19.0722656 73.3842076,22.0507812 72.8178013,25.078125 C70.8842076,26.0742188 69.4193638,26.8652344 68.4232701,27.4511719 C67.4271763,28.0371094 66.6166295,28.4912109 65.9916295,28.8134766 C65.3666295,29.1357422 64.6635045,29.609375 63.8822545,30.234375 C63.8822545,30.546875 64.2289342,30.6933594 64.9222935,30.6738281 C65.6156529,30.6542969 66.3773717,30.4589844 67.2074498,30.0878906 C68.0375279,29.7167969 68.8285435,29.3164062 69.5804967,28.8867188 C70.3324498,28.4570312 71.3334263,27.9492188 72.5834263,27.3632812 C72.1537388,30.1171875 71.8021763,32.1386719 71.5287388,33.4277344 C71.2553013,34.7167969 70.952567,36.4160156 70.6205357,38.5253906 C70.2885045,40.6347656 70.0590123,42.1240234 69.9320592,42.9931641 C69.805106,43.8623047 69.7074498,44.9462891 69.6390904,46.2451172 C69.570731,47.5439453 69.546317,48.4667969 69.5658482,49.0136719 C69.5853795,49.5605469 69.7220982,49.8535156 69.9760045,49.8925781 Z M75.2201451,23.9648438 C76.1381138,17.9101562 76.7240513,14.1455078 76.9779576,12.6708984 C77.2318638,11.1962891 77.5541295,8.91601562 77.9447545,5.83007812 C80.1908482,5.63476562 81.8265904,5.56640625 82.851981,5.625 C83.8773717,5.68359375 85.0492467,5.92285156 86.367606,6.34277344 C87.6859654,6.76269531 88.8285435,7.29492188 89.7953404,7.93945312 C90.7621373,8.58398438 91.2455357,9.2578125 91.2455357,9.9609375 C91.2455357,10.6640625 90.5033482,11.9238281 89.0189732,13.7402344 C87.5345982,15.5566406 86.0160435,17.0703125 84.4633092,18.28125 C82.9105748,19.4921875 81.3920201,20.5078125 79.9076451,21.328125 C78.4232701,22.1484375 76.8607701,23.0273438 75.2201451,23.9648438 Z M97.2003348,49.8925781 C97.4542411,49.9316406 97.717913,49.4726562 97.9913505,48.515625 C98.5186942,45.546875 98.9727958,43.0224609 99.3536551,40.9423828 C99.7345145,38.8623047 100.100725,36.8994141 100.452288,35.0537109 C100.80385,33.2080078 101.370257,30.2734375 102.151507,26.25 C103.596819,25.3320312 105.037249,24.4970703 106.472796,23.7451172 C107.908343,22.9931641 109.763811,21.8066406 112.039202,20.1855469 C114.314593,18.5644531 116.311663,16.6894531 118.030413,14.5605469 C119.749163,12.4316406 120.618304,10.9375 120.637835,10.078125 C120.657366,9.21875 120.515765,8.56445312 120.21303,8.11523438 C119.910296,7.66601562 119.290179,7.11425781 118.352679,6.45996094 C117.415179,5.80566406 116.311663,5.21484375 115.042132,4.6875 C113.7726,4.16015625 112.351702,3.85742188 110.779436,3.77929688 C109.207171,3.70117188 107.239397,3.69140625 104.876116,3.75 C104.817522,3.49609375 104.446429,3.26171875 103.762835,3.046875 L103.762835,3.046875 L103.674944,3.046875 C103.381975,3.18359375 103.235491,3.515625 103.235491,4.04296875 C102.649554,4.140625 101.853655,4.32128906 100.847796,4.58496094 C99.8419364,4.84863281 98.8604911,5.14648438 97.9034598,5.47851562 C96.9464286,5.81054688 95.9698661,6.21582031 94.9737723,6.69433594 C93.9776786,7.17285156 93.3087333,7.7734375 92.9669364,8.49609375 C92.6251395,9.21875 92.4151786,9.87304688 92.3370536,10.4589844 C92.2589286,11.0449219 92.249163,11.3964844 92.3077567,11.5136719 C92.717913,11.5136719 92.9815848,11.4257812 93.0987723,11.25 C93.6456473,9.9609375 94.148577,9.16503906 94.6075614,8.86230469 C95.0665458,8.55957031 95.632952,8.25195312 96.3067801,7.93945312 C96.9806083,7.62695312 97.9278739,7.27539062 99.148577,6.88476562 C100.36928,6.49414062 101.682757,6.25 103.089007,6.15234375 C102.5226,9.8828125 102.014788,13.2128906 101.565569,16.1425781 C101.11635,19.0722656 100.608538,22.0507812 100.042132,25.078125 C98.108538,26.0742188 96.6436942,26.8652344 95.6476005,27.4511719 C94.6515067,28.0371094 93.8409598,28.4912109 93.2159598,28.8134766 C92.5909598,29.1357422 91.8878348,29.609375 91.1065848,30.234375 C91.1065848,30.546875 91.4532645,30.6933594 92.1466239,30.6738281 C92.8399833,30.6542969 93.601702,30.4589844 94.4317801,30.0878906 C95.2618583,29.7167969 96.0528739,29.3164062 96.804827,28.8867188 C97.5567801,28.4570312 98.5577567,27.9492188 99.8077567,27.3632812 C99.3780692,30.1171875 99.0265067,32.1386719 98.7530692,33.4277344 C98.4796317,34.7167969 98.1768973,36.4160156 97.8448661,38.5253906 C97.5128348,40.6347656 97.2833426,42.1240234 97.1563895,42.9931641 C97.0294364,43.8623047 96.9317801,44.9462891 96.8634208,46.2451172 C96.7950614,47.5439453 96.7706473,48.4667969 96.7901786,49.0136719 C96.8097098,49.5605469 96.9464286,49.8535156 97.2003348,49.8925781 Z M102.444475,23.9648438 C103.362444,17.9101562 103.948382,14.1455078 104.202288,12.6708984 C104.456194,11.1962891 104.77846,8.91601562 105.169085,5.83007812 C107.415179,5.63476562 109.050921,5.56640625 110.076311,5.625 C111.101702,5.68359375 112.273577,5.92285156 113.591936,6.34277344 C114.910296,6.76269531 116.052874,7.29492188 117.019671,7.93945312 C117.986468,8.58398438 118.469866,9.2578125 118.469866,9.9609375 C118.469866,10.6640625 117.727679,11.9238281 116.243304,13.7402344 C114.758929,15.5566406 113.240374,17.0703125 111.68764,18.28125 C110.134905,19.4921875 108.61635,20.5078125 107.131975,21.328125 C105.6476,22.1484375 104.0851,23.0273438 102.444475,23.9648438 Z M117.935407,47.6074219 C117.574079,48.5253906 117.740095,48.7207031 118.433454,48.1933594 C119.126814,47.6660156 119.800642,46.8164062 120.454939,45.6445312 C121.109236,44.4726562 121.753767,43.3056641 122.388532,42.1435547 C123.023298,40.9814453 124.126814,38.9160156 125.699079,35.9472656 C127.271345,32.9785156 129.234236,29.3847656 131.587751,25.1660156 C133.941267,20.9472656 136.075056,17.0361328 137.989118,13.4326172 C139.903181,9.82910156 141.338728,7.10449219 142.295759,5.25878906 C143.25279,3.41308594 143.653181,2.12890625 143.496931,1.40625 C143.340681,0.68359375 143.047712,0.234375 142.618025,0.05859375 C142.207868,-0.1171875 141.670759,0.161132813 141.006696,0.893554688 C140.342634,1.62597656 139.766462,2.40722656 139.278181,3.23730469 C138.7899,4.06738281 138.360212,5.06347656 137.989118,6.22558594 C137.618025,7.38769531 137.320173,8.39355469 137.095564,9.24316406 C136.870954,10.0927734 136.285017,10.9375 135.337751,11.7773438 C134.390486,12.6171875 133.199079,13.5400391 131.763532,14.5458984 C130.327986,15.5517578 128.985212,16.3134766 127.735212,16.8310547 C126.485212,17.3486328 125.625837,17.4169922 125.157087,17.0361328 C124.688337,16.6552734 124.239118,15.7226562 123.809431,14.2382813 C123.399275,12.3828125 123.150251,11.1474609 123.062361,10.5322266 C122.97447,9.91699219 122.823103,9.32128906 122.608259,8.74511719 C122.393415,8.16894531 122.022321,7.76855469 121.494978,7.54394531 C120.967634,7.31933594 120.606306,7.49023438 120.410993,8.05664062 C120.743025,8.38867188 121.045759,9.34570312 121.319196,10.9277344 C121.983259,14.5410156 122.69615,16.8652344 123.457868,17.9003906 C124.219587,18.9355469 125.137556,19.375 126.211775,19.21875 C127.285993,19.0625 128.863142,18.3886719 130.94322,17.1972656 C133.023298,16.0058594 134.707868,14.6875 135.996931,13.2421875 C126.558064,30.5033203 121.10677,40.5976499 119.64305,43.5251763 L119.550414,43.7116802 C119.42052,43.9751499 119.331403,44.165332 119.283064,44.2822266 C118.745954,45.5810547 118.296736,46.6894531 117.935407,47.6074219 Z M139.278181,7.5 C139.88365,5.64453125 140.625837,4.07226562 141.504743,2.78320312 C141.563337,3.21289062 140.82115,4.78515625 139.278181,7.5 Z M177.855469,43.7695312 C177.679688,44.7265625 177.801758,45.1367188 178.22168,45 C178.641602,44.8632812 178.96875,44.3847656 179.203125,43.5644531 C181.15625,43.2128906 183.158203,42.6953125 185.208984,42.0117188 C187.259766,41.328125 189.149414,40.6640625 190.87793,40.0195312 C192.606445,39.375 193.910156,38.8378906 194.789063,38.4082031 C195.667969,37.9785156 197.352539,36.9824219 199.842773,35.4199219 C202.333008,33.8574219 204.427734,32.0556641 206.126953,30.0146484 C207.826172,27.9736328 208.802734,25.9423828 209.056641,23.9208984 C209.310547,21.8994141 209.168945,20.0439453 208.631836,18.3544922 C208.094727,16.6650391 207.230469,14.9365234 206.039063,13.1689453 C204.847656,11.4013672 203.353516,9.84863281 201.556641,8.51074219 C199.759766,7.17285156 197.904297,6.08886719 195.990234,5.25878906 C194.076172,4.42871094 192.459961,3.89160156 191.141602,3.64746094 C189.823242,3.40332031 187.884766,3.203125 185.326172,3.046875 C182.787109,2.87109375 180.223633,2.98828125 177.635742,3.3984375 C175.047852,3.80859375 173.143555,4.25292969 171.922852,4.73144531 C170.702148,5.20996094 169.632813,5.83007812 168.714844,6.59179688 C167.796875,7.35351562 167.425781,8.42773438 167.601563,9.81445312 C167.855469,10.8496094 168.436523,11.5087891 169.344727,11.7919922 C170.25293,12.0751953 170.448242,11.7529297 169.930664,10.8251953 C169.413086,9.89746094 169.320313,9.21875 169.652344,8.7890625 C170.550781,7.87109375 171.400391,7.2265625 172.201172,6.85546875 C173.001953,6.484375 174.15918,6.11816406 175.672852,5.75683594 C177.186523,5.39550781 178.96875,5.14160156 181.019531,4.99511719 C183.070313,4.84863281 185.023438,4.86816406 186.878906,5.05371094 C188.734375,5.23925781 190.853516,5.67871094 193.236328,6.37207031 C195.619141,7.06542969 197.894531,8.28613281 200.0625,10.0341797 C202.230469,11.7822266 203.822266,13.5644531 204.837891,15.3808594 C205.853516,17.1972656 206.488281,18.7304688 206.742188,19.9804688 C206.996094,21.2304688 207.05957,22.5439453 206.932617,23.9208984 C206.805664,25.2978516 206.170898,26.6894531 205.02832,28.0957031 C203.885742,29.5019531 202.674805,30.7470703 201.395508,31.8310547 C200.116211,32.9150391 198.724609,33.9208984 197.220703,34.8486328 C195.716797,35.7763672 193.631836,36.8115234 190.96582,37.9541016 C188.299805,39.0966797 184.583984,40.3515625 179.818359,41.71875 C180.560547,38.5546875 181.15625,35.9277344 181.605469,33.8378906 C182.054688,31.7480469 182.489258,29.7021484 182.90918,27.7001953 C183.329102,25.6982422 183.768555,23.5546875 184.227539,21.2695312 C184.686523,18.984375 185.238281,16.5185547 185.882813,13.8720703 C186.527344,11.2255859 186.517578,9.56542969 185.853516,8.89160156 C185.189453,8.21777344 184.745117,8.28613281 184.520508,9.09667969 C184.295898,9.90722656 183.949219,11.4746094 183.480469,13.7988281 C183.011719,16.1230469 182.552734,18.359375 182.103516,20.5078125 C181.654297,22.65625 181.229492,24.7802734 180.829102,26.8798828 C180.428711,28.9794922 179.969727,31.4355469 179.452148,34.2480469 C178.93457,37.0605469 178.519531,39.6289062 178.207031,41.953125 C175.511719,42.265625 173.231445,42.3046875 171.366211,42.0703125 C169.500977,41.8359375 168.958984,42.0263672 169.740234,42.6416016 C170.521484,43.2568359 171.351563,43.6279297 172.230469,43.7548828 C173.109375,43.8818359 173.958984,43.9306641 174.779297,43.9013672 C175.599609,43.8720703 176.625,43.828125 177.855469,43.7695312 Z M217.706752,48.4863281 C218.058315,48.3300781 218.29269,48.1787109 218.409877,48.0322266 C218.527065,47.8857422 218.712612,47.5292969 218.966518,46.9628906 C219.728237,43.6621094 220.299526,40.8496094 220.680385,38.5253906 C221.061244,36.2011719 221.324916,34.5947266 221.471401,33.7060547 C221.617885,32.8173828 221.915737,30.7519531 222.364955,27.5097656 C226.407924,30.4589844 229.279018,32.7001953 230.978237,34.2333984 C232.677455,35.7666016 235.01144,37.5830078 237.98019,39.6826172 C240.94894,41.7822266 243.91769,43.2617188 246.88644,44.1210938 C248.116909,44.21875 248.195034,43.9355469 247.120815,43.2714844 C246.320034,42.9980469 245.148159,42.4072266 243.60519,41.4990234 C242.062221,40.5908203 240.128627,39.2431641 237.804409,37.4560547 C235.48019,35.6689453 233.063198,33.7451172 230.553432,31.6845703 C228.043666,29.6240234 225.402065,27.6855469 222.628627,25.8691406 C222.765346,24.9902344 222.902065,24.1894531 223.038784,23.4667969 C224.38644,23.1542969 226.124721,22.5732422 228.253627,21.7236328 C230.382534,20.8740234 232.052455,20.0878906 233.263393,19.3652344 C234.47433,18.6425781 235.641323,17.7099609 236.764369,16.5673828 C237.887416,15.4248047 238.69308,14.4335937 239.181362,13.59375 C239.669643,12.7539062 239.947963,11.9042969 240.016323,11.0449219 C240.084682,10.1855469 240.045619,9.4921875 239.899135,8.96484375 C239.752651,8.4375 239.425502,7.8125 238.91769,7.08984375 C238.409877,6.3671875 237.574916,5.68359375 236.412807,5.0390625 C235.250698,4.39453125 233.741909,3.93554688 231.88644,3.66210938 C230.030971,3.38867188 228.038784,3.23242188 225.909877,3.19335938 C225.616909,2.11914063 225.226284,1.53320313 224.738002,1.43554688 C224.249721,1.31835938 224.054409,1.484375 224.152065,1.93359375 L224.152065,1.93359375 L224.152065,2.78320313 L224.034877,3.48632813 C223.312221,3.70117188 222.530971,3.95019531 221.691127,4.23339844 C220.851284,4.51660156 219.835659,4.99511719 218.644252,5.66894531 C217.452846,6.34277344 216.744838,6.9140625 216.520229,7.3828125 C216.295619,7.8515625 216.183315,8.26171875 216.183315,8.61328125 C216.183315,8.96484375 216.251674,9.23339844 216.388393,9.41894531 C216.525112,9.60449219 216.715541,10.0048828 216.959682,10.6201172 C217.203823,11.2353516 217.51144,11.9238281 217.882534,12.6855469 C218.273159,12.3339844 218.390346,11.9287109 218.234096,11.4697266 C218.077846,11.0107422 217.867885,10.3955078 217.604213,9.62402344 C217.340541,8.85253906 217.521205,8.21289062 218.146205,7.70507813 C218.771205,7.19726563 219.410854,6.77246094 220.065151,6.43066406 C220.719448,6.08886719 222.003627,5.63476563 223.91769,5.06835938 C223.331752,8.79882812 222.941127,11.2060547 222.745815,12.2900391 C222.550502,13.3740234 222.340541,14.6923828 222.115932,16.2451172 C222.098654,16.3645583 222.081117,16.4862241 222.063319,16.6101146 L221.953412,17.3801544 C221.765034,18.7080483 221.550652,20.2584135 221.310268,22.03125 C219.63058,22.3632812 218.297573,22.5830078 217.311244,22.6904297 C216.324916,22.7978516 215.377651,22.8710938 214.469448,22.9101562 C213.561244,22.9492188 213.116909,23.1542969 213.13644,23.5253906 C213.155971,23.8964844 213.38058,24.3457031 213.810268,24.8730469 C214.31808,24.8730469 214.874721,24.8242188 215.48019,24.7265625 C216.437221,24.7265625 217.491909,24.9707031 218.644252,25.4589844 L218.644252,25.4589844 L220.577846,26.484375 C220.070034,30.2734375 219.591518,33.5253906 219.142299,36.2402344 C218.69308,38.9550781 218.282924,41.25 217.91183,43.125 C217.540737,45 217.218471,46.5820312 216.945034,47.8710938 L216.945034,47.8710938 L217.44308,48.4863281 L217.706752,48.4863281 Z M223.390346,21.4453125 C223.663784,19.609375 223.88351,18.1152344 224.049526,16.9628906 C224.12331,16.4507378 224.202882,15.8971113 224.288241,15.302011 L224.420619,14.3782552 C224.488979,13.9008247 224.560593,13.4000651 224.635463,12.8759766 C224.691616,12.4829102 224.744716,12.1112061 224.794765,11.7608643 L224.935756,10.7739258 C225.023647,10.1586914 225.09933,9.62890625 225.162807,9.18457031 C225.28976,8.29589844 225.509487,6.86523438 225.821987,4.89257812 C227.247768,4.75585938 228.820034,4.8046875 230.538784,5.0390625 C232.257534,5.2734375 233.541713,5.52734375 234.391323,5.80078125 C235.240932,6.07421875 236.134487,6.50390625 237.071987,7.08984375 C237.931362,8.14453125 238.400112,8.95019531 238.478237,9.50683594 C238.556362,10.0634766 238.468471,10.7373047 238.214565,11.5283203 C237.960659,12.3193359 237.428432,13.1933594 236.617885,14.1503906 C235.807338,15.1074219 234.825893,16.0205078 233.673549,16.8896484 C232.521205,17.7587891 231.031948,18.5986328 229.205776,19.4091797 C227.379604,20.2197266 225.441127,20.8984375 223.390346,21.4453125 Z M220.900112,24.7558594 C220.607143,24.5996094 220.216518,24.4335938 219.728237,24.2578125 C220.157924,24.1601562 220.587612,24.0527344 221.017299,23.9355469 L221.017299,23.9355469 L220.900112,24.7558594 Z M255.683036,44.9121094 C258.046317,45.0097656 260.731864,45.0097656 263.739676,44.9121094 C267.841239,44.4824219 271.708426,43.4863281 275.341239,41.9238281 C276.005301,41.4941406 275.643973,41.3476562 274.257254,41.484375 C271.952567,41.7773438 269.950614,42.0996094 268.251395,42.4511719 C266.552176,42.8027344 263.690848,43.125 259.667411,43.4179688 C256.601004,43.3789062 254.691825,43.3007812 253.939872,43.1835938 C253.187919,43.0664062 252.499442,42.9199219 251.874442,42.7441406 C250.995536,42.1386719 250.67327,41.3574219 250.907645,40.4003906 L250.907645,40.4003906 L251.288504,39.4921875 C251.854911,38.6132812 252.318778,37.9394531 252.680106,37.4707031 C253.041434,37.0019531 253.739676,36.1914062 254.774833,35.0390625 C255.868583,33.9648438 257.089286,32.8417969 258.436942,31.6699219 C259.784598,30.7128906 260.849051,29.9121094 261.630301,29.2675781 C262.411551,28.6230469 263.280692,27.9882812 264.237723,27.3632812 C265.585379,26.5429688 266.835379,25.7128906 267.987723,24.8730469 C269.237723,23.9746094 270.653739,23.0859375 272.23577,22.2070312 C273.01702,21.7773438 273.48577,21.2988281 273.64202,20.7714844 C273.563895,20.0292969 273.202567,19.5800781 272.558036,19.4238281 C271.933036,19.3847656 271.347098,19.4042969 270.800223,19.4824219 C269.706473,19.5605469 268.515067,19.6875 267.226004,19.8632812 L267.226004,19.8632812 L264.589286,19.9804688 C262.655692,19.9609375 261.278739,19.9023438 260.458426,19.8046875 C259.638114,19.7070312 258.739676,19.5117188 257.763114,19.21875 C256.884208,18.6914062 256.425223,18.0810547 256.386161,17.3876953 C256.347098,16.6943359 256.547294,15.8984375 256.986747,15 C257.4262,14.1015625 258.212333,12.9833984 259.345145,11.6455078 C260.477958,10.3076172 261.796317,9.23828125 263.300223,8.4375 C265.370536,7.265625 267.04534,6.46484375 268.324637,6.03515625 C269.603934,5.60546875 270.785575,5.28808594 271.869559,5.08300781 C272.953544,4.87792969 274.042411,4.78515625 275.136161,4.8046875 C276.601004,4.765625 277.479911,5.2734375 277.772879,6.328125 C278.007254,7.3046875 278.32952,7.79296875 278.739676,7.79296875 C278.895926,7.734375 279.061942,7.49023438 279.237723,7.06054688 L279.237723,7.06054688 L279.237723,5.859375 C279.140067,5.25390625 278.949637,4.78027344 278.666434,4.43847656 C278.383231,4.09667969 278.026786,3.81835938 277.597098,3.60351562 L277.597098,3.60351562 L276.015067,3.046875 L274.257254,3.046875 C273.183036,3.1640625 272.396903,3.25195312 271.898856,3.31054688 C271.400809,3.36914062 270.370536,3.61328125 268.808036,4.04296875 C267.226004,4.53125 265.741629,5.14648438 264.354911,5.88867188 C262.030692,7.02148438 259.979911,8.34960938 258.202567,9.87304688 L258.202567,9.87304688 L256.679129,11.8359375 C255.722098,13.4179688 255.136161,14.8535156 254.921317,16.1425781 L254.921317,16.1425781 L254.833426,17.34375 C255.009208,18.8476562 255.653739,19.8535156 256.76702,20.3613281 C257.782645,20.8300781 259.11077,21.1132812 260.751395,21.2109375 C262.352958,21.25 263.749442,21.2597656 264.940848,21.2402344 L264.940848,21.2402344 L266.933036,21.2402344 C268.436942,21.1425781 269.569754,21.0351562 270.331473,20.9179688 L270.331473,20.9179688 L271.29827,20.7714844 C270.868583,21.0449219 270.321708,21.4160156 269.657645,21.8847656 C268.856864,22.4316406 268.056083,22.9394531 267.255301,23.4082031 C265.458426,24.4824219 264.320731,25.1708984 263.842215,25.4736328 C263.3637,25.7763672 262.929129,26.0742188 262.538504,26.3671875 C262.147879,26.6601562 261.498465,27.1289062 260.590262,27.7734375 C259.682059,28.4179688 258.490653,29.3261719 257.016044,30.4980469 C255.541434,31.6699219 254.511161,32.5634766 253.925223,33.1787109 C253.339286,33.7939453 252.7387,34.4628906 252.123465,35.1855469 C251.508231,35.9082031 250.809989,36.875 250.028739,38.0859375 C249.657645,38.7109375 249.364676,39.5605469 249.149833,40.6347656 C249.149833,42.0214844 249.57952,43.0957031 250.438895,43.8574219 C251.571708,44.4628906 253.319754,44.8144531 255.683036,44.9121094 Z M283.874163,45.0878906 C285.280413,45.1660156 286.901507,45.0439453 288.737444,44.7216797 C290.573382,44.3994141 292.331194,43.8671875 294.010882,43.125 C295.690569,42.3828125 297.21889,41.5185547 298.595843,40.5322266 C299.972796,39.5458984 301.193499,38.4375 302.257952,37.2070312 C303.322405,35.9765625 303.996233,34.9316406 304.279436,34.0722656 C304.56264,33.2128906 304.518694,32.3974609 304.1476,31.6259766 C303.776507,30.8544922 303.36635,30.234375 302.917132,29.765625 C302.467913,29.296875 301.90639,28.7744141 301.232561,28.1982422 C300.558733,27.6220703 299.894671,27.0751953 299.240374,26.5576172 C298.586077,26.0400391 297.633929,25.234375 296.383929,24.140625 C295.133929,23.046875 293.952288,21.7724609 292.839007,20.3173828 C291.725725,18.8623047 290.959124,17.6171875 290.539202,16.5820312 C290.11928,15.546875 290.006975,14.3164062 290.202288,12.890625 C290.3976,11.4648437 291.130022,10.1220703 292.399554,8.86230469 C293.669085,7.60253906 295.480608,6.58203125 297.834124,5.80078125 C300.18764,5.01953125 302.438616,4.58496094 304.587054,4.49707031 C306.735491,4.40917969 308.239397,4.87304687 309.098772,5.88867187 C310.407366,6.86523437 310.856585,8.26171875 310.446429,10.078125 C309.508929,11.9726562 307.682757,13.90625 304.967913,15.8789062 C304.967913,16.0742188 305.221819,16.09375 305.729632,15.9375 C307.155413,15.4492187 308.424944,14.5800781 309.538225,13.3300781 C310.651507,12.0800781 311.344866,11.1425781 311.618304,10.5175781 C312.301897,9.63867187 312.472796,8.60351562 312.130999,7.41210937 C311.789202,6.22070312 310.983538,5.19042969 309.714007,4.32128906 C308.444475,3.45214844 306.745257,3.02734375 304.61635,3.046875 C302.487444,3.06640625 300.563616,3.33007812 298.844866,3.83789062 C297.126116,4.34570312 295.631975,4.92675781 294.362444,5.58105469 C293.092913,6.23535156 292.087054,6.90429687 291.344866,7.58789062 C290.602679,8.27148437 289.982561,8.99902344 289.484515,9.77050781 C288.986468,10.5419922 288.669085,11.5087891 288.532366,12.6708984 C288.395647,13.8330078 288.527483,15.1855469 288.927874,16.7285156 C289.328265,18.2714844 290.129046,19.7558594 291.330218,21.1816406 C292.53139,22.6074219 293.864397,23.9746094 295.329241,25.2832031 C297.790179,27.3925781 299.582171,28.9208984 300.705218,29.8681641 C301.828265,30.8154297 302.389788,31.7773438 302.389788,32.7539062 C302.389788,33.7304688 301.711077,35.0341797 300.353655,36.6650391 C298.996233,38.2958984 296.964983,39.7851562 294.259905,41.1328125 C291.554827,42.4804688 288.820452,43.2373047 286.05678,43.4033203 C283.293108,43.5693359 280.983538,43.28125 279.128069,42.5390625 C278.776507,41.7578125 278.454241,41.2792969 278.161272,41.1035156 C277.868304,40.8886719 277.697405,40.9033203 277.648577,41.1474609 C277.599749,41.3916016 277.580218,41.7773438 277.589983,42.3046875 C277.599749,42.8320312 277.858538,43.3349609 278.36635,43.8134766 C278.874163,44.2919922 279.567522,44.6044922 280.446429,44.7509766 C281.325335,44.8974609 282.467913,45.0097656 283.874163,45.0878906 Z M314.028181,45.0878906 C315.434431,45.1660156 317.055525,45.0439453 318.891462,44.7216797 C320.7274,44.3994141 322.485212,43.8671875 324.1649,43.125 C325.844587,42.3828125 327.372907,41.5185547 328.749861,40.5322266 C330.126814,39.5458984 331.347517,38.4375 332.41197,37.2070312 C333.476423,35.9765625 334.150251,34.9316406 334.433454,34.0722656 C334.716657,33.2128906 334.672712,32.3974609 334.301618,31.6259766 C333.930525,30.8544922 333.520368,30.234375 333.07115,29.765625 C332.621931,29.296875 332.060407,28.7744141 331.386579,28.1982422 C330.712751,27.6220703 330.048689,27.0751953 329.394392,26.5576172 C328.740095,26.0400391 327.787946,25.234375 326.537946,24.140625 C325.287946,23.046875 324.106306,21.7724609 322.993025,20.3173828 C321.879743,18.8623047 321.113142,17.6171875 320.69322,16.5820312 C320.273298,15.546875 320.160993,14.3164062 320.356306,12.890625 C320.551618,11.4648437 321.28404,10.1220703 322.553571,8.86230469 C323.823103,7.60253906 325.634626,6.58203125 327.988142,5.80078125 C330.341657,5.01953125 332.592634,4.58496094 334.741071,4.49707031 C336.889509,4.40917969 338.393415,4.87304687 339.25279,5.88867187 C340.561384,6.86523437 341.010603,8.26171875 340.600446,10.078125 C339.662946,11.9726562 337.836775,13.90625 335.121931,15.8789062 C335.121931,16.0742188 335.375837,16.09375 335.88365,15.9375 C337.309431,15.4492187 338.578962,14.5800781 339.692243,13.3300781 C340.805525,12.0800781 341.498884,11.1425781 341.772321,10.5175781 C342.455915,9.63867187 342.626814,8.60351562 342.285017,7.41210937 C341.94322,6.22070312 341.137556,5.19042969 339.868025,4.32128906 C338.598493,3.45214844 336.899275,3.02734375 334.770368,3.046875 C332.641462,3.06640625 330.717634,3.33007812 328.998884,3.83789062 C327.280134,4.34570312 325.785993,4.92675781 324.516462,5.58105469 C323.246931,6.23535156 322.241071,6.90429687 321.498884,7.58789062 C320.756696,8.27148437 320.136579,8.99902344 319.638532,9.77050781 C319.140486,10.5419922 318.823103,11.5087891 318.686384,12.6708984 C318.549665,13.8330078 318.681501,15.1855469 319.081892,16.7285156 C319.482282,18.2714844 320.283064,19.7558594 321.484236,21.1816406 C322.685407,22.6074219 324.018415,23.9746094 325.483259,25.2832031 C327.944196,27.3925781 329.736189,28.9208984 330.859236,29.8681641 C331.982282,30.8154297 332.543806,31.7773438 332.543806,32.7539062 C332.543806,33.7304688 331.865095,35.0341797 330.507673,36.6650391 C329.150251,38.2958984 327.119001,39.7851562 324.413923,41.1328125 C321.708845,42.4804688 318.97447,43.2373047 316.210798,43.4033203 C313.447126,43.5693359 311.137556,43.28125 309.282087,42.5390625 C308.930525,41.7578125 308.608259,41.2792969 308.31529,41.1035156 C308.022321,40.8886719 307.851423,40.9033203 307.802595,41.1474609 C307.753767,41.3916016 307.734236,41.7773438 307.744001,42.3046875 C307.753767,42.8320312 308.012556,43.3349609 308.520368,43.8134766 C309.028181,44.2919922 309.72154,44.6044922 310.600446,44.7509766 C311.479353,44.8974609 312.621931,45.0097656 314.028181,45.0878906 Z" id="POPPYDRESS" fill="#000000" fill-rule="nonzero"></path>
    </g>
</svg>