<?xml version="1.0" encoding="UTF-8"?>
<svg width="357px" height="41px" viewBox="0 0 357 41" version="1.1" xmlns="http://www.w3.org/2000/svg" xmlns:xlink="http://www.w3.org/1999/xlink">
    <title>TULIPGOWN</title>
    <g id="final-copy" stroke="none" stroke-width="1" fill="none" fill-rule="evenodd">
        <path d="M21.22,40 L21.22,39.45 L16.655,39.45 L16.655,2.05 L24.465,2.05 C26.94,2.05 29.58,4.58 29.58,7.11 L29.58,9.145 L30.075,9.145 L30.075,1.5 L0.155,1.5 L0.155,9.145 L0.705,9.145 L0.705,7.11 C0.705,4.58 3.29,2.05 5.765,2.05 L13.575,2.05 L13.575,39.45 L9.01,39.45 L9.01,40 L21.22,40 Z M52.1457143,40.55 C59.9557143,40.55 65.1257143,36.315 65.1257143,26.91 L65.1257143,6.01 C65.1257143,4.03 66.9957143,2.05 68.8657143,2.05 L70.1307143,2.05 L70.1307143,1.5 L58.3607143,1.5 L58.3607143,2.05 L60.7807143,2.05 C62.7057143,2.05 64.5757143,4.03 64.5757143,6.01 L64.5757143,26.91 C64.5757143,35.875 59.6807143,39.945 52.5307143,39.945 C46.5907143,39.945 41.3657143,36.865 41.3657143,26.91 L41.3657143,2.05 L45.8757143,2.05 L45.8757143,1.5 L33.7757143,1.5 L33.7757143,2.05 L38.2857143,2.05 L38.2857143,26.91 C38.2857143,36.315 44.6657143,40.55 52.1457143,40.55 Z M100.726429,40 L100.726429,32.19 L100.176429,32.19 L100.176429,33.675 C100.176429,36.535 97.3714286,39.45 94.5114286,39.45 L82.4664286,39.45 L82.4664286,2.05 L87.5814286,2.05 L87.5814286,1.5 L74.8214286,1.5 L74.8214286,2.05 L79.3864286,2.05 L79.3864286,39.45 L74.8214286,39.45 L74.8214286,40 L100.726429,40 Z M117.572143,40 L117.572143,39.45 L113.062143,39.45 L113.062143,2.05 L117.572143,2.05 L117.572143,1.5 L105.472143,1.5 L105.472143,2.05 L109.982143,2.05 L109.982143,39.45 L105.472143,39.45 L105.472143,40 L117.572143,40 Z M135.352857,40 L135.352857,39.45 L130.347857,39.45 L130.347857,22.565 L137.717857,22.565 C148.057857,22.565 151.852857,18.44 151.852857,11.95 C151.852857,5.57 147.947857,1.5 137.717857,1.5 L122.757857,1.5 L122.757857,2.05 L127.267857,2.05 L127.267857,39.45 L122.757857,39.45 L122.757857,40 L135.352857,40 Z M137.112857,22.015 L130.347857,22.015 L130.347857,2.05 L137.112857,2.05 C145.692857,2.05 148.497857,5.515 148.497857,11.95 C148.497857,18.165 145.967857,22.015 137.112857,22.015 Z M203.27,40.55 C208.44,40.55 213.115,37.415 213.775,32.245 C214.435,33.125 216.03,37.8 216.03,40.055 L216.525,40.055 L216.525,21.575 L220.705,21.575 L220.705,21.025 L204.425,21.025 L204.425,21.575 L213.445,21.575 L213.445,30.155 C213.445,36.535 208.77,40 203.27,40 C194.58,40 190.235,33.345 190.235,20.86 C190.235,8.155 195.13,1.5 203.82,1.5 C210.42,1.5 215.15,6.45 215.92,12.72 L216.47,12.72 L216.47,1.445 L216.03,1.445 C216.03,2.49 214.6,4.305 213.28,4.305 C212.95,4.305 212.565,4.195 212.29,3.92 C210.365,2.27 207.67,0.95 203.82,0.95 C194.03,0.95 186.88,7.935 186.88,20.86 C186.88,33.565 193.48,40.55 203.27,40.55 Z M244.040714,40.55 C253.885714,40.55 261.035714,33.565 261.035714,20.86 C261.035714,7.935 253.885714,0.95 244.040714,0.95 C234.250714,0.95 227.100714,7.935 227.100714,20.86 C227.100714,33.565 234.250714,40.55 244.040714,40.55 Z M244.040714,40 C235.350714,40 230.455714,33.345 230.455714,20.86 C230.455714,8.155 235.350714,1.5 244.040714,1.5 C252.785714,1.5 257.680714,8.155 257.680714,20.86 C257.680714,33.345 252.785714,40 244.040714,40 Z M284.921429,40 L292.456429,19.87 L300.156429,40 L301.476429,40 L315.721429,2.05 L318.471429,2.05 L318.471429,1.5 L307.966429,1.5 L307.966429,2.05 L310.331429,2.05 C311.981429,2.05 313.411429,3.425 313.411429,5.46 C313.411429,6.065 313.301429,6.725 313.026429,7.44 L302.136429,36.37 L288.936429,2.05 L293.061429,2.05 L293.061429,1.5 L282.776429,1.5 L282.776429,2.05 L285.691429,2.05 L292.071429,18.88 L285.581429,36.37 L272.381429,2.05 L276.616429,2.05 L276.616429,1.5 L266.441429,1.5 L266.441429,2.05 L269.136429,2.05 L283.601429,40 L284.921429,40 Z M351.377143,40.11 L351.377143,5.955 C351.377143,4.03 353.137143,2.05 354.952143,2.05 L356.052143,2.05 L356.052143,1.5 L344.667143,1.5 L344.667143,2.05 L347.142143,2.05 C348.957143,2.05 350.772143,4.03 350.772143,5.955 L350.772143,34.445 L329.102143,1.5 L321.842143,1.5 L321.842143,2.05 L325.472143,2.05 L326.572143,3.48 L326.572143,35.545 C326.572143,37.525 324.812143,39.45 322.997143,39.45 L321.842143,39.45 L321.842143,40 L333.282143,40 L333.282143,39.45 L330.752143,39.45 C328.992143,39.45 327.122143,37.47 327.122143,35.545 L327.122143,4.14 L350.827143,40.11 L351.377143,40.11 Z" id="TULIPGOWN" fill="#F99393" fill-rule="nonzero"></path>
    </g>
</svg>