<?xml version="1.0" encoding="UTF-8"?>
<svg width="337px" height="49px" viewBox="0 0 337 49" version="1.1" xmlns="http://www.w3.org/2000/svg" xmlns:xlink="http://www.w3.org/1999/xlink">
    <title>TULIPDRESS</title>
    <g id="final-copy" stroke="none" stroke-width="1" fill="none" fill-rule="evenodd">
        <path d="M8.671875,43.8828125 C9.0625,44.2929688 9.453125,43.7900391 9.84375,42.3740234 C10.234375,40.9580078 10.8398438,39.234375 11.6601562,37.203125 C12.4804688,35.171875 13.2568359,33.3017578 13.9892578,31.5927734 C14.7216797,29.8837891 15.6201172,27.8330078 16.6845703,25.4404297 C17.7490234,23.0478516 18.7988281,20.7675781 19.8339844,18.5996094 C20.8691406,16.4316406 21.6015625,14.8007812 22.03125,13.7070312 C22.8710938,11.6367188 23.4912109,10.0058594 23.8916016,8.81445312 C24.2919922,7.62304688 24.5507812,6.54394531 24.6679688,5.57714844 C24.7851562,4.61035156 24.4433594,3.78515625 23.6425781,3.1015625 C23.3886719,2.69140625 22.7148438,2.38867188 21.6210938,2.19335938 L21.6210938,2.19335938 L19.0136719,2.1640625 C16.3183594,2.45703125 14.0576172,2.77441406 12.2314453,3.11621094 C10.4052734,3.45800781 8.77929688,3.83398438 7.35351562,4.24414062 C5.92773438,4.65429688 5.06347656,4.90332031 4.76074219,4.99121094 C4.45800781,5.07910156 3.92578125,5.25488281 3.1640625,5.51855469 C2.40234375,5.78222656 1.93359375,5.94824219 1.7578125,6.01660156 C1.58203125,6.08496094 1.38183594,6.17773438 1.15722656,6.29492188 C0.932617188,6.41210938 0.830078125,6.6953125 0.849609375,7.14453125 C1.49414063,7.92578125 3.37890625,7.66210938 6.50390625,6.35351562 L6.50390625,6.35351562 L10.6347656,5.328125 C13.9550781,4.60546875 16.484375,4.13671875 18.2226562,3.921875 C19.9609375,3.70703125 21.1279297,3.70703125 21.7236328,3.921875 C22.3193359,4.13671875 22.6269531,4.6640625 22.6464844,5.50390625 C22.6660156,6.34375 22.2851562,7.77929688 21.5039062,9.81054688 C20.0976562,12.9550781 19.0722656,15.2402344 18.4277344,16.6660156 C17.7832031,18.0917969 17.1337891,19.46875 16.4794922,20.796875 C15.8251953,22.125 15.0634766,23.8046875 14.1943359,25.8359375 C13.3251953,27.8671875 12.5292969,29.7275391 11.8066406,31.4169922 C11.0839844,33.1064453 10.2978516,34.9667969 9.44824219,36.9980469 C8.59863281,39.0292969 8.17382812,40.5527344 8.17382812,41.5683594 C8.11523438,42.7011719 8.28125,43.4726562 8.671875,43.8828125 Z M34.577846,43.9707031 C35.4762835,44.1660156 36.6774554,44.0292969 38.1813616,43.5605469 C39.6852679,43.0917969 41.086635,42.3886719 42.3854632,41.4511719 C43.6842913,40.5136719 45.0075335,39.078125 46.3551897,37.1445312 C47.702846,35.2109375 48.7526507,33.4238281 49.5046038,31.7832031 C50.2565569,30.1425781 50.9157366,28.6044922 51.4821429,27.1689453 C52.0485491,25.7333984 52.6442522,24.0341797 53.2692522,22.0712891 C53.8942522,20.1083984 54.4118304,18.1845703 54.8219866,16.2998047 C55.2321429,14.4150391 55.5885882,12.6523438 55.8913225,11.0117188 C56.1940569,9.37109375 56.2770647,7.89160156 56.140346,6.57324219 C56.0036272,5.25488281 55.7594866,4.26367188 55.4079241,3.59960938 C55.0563616,2.93554688 54.7682757,2.49121094 54.5436663,2.26660156 C54.3190569,2.04199219 54.1188616,1.9296875 53.9430804,1.9296875 L53.9430804,1.9296875 L53.6208147,2.07617188 C54.109096,3.67773438 54.3776507,5.02050781 54.4264788,6.10449219 C54.4753069,7.18847656 54.3922991,8.43847656 54.1774554,9.85449219 C53.9626116,11.2705078 53.4547991,13.5214844 52.6540179,16.6074219 C51.8532366,19.6933594 51.0671038,22.3105469 50.2956194,24.4589844 C49.524135,26.6074219 48.7477679,28.5410156 47.9665179,30.2597656 C47.1852679,31.9785156 46.242885,33.7070312 45.1393694,35.4453125 C44.0358538,37.1835938 42.8883929,38.5898438 41.6969866,39.6640625 C40.5055804,40.7382812 39.3874163,41.4902344 38.3424944,41.9199219 C37.2975725,42.3496094 36.4137835,42.5498047 35.6911272,42.5205078 C34.968471,42.4912109 34.1921038,42.1738281 33.3620257,41.5683594 C32.5319475,40.9628906 31.8337054,40.1035156 31.2672991,38.9902344 C30.7008929,37.8769531 30.1881975,36.4072266 29.7292132,34.5810547 C29.2702288,32.7548828 29.0260882,30.6601562 28.9967913,28.296875 C28.9674944,25.9335937 29.0651507,23.6484375 29.28976,21.4414062 C29.5143694,19.234375 29.7682757,17.2568359 30.0514788,15.5087891 C30.3346819,13.7607422 30.6471819,12.0761719 30.9889788,10.4550781 C31.3307757,8.83398438 31.6921038,7.359375 32.0729632,6.03125 C32.4538225,4.703125 32.6442522,3.59960938 32.6442522,2.72070312 C32.546596,2.29101562 32.0192522,2.02734375 31.062221,1.9296875 L31.062221,1.9296875 L30.7985491,2.07617188 C30.4860491,3.48242188 30.2223772,4.53710938 30.0075335,5.24023438 C29.8587955,5.72701322 29.672613,6.41037583 29.448986,7.29032221 L29.2943539,7.90607665 C29.2409608,8.12103597 29.1857186,8.34570312 29.1286272,8.58007812 C28.7575335,10.1035156 28.3962054,11.8662109 28.0446429,13.8681641 C27.6930804,15.8701172 27.4049944,18.0966797 27.180385,20.5478516 C26.9557757,22.9990234 26.8874163,25.0058594 26.9753069,26.5683594 C27.0631975,28.1308594 27.1315569,29.4882812 27.180385,30.640625 C27.2292132,31.7929688 27.4196429,33.0380859 27.7516741,34.3759766 C28.0837054,35.7138672 28.5573382,37.0859375 29.1725725,38.4921875 C29.7878069,39.8984375 30.617885,41.1142578 31.6628069,42.1396484 C32.7077288,43.1650391 33.6794085,43.7753906 34.577846,43.9707031 Z M58.1986607,42.7695312 C59.5267857,43.84375 61.2992467,44.2880859 63.5160435,44.1025391 C65.7328404,43.9169922 67.6810826,43.609375 69.3607701,43.1796875 L69.3607701,43.1796875 L71.5287388,42.7988281 L74.5756138,42.1835938 L82.8373326,40.6601562 L83.5404576,40.25 C83.2670201,39.8984375 81.7728795,39.8251953 79.0580357,40.0302734 C76.343192,40.2353516 74.3168248,40.4453125 72.9789342,40.6601562 C71.6410435,40.875 70.2201451,41.1435547 68.7162388,41.4658203 C67.2123326,41.7880859 65.8060826,42.0322266 64.4974888,42.1982422 C63.1888951,42.3642578 62.1049107,42.3740234 61.2455357,42.2275391 C60.3861607,42.0810547 59.6879185,41.6123047 59.1508092,40.8212891 C58.6136998,40.0302734 58.6185826,38.140625 59.1654576,35.1523438 C59.7123326,32.1640625 61.0746373,28.2431641 63.2523717,23.3896484 C65.430106,18.5361328 67.1928013,14.5078125 68.5404576,11.3046875 C69.8881138,8.1015625 71.1381138,5.484375 72.2904576,3.453125 C71.1185826,1.28515625 70.1908482,1.32421875 69.5072545,3.5703125 C69.233817,4.60546875 68.2719029,6.95410156 66.6215123,10.6162109 C64.9711217,14.2783203 63.0668248,18.6240234 60.9086217,23.6533203 C58.7504185,28.6826172 57.4955357,32.5449219 57.1439732,35.2402344 C56.7924107,37.9355469 56.7875279,39.7714844 57.1293248,40.7480469 C57.4711217,41.7246094 57.827567,42.3984375 58.1986607,42.7695312 Z M90.7550223,44.0292969 C91.1847098,44.0878906 91.6876395,43.6386719 92.2638114,42.6816406 C92.8399833,41.7246094 93.6651786,39.8789062 94.7393973,37.1445312 C94.8565848,38.0625 95.4083426,39.0195312 96.3946708,40.015625 C97.3809989,41.0117188 98.5919364,41.3535156 100.027483,41.0410156 C101.46303,40.7285156 102.5226,40.2304688 103.206194,39.546875 C103.889788,38.8632812 104.124163,38.4873047 103.909319,38.4189453 C103.694475,38.3505859 103.328265,38.5214844 102.810686,38.9316406 C102.293108,39.3417969 101.511858,39.6591797 100.466936,39.8837891 C99.4220145,40.1083984 98.3868583,39.8056641 97.3614676,38.9755859 C96.336077,38.1455078 95.8038505,36.7050781 95.764788,34.6542969 C96.5851005,32.7792969 97.1368583,31.5878906 97.4200614,31.0800781 C97.7032645,30.5722656 98.2013114,29.5517578 98.914202,28.0185547 C99.6270926,26.4853516 100.452288,24.5615234 101.389788,22.2470703 C102.327288,19.9326172 103.162249,17.6523438 103.894671,15.40625 C104.627093,13.1601562 105.173968,11.4365234 105.535296,10.2353516 C105.896624,9.03417969 106.21889,7.77929688 106.502093,6.47070312 C106.785296,5.16210938 106.922015,3.89746094 106.912249,2.67675781 C106.902483,1.45605469 106.624163,0.66015625 106.077288,0.2890625 C105.549944,-0.1015625 104.885882,0.09375 104.0851,0.875 C103.284319,1.65625 102.361468,3.14550781 101.316546,5.34277344 C100.271624,7.54003906 99.382952,9.76171875 98.6505301,12.0078125 C97.9181083,14.2539062 97.273577,16.3095703 96.7169364,18.1748047 C96.1602958,20.0400391 95.5841239,22.6328125 94.9884208,25.953125 C94.3927176,29.2734375 94.1046317,31.9980469 94.124163,34.1269531 C92.8936942,37.2128906 92.0245536,39.3369141 91.5167411,40.4990234 C91.0089286,41.6611328 90.6378348,42.0175781 90.4034598,41.5683594 C90.1690848,41.1191406 89.9591239,40.6162109 89.773577,40.0595703 C89.5880301,39.5029297 89.1534598,38.8535156 88.4698661,38.1113281 L88.4698661,38.1113281 L92.0440848,36.3828125 C91.9268973,35.8945312 91.6974051,35.5820312 91.3556083,35.4453125 C91.0138114,35.3085938 90.6280692,35.4013672 90.1983817,35.7236328 C89.7686942,36.0458984 89.1290458,36.4023438 88.2794364,36.7929688 C87.429827,37.1835938 86.8536551,37.3789062 86.5509208,37.3789062 C86.2481864,37.3789062 86.0968192,37.59375 86.0968192,38.0234375 C87.2101005,38.9023438 87.9815848,39.9423828 88.4112723,41.1435547 C88.8409598,42.3447266 89.2315848,43.1113281 89.5831473,43.4433594 C89.9347098,43.7753906 90.3253348,43.9707031 90.7550223,44.0292969 Z M95.6476005,30.7871094 C95.8233817,29.7324219 96.0284598,28.5898437 96.2628348,27.359375 C96.4972098,26.1289062 96.804827,24.703125 97.1856864,23.0820312 C97.5665458,21.4609375 98.1915458,19.2734375 99.0606864,16.5195312 C99.929827,13.765625 100.706194,11.4414062 101.389788,9.546875 C102.073382,7.6328125 102.825335,5.97265625 103.645647,4.56640625 C104.46596,3.16015625 104.964007,2.4765625 105.139788,2.515625 C105.374163,2.61328125 105.291155,3.37011719 104.890765,4.78613281 C104.490374,6.20214844 103.96303,8.08691406 103.308733,10.4404297 C102.654436,12.7939453 101.985491,14.8837891 101.301897,16.7099609 C100.618304,18.5361328 99.8370536,20.5966797 98.9581473,22.8916016 C98.0792411,25.1865234 97.4395926,26.7587891 97.039202,27.6083984 C96.6388114,28.4580078 96.1749442,29.5175781 95.6476005,30.7871094 Z M115.957868,48.8925781 C116.211775,48.9316406 116.475446,48.4726562 116.748884,47.515625 C117.276228,44.546875 117.730329,42.0224609 118.111189,39.9423828 C118.492048,37.8623047 118.858259,35.8994141 119.209821,34.0537109 C119.561384,32.2080078 120.12779,29.2734375 120.90904,25.25 C122.354353,24.3320312 123.794782,23.4970703 125.230329,22.7451172 C126.665876,21.9931641 128.521345,20.8066406 130.796736,19.1855469 C133.072126,17.5644531 135.069196,15.6894531 136.787946,13.5605469 C138.506696,11.4316406 139.375837,9.9375 139.395368,9.078125 C139.4149,8.21875 139.273298,7.56445312 138.970564,7.11523438 C138.667829,6.66601562 138.047712,6.11425781 137.110212,5.45996094 C136.172712,4.80566406 135.069196,4.21484375 133.799665,3.6875 C132.530134,3.16015625 131.109236,2.85742188 129.53697,2.77929688 C127.964704,2.70117188 125.996931,2.69140625 123.63365,2.75 C123.575056,2.49609375 123.203962,2.26171875 122.520368,2.046875 L122.520368,2.046875 L122.432478,2.046875 C122.139509,2.18359375 121.993025,2.515625 121.993025,3.04296875 C121.407087,3.140625 120.611189,3.32128906 119.605329,3.58496094 C118.59947,3.84863281 117.618025,4.14648438 116.660993,4.47851562 C115.703962,4.81054688 114.7274,5.21582031 113.731306,5.69433594 C112.735212,6.17285156 112.066267,6.7734375 111.72447,7.49609375 C111.382673,8.21875 111.172712,8.87304688 111.094587,9.45898438 C111.016462,10.0449219 111.006696,10.3964844 111.06529,10.5136719 C111.475446,10.5136719 111.739118,10.4257812 111.856306,10.25 C112.403181,8.9609375 112.906111,8.16503906 113.365095,7.86230469 C113.824079,7.55957031 114.390486,7.25195312 115.064314,6.93945312 C115.738142,6.62695312 116.685407,6.27539062 117.906111,5.88476562 C119.126814,5.49414062 120.44029,5.25 121.84654,5.15234375 C121.280134,8.8828125 120.772321,12.2128906 120.323103,15.1425781 C119.873884,18.0722656 119.366071,21.0507812 118.799665,24.078125 C116.866071,25.0742188 115.401228,25.8652344 114.405134,26.4511719 C113.40904,27.0371094 112.598493,27.4912109 111.973493,27.8134766 C111.348493,28.1357422 110.645368,28.609375 109.864118,29.234375 C109.864118,29.546875 110.210798,29.6933594 110.904157,29.6738281 C111.597517,29.6542969 112.359236,29.4589844 113.189314,29.0878906 C114.019392,28.7167969 114.810407,28.3164062 115.562361,27.8867188 C116.314314,27.4570312 117.31529,26.9492188 118.56529,26.3632812 C118.135603,29.1171875 117.78404,31.1386719 117.510603,32.4277344 C117.237165,33.7167969 116.934431,35.4160156 116.6024,37.5253906 C116.270368,39.6347656 116.040876,41.1240234 115.913923,41.9931641 C115.78697,42.8623047 115.689314,43.9462891 115.620954,45.2451172 C115.552595,46.5439453 115.528181,47.4667969 115.547712,48.0136719 C115.567243,48.5605469 115.703962,48.8535156 115.957868,48.8925781 Z M121.202009,22.9648438 C122.119978,16.9101562 122.705915,13.1455078 122.959821,11.6708984 C123.213728,10.1962891 123.535993,7.91601562 123.926618,4.83007812 C126.172712,4.63476562 127.808454,4.56640625 128.833845,4.625 C129.859236,4.68359375 131.031111,4.92285156 132.34947,5.34277344 C133.667829,5.76269531 134.810407,6.29492188 135.777204,6.93945312 C136.744001,7.58398438 137.2274,8.2578125 137.2274,8.9609375 C137.2274,9.6640625 136.485212,10.9238281 135.000837,12.7402344 C133.516462,14.5566406 131.997907,16.0703125 130.445173,17.28125 C128.892439,18.4921875 127.373884,19.5078125 125.889509,20.328125 C124.405134,21.1484375 122.842634,22.0273438 121.202009,22.9648438 Z M172.318359,42.7695312 C172.142578,43.7265625 172.264648,44.1367188 172.68457,44 C173.104492,43.8632812 173.431641,43.3847656 173.666016,42.5644531 C175.619141,42.2128906 177.621094,41.6953125 179.671875,41.0117188 C181.722656,40.328125 183.612305,39.6640625 185.34082,39.0195312 C187.069336,38.375 188.373047,37.8378906 189.251953,37.4082031 C190.130859,36.9785156 191.81543,35.9824219 194.305664,34.4199219 C196.795898,32.8574219 198.890625,31.0556641 200.589844,29.0146484 C202.289063,26.9736328 203.265625,24.9423828 203.519531,22.9208984 C203.773438,20.8994141 203.631836,19.0439453 203.094727,17.3544922 C202.557617,15.6650391 201.693359,13.9365234 200.501953,12.1689453 C199.310547,10.4013672 197.816406,8.84863281 196.019531,7.51074219 C194.222656,6.17285156 192.367188,5.08886719 190.453125,4.25878906 C188.539063,3.42871094 186.922852,2.89160156 185.604492,2.64746094 C184.286133,2.40332031 182.347656,2.203125 179.789063,2.046875 C177.25,1.87109375 174.686523,1.98828125 172.098633,2.3984375 C169.510742,2.80859375 167.606445,3.25292969 166.385742,3.73144531 C165.165039,4.20996094 164.095703,4.83007812 163.177734,5.59179688 C162.259766,6.35351562 161.888672,7.42773438 162.064453,8.81445312 C162.318359,9.84960938 162.899414,10.5087891 163.807617,10.7919922 C164.71582,11.0751953 164.911133,10.7529297 164.393555,9.82519531 C163.875977,8.89746094 163.783203,8.21875 164.115234,7.7890625 C165.013672,6.87109375 165.863281,6.2265625 166.664063,5.85546875 C167.464844,5.484375 168.62207,5.11816406 170.135742,4.75683594 C171.649414,4.39550781 173.431641,4.14160156 175.482422,3.99511719 C177.533203,3.84863281 179.486328,3.86816406 181.341797,4.05371094 C183.197266,4.23925781 185.316406,4.67871094 187.699219,5.37207031 C190.082031,6.06542969 192.357422,7.28613281 194.525391,9.03417969 C196.693359,10.7822266 198.285156,12.5644531 199.300781,14.3808594 C200.316406,16.1972656 200.951172,17.7304688 201.205078,18.9804688 C201.458984,20.2304688 201.522461,21.5439453 201.395508,22.9208984 C201.268555,24.2978516 200.633789,25.6894531 199.491211,27.0957031 C198.348633,28.5019531 197.137695,29.7470703 195.858398,30.8310547 C194.579102,31.9150391 193.1875,32.9208984 191.683594,33.8486328 C190.179688,34.7763672 188.094727,35.8115234 185.428711,36.9541016 C182.762695,38.0966797 179.046875,39.3515625 174.28125,40.71875 C175.023438,37.5546875 175.619141,34.9277344 176.068359,32.8378906 C176.517578,30.7480469 176.952148,28.7021484 177.37207,26.7001953 C177.791992,24.6982422 178.231445,22.5546875 178.69043,20.2695312 C179.149414,17.984375 179.701172,15.5185547 180.345703,12.8720703 C180.990234,10.2255859 180.980469,8.56542969 180.316406,7.89160156 C179.652344,7.21777344 179.208008,7.28613281 178.983398,8.09667969 C178.758789,8.90722656 178.412109,10.4746094 177.943359,12.7988281 C177.474609,15.1230469 177.015625,17.359375 176.566406,19.5078125 C176.117188,21.65625 175.692383,23.7802734 175.291992,25.8798828 C174.891602,27.9794922 174.432617,30.4355469 173.915039,33.2480469 C173.397461,36.0605469 172.982422,38.6289062 172.669922,40.953125 C169.974609,41.265625 167.694336,41.3046875 165.829102,41.0703125 C163.963867,40.8359375 163.421875,41.0263672 164.203125,41.6416016 C164.984375,42.2568359 165.814453,42.6279297 166.693359,42.7548828 C167.572266,42.8818359 168.421875,42.9306641 169.242188,42.9013672 C170.0625,42.8720703 171.087891,42.828125 172.318359,42.7695312 Z M212.169643,47.4863281 C212.521205,47.3300781 212.75558,47.1787109 212.872768,47.0322266 C212.989955,46.8857422 213.175502,46.5292969 213.429409,45.9628906 C214.191127,42.6621094 214.762416,39.8496094 215.143276,37.5253906 C215.524135,35.2011719 215.787807,33.5947266 215.934291,32.7060547 C216.080776,31.8173828 216.378627,29.7519531 216.827846,26.5097656 C220.870815,29.4589844 223.741909,31.7001953 225.441127,33.2333984 C227.140346,34.7666016 229.47433,36.5830078 232.44308,38.6826172 C235.41183,40.7822266 238.38058,42.2617188 241.34933,43.1210938 C242.579799,43.21875 242.657924,42.9355469 241.583705,42.2714844 C240.782924,41.9980469 239.611049,41.4072266 238.06808,40.4990234 C236.525112,39.5908203 234.591518,38.2431641 232.267299,36.4560547 C229.94308,34.6689453 227.526088,32.7451172 225.016323,30.6845703 C222.506557,28.6240234 219.864955,26.6855469 217.091518,24.8691406 C217.228237,23.9902344 217.364955,23.1894531 217.501674,22.4667969 C218.84933,22.1542969 220.587612,21.5732422 222.716518,20.7236328 C224.845424,19.8740234 226.515346,19.0878906 227.726284,18.3652344 C228.937221,17.6425781 230.104213,16.7099609 231.22726,15.5673828 C232.350307,14.4248047 233.155971,13.4335937 233.644252,12.59375 C234.132534,11.7539062 234.410854,10.9042969 234.479213,10.0449219 C234.547573,9.18554688 234.50851,8.4921875 234.362026,7.96484375 C234.215541,7.4375 233.888393,6.8125 233.38058,6.08984375 C232.872768,5.3671875 232.037807,4.68359375 230.875698,4.0390625 C229.713588,3.39453125 228.204799,2.93554688 226.34933,2.66210938 C224.493862,2.38867188 222.501674,2.23242188 220.372768,2.19335938 C220.079799,1.11914063 219.689174,0.533203125 219.200893,0.435546875 C218.712612,0.318359375 218.517299,0.484375 218.614955,0.93359375 L218.614955,0.93359375 L218.614955,1.78320313 L218.497768,2.48632813 C217.775112,2.70117188 216.993862,2.95019531 216.154018,3.23339844 C215.314174,3.51660156 214.298549,3.99511719 213.107143,4.66894531 C211.915737,5.34277344 211.207729,5.9140625 210.983119,6.3828125 C210.75851,6.8515625 210.646205,7.26171875 210.646205,7.61328125 C210.646205,7.96484375 210.714565,8.23339844 210.851284,8.41894531 C210.988002,8.60449219 211.178432,9.00488281 211.422573,9.62011719 C211.666713,10.2353516 211.97433,10.9238281 212.345424,11.6855469 C212.736049,11.3339844 212.853237,10.9287109 212.696987,10.4697266 C212.540737,10.0107422 212.330776,9.39550781 212.067104,8.62402344 C211.803432,7.85253906 211.984096,7.21289063 212.609096,6.70507813 C213.234096,6.19726563 213.873744,5.77246094 214.528041,5.43066406 C215.182338,5.08886719 216.466518,4.63476563 218.38058,4.06835938 C217.794643,7.79882813 217.404018,10.2060547 217.208705,11.2900391 C217.013393,12.3740234 216.803432,13.6923828 216.578823,15.2451172 C216.561545,15.3645583 216.544007,15.4862241 216.52621,15.6101146 L216.416303,16.3801544 C216.227925,17.7080483 216.013543,19.2584135 215.773159,21.03125 C214.093471,21.3632812 212.760463,21.5830078 211.774135,21.6904297 C210.787807,21.7978516 209.840541,21.8710938 208.932338,21.9101562 C208.024135,21.9492188 207.579799,22.1542969 207.59933,22.5253906 C207.618862,22.8964844 207.843471,23.3457031 208.273159,23.8730469 C208.780971,23.8730469 209.337612,23.8242188 209.94308,23.7265625 C210.900112,23.7265625 211.954799,23.9707031 213.107143,24.4589844 L213.107143,24.4589844 L215.040737,25.484375 C214.532924,29.2734375 214.054409,32.5253906 213.60519,35.2402344 C213.155971,37.9550781 212.745815,40.25 212.374721,42.125 C212.003627,44 211.681362,45.5820312 211.407924,46.8710938 L211.407924,46.8710938 L211.905971,47.4863281 L212.169643,47.4863281 Z M217.853237,20.4453125 C218.126674,18.609375 218.346401,17.1152344 218.512416,15.9628906 C218.586201,15.4507378 218.665773,14.8971113 218.751132,14.302011 L218.88351,13.3782552 C218.951869,12.9008247 219.023484,12.4000651 219.098354,11.8759766 C219.154506,11.4829102 219.207607,11.1112061 219.257656,10.7608643 L219.398647,9.77392578 C219.486537,9.15869141 219.562221,8.62890625 219.625698,8.18457031 C219.752651,7.29589844 219.972377,5.86523438 220.284877,3.89257812 C221.710659,3.75585938 223.282924,3.8046875 225.001674,4.0390625 C226.720424,4.2734375 228.004604,4.52734375 228.854213,4.80078125 C229.703823,5.07421875 230.597377,5.50390625 231.534877,6.08984375 C232.394252,7.14453125 232.863002,7.95019531 232.941127,8.50683594 C233.019252,9.06347656 232.931362,9.73730469 232.677455,10.5283203 C232.423549,11.3193359 231.891323,12.1933594 231.080776,13.1503906 C230.270229,14.1074219 229.288784,15.0205078 228.13644,15.8896484 C226.984096,16.7587891 225.494838,17.5986328 223.668666,18.4091797 C221.842494,19.2197266 219.904018,19.8984375 217.853237,20.4453125 Z M215.363002,23.7558594 C215.070034,23.5996094 214.679409,23.4335938 214.191127,23.2578125 C214.620815,23.1601562 215.050502,23.0527344 215.48019,22.9355469 L215.48019,22.9355469 L215.363002,23.7558594 Z M250.145926,43.9121094 C252.509208,44.0097656 255.194754,44.0097656 258.202567,43.9121094 C262.304129,43.4824219 266.171317,42.4863281 269.804129,40.9238281 C270.468192,40.4941406 270.106864,40.3476562 268.720145,40.484375 C266.415458,40.7773438 264.413504,41.0996094 262.714286,41.4511719 C261.015067,41.8027344 258.153739,42.125 254.130301,42.4179688 C251.063895,42.3789062 249.154715,42.3007812 248.402762,42.1835938 C247.650809,42.0664062 246.962333,41.9199219 246.337333,41.7441406 C245.458426,41.1386719 245.136161,40.3574219 245.370536,39.4003906 L245.370536,39.4003906 L245.751395,38.4921875 C246.317801,37.6132812 246.781669,36.9394531 247.142997,36.4707031 C247.504325,36.0019531 248.202567,35.1914062 249.237723,34.0390625 C250.331473,32.9648438 251.552176,31.8417969 252.899833,30.6699219 C254.247489,29.7128906 255.311942,28.9121094 256.093192,28.2675781 C256.874442,27.6230469 257.743583,26.9882812 258.700614,26.3632812 C260.04827,25.5429688 261.29827,24.7128906 262.450614,23.8730469 C263.700614,22.9746094 265.116629,22.0859375 266.698661,21.2070312 C267.479911,20.7773438 267.948661,20.2988281 268.104911,19.7714844 C268.026786,19.0292969 267.665458,18.5800781 267.020926,18.4238281 C266.395926,18.3847656 265.809989,18.4042969 265.263114,18.4824219 C264.169364,18.5605469 262.977958,18.6875 261.688895,18.8632812 L261.688895,18.8632812 L259.052176,18.9804688 C257.118583,18.9609375 255.741629,18.9023438 254.921317,18.8046875 C254.101004,18.7070312 253.202567,18.5117188 252.226004,18.21875 C251.347098,17.6914062 250.888114,17.0810547 250.849051,16.3876953 C250.809989,15.6943359 251.010184,14.8984375 251.449637,14 C251.88909,13.1015625 252.675223,11.9833984 253.808036,10.6455078 C254.940848,9.30761719 256.259208,8.23828125 257.763114,7.4375 C259.833426,6.265625 261.508231,5.46484375 262.787528,5.03515625 C264.066825,4.60546875 265.248465,4.28808594 266.33245,4.08300781 C267.416434,3.87792969 268.505301,3.78515625 269.599051,3.8046875 C271.063895,3.765625 271.942801,4.2734375 272.23577,5.328125 C272.470145,6.3046875 272.792411,6.79296875 273.202567,6.79296875 C273.358817,6.734375 273.524833,6.49023438 273.700614,6.06054688 L273.700614,6.06054688 L273.700614,4.859375 C273.602958,4.25390625 273.412528,3.78027344 273.129325,3.43847656 C272.846122,3.09667969 272.489676,2.81835938 272.059989,2.60351562 L272.059989,2.60351562 L270.477958,2.046875 L268.720145,2.046875 C267.645926,2.1640625 266.859794,2.25195312 266.361747,2.31054688 C265.8637,2.36914062 264.833426,2.61328125 263.270926,3.04296875 C261.688895,3.53125 260.20452,4.14648438 258.817801,4.88867188 C256.493583,6.02148438 254.442801,7.34960938 252.665458,8.87304688 L252.665458,8.87304688 L251.14202,10.8359375 C250.184989,12.4179688 249.599051,13.8535156 249.384208,15.1425781 L249.384208,15.1425781 L249.296317,16.34375 C249.472098,17.8476562 250.116629,18.8535156 251.229911,19.3613281 C252.245536,19.8300781 253.573661,20.1132812 255.214286,20.2109375 C256.815848,20.25 258.212333,20.2597656 259.403739,20.2402344 L259.403739,20.2402344 L261.395926,20.2402344 C262.899833,20.1425781 264.032645,20.0351562 264.794364,19.9179688 L264.794364,19.9179688 L265.761161,19.7714844 C265.331473,20.0449219 264.784598,20.4160156 264.120536,20.8847656 C263.319754,21.4316406 262.518973,21.9394531 261.718192,22.4082031 C259.921317,23.4824219 258.783622,24.1708984 258.305106,24.4736328 C257.82659,24.7763672 257.39202,25.0742188 257.001395,25.3671875 C256.61077,25.6601562 255.961356,26.1289062 255.053153,26.7734375 C254.14495,27.4179688 252.953544,28.3261719 251.478934,29.4980469 C250.004325,30.6699219 248.974051,31.5634766 248.388114,32.1787109 C247.802176,32.7939453 247.20159,33.4628906 246.586356,34.1855469 C245.971122,34.9082031 245.272879,35.875 244.491629,37.0859375 C244.120536,37.7109375 243.827567,38.5605469 243.612723,39.6347656 C243.612723,41.0214844 244.042411,42.0957031 244.901786,42.8574219 C246.034598,43.4628906 247.782645,43.8144531 250.145926,43.9121094 Z M278.337054,44.0878906 C279.743304,44.1660156 281.364397,44.0439453 283.200335,43.7216797 C285.036272,43.3994141 286.794085,42.8671875 288.473772,42.125 C290.15346,41.3828125 291.68178,40.5185547 293.058733,39.5322266 C294.435686,38.5458984 295.65639,37.4375 296.720843,36.2070312 C297.785296,34.9765625 298.459124,33.9316406 298.742327,33.0722656 C299.02553,32.2128906 298.981585,31.3974609 298.610491,30.6259766 C298.239397,29.8544922 297.829241,29.234375 297.380022,28.765625 C296.930804,28.296875 296.36928,27.7744141 295.695452,27.1982422 C295.021624,26.6220703 294.357561,26.0751953 293.703265,25.5576172 C293.048968,25.0400391 292.096819,24.234375 290.846819,23.140625 C289.596819,22.046875 288.415179,20.7724609 287.301897,19.3173828 C286.188616,17.8623047 285.422015,16.6171875 285.002093,15.5820312 C284.582171,14.546875 284.469866,13.3164062 284.665179,11.890625 C284.860491,10.4648437 285.592913,9.12207031 286.862444,7.86230469 C288.131975,6.60253906 289.943499,5.58203125 292.297015,4.80078125 C294.65053,4.01953125 296.901507,3.58496094 299.049944,3.49707031 C301.198382,3.40917969 302.702288,3.87304687 303.561663,4.88867187 C304.870257,5.86523437 305.319475,7.26171875 304.909319,9.078125 C303.971819,10.9726562 302.145647,12.90625 299.430804,14.8789062 C299.430804,15.0742187 299.68471,15.09375 300.192522,14.9375 C301.618304,14.4492187 302.887835,13.5800781 304.001116,12.3300781 C305.114397,11.0800781 305.807757,10.1425781 306.081194,9.51757812 C306.764788,8.63867187 306.935686,7.60351562 306.59389,6.41210937 C306.252093,5.22070312 305.446429,4.19042969 304.176897,3.32128906 C302.907366,2.45214844 301.208147,2.02734375 299.079241,2.046875 C296.950335,2.06640625 295.026507,2.33007812 293.307757,2.83789062 C291.589007,3.34570312 290.094866,3.92675781 288.825335,4.58105469 C287.555804,5.23535156 286.549944,5.90429687 285.807757,6.58789062 C285.065569,7.27148437 284.445452,7.99902344 283.947405,8.77050781 C283.449358,9.54199219 283.131975,10.5087891 282.995257,11.6708984 C282.858538,12.8330078 282.990374,14.1855469 283.390765,15.7285156 C283.791155,17.2714844 284.591936,18.7558594 285.793108,20.1816406 C286.99428,21.6074219 288.327288,22.9746094 289.792132,24.2832031 C292.253069,26.3925781 294.045061,27.9208984 295.168108,28.8681641 C296.291155,29.8154297 296.852679,30.7773438 296.852679,31.7539062 C296.852679,32.7304688 296.173968,34.0341797 294.816546,35.6650391 C293.459124,37.2958984 291.427874,38.7851562 288.722796,40.1328125 C286.017718,41.4804688 283.283343,42.2373047 280.519671,42.4033203 C277.755999,42.5693359 275.446429,42.28125 273.59096,41.5390625 C273.239397,40.7578125 272.917132,40.2792969 272.624163,40.1035156 C272.331194,39.8886719 272.160296,39.9033203 272.111468,40.1474609 C272.06264,40.3916016 272.043108,40.7773438 272.052874,41.3046875 C272.06264,41.8320312 272.321429,42.3349609 272.829241,42.8134766 C273.337054,43.2919922 274.030413,43.6044922 274.909319,43.7509766 C275.788225,43.8974609 276.930804,44.0097656 278.337054,44.0878906 Z M308.491071,44.0878906 C309.897321,44.1660156 311.518415,44.0439453 313.354353,43.7216797 C315.19029,43.3994141 316.948103,42.8671875 318.62779,42.125 C320.307478,41.3828125 321.835798,40.5185547 323.212751,39.5322266 C324.589704,38.5458984 325.810407,37.4375 326.874861,36.2070312 C327.939314,34.9765625 328.613142,33.9316406 328.896345,33.0722656 C329.179548,32.2128906 329.135603,31.3974609 328.764509,30.6259766 C328.393415,29.8544922 327.983259,29.234375 327.53404,28.765625 C327.084821,28.296875 326.523298,27.7744141 325.84947,27.1982422 C325.175642,26.6220703 324.511579,26.0751953 323.857282,25.5576172 C323.202986,25.0400391 322.250837,24.234375 321.000837,23.140625 C319.750837,22.046875 318.569196,20.7724609 317.455915,19.3173828 C316.342634,17.8623047 315.576032,16.6171875 315.156111,15.5820312 C314.736189,14.546875 314.623884,13.3164062 314.819196,11.890625 C315.014509,10.4648437 315.746931,9.12207031 317.016462,7.86230469 C318.285993,6.60253906 320.097517,5.58203125 322.451032,4.80078125 C324.804548,4.01953125 327.055525,3.58496094 329.203962,3.49707031 C331.3524,3.40917969 332.856306,3.87304687 333.715681,4.88867187 C335.024275,5.86523437 335.473493,7.26171875 335.063337,9.078125 C334.125837,10.9726562 332.299665,12.90625 329.584821,14.8789062 C329.584821,15.0742187 329.838728,15.09375 330.34654,14.9375 C331.772321,14.4492187 333.041853,13.5800781 334.155134,12.3300781 C335.268415,11.0800781 335.961775,10.1425781 336.235212,9.51757812 C336.918806,8.63867187 337.089704,7.60351562 336.747907,6.41210937 C336.406111,5.22070312 335.600446,4.19042969 334.330915,3.32128906 C333.061384,2.45214844 331.362165,2.02734375 329.233259,2.046875 C327.104353,2.06640625 325.180525,2.33007812 323.461775,2.83789062 C321.743025,3.34570312 320.248884,3.92675781 318.979353,4.58105469 C317.709821,5.23535156 316.703962,5.90429687 315.961775,6.58789062 C315.219587,7.27148437 314.59947,7.99902344 314.101423,8.77050781 C313.603376,9.54199219 313.285993,10.5087891 313.149275,11.6708984 C313.012556,12.8330078 313.144392,14.1855469 313.544782,15.7285156 C313.945173,17.2714844 314.745954,18.7558594 315.947126,20.1816406 C317.148298,21.6074219 318.481306,22.9746094 319.94615,24.2832031 C322.407087,26.3925781 324.199079,27.9208984 325.322126,28.8681641 C326.445173,29.8154297 327.006696,30.7773438 327.006696,31.7539062 C327.006696,32.7304688 326.327986,34.0341797 324.970564,35.6650391 C323.613142,37.2958984 321.581892,38.7851562 318.876814,40.1328125 C316.171736,41.4804688 313.437361,42.2373047 310.673689,42.4033203 C307.910017,42.5693359 305.600446,42.28125 303.744978,41.5390625 C303.393415,40.7578125 303.07115,40.2792969 302.778181,40.1035156 C302.485212,39.8886719 302.314314,39.9033203 302.265486,40.1474609 C302.216657,40.3916016 302.197126,40.7773438 302.206892,41.3046875 C302.216657,41.8320312 302.475446,42.3349609 302.983259,42.8134766 C303.491071,43.2919922 304.184431,43.6044922 305.063337,43.7509766 C305.942243,43.8974609 307.084821,44.0097656 308.491071,44.0878906 Z" id="TULIPDRESS" fill="#000000" fill-rule="nonzero"></path>
    </g>
</svg>