<?xml version="1.0" encoding="UTF-8"?>
<svg width="355px" height="49px" viewBox="0 0 355 49" version="1.1" xmlns="http://www.w3.org/2000/svg" xmlns:xlink="http://www.w3.org/1999/xlink">
    <title>ASTERDRESS</title>
    <g id="final-copy" stroke="none" stroke-width="1" fill="none" fill-rule="evenodd">
        <path d="M21.4160156,48.4238281 C21.7480469,48.3847656 21.9824219,48.2285156 22.1191406,47.9550781 L22.1191406,47.9550781 L22.2070312,47.1347656 C22.2851562,45.6113281 22.3535156,44.2050781 22.4121094,42.9160156 C22.4902344,42.3886719 22.5537109,41.8076172 22.6025391,41.1728516 C22.6513672,40.5380859 22.7636719,39.5517578 22.9394531,38.2138672 C23.1152344,36.8759766 23.2958984,35.40625 23.4814453,33.8046875 C23.6669922,32.203125 23.8867188,30.8066406 24.140625,29.6152344 C25.2734375,29.5175781 26.7675781,29.4101562 28.6230469,29.2929688 C31.2597656,29.0195313 32.8808594,28.7558594 33.4863281,28.5019531 C34.0917969,28.2480469 34.1162109,28.0429688 33.5595703,27.8867188 C33.0029297,27.7304687 32.1679688,27.671875 31.0546875,27.7109375 C29.9414062,27.75 28.7792969,27.7988281 27.5683594,27.8574219 C26.3574219,27.9160156 25.390625,27.9648438 24.6679688,28.0039062 L24.6679688,28.0039062 L24.2871094,28.0039062 L24.2871094,27.8867188 C24.4042969,27.1054688 24.4970703,26.4609375 24.5654297,25.953125 C24.6337891,25.4453125 24.7802734,24.5615234 25.0048828,23.3017578 C25.2294922,22.0419922 25.5273438,20.3671875 25.8984375,18.2773438 C26.2695312,16.1875 26.6503906,14.4003906 27.0410156,12.9160156 C27.3925781,11.2753906 27.8613281,9.51757812 28.4472656,7.64257812 C28.7402344,6.64648438 29.4628906,5.29882812 30.6152344,3.59960938 L30.6152344,3.59960938 L30.6152344,2.95507812 C30.3417969,2.56445312 29.8730469,2.30078125 29.2089844,2.1640625 C28.8183594,2.61328125 28.5058594,3.11621094 28.2714844,3.67285156 C28.0371094,4.22949219 27.5292969,5.23046875 26.7480469,6.67578125 C25.5371094,8.74609375 24.7119141,10.1425781 24.2724609,10.8652344 C23.8330078,11.5878906 23.2128906,12.5742188 22.4121094,13.8242188 C21.0449219,15.8164062 20.0390625,17.2666016 19.3945312,18.1748047 C18.75,19.0830078 17.9785156,20.171875 17.0800781,21.4414062 C16.1816406,22.7109375 15.5029297,23.6533203 15.0439453,24.2685547 C14.5849609,24.8837891 14.0283203,25.6162109 13.3740234,26.4658203 C12.7197266,27.3154297 11.7285156,28.4433594 10.4003906,29.8496094 C8.31054688,30.3183594 6.70410156,30.6455078 5.58105469,30.8310547 C4.45800781,31.0166016 3.56445312,31.1337891 2.90039062,31.1826172 C2.23632812,31.2314453 1.77734375,31.2558594 1.5234375,31.2558594 C1.26953125,31.2558594 1.07421875,31.3242187 0.9375,31.4609375 C0.9375,32.3984375 1.6015625,32.8671875 2.9296875,32.8671875 C3.3984375,32.8671875 3.6328125,32.9550781 3.6328125,33.1308594 C4.9609375,33.2089844 6.12304688,33.4238281 7.11914062,33.7753906 C5.53710938,35.4550781 4.35546875,36.6074219 3.57421875,37.2324219 C2.79296875,37.8574219 2.00195312,38.3652344 1.20117188,38.7558594 C0.400390625,39.1464844 0,39.4394531 0,39.6347656 C0.05859375,40.3378906 0.56640625,40.6894531 1.5234375,40.6894531 C3.9453125,39.0292969 5.58105469,37.7792969 6.43066406,36.9394531 C7.28027344,36.0996094 8.125,35.2402344 8.96484375,34.3613281 C10,34.7324219 11.0742188,35.1914062 12.1875,35.7382812 C13.6523438,36.6757812 14.7509766,37.5107422 15.4833984,38.2431641 C16.2158203,38.9755859 16.8554688,39.6835938 17.4023438,40.3671875 C17.9492187,41.0507812 18.5009766,41.8662109 19.0576172,42.8134766 C19.6142578,43.7607422 19.9707031,44.390625 20.1269531,44.703125 C20.2832031,45.015625 20.390625,45.3476562 20.4492188,45.6992188 C20.5078125,46.6953125 20.5810547,47.3349609 20.6689453,47.6181641 C20.7568359,47.9013672 21.0058594,48.1699219 21.4160156,48.4238281 Z M13.3300781,29.4101562 C14.2480469,28.3164062 15.5078125,26.65625 17.109375,24.4296875 C18.6523438,22.125 19.6875,20.6601562 20.2148438,20.0351562 C20.6835938,19.2734375 21.1376953,18.5800781 21.5771484,17.9550781 C22.0166016,17.3300781 22.7148438,16.3144531 23.671875,14.9082031 C24.0625,14.3417969 24.5800781,13.5898438 25.2246094,12.6523438 L25.2246094,12.6523438 L25.2832031,12.6523438 L25.2832031,12.7109375 L24.9316406,14.6738281 C24.5996094,16.1777344 24.375,17.1835938 24.2578125,17.6914062 C24.140625,18.1992188 23.9453125,19.1660156 23.671875,20.5917969 C23.515625,21.7832031 23.3789062,22.8769531 23.2617188,23.8730469 L23.2617188,23.8730469 L22.5878906,28.1503906 C21.3769531,28.3261719 20.2539062,28.4726562 19.21875,28.5898438 C17.265625,28.9023438 15.3027344,29.1757812 13.3300781,29.4101562 Z M20.8300781,43.6191406 C20.4003906,42.7597656 20.0097656,42.0273438 19.6582031,41.421875 C19.3066406,40.8164062 18.8867188,40.2158203 18.3984375,39.6201172 C17.9101562,39.0244141 17.2851562,38.3603516 16.5234375,37.6279297 C15.7617188,36.8955078 14.9609375,36.2363281 14.1210938,35.6503906 C13.28125,35.0644531 12.5976562,34.6542969 12.0703125,34.4199219 C11.5429688,34.1855469 10.7519531,33.8535156 9.69726562,33.4238281 C10.3808594,32.7597656 11.0351562,32.0859375 11.6601562,31.4023438 C14.1210938,30.9726562 16.1621094,30.6601562 17.7832031,30.4648438 C19.1699219,30.25 20.390625,30.0839844 21.4453125,29.9667969 L21.4453125,29.9667969 L22.3535156,29.8789062 L22.1191406,31.1972656 C21.8652344,33.1308594 21.6699219,34.6542969 21.5332031,35.7675781 C21.3964844,36.8808594 21.25,38.3359375 21.09375,40.1328125 C20.9570312,41.5 20.8691406,42.6621094 20.8300781,43.6191406 Z M7.88085938,32.8671875 C6.90429688,32.59375 6.35742188,32.4472656 6.24023438,32.4277344 L6.24023438,32.4277344 L6.24023438,32.3691406 C7.23632812,32.1152344 8.14453125,31.9296875 8.96484375,31.8125 C8.6328125,32.1445312 8.27148438,32.4960938 7.88085938,32.8671875 Z M34.7536272,44.0878906 C36.1598772,44.1660156 37.780971,44.0439453 39.6169085,43.7216797 C41.452846,43.3994141 43.2106585,42.8671875 44.890346,42.125 C46.5700335,41.3828125 48.0983538,40.5185547 49.4753069,39.5322266 C50.85226,38.5458984 52.0729632,37.4375 53.1374163,36.2070312 C54.2018694,34.9765625 54.8756975,33.9316406 55.1589007,33.0722656 C55.4421038,32.2128906 55.3981585,31.3974609 55.0270647,30.6259766 C54.655971,29.8544922 54.2458147,29.234375 53.796596,28.765625 C53.3473772,28.296875 52.7858538,27.7744141 52.1120257,27.1982422 C51.4381975,26.6220703 50.774135,26.0751953 50.1198382,25.5576172 C49.4655413,25.0400391 48.5133929,24.234375 47.2633929,23.140625 C46.0133929,22.046875 44.8317522,20.7724609 43.718471,19.3173828 C42.6051897,17.8623047 41.8385882,16.6171875 41.4186663,15.5820312 C40.9987444,14.546875 40.8864397,13.3164062 41.0817522,11.890625 C41.2770647,10.4648437 42.0094866,9.12207031 43.2790179,7.86230469 C44.5485491,6.60253906 46.3600725,5.58203125 48.7135882,4.80078125 C51.0671038,4.01953125 53.3180804,3.58496094 55.4665179,3.49707031 C57.6149554,3.40917969 59.1188616,3.87304687 59.9782366,4.88867187 C61.2868304,5.86523437 61.7360491,7.26171875 61.3258929,9.078125 C60.3883929,10.9726562 58.562221,12.90625 55.8473772,14.8789062 C55.8473772,15.0742187 56.1012835,15.09375 56.609096,14.9375 C58.0348772,14.4492187 59.3044085,13.5800781 60.4176897,12.3300781 C61.530971,11.0800781 62.2243304,10.1425781 62.4977679,9.51757812 C63.1813616,8.63867187 63.35226,7.60351562 63.0104632,6.41210937 C62.6686663,5.22070312 61.8630022,4.19042969 60.593471,3.32128906 C59.3239397,2.45214844 57.624721,2.02734375 55.4958147,2.046875 C53.3669085,2.06640625 51.4430804,2.33007812 49.7243304,2.83789062 C48.0055804,3.34570312 46.5114397,3.92675781 45.2419085,4.58105469 C43.9723772,5.23535156 42.9665179,5.90429687 42.2243304,6.58789062 C41.4821429,7.27148437 40.8620257,7.99902344 40.3639788,8.77050781 C39.8659319,9.54199219 39.5485491,10.5087891 39.4118304,11.6708984 C39.2751116,12.8330078 39.4069475,14.1855469 39.8073382,15.7285156 C40.2077288,17.2714844 41.00851,18.7558594 42.2096819,20.1816406 C43.4108538,21.6074219 44.7438616,22.9746094 46.2087054,24.2832031 C48.6696429,26.3925781 50.461635,27.9208984 51.5846819,28.8681641 C52.7077288,29.8154297 53.2692522,30.7773438 53.2692522,31.7539062 C53.2692522,32.7304688 52.5905413,34.0341797 51.2331194,35.6650391 C49.8756975,37.2958984 47.8444475,38.7851562 45.1393694,40.1328125 C42.4342913,41.4804688 39.6999163,42.2373047 36.9362444,42.4033203 C34.1725725,42.5693359 31.8630022,42.28125 30.0075335,41.5390625 C29.655971,40.7578125 29.3337054,40.2792969 29.0407366,40.1035156 C28.7477679,39.8886719 28.5768694,39.9033203 28.5280413,40.1474609 C28.4792132,40.3916016 28.4596819,40.7773438 28.4694475,41.3046875 C28.4792132,41.8320312 28.7380022,42.3349609 29.2458147,42.8134766 C29.7536272,43.2919922 30.4469866,43.6044922 31.3258929,43.7509766 C32.2047991,43.8974609 33.3473772,44.0097656 34.7536272,44.0878906 Z M74.8392857,43.8828125 C75.2299107,44.2929688 75.6205357,43.7900391 76.0111607,42.3740234 C76.4017857,40.9580078 77.0072545,39.234375 77.827567,37.203125 C78.6478795,35.171875 79.4242467,33.3017578 80.1566685,31.5927734 C80.8890904,29.8837891 81.7875279,27.8330078 82.851981,25.4404297 C83.9164342,23.0478516 84.9662388,20.7675781 86.0013951,18.5996094 C87.0365513,16.4316406 87.7689732,14.8007812 88.1986607,13.7070312 C89.0385045,11.6367188 89.6586217,10.0058594 90.0590123,8.81445312 C90.4594029,7.62304688 90.718192,6.54394531 90.8353795,5.57714844 C90.952567,4.61035156 90.6107701,3.78515625 89.8099888,3.1015625 C89.5560826,2.69140625 88.8822545,2.38867188 87.7885045,2.19335938 L87.7885045,2.19335938 L85.1810826,2.1640625 C82.4857701,2.45703125 80.2250279,2.77441406 78.398856,3.11621094 C76.5726842,3.45800781 74.9467076,3.83398438 73.5209263,4.24414062 C72.0951451,4.65429688 71.2308873,4.90332031 70.9281529,4.99121094 C70.7936043,5.03027344 70.6137239,5.08669705 70.3885117,5.16048177 L70.0166946,5.28417969 C69.8137866,5.35253906 69.5853795,5.43066406 69.3314732,5.51855469 C68.5697545,5.78222656 68.1010045,5.94824219 67.9252232,6.01660156 C67.749442,6.08496094 67.5492467,6.17773438 67.3246373,6.29492188 C67.1000279,6.41210938 66.9974888,6.6953125 67.0170201,7.14453125 C67.6615513,7.92578125 69.546317,7.66210938 72.671317,6.35351562 L72.671317,6.35351562 L76.8021763,5.328125 C80.1224888,4.60546875 82.6517857,4.13671875 84.390067,3.921875 C86.1283482,3.70703125 87.2953404,3.70703125 87.8910435,3.921875 C88.4867467,4.13671875 88.7943638,4.6640625 88.8138951,5.50390625 C88.8334263,6.34375 88.452567,7.77929688 87.671317,9.81054688 C86.265067,12.9550781 85.2396763,15.2402344 84.5951451,16.6660156 C83.9506138,18.0917969 83.3011998,19.46875 82.6469029,20.796875 C81.992606,22.125 81.2308873,23.8046875 80.3617467,25.8359375 C79.492606,27.8671875 78.6967076,29.7275391 77.9740513,31.4169922 C77.2513951,33.1064453 76.4652623,34.9667969 75.6156529,36.9980469 C74.7660435,39.0292969 74.3412388,40.5527344 74.3412388,41.5683594 C74.2826451,42.7011719 74.4486607,43.4726562 74.8392857,43.8828125 Z M94.6808036,43.9121094 C97.0440848,44.0097656 99.7296317,44.0097656 102.737444,43.9121094 C106.839007,43.4824219 110.706194,42.4863281 114.339007,40.9238281 C115.003069,40.4941406 114.641741,40.3476562 113.255022,40.484375 C110.950335,40.7773438 108.948382,41.0996094 107.249163,41.4511719 C105.549944,41.8027344 102.688616,42.125 98.6651786,42.4179688 C95.5987723,42.3789062 93.6895926,42.3007812 92.9376395,42.1835938 C92.1856864,42.0664062 91.4972098,41.9199219 90.8722098,41.7441406 C89.9933036,41.1386719 89.671038,40.3574219 89.905413,39.4003906 L89.905413,39.4003906 L90.2862723,38.4921875 C90.8526786,37.6132812 91.3165458,36.9394531 91.6778739,36.4707031 C92.039202,36.0019531 92.7374442,35.1914062 93.7726005,34.0390625 C94.8663505,32.9648438 96.0870536,31.8417969 97.4347098,30.6699219 C98.7823661,29.7128906 99.8468192,28.9121094 100.628069,28.2675781 C101.409319,27.6230469 102.27846,26.9882812 103.235491,26.3632812 C104.583147,25.5429688 105.833147,24.7128906 106.985491,23.8730469 C108.235491,22.9746094 109.651507,22.0859375 111.233538,21.2070312 C112.014788,20.7773438 112.483538,20.2988281 112.639788,19.7714844 C112.561663,19.0292969 112.200335,18.5800781 111.555804,18.4238281 C110.930804,18.3847656 110.344866,18.4042969 109.797991,18.4824219 C108.704241,18.5605469 107.512835,18.6875 106.223772,18.8632812 L106.223772,18.8632812 L103.587054,18.9804688 C101.65346,18.9609375 100.276507,18.9023438 99.4561942,18.8046875 C98.6358817,18.7070312 97.7374442,18.5117188 96.7608817,18.21875 C95.8819755,17.6914062 95.4229911,17.0810547 95.3839286,16.3876953 C95.3448661,15.6943359 95.5450614,14.8984375 95.9845145,14 C96.4239676,13.1015625 97.2101005,11.9833984 98.342913,10.6455078 C99.4757255,9.30761719 100.794085,8.23828125 102.297991,7.4375 C104.368304,6.265625 106.043108,5.46484375 107.322405,5.03515625 C108.601702,4.60546875 109.783343,4.28808594 110.867327,4.08300781 C111.951311,3.87792969 113.040179,3.78515625 114.133929,3.8046875 C115.598772,3.765625 116.477679,4.2734375 116.770647,5.328125 C117.005022,6.3046875 117.327288,6.79296875 117.737444,6.79296875 C117.893694,6.734375 118.05971,6.49023438 118.235491,6.06054688 L118.235491,6.06054688 L118.235491,4.859375 C118.137835,4.25390625 117.947405,3.78027344 117.664202,3.43847656 C117.380999,3.09667969 117.024554,2.81835938 116.594866,2.60351562 L116.594866,2.60351562 L115.012835,2.046875 L113.255022,2.046875 C112.180804,2.1640625 111.394671,2.25195312 110.896624,2.31054688 C110.398577,2.36914062 109.368304,2.61328125 107.805804,3.04296875 C106.223772,3.53125 104.739397,4.14648438 103.352679,4.88867188 C101.02846,6.02148438 98.9776786,7.34960938 97.2003348,8.87304688 L97.2003348,8.87304688 L95.6768973,10.8359375 C94.7198661,12.4179688 94.1339286,13.8535156 93.9190848,15.1425781 L93.9190848,15.1425781 L93.8311942,16.34375 C94.0069755,17.8476562 94.6515067,18.8535156 95.764788,19.3613281 C96.780413,19.8300781 98.108538,20.1132812 99.749163,20.2109375 C101.350725,20.25 102.74721,20.2597656 103.938616,20.2402344 L103.938616,20.2402344 L105.930804,20.2402344 C107.43471,20.1425781 108.567522,20.0351562 109.329241,19.9179688 L109.329241,19.9179688 L110.296038,19.7714844 C109.86635,20.0449219 109.319475,20.4160156 108.655413,20.8847656 C107.854632,21.4316406 107.05385,21.9394531 106.253069,22.4082031 C104.456194,23.4824219 103.318499,24.1708984 102.839983,24.4736328 C102.361468,24.7763672 101.926897,25.0742188 101.536272,25.3671875 C101.145647,25.6601562 100.496233,26.1289062 99.5880301,26.7734375 C98.679827,27.4179688 97.4884208,28.3261719 96.0138114,29.4980469 C94.539202,30.6699219 93.5089286,31.5634766 92.9229911,32.1787109 C92.3370536,32.7939453 91.7364676,33.4628906 91.1212333,34.1855469 C90.5059989,34.9082031 89.8077567,35.875 89.0265067,37.0859375 C88.655413,37.7109375 88.3624442,38.5605469 88.1476005,39.6347656 C88.1476005,41.0214844 88.577288,42.0957031 89.436663,42.8574219 C90.5694755,43.4628906 92.3175223,43.8144531 94.6808036,43.9121094 Z M122.871931,47.4863281 C123.223493,47.3300781 123.457868,47.1787109 123.575056,47.0322266 C123.692243,46.8857422 123.87779,46.5292969 124.131696,45.9628906 C124.893415,42.6621094 125.464704,39.8496094 125.845564,37.5253906 C126.226423,35.2011719 126.490095,33.5947266 126.636579,32.7060547 C126.783064,31.8173828 127.080915,29.7519531 127.530134,26.5097656 C131.573103,29.4589844 134.444196,31.7001953 136.143415,33.2333984 C137.842634,34.7666016 140.176618,36.5830078 143.145368,38.6826172 C146.114118,40.7822266 149.082868,42.2617188 152.051618,43.1210938 C153.282087,43.21875 153.360212,42.9355469 152.285993,42.2714844 C151.485212,41.9980469 150.313337,41.4072266 148.770368,40.4990234 C147.2274,39.5908203 145.293806,38.2431641 142.969587,36.4560547 C140.645368,34.6689453 138.228376,32.7451172 135.718611,30.6845703 C133.208845,28.6240234 130.567243,26.6855469 127.793806,24.8691406 C127.930525,23.9902344 128.067243,23.1894531 128.203962,22.4667969 C129.551618,22.1542969 131.2899,21.5732422 133.418806,20.7236328 C135.547712,19.8740234 137.217634,19.0878906 138.428571,18.3652344 C139.639509,17.6425781 140.806501,16.7099609 141.929548,15.5673828 C143.052595,14.4248047 143.858259,13.4335937 144.34654,12.59375 C144.834821,11.7539062 145.113142,10.9042969 145.181501,10.0449219 C145.249861,9.18554688 145.210798,8.4921875 145.064314,7.96484375 C144.917829,7.4375 144.590681,6.8125 144.082868,6.08984375 C143.575056,5.3671875 142.740095,4.68359375 141.577986,4.0390625 C140.415876,3.39453125 138.907087,2.93554688 137.051618,2.66210938 C135.19615,2.38867188 133.203962,2.23242188 131.075056,2.19335938 C130.782087,1.11914063 130.391462,0.533203125 129.903181,0.435546875 C129.4149,0.318359375 129.219587,0.484375 129.317243,0.93359375 L129.317243,0.93359375 L129.317243,1.78320313 L129.200056,2.48632813 C128.4774,2.70117188 127.69615,2.95019531 126.856306,3.23339844 C126.016462,3.51660156 125.000837,3.99511719 123.809431,4.66894531 C122.618025,5.34277344 121.910017,5.9140625 121.685407,6.3828125 C121.460798,6.8515625 121.348493,7.26171875 121.348493,7.61328125 C121.348493,7.96484375 121.416853,8.23339844 121.553571,8.41894531 C121.69029,8.60449219 121.88072,9.00488281 122.124861,9.62011719 C122.369001,10.2353516 122.676618,10.9238281 123.047712,11.6855469 C123.438337,11.3339844 123.555525,10.9287109 123.399275,10.4697266 C123.243025,10.0107422 123.033064,9.39550781 122.769392,8.62402344 C122.50572,7.85253906 122.686384,7.21289063 123.311384,6.70507813 C123.936384,6.19726563 124.576032,5.77246094 125.230329,5.43066406 C125.884626,5.08886719 127.168806,4.63476563 129.082868,4.06835938 C128.496931,7.79882813 128.106306,10.2060547 127.910993,11.2900391 C127.715681,12.3740234 127.50572,13.6923828 127.281111,15.2451172 C127.263833,15.3645583 127.246295,15.4862241 127.228497,15.6101146 L127.118591,16.3801544 C126.930213,17.7080483 126.715831,19.2584135 126.475446,21.03125 C124.795759,21.3632812 123.462751,21.5830078 122.476423,21.6904297 C121.490095,21.7978516 120.542829,21.8710938 119.634626,21.9101562 C118.726423,21.9492188 118.282087,22.1542969 118.301618,22.5253906 C118.32115,22.8964844 118.545759,23.3457031 118.975446,23.8730469 C119.483259,23.8730469 120.0399,23.8242188 120.645368,23.7265625 C121.6024,23.7265625 122.657087,23.9707031 123.809431,24.4589844 L123.809431,24.4589844 L125.743025,25.484375 C125.607608,26.4947917 125.474275,27.4670139 125.343025,28.4010417 L125.147712,29.7734375 C124.857087,31.7890625 124.577009,33.6113281 124.307478,35.2402344 C123.858259,37.9550781 123.448103,40.25 123.077009,42.125 C122.705915,44 122.38365,45.5820312 122.110212,46.8710938 L122.110212,46.8710938 L122.608259,47.4863281 L122.871931,47.4863281 Z M128.555525,20.4453125 C128.828962,18.609375 129.048689,17.1152344 129.214704,15.9628906 C129.288489,15.4507378 129.368061,14.8971113 129.45342,14.302011 L129.585798,13.3782552 C129.654157,12.9008247 129.725772,12.4000651 129.800642,11.8759766 C129.856794,11.4829102 129.909895,11.1112061 129.959944,10.7608643 L130.100935,9.77392578 C130.188825,9.15869141 130.264509,8.62890625 130.327986,8.18457031 C130.454939,7.29589844 130.674665,5.86523438 130.987165,3.89257812 C132.412946,3.75585938 133.985212,3.8046875 135.703962,4.0390625 C137.422712,4.2734375 138.706892,4.52734375 139.556501,4.80078125 C140.406111,5.07421875 141.299665,5.50390625 142.237165,6.08984375 C143.09654,7.14453125 143.56529,7.95019531 143.643415,8.50683594 C143.72154,9.06347656 143.63365,9.73730469 143.379743,10.5283203 C143.125837,11.3193359 142.593611,12.1933594 141.783064,13.1503906 C140.972517,14.1074219 139.991071,15.0205078 138.838728,15.8896484 C137.686384,16.7587891 136.197126,17.5986328 134.370954,18.4091797 C132.544782,19.2197266 130.606306,19.8984375 128.555525,20.4453125 Z M126.06529,23.7558594 C125.772321,23.5996094 125.381696,23.4335938 124.893415,23.2578125 C125.323103,23.1601562 125.75279,23.0527344 126.182478,22.9355469 L126.182478,22.9355469 L126.06529,23.7558594 Z M189.574219,42.7695312 C189.398438,43.7265625 189.520508,44.1367188 189.94043,44 C190.360352,43.8632812 190.6875,43.3847656 190.921875,42.5644531 C192.875,42.2128906 194.876953,41.6953125 196.927734,41.0117188 C198.978516,40.328125 200.868164,39.6640625 202.59668,39.0195312 C204.325195,38.375 205.628906,37.8378906 206.507813,37.4082031 C207.386719,36.9785156 209.071289,35.9824219 211.561523,34.4199219 C214.051758,32.8574219 216.146484,31.0556641 217.845703,29.0146484 C219.544922,26.9736328 220.521484,24.9423828 220.775391,22.9208984 C221.029297,20.8994141 220.887695,19.0439453 220.350586,17.3544922 C219.813477,15.6650391 218.949219,13.9365234 217.757813,12.1689453 C216.566406,10.4013672 215.072266,8.84863281 213.275391,7.51074219 C211.478516,6.17285156 209.623047,5.08886719 207.708984,4.25878906 C205.794922,3.42871094 204.178711,2.89160156 202.860352,2.64746094 C201.541992,2.40332031 199.603516,2.203125 197.044922,2.046875 C194.505859,1.87109375 191.942383,1.98828125 189.354492,2.3984375 C186.766602,2.80859375 184.862305,3.25292969 183.641602,3.73144531 C182.420898,4.20996094 181.351563,4.83007812 180.433594,5.59179688 C179.515625,6.35351562 179.144531,7.42773438 179.320313,8.81445312 C179.574219,9.84960938 180.155273,10.5087891 181.063477,10.7919922 C181.97168,11.0751953 182.166992,10.7529297 181.649414,9.82519531 C181.131836,8.89746094 181.039063,8.21875 181.371094,7.7890625 C182.269531,6.87109375 183.119141,6.2265625 183.919922,5.85546875 C184.720703,5.484375 185.87793,5.11816406 187.391602,4.75683594 C188.905273,4.39550781 190.6875,4.14160156 192.738281,3.99511719 C194.789063,3.84863281 196.742188,3.86816406 198.597656,4.05371094 C200.453125,4.23925781 202.572266,4.67871094 204.955078,5.37207031 C207.337891,6.06542969 209.613281,7.28613281 211.78125,9.03417969 C213.949219,10.7822266 215.541016,12.5644531 216.556641,14.3808594 C217.572266,16.1972656 218.207031,17.7304688 218.460938,18.9804688 C218.714844,20.2304688 218.77832,21.5439453 218.651367,22.9208984 C218.524414,24.2978516 217.889648,25.6894531 216.74707,27.0957031 C215.604492,28.5019531 214.393555,29.7470703 213.114258,30.8310547 C211.834961,31.9150391 210.443359,32.9208984 208.939453,33.8486328 C207.435547,34.7763672 205.350586,35.8115234 202.68457,36.9541016 C200.018555,38.0966797 196.302734,39.3515625 191.537109,40.71875 C192.279297,37.5546875 192.875,34.9277344 193.324219,32.8378906 C193.773438,30.7480469 194.208008,28.7021484 194.62793,26.7001953 C195.047852,24.6982422 195.487305,22.5546875 195.946289,20.2695312 C196.405273,17.984375 196.957031,15.5185547 197.601563,12.8720703 C198.246094,10.2255859 198.236328,8.56542969 197.572266,7.89160156 C196.908203,7.21777344 196.463867,7.28613281 196.239258,8.09667969 C196.014648,8.90722656 195.667969,10.4746094 195.199219,12.7988281 C194.730469,15.1230469 194.271484,17.359375 193.822266,19.5078125 C193.373047,21.65625 192.948242,23.7802734 192.547852,25.8798828 C192.147461,27.9794922 191.688477,30.4355469 191.170898,33.2480469 C190.65332,36.0605469 190.238281,38.6289062 189.925781,40.953125 C187.230469,41.265625 184.950195,41.3046875 183.084961,41.0703125 C181.219727,40.8359375 180.677734,41.0263672 181.458984,41.6416016 C182.240234,42.2568359 183.070313,42.6279297 183.949219,42.7548828 C184.828125,42.8818359 185.677734,42.9306641 186.498047,42.9013672 C187.318359,42.8720703 188.34375,42.828125 189.574219,42.7695312 Z M229.425502,47.4863281 C229.777065,47.3300781 230.01144,47.1787109 230.128627,47.0322266 C230.245815,46.8857422 230.431362,46.5292969 230.685268,45.9628906 C231.446987,42.6621094 232.018276,39.8496094 232.399135,37.5253906 C232.779994,35.2011719 233.043666,33.5947266 233.190151,32.7060547 C233.336635,31.8173828 233.634487,29.7519531 234.083705,26.5097656 C238.126674,29.4589844 240.997768,31.7001953 242.696987,33.2333984 C244.396205,34.7666016 246.73019,36.5830078 249.69894,38.6826172 C252.66769,40.7822266 255.63644,42.2617188 258.60519,43.1210938 C259.835659,43.21875 259.913784,42.9355469 258.839565,42.2714844 C258.038784,41.9980469 256.866909,41.4072266 255.32394,40.4990234 C253.780971,39.5908203 251.847377,38.2431641 249.523159,36.4560547 C247.19894,34.6689453 244.781948,32.7451172 242.272182,30.6845703 C239.762416,28.6240234 237.120815,26.6855469 234.347377,24.8691406 C234.484096,23.9902344 234.620815,23.1894531 234.757534,22.4667969 C236.10519,22.1542969 237.843471,21.5732422 239.972377,20.7236328 C242.101284,19.8740234 243.771205,19.0878906 244.982143,18.3652344 C246.19308,17.6425781 247.360073,16.7099609 248.483119,15.5673828 C249.606166,14.4248047 250.41183,13.4335937 250.900112,12.59375 C251.388393,11.7539062 251.666713,10.9042969 251.735073,10.0449219 C251.803432,9.18554688 251.764369,8.4921875 251.617885,7.96484375 C251.471401,7.4375 251.144252,6.8125 250.63644,6.08984375 C250.128627,5.3671875 249.293666,4.68359375 248.131557,4.0390625 C246.969448,3.39453125 245.460659,2.93554688 243.60519,2.66210938 C241.749721,2.38867188 239.757534,2.23242188 237.628627,2.19335938 C237.335659,1.11914063 236.945034,0.533203125 236.456752,0.435546875 C235.968471,0.318359375 235.773159,0.484375 235.870815,0.93359375 L235.870815,0.93359375 L235.870815,1.78320313 L235.753627,2.48632813 C235.030971,2.70117188 234.249721,2.95019531 233.409877,3.23339844 C232.570034,3.51660156 231.554409,3.99511719 230.363002,4.66894531 C229.171596,5.34277344 228.463588,5.9140625 228.238979,6.3828125 C228.014369,6.8515625 227.902065,7.26171875 227.902065,7.61328125 C227.902065,7.96484375 227.970424,8.23339844 228.107143,8.41894531 C228.243862,8.60449219 228.434291,9.00488281 228.678432,9.62011719 C228.922573,10.2353516 229.23019,10.9238281 229.601284,11.6855469 C229.991909,11.3339844 230.109096,10.9287109 229.952846,10.4697266 C229.796596,10.0107422 229.586635,9.39550781 229.322963,8.62402344 C229.059291,7.85253906 229.239955,7.21289063 229.864955,6.70507813 C230.489955,6.19726563 231.129604,5.77246094 231.783901,5.43066406 C232.438198,5.08886719 233.722377,4.63476563 235.63644,4.06835938 C235.050502,7.79882813 234.659877,10.2060547 234.464565,11.2900391 C234.269252,12.3740234 234.059291,13.6923828 233.834682,15.2451172 C233.610073,16.7978516 233.341518,18.7265625 233.029018,21.03125 C231.34933,21.3632812 230.016323,21.5830078 229.029994,21.6904297 C228.043666,21.7978516 227.096401,21.8710938 226.188198,21.9101562 C225.279994,21.9492188 224.835659,22.1542969 224.85519,22.5253906 C224.874721,22.8964844 225.09933,23.3457031 225.529018,23.8730469 C226.03683,23.8730469 226.593471,23.8242188 227.19894,23.7265625 C228.155971,23.7265625 229.210659,23.9707031 230.363002,24.4589844 L230.363002,24.4589844 L232.296596,25.484375 C231.788784,29.2734375 231.310268,32.5253906 230.861049,35.2402344 C230.41183,37.9550781 230.001674,40.25 229.63058,42.125 C229.259487,44 228.937221,45.5820312 228.663784,46.8710938 L228.663784,46.8710938 L229.16183,47.4863281 L229.425502,47.4863281 Z M235.109096,20.4453125 C235.382534,18.609375 235.60226,17.1152344 235.768276,15.9628906 C235.934291,14.8105469 236.129604,13.4482422 236.354213,11.8759766 C236.410366,11.4829102 236.463466,11.1112061 236.513515,10.7608643 L236.654506,9.77392578 C236.742397,9.15869141 236.81808,8.62890625 236.881557,8.18457031 C237.00851,7.29589844 237.228237,5.86523438 237.540737,3.89257812 C238.966518,3.75585938 240.538784,3.8046875 242.257534,4.0390625 C243.976284,4.2734375 245.260463,4.52734375 246.110073,4.80078125 C246.959682,5.07421875 247.853237,5.50390625 248.790737,6.08984375 C249.650112,7.14453125 250.118862,7.95019531 250.196987,8.50683594 C250.275112,9.06347656 250.187221,9.73730469 249.933315,10.5283203 C249.679409,11.3193359 249.147182,12.1933594 248.336635,13.1503906 C247.526088,14.1074219 246.544643,15.0205078 245.392299,15.8896484 C244.239955,16.7587891 242.750698,17.5986328 240.924526,18.4091797 C239.098354,19.2197266 237.159877,19.8984375 235.109096,20.4453125 Z M232.618862,23.7558594 C232.325893,23.5996094 231.935268,23.4335938 231.446987,23.2578125 C231.876674,23.1601562 232.306362,23.0527344 232.736049,22.9355469 L232.736049,22.9355469 L232.618862,23.7558594 Z M267.401786,43.9121094 C269.765067,44.0097656 272.450614,44.0097656 275.458426,43.9121094 C279.559989,43.4824219 283.427176,42.4863281 287.059989,40.9238281 C287.724051,40.4941406 287.362723,40.3476562 285.976004,40.484375 C283.671317,40.7773438 281.669364,41.0996094 279.970145,41.4511719 C278.270926,41.8027344 275.409598,42.125 271.386161,42.4179688 C268.319754,42.3789062 266.410575,42.3007812 265.658622,42.1835938 C264.906669,42.0664062 264.218192,41.9199219 263.593192,41.7441406 C262.714286,41.1386719 262.39202,40.3574219 262.626395,39.4003906 L262.626395,39.4003906 L263.007254,38.4921875 C263.573661,37.6132812 264.037528,36.9394531 264.398856,36.4707031 C264.760184,36.0019531 265.458426,35.1914062 266.493583,34.0390625 C267.587333,32.9648438 268.808036,31.8417969 270.155692,30.6699219 C271.503348,29.7128906 272.567801,28.9121094 273.349051,28.2675781 C274.130301,27.6230469 274.999442,26.9882812 275.956473,26.3632812 C277.304129,25.5429688 278.554129,24.7128906 279.706473,23.8730469 C280.956473,22.9746094 282.372489,22.0859375 283.95452,21.2070312 C284.73577,20.7773438 285.20452,20.2988281 285.36077,19.7714844 C285.282645,19.0292969 284.921317,18.5800781 284.276786,18.4238281 C283.651786,18.3847656 283.065848,18.4042969 282.518973,18.4824219 C281.425223,18.5605469 280.233817,18.6875 278.944754,18.8632812 L278.944754,18.8632812 L276.308036,18.9804688 C274.374442,18.9609375 272.997489,18.9023438 272.177176,18.8046875 C271.356864,18.7070312 270.458426,18.5117188 269.481864,18.21875 C268.602958,17.6914062 268.143973,17.0810547 268.104911,16.3876953 C268.065848,15.6943359 268.266044,14.8984375 268.705497,14 C269.14495,13.1015625 269.931083,11.9833984 271.063895,10.6455078 C272.196708,9.30761719 273.515067,8.23828125 275.018973,7.4375 C277.089286,6.265625 278.76409,5.46484375 280.043387,5.03515625 C281.322684,4.60546875 282.504325,4.28808594 283.588309,4.08300781 C284.672294,3.87792969 285.761161,3.78515625 286.854911,3.8046875 C288.319754,3.765625 289.198661,4.2734375 289.491629,5.328125 C289.726004,6.3046875 290.04827,6.79296875 290.458426,6.79296875 C290.614676,6.734375 290.780692,6.49023438 290.956473,6.06054688 L290.956473,6.06054688 L290.956473,4.859375 C290.858817,4.25390625 290.668387,3.78027344 290.385184,3.43847656 C290.101981,3.09667969 289.745536,2.81835938 289.315848,2.60351562 L289.315848,2.60351562 L287.733817,2.046875 L285.976004,2.046875 C284.901786,2.1640625 284.115653,2.25195312 283.617606,2.31054688 C283.119559,2.36914062 282.089286,2.61328125 280.526786,3.04296875 C278.944754,3.53125 277.460379,4.14648438 276.073661,4.88867188 C273.749442,6.02148438 271.698661,7.34960938 269.921317,8.87304688 L269.921317,8.87304688 L268.397879,10.8359375 C267.440848,12.4179688 266.854911,13.8535156 266.640067,15.1425781 L266.640067,15.1425781 L266.552176,16.34375 C266.727958,17.8476562 267.372489,18.8535156 268.48577,19.3613281 C269.501395,19.8300781 270.82952,20.1132812 272.470145,20.2109375 C274.071708,20.25 275.468192,20.2597656 276.659598,20.2402344 L276.659598,20.2402344 L278.651786,20.2402344 C280.155692,20.1425781 281.288504,20.0351562 282.050223,19.9179688 L282.050223,19.9179688 L283.01702,19.7714844 C282.587333,20.0449219 282.040458,20.4160156 281.376395,20.8847656 C280.575614,21.4316406 279.774833,21.9394531 278.974051,22.4082031 C277.177176,23.4824219 276.039481,24.1708984 275.560965,24.4736328 C275.08245,24.7763672 274.647879,25.0742188 274.257254,25.3671875 C273.866629,25.6601562 273.217215,26.1289062 272.309012,26.7734375 C271.400809,27.4179688 270.209403,28.3261719 268.734794,29.4980469 C267.260184,30.6699219 266.229911,31.5634766 265.643973,32.1787109 C265.058036,32.7939453 264.45745,33.4628906 263.842215,34.1855469 C263.226981,34.9082031 262.528739,35.875 261.747489,37.0859375 C261.376395,37.7109375 261.083426,38.5605469 260.868583,39.6347656 C260.868583,41.0214844 261.29827,42.0957031 262.157645,42.8574219 C263.290458,43.4628906 265.038504,43.8144531 267.401786,43.9121094 Z M295.592913,44.0878906 C296.999163,44.1660156 298.620257,44.0439453 300.456194,43.7216797 C302.292132,43.3994141 304.049944,42.8671875 305.729632,42.125 C307.409319,41.3828125 308.93764,40.5185547 310.314593,39.5322266 C311.691546,38.5458984 312.912249,37.4375 313.976702,36.2070312 C315.041155,34.9765625 315.714983,33.9316406 315.998186,33.0722656 C316.28139,32.2128906 316.237444,31.3974609 315.86635,30.6259766 C315.495257,29.8544922 315.0851,29.234375 314.635882,28.765625 C314.186663,28.296875 313.62514,27.7744141 312.951311,27.1982422 C312.277483,26.6220703 311.613421,26.0751953 310.959124,25.5576172 C310.304827,25.0400391 309.352679,24.234375 308.102679,23.140625 C306.852679,22.046875 305.671038,20.7724609 304.557757,19.3173828 C303.444475,17.8623047 302.677874,16.6171875 302.257952,15.5820312 C301.83803,14.546875 301.725725,13.3164062 301.921038,11.890625 C302.11635,10.4648437 302.848772,9.12207031 304.118304,7.86230469 C305.387835,6.60253906 307.199358,5.58203125 309.552874,4.80078125 C311.90639,4.01953125 314.157366,3.58496094 316.305804,3.49707031 C318.454241,3.40917969 319.958147,3.87304687 320.817522,4.88867187 C322.126116,5.86523437 322.575335,7.26171875 322.165179,9.078125 C321.227679,10.9726562 319.401507,12.90625 316.686663,14.8789062 C316.686663,15.0742187 316.940569,15.09375 317.448382,14.9375 C318.874163,14.4492187 320.143694,13.5800781 321.256975,12.3300781 C322.370257,11.0800781 323.063616,10.1425781 323.337054,9.51757812 C324.020647,8.63867187 324.191546,7.60351562 323.849749,6.41210937 C323.507952,5.22070312 322.702288,4.19042969 321.432757,3.32128906 C320.163225,2.45214844 318.464007,2.02734375 316.3351,2.046875 C314.206194,2.06640625 312.282366,2.33007812 310.563616,2.83789062 C308.844866,3.34570312 307.350725,3.92675781 306.081194,4.58105469 C304.811663,5.23535156 303.805804,5.90429687 303.063616,6.58789062 C302.321429,7.27148437 301.701311,7.99902344 301.203265,8.77050781 C300.705218,9.54199219 300.387835,10.5087891 300.251116,11.6708984 C300.114397,12.8330078 300.246233,14.1855469 300.646624,15.7285156 C301.047015,17.2714844 301.847796,18.7558594 303.048968,20.1816406 C304.25014,21.6074219 305.583147,22.9746094 307.047991,24.2832031 C309.508929,26.3925781 311.300921,27.9208984 312.423968,28.8681641 C313.547015,29.8154297 314.108538,30.7773438 314.108538,31.7539062 C314.108538,32.7304688 313.429827,34.0341797 312.072405,35.6650391 C310.714983,37.2958984 308.683733,38.7851562 305.978655,40.1328125 C303.273577,41.4804688 300.539202,42.2373047 297.77553,42.4033203 C295.011858,42.5693359 292.702288,42.28125 290.846819,41.5390625 C290.495257,40.7578125 290.172991,40.2792969 289.880022,40.1035156 C289.587054,39.8886719 289.416155,39.9033203 289.367327,40.1474609 C289.318499,40.3916016 289.298968,40.7773438 289.308733,41.3046875 C289.318499,41.8320312 289.577288,42.3349609 290.0851,42.8134766 C290.592913,43.2919922 291.286272,43.6044922 292.165179,43.7509766 C293.044085,43.8974609 294.186663,44.0097656 295.592913,44.0878906 Z M325.746931,44.0878906 C327.153181,44.1660156 328.774275,44.0439453 330.610212,43.7216797 C332.44615,43.3994141 334.203962,42.8671875 335.88365,42.125 C337.563337,41.3828125 339.091657,40.5185547 340.468611,39.5322266 C341.845564,38.5458984 343.066267,37.4375 344.13072,36.2070312 C345.195173,34.9765625 345.869001,33.9316406 346.152204,33.0722656 C346.435407,32.2128906 346.391462,31.3974609 346.020368,30.6259766 C345.649275,29.8544922 345.239118,29.234375 344.7899,28.765625 C344.340681,28.296875 343.779157,27.7744141 343.105329,27.1982422 C342.431501,26.6220703 341.767439,26.0751953 341.113142,25.5576172 C340.458845,25.0400391 339.506696,24.234375 338.256696,23.140625 C337.006696,22.046875 335.825056,20.7724609 334.711775,19.3173828 C333.598493,17.8623047 332.831892,16.6171875 332.41197,15.5820312 C331.992048,14.546875 331.879743,13.3164062 332.075056,11.890625 C332.270368,10.4648437 333.00279,9.12207031 334.272321,7.86230469 C335.541853,6.60253906 337.353376,5.58203125 339.706892,4.80078125 C342.060407,4.01953125 344.311384,3.58496094 346.459821,3.49707031 C348.608259,3.40917969 350.112165,3.87304687 350.97154,4.88867187 C352.280134,5.86523437 352.729353,7.26171875 352.319196,9.078125 C351.381696,10.9726562 349.555525,12.90625 346.840681,14.8789062 C346.840681,15.0742187 347.094587,15.09375 347.6024,14.9375 C349.028181,14.4492187 350.297712,13.5800781 351.410993,12.3300781 C352.524275,11.0800781 353.217634,10.1425781 353.491071,9.51757812 C354.174665,8.63867187 354.345564,7.60351562 354.003767,6.41210937 C353.66197,5.22070312 352.856306,4.19042969 351.586775,3.32128906 C350.317243,2.45214844 348.618025,2.02734375 346.489118,2.046875 C344.360212,2.06640625 342.436384,2.33007812 340.717634,2.83789062 C338.998884,3.34570312 337.504743,3.92675781 336.235212,4.58105469 C334.965681,5.23535156 333.959821,5.90429687 333.217634,6.58789062 C332.475446,7.27148437 331.855329,7.99902344 331.357282,8.77050781 C330.859236,9.54199219 330.541853,10.5087891 330.405134,11.6708984 C330.268415,12.8330078 330.400251,14.1855469 330.800642,15.7285156 C331.201032,17.2714844 332.001814,18.7558594 333.202986,20.1816406 C334.404157,21.6074219 335.737165,22.9746094 337.202009,24.2832031 C339.662946,26.3925781 341.454939,27.9208984 342.577986,28.8681641 C343.701032,29.8154297 344.262556,30.7773438 344.262556,31.7539062 C344.262556,32.7304688 343.583845,34.0341797 342.226423,35.6650391 C340.869001,37.2958984 338.837751,38.7851562 336.132673,40.1328125 C333.427595,41.4804688 330.69322,42.2373047 327.929548,42.4033203 C325.165876,42.5693359 322.856306,42.28125 321.000837,41.5390625 C320.649275,40.7578125 320.327009,40.2792969 320.03404,40.1035156 C319.741071,39.8886719 319.570173,39.9033203 319.521345,40.1474609 C319.472517,40.3916016 319.452986,40.7773438 319.462751,41.3046875 C319.472517,41.8320312 319.731306,42.3349609 320.239118,42.8134766 C320.746931,43.2919922 321.44029,43.6044922 322.319196,43.7509766 C323.198103,43.8974609 324.340681,44.0097656 325.746931,44.0878906 Z" id="ASTERDRESS" fill="#000000" fill-rule="nonzero"></path>
    </g>
</svg>