<?xml version="1.0" encoding="UTF-8"?>
<svg width="375px" height="41px" viewBox="0 0 375 41" version="1.1" xmlns="http://www.w3.org/2000/svg" xmlns:xlink="http://www.w3.org/1999/xlink">
    <title>ASTERGOWN</title>
    <g id="final-copy" stroke="none" stroke-width="1" fill="none" fill-rule="evenodd">
        <path d="M10.89,40 L10.89,39.45 L8.25,39.45 C6.655,39.45 5.5,37.69 5.5,35.93 C5.5,35.545 5.555,34.995 5.72,34.61 L9.13,25.37 L24.53,25.37 L29.975,39.45 L25.355,39.45 L25.355,40 L35.86,40 L35.86,39.45 L33.165,39.45 L18.7,1.5 L17.435,1.5 L3.19,39.45 L0.44,39.45 L0.44,40 L10.89,40 Z M24.365,24.875 L9.295,24.875 L16.775,4.91 L24.365,24.875 Z M54.5207143,40.55 C61.3407143,40.55 66.5657143,36.48 66.5657143,29.935 C66.5657143,22.8406322 61.7613491,20.5785619 56.4920868,19.1079084 L55.9808526,18.967922 C55.8954535,18.9449575 55.80997,18.922165 55.7244201,18.8995275 L55.2104707,18.765427 C54.9532438,18.6991712 54.6957477,18.6340054 54.4384742,18.5694717 L53.6678127,18.3773096 C52.4715737,18.0799168 51.2908867,17.7863218 50.1757143,17.45 C46.1057143,16.24 42.8607143,14.37 42.8607143,9.695 C42.8607143,4.8 47.0957143,1.5 53.1457143,1.5 C59.0307143,1.5 63.2107143,4.525 64.3657143,11.73 L64.8607143,11.73 L64.8607143,1.445 L64.3657143,1.445 C64.3657143,2.71 63.2107143,3.7 62.0557143,3.7 C61.6707143,3.7 61.2307143,3.59 60.8457143,3.26 C59.0307143,1.885 56.7207143,0.95 53.1457143,0.95 C46.3807143,0.95 41.3207143,4.745 41.3207143,11.235 C41.3207143,18.0221264 46.2417356,19.861193 51.5527961,21.2642237 L52.3386864,21.468601 L52.3386864,21.468601 L53.1270032,21.6698708 C54.879119,22.1160695 56.6252545,22.5631034 58.2057143,23.17 C61.8907143,24.6 64.7507143,26.745 64.7507143,31.64 C64.7507143,36.59 60.6257143,40 54.5207143,40 C48.6357143,40 42.9707143,37.03 41.9257143,29.44 L41.3757143,29.44 L41.3757143,40.055 L41.8707143,40.055 C41.8707143,38.79 43.1357143,37.69 44.4007143,37.69 C44.7857143,37.69 45.2807143,37.8 45.6657143,38.075 C47.7557143,39.56 50.4507143,40.55 54.5207143,40.55 Z M92.5414286,40 L92.5414286,39.45 L87.9764286,39.45 L87.9764286,2.05 L95.7864286,2.05 C98.2614286,2.05 100.901429,4.58 100.901429,7.11 L100.901429,9.145 L101.396429,9.145 L101.396429,1.5 L71.4764286,1.5 L71.4764286,9.145 L72.0264286,9.145 L72.0264286,7.11 C72.0264286,4.58 74.6114286,2.05 77.0864286,2.05 L84.8964286,2.05 L84.8964286,39.45 L80.3314286,39.45 L80.3314286,40 L92.5414286,40 Z M132.927143,40 L132.927143,32.74 L132.377143,32.74 L132.377143,33.84 C132.377143,36.81 129.572143,39.45 126.602143,39.45 L113.182143,39.45 L113.182143,20.09 L121.432143,20.09 C123.522143,20.09 125.337143,21.96 125.337143,24.105 L125.337143,24.985 L125.887143,24.985 L125.887143,14.645 L125.337143,14.645 L125.337143,15.58 C125.337143,17.67 123.522143,19.54 121.432143,19.54 L113.182143,19.54 L113.182143,2.05 L126.547143,2.05 C129.297143,2.05 131.827143,4.47 131.827143,7.11 L131.827143,8.21 L132.377143,8.21 L132.377143,1.5 L105.592143,1.5 L105.592143,2.05 L110.102143,2.05 L110.102143,39.45 L105.592143,39.45 L105.592143,40 L132.927143,40 Z M167.812857,40.385 C171.112857,40.385 172.047857,38.625 172.047857,35.93 L172.047857,33.51 L171.497857,33.51 L171.497857,35.93 C171.497857,38.295 170.892857,39.395 169.022857,39.395 C167.427857,39.395 166.932857,38.295 166.932857,35.985 C166.932857,24.105 163.632857,20.86 158.022857,20.255 C165.172857,19.265 168.142857,15.855 168.142857,10.795 C168.142857,5.02 164.237857,1.5 153.512857,1.5 L139.047857,1.5 L139.047857,2.05 L143.557857,2.05 L143.557857,39.45 L139.047857,39.45 L139.047857,40 L151.697857,40 L151.697857,39.45 L146.637857,39.45 L146.637857,20.475 L153.897857,20.475 C161.927857,20.475 163.742857,22.895 163.742857,35.93 C163.742857,38.68 165.172857,40.385 167.812857,40.385 Z M153.897857,19.925 L146.637857,19.925 L146.637857,2.05 L152.907857,2.05 C161.982857,2.05 164.787857,5.02 164.787857,10.795 C164.787857,16.515 162.752857,19.925 153.897857,19.925 Z M221.925,40.55 C227.095,40.55 231.77,37.415 232.43,32.245 C233.09,33.125 234.685,37.8 234.685,40.055 L235.18,40.055 L235.18,21.575 L239.36,21.575 L239.36,21.025 L223.08,21.025 L223.08,21.575 L232.1,21.575 L232.1,30.155 C232.1,36.535 227.425,40 221.925,40 C213.235,40 208.89,33.345 208.89,20.86 C208.89,8.155 213.785,1.5 222.475,1.5 C229.075,1.5 233.805,6.45 234.575,12.72 L235.125,12.72 L235.125,1.445 L234.685,1.445 C234.685,2.49 233.255,4.305 231.935,4.305 C231.605,4.305 231.22,4.195 230.945,3.92 C229.02,2.27 226.325,0.95 222.475,0.95 C212.685,0.95 205.535,7.935 205.535,20.86 C205.535,33.565 212.135,40.55 221.925,40.55 Z M262.695714,40.55 C272.540714,40.55 279.690714,33.565 279.690714,20.86 C279.690714,7.935 272.540714,0.95 262.695714,0.95 C252.905714,0.95 245.755714,7.935 245.755714,20.86 C245.755714,33.565 252.905714,40.55 262.695714,40.55 Z M262.695714,40 C254.005714,40 249.110714,33.345 249.110714,20.86 C249.110714,8.155 254.005714,1.5 262.695714,1.5 C271.440714,1.5 276.335714,8.155 276.335714,20.86 C276.335714,33.345 271.440714,40 262.695714,40 Z M303.576429,40 L311.111429,19.87 L318.811429,40 L320.131429,40 L334.376429,2.05 L337.126429,2.05 L337.126429,1.5 L326.621429,1.5 L326.621429,2.05 L328.986429,2.05 C330.636429,2.05 332.066429,3.425 332.066429,5.46 C332.066429,6.065 331.956429,6.725 331.681429,7.44 L320.791429,36.37 L307.591429,2.05 L311.716429,2.05 L311.716429,1.5 L301.431429,1.5 L301.431429,2.05 L304.346429,2.05 L310.726429,18.88 L304.236429,36.37 L291.036429,2.05 L295.271429,2.05 L295.271429,1.5 L285.096429,1.5 L285.096429,2.05 L287.791429,2.05 L302.256429,40 L303.576429,40 Z M370.032143,40.11 L370.032143,5.955 C370.032143,4.03 371.792143,2.05 373.607143,2.05 L374.707143,2.05 L374.707143,1.5 L363.322143,1.5 L363.322143,2.05 L365.797143,2.05 C367.612143,2.05 369.427143,4.03 369.427143,5.955 L369.427143,34.445 L347.757143,1.5 L340.497143,1.5 L340.497143,2.05 L344.127143,2.05 L345.227143,3.48 L345.227143,35.545 C345.227143,37.525 343.467143,39.45 341.652143,39.45 L340.497143,39.45 L340.497143,40 L351.937143,40 L351.937143,39.45 L349.407143,39.45 C347.647143,39.45 345.777143,37.47 345.777143,35.545 L345.777143,4.14 L369.482143,40.11 L370.032143,40.11 Z" id="ASTERGOWN" fill="#000000" fill-rule="nonzero"></path>
    </g>
</svg>