<?xml version="1.0" encoding="UTF-8"?>
<svg width="358px" height="50px" viewBox="0 0 358 50" version="1.1" xmlns="http://www.w3.org/2000/svg" xmlns:xlink="http://www.w3.org/1999/xlink">
    <title>DAISYDRESS</title>
    <g id="final-copy" stroke="none" stroke-width="1" fill="none" fill-rule="evenodd">
        <path d="M10.7226562,43.7695312 C10.546875,44.7265625 10.6689453,45.1367188 11.0888672,45 C11.5087891,44.8632812 11.8359375,44.3847656 12.0703125,43.5644531 C14.0234375,43.2128906 16.0253906,42.6953125 18.0761719,42.0117188 C20.1269531,41.328125 22.0166016,40.6640625 23.7451172,40.0195312 C25.4736328,39.375 26.7773438,38.8378906 27.65625,38.4082031 C28.5351562,37.9785156 30.2197266,36.9824219 32.7099609,35.4199219 C35.2001953,33.8574219 37.2949219,32.0556641 38.9941406,30.0146484 C40.6933594,27.9736328 41.6699219,25.9423828 41.9238281,23.9208984 C42.1777344,21.8994141 42.0361328,20.0439453 41.4990234,18.3544922 C40.9619141,16.6650391 40.0976562,14.9365234 38.90625,13.1689453 C37.7148438,11.4013672 36.2207031,9.84863281 34.4238281,8.51074219 C32.6269531,7.17285156 30.7714844,6.08886719 28.8574219,5.25878906 C26.9433594,4.42871094 25.3271484,3.89160156 24.0087891,3.64746094 C22.6904297,3.40332031 20.7519531,3.203125 18.1933594,3.046875 C15.6542969,2.87109375 13.0908203,2.98828125 10.5029297,3.3984375 C7.91503906,3.80859375 6.01074219,4.25292969 4.79003906,4.73144531 C3.56933594,5.20996094 2.5,5.83007812 1.58203125,6.59179688 C0.6640625,7.35351562 0.29296875,8.42773438 0.46875,9.81445312 C0.72265625,10.8496094 1.30371094,11.5087891 2.21191406,11.7919922 C3.12011719,12.0751953 3.31542969,11.7529297 2.79785156,10.8251953 C2.28027344,9.89746094 2.1875,9.21875 2.51953125,8.7890625 C3.41796875,7.87109375 4.26757812,7.2265625 5.06835937,6.85546875 C5.86914062,6.484375 7.02636719,6.11816406 8.54003906,5.75683594 C10.0537109,5.39550781 11.8359375,5.14160156 13.8867187,4.99511719 C15.9375,4.84863281 17.890625,4.86816406 19.7460938,5.05371094 C21.6015625,5.23925781 23.7207031,5.67871094 26.1035156,6.37207031 C28.4863281,7.06542969 30.7617188,8.28613281 32.9296875,10.0341797 C35.0976562,11.7822266 36.6894531,13.5644531 37.7050781,15.3808594 C38.7207031,17.1972656 39.3554688,18.7304688 39.609375,19.9804688 C39.8632812,21.2304688 39.9267578,22.5439453 39.7998047,23.9208984 C39.6728516,25.2978516 39.0380859,26.6894531 37.8955078,28.0957031 C36.7529297,29.5019531 35.5419922,30.7470703 34.2626953,31.8310547 C32.9833984,32.9150391 31.5917969,33.9208984 30.0878906,34.8486328 C28.5839844,35.7763672 26.4990234,36.8115234 23.8330078,37.9541016 C21.1669922,39.0966797 17.4511719,40.3515625 12.6855469,41.71875 C13.4277344,38.5546875 14.0234375,35.9277344 14.4726562,33.8378906 C14.921875,31.7480469 15.3564453,29.7021484 15.7763672,27.7001953 C16.1962891,25.6982422 16.6357422,23.5546875 17.0947266,21.2695312 C17.5537109,18.984375 18.1054688,16.5185547 18.75,13.8720703 C19.3945312,11.2255859 19.3847656,9.56542969 18.7207031,8.89160156 C18.0566406,8.21777344 17.6123047,8.28613281 17.3876953,9.09667969 C17.3640522,9.18200041 17.3390565,9.27570713 17.3127083,9.37779984 L17.2296058,9.70923595 C17.0117052,10.6007212 16.717722,11.9639186 16.3476562,13.7988281 C15.8789062,16.1230469 15.4199219,18.359375 14.9707031,20.5078125 C14.5214844,22.65625 14.0966797,24.7802734 13.6962891,26.8798828 C13.2958984,28.9794922 12.8369141,31.4355469 12.3193359,34.2480469 C11.8017578,37.0605469 11.3867188,39.6289062 11.0742187,41.953125 C8.37890625,42.265625 6.09863281,42.3046875 4.23339844,42.0703125 C2.36816406,41.8359375 1.82617187,42.0263672 2.60742187,42.6416016 C3.38867187,43.2568359 4.21875,43.6279297 5.09765625,43.7548828 C5.9765625,43.8818359 6.82617187,43.9306641 7.64648437,43.9013672 C8.46679687,43.8720703 9.4921875,43.828125 10.7226562,43.7695312 Z M64.7536272,49.4238281 C65.0856585,49.3847656 65.3200335,49.2285156 65.4567522,48.9550781 L65.4567522,48.9550781 L65.5446429,48.1347656 C65.6227679,46.6113281 65.6911272,45.2050781 65.749721,43.9160156 C65.827846,43.3886719 65.8913225,42.8076172 65.9401507,42.1728516 C65.9889788,41.5380859 66.1012835,40.5517578 66.2770647,39.2138672 C66.452846,37.8759766 66.63351,36.40625 66.8190569,34.8046875 C67.0046038,33.203125 67.2243304,31.8066406 67.4782366,30.6152344 C68.6110491,30.5175781 70.1051897,30.4101562 71.9606585,30.2929688 C74.5973772,30.0195313 76.218471,29.7558594 76.8239397,29.5019531 C77.4294085,29.2480469 77.4538225,29.0429688 76.8971819,28.8867188 C76.3405413,28.7304687 75.5055804,28.671875 74.3922991,28.7109375 C73.2790179,28.75 72.1169085,28.7988281 70.905971,28.8574219 C69.6950335,28.9160156 68.7282366,28.9648438 68.0055804,29.0039062 L68.0055804,29.0039062 L67.624721,29.0039062 L67.624721,28.8867188 C67.7419085,28.1054688 67.8346819,27.4609375 67.9030413,26.953125 C67.9714007,26.4453125 68.117885,25.5615234 68.3424944,24.3017578 C68.5671038,23.0419922 68.8649554,21.3671875 69.2360491,19.2773438 C69.6071429,17.1875 69.9880022,15.4003906 70.3786272,13.9160156 C70.7301897,12.2753906 71.1989397,10.5175781 71.7848772,8.64257812 C72.077846,7.64648438 72.8005022,6.29882812 73.952846,4.59960938 L73.952846,4.59960938 L73.952846,3.95507812 C73.6794085,3.56445312 73.2106585,3.30078125 72.546596,3.1640625 C72.155971,3.61328125 71.843471,4.11621094 71.609096,4.67285156 C71.374721,5.22949219 70.8669085,6.23046875 70.0856585,7.67578125 C68.874721,9.74609375 68.0495257,11.1425781 67.6100725,11.8652344 C67.1706194,12.5878906 66.5505022,13.5742188 65.749721,14.8242188 C64.3825335,16.8164062 63.3766741,18.2666016 62.7321429,19.1748047 C62.0876116,20.0830078 61.3161272,21.171875 60.4176897,22.4414062 C59.5192522,23.7109375 58.8405413,24.6533203 58.3815569,25.2685547 C57.9225725,25.8837891 57.3659319,26.6162109 56.711635,27.4658203 C56.0573382,28.3154297 55.0661272,29.4433594 53.7380022,30.8496094 C51.6481585,31.3183594 50.0417132,31.6455078 48.9186663,31.8310547 C47.7956194,32.0166016 46.9020647,32.1337891 46.2380022,32.1826172 C45.5739397,32.2314453 45.1149554,32.2558594 44.8610491,32.2558594 C44.6071429,32.2558594 44.4118304,32.3242188 44.2751116,32.4609375 C44.2751116,33.3984375 44.9391741,33.8671875 46.2672991,33.8671875 C46.7360491,33.8671875 46.9704241,33.9550781 46.9704241,34.1308594 C48.2985491,34.2089844 49.4606585,34.4238281 50.4567522,34.7753906 C48.874721,36.4550781 47.6930804,37.6074219 46.9118304,38.2324219 C46.1305804,38.8574219 45.3395647,39.3652344 44.5387835,39.7558594 C43.7380022,40.1464844 43.3376116,40.4394531 43.3376116,40.6347656 C43.3962054,41.3378906 43.9040179,41.6894531 44.8610491,41.6894531 C47.2829241,40.0292969 48.9186663,38.7792969 49.7682757,37.9394531 C50.617885,37.0996094 51.4626116,36.2402344 52.3024554,35.3613281 C53.3376116,35.7324219 54.4118304,36.1914062 55.5251116,36.7382812 C56.9899554,37.6757812 58.0885882,38.5107422 58.82101,39.2431641 C59.5534319,39.9755859 60.1930804,40.6835938 60.7399554,41.3671875 C61.2868304,42.0507812 61.8385882,42.8662109 62.3952288,43.8134766 C62.9518694,44.7607422 63.3083147,45.390625 63.4645647,45.703125 C63.6208147,46.015625 63.7282366,46.3476562 63.7868304,46.6992188 C63.8454241,47.6953125 63.9186663,48.3349609 64.0065569,48.6181641 C64.0944475,48.9013672 64.343471,49.1699219 64.7536272,49.4238281 Z M56.6676897,30.4101562 C57.5856585,29.3164062 58.8454241,27.65625 60.4469866,25.4296875 C61.9899554,23.125 63.0251116,21.6601562 63.5524554,21.0351562 C64.0212054,20.2734375 64.4753069,19.5800781 64.91476,18.9550781 C65.3542132,18.3300781 66.0524554,17.3144531 67.0094866,15.9082031 C67.4001116,15.3417969 67.9176897,14.5898438 68.562221,13.6523438 L68.562221,13.6523438 L68.6208147,13.6523438 L68.6208147,13.7109375 L68.2692522,15.6738281 C67.937221,17.1777344 67.7126116,18.1835938 67.5954241,18.6914062 C67.4782366,19.1992188 67.2829241,20.1660156 67.0094866,21.5917969 C66.8532366,22.7832031 66.7165179,23.8769531 66.5993304,24.8730469 L66.5993304,24.8730469 L65.9255022,29.1503906 C64.7145647,29.3261719 63.5915179,29.4726562 62.5563616,29.5898438 C60.6032366,29.9023438 58.640346,30.1757812 56.6676897,30.4101562 Z M64.1676897,44.6191406 C63.7380022,43.7597656 63.3473772,43.0273438 62.9958147,42.421875 C62.6442522,41.8164062 62.2243304,41.2158203 61.7360491,40.6201172 C61.2477679,40.0244141 60.6227679,39.3603516 59.8610491,38.6279297 C59.0993304,37.8955078 58.2985491,37.2363281 57.4587054,36.6503906 C56.6188616,36.0644531 55.9352679,35.6542969 55.4079241,35.4199219 C54.8805804,35.1855469 54.0895647,34.8535156 53.0348772,34.4238281 C53.718471,33.7597656 54.3727679,33.0859375 54.9977679,32.4023438 C57.4587054,31.9726562 59.499721,31.6601562 61.1208147,31.4648438 C62.5075335,31.25 63.7282366,31.0839844 64.7829241,30.9667969 L64.7829241,30.9667969 L65.6911272,30.8789062 L65.4567522,32.1972656 C65.202846,34.1308594 65.0075335,35.6542969 64.8708147,36.7675781 C64.734096,37.8808594 64.5876116,39.3359375 64.4313616,41.1328125 C64.2946429,42.5 64.2067522,43.6621094 64.1676897,44.6191406 Z M51.218471,33.8671875 C50.2419085,33.59375 49.6950335,33.4472656 49.577846,33.4277344 L49.577846,33.4277344 L49.577846,33.3691406 C50.5739397,33.1152344 51.4821429,32.9296875 52.3024554,32.8125 C51.9704241,33.1445312 51.609096,33.4960938 51.218471,33.8671875 Z M81.0795201,45.0292969 C81.5092076,45.0878906 82.0121373,44.6386719 82.5883092,43.6816406 C83.164481,42.7246094 83.9896763,40.8789062 85.0638951,38.1445312 C85.1810826,39.0625 85.7328404,40.0195312 86.7191685,41.015625 C87.7054967,42.0117188 88.9164342,42.3535156 90.351981,42.0410156 C91.7875279,41.7285156 92.8470982,41.2304688 93.530692,40.546875 C94.2142857,39.8632812 94.4486607,39.4873047 94.233817,39.4189453 C94.0189732,39.3505859 93.6527623,39.5214844 93.1351842,39.9316406 C92.617606,40.3417969 91.836356,40.6591797 90.7914342,40.8837891 C89.7465123,41.1083984 88.711356,40.8056641 87.6859654,39.9755859 C86.6605748,39.1455078 86.1283482,37.7050781 86.0892857,35.6542969 C86.9095982,33.7792969 87.461356,32.5878906 87.7445592,32.0800781 C88.0277623,31.5722656 88.5258092,30.5517578 89.2386998,29.0185547 C89.9515904,27.4853516 90.7767857,25.5615234 91.7142857,23.2470703 C92.6517857,20.9326172 93.4867467,18.6523438 94.2191685,16.40625 C94.9515904,14.1601562 95.4984654,12.4365234 95.8597935,11.2353516 C96.2211217,10.0341797 96.5433873,8.77929688 96.8265904,7.47070312 C97.1097935,6.16210938 97.2465123,4.89746094 97.2367467,3.67675781 C97.226981,2.45605469 96.9486607,1.66015625 96.4017857,1.2890625 C95.874442,0.8984375 95.2103795,1.09375 94.4095982,1.875 C93.608817,2.65625 92.6859654,4.14550781 91.6410435,6.34277344 C90.5961217,8.54003906 89.7074498,10.7617188 88.9750279,13.0078125 C88.242606,15.2539062 87.5980748,17.3095703 87.0414342,19.1748047 C86.4847935,21.0400391 85.9086217,23.6328125 85.3129185,26.953125 C84.7172154,30.2734375 84.4291295,32.9980469 84.4486607,35.1269531 C83.218192,38.2128906 82.3490513,40.3369141 81.8412388,41.4990234 C81.3334263,42.6611328 80.9623326,43.0175781 80.7279576,42.5683594 C80.4935826,42.1191406 80.2836217,41.6162109 80.0980748,41.0595703 C79.9125279,40.5029297 79.4779576,39.8535156 78.7943638,39.1113281 L78.7943638,39.1113281 L82.3685826,37.3828125 C82.2513951,36.8945312 82.0219029,36.5820312 81.680106,36.4453125 C81.3383092,36.3085938 80.952567,36.4013672 80.5228795,36.7236328 C80.093192,37.0458984 79.4535435,37.4023438 78.6039342,37.7929688 C77.7543248,38.1835938 77.1781529,38.3789062 76.8754185,38.3789062 C76.5726842,38.3789062 76.421317,38.59375 76.421317,39.0234375 C77.5345982,39.9023438 78.3060826,40.9423828 78.7357701,42.1435547 C79.1654576,43.3447266 79.5560826,44.1113281 79.9076451,44.4433594 C80.2592076,44.7753906 80.6498326,44.9707031 81.0795201,45.0292969 Z M85.9720982,31.7871094 C86.1478795,30.7324219 86.3529576,29.5898437 86.5873326,28.359375 C86.8217076,27.1289062 87.1293248,25.703125 87.5101842,24.0820312 C87.8910435,22.4609375 88.5160435,20.2734375 89.3851842,17.5195312 C90.2543248,14.765625 91.030692,12.4414062 91.7142857,10.546875 C92.3978795,8.6328125 93.1498326,6.97265625 93.9701451,5.56640625 C94.7904576,4.16015625 95.2885045,3.4765625 95.4642857,3.515625 C95.6986607,3.61328125 95.6156529,4.37011719 95.2152623,5.78613281 C94.8148717,7.20214844 94.2875279,9.08691406 93.633231,11.4404297 C92.9789342,13.7939453 92.3099888,15.8837891 91.6263951,17.7099609 C90.9428013,19.5361328 90.1615513,21.5966797 89.2826451,23.8916016 C88.4037388,26.1865234 87.7640904,27.7587891 87.3636998,28.6083984 C86.9633092,29.4580078 86.499442,30.5175781 85.9720982,31.7871094 Z M102.971819,45.0878906 C104.378069,45.1660156 105.999163,45.0439453 107.8351,44.7216797 C109.671038,44.3994141 111.42885,43.8671875 113.108538,43.125 C114.788225,42.3828125 116.316546,41.5185547 117.693499,40.5322266 C119.070452,39.5458984 120.291155,38.4375 121.355608,37.2070312 C122.420061,35.9765625 123.09389,34.9316406 123.377093,34.0722656 C123.660296,33.2128906 123.61635,32.3974609 123.245257,31.6259766 C122.874163,30.8544922 122.464007,30.234375 122.014788,29.765625 C121.565569,29.296875 121.004046,28.7744141 120.330218,28.1982422 C119.65639,27.6220703 118.992327,27.0751953 118.33803,26.5576172 C117.683733,26.0400391 116.731585,25.234375 115.481585,24.140625 C114.231585,23.046875 113.049944,21.7724609 111.936663,20.3173828 C110.823382,18.8623047 110.05678,17.6171875 109.636858,16.5820312 C109.216936,15.546875 109.104632,14.3164062 109.299944,12.890625 C109.495257,11.4648437 110.227679,10.1220703 111.49721,8.86230469 C112.766741,7.60253906 114.578265,6.58203125 116.93178,5.80078125 C119.285296,5.01953125 121.536272,4.58496094 123.68471,4.49707031 C125.833147,4.40917969 127.337054,4.87304687 128.196429,5.88867187 C129.505022,6.86523437 129.954241,8.26171875 129.544085,10.078125 C128.606585,11.9726562 126.780413,13.90625 124.065569,15.8789062 C124.065569,16.0742188 124.319475,16.09375 124.827288,15.9375 C126.253069,15.4492187 127.5226,14.5800781 128.635882,13.3300781 C129.749163,12.0800781 130.442522,11.1425781 130.71596,10.5175781 C131.399554,9.63867187 131.570452,8.60351562 131.228655,7.41210937 C130.886858,6.22070312 130.081194,5.19042969 128.811663,4.32128906 C127.542132,3.45214844 125.842913,3.02734375 123.714007,3.046875 C121.5851,3.06640625 119.661272,3.33007812 117.942522,3.83789062 C116.223772,4.34570312 114.729632,4.92675781 113.4601,5.58105469 C112.190569,6.23535156 111.18471,6.90429687 110.442522,7.58789062 C109.700335,8.27148437 109.080218,8.99902344 108.582171,9.77050781 C108.084124,10.5419922 107.766741,11.5087891 107.630022,12.6708984 C107.493304,13.8330078 107.62514,15.1855469 108.02553,16.7285156 C108.425921,18.2714844 109.226702,19.7558594 110.427874,21.1816406 C111.629046,22.6074219 112.962054,23.9746094 114.426897,25.2832031 C116.887835,27.3925781 118.679827,28.9208984 119.802874,29.8681641 C120.925921,30.8154297 121.487444,31.7773438 121.487444,32.7539062 C121.487444,33.7304688 120.808733,35.0341797 119.451311,36.6650391 C118.09389,38.2958984 116.06264,39.7851562 113.357561,41.1328125 C110.652483,42.4804688 107.918108,43.2373047 105.154436,43.4033203 C102.390765,43.5693359 100.081194,43.28125 98.2257255,42.5390625 C97.874163,41.7578125 97.5518973,41.2792969 97.2589286,41.1035156 C96.9659598,40.8886719 96.7950614,40.9033203 96.7462333,41.1474609 C96.6974051,41.3916016 96.6778739,41.7773438 96.6876395,42.3046875 C96.6974051,42.8320312 96.9561942,43.3349609 97.4640067,43.8134766 C97.9718192,44.2919922 98.6651786,44.6044922 99.5440848,44.7509766 C100.422991,44.8974609 101.565569,45.0097656 102.971819,45.0878906 Z M133.462751,47.6074219 C133.101423,48.5253906 133.267439,48.7207031 133.960798,48.1933594 C134.654157,47.6660156 135.327986,46.8164062 135.982282,45.6445312 C136.636579,44.4726562 137.281111,43.3056641 137.915876,42.1435547 C138.550642,40.9814453 139.654157,38.9160156 141.226423,35.9472656 C142.798689,32.9785156 144.761579,29.3847656 147.115095,25.1660156 C149.468611,20.9472656 151.6024,17.0361328 153.516462,13.4326172 C155.430525,9.82910156 156.866071,7.10449219 157.823103,5.25878906 C158.780134,3.41308594 159.180525,2.12890625 159.024275,1.40625 C158.868025,0.68359375 158.575056,0.234375 158.145368,0.05859375 C157.735212,-0.1171875 157.198103,0.161132813 156.53404,0.893554688 C155.869978,1.62597656 155.293806,2.40722656 154.805525,3.23730469 C154.317243,4.06738281 153.887556,5.06347656 153.516462,6.22558594 C153.145368,7.38769531 152.847517,8.39355469 152.622907,9.24316406 C152.398298,10.0927734 151.812361,10.9375 150.865095,11.7773438 C149.917829,12.6171875 148.726423,13.5400391 147.290876,14.5458984 C145.855329,15.5517578 144.512556,16.3134766 143.262556,16.8310547 C142.012556,17.3486328 141.153181,17.4169922 140.684431,17.0361328 C140.215681,16.6552734 139.766462,15.7226562 139.336775,14.2382813 C138.926618,12.3828125 138.677595,11.1474609 138.589704,10.5322266 C138.501814,9.91699219 138.350446,9.32128906 138.135603,8.74511719 C137.920759,8.16894531 137.549665,7.76855469 137.022321,7.54394531 C136.494978,7.31933594 136.13365,7.49023438 135.938337,8.05664062 C136.270368,8.38867188 136.573103,9.34570312 136.84654,10.9277344 C137.510603,14.5410156 138.223493,16.8652344 138.985212,17.9003906 C139.746931,18.9355469 140.6649,19.375 141.739118,19.21875 C142.813337,19.0625 144.390486,18.3886719 146.470564,17.1972656 C148.550642,16.0058594 150.235212,14.6875 151.524275,13.2421875 C142.191462,30.309375 136.757118,40.3699062 135.221243,43.4237812 L135.077757,43.7116802 C134.947864,43.9751499 134.858747,44.165332 134.810407,44.2822266 C134.273298,45.5810547 133.824079,46.6894531 133.462751,47.6074219 Z M154.805525,7.5 C155.410993,5.64453125 156.153181,4.07226562 157.032087,2.78320312 C157.090681,3.21289062 156.348493,4.78515625 154.805525,7.5 Z M193.382813,43.7695312 C193.207031,44.7265625 193.329102,45.1367188 193.749023,45 C194.168945,44.8632812 194.496094,44.3847656 194.730469,43.5644531 C196.683594,43.2128906 198.685547,42.6953125 200.736328,42.0117188 C202.787109,41.328125 204.676758,40.6640625 206.405273,40.0195312 C208.133789,39.375 209.4375,38.8378906 210.316406,38.4082031 C211.195313,37.9785156 212.879883,36.9824219 215.370117,35.4199219 C217.860352,33.8574219 219.955078,32.0556641 221.654297,30.0146484 C223.353516,27.9736328 224.330078,25.9423828 224.583984,23.9208984 C224.837891,21.8994141 224.696289,20.0439453 224.15918,18.3544922 C223.62207,16.6650391 222.757813,14.9365234 221.566406,13.1689453 C220.375,11.4013672 218.880859,9.84863281 217.083984,8.51074219 C215.287109,7.17285156 213.431641,6.08886719 211.517578,5.25878906 C209.603516,4.42871094 207.987305,3.89160156 206.668945,3.64746094 C205.350586,3.40332031 203.412109,3.203125 200.853516,3.046875 C198.314453,2.87109375 195.750977,2.98828125 193.163086,3.3984375 C190.575195,3.80859375 188.670898,4.25292969 187.450195,4.73144531 C186.229492,5.20996094 185.160156,5.83007812 184.242188,6.59179688 C183.324219,7.35351562 182.953125,8.42773438 183.128906,9.81445312 C183.382813,10.8496094 183.963867,11.5087891 184.87207,11.7919922 C185.780273,12.0751953 185.975586,11.7529297 185.458008,10.8251953 C184.94043,9.89746094 184.847656,9.21875 185.179688,8.7890625 C186.078125,7.87109375 186.927734,7.2265625 187.728516,6.85546875 C188.529297,6.484375 189.686523,6.11816406 191.200195,5.75683594 C192.713867,5.39550781 194.496094,5.14160156 196.546875,4.99511719 C198.597656,4.84863281 200.550781,4.86816406 202.40625,5.05371094 C204.261719,5.23925781 206.380859,5.67871094 208.763672,6.37207031 C211.146484,7.06542969 213.421875,8.28613281 215.589844,10.0341797 C217.757813,11.7822266 219.349609,13.5644531 220.365234,15.3808594 C221.380859,17.1972656 222.015625,18.7304688 222.269531,19.9804688 C222.523438,21.2304688 222.586914,22.5439453 222.459961,23.9208984 C222.333008,25.2978516 221.698242,26.6894531 220.555664,28.0957031 C219.413086,29.5019531 218.202148,30.7470703 216.922852,31.8310547 C215.643555,32.9150391 214.251953,33.9208984 212.748047,34.8486328 C211.244141,35.7763672 209.15918,36.8115234 206.493164,37.9541016 C203.827148,39.0966797 200.111328,40.3515625 195.345703,41.71875 C196.087891,38.5546875 196.683594,35.9277344 197.132813,33.8378906 C197.582031,31.7480469 198.016602,29.7021484 198.436523,27.7001953 C198.856445,25.6982422 199.295898,23.5546875 199.754883,21.2695312 C200.213867,18.984375 200.765625,16.5185547 201.410156,13.8720703 C202.054688,11.2255859 202.044922,9.56542969 201.380859,8.89160156 C200.716797,8.21777344 200.272461,8.28613281 200.047852,9.09667969 C200.024208,9.18200041 199.999213,9.27570713 199.972865,9.37779984 L199.889762,9.70923595 C199.671861,10.6007212 199.377878,11.9639186 199.007813,13.7988281 C198.539063,16.1230469 198.080078,18.359375 197.630859,20.5078125 C197.181641,22.65625 196.756836,24.7802734 196.356445,26.8798828 C195.956055,28.9794922 195.49707,31.4355469 194.979492,34.2480469 C194.461914,37.0605469 194.046875,39.6289062 193.734375,41.953125 C191.039063,42.265625 188.758789,42.3046875 186.893555,42.0703125 C185.02832,41.8359375 184.486328,42.0263672 185.267578,42.6416016 C186.048828,43.2568359 186.878906,43.6279297 187.757813,43.7548828 C188.636719,43.8818359 189.486328,43.9306641 190.306641,43.9013672 C191.126953,43.8720703 192.152344,43.828125 193.382813,43.7695312 Z M233.234096,48.4863281 C233.585659,48.3300781 233.820034,48.1787109 233.937221,48.0322266 C234.054409,47.8857422 234.239955,47.5292969 234.493862,46.9628906 C235.25558,43.6621094 235.826869,40.8496094 236.207729,38.5253906 C236.588588,36.2011719 236.85226,34.5947266 236.998744,33.7060547 C237.145229,32.8173828 237.44308,30.7519531 237.892299,27.5097656 C241.935268,30.4589844 244.806362,32.7001953 246.50558,34.2333984 C248.204799,35.7666016 250.538784,37.5830078 253.507534,39.6826172 C256.476284,41.7822266 259.445034,43.2617188 262.413784,44.1210938 C263.644252,44.21875 263.722377,43.9355469 262.648159,43.2714844 C261.847377,42.9980469 260.675502,42.4072266 259.132534,41.4990234 C257.589565,40.5908203 255.655971,39.2431641 253.331752,37.4560547 C251.007534,35.6689453 248.590541,33.7451172 246.080776,31.6845703 C243.57101,29.6240234 240.929409,27.6855469 238.155971,25.8691406 C238.29269,24.9902344 238.429409,24.1894531 238.566127,23.4667969 C239.913784,23.1542969 241.652065,22.5732422 243.780971,21.7236328 C245.909877,20.8740234 247.579799,20.0878906 248.790737,19.3652344 C250.001674,18.6425781 251.168666,17.7099609 252.291713,16.5673828 C253.41476,15.4248047 254.220424,14.4335937 254.708705,13.59375 C255.196987,12.7539062 255.475307,11.9042969 255.543666,11.0449219 C255.612026,10.1855469 255.572963,9.4921875 255.426479,8.96484375 C255.279994,8.4375 254.952846,7.8125 254.445034,7.08984375 C253.937221,6.3671875 253.10226,5.68359375 251.940151,5.0390625 C250.778041,4.39453125 249.269252,3.93554688 247.413784,3.66210938 C245.558315,3.38867188 243.566127,3.23242188 241.437221,3.19335938 C241.144252,2.11914063 240.753627,1.53320313 240.265346,1.43554688 C239.777065,1.31835938 239.581752,1.484375 239.679409,1.93359375 L239.679409,1.93359375 L239.679409,2.78320313 L239.562221,3.48632813 C238.839565,3.70117188 238.058315,3.95019531 237.218471,4.23339844 C236.378627,4.51660156 235.363002,4.99511719 234.171596,5.66894531 C232.98019,6.34277344 232.272182,6.9140625 232.047573,7.3828125 C231.822963,7.8515625 231.710659,8.26171875 231.710659,8.61328125 C231.710659,8.96484375 231.779018,9.23339844 231.915737,9.41894531 C232.052455,9.60449219 232.242885,10.0048828 232.487026,10.6201172 C232.731166,11.2353516 233.038784,11.9238281 233.409877,12.6855469 C233.800502,12.3339844 233.91769,11.9287109 233.76144,11.4697266 C233.60519,11.0107422 233.395229,10.3955078 233.131557,9.62402344 C232.867885,8.85253906 233.048549,8.21289062 233.673549,7.70507813 C234.298549,7.19726563 234.938198,6.77246094 235.592494,6.43066406 C236.246791,6.08886719 237.530971,5.63476563 239.445034,5.06835938 C238.859096,8.79882812 238.468471,11.2060547 238.273159,12.2900391 C238.077846,13.3740234 237.867885,14.6923828 237.643276,16.2451172 C237.625998,16.3645583 237.60846,16.4862241 237.590663,16.6101146 L237.480756,17.3801544 C237.292378,18.7080483 237.077996,20.2584135 236.837612,22.03125 C235.157924,22.3632812 233.824916,22.5830078 232.838588,22.6904297 C231.85226,22.7978516 230.904994,22.8710938 229.996791,22.9101562 C229.088588,22.9492188 228.644252,23.1542969 228.663784,23.5253906 C228.683315,23.8964844 228.907924,24.3457031 229.337612,24.8730469 C229.845424,24.8730469 230.402065,24.8242188 231.007534,24.7265625 C231.964565,24.7265625 233.019252,24.9707031 234.171596,25.4589844 L234.171596,25.4589844 L236.10519,26.484375 C235.597377,30.2734375 235.118862,33.5253906 234.669643,36.2402344 C234.220424,38.9550781 233.810268,41.25 233.439174,43.125 C233.06808,45 232.745815,46.5820312 232.472377,47.8710938 L232.472377,47.8710938 L232.970424,48.4863281 L233.234096,48.4863281 Z M238.91769,21.4453125 C239.191127,19.609375 239.410854,18.1152344 239.576869,16.9628906 C239.650654,16.4507378 239.730226,15.8971113 239.815585,15.302011 L239.947963,14.3782552 C240.016323,13.9008247 240.087937,13.4000651 240.162807,12.8759766 C240.218959,12.4829102 240.27206,12.1112061 240.322109,11.7608643 L240.4631,10.7739258 C240.550991,10.1586914 240.626674,9.62890625 240.690151,9.18457031 C240.817104,8.29589844 241.03683,6.86523438 241.34933,4.89257812 C242.775112,4.75585938 244.347377,4.8046875 246.066127,5.0390625 C247.784877,5.2734375 249.069057,5.52734375 249.918666,5.80078125 C250.768276,6.07421875 251.66183,6.50390625 252.59933,7.08984375 C253.458705,8.14453125 253.927455,8.95019531 254.00558,9.50683594 C254.083705,10.0634766 253.995815,10.7373047 253.741909,11.5283203 C253.488002,12.3193359 252.955776,13.1933594 252.145229,14.1503906 C251.334682,15.1074219 250.353237,16.0205078 249.200893,16.8896484 C248.048549,17.7587891 246.559291,18.5986328 244.733119,19.4091797 C242.906948,20.2197266 240.968471,20.8984375 238.91769,21.4453125 Z M236.427455,24.7558594 C236.134487,24.5996094 235.743862,24.4335938 235.25558,24.2578125 C235.685268,24.1601562 236.114955,24.0527344 236.544643,23.9355469 L236.544643,23.9355469 L236.427455,24.7558594 Z M271.210379,44.9121094 C273.573661,45.0097656 276.259208,45.0097656 279.26702,44.9121094 C283.368583,44.4824219 287.23577,43.4863281 290.868583,41.9238281 C291.532645,41.4941406 291.171317,41.3476562 289.784598,41.484375 C287.479911,41.7773438 285.477958,42.0996094 283.778739,42.4511719 C282.07952,42.8027344 279.218192,43.125 275.194754,43.4179688 C272.128348,43.3789062 270.219169,43.3007812 269.467215,43.1835938 C268.715262,43.0664062 268.026786,42.9199219 267.401786,42.7441406 C266.522879,42.1386719 266.200614,41.3574219 266.434989,40.4003906 L266.434989,40.4003906 L266.815848,39.4921875 C267.382254,38.6132812 267.846122,37.9394531 268.20745,37.4707031 C268.568778,37.0019531 269.26702,36.1914062 270.302176,35.0390625 C271.395926,33.9648438 272.616629,32.8417969 273.964286,31.6699219 C275.311942,30.7128906 276.376395,29.9121094 277.157645,29.2675781 C277.938895,28.6230469 278.808036,27.9882812 279.765067,27.3632812 C281.112723,26.5429688 282.362723,25.7128906 283.515067,24.8730469 C284.765067,23.9746094 286.181083,23.0859375 287.763114,22.2070312 C288.544364,21.7773438 289.013114,21.2988281 289.169364,20.7714844 C289.091239,20.0292969 288.729911,19.5800781 288.085379,19.4238281 C287.460379,19.3847656 286.874442,19.4042969 286.327567,19.4824219 C285.233817,19.5605469 284.042411,19.6875 282.753348,19.8632812 L282.753348,19.8632812 L280.116629,19.9804688 C278.183036,19.9609375 276.806083,19.9023438 275.98577,19.8046875 C275.165458,19.7070312 274.26702,19.5117188 273.290458,19.21875 C272.411551,18.6914062 271.952567,18.0810547 271.913504,17.3876953 C271.874442,16.6943359 272.074637,15.8984375 272.51409,15 C272.953544,14.1015625 273.739676,12.9833984 274.872489,11.6455078 C276.005301,10.3076172 277.323661,9.23828125 278.827567,8.4375 C280.897879,7.265625 282.572684,6.46484375 283.851981,6.03515625 C285.131278,5.60546875 286.312919,5.28808594 287.396903,5.08300781 C288.480887,4.87792969 289.569754,4.78515625 290.663504,4.8046875 C292.128348,4.765625 293.007254,5.2734375 293.300223,6.328125 C293.534598,7.3046875 293.856864,7.79296875 294.26702,7.79296875 C294.42327,7.734375 294.589286,7.49023438 294.765067,7.06054688 L294.765067,7.06054688 L294.765067,5.859375 C294.667411,5.25390625 294.476981,4.78027344 294.193778,4.43847656 C293.910575,4.09667969 293.554129,3.81835938 293.124442,3.60351562 L293.124442,3.60351562 L291.542411,3.046875 L289.784598,3.046875 C288.710379,3.1640625 287.924247,3.25195312 287.4262,3.31054688 C286.928153,3.36914062 285.897879,3.61328125 284.335379,4.04296875 C282.753348,4.53125 281.268973,5.14648438 279.882254,5.88867188 C277.558036,7.02148438 275.507254,8.34960938 273.729911,9.87304688 L273.729911,9.87304688 L272.206473,11.8359375 C271.249442,13.4179688 270.663504,14.8535156 270.448661,16.1425781 L270.448661,16.1425781 L270.36077,17.34375 C270.536551,18.8476562 271.181083,19.8535156 272.294364,20.3613281 C273.309989,20.8300781 274.638114,21.1132812 276.278739,21.2109375 C277.880301,21.25 279.276786,21.2597656 280.468192,21.2402344 L280.468192,21.2402344 L282.460379,21.2402344 C283.964286,21.1425781 285.097098,21.0351562 285.858817,20.9179688 L285.858817,20.9179688 L286.825614,20.7714844 C286.395926,21.0449219 285.849051,21.4160156 285.184989,21.8847656 C284.384208,22.4316406 283.583426,22.9394531 282.782645,23.4082031 C280.98577,24.4824219 279.848075,25.1708984 279.369559,25.4736328 C278.891044,25.7763672 278.456473,26.0742188 278.065848,26.3671875 C277.675223,26.6601562 277.025809,27.1289062 276.117606,27.7734375 C275.209403,28.4179688 274.017997,29.3261719 272.543387,30.4980469 C271.068778,31.6699219 270.038504,32.5634766 269.452567,33.1787109 C268.866629,33.7939453 268.266044,34.4628906 267.650809,35.1855469 C267.035575,35.9082031 266.337333,36.875 265.556083,38.0859375 C265.184989,38.7109375 264.89202,39.5605469 264.677176,40.6347656 C264.677176,42.0214844 265.106864,43.0957031 265.966239,43.8574219 C267.099051,44.4628906 268.847098,44.8144531 271.210379,44.9121094 Z M299.401507,45.0878906 C300.807757,45.1660156 302.42885,45.0439453 304.264788,44.7216797 C306.100725,44.3994141 307.858538,43.8671875 309.538225,43.125 C311.217913,42.3828125 312.746233,41.5185547 314.123186,40.5322266 C315.50014,39.5458984 316.720843,38.4375 317.785296,37.2070312 C318.849749,35.9765625 319.523577,34.9316406 319.80678,34.0722656 C320.089983,33.2128906 320.046038,32.3974609 319.674944,31.6259766 C319.30385,30.8544922 318.893694,30.234375 318.444475,29.765625 C317.995257,29.296875 317.433733,28.7744141 316.759905,28.1982422 C316.086077,27.6220703 315.422015,27.0751953 314.767718,26.5576172 C314.113421,26.0400391 313.161272,25.234375 311.911272,24.140625 C310.661272,23.046875 309.479632,21.7724609 308.36635,20.3173828 C307.253069,18.8623047 306.486468,17.6171875 306.066546,16.5820312 C305.646624,15.546875 305.534319,14.3164062 305.729632,12.890625 C305.924944,11.4648437 306.657366,10.1220703 307.926897,8.86230469 C309.196429,7.60253906 311.007952,6.58203125 313.361468,5.80078125 C315.714983,5.01953125 317.96596,4.58496094 320.114397,4.49707031 C322.262835,4.40917969 323.766741,4.87304687 324.626116,5.88867187 C325.93471,6.86523437 326.383929,8.26171875 325.973772,10.078125 C325.036272,11.9726562 323.2101,13.90625 320.495257,15.8789062 C320.495257,16.0742188 320.749163,16.09375 321.256975,15.9375 C322.682757,15.4492187 323.952288,14.5800781 325.065569,13.3300781 C326.17885,12.0800781 326.87221,11.1425781 327.145647,10.5175781 C327.829241,9.63867187 328.00014,8.60351562 327.658343,7.41210937 C327.316546,6.22070312 326.510882,5.19042969 325.24135,4.32128906 C323.971819,3.45214844 322.2726,3.02734375 320.143694,3.046875 C318.014788,3.06640625 316.09096,3.33007812 314.37221,3.83789062 C312.65346,4.34570312 311.159319,4.92675781 309.889788,5.58105469 C308.620257,6.23535156 307.614397,6.90429687 306.87221,7.58789062 C306.130022,8.27148437 305.509905,8.99902344 305.011858,9.77050781 C304.513811,10.5419922 304.196429,11.5087891 304.05971,12.6708984 C303.922991,13.8330078 304.054827,15.1855469 304.455218,16.7285156 C304.855608,18.2714844 305.65639,19.7558594 306.857561,21.1816406 C308.058733,22.6074219 309.391741,23.9746094 310.856585,25.2832031 C313.317522,27.3925781 315.109515,28.9208984 316.232561,29.8681641 C317.355608,30.8154297 317.917132,31.7773438 317.917132,32.7539062 C317.917132,33.7304688 317.238421,35.0341797 315.880999,36.6650391 C314.523577,38.2958984 312.492327,39.7851562 309.787249,41.1328125 C307.082171,42.4804688 304.347796,43.2373047 301.584124,43.4033203 C298.820452,43.5693359 296.510882,43.28125 294.655413,42.5390625 C294.30385,41.7578125 293.981585,41.2792969 293.688616,41.1035156 C293.395647,40.8886719 293.224749,40.9033203 293.175921,41.1474609 C293.127093,41.3916016 293.107561,41.7773438 293.117327,42.3046875 C293.127093,42.8320312 293.385882,43.3349609 293.893694,43.8134766 C294.401507,44.2919922 295.094866,44.6044922 295.973772,44.7509766 C296.852679,44.8974609 297.995257,45.0097656 299.401507,45.0878906 Z M329.555525,45.0878906 C330.961775,45.1660156 332.582868,45.0439453 334.418806,44.7216797 C336.254743,44.3994141 338.012556,43.8671875 339.692243,43.125 C341.371931,42.3828125 342.900251,41.5185547 344.277204,40.5322266 C345.654157,39.5458984 346.874861,38.4375 347.939314,37.2070312 C349.003767,35.9765625 349.677595,34.9316406 349.960798,34.0722656 C350.244001,33.2128906 350.200056,32.3974609 349.828962,31.6259766 C349.457868,30.8544922 349.047712,30.234375 348.598493,29.765625 C348.149275,29.296875 347.587751,28.7744141 346.913923,28.1982422 C346.240095,27.6220703 345.576032,27.0751953 344.921736,26.5576172 C344.267439,26.0400391 343.31529,25.234375 342.06529,24.140625 C340.81529,23.046875 339.63365,21.7724609 338.520368,20.3173828 C337.407087,18.8623047 336.640486,17.6171875 336.220564,16.5820312 C335.800642,15.546875 335.688337,14.3164062 335.88365,12.890625 C336.078962,11.4648437 336.811384,10.1220703 338.080915,8.86230469 C339.350446,7.60253906 341.16197,6.58203125 343.515486,5.80078125 C345.869001,5.01953125 348.119978,4.58496094 350.268415,4.49707031 C352.416853,4.40917969 353.920759,4.87304687 354.780134,5.88867187 C356.088728,6.86523437 356.537946,8.26171875 356.12779,10.078125 C355.19029,11.9726562 353.364118,13.90625 350.649275,15.8789062 C350.649275,16.0742188 350.903181,16.09375 351.410993,15.9375 C352.836775,15.4492187 354.106306,14.5800781 355.219587,13.3300781 C356.332868,12.0800781 357.026228,11.1425781 357.299665,10.5175781 C357.983259,9.63867187 358.154157,8.60351562 357.812361,7.41210937 C357.470564,6.22070312 356.6649,5.19042969 355.395368,4.32128906 C354.125837,3.45214844 352.426618,3.02734375 350.297712,3.046875 C348.168806,3.06640625 346.244978,3.33007812 344.526228,3.83789062 C342.807478,4.34570312 341.313337,4.92675781 340.043806,5.58105469 C338.774275,6.23535156 337.768415,6.90429687 337.026228,7.58789062 C336.28404,8.27148437 335.663923,8.99902344 335.165876,9.77050781 C334.667829,10.5419922 334.350446,11.5087891 334.213728,12.6708984 C334.077009,13.8330078 334.208845,15.1855469 334.609236,16.7285156 C335.009626,18.2714844 335.810407,19.7558594 337.011579,21.1816406 C338.212751,22.6074219 339.545759,23.9746094 341.010603,25.2832031 C343.47154,27.3925781 345.263532,28.9208984 346.386579,29.8681641 C347.509626,30.8154297 348.07115,31.7773438 348.07115,32.7539062 C348.07115,33.7304688 347.392439,35.0341797 346.035017,36.6650391 C344.677595,38.2958984 342.646345,39.7851562 339.941267,41.1328125 C337.236189,42.4804688 334.501814,43.2373047 331.738142,43.4033203 C328.97447,43.5693359 326.6649,43.28125 324.809431,42.5390625 C324.457868,41.7578125 324.135603,41.2792969 323.842634,41.1035156 C323.549665,40.8886719 323.378767,40.9033203 323.329939,41.1474609 C323.281111,41.3916016 323.261579,41.7773438 323.271345,42.3046875 C323.281111,42.8320312 323.5399,43.3349609 324.047712,43.8134766 C324.555525,44.2919922 325.248884,44.6044922 326.12779,44.7509766 C327.006696,44.8974609 328.149275,45.0097656 329.555525,45.0878906 Z" id="DAISYDRESS" fill="#000000" fill-rule="nonzero"></path>
    </g>
</svg>