<?xml version="1.0" encoding="UTF-8"?>
<svg width="365px" height="58px" viewBox="0 0 365 58" version="1.1" xmlns="http://www.w3.org/2000/svg" xmlns:xlink="http://www.w3.org/1999/xlink">
    <title>HOLLYDRESS</title>
    <g id="final-copy" stroke="none" stroke-width="1" fill="none" fill-rule="evenodd">
        <path d="M27.5980469,57.1243896 L27.6425781,57.1152344 C28.8535156,55.6308594 29.8398437,53.4628906 30.6015625,50.6113281 C31.3632812,47.7597656 32.046875,45.1816406 32.6523438,42.8769531 C33.2578125,40.5722656 33.765625,38.5361328 34.1757812,36.7685547 C34.5859375,35.0009766 35.25,32.2714844 36.1679688,28.5800781 C38.7460938,28.2480469 40.2695312,27.8769531 40.7382812,27.4667969 C41.2070312,27.0566406 40.9335938,26.6953125 39.9179688,26.3828125 L39.9179688,26.3828125 L36.6953125,26.6171875 C37.75,22.90625 38.6533203,19.9033203 39.4052734,17.6083984 C40.1572266,15.3134766 41.0019531,12.7695312 41.9394531,9.9765625 C43.3847656,5.89453125 44.4541016,3.55566406 45.1474609,2.95996094 C45.8408203,2.36425781 46.1435547,1.81738281 46.0556641,1.31933594 C45.9677734,0.821289062 45.5722656,0.650390625 44.8691406,0.806640625 C44.1660156,0.962890625 43.5556641,1.39746094 43.0380859,2.11035156 C42.5205078,2.82324219 41.9296875,3.90234375 41.265625,5.34765625 C40.5625,7.26171875 39.2636719,11.0605469 37.3691406,16.7441406 C36.0605469,20.7285156 35.0253906,24.0878906 34.2636719,26.8222656 C29.2050781,27.5058594 24.5664062,28.21875 20.3476562,28.9609375 C21.421875,26.3046875 22.0322266,24.1513672 22.1787109,22.5009766 C22.3251953,20.8505859 22.1542969,19.7128906 21.6660156,19.0878906 C21.1777344,18.4628906 20.8261719,18.1503906 20.6113281,18.1503906 C19.9472656,18.2675781 19.7666016,18.6972656 20.0693359,19.4394531 C20.3720703,20.1816406 20.3720703,21.3339844 20.0693359,22.8964844 C19.7666016,24.4589844 19.0683594,26.6269531 17.9746094,29.4003906 C15.0430618,30.0849144 12.6217182,30.6844042 10.7105788,31.19886 L10.0178173,31.387795 C9.68339445,31.4802695 9.36690848,31.5697545 9.06835938,31.65625 C6.97851562,32.2617188 5.04492188,33.0136719 3.26757812,33.9121094 C1.49023438,34.8105469 0.38671875,35.7675781 -0.04296875,36.7832031 C0.07421875,37.1347656 0.34765625,37.3105469 0.77734375,37.3105469 L0.77734375,37.3105469 L3.56054688,35.9628906 C7.81835938,34.0097656 12.3691406,32.6035156 17.2128906,31.7441406 C16.4707031,33.9121094 15.9140625,35.4208984 15.5429688,36.2705078 C15.171875,37.1201172 14.8056641,38.0136719 14.4443359,38.9511719 C14.0830078,39.8886719 13.9169922,40.9042969 13.9462891,41.9980469 C13.9755859,43.0917969 14.1464844,43.6386719 14.4589844,43.6386719 C16.0214844,41.4511719 17.2861328,39.6445312 18.2529297,38.21875 C19.2197266,36.7929688 19.1953125,36.2070312 18.1796875,36.4609375 L18.1796875,36.4609375 L17.4765625,36.7832031 C18.375,34.3222656 19.0878906,32.4375 19.6152344,31.1289062 C24.4785156,30.2109375 29.234375,29.4394531 33.8828125,28.8144531 C33.140625,31.8222656 32.4277344,34.625 31.7441406,37.2226562 C30.7480469,41.6171875 29.3808594,47.5644531 27.6425781,55.0644531 C27.3300781,56.5292969 27.3300781,57.2128906 27.6425781,57.1152344 L27.5980469,57.1243896 Z M54.7747807,49.0258636 L55.2477679,49.0146484 C56.9860491,48.9462891 58.6462054,48.5605469 60.2282366,47.8574219 C61.8102679,47.1542969 63.2555804,46.34375 64.5641741,45.4257812 C65.8727679,44.5078125 67.0202288,43.5263672 68.0065569,42.4814453 C68.992885,41.4365234 70.0036272,40.0986328 71.0387835,38.4677734 C72.0739397,36.8369141 73.0260882,35.0742188 73.8952288,33.1796875 C74.7643694,31.2851562 75.4333147,29.4394531 75.9020647,27.6425781 C76.3708147,25.8457031 76.5758929,24.2050781 76.5172991,22.7207031 C76.4587054,21.2363281 76.2926897,19.8447266 76.0192522,18.5458984 C75.7458147,17.2470703 75.3307757,16.0166016 74.774135,14.8544922 C74.2174944,13.6923828 73.5387835,12.6328125 72.7380022,11.6757812 C71.937221,10.71875 70.9362444,9.84960938 69.7350725,9.06835938 C68.5339007,8.28710938 67.6745257,7.81347656 67.1569475,7.64746094 C66.6393694,7.48144531 66.0046038,7.359375 65.2526507,7.28125 C64.5006975,7.203125 63.7926897,7.17382812 63.1286272,7.19335938 C62.484096,7.21289062 61.5514788,7.48632812 60.3307757,8.01367188 C59.1100725,8.54101562 57.8307757,9.34667969 56.492885,10.4306641 C55.1549944,11.5146484 53.5143694,13.4433594 51.57101,16.2167969 C49.6276507,18.9902344 48.1383929,21.6269531 47.1032366,24.1269531 C46.0680804,26.6269531 45.3307757,28.8193359 44.8913225,30.7041016 C44.4518694,32.5888672 44.1637835,34.2685547 44.0270647,35.7431641 C43.890346,37.2177734 43.9098772,38.8828125 44.0856585,40.7382812 C44.3981585,42.3789062 45.0768694,43.9072266 46.1217913,45.3232422 C47.1667132,46.7392578 48.5143694,47.7255859 50.16476,48.2822266 C51.8151507,48.8388672 53.5094866,49.0830078 55.2477679,49.0146484 L54.7747807,49.0258636 Z M56.72726,46.9931641 C55.7604632,47.2568359 54.593471,47.28125 53.2262835,47.0664062 C51.859096,46.8515625 50.7067522,46.5048828 49.7692522,46.0263672 C48.8317522,45.5478516 48.0505022,44.8789062 47.4255022,44.0195312 C46.8005022,43.1601562 46.3317522,42.1640625 46.0192522,41.03125 C45.7067522,39.8984375 45.6823382,38.2773438 45.94601,36.1679688 C46.2096819,34.0585938 46.6149554,32.0810547 47.1618304,30.2353516 C47.7087054,28.3896484 48.3092913,26.6708984 48.9635882,25.0791016 C49.617885,23.4873047 50.8337054,21.2753906 52.6110491,18.4433594 C54.3883929,15.6113281 56.0192522,13.5605469 57.5036272,12.2910156 C58.9880022,11.0214844 60.2526507,10.1962891 61.2975725,9.81542969 C62.3424944,9.43457031 63.5290179,9.28320312 64.8571429,9.36132812 C66.2047991,9.41992188 67.4450335,10.2011719 68.577846,11.7050781 C68.6364397,11.7050781 68.734096,11.6904297 68.8708147,11.6611328 C69.0075335,11.6318359 69.1344866,11.5292969 69.2516741,11.3535156 L69.2516741,11.3535156 L69.2223772,10.7382812 C71.4489397,12.9648438 72.8356585,14.8398438 73.3825335,16.3632812 C73.9294085,17.8867188 74.305385,19.3564453 74.5104632,20.7724609 C74.7155413,22.1884766 74.6227679,23.8730469 74.2321429,25.8261719 C73.8415179,27.7792969 73.2067522,29.7519531 72.327846,31.7441406 C71.4489397,33.7363281 70.399135,35.6943359 69.1784319,37.6181641 C67.9577288,39.5419922 66.6930804,41.0556641 65.3844866,42.1591797 C64.0758929,43.2626953 62.5475725,44.2783203 60.7995257,45.2060547 C59.0514788,46.1337891 57.6940569,46.7294922 56.72726,46.9931641 Z M81.2416295,47.7695312 C82.5697545,48.84375 84.3422154,49.2880859 86.5590123,49.1025391 C88.7758092,48.9169922 90.7240513,48.609375 92.4037388,48.1796875 L92.4037388,48.1796875 L94.5717076,47.7988281 L97.6185826,47.1835938 L105.880301,45.6601562 L106.583426,45.25 C106.309989,44.8984375 104.815848,44.8251953 102.101004,45.0302734 C99.3861607,45.2353516 97.3597935,45.4453125 96.0219029,45.6601562 C94.6840123,45.875 93.2631138,46.1435547 91.7592076,46.4658203 C90.2553013,46.7880859 88.8490513,47.0322266 87.5404576,47.1982422 C86.2318638,47.3642578 85.1478795,47.3740234 84.2885045,47.2275391 C83.4291295,47.0810547 82.7308873,46.6123047 82.1937779,45.8212891 C81.6566685,45.0302734 81.6615513,43.140625 82.2084263,40.1523438 C82.7553013,37.1640625 84.117606,33.2431641 86.2953404,28.3896484 C88.4730748,23.5361328 90.2357701,19.5078125 91.5834263,16.3046875 C92.9310826,13.1015625 94.1810826,10.484375 95.3334263,8.453125 C94.1615513,6.28515625 93.233817,6.32421875 92.5502232,8.5703125 C92.2767857,9.60546875 91.3148717,11.9541016 89.664481,15.6162109 C88.0140904,19.2783203 86.1097935,23.6240234 83.9515904,28.6533203 C81.7933873,33.6826172 80.5385045,37.5449219 80.186942,40.2402344 C79.8353795,42.9355469 79.8304967,44.7714844 80.1722935,45.7480469 C80.5140904,46.7246094 80.8705357,47.3984375 81.2416295,47.7695312 Z M111.424944,47.7695312 C112.753069,48.84375 114.52553,49.2880859 116.742327,49.1025391 C118.959124,48.9169922 120.907366,48.609375 122.587054,48.1796875 L122.587054,48.1796875 L124.755022,47.7988281 L127.801897,47.1835938 L136.063616,45.6601562 L136.766741,45.25 C136.493304,44.8984375 134.999163,44.8251953 132.284319,45.0302734 C129.569475,45.2353516 127.543108,45.4453125 126.205218,45.6601562 C124.867327,45.875 123.446429,46.1435547 121.942522,46.4658203 C120.438616,46.7880859 119.032366,47.0322266 117.723772,47.1982422 C116.415179,47.3642578 115.331194,47.3740234 114.471819,47.2275391 C113.612444,47.0810547 112.914202,46.6123047 112.377093,45.8212891 C111.839983,45.0302734 111.844866,43.140625 112.391741,40.1523438 C112.938616,37.1640625 114.300921,33.2431641 116.478655,28.3896484 C118.65639,23.5361328 120.419085,19.5078125 121.766741,16.3046875 C123.114397,13.1015625 124.364397,10.484375 125.516741,8.453125 C124.344866,6.28515625 123.417132,6.32421875 122.733538,8.5703125 C122.4601,9.60546875 121.498186,11.9541016 119.847796,15.6162109 C118.197405,19.2783203 116.293108,23.6240234 114.134905,28.6533203 C111.976702,33.6826172 110.721819,37.5449219 110.370257,40.2402344 C110.018694,42.9355469 110.013811,44.7714844 110.355608,45.7480469 C110.697405,46.7246094 111.05385,47.3984375 111.424944,47.7695312 Z M139.572126,51.6074219 C139.210798,52.5253906 139.376814,52.7207031 140.070173,52.1933594 C140.763532,51.6660156 141.437361,50.8164062 142.091657,49.6445312 C142.745954,48.4726562 143.390486,47.3056641 144.025251,46.1435547 C144.660017,44.9814453 145.763532,42.9160156 147.335798,39.9472656 C148.908064,36.9785156 150.870954,33.3847656 153.22447,29.1660156 C155.577986,24.9472656 157.711775,21.0361328 159.625837,17.4326172 C161.5399,13.8291016 162.975446,11.1044922 163.932478,9.25878906 C164.889509,7.41308594 165.2899,6.12890625 165.13365,5.40625 C164.9774,4.68359375 164.684431,4.234375 164.254743,4.05859375 C163.844587,3.8828125 163.307478,4.16113281 162.643415,4.89355469 C161.979353,5.62597656 161.403181,6.40722656 160.9149,7.23730469 C160.426618,8.06738281 159.996931,9.06347656 159.625837,10.2255859 C159.254743,11.3876953 158.956892,12.3935547 158.732282,13.2431641 C158.507673,14.0927734 157.921736,14.9375 156.97447,15.7773438 C156.027204,16.6171875 154.835798,17.5400391 153.400251,18.5458984 C151.964704,19.5517578 150.621931,20.3134766 149.371931,20.8310547 C148.121931,21.3486328 147.262556,21.4169922 146.793806,21.0361328 C146.325056,20.6552734 145.875837,19.7226562 145.44615,18.2382812 C145.035993,16.3828125 144.78697,15.1474609 144.699079,14.5322266 C144.611189,13.9169922 144.459821,13.3212891 144.244978,12.7451172 C144.030134,12.1689453 143.65904,11.7685547 143.131696,11.5439453 C142.604353,11.3193359 142.243025,11.4902344 142.047712,12.0566406 C142.379743,12.3886719 142.682478,13.3457031 142.955915,14.9277344 C143.619978,18.5410156 144.332868,20.8652344 145.094587,21.9003906 C145.856306,22.9355469 146.774275,23.375 147.848493,23.21875 C148.922712,23.0625 150.499861,22.3886719 152.579939,21.1972656 C154.660017,20.0058594 156.344587,18.6875 157.63365,17.2421875 C148.300837,34.309375 142.866493,44.3699062 141.330618,47.4237812 L141.231941,47.6211426 C141.077546,47.9319824 140.973493,48.1523438 140.919782,48.2822266 C140.382673,49.5810547 139.933454,50.6894531 139.572126,51.6074219 Z M160.9149,11.5 C161.520368,9.64453125 162.262556,8.07226562 163.141462,6.78320312 C163.200056,7.21289062 162.457868,8.78515625 160.9149,11.5 Z M199.492188,47.7695312 C199.316406,48.7265625 199.438477,49.1367188 199.858398,49 C200.27832,48.8632812 200.605469,48.3847656 200.839844,47.5644531 C202.792969,47.2128906 204.794922,46.6953125 206.845703,46.0117188 C208.896484,45.328125 210.786133,44.6640625 212.514648,44.0195312 C214.243164,43.375 215.546875,42.8378906 216.425781,42.4082031 C217.304688,41.9785156 218.989258,40.9824219 221.479492,39.4199219 C223.969727,37.8574219 226.064453,36.0556641 227.763672,34.0146484 C229.462891,31.9736328 230.439453,29.9423828 230.693359,27.9208984 C230.947266,25.8994141 230.805664,24.0439453 230.268555,22.3544922 C229.731445,20.6650391 228.867188,18.9365234 227.675781,17.1689453 C226.484375,15.4013672 224.990234,13.8486328 223.193359,12.5107422 C221.396484,11.1728516 219.541016,10.0888672 217.626953,9.25878906 C215.712891,8.42871094 214.09668,7.89160156 212.77832,7.64746094 C211.459961,7.40332031 209.521484,7.203125 206.962891,7.046875 C204.423828,6.87109375 201.860352,6.98828125 199.272461,7.3984375 C196.68457,7.80859375 194.780273,8.25292969 193.55957,8.73144531 C192.338867,9.20996094 191.269531,9.83007812 190.351563,10.5917969 C189.433594,11.3535156 189.0625,12.4277344 189.238281,13.8144531 C189.492188,14.8496094 190.073242,15.5087891 190.981445,15.7919922 C191.889648,16.0751953 192.084961,15.7529297 191.567383,14.8251953 C191.049805,13.8974609 190.957031,13.21875 191.289063,12.7890625 C192.1875,11.8710938 193.037109,11.2265625 193.837891,10.8554688 C194.638672,10.484375 195.795898,10.1181641 197.30957,9.75683594 C198.823242,9.39550781 200.605469,9.14160156 202.65625,8.99511719 C204.707031,8.84863281 206.660156,8.86816406 208.515625,9.05371094 C210.371094,9.23925781 212.490234,9.67871094 214.873047,10.3720703 C217.255859,11.0654297 219.53125,12.2861328 221.699219,14.0341797 C223.867188,15.7822266 225.458984,17.5644531 226.474609,19.3808594 C227.490234,21.1972656 228.125,22.7304688 228.378906,23.9804688 C228.632813,25.2304688 228.696289,26.5439453 228.569336,27.9208984 C228.442383,29.2978516 227.807617,30.6894531 226.665039,32.0957031 C225.522461,33.5019531 224.311523,34.7470703 223.032227,35.8310547 C221.75293,36.9150391 220.361328,37.9208984 218.857422,38.8486328 C217.353516,39.7763672 215.268555,40.8115234 212.602539,41.9541016 C209.936523,43.0966797 206.220703,44.3515625 201.455078,45.71875 C202.197266,42.5546875 202.792969,39.9277344 203.242188,37.8378906 C203.691406,35.7480469 204.125977,33.7021484 204.545898,31.7001953 C204.96582,29.6982422 205.405273,27.5546875 205.864258,25.2695312 C206.323242,22.984375 206.875,20.5185547 207.519531,17.8720703 C208.164063,15.2255859 208.154297,13.5654297 207.490234,12.8916016 C206.826172,12.2177734 206.381836,12.2861328 206.157227,13.0966797 C205.932617,13.9072266 205.585938,15.4746094 205.117188,17.7988281 C204.648438,20.1230469 204.189453,22.359375 203.740234,24.5078125 C203.291016,26.65625 202.866211,28.7802734 202.46582,30.8798828 C202.06543,32.9794922 201.606445,35.4355469 201.088867,38.2480469 C200.571289,41.0605469 200.15625,43.6289062 199.84375,45.953125 C197.148438,46.265625 194.868164,46.3046875 193.00293,46.0703125 C191.137695,45.8359375 190.595703,46.0263672 191.376953,46.6416016 C192.158203,47.2568359 192.988281,47.6279297 193.867188,47.7548828 C194.746094,47.8818359 195.595703,47.9306641 196.416016,47.9013672 C197.236328,47.8720703 198.261719,47.828125 199.492188,47.7695312 Z M239.343471,52.4863281 C239.695034,52.3300781 239.929409,52.1787109 240.046596,52.0322266 C240.163784,51.8857422 240.34933,51.5292969 240.603237,50.9628906 C241.364955,47.6621094 241.936244,44.8496094 242.317104,42.5253906 C242.697963,40.2011719 242.961635,38.5947266 243.108119,37.7060547 C243.254604,36.8173828 243.552455,34.7519531 244.001674,31.5097656 C248.044643,34.4589844 250.915737,36.7001953 252.614955,38.2333984 C254.314174,39.7666016 256.648159,41.5830078 259.616909,43.6826172 C262.585659,45.7822266 265.554409,47.2617188 268.523159,48.1210938 C269.753627,48.21875 269.831752,47.9355469 268.757534,47.2714844 C267.956752,46.9980469 266.784877,46.4072266 265.241909,45.4990234 C263.69894,44.5908203 261.765346,43.2431641 259.441127,41.4560547 C257.116909,39.6689453 254.699916,37.7451172 252.190151,35.6845703 C249.680385,33.6240234 247.038784,31.6855469 244.265346,29.8691406 C244.402065,28.9902344 244.538784,28.1894531 244.675502,27.4667969 C246.023159,27.1542969 247.76144,26.5732422 249.890346,25.7236328 C252.019252,24.8740234 253.689174,24.0878906 254.900112,23.3652344 C256.111049,22.6425781 257.278041,21.7099609 258.401088,20.5673828 C259.524135,19.4248047 260.329799,18.4335938 260.81808,17.59375 C261.306362,16.7539062 261.584682,15.9042969 261.653041,15.0449219 C261.721401,14.1855469 261.682338,13.4921875 261.535854,12.9648438 C261.389369,12.4375 261.062221,11.8125 260.554409,11.0898438 C260.046596,10.3671875 259.211635,9.68359375 258.049526,9.0390625 C256.887416,8.39453125 255.378627,7.93554688 253.523159,7.66210938 C251.66769,7.38867188 249.675502,7.23242188 247.546596,7.19335938 C247.253627,6.11914063 246.863002,5.53320313 246.374721,5.43554688 C245.88644,5.31835938 245.691127,5.484375 245.788784,5.93359375 L245.788784,5.93359375 L245.788784,6.78320313 L245.671596,7.48632813 C244.94894,7.70117188 244.16769,7.95019531 243.327846,8.23339844 C242.488002,8.51660156 241.472377,8.99511719 240.280971,9.66894531 C239.089565,10.3427734 238.381557,10.9140625 238.156948,11.3828125 C237.932338,11.8515625 237.820034,12.2617188 237.820034,12.6132812 C237.820034,12.9648438 237.888393,13.2333984 238.025112,13.4189453 C238.16183,13.6044922 238.35226,14.0048828 238.596401,14.6201172 C238.840541,15.2353516 239.148159,15.9238281 239.519252,16.6855469 C239.909877,16.3339844 240.027065,15.9287109 239.870815,15.4697266 C239.714565,15.0107422 239.504604,14.3955078 239.240932,13.6240234 C238.97726,12.8525391 239.157924,12.2128906 239.782924,11.7050781 C240.407924,11.1972656 241.047573,10.7724609 241.701869,10.4306641 C242.356166,10.0888672 243.640346,9.63476562 245.554409,9.06835938 C244.968471,12.7988281 244.577846,15.2060547 244.382534,16.2900391 C244.187221,17.3740234 243.97726,18.6923828 243.752651,20.2451172 C243.528041,21.7978516 243.259487,23.7265625 242.946987,26.03125 C241.267299,26.3632812 239.934291,26.5830078 238.947963,26.6904297 C237.961635,26.7978516 237.014369,26.8710938 236.106166,26.9101562 C235.197963,26.9492188 234.753627,27.1542969 234.773159,27.5253906 C234.79269,27.8964844 235.017299,28.3457031 235.446987,28.8730469 C235.954799,28.8730469 236.51144,28.8242188 237.116909,28.7265625 C238.07394,28.7265625 239.128627,28.9707031 240.280971,29.4589844 L240.280971,29.4589844 L242.214565,30.484375 C241.706752,34.2734375 241.228237,37.5253906 240.779018,40.2402344 C240.329799,42.9550781 239.919643,45.25 239.548549,47.125 C239.177455,49 238.85519,50.5820312 238.581752,51.8710938 L238.581752,51.8710938 L239.079799,52.4863281 L239.343471,52.4863281 Z M245.027065,25.4453125 C245.300502,23.609375 245.520229,22.1152344 245.686244,20.9628906 C245.85226,19.8105469 246.047573,18.4482422 246.272182,16.8759766 C246.328334,16.4829102 246.381435,16.1112061 246.431484,15.7608643 L246.572475,14.7739258 C246.660366,14.1586914 246.736049,13.6289063 246.799526,13.1845703 C246.926479,12.2958984 247.146205,10.8652344 247.458705,8.89257813 C248.884487,8.75585938 250.456752,8.8046875 252.175502,9.0390625 C253.894252,9.2734375 255.178432,9.52734375 256.028041,9.80078125 C256.877651,10.0742188 257.771205,10.5039063 258.708705,11.0898438 C259.56808,12.1445313 260.03683,12.9501953 260.114955,13.5068359 C260.19308,14.0634766 260.10519,14.7373047 259.851284,15.5283203 C259.597377,16.3193359 259.065151,17.1933594 258.254604,18.1503906 C257.444057,19.1074219 256.462612,20.0205078 255.310268,20.8896484 C254.157924,21.7587891 252.668666,22.5986328 250.842494,23.4091797 C249.016323,24.2197266 247.077846,24.8984375 245.027065,25.4453125 Z M242.53683,28.7558594 C242.243862,28.5996094 241.853237,28.4335938 241.364955,28.2578125 C241.794643,28.1601562 242.22433,28.0527344 242.654018,27.9355469 L242.654018,27.9355469 L242.53683,28.7558594 Z M277.319754,48.9121094 C279.683036,49.0097656 282.368583,49.0097656 285.376395,48.9121094 C289.477958,48.4824219 293.345145,47.4863281 296.977958,45.9238281 C297.64202,45.4941406 297.280692,45.3476562 295.893973,45.484375 C293.589286,45.7773438 291.587333,46.0996094 289.888114,46.4511719 C288.188895,46.8027344 285.327567,47.125 281.304129,47.4179688 C278.237723,47.3789062 276.328544,47.3007812 275.57659,47.1835938 C274.824637,47.0664062 274.136161,46.9199219 273.511161,46.7441406 C272.632254,46.1386719 272.309989,45.3574219 272.544364,44.4003906 L272.544364,44.4003906 L272.925223,43.4921875 C273.491629,42.6132812 273.955497,41.9394531 274.316825,41.4707031 C274.678153,41.0019531 275.376395,40.1914062 276.411551,39.0390625 C277.505301,37.9648438 278.726004,36.8417969 280.073661,35.6699219 C281.421317,34.7128906 282.48577,33.9121094 283.26702,33.2675781 C284.04827,32.6230469 284.917411,31.9882812 285.874442,31.3632812 C287.222098,30.5429688 288.472098,29.7128906 289.624442,28.8730469 C290.874442,27.9746094 292.290458,27.0859375 293.872489,26.2070312 C294.653739,25.7773438 295.122489,25.2988281 295.278739,24.7714844 C295.200614,24.0292969 294.839286,23.5800781 294.194754,23.4238281 C293.569754,23.3847656 292.983817,23.4042969 292.436942,23.4824219 C291.343192,23.5605469 290.151786,23.6875 288.862723,23.8632812 L288.862723,23.8632812 L286.226004,23.9804688 C284.292411,23.9609375 282.915458,23.9023438 282.095145,23.8046875 C281.274833,23.7070312 280.376395,23.5117188 279.399833,23.21875 C278.520926,22.6914062 278.061942,22.0810547 278.022879,21.3876953 C277.983817,20.6943359 278.184012,19.8984375 278.623465,19 C279.062919,18.1015625 279.849051,16.9833984 280.981864,15.6455078 C282.114676,14.3076172 283.433036,13.2382812 284.936942,12.4375 C287.007254,11.265625 288.682059,10.4648438 289.961356,10.0351562 C291.240653,9.60546875 292.422294,9.28808594 293.506278,9.08300781 C294.590262,8.87792969 295.679129,8.78515625 296.772879,8.8046875 C298.237723,8.765625 299.116629,9.2734375 299.409598,10.328125 C299.643973,11.3046875 299.966239,11.7929688 300.376395,11.7929688 C300.532645,11.734375 300.698661,11.4902344 300.874442,11.0605469 L300.874442,11.0605469 L300.874442,9.859375 C300.776786,9.25390625 300.586356,8.78027344 300.303153,8.43847656 C300.01995,8.09667969 299.663504,7.81835938 299.233817,7.60351562 L299.233817,7.60351562 L297.651786,7.046875 L295.893973,7.046875 C294.819754,7.1640625 294.033622,7.25195312 293.535575,7.31054688 C293.037528,7.36914062 292.007254,7.61328125 290.444754,8.04296875 C288.862723,8.53125 287.378348,9.14648438 285.991629,9.88867188 C283.667411,11.0214844 281.616629,12.3496094 279.839286,13.8730469 L279.839286,13.8730469 L278.315848,15.8359375 C277.358817,17.4179688 276.772879,18.8535156 276.558036,20.1425781 L276.558036,20.1425781 L276.470145,21.34375 C276.645926,22.8476562 277.290458,23.8535156 278.403739,24.3613281 C279.419364,24.8300781 280.747489,25.1132812 282.388114,25.2109375 C283.989676,25.25 285.386161,25.2597656 286.577567,25.2402344 L286.577567,25.2402344 L288.569754,25.2402344 C290.073661,25.1425781 291.206473,25.0351562 291.968192,24.9179688 L291.968192,24.9179688 L292.934989,24.7714844 C292.505301,25.0449219 291.958426,25.4160156 291.294364,25.8847656 C290.493583,26.4316406 289.692801,26.9394531 288.89202,27.4082031 C287.095145,28.4824219 285.95745,29.1708984 285.478934,29.4736328 C285.000419,29.7763672 284.565848,30.0742188 284.175223,30.3671875 C283.784598,30.6601562 283.135184,31.1289062 282.226981,31.7734375 C281.318778,32.4179688 280.127372,33.3261719 278.652762,34.4980469 C277.178153,35.6699219 276.147879,36.5634766 275.561942,37.1787109 C274.976004,37.7939453 274.375419,38.4628906 273.760184,39.1855469 C273.14495,39.9082031 272.446708,40.875 271.665458,42.0859375 C271.294364,42.7109375 271.001395,43.5605469 270.786551,44.6347656 C270.786551,46.0214844 271.216239,47.0957031 272.075614,47.8574219 C273.208426,48.4628906 274.956473,48.8144531 277.319754,48.9121094 Z M305.510882,49.0878906 C306.917132,49.1660156 308.538225,49.0439453 310.374163,48.7216797 C312.2101,48.3994141 313.967913,47.8671875 315.6476,47.125 C317.327288,46.3828125 318.855608,45.5185547 320.232561,44.5322266 C321.609515,43.5458984 322.830218,42.4375 323.894671,41.2070312 C324.959124,39.9765625 325.632952,38.9316406 325.916155,38.0722656 C326.199358,37.2128906 326.155413,36.3974609 325.784319,35.6259766 C325.413225,34.8544922 325.003069,34.234375 324.55385,33.765625 C324.104632,33.296875 323.543108,32.7744141 322.86928,32.1982422 C322.195452,31.6220703 321.53139,31.0751953 320.877093,30.5576172 C320.222796,30.0400391 319.270647,29.234375 318.020647,28.140625 C316.770647,27.046875 315.589007,25.7724609 314.475725,24.3173828 C313.362444,22.8623047 312.595843,21.6171875 312.175921,20.5820312 C311.755999,19.546875 311.643694,18.3164063 311.839007,16.890625 C312.034319,15.4648438 312.766741,14.1220703 314.036272,12.8623047 C315.305804,11.6025391 317.117327,10.5820313 319.470843,9.80078125 C321.824358,9.01953125 324.075335,8.58496094 326.223772,8.49707031 C328.37221,8.40917969 329.876116,8.87304688 330.735491,9.88867188 C332.044085,10.8652344 332.493304,12.2617188 332.083147,14.078125 C331.145647,15.9726563 329.319475,17.90625 326.604632,19.8789062 C326.604632,20.0742188 326.858538,20.09375 327.36635,19.9375 C328.792132,19.4492188 330.061663,18.5800781 331.174944,17.3300781 C332.288225,16.0800781 332.981585,15.1425781 333.255022,14.5175781 C333.938616,13.6386719 334.109515,12.6035156 333.767718,11.4121094 C333.425921,10.2207031 332.620257,9.19042969 331.350725,8.32128906 C330.081194,7.45214844 328.381975,7.02734375 326.253069,7.046875 C324.124163,7.06640625 322.200335,7.33007813 320.481585,7.83789063 C318.762835,8.34570313 317.268694,8.92675781 315.999163,9.58105469 C314.729632,10.2353516 313.723772,10.9042969 312.981585,11.5878906 C312.239397,12.2714844 311.61928,12.9990234 311.121233,13.7705078 C310.623186,14.5419922 310.305804,15.5087891 310.169085,16.6708984 C310.032366,17.8330078 310.164202,19.1855469 310.564593,20.7285156 C310.964983,22.2714844 311.765765,23.7558594 312.966936,25.1816406 C314.168108,26.6074219 315.501116,27.9746094 316.96596,29.2832031 C319.426897,31.3925781 321.21889,32.9208984 322.341936,33.8681641 C323.464983,34.8154297 324.026507,35.7773438 324.026507,36.7539062 C324.026507,37.7304688 323.347796,39.0341797 321.990374,40.6650391 C320.632952,42.2958984 318.601702,43.7851562 315.896624,45.1328125 C313.191546,46.4804688 310.457171,47.2373047 307.693499,47.4033203 C304.929827,47.5693359 302.620257,47.28125 300.764788,46.5390625 C300.413225,45.7578125 300.09096,45.2792969 299.797991,45.1035156 C299.505022,44.8886719 299.334124,44.9033203 299.285296,45.1474609 C299.236468,45.3916016 299.216936,45.7773438 299.226702,46.3046875 C299.236468,46.8320312 299.495257,47.3349609 300.003069,47.8134766 C300.510882,48.2919922 301.204241,48.6044922 302.083147,48.7509766 C302.962054,48.8974609 304.104632,49.0097656 305.510882,49.0878906 Z M335.6649,49.0878906 C337.07115,49.1660156 338.692243,49.0439453 340.528181,48.7216797 C342.364118,48.3994141 344.121931,47.8671875 345.801618,47.125 C347.481306,46.3828125 349.009626,45.5185547 350.386579,44.5322266 C351.763532,43.5458984 352.984236,42.4375 354.048689,41.2070312 C355.113142,39.9765625 355.78697,38.9316406 356.070173,38.0722656 C356.353376,37.2128906 356.309431,36.3974609 355.938337,35.6259766 C355.567243,34.8544922 355.157087,34.234375 354.707868,33.765625 C354.25865,33.296875 353.697126,32.7744141 353.023298,32.1982422 C352.34947,31.6220703 351.685407,31.0751953 351.031111,30.5576172 C350.376814,30.0400391 349.424665,29.234375 348.174665,28.140625 C346.924665,27.046875 345.743025,25.7724609 344.629743,24.3173828 C343.516462,22.8623047 342.749861,21.6171875 342.329939,20.5820312 C341.910017,19.546875 341.797712,18.3164063 341.993025,16.890625 C342.188337,15.4648438 342.920759,14.1220703 344.19029,12.8623047 C345.459821,11.6025391 347.271345,10.5820313 349.624861,9.80078125 C351.978376,9.01953125 354.229353,8.58496094 356.37779,8.49707031 C358.526228,8.40917969 360.030134,8.87304688 360.889509,9.88867188 C362.198103,10.8652344 362.647321,12.2617188 362.237165,14.078125 C361.299665,15.9726563 359.473493,17.90625 356.75865,19.8789062 C356.75865,20.0742188 357.012556,20.09375 357.520368,19.9375 C358.94615,19.4492188 360.215681,18.5800781 361.328962,17.3300781 C362.442243,16.0800781 363.135603,15.1425781 363.40904,14.5175781 C364.092634,13.6386719 364.263532,12.6035156 363.921736,11.4121094 C363.579939,10.2207031 362.774275,9.19042969 361.504743,8.32128906 C360.235212,7.45214844 358.535993,7.02734375 356.407087,7.046875 C354.278181,7.06640625 352.354353,7.33007813 350.635603,7.83789063 C348.916853,8.34570313 347.422712,8.92675781 346.153181,9.58105469 C344.88365,10.2353516 343.87779,10.9042969 343.135603,11.5878906 C342.393415,12.2714844 341.773298,12.9990234 341.275251,13.7705078 C340.777204,14.5419922 340.459821,15.5087891 340.323103,16.6708984 C340.186384,17.8330078 340.31822,19.1855469 340.718611,20.7285156 C341.119001,22.2714844 341.919782,23.7558594 343.120954,25.1816406 C344.322126,26.6074219 345.655134,27.9746094 347.119978,29.2832031 C349.580915,31.3925781 351.372907,32.9208984 352.495954,33.8681641 C353.619001,34.8154297 354.180525,35.7773438 354.180525,36.7539062 C354.180525,37.7304688 353.501814,39.0341797 352.144392,40.6650391 C350.78697,42.2958984 348.75572,43.7851562 346.050642,45.1328125 C343.345564,46.4804688 340.611189,47.2373047 337.847517,47.4033203 C335.083845,47.5693359 332.774275,47.28125 330.918806,46.5390625 C330.567243,45.7578125 330.244978,45.2792969 329.952009,45.1035156 C329.65904,44.8886719 329.488142,44.9033203 329.439314,45.1474609 C329.390486,45.3916016 329.370954,45.7773438 329.38072,46.3046875 C329.390486,46.8320312 329.649275,47.3349609 330.157087,47.8134766 C330.6649,48.2919922 331.358259,48.6044922 332.237165,48.7509766 C333.116071,48.8974609 334.25865,49.0097656 335.6649,49.0878906 Z" id="HOLLYDRESS" fill="#000000" fill-rule="nonzero"></path>
    </g>
</svg>