<?xml version="1.0" encoding="UTF-8"?>
<svg width="396px" height="41px" viewBox="0 0 396 41" version="1.1" xmlns="http://www.w3.org/2000/svg" xmlns:xlink="http://www.w3.org/1999/xlink">
    <title>INDIGOGOWN</title>
    <g id="final-copy" stroke="none" stroke-width="1" fill="none" fill-rule="evenodd">
        <path d="M12.3,40 L12.3,39.45 L7.79,39.45 L7.79,2.05 L12.3,2.05 L12.3,1.5 L0.2,1.5 L0.2,2.05 L4.71,2.05 L4.71,39.45 L0.2,39.45 L0.2,40 L12.3,40 Z M47.0207143,40.11 L47.0207143,5.955 C47.0207143,4.03 48.7807143,2.05 50.5957143,2.05 L51.6957143,2.05 L51.6957143,1.5 L40.3107143,1.5 L40.3107143,2.05 L42.7857143,2.05 C44.6007143,2.05 46.4157143,4.03 46.4157143,5.955 L46.4157143,34.445 L24.7457143,1.5 L17.4857143,1.5 L17.4857143,2.05 L21.1157143,2.05 L22.2157143,3.48 L22.2157143,35.545 C22.2157143,37.525 20.4557143,39.45 18.6407143,39.45 L17.4857143,39.45 L17.4857143,40 L28.9257143,40 L28.9257143,39.45 L26.3957143,39.45 C24.6357143,39.45 22.7657143,37.47 22.7657143,35.545 L22.7657143,4.14 L46.4707143,40.11 L47.0207143,40.11 Z M72.6114286,40 C82.4014286,40 89.6064286,33.565 89.6064286,20.86 C89.6064286,7.935 82.4014286,1.5 72.6114286,1.5 L56.9364286,1.5 L56.9364286,2.05 L61.4464286,2.05 L61.4464286,39.45 L56.9364286,39.45 L56.9364286,40 L72.6114286,40 Z M72.6114286,39.45 L64.5264286,39.45 L64.5264286,2.05 L72.6114286,2.05 C81.3014286,2.05 86.1964286,8.155 86.1964286,20.86 C86.1964286,33.345 81.3014286,39.45 72.6114286,39.45 Z M109.037143,40 L109.037143,39.45 L104.527143,39.45 L104.527143,2.05 L109.037143,2.05 L109.037143,1.5 L96.9371429,1.5 L96.9371429,2.05 L101.447143,2.05 L101.447143,39.45 L96.9371429,39.45 L96.9371429,40 L109.037143,40 Z M132.482857,40.55 C137.652857,40.55 142.327857,37.415 142.987857,32.245 C143.647857,33.125 145.242857,37.8 145.242857,40.055 L145.737857,40.055 L145.737857,21.575 L149.917857,21.575 L149.917857,21.025 L133.637857,21.025 L133.637857,21.575 L142.657857,21.575 L142.657857,30.155 C142.657857,36.535 137.982857,40 132.482857,40 C123.792857,40 119.447857,33.345 119.447857,20.86 C119.447857,8.155 124.342857,1.5 133.032857,1.5 C139.632857,1.5 144.362857,6.45 145.132857,12.72 L145.682857,12.72 L145.682857,1.445 L145.242857,1.445 C145.242857,2.49 143.812857,4.305 142.492857,4.305 C142.162857,4.305 141.777857,4.195 141.502857,3.92 C139.577857,2.27 136.882857,0.95 133.032857,0.95 C123.242857,0.95 116.092857,7.935 116.092857,20.86 C116.092857,33.565 122.692857,40.55 132.482857,40.55 Z M173.253571,40.55 C183.098571,40.55 190.248571,33.565 190.248571,20.86 C190.248571,7.935 183.098571,0.95 173.253571,0.95 C163.463571,0.95 156.313571,7.935 156.313571,20.86 C156.313571,33.565 163.463571,40.55 173.253571,40.55 Z M173.253571,40 C164.563571,40 159.668571,33.345 159.668571,20.86 C159.668571,8.155 164.563571,1.5 173.253571,1.5 C181.998571,1.5 186.893571,8.155 186.893571,20.86 C186.893571,33.345 181.998571,40 173.253571,40 Z M242.655714,40.55 C247.825714,40.55 252.500714,37.415 253.160714,32.245 C253.820714,33.125 255.415714,37.8 255.415714,40.055 L255.910714,40.055 L255.910714,21.575 L260.090714,21.575 L260.090714,21.025 L243.810714,21.025 L243.810714,21.575 L252.830714,21.575 L252.830714,30.155 C252.830714,36.535 248.155714,40 242.655714,40 C233.965714,40 229.620714,33.345 229.620714,20.86 C229.620714,8.155 234.515714,1.5 243.205714,1.5 C249.805714,1.5 254.535714,6.45 255.305714,12.72 L255.855714,12.72 L255.855714,1.445 L255.415714,1.445 C255.415714,2.49 253.985714,4.305 252.665714,4.305 C252.335714,4.305 251.950714,4.195 251.675714,3.92 C249.750714,2.27 247.055714,0.95 243.205714,0.95 C233.415714,0.95 226.265714,7.935 226.265714,20.86 C226.265714,33.565 232.865714,40.55 242.655714,40.55 Z M283.426429,40.55 C293.271429,40.55 300.421429,33.565 300.421429,20.86 C300.421429,7.935 293.271429,0.95 283.426429,0.95 C273.636429,0.95 266.486429,7.935 266.486429,20.86 C266.486429,33.565 273.636429,40.55 283.426429,40.55 Z M283.426429,40 C274.736429,40 269.841429,33.345 269.841429,20.86 C269.841429,8.155 274.736429,1.5 283.426429,1.5 C292.171429,1.5 297.066429,8.155 297.066429,20.86 C297.066429,33.345 292.171429,40 283.426429,40 Z M324.307143,40 L331.842143,19.87 L339.542143,40 L340.862143,40 L355.107143,2.05 L357.857143,2.05 L357.857143,1.5 L347.352143,1.5 L347.352143,2.05 L349.717143,2.05 C351.367143,2.05 352.797143,3.425 352.797143,5.46 C352.797143,6.065 352.687143,6.725 352.412143,7.44 L341.522143,36.37 L328.322143,2.05 L332.447143,2.05 L332.447143,1.5 L322.162143,1.5 L322.162143,2.05 L325.077143,2.05 L331.457143,18.88 L324.967143,36.37 L311.767143,2.05 L316.002143,2.05 L316.002143,1.5 L305.827143,1.5 L305.827143,2.05 L308.522143,2.05 L322.987143,40 L324.307143,40 Z M390.762857,40.11 L390.762857,5.955 C390.762857,4.03 392.522857,2.05 394.337857,2.05 L395.437857,2.05 L395.437857,1.5 L384.052857,1.5 L384.052857,2.05 L386.527857,2.05 C388.342857,2.05 390.157857,4.03 390.157857,5.955 L390.157857,34.445 L368.487857,1.5 L361.227857,1.5 L361.227857,2.05 L364.857857,2.05 L365.957857,3.48 L365.957857,35.545 C365.957857,37.525 364.197857,39.45 362.382857,39.45 L361.227857,39.45 L361.227857,40 L372.667857,40 L372.667857,39.45 L370.137857,39.45 C368.377857,39.45 366.507857,37.47 366.507857,35.545 L366.507857,4.14 L390.212857,40.11 L390.762857,40.11 Z" id="INDIGOGOWN" fill="#000000" fill-rule="nonzero"></path>
    </g>
</svg>