<?xml version="1.0" encoding="UTF-8"?>
<svg width="305px" height="41px" viewBox="0 0 305 41" version="1.1" xmlns="http://www.w3.org/2000/svg" xmlns:xlink="http://www.w3.org/1999/xlink">
    <title>IRISGOWN</title>
    <g id="final-copy" stroke="none" stroke-width="1" fill="none" fill-rule="evenodd">
        <path d="M12.3,40 L12.3,39.45 L7.79,39.45 L7.79,2.05 L12.3,2.05 L12.3,1.5 L0.2,1.5 L0.2,2.05 L4.71,2.05 L4.71,39.45 L0.2,39.45 L0.2,40 L12.3,40 Z M46.2507143,40.385 C49.5507143,40.385 50.4857143,38.625 50.4857143,35.93 L50.4857143,33.51 L49.9357143,33.51 L49.9357143,35.93 C49.9357143,38.295 49.3307143,39.395 47.4607143,39.395 C45.8657143,39.395 45.3707143,38.295 45.3707143,35.985 C45.3707143,24.105 42.0707143,20.86 36.4607143,20.255 C43.6107143,19.265 46.5807143,15.855 46.5807143,10.795 C46.5807143,5.02 42.6757143,1.5 31.9507143,1.5 L17.4857143,1.5 L17.4857143,2.05 L21.9957143,2.05 L21.9957143,39.45 L17.4857143,39.45 L17.4857143,40 L30.1357143,40 L30.1357143,39.45 L25.0757143,39.45 L25.0757143,20.475 L32.3357143,20.475 C40.3657143,20.475 42.1807143,22.895 42.1807143,35.93 C42.1807143,38.68 43.6107143,40.385 46.2507143,40.385 Z M32.3357143,19.925 L25.0757143,19.925 L25.0757143,2.05 L31.3457143,2.05 C40.4207143,2.05 43.2257143,5.02 43.2257143,10.795 C43.2257143,16.515 41.1907143,19.925 32.3357143,19.925 Z M67.1114286,40 L67.1114286,39.45 L62.6014286,39.45 L62.6014286,2.05 L67.1114286,2.05 L67.1114286,1.5 L55.0114286,1.5 L55.0114286,2.05 L59.5214286,2.05 L59.5214286,39.45 L55.0114286,39.45 L55.0114286,40 L67.1114286,40 Z M87.4221429,40.55 C94.2421429,40.55 99.4671429,36.48 99.4671429,29.935 C99.4671429,21.9252299 93.3429521,20.0752563 87.3399027,18.5694717 L86.825798,18.4411118 L86.825798,18.4411118 L86.0576652,18.2499524 C85.6323881,18.1437891 85.2100051,18.0372625 84.7927921,17.9282532 L84.2947638,17.7961146 C83.882051,17.68478 83.4754187,17.5701149 83.0771429,17.45 C79.0071429,16.24 75.7621429,14.37 75.7621429,9.695 C75.7621429,4.8 79.9971429,1.5 86.0471429,1.5 C91.9321429,1.5 96.1121429,4.525 97.2671429,11.73 L97.7621429,11.73 L97.7621429,1.445 L97.2671429,1.445 C97.2671429,2.71 96.1121429,3.7 94.9571429,3.7 C94.5721429,3.7 94.1321429,3.59 93.7471429,3.26 C91.9321429,1.885 89.6221429,0.95 86.0471429,0.95 C79.2821429,0.95 74.2221429,4.745 74.2221429,11.235 C74.2221429,18.4671839 79.809704,20.0811058 85.5027773,21.5358772 L86.2911843,21.7368267 C87.9547469,22.1611725 89.6057061,22.5934483 91.1071429,23.17 C94.7921429,24.6 97.6521429,26.745 97.6521429,31.64 C97.6521429,36.59 93.5271429,40 87.4221429,40 C81.5371429,40 75.8721429,37.03 74.8271429,29.44 L74.2771429,29.44 L74.2771429,40.055 L74.7721429,40.055 C74.7721429,38.79 76.0371429,37.69 77.3021429,37.69 C77.6871429,37.69 78.1821429,37.8 78.5671429,38.075 C80.6571429,39.56 83.3521429,40.55 87.4221429,40.55 Z M151.874286,40.55 C157.044286,40.55 161.719286,37.415 162.379286,32.245 C163.039286,33.125 164.634286,37.8 164.634286,40.055 L165.129286,40.055 L165.129286,21.575 L169.309286,21.575 L169.309286,21.025 L153.029286,21.025 L153.029286,21.575 L162.049286,21.575 L162.049286,30.155 C162.049286,36.535 157.374286,40 151.874286,40 C143.184286,40 138.839286,33.345 138.839286,20.86 C138.839286,8.155 143.734286,1.5 152.424286,1.5 C159.024286,1.5 163.754286,6.45 164.524286,12.72 L165.074286,12.72 L165.074286,1.445 L164.634286,1.445 C164.634286,2.49 163.204286,4.305 161.884286,4.305 C161.554286,4.305 161.169286,4.195 160.894286,3.92 C158.969286,2.27 156.274286,0.95 152.424286,0.95 C142.634286,0.95 135.484286,7.935 135.484286,20.86 C135.484286,33.565 142.084286,40.55 151.874286,40.55 Z M192.645,40.55 C202.49,40.55 209.64,33.565 209.64,20.86 C209.64,7.935 202.49,0.95 192.645,0.95 C182.855,0.95 175.705,7.935 175.705,20.86 C175.705,33.565 182.855,40.55 192.645,40.55 Z M192.645,40 C183.955,40 179.06,33.345 179.06,20.86 C179.06,8.155 183.955,1.5 192.645,1.5 C201.39,1.5 206.285,8.155 206.285,20.86 C206.285,33.345 201.39,40 192.645,40 Z M233.525714,40 L241.060714,19.87 L248.760714,40 L250.080714,40 L264.325714,2.05 L267.075714,2.05 L267.075714,1.5 L256.570714,1.5 L256.570714,2.05 L258.935714,2.05 C260.585714,2.05 262.015714,3.425 262.015714,5.46 C262.015714,6.065 261.905714,6.725 261.630714,7.44 L250.740714,36.37 L237.540714,2.05 L241.665714,2.05 L241.665714,1.5 L231.380714,1.5 L231.380714,2.05 L234.295714,2.05 L240.675714,18.88 L234.185714,36.37 L220.985714,2.05 L225.220714,2.05 L225.220714,1.5 L215.045714,1.5 L215.045714,2.05 L217.740714,2.05 L232.205714,40 L233.525714,40 Z M299.981429,40.11 L299.981429,5.955 C299.981429,4.03 301.741429,2.05 303.556429,2.05 L304.656429,2.05 L304.656429,1.5 L293.271429,1.5 L293.271429,2.05 L295.746429,2.05 C297.561429,2.05 299.376429,4.03 299.376429,5.955 L299.376429,34.445 L277.706429,1.5 L270.446429,1.5 L270.446429,2.05 L274.076429,2.05 L275.176429,3.48 L275.176429,35.545 C275.176429,37.525 273.416429,39.45 271.601429,39.45 L270.446429,39.45 L270.446429,40 L281.886429,40 L281.886429,39.45 L279.356429,39.45 C277.596429,39.45 275.726429,37.47 275.726429,35.545 L275.726429,4.14 L299.431429,40.11 L299.981429,40.11 Z" id="IRISGOWN" fill="#000000" fill-rule="nonzero"></path>
    </g>
</svg>