<svg xmlns="http://www.w3.org/2000/svg" width="154" height="55" viewBox="0 0 154 55">
    <g fill="none" fill-rule="evenodd">
        <g fill-rule="nonzero">
            <g>
                <path fill="#000" d="M3.84 14.38c1.227 0 2.277-.313 3.15-.94.873-.627 1.31-1.553 1.31-2.78 0-.68-.17-1.293-.51-1.84-.34-.547-.767-.99-1.28-1.33-.513-.34-1.07-.687-1.67-1.04-.6-.353-1.157-.677-1.67-.97-.513-.293-.94-.663-1.28-1.11-.34-.447-.51-.983-.51-1.61 0-.627.24-1.17.72-1.63C2.58.67 3.217.44 4.01.44c.793 0 1.497.31 2.11.93.613.62.92 1.557.92 2.81l.3.08c.2-1.627.3-2.773.3-3.44C6.573.273 5.417 0 4.17 0c-1.247 0-2.247.307-3 .92C.417 1.533.04 2.357.04 3.39c0 1.033.46 1.937 1.38 2.71.4.333.847.653 1.34.96.493.307.987.603 1.48.89.493.287.94.577 1.34.87.92.68 1.38 1.453 1.38 2.32 0 .96-.293 1.663-.88 2.11-.587.447-1.34.67-2.26.67-.92 0-1.697-.34-2.33-1.02-.633-.68-.95-1.667-.95-2.96l-.3-.06C.08 11.187 0 12.267 0 13.12c.453.413 1.037.727 1.75.94.713.213 1.41.32 2.09.32zm9.64-.2l-.04-.24c-.573 0-.97-.05-1.19-.15-.22-.1-.33-.367-.33-.8 0-.433.287-1.497.86-3.19h6.1c.707 1.933 1.06 3.067 1.06 3.4 0 .333-.103.54-.31.62-.207.08-.563.12-1.07.12l-.04.24h5l-.04-.24c-.507 0-.927-.113-1.26-.34-.187-.12-.383-.393-.59-.82-.207-.427-.61-1.433-1.21-3.02L16.88.18h-3.3l.04.22c.533 0 .893.057 1.08.17.187.113.28.363.28.75s-.313 1.487-.94 3.3l-1.78 5.14c-.333.987-.62 1.753-.86 2.3-.24.547-.49.963-.75 1.25-.26.287-.5.463-.72.53-.22.067-.523.1-.91.1l-.04.24h4.5zm5.24-4.86h-5.78l2.82-8.06 2.96 8.06zm17.92 4.96v-9.6c0-1.32.06-2.273.18-2.86.12-.587.32-.97.6-1.15.28-.18.747-.27 1.4-.27l.04-.22H33.9l.04.22c.653 0 1.12.09 1.4.27.28.18.483.563.61 1.15s.19 1.54.19 2.86v7.4L26.6.18h-2.72l.04.22c.653 0 1.117.09 1.39.27.273.18.473.56.6 1.14.127.58.19 1.537.19 2.87v4.94c0 1.333-.063 2.293-.19 2.88-.127.587-.33.973-.61 1.16-.28.187-.74.28-1.38.28l-.04.24h4.92l-.04-.24c-.64 0-1.1-.093-1.38-.28-.28-.187-.48-.573-.6-1.16s-.18-1.547-.18-2.88V2.38l9.42 11.9h.62zm9.68-.1c.827 0 1.633-.073 2.42-.22.587-.107 1.12-.247 1.6-.42s.99-.437 1.53-.79c.54-.353.993-.77 1.36-1.25.367-.48.673-1.09.92-1.83s.37-1.573.37-2.5-.123-1.763-.37-2.51c-.247-.747-.553-1.36-.92-1.84s-.843-.893-1.43-1.24-1.14-.613-1.66-.8c-1.147-.4-2.867-.6-5.16-.6h-4.04l.04.22c.667 0 1.153.127 1.46.38.16.133.283.463.37.99.087.527.13 1.503.13 2.93v4.96c0 2.32-.167 3.62-.5 3.9-.307.253-.793.38-1.46.38l-.04.24h5.38zm-.25-.46c-.5 0-.83-.007-.99-.02-.333-.16-.54-.473-.62-.94-.08-.467-.12-1.42-.12-2.86V.76c.44-.08.96-.12 1.56-.12 1.333 0 2.553.26 3.66.78.627.307 1.173.697 1.64 1.17.467.473.847 1.103 1.14 1.89.293.787.44 1.69.44 2.71s-.15 1.927-.45 2.72c-.3.793-.68 1.423-1.14 1.89-.46.467-1.007.85-1.64 1.15-.633.3-1.247.503-1.84.61-.593.107-1.14.16-1.64.16zm14.39.66c1.227 0 2.277-.313 3.15-.94.873-.627 1.31-1.553 1.31-2.78 0-.68-.17-1.293-.51-1.84-.34-.547-.767-.99-1.28-1.33-.513-.34-1.07-.687-1.67-1.04-.6-.353-1.157-.677-1.67-.97-.513-.293-.94-.663-1.28-1.11-.34-.447-.51-.983-.51-1.61 0-.627.24-1.17.72-1.63.48-.46 1.117-.69 1.91-.69.793 0 1.497.31 2.11.93.613.62.92 1.557.92 2.81l.3.08c.2-1.627.3-2.773.3-3.44C63.193.273 62.037 0 60.79 0c-1.247 0-2.247.307-3 .92-.753.613-1.13 1.437-1.13 2.47 0 1.033.46 1.937 1.38 2.71.4.333.847.653 1.34.96.493.307.987.603 1.48.89.493.287.94.577 1.34.87.92.68 1.38 1.453 1.38 2.32 0 .96-.293 1.663-.88 2.11-.587.447-1.34.67-2.26.67-.92 0-1.697-.34-2.33-1.02-.633-.68-.95-1.667-.95-2.96l-.3-.06c-.16 1.307-.24 2.387-.24 3.24.453.413 1.037.727 1.75.94.713.213 1.41.32 2.09.32zm18.16-.2l-.04-.24c-.613 0-1.133-.053-1.56-.16-.2-.053-.35-.157-.45-.31-.1-.153-.19-.317-.27-.49-.173-.32-.26-1.427-.26-3.32V7.38c1.027.027 1.77.107 2.23.24.46.133.753.333.88.6.127.267.19.707.19 1.32l.24.04V4.72l-.24.04c0 .467-.027.813-.08 1.04-.053.227-.193.437-.42.63-.227.193-.557.32-.99.38-.433.06-1.037.103-1.81.13V.64c1.92 0 3.35.177 4.29.53.94.353 1.41.97 1.41 1.85l.22.04V.18h-9.34l.04.22c.667 0 1.153.127 1.46.38.16.133.283.463.37.99.087.527.13 1.503.13 2.93v4.96c0 2.32-.167 3.62-.5 3.9-.307.253-.793.38-1.46.38l-.04.24h6zm12.22.1l2.68-8.64 2.9 8.64h1.28l3.06-9.68c.427-1.333.787-2.28 1.08-2.84.293-.56.6-.923.92-1.09.32-.167.813-.25 1.48-.25l.02-.24H99.4l.04.24c.52 0 .903.05 1.15.15.247.1.37.303.37.61 0 .6-.26 1.74-.78 3.42l-2.64 8.42-2.82-8.42c-.613-1.8-.92-2.897-.92-3.29 0-.393.1-.64.3-.74.2-.1.56-.15 1.08-.15l.04-.24h-5.38l.04.24c.333 0 .593.01.78.03.187.02.383.093.59.22.207.127.37.257.49.39.293.373.807 1.627 1.54 3.76l-2.62 8.2-2.78-8.42-.46-1.38c-.04-.147-.133-.447-.28-.9-.147-.453-.22-.833-.22-1.14 0-.32.103-.527.31-.62.207-.093.57-.14 1.09-.14l.04-.24h-5.38l.04.24c.493 0 .86.027 1.1.08.24.053.49.243.75.57.26.327.48.727.66 1.2.18.473.45 1.25.81 2.33l3.24 9.68h1.26zm28.78-.1v-2.86h-.24c0 .813-.54 1.36-1.62 1.64-1.08.28-2.7.42-4.86.42 1.093-1.093 1.947-1.97 2.56-2.63.613-.66 1.26-1.41 1.94-2.25 1.267-1.587 1.9-3.007 1.9-4.26 0-1.093-.36-1.887-1.08-2.38-.72-.493-1.593-.74-2.62-.74-1.027 0-1.907.19-2.64.57-.733.38-1.1.823-1.1 1.33 0 .187.063.343.19.47.127.127.29.19.49.19s.397-.107.59-.32c.193-.213.37-.447.53-.7.16-.253.407-.487.74-.7.333-.213.727-.32 1.18-.32.72 0 1.273.233 1.66.7.387.467.58 1.073.58 1.82 0 1.16-.56 2.607-1.68 4.34-1.12 1.733-2.633 3.54-4.54 5.42v.26h8.02zm7.33.2c1.353 0 2.45-.58 3.29-1.74.84-1.16 1.26-2.777 1.26-4.85 0-2.073-.423-3.703-1.27-4.89-.847-1.187-1.943-1.78-3.29-1.78s-2.45.593-3.31 1.78c-.86 1.187-1.29 2.82-1.29 4.9 0 2.067.43 3.68 1.29 4.84.86 1.16 1.967 1.74 3.32 1.74zm0-.58c-.9 0-1.653-.557-2.26-1.67-.607-1.113-.91-2.563-.91-4.35 0-1.787.303-3.257.91-4.41s1.36-1.73 2.26-1.73c.9 0 1.643.577 2.23 1.73s.88 2.627.88 4.42c0 1.793-.293 3.243-.88 4.35-.587 1.107-1.33 1.66-2.23 1.66zm15.27.38v-2.86h-.24c0 .813-.54 1.36-1.62 1.64-1.08.28-2.7.42-4.86.42 1.093-1.093 1.947-1.97 2.56-2.63.613-.66 1.26-1.41 1.94-2.25 1.267-1.587 1.9-3.007 1.9-4.26 0-1.093-.36-1.887-1.08-2.38-.72-.493-1.593-.74-2.62-.74-1.027 0-1.907.19-2.64.57-.733.38-1.1.823-1.1 1.33 0 .187.063.343.19.47.127.127.29.19.49.19s.397-.107.59-.32c.193-.213.37-.447.53-.7.16-.253.407-.487.74-.7.333-.213.727-.32 1.18-.32.72 0 1.273.233 1.66.7.387.467.58 1.073.58 1.82 0 1.16-.56 2.607-1.68 4.34-1.12 1.733-2.633 3.54-4.54 5.42v.26h8.02zm10.84 0l-.04-.24c-.573 0-1.047-.053-1.42-.16-.187-.053-.33-.157-.43-.31-.1-.153-.19-.317-.27-.49-.16-.347-.24-1.453-.24-3.32V1.2l-.22-.1c-.68.467-2.173 1.22-4.48 2.26l.16.38c1.08-.48 1.833-.72 2.26-.72.587 0 .88.453.88 1.36v5.28c0 1.347-.04 2.287-.12 2.82-.067.373-.143.637-.23.79-.087.153-.227.29-.42.41-.193.12-.407.193-.64.22-.233.027-.55.04-.95.04l-.04.24h6.2z" transform="translate(-1262 -26) translate(1262 26)"/>
                <path fill="#F99393" d="M39.76 50.06c.21 0 .36-.03.51-.09.09-.03.21-.06.39-.15.09-.03.15-.06.21-.06.079 0 .226-.138.403-.393l.257-.387.21-.3c.33-.66.54-.99.6-.99h.06c0-.12.03-.24.12-.39l.12-.21c.03-.09.06-.12.06-.15 0-.09.03-.18.12-.27.023-.023.045-.045.068-.093l.022-.057c.03-.06.03-.12.03-.15.03-.09.06-.15.09-.15l.09-.21c.03-.03.03-.12.06-.21.03-.06.09-.21.24-.45 0-.03 0-.06.03-.09s.06-.03.06-.06c0-.21.06-.33.09-.36.03-.03.09-.18.15-.39.06-.18.12-.36.21-.54.12-.21.18-.33.18-.36 0-.03.06-.18.15-.45l.15-.24c.03-.06.06-.09.06-.09.03 0 .03 0 .03-.03 0-.15.03-.27.09-.36l.21-.51c.06-.27.12-.42.15-.45.18-.45.75-2.13 1.71-5.07.36-1.11.66-2.1.9-2.94.12-.36.18-.57.21-.6.03-.09.06-.15.12-.18s.09-.09.09-.18c-.03 0-.09.06-.12.06l-.09.09.03-.18.15-.24s.03-.09.09-.3c0-.09.12-.48.15-.69l.36-1.44.33-1.35c.09-.39.18-.63.21-.66.39-.15.87-.27 1.44-.33.51-.03 1.02-.03 1.53-.03h.36c.39 0 .78 0 1.17-.03.33-.03.48-.09.48-.18 0-.27-.24-.51-.69-.66-.99-.36-2.1-.48-2.85-.48h-.66l-.18-.03c0-.03.03-.03.06-.03s.03 0 .06-.03c0-.03 0-.06.03-.09 0-.03.06-.21.15-.48.06-.12.09-.24.09-.36 0-.21-.06-.3-.21-.3-.06 0-.12-.03-.15-.09l-.06-.09c-.09.09-.18.12-.21.12-.03.03-.06.03-.09.03-.06 0-.09-.03-.09-.09l.03-.18c0-.15-.15-.18-.3.09-.09.15-.15.21-.18.21l-.03-.03.12-.24-.06-.03c-.09 0-.06.09-.09.09l-.06-.03s0 .03-.03.09-.09.12-.15.15l-.06.06c0 .03.03.03.09.03.03 0 .06.03.06.06l-.06.24.21-.3-.18.72.06-.09.06.06c0 .09 0 .18-.03.27-.09.27-.18.45-.24.48h-.06c.09-.27.12-.42.12-.51-.24.57-.33.57-.36.57l-.06-.03.03.03c0 .03-.57.15-1.68.33-1.32.21-1.98.33-1.98.39v.06l-.21-.06h-.03v.03c-.03.03-.06.03-.06.06l-.12-.03c-.03 0 .06.06-.3.06-.18 0-.27 0-.27.03-.03.12-.27.09-.27.06l-.03-.03v-.03l-.09.06c-.06.03-.24.03-.51.06-.6.09-.99.18-1.17.27l-.18.03-.6-.12-.03.03.06.09c0 .03-.3.12-.87.21-.48.09-.72.15-.72.24-.09.03-.15.03-.18.03-.06 0-.09.03-.09.06l.09.18c.06.06.09.12.09.18l-.03.09c0 .03.03.03.09.03s.12 0 .15-.03l.06-.09c0 .15 0 .24.03.27v.03c.06 0 .09.03.09.06 0 .06.03.09.12.09.06 0 .12.03.18.12.09.09.3.12.57.12.75 0 2.16-.18 4.26-.57.66-.15 1.05-.21 1.2-.21.21 0 .48-.06.81-.18l1.11-.24h.12c.03 0 .03 0 .03.03l-.03.12-.12.33-.03.18.03.06c.03 0 .06-.03.06-.09 0-.09.15-.69.3-.69.06 0 .09.03.09.09v.12c0 .12-.09.21-.09.36.15-.42.24-.63.3-.63s.09 0 .09.03-.06.24-.15.6c-.33 1.44-.6 2.34-.78 2.7-.03.03-.06.09-.06.18 0 .03-.03.03-.06.03-.03.03-.06.09-.06.18 0 .12 0 .18-.03.18s-.06.03-.06.09c-.03.09-.03.18-.03.27-.09.57-.36 1.62-.87 3.21-.48 1.47-1.08 3.18-1.8 5.13-.66 1.8-1.29 3.42-1.89 4.83-.57 1.35-.93 2.04-1.08 2.04-.03 0-.06-.03-.06-.09 0-.12.06-.24.15-.39.03-.06.09-.09.12-.09l.001-.001.029-.029.03-.12c0-.09.03-.15.09-.15h.09l-.06-.15c0-.03.03-.09.06-.18l.09-.21c.03-.09.09-.15.12-.15.03-.12.06-.39.15-.33.03-.03.03-.06.03-.09 0-.21.39-.84.48-1.17l.36-.87c.18-.39.27-.66.27-.78 0-.06-.03-.09-.12-.09l-.03.03c-.03.06-.03.12-.03.15-.06.21-.12.33-.15.39l-.15.09.06-.15c.03 0 .09-.09.12-.27v-.03c-.03 0-.09.12-.18.33-.03.03-.06.09-.06.12-.21.45-.33.66-.36.66l-.03-.03.12-.18-.15-.24.03.24-.03.03-.06-.06c-.03 0-.03.03-.03.09l.03.21.03.03h.06l.03.03c0 .09-.06.24-.15.39-.06.15-.12.24-.21.24-.03 0-.03 0-.03.03l.09.06c0 .03-.06.09-.18.18-.03 0-.03-.03-.03-.06 0-.09.03-.18.06-.27.06-.15.12-.24.18-.24l.03.03c.03 0 .06-.06.06-.21v-.15l-.06-.15.03.18-.03.15-.03-.03c-.03 0-.06.03-.09.09l-.18.48c-.03.06-.03.12-.03.15l.03.12c.03.03.06.06.09.06l.06-.09.09.03.03-.03c0 .09 0 .15.03.15h.03v.03l-.18-.06c-.03 0-.06 0-.06.03s0 .03-.03.06-.03.03-.06.03c-.09 0-.12.03-.12.06s0 .06.03.06.06 0 .09-.03c0 .09 0 .12-.03.12l-.03.03c-.09 0-.12-.09-.12-.27l-.09.12c-.03.18-.03.3-.03.39l-.06-.03c-.03 0-.06.03-.09.06-.09.15-.12.27-.12.42v.09c-.06 0-.12.03-.15.09l-.12.21c-.03.15-.09.27-.18.33l-.06.06-.18.3c-.12.27-.27.51-.42.78-.09.12-.12.18-.15.18s-.06.06-.15.21c-.24.51-.33.36-.48.48-.12.15-.27.24-.45.24-.09-.03-.15-.12-.18-.21-.03-.15-.06-.24-.09-.27 0-.15-.03-.21-.06-.21l-.03-.06c0-.15 0-.3-.03-.39-.06-.21-.09-.42-.09-.57 0-.06 0-.12.03-.15.03-.06.03-.09.03-.12l.03-.03v-.03h-.06c-.025-.025-.03-.112-.03-.28v-.11c0-.75.09-2.76.24-6.03.09-1.41.12-2.22.12-2.49l.12-1.71c.03-.36.06-.54.09-.54l.12.15h.03l-.06-.3c0-.03 0-.15-.03-.18-.03-.51-.63-1.08-1.08-1.08-.45 0-.78.03-.96.12-.03 0-.03.03-.03.12l.06.09c.06 0 .09.06.12.15.03.12.03.21.03.3 0 .33 0 .78-.03 1.41-.06 1.02-.09 1.77-.09 2.25v.66c.03.09.03.3.03.57-.03.03-.03.06-.03.09l-.03.09c-.15 2.01-.24 3.69-.24 5.04 0 1.77.21 2.97.6 3.6.39.63 1.08 1.05 2.04 1.2h.12zm2.37-3.21h-.09l.06-.12.18-.36c.57-.99 1.38-2.94 2.43-5.88.09-.18.21-.48.36-.93l.24-.69c.36-1.05.93-2.85 1.74-5.34.66-2.13 1.14-3.96 1.47-5.43.15-.45.18-.36.18-.21 0 .21-.12.78-.39 1.71l-.3 1.14c-.69 2.49-1.05 3.75-1.05 3.78-.18.48-.36 1.02-.54 1.59-.24.81-.39 1.23-.42 1.23l-.42 1.29c-.27.84-.45 1.32-.51 1.41 0 .03-.21.66-.66 1.86-.45 1.2-.69 1.8-.75 1.8 0 0-.06.12-.15.36-.69 1.86-1.17 2.79-1.38 2.79zm4.23-13.74l.09-.21.18-.27c.03 0 .12-.36.3-1.05.15-.72.21-1.14.21-1.26l-.66 2.25c-.09.33-.12.51-.12.54zm-1.17 4.17c.03 0 .06-.03.06-.12l-.03-.24c0-.09.09-.09.09-.3v-.12l.09.06.72-2.46c.06-.24.09-.39.09-.42-.03 0-.15.33-.36.99-.51 1.47-.75 2.28-.75 2.46 0 .09.03.15.09.15zm-.45 1.08c.06 0 .09-.06.09-.21s.21-.09.21-.3c0-.09-.03-.18-.06-.27-.03 0-.15.24-.33.69 0 .02 0 .027.009.038l.021.022c.03.03.03.03.06.03zm-1.44 4.02c.18-.06.27-.12.27-.15s.03-.06.06-.06.06-.06.09-.18c.03-.15.03-.24.03-.3 0-.09-.03-.24-.09-.39l.15.24.06-.24c.03-.06.06-.09.12-.12 0-.03-.03-.03-.06-.06s-.03-.06-.03-.09l.03-.06c-.06-.03-.09-.06-.09-.12 0-.09 0-.12.03-.12 0 .03 0 .09.03.12s.03.03.06.03c.09 0 .12-.06.12-.21s.03-.21.06-.21.06-.06.06-.15c0-.06.03-.09.06-.09.06-.03.09-.06.09-.12 0-.12.03-.24.06-.33 0-.03.03-.12.06-.27.09-.27.15-.48.15-.63v-.18l.12.09.03-.06-.06-.24c-.06 0-.12.09-.18.24-.03.09-.15.36-.3.81l-.93 2.52c-.06.15-.09.24-.09.3v.03h.09zm.06-.857l.033-.082.057-.141c.21-.48.33-.84.42-1.11.24-.63.36-.96.36-.99 0-.03 0-.06-.03-.06s-.06.03-.06.12c0 .03 0 .03-.03.06l-.06.03-.03.21v.12l-.09-.09h-.03l.03.18c0 .09-.03.12-.06.12-.03.03-.03.06-.03.12 0 .09-.03.12-.06.12-.03.03-.06.06-.06.09l.03.09c0 .06 0 .09-.03.09l-.09-.06v.3c0 .03 0 .03-.03.03l-.06-.03v.24c-.03.03-.03.03-.06.03-.022 0-.028.017-.03.05v.16c-.03.03-.03.06-.06.06l-.03.15v.193zm-5.49 5.387h-.03c-.023 0-.028-.101-.03-.304v-.236c0-.27 0-.42-.03-.51v-.051c.001-.096.007-.319.03-.669.03-.45.03-.81.03-1.08h.03c.03-1.41.12-2.13.24-2.22l.03-.03c.03 0 .03.03.06.06v.24l-.03.99c0 .45-.03.69-.12.72-.025 0-.03.083-.03.233v.097c0 .6.03.9.06.9.03.03.03.06.03.09s0 .09-.03.12l-.06.06c-.03.03-.03.06-.03.09l.03.21-.03.03c-.03.03-.06.03-.06.06l.12.33c0 .09-.09.03-.09.15l.03.21v.21c-.03.03-.03.12-.06.21-.03.06-.03.09-.06.09zm11.46-1.74c.09 0 .15-.03.18-.09 0-.06.03-.09.06-.09s.33-.3.9-.9c.54-.6.81-.93.81-.99 0-.06.09-.15.24-.27.03-.03.09-.06.12-.06.03-.21.09-.33.24-.33 0-.12.03-.21.09-.24s.12-.06.15-.06c0-.09.03-.18.06-.21l.15-.15c.21-.21.33-.39.36-.51l.12-.15c.06-.09.09-.12.09-.12.09-.03.03-.3.15-.3l.15-.15c0 .15-.06.51-.18 1.08-.09.42-.15.78-.15 1.11 0 .48.06.75.21.78.09.03.18.09.27.21.005.015.007.028.008.04l.002.038c.007.055.04.142.26.402.18.21.36.36.57.45.3.09.54.15.69.15.09 0 .12 0 .15-.03.06-.06.15-.09.24-.09.09-.03.36-.21.75-.54.347-.293.527-.468.563-.546l.007-.024c0-.06.15-.27.45-.63.09-.09.12-.18.12-.21l-.15.18-.15.12c-.03.03-.06.06-.09.06 0-.03.15-.18.42-.45.24-.27.36-.45.36-.54 0-.09.03-.12.12-.12l-.06.09c.03 0 .06 0 .06-.03l.03-.03v-.03c0-.09.3-.45.93-1.14.12-.15.24-.3.36-.51.15-.21.24-.36.33-.45.09-.09.15-.18.21-.33l.15-.3c.03 0 .03-.03.06-.09l.15-.24c.09-.21.15-.33.15-.42l-.03-.03c-.09 0-.24.21-.51.66-.09.15-.15.24-.15.3s-.06.18-.21.33c-.09.09-.24.3-.45.63l-.24.27c-.03.06-.06.09-.09.09h-.03c-.03 0-.03.03-.03.09v.12c-.03 0-.27.21-.72.63l-.57.57c-.03 0-.12-.06-.12.18-.03 0-.12.06-.24.18-.09.09-.18.12-.27.12-.03 0-.06.03-.06.09 0 .09-.03.12-.09.12-.09 0-.18.06-.27.15-.03 0-.03.03-.12.03 0-.03.06-.12.18-.24.15-.24.24-.36.24-.39l-.06.03c0-.06.18-.27.57-.63.39-.45.6-.69.6-.75-.09 0-.39.21-.87.6-.15.12-.27.27-.42.42-.12.15-.21.24-.27.24-.03 0 0 .09-.09.09-.03 0-.09.03-.18.09l-.33.24c-.03 0-.09.06-.15.18 0 .15-.15.24-.42.24-.09.03-.18.06-.27.12-.06.06-.12.09-.21.09-.03-.06-.03-.15-.03-.24 0-.27 0-.39.03-.42.03 0 .06-.03.06-.12l.15-.72c.18-.54.3-.84.36-.93.06-.12.09-.21.09-.24 0-.09.06-.3.21-.66.42-.99.66-1.53.72-1.56.03-.06.03-.12.03-.15l.54-1.26v-.03h-.03c-.03-.03-.03-.06-.03-.09-.03-.03-.06-.09-.06-.15 0-.12-.03-.18-.09-.21-.06 0-.09-.03-.09-.12s-.06-.15-.18-.18c-.09-.03-.12-.09-.12-.15 0-.03-.03-.06-.09-.09l-.09-.06c-.03.03-.03.06-.06.06l-.21-.12c-.03 0-.12.15-.27.42-.09.27-.18.45-.27.57-.15.21-.21.36-.21.42 0 .15-.21.51-.63 1.11-.09.18-.21.33-.33.48l-.03.03.15-.09v.03c.03 0 .06 0 .09-.03.06-.09.09-.15.09-.21l.03.03.06-.03.06-.06c-.03.12-.06.21-.09.24-.09.15.03.15-.33.63 0 .09-.03.15-.06.15-.06 0-.15.12-.27.36-.12.24-.21.36-.27.36l-.09.12-.39.57-.21.21c-.66.81-1.02 1.23-1.11 1.26-.06.03-.09.09-.09.15s-.03.09-.09.09c-.12 0-.24.33-.33.33-.06 0-.18.09-.33.24-.03.06-.09.09-.12.09 0-.12.33-.51.96-1.2l.24-.27.15-.21.33-.42.36-.42.33-.45c.09-.12.15-.18.15-.21l-.21.03c-.03 0-.03 0-.03-.03l.03-.09h-.06c-.03.09-.03.18-.03.21s-.03.06-.06.09c-.03 0-.03.03-.03.09l.03.03h-.03l-.03.03c-.03 0-.03.03-.03.06 0 .09-.21.03-.21.24l-.03.06-.12-.03c0 .12 0 .18-.03.21l-.06.06.06-.12-.15.12c0 .03 0 .03-.03.03v.03l-.06-.06c-.03-.03-.06-.03-.09-.03s-.09.06-.12.15c.09-.03.15-.03.18-.03s.03 0 .03.03c-.21.21-.33.39-.33.48 0 .03-.06.15-.15.3l.06-.24-.12.12s-.03.03-.12.09c0-.03.06-.12.15-.27.09-.09.18-.18.21-.3l-.93 1.05c-.63.69-.96 1.02-1.05 1.02l-.15-.06c-.06 0-.15.06-.27.18l-.12.12c0-.21.09-.57.24-1.05.33-1.14.57-1.8.72-2.01.03 0 .18-.27.42-.84.39-.81.66-1.29.78-1.5.03-.09.09-.15.15-.18l.51-1.14c0-.12-.09-.3-.27-.51-.06-.09-.12-.12-.18-.12-.09 0-.12-.06-.12-.21h-.03l-.06.03c-.06 0-.15-.03-.27-.06-.03-.03-.09-.03-.12-.03s-.03.03-.03.09c0 .03 0 .03-.03.03s-.09-.09-.12-.27c-.03-.03-.03-.06-.06-.06s-.03.06-.03.15-.18.45-.57 1.11c-.21.21-.09.3-.33.75l-.15.18c-.06.06-.24.48-.57 1.23l-.27.6c-.51 1.38-.78 2.43-.78 3.15 0 .27.06.54.18.81.15.33.27.51.33.57.06 0 .15.09.24.24s.24.24.45.3c.21.09.36.12.45.12zm-1.44-1.68l.03-.6c.015-.075.06-.255.139-.536l.076-.266c.07-.242.158-.535.265-.878l.12-.39.06-.03c0 .135-.073.44-.24.959l-.24.721c-.06.6-.12.93-.21 1.02zm11.4 3.48c.27 0 .6-.03 1.05-.12l.39-.09c.03 0 .33-.06.66-.18l.33-.09c.03 0 .09-.06.12-.06l.33-.09c.21-.03.42-.06.63-.12.48-.15.72-.27.72-.36 0-.03.03-.03.06-.03.12 0 .24-.06.33-.15l.39-.39-.27-.54c-.03-.06-.06-.09-.09-.09s-.03-.03-.03-.09c0-.12-.27-.45-.81-.96-.21-.21-.42-.42-.6-.57-.81-.69-1.29-1.17-1.41-1.47-.09-.27-.12-.48-.12-.66 0-.21.06-.48.15-.75.09-.3.18-.51.27-.6l.18-.33.69-.93c.3-.39.63-.75.99-1.11.15-.15.21-.21.24-.21s.09-.03.12-.12c.09-.12.18-.21.27-.24.06-.06.09-.09.12-.09.06 0 .12-.06.21-.15s.18-.12.24-.12h.06v.21c.09 0 .33-.18.66-.51.15-.15.42-.45.78-.9l.3-.3c.09-.09.18-.15.27-.15.03 0 .06-.03.09-.06l.03-.21c0-.12-.03-.21-.09-.3l-.18-.24c-.09-.12-.18-.21-.33-.24-.12-.03-.24-.09-.36-.15-.09-.12-.36-.18-.78-.18h-.18c-.03.03-.03.18-.06.18l-.15-.12-.03.03.03.06c0 .09-.03.12-.06.12-.15 0-.36.12-.69.36-.36.27-.69.54-1.02.87-.39.36-.72.69-.96.96l-.48.54c-.45.51-.78.96-1.02 1.41-.33.48-.51.87-.57 1.17l-.06.54c0 .57.12 1.08.36 1.53.27.57.54.96.75 1.2.09.09.12.15.12.18 0 .09.27.39.81.9l.63.57.36.27c.15.09.21.15.21.18s-.03.06-.12.09c-.15.09-.27.12-.33.15-.3.15-.48.24-.54.3-.12.09-.27.12-.42.15-.39.15-.84.27-1.35.42-.54.15-1.08.21-1.62.24h-1.05c-.276-.003-.429-.009-.45-.03-.03 0-.03-.03-.06-.06v-.06s0-.03.03-.06.03-.06.03-.09-.03-.03-.12-.03c-.12 0-.24.12-.24.24l.18.48c.12.54.72.87 1.83.99.24.03.45.06.63.06zm.84-6.99c0-.21.03-.39.06-.51 0-.09.03-.21.09-.36.06-.27.12-.45.18-.54 0-.15.06-.33.21-.54.09-.18.33-.48.66-.87l.24-.33c.21-.27.54-.57.99-.96.18-.15.3-.24.36-.24 0-.09.03-.18.06-.24l.06-.06c.03 0 .03.06.06.06.15-.21.24-.3.3-.33.12-.06.24-.12.33-.21.12-.09.24-.18.33-.21l.18-.03c0 .03-.12.15-.33.36l-.15.15c0 .03-.06.09-.15.18-.06.09-.21.21-.42.42-.51.51-.93.96-1.29 1.38-.33.36-.18.33-.45.57-.15.15-.3.36-.51.69-.21.33-.39.63-.51.9-.09.18-.15.27-.18.27s-.09.15-.12.45zm-.24-1.23c0-.09.06-.24.18-.48.27-.57.54-.99.75-1.2.06-.09.09-.12.09-.15s.03-.09.12-.18l.15-.06h.03c0 .03-.09.15-.24.36-.06.09-.09.12-.12.12s-.06.03-.06.06-.06.15-.21.36c-.45.78-.66 1.17-.69 1.17zm-.15 7.62c-.03 0-.06 0-.09-.03h-.03c0-.03.03-.03.06-.06 0 0 .03-.03.06-.03h.06v-.03l-.09-.06c-.12.03-.24.03-.36.03-.06.03-.18.03-.39.03-.27 0-.39 0-.42.03l-.06.06c-.03-.03-.03-.03-.03-.06s-.06-.03-.15-.03c-.48 0-.78-.03-.87-.09-.06-.03-.09-.09-.09-.15-.03-.03-.03-.15-.03-.18s.06-.03.15-.06c.03 0 .18-.03.27-.03H58c.09 0 .12.03.12.09v.12c-.03.03-.06.03-.09.03-.27-.06-.45-.09-.54-.09 0 .03 0 .03.03.06.06.03.36.09.9.12.24.03.18-.18.18-.18h.03c0 .03.09.09.18.09.27-.03.51-.09.69-.15.06-.03.12-.06.18-.12l-.09.03v-.06c.06-.06.12-.09.15-.09s.06.03.06.06v.06l.24-.09.12-.12c.03.03.03.06.03.06.09.09.39.09.27.12h.06l.51-.09.03.03-.09.06-.06.12c0 .03 0 .03.03.03h.03l.09-.03c.03-.03.09-.06.18-.06.06 0 .21-.06.42-.18.21-.09.39-.15.51-.15.12.06.18.09.18.12 0 .06-.15.15-.42.27l-.33.09-1.02.39c-.09.03-.24.03-.45.06l-.39.06zm9.03-.48c.03 0 .06 0 .06-.03.03-.03.12-.06.21-.06s.3-.06.63-.18c.3-.09.54-.18.75-.3.21-.12.54-.36.96-.72.39-.33.57-.54.57-.57l-.09.03v-.03c.06-.03.12-.03.18-.03s.24-.18.54-.51c.03-.03.18-.27.27-.36.09-.09.12-.15.12-.18l-.24.24c0-.03.12-.24.39-.57.39-.45.57-.69.57-.78l-.06-.06c0-.03.06-.09.18-.21l.3-.39c.21-.33.39-.54.51-.69.03-.06.09-.12.12-.21 0-.18-.06-.27-.15-.27-.03 0-.06 0-.12.03-.03 0-.12.06-.21.21l-.33.45c-1.41 1.62-2.1 2.46-2.1 2.52.06 0 .42-.36 1.08-1.08.66-.69 1.02-1.11 1.05-1.26.03-.09.09-.12.15-.12l.06.03c-.03 0-.03.03-.03.06s-.03.06-.06.06h-.06c0 .09 0 .12-.03.15 0 .03-.03.06-.09.09-.09.09-.21.21-.36.42-.21.3-.36.48-.45.54-.09.15-.15.21-.15.24s-.03.09-.06.12c-.06.03-.12.09-.18.15-.09.09-.12.15-.12.21v.03h.03l.3-.15-.3.33-.21.18h-.09c-.06 0-.18.06-.36.21-.06.06-.12.12-.21.15-.06.03-.12.06-.18.06 0 .06-.03.09-.09.09-.03 0-.03-.03-.03-.06l.09-.18c.09-.09.12-.18.12-.21l-.09.03.03-.09.18-.18-.03-.03v-.06l.03.03c.03 0 .06 0 .09-.03l.12-.12c.03-.03.03-.06.03-.09l-.03-.03.06.03c.06 0 .09-.03.09-.09.09-.12.27-.18.15-.18-.09 0-.27.12-.54.36l-.15.09.27-.39-.03-.03c-.06 0-.21.12-.48.39-.15.21-.27.36-.3.45v.03l-.09-.12c-.03 0-.09.03-.18.12-.3.21-.51.36-.6.45-.06.03-.12.06-.15.06s-.12.03-.24.12l-.27.24-.39.21c-.57.42-.99.63-1.26.63l-.12-.06c-.06-.03-.12-.09-.15-.18-.06-.15-.09-.3-.09-.45 0-.18.03-.48.12-.87l.27-1.05c.06-.15.09-.21.09-.24l-.03-.09c0-.24.27-.99.81-2.28.54-1.32 1.2-2.85 1.98-4.56.81-1.77 1.62-3.45 2.43-5.01.24-.03.63-.03 1.17-.03 0 0 .03-.09.03-.12s.06-.06.15-.06l.06.03-.06.06c0 .03.03.03.09.06.12.03.27.06.27-.03v-.06h.03s0 .03.03.06c.03.09.09.12.15.12.03 0 .03 0 .03-.03l-.03-.15c.03 0 .03 0 .06.03 0 .06.15.12.42.15.54.09 1.11.15 1.68.15.51 0 .63-.12.63-.24 0-.09-.24-.27-.24-.39l.03-.12c0-.06-.06-.12-.18-.15-.15-.03-.21-.06-.21-.12-.06-.12-.75-.21-2.1-.3l-1.32-.12c.99-1.83 1.68-2.97 2.04-3.45.18-.21.3-.33.33-.39.18-.15.3-.33.36-.54 0-.06-.03-.12-.09-.18l-.3-.21-.33-.27h-.6c-.18 0-.33.06-.48.15-.15.09-.36.36-.63.75-.24.36-.63.99-1.14 1.86-.63 1.05-.93 1.62-.93 1.68.03 0 .21-.3.6-.93.39-.63.6-.93.6-.93 0 .03-.06.12-.15.27-.15.3-.24.48-.24.51.09-.03.18-.06.24-.06l-.03-.03c0-.03.03-.03.12-.03s.12-.03.12-.09l-.03-.09c0-.06.03-.12.06-.15l.09-.12c.03-.03.03-.06.06-.06l-.09.21c.03 0 .06-.06.12-.15l.03-.09c0-.03.12-.21.33-.54.21-.33.33-.51.36-.51.03 0 .03.03.03.06 0 .21-.39.93-1.14 2.19l-.15.27H73v.03l-.36.78h-.42c-.09 0-.12.06-.24.06v-.09l-.03.09h-.15c.18-.3.27-.48.27-.54 0 0-.03.03-.09.12-.09.09-.15.24-.21.42l-.42-.06h-.06c-.03 0-.03 0-.06.03l-.03.03-.39-.03c-.09 0-.12 0-.12.03-.03.03-.18.06-.42.06-.18 0-.3 0-.39.03-.03 0-.03 0-.03-.03s0-.06.03-.12l.09-.06c-.341.131-.59.194-.708.207l-.035.003.016-.004c.014-.003.037-.011.067-.026.03-.03.09-.03.18-.06l-.24-.03c-.06 0-.12.06-.18.18l-.12-.09c-.12-.06-.21-.09-.3-.09-.03 0-.06 0-.06.03v.03c-.03 0-.03 0-.06-.03 0 0-.06-.03-.09-.06-.06-.03-.12-.03-.15-.03-.09 0-.21.03-.3.12h-.09c0-.03-.06-.03-.15-.03h-.21c-.57.09-.93.12-1.08.12-.27 0-.39-.03-.39-.09-.03 0-.03.03-.03.06-.09 0-.18.03-.33.12-.21.09-.3.21-.3.39v.09c.06.39.18.63.39.78.18.15.48.21.93.21.36 0 .87-.03 1.56-.12.87-.09 1.8-.15 2.79-.21h.18c-.33.63-.75 1.5-1.26 2.61-.24.51-.36.87-.36 1.02.03 0 .15-.18.33-.57.21-.42.3-.66.3-.69v-.21c0-.03 0-.03.03-.03l.09.06-.03-.12c0-.03.06-.12.15-.21.24-.15.18-.3.15-.33l-.06-.03c0-.03.03-.06.06-.09.06-.03.09-.09.09-.18.03-.18.12-.3.27-.36.06-.03.09-.09.09-.15l-.03-.15c0-.09.15-.12.15-.15l-.03-.12c0-.03.12-.03.12-.06v-.18l.12.03c.03 0 .03-.03.03-.12h.39c-.45.84-.69 1.38-.72 1.65-.03.03-.03.06-.03.06-.06 0-.12.06-.18.21-.03.06-.03.12-.03.15.18.15.09-.09-.21.45-.09.15.03.15-.36.75-.21.33-.3.54-.3.63l.09-.09c.09-.09.12-.12.15-.12 0 .03-.03.09-.06.18-.03.06-.09.09-.15.12-.09.03-.15.09-.18.18-.06.12-.09.24-.09.33 0 .03.03.06.06.06.06 0 .12-.06.18-.15l.27-.57.42-.9c.93-1.95 1.41-2.94 1.44-2.94.15-.03.24-.03.33-.03l-.45.84-.21.39c0 .09-.54 1.29-1.59 3.6l-.42.9c-.09.12-.15.27-.18.45-.12.27-.24.51-.33.78-.03.09-.21.48-.48 1.2l-.87 2.07c-.15.48-.27.72-.33.72-.03 0-.06.12-.09.36-.06.33-.09.48-.09.51-.03.03-.06.06-.06.09l-.09.36-.27.84-.03.36c-.03.21-.06.39-.06.51v.54l-.09-.24c-.09-.18-.12-.39-.12-.66 0-.42.09-.9.24-1.41.15-.51.24-.81.24-.96 0-.06.03-.12.09-.18l-.03-.03c-.03 0-.03-.03-.03-.06l.03-.12c.06 0 .12-.03.15-.09 0-.03.12-.3.33-.81l.06-.12.15-.39c.06-.24.12-.42.18-.51.12-.21.27-.57.48-1.11.09-.24.12-.36.12-.39l-.03-.06c-.03.03-.03.03-.03.06l-.03.03c-.03 0-.06 0-.09.03l.03.15-.09-.06c-.03 0-.06.03-.09.12-.03.03-.06.15-.09.24-.06.27-.12.42-.18.51-.03 0-.03.06-.06.15v.09c0 .15-.03.21-.09.21-.06.03-.09.12-.09.3v.18h-.03l-.09-.06.06.21-.03.03-.03-.03h-.03c-.03 0-.03.03-.03.06l.03.06-.09.06.03.09c0 .03-.03.06-.06.06s-.03 0-.03.03-.03.09-.06.18c-.57 1.35-.9 2.46-1.02 3.3-.03.36-.06.54-.09.57 0 .03 0 .06.03.09s.06.03.06.06l-.06.06c-.03 0-.03 0-.03-.03-.03-.03-.03-.09-.03-.21l-.03-.06-.09.03.09-.12c-.06 0-.09-.03-.09-.06 0-.21-.03-.3-.09-.3l-.03-.09.03-.03.09-.24c.03-.27.06-.42.09-.51l.12-.48.03-.24-.03-.06.12-.18c.03-.06.03-.12.03-.18 0-.15 0-.21.03-.24.03 0 .03 0 .06-.03l-.03-.03c0-.06 0-.09.03-.09s.03-.03.06-.12c.03-.06.03-.12.03-.18s0-.12-.03-.15v-.06c-.03 0-.12.27-.27.84-.18.57-.27.96-.27 1.11l.03.12-.06-.06c-.03 0-.09.09-.12.27-.03.18-.06.39-.06.63 0 .27.03.51.09.72.06.21.09.33.12.33l.03.03h.03l-.03.09.03-.03c.03 0 .06 0 .06.03s.03.06.06.09l.12.09c.09.03.18.12.27.27.12.12.21.18.24.18h.06c.09.03.18.06.27.12.12.06.33.12.6.18.33.03.54.06.66.06h.12zm4.38-16.8c-.03-.03-.03-.06-.06-.06S73 29 73 29c-.06 0-.09 0-.09-.03.9-1.62 1.38-2.43 1.47-2.43 0 .053-.069.243-.207.55l-.003.008v-.018l-.06-.03c-.03 0-.09.06-.09.06 0 .03.03.03.06.03h.03l.029-.001.014-.005-.043.096c-.15.39-.27.57-.3.6-.03.03-.06.03-.06.03l.03-.18c-.03 0-.03.03-.06.12v.12l-.57 1.17zm-3.87.66h-.06c-.21 0-.36 0-.45-.03l-.15-.06h.15c.24-.06 1.14-.12 2.73-.18l-.06.15c-1.148.084-1.852.116-2.16.12zm8.22.3c-.18 0-.72-.06-1.65-.18-.84-.12-1.59-.21-2.28-.27 0-.03.03-.06.06-.09.66 0 1.32.03 2.01.12.75.09 1.23.15 1.5.24.33.06.48.12.48.15l-.12.03zm-8.94 6.33c.03 0 .06-.03.06-.09v-.06l.09.09c0-.09 0-.21.03-.3.03-.15.09-.24.12-.24v.03c.03 0 .09-.03.12-.12l.09-.18c.03-.03.03-.06.03-.09 0-.06-.15-.03-.06-.12.03-.03.06-.03.09-.03s.03-.06.03-.15 0-.18.03-.24c.03-.09.06-.12.09-.12l.06.06-.03-.24.09.06v-.24l.06.03c.03 0 .03-.12 0-.12-.09 0-.24.24-.45.75-.09.18-.24.6-.48 1.26v.03c0 .03 0 .03.03.03zm1.53-.51c0-.03.03-.09.06-.18.21-.54.36-.84.42-.87l.06-.03c0 .06-.03.15-.09.24-.09.27-.21.51-.33.69-.06.09-.09.15-.12.15zm-.93.45c.09 0 .06-.12.09-.12h.06l.014-.027c.032-.063.123-.24.286-.543l.18-.33.06-.21c0-.15-.12-.15-.12-.06v.12l-.09-.06s0 .03-.03.06l-.06.18-.42.96.03.03zm-.54 1.29c.06 0 .12-.03.15-.06s.06-.06.06-.09.06-.21.21-.54l.12-.21v-.06c-.06.06-.09.09-.12.09 0-.03 0-.09.03-.12 0-.03.06-.09.21-.24-.06 0-.12.03-.15.06-.15.09-.21.21-.21.36v.15c-.03 0-.03.03-.06.12-.03.18-.06.3-.15.36s-.12.12-.12.15 0 .03.03.03zm-2.01 3.03c.03 0 .06-.09.15-.27.03-.06.09-.27.24-.6l.24-.66v-.06c-.06 0-.18.27-.36.78-.18.48-.27.75-.27.81zm1.53.21c0-.03.03-.15.12-.39l.03-.15c0-.15.09-.39.27-.72.06-.09.09-.15.12-.15 0 .15-.15.57-.45 1.23-.03.12-.06.18-.09.18zm3.84 1.65c.03 0 .09-.03.12-.12.6-.66.9-1.02.9-1.08-.03 0-.3.27-.78.78l-.133.132c-.094.092-.146.138-.167.138l-.03-.03v.06c.03.09.06.12.09.12zm15.51 5.55c.36 0 .75-.12 1.17-.33.36-.15 1.02-.42 1.98-.78.99-.36 1.53-.54 1.59-.54l.06.03c0-.03 0-.06.03-.09s.06-.03.15-.06c.15-.03.24-.06.27-.06l.24-.09c.33-.09.51-.15.54-.18.09-.09.84-.24 2.22-.45.6-.09 1.05-.12 1.38-.12l.48-.03c.06-.03.09-.06.09-.09 0 0-.03 0-.06-.03h-.39c-.03 0-.06 0-.06-.03l-.06-.03c-.24 0-.66.03-1.23.12-.99.15-1.89.33-2.76.57-.09.03-.24.09-.42.12-.45.09-.78.21-1.05.36-.18.09-.3.12-.36.12-.03 0-.03-.03-.03-.06h-.06l-.09.06-.45.18c-.39.09-.66.18-.81.27l-.06.03c-.09 0-.18.03-.33.06l-.06-.03c0-.03.03-.06.06-.06.06 0 .09-.03.12-.06v-.03c0-.03 0-.03.03-.03v.06c.03 0 .06 0 .09-.03s.09-.09.18-.12c.06-.03.09-.03.09-.03.03 0 .06.03.09.06.03 0 .06 0 .06-.03.03-.03.03-.03.03-.06s-.03-.06-.06-.06c-.15.06-.27.12-.39.15l-.03-.03.006-.006.045-.045.039-.039c.03-.03.12-.06.21-.09s.15-.03.21-.03c.03 0 .03.03.03.12l.12-.06.09-.03v-.09c0-.12.15-.21.45-.3.27-.06.45-.09.54-.09l-.15.06-.12.09h.03c.03-.03.06-.03.09-.03.03-.03.12-.03.21-.03.03-.03.12-.06.21-.09.06-.03.09-.03.09-.06-.06-.03-.09-.03-.12-.03h-.09l.03-.03s.03-.03.12-.06.18-.06.27-.06h.39v-.06c.03-.03.09-.06.12-.06.09.03.18.03.21.03s.03 0 .03-.03h.06c.03-.03.03-.03.03-.06l.12-.06c.15-.09.33-.15.54-.15.09 0 .12 0 .12.03l.03.03c.09 0 .06-.09.45-.24.15-.06.42-.09.81-.09.15-.03.24-.06.27-.12h.03v.03c0 .03 0 .03.03.03 0 .03.03.03.06.03l.03-.03-.03-.03.03-.06c.03 0 .06.03.06.06v.03h.03l.09-.09c0 .03 0 .06.03.06.03.03.03.03.06.03s.09 0 .15-.03.09-.03.09-.06v-.06h.03v.03h.03l.03.03h.06c.03.03.12.03.3.03l1.32-.03c-.03 0-.12-.03-.15-.03-.06 0-.12-.03-.21-.06-.12-.03-.21-.03-.27-.03l-.48-.03c-.21-.06-.48-.09-.81-.09-1.05 0-2.61.33-4.62 1.02l-2.25.78c-.99.39-1.59.57-1.86.57v-.15c0-.42.15-1.17.45-2.28.09-.36.18-.6.27-.75.03-.06.06-.09.06-.12l-.03-.15c0-.06.03-.12.09-.15s.09-.06.09-.12c0-.03 0-.06.03-.15l.12-.3c.03-.06.03-.09.03-.12l-.09-.06c0-.03.03-.06.06-.09s.06-.03.09-.03l.03-.03-.06-.12.06.03c.03 0 .03 0 .06-.03l.03-.33c.03-.12.06-.21.09-.24s.03-.06.03-.09l.09-.09.029-.03.019-.026-.01.033c-.021.064-.038.12-.038.143.03.03.03.03.06.03s.03-.03.06-.09c.06-.09.09-.27.09-.54 0-.09.03-.18.09-.24l.06-.18-.03-.03c0-.09.09-.12.27-.12l.03-.03-.06-.12c0-.03 0-.03.03-.03s.06-.03.09-.09l.09-.24c.03-.12.03-.21.03-.24 0-.06.03-.12.09-.18.03 0 .06-.09.06-.12v-.12c0-.03.03-.09.06-.12 0-.03.03-.03.06-.03l.001-.001.059-.059-.06-.12c.03-.03.03-.03.06-.03v-.03c.03 0 .09-.06.09-.09.06-.06.09-.15.12-.24 0-.03.06-.18.06-.27l.12-.18.12-.21v-.03l.09-.18.3-.54.06-.15.09-.18 1.08-2.31.36-.9.6-1.38c.33-.72.51-1.17.57-1.32l.27-.63c0-.06.06-.15.06-.15v-.06c.03 0 .21-.45.54-1.38l.27-.99c.06-.33.18-.69.36-1.11.09-.21.15-.3.15-.33l.09-.45c0-.24.03-.42.06-.57.03-.03.06-.15.06-.36-.03-.27-.03-.48-.03-.63l.03-.3c0-.15-.03-.27-.06-.3-.03-.03-.06-.06-.06-.12 0-.09 0-.18-.03-.21s-.06-.03-.15-.06h-.03c0-.03 0-.03-.03-.03l-.03-.03c-.03-.03-.03-.06-.03-.09v-.06h-.03l-.33.06c-.03 0-.03-.03-.06-.03v-.03c-.03 0-.03 0-.03-.03l.06-.15c.03 0 .06-.03.09-.06v-.03l-.03-.03-.21.09-.06-.03v-.03c0 .03 0 .03-.03.03 0 .03-.06.09-.09.09l-.03-.03c-.03-.03-.03-.06-.03-.09l-.09.21.06.15v.03c-.03 0-.06-.03-.09-.06l-.09-.06.06.36c0 .06 0 .09-.03.12-.03.06-.06.09-.06.12h.03c.03.03.06.06.06.09s0 .03-.03.03c-.03.03-.06.09-.06.18l-.12.42-.36 1.29c-.03.15-.06.24-.09.27l-.24.78c-.39 1.47-.69 2.43-.87 2.88-.12.39-.21.63-.3.72-.03 0-.03 0-.03.03-.03.03-.03.06-.03.09s-.15.42-.45 1.11v.03h-.03c0 .03-.03.09-.03.09-.03.03-.03.06-.03.09l-1.02 2.37c0 .03-.03.09-.06.15l-.03.06-.03.15c-.03.03-.03.06-.06.15-.03 0-.09.15-.24.42-.12.27-.18.42-.18.48 0 .03-.06.15-.15.33l-.09.18c-.03.03-.06.09-.06.12l.03.03-.12.18c-.15.27-.21.39-.21.42-.03.09-.09.12-.09.12v.09c0 .15-.12.21-.12.3 0 .03-.06.15-.15.3-.06.09-.09.18-.09.21 0 .15-.24.81-.75 1.98l-.9 2.22c-.75 1.98-1.14 3.33-1.14 4.08v.15c.06.42.15.69.27.81.09.15.21.24.36.3l.27.18c.03.03.12.09.33.18.15.06.36.09.63.09zm5.58-20.07c-.03 0-.03-.15 0-.24s.03-.12.03-.15c.03-.03.03-.06.06-.06h.06l-.06-.12.06-.12-.03-.06c.15-.15.21-.27.21-.39l-.03-.12c.03-.03.03-.03.06-.03l.03-.09.03-.03c0 .12-.06.36-.15.72-.06.09-.09.3-.09.3-.03.09-.03.15-.03.18l-.12.18-.03.03zm-3.51 9.66l.12-.3c.09-.21.15-.33.15-.42l.06-.12c.06-.03.27-.48.66-1.32.39-.81.57-1.29.6-1.41.15-.33.24-.48.27-.48.03 0 .06 0 .06.03l-.09.06.03.03c0 .03-.03.06-.06.09l-.03.09v.12c-.03 0-.06.03-.06.09 0 .09-.03.12-.06.15-.06.09-.12.24-.18.45-.03.09-.06.15-.06.18 0 .09-.03.15-.09.15-.03.03-.06.09-.06.15s-.03.09-.06.09-.06.06-.09.21l-.03.06c-.03.21-.18.36-.18.39 0 .09-.06.09-.09.18-.09.03-.12.06-.12.15v.03c-.15.3-.21.48-.21.57v.06h-.09c-.03 0-.03.03-.03.06h.06v.06l-.03.06-.06-.03c-.03 0-.03 0-.03.03v.06c.06.09.12.12.18.12l.09.03-.06.03-.18-.03-.03-.06h-.03c-.03 0-.06.03-.06.06l.03.15h-.12v.03c0 .27-.12.24-.12.15zm-3 8.85c.09-.69.21-1.29.36-1.83.06-.3.12-.45.21-.48.03-.03.06-.03.06-.06l-.03-.03c-.03 0-.03-.03-.03-.06s.03-.06.09-.09c.03-.03.03-.06.03-.09-.06 0-.09-.03-.09-.06l.03-.03c.21-.06.3-.27.3-.63l.09-.27c.09-.09.21-.27.36-.54.09-.24.06-.24.03-.24h-.06c0-.09.03-.15.06-.21.03-.03.03-.06.06-.06 0-.09 0-.12.03-.15 0-.03.03-.09.06-.15.03 0 .03 0 .03.03v.03l.09-.09c0-.03.03-.09.06-.12l-.06-.06-.06-.06.12-.15c.03-.03.06-.12.06-.21v-.06c.03 0 .03 0 .03.03l.03.03.03.03h.06v-.06c0-.06 0-.12-.03-.18l-.03-.03.12.03-.06-.12c.06 0 .09 0 .09-.03v-.03l-.03-.15c0-.09.03-.12.06-.12s.03.06.03.15c.03 0 .06-.09.12-.24l.3-.75.3-.54.06-.12-.21.54-.03.15c-.12.27-.18.42-.18.45l-1.05 2.61c-.27.21-.6 1.14-.99 2.76l-.06.3c-.03.03-.09.24-.21.63-.117.303-.179.498-.2.583l-.004.013.054-.266zm5.16-15.36l.021-.021.009-.009c.06-.03.09-.06.09-.12v-.03l-.03.03c-.03 0-.03 0-.03-.03 0-.09.03-.18.09-.27.03-.03.06-.06.12-.06l-.06-.09c0-.06.06-.18.15-.33.12-.21.06-.21.15-.3.03 0 .03-.03.03-.12l-.03-.15.03-.03h.09v-.06c0-.03.12-.09.12-.18l-.03-.15c0-.03 0-.03.03-.06.06-.06.15-.18.24-.39.09-.33.18-.51.21-.57.03-.03.03-.03.06-.03v.03c0-.06.06-.09.18-.09.09.03.15.06.15.09l-.09.03c-.06 0-.18.27-.33.84l-.21.75s-.18.48-.21.51l-.45 1.2c-.27.75-.48 1.23-.6 1.47l-.12.24c-.03.06-.03.09-.03.12-.03.03-.06.06-.06.09s-.03.09-.06.12c-.03 0-.03.03-.03.09l-.06.12c-.06.03-.09.06-.09.09 0 .09-.06.3-.15.63l-.03.09c0 .03 0 .06-.03.06s-.06.03-.09.12c-.03.03-.12.27-.18.57l-.21.39-.12.24c-.03.12-.06.18-.09.18s-.09.06-.18.18l-.03.12h.06l.06-.03c-.03.12-.03.18-.06.21l-.12.06.028-.088-.088.148c-.03.09-.03.18-.03.27l-.09-.06.03.21c0 .06 0 .09-.03.09l-.06-.06c-.06 0-.09.03-.09.09l.06.09-.06.12.03.06c-.03 0-.03 0-.03.03l-.016.016-.044.044.03-.12c-.03 0-.09.06-.18.15 0 .09-.03.18-.06.27-.09.15-.12.27-.12.33l.03.03.06-.03c0 .03 0 .06-.03.12l-.09-.06c-.03 0-.09.06-.12.15l-.21.66.03.03.12-.18v.03l-.09.18c0 .03 0 .03-.03.03l-.06-.03c-.03 0-.03.03-.03.06l-.06.12c-.03.09-.03.15-.03.18l.03.12c0 .09-.06.27-.18.54-.03.12-.09.21-.12.27v.18c0 .03-.03.03-.12.03l.21-.51.12-.48c-.06.03-.15.18-.24.45-.03.09-.03.18-.03.24 0 .09-.15.12-.15.33l.03.06h-.06c-.03 0-.09.21-.18.6-.03.21-.06.3-.09.33h-.03v-.15c-.03 0-.09.12-.15.33v.12c.03 0 .06 0 .06.03l.03.06-.09-.03c-.09 0-.15.09-.15.21l.03.12-.06.39h-.12s.06-.12.06-.15c.03-.03.03-.12.03-.15-.03 0-.09.15-.18.42-.03.09-.03.15-.03.24 0-.06.03-.12.09-.18.03-.03.03-.06.06-.06l-.06.12c-.03.24-.18.15-.21.24-.03.06-.03.12-.03.21l.03.03c-.12 0-.12 0-.15.15l.03.03.03-.03c.03 0 .03.03 0 .15l-.09-.09-.03.09.03.21-.03-.03-.006.006-.045.045-.039.039-.09.21c-.03.09-.06.15-.06.21l.03.06.09-.09-.09.42c-.03.03-.06.06-.09.06s-.03 0-.03.03l.03.15c-.03 0-.06-.03-.06-.12l.18-.33-.03-.03c-.03 0-.09.03-.15.12-.09.12-.12.21-.12.27 0 .03 0 .06.03.09s.06.03.06.06c0-.03-.24.24-.18.24l-.03.06c-.03 0-.03.03-.03.06 0 .09.03.12.09.12l.06-.03-.03.03c-.09.09-.18.42-.27.99l-.001.239-.02-.089c-.009-.06-.009-.12-.009-.18l-.06-.3c0-.21.03-.42.06-.57v-.15c0-.03.03-.03.06-.06s.03-.09.03-.24l.15-.48.09-.12h-.03l-.03-.03c-.03 0-.03 0-.06-.03l-.06-.03v-.03l.06.03c.03 0 .03-.03.06-.09l.06-.24c.03-.09.06-.21.12-.33.03-.15.06-.24.06-.33 0-.03 0-.06-.03-.09.03 0 .15-.21.33-.63l.54-1.44c.09-.21.12-.36.12-.42l-.06.03c-.03 0-.03 0-.03-.03.03-.03.06-.06.09-.06s.06-.03.12-.12c.18-.39.27-.63.3-.72v-.18l-.03-.15.03-.06h.03v.18c.03 0 .09-.09.18-.27.06-.15.09-.24.09-.33l-.03-.03-.06.06-.03-.06c.03-.06.06-.09.09-.09.06 0 .15-.15.27-.45.09-.24.15-.39.15-.42l-.03-.06.06-.09s.03-.03.06-.09.03-.09.03-.12 0-.06-.03-.06l-.06.06v-.06l.06-.03.03.03.06-.03-.06-.12c.12 0 .21-.09.21-.18h-.03l-.12.06c-.03 0-.03 0-.03-.03l.03-.06c.03-.03.03-.03.06-.03.12-.09.18-.18.18-.27v-.06l-.03-.03h.06c.03 0 .06-.03.09-.06.03-.06.03-.12.03-.15l-.06-.18c0-.03 0-.03.03-.06h.06c.06 0 .09-.03.09-.06s0-.09.03-.12l.06-.06v-.03c0-.03-.03-.06-.06-.06l-.03.03c0-.03.03-.06.06-.09h.09c.03 0 .03 0 .03-.03v-.09c0-.06 0-.09.03-.12h.09l-.06-.09.09-.09-.03-.06.06-.03c.03 0 .03-.03.03-.06v-.09l.06-.06c.03-.03.03-.06.03-.12l-.03-.03.12-.06c0-.03 0-.06.03-.09 0-.03 0-.03.03-.03s.03-.06.03-.15c0-.18.06-.3.18-.33h.06l-.06-.03-.03-.06c.03-.09.03-.12.03-.12.03-.03.03-.03.06-.03l.06.03-.03-.15.03-.06c.03 0 .03-.03.03-.09 0-.03.03-.09.12-.15.09-.09.12-.15.12-.21l-.03-.03c.03 0 .03 0 .03-.03h.03c.03 0 .03-.03.06-.09v-.03l-.09.03.06-.12c.03-.03.03-.06.03-.06l.03-.06c.03 0 .03 0 .06-.03.036-.108.05-.194.07-.26l.02-.056-.09.136c.09-.33.18-.21.21-.33.03-.03.03-.12.03-.15.03-.15.06-.21.09-.21s.03 0 .06-.03l-.06-.09c0-.09.09-.21.24-.42.15-.15.21-.27.21-.3l-.06-.03c-.03 0 0 0-.09.21l-.03.03c0-.03.03-.12.12-.3.06-.15.09-.24.12-.24l-.06.21s.03-.03.09-.12v-.15l-.03-.03h.06c.03 0 .09-.06.12-.15v-.12h-.03zm10.41 5.4c.06-.03.12-.12.15-.27l.03-.09.15-.24.48-.99c.27-.57.39-.93.42-1.02l.03-.18c0-.15-.09-.06-.18-.27l-.03-.03c-.03-.06-.09-.09-.12-.09l-.21.03c-.09 0-.12-.03-.12-.06s.03-.06.12-.09l.12-.06v-.03c-.06-.03-.15-.03-.24-.03-.12 0-.27-.03-.42-.12-.09-.03-.15-.09-.15-.12-.03-.06-.06-.09-.09-.09-.09 0-.06.24-.09.33-.03 0-.09.12-.18.39-.03.15-.06.33-.15.51v.03c-.06.09-.09.21-.09.33l-.09.24c-.09.12-.15.42-.24.9-.03.18-.03.33-.03.45l.03.15c.03.03.06.03.09.03s.09.03.12.03c.09 0 .15.06.18.18 0 .12.03.18.06.18h.45zm-.93 8.34c.15 0 .3-.03.39-.06.09-.06.21-.09.33-.09.09 0 .18-.03.27-.09.03-.06.09-.09.12-.09.09-.03.27-.18.54-.42.6-.54 1.14-1.11 1.62-1.74 0-.03.03-.06.06-.06s.18-.18.45-.51c.09-.09.18-.24.33-.51l.12-.21c.03-.15.15-.33.33-.6.21-.24.3-.39.3-.48 0-.03.06-.12.15-.27.09-.12.15-.21.15-.27-.03-.09-.09-.15-.12-.18h-.03v.09h-.03l-.12-.12c-.03-.03-.06-.06-.09-.06l-.06.09c-.03.03-.06.03-.12.03-.09-.03-.12-.06-.12-.09.03 0 .09-.09.12-.09.03-.03.06-.03.06-.06l-.15-.06c-.03 0-.09.03-.15.09l-.96.99c-.33.33-.63.66-.87.96-.93 1.02-1.53 1.65-1.83 1.89-.18.12-.27.21-.27.27l.06.03c.03 0 .12-.06.24-.15s.21-.12.27-.12c0 .06-.12.18-.39.39-.09.06-.18.09-.21.09-.42.09-.66.15-.75.24-.09.09-.15.15-.18.15l-.27-.06c-.03-.03-.06-.12-.06-.33 0-.51.03-.84.06-.96 0-.03.09-.24.12-.33l.45-1.89c.12-.39.21-.66.27-.78.15-.39.27-.63.3-.78.06-.15.09-.27.09-.36 0-.15-.03-.3-.12-.39-.09-.12-.15-.18-.24-.18-.03 0-.12-.03-.24-.09-.03 0-.03 0-.03-.03l-.06-.06.18.03c.03 0 .06-.03.06-.06 0-.06-.03-.09-.09-.09-.21 0-.36 0-.42-.03-.03-.03-.06-.06-.06-.09s-.03-.06-.09-.06c-.09 0-.15.03-.18.12v.15c-.03.03-.06.09-.06.12-.03.03-.09.15-.09.18s-.06.24-.21.6l-.21.48c-.09.3-.12.45-.15.48-.15.3-.3 1.05-.48 2.28-.09.51-.12.84-.12.99.03.39.06.66.15.84.06.18.21.36.42.51l.3.24.45.36c.21.15.48.21.87.21zm1.38-1.89l.03-.12c0-.03-.03-.03-.06-.03-.06 0-.12.03-.15.06-.03 0-.06.03-.15.09 0-.09.45-.57 1.32-1.5.36-.39.54-.63.54-.66 0-.03.21-.24.6-.66.39-.45.63-.69.75-.75.03-.03.12-.06.24-.06.03 0 .06.03.06.06l-.6.69c0 .09-.39.57-1.17 1.47l-.66.75c-.03.03-.18.18-.51.45-.15.15-.21.21-.24.21zm.6 0c.03-.27.12-.42.21-.45.21-.15.6-.6 1.17-1.29.21-.21.42-.45.6-.69l.12-.09c.09-.12.18-.18.24-.18 0 .03 0 .06-.03.06-.03.03-.09 0-.12.12l-.18.27-.63.75c-.63.75-.99 1.14-1.08 1.14-.09.03-.21.15-.3.36zm5.67 3c.57 0 1.14-.03 1.77-.09.57-.06 1.02-.15 1.32-.24.12-.03.21-.03.27-.03.06 0 .12-.03.15-.06 0-.09.18-.12.54-.15l-.36.18.24-.06c.15 0 .27-.03.36-.09.03-.03.09-.03.24-.03.06 0 .18-.03.36-.12.12-.09.3-.15.57-.18.51-.09.96-.27 1.38-.51.15-.09.24-.15.24-.18 0 0 .03-.06.03-.09s0-.06.03-.06c0-.03-.03-.03-.09-.03l.15-.27c0-.09-.06-.15-.18-.24-.09-.12-.18-.18-.27-.18-.03 0-.09 0-.12.03l-.09.09c0 .03-.03.03-.06.03l-.03-.03c-.03 0-.03 0-.03.03-.03.03-.15.06-.36.15-.24.03-.39.09-.48.12-.33.03-.48.09-.51.12-.03.03-.36 0-.57.12l-.12-.06c-.21.03-.36.06-.45.06-.06 0-.18.03-.36.09-.21.06-.3.09-.3.12l-.09.03-.36-.06c-.03 0-.06.03-.09.06s-.06.06-.09.06-.03 0-.06.03c0 .03-.24.09-.75.12-.21.06-.45.09-.69.09-.27 0-.6.03-.93.09-.12-.03-.45-.06-.99-.06l-.63.03c-.15 0-.24-.03-.24-.06l.03-.03c.06-.12.27-.33.63-.63l.3-.24c.12-.09.18-.15.18-.18 0-.06.06-.12.21-.21l.45-.42.03.03c.03 0 .06-.03.15-.12.12-.09.24-.18.36-.24s.3-.21.54-.45c.18-.15.3-.24.33-.24.03 0 .12-.06.27-.21l.18-.24c0-.03.03-.03.09-.03s.09-.03.12-.06c.03 0 .03 0 .03-.03s.03-.06.06-.06c.15 0 .66-.36 1.56-1.05 1.17-.93 1.86-1.68 2.07-2.28V38c.03-.09.06-.15.06-.24 0-.15-.06-.27-.18-.33-.09-.03-.12-.09-.12-.12 0-.15-.12-.33-.39-.57-.39-.27-.69-.39-.84-.39l-.03.03c-.15-.06-.57-.09-1.23-.09-.78 0-1.23.03-1.35.06l-.69.12c-.3.03-.6.06-.87.12l-.93.15.48-.03-.12.03h.48c-.27.06-.45.09-.6.09l-.45.09c-.06 0-.09-.03-.12-.06l-.06-.06c0 .12-.03.21-.09.27-.06.09-.12.18-.15.27l-.03.48c0 .09 0 .12.03.15l.09.06c.06.15.12.21.21.21s.18-.03.27-.06l.39-.09c.12-.03.18-.03.21-.06l.3-.12c.15-.03.36-.06.6-.15.36-.03.54-.06.54-.09s.15-.03.42-.06.42-.06.45-.09c.06-.03.81-.06 2.22-.06 0 .21-.27.51-.78.96-.15.09-.33.24-.6.48-.33.33-.57.51-.72.6-.09.09-.18.15-.24.18l-.24.18c0 .03-.03.06-.06.06h-.03c-.06.06-.12.12-.18.15-.9.66-1.71 1.29-2.46 1.92-1.08.9-1.62 1.44-1.62 1.59 0 .06-.03.09-.06.09s-.09.09-.15.24c-.03.09-.06.21-.06.3 0 .06.06.24.21.57.03.09.03.15.03.18 0 .12.06.24.15.33 0 .03.03.09.09.12.03.03.06.09.06.12s.15.09.42.18c.09.03.18.06.27.06.06 0 .12.03.21.06.12.09.57.15 1.32.15zm3.99-9.3c-.33 0-.51-.03-.51-.06.12-.24.57-.18.6-.15v.06c0 .03 0 .03.03.03s.09-.03.12-.12l.06.12h.09c.24 0 .36.12-.39.12zm-4.2.51h-.06c.06-.03.12-.03.15-.03.03-.03.12-.06.15-.06l.09-.06c.03 0 .09 0 .12-.03l.09-.03-.66.06-.03-.03h.03c.27-.09.48-.12.63-.12.42-.09.81-.18 1.14-.21.09 0 .18 0 .27-.03l.12-.06.15-.03c.09 0 .12-.03.12-.12l.09.12c.03.03.09.03.12.03 0 .03.03.03.06.03h.03l.03-.03v-.09l.03-.03c.09 0 .15 0 .15.03v.06c0 .03.03.03.06.03.06 0 .09-.03.09-.06s.09-.06.3-.06v.03h.15c.15 0 .21.03.21.06-.06.09-.12.12-.15.12s-.06-.06-.15-.06c-.12.03-.27.06-.42.06-.18 0-.3.03-.39.06-.72.09-1.08.15-1.08.18-.06.03-.18.06-.39.09-.06 0-.15 0-.3.03l-.75.15zm2.52 0l-.27-.03c0-.03.15-.06.48-.09.57-.06.93-.09 1.14-.09.3 0 .45.03.45.06-.03.03-.18.06-.39.09-.72.03-1.2.06-1.41.06zm-1.59 3.9c.12 0 .18 0 .21-.03v-.09l-.03-.03.09-.09v.06l-.03.03.03.03c.03 0 .12-.03.21-.12s.12-.15.12-.21c0-.03.03-.06.12-.09s.12.03.33-.18c.06-.12.18-.21.33-.24.09-.03.21-.09.36-.21.03-.03.06-.09.06-.12-.03 0-.06 0-.06-.03.03-.06.09-.09.21-.09l.15-.06c.72-.63 1.17-.96 1.32-.96.03 0 .06.03.06.06 0 .12-.18.33-.51.6-.03 0-.03 0-.03.03-.21.21-.3.12-.33.24-.03.09-.06.12-.15.12l-.06.03c0 .03-.21.15-.24.15l.03.12h-.06c-.03.03-.06.06-.09.15s-.06.12-.09.12l-.03-.03.09-.12c-.15.06-.24.12-.24.18s-.03.09-.12.09-.15.06-.21.18c-.06.09-.18.15-.33.24-.15.03-.21.06-.21.15V41c0 .12-.06.03-.45.3-.06.06-.09.12-.09.15s-.09.12-.27.24l.18-.24c-.33.15-.48.27-.48.36 0 .12-.06.18-.18.18-.06 0-.12.06-.21.15-.15.15-.24.21-.3.21l-.03.03c-.03.03-.03.03-.03.06l.03.06c-.27 0-.51.15-.66.45l.15-.09c-.09.12-.15.18-.21.18-.09 0-.24.09-.51.3-.18 0-.21.24-.33.36l-.03-.03c0 .27-.06-.09-.3.33-.03.03-.06.09-.06.15l.03.12-.12-.12c-.03 0-.09.03-.12.09-.12.15-.15.21-.15-.12 0-.15.03-.06.24-.3.3-.36.48-.54.51-.54.03 0 .18-.12.39-.39l.24-.27c.06-.09.12-.15.15-.24l.03-.03v.06h.03l.18-.09c.03-.03.03-.06.06-.06l.09-.06.06-.06v-.03c-.03-.03-.03-.03-.03-.06l.15-.03c.09-.06.15-.15.15-.24l.12.06c.09-.09.15-.15.18-.15.09 0 .18-.24.3-.24.06 0 .09-.03.09-.12.096 0 .154-.02.173-.042l.007-.018c-.03 0-.06 0-.06-.03s.03-.06.06-.06h.06c0-.03.03-.06.06-.09zm-2.76 3.57l.03-.03.03-.06c.03-.06.3-.36.84-.93l.212-.212c.255-.254.394-.388.418-.388v.03l.09-.06c.27-.27.81-.66 1.56-1.2.27-.21.42-.33.45-.39l.18-.15c.09-.03.12-.06.15-.09 0 0 .06-.06.09-.06.06-.03.09-.03.12-.03l.24-.21c.09-.09.18-.15.24-.15l.03.03c.03-.03.03-.06.03-.12 0-.03.03-.09.12-.15.12-.03.12 0 .21-.12.06-.06.12-.09.15-.09s.09-.03.15-.09c0-.06.03-.09.12-.09l.06.03c0 .03-.09.12-.24.21s-.21.15-.21.24l-.12-.03c-.03 0-.03.03-.03.09s-.03.09-.09.12c-.09.06-.15.12-.15.15v.03c0 .03-.03.03-.09.03-.03 0-.15.06-.36.21-.21.18-.33.27-.33.3l-.27.24-.45.36c-.03.03-.06.03-.15.06-.12 0-.06.15-.18.15s-.27.24-.39.24c-.06 0-.48.33-1.26 1.02l-.51.48c-.42.42-.66.63-.69.63zm-.42-.78c0-.09.27-.42.81-.96.27-.27.45-.42.57-.45 0 0-.15.15-.45.42l-.23.23c-.278.279-.436.442-.46.49l-.24.27zm7.38.57h-.06c.15-.09.39-.15.66-.24.57-.15.99-.21 1.26-.21.06 0 .12-.03.15-.09l.09-.06.03.06c0 .06-.12.15-.39.24-.15.06-.24.12-.24.15-.06.03-.12.03-.15.03-.06 0-.12 0-.18.03l-.12.06c-.03 0-.12 0-.15.03-.06 0-.09-.03-.09-.06l-.06-.06v.06c0 .03-.03.03-.09.03-.12 0-.33 0-.66.03zm-4.5 1.11l-.51-.03c-.06-.03-.09-.06-.09-.12 0-.03.03-.06.12-.09h.06l-.12.09c.09 0 .21 0 .36-.03 0-.03.18-.03.57-.03.48 0 1.26-.09 2.37-.27l.12-.03-.09.15.03.03c.03-.06.12-.09.27-.09.33-.09.63-.15.96-.18l.27-.06c.33-.06.6-.12.84-.21.03-.06.09-.09.24-.09l.75-.24.33-.03c0 .06-.24.18-.69.36-.18.06-.39.12-.66.15-.18.06-1.02.24-2.52.54-.81.12-1.68.18-2.61.18zm.99-.39c-.51 0-.75-.03-.75-.06l.03-.03h.12c.03 0 .06 0 .06-.03h.03l.03-.03h.09c.09.03.24.03.45.03.15 0 .24 0 .24.03-.09.06-.21.09-.3.09z" transform="translate(-1262 -26) translate(1262 26) rotate(-6 76.525 36.53)"/>
            </g>
        </g>
    </g>
</svg>
