<?xml version="1.0" encoding="UTF-8"?>
<svg width="409px" height="41px" viewBox="0 0 409 41" version="1.1" xmlns="http://www.w3.org/2000/svg" xmlns:xlink="http://www.w3.org/1999/xlink">
    <title>LAURELGOWN</title>
    <g id="final-copy" stroke="none" stroke-width="1" fill="none" fill-rule="evenodd">
        <path d="M26.105,40 L26.105,32.19 L25.555,32.19 L25.555,33.675 C25.555,36.535 22.75,39.45 19.89,39.45 L7.845,39.45 L7.845,2.05 L12.96,2.05 L12.96,1.5 L0.2,1.5 L0.2,2.05 L4.765,2.05 L4.765,39.45 L0.2,39.45 L0.2,40 L26.105,40 Z M39.5407143,40 L39.5407143,39.45 L36.9007143,39.45 C35.3057143,39.45 34.1507143,37.69 34.1507143,35.93 C34.1507143,35.545 34.2057143,34.995 34.3707143,34.61 L37.7807143,25.37 L53.1807143,25.37 L58.6257143,39.45 L54.0057143,39.45 L54.0057143,40 L64.5107143,40 L64.5107143,39.45 L61.8157143,39.45 L47.3507143,1.5 L46.0857143,1.5 L31.8407143,39.45 L29.0907143,39.45 L29.0907143,40 L39.5407143,40 Z M53.0157143,24.875 L37.9457143,24.875 L45.4257143,4.91 L53.0157143,24.875 Z M85.9214286,40.55 C93.7314286,40.55 98.9014286,36.315 98.9014286,26.91 L98.9014286,6.01 C98.9014286,4.03 100.771429,2.05 102.641429,2.05 L103.906429,2.05 L103.906429,1.5 L92.1364286,1.5 L92.1364286,2.05 L94.5564286,2.05 C96.4814286,2.05 98.3514286,4.03 98.3514286,6.01 L98.3514286,26.91 C98.3514286,35.875 93.4564286,39.945 86.3064286,39.945 C80.3664286,39.945 75.1414286,36.865 75.1414286,26.91 L75.1414286,2.05 L79.6514286,2.05 L79.6514286,1.5 L67.5514286,1.5 L67.5514286,2.05 L72.0614286,2.05 L72.0614286,26.91 C72.0614286,36.315 78.4414286,40.55 85.9214286,40.55 Z M137.362143,40.385 C140.662143,40.385 141.597143,38.625 141.597143,35.93 L141.597143,33.51 L141.047143,33.51 L141.047143,35.93 C141.047143,38.295 140.442143,39.395 138.572143,39.395 C136.977143,39.395 136.482143,38.295 136.482143,35.985 C136.482143,24.105 133.182143,20.86 127.572143,20.255 C134.722143,19.265 137.692143,15.855 137.692143,10.795 C137.692143,5.02 133.787143,1.5 123.062143,1.5 L108.597143,1.5 L108.597143,2.05 L113.107143,2.05 L113.107143,39.45 L108.597143,39.45 L108.597143,40 L121.247143,40 L121.247143,39.45 L116.187143,39.45 L116.187143,20.475 L123.447143,20.475 C131.477143,20.475 133.292143,22.895 133.292143,35.93 C133.292143,38.68 134.722143,40.385 137.362143,40.385 Z M123.447143,19.925 L116.187143,19.925 L116.187143,2.05 L122.457143,2.05 C131.532143,2.05 134.337143,5.02 134.337143,10.795 C134.337143,16.515 132.302143,19.925 123.447143,19.925 Z M173.457857,40 L173.457857,32.74 L172.907857,32.74 L172.907857,33.84 C172.907857,36.81 170.102857,39.45 167.132857,39.45 L153.712857,39.45 L153.712857,20.09 L161.962857,20.09 C164.052857,20.09 165.867857,21.96 165.867857,24.105 L165.867857,24.985 L166.417857,24.985 L166.417857,14.645 L165.867857,14.645 L165.867857,15.58 C165.867857,17.67 164.052857,19.54 161.962857,19.54 L153.712857,19.54 L153.712857,2.05 L167.077857,2.05 C169.827857,2.05 172.357857,4.47 172.357857,7.11 L172.357857,8.21 L172.907857,8.21 L172.907857,1.5 L146.122857,1.5 L146.122857,2.05 L150.632857,2.05 L150.632857,39.45 L146.122857,39.45 L146.122857,40 L173.457857,40 Z M205.483571,40 L205.483571,32.19 L204.933571,32.19 L204.933571,33.675 C204.933571,36.535 202.128571,39.45 199.268571,39.45 L187.223571,39.45 L187.223571,2.05 L192.338571,2.05 L192.338571,1.5 L179.578571,1.5 L179.578571,2.05 L184.143571,2.05 L184.143571,39.45 L179.578571,39.45 L179.578571,40 L205.483571,40 Z M255.580714,40.55 C260.750714,40.55 265.425714,37.415 266.085714,32.245 C266.745714,33.125 268.340714,37.8 268.340714,40.055 L268.835714,40.055 L268.835714,21.575 L273.015714,21.575 L273.015714,21.025 L256.735714,21.025 L256.735714,21.575 L265.755714,21.575 L265.755714,30.155 C265.755714,36.535 261.080714,40 255.580714,40 C246.890714,40 242.545714,33.345 242.545714,20.86 C242.545714,8.155 247.440714,1.5 256.130714,1.5 C262.730714,1.5 267.460714,6.45 268.230714,12.72 L268.780714,12.72 L268.780714,1.445 L268.340714,1.445 C268.340714,2.49 266.910714,4.305 265.590714,4.305 C265.260714,4.305 264.875714,4.195 264.600714,3.92 C262.675714,2.27 259.980714,0.95 256.130714,0.95 C246.340714,0.95 239.190714,7.935 239.190714,20.86 C239.190714,33.565 245.790714,40.55 255.580714,40.55 Z M296.351429,40.55 C306.196429,40.55 313.346429,33.565 313.346429,20.86 C313.346429,7.935 306.196429,0.95 296.351429,0.95 C286.561429,0.95 279.411429,7.935 279.411429,20.86 C279.411429,33.565 286.561429,40.55 296.351429,40.55 Z M296.351429,40 C287.661429,40 282.766429,33.345 282.766429,20.86 C282.766429,8.155 287.661429,1.5 296.351429,1.5 C305.096429,1.5 309.991429,8.155 309.991429,20.86 C309.991429,33.345 305.096429,40 296.351429,40 Z M337.232143,40 L344.767143,19.87 L352.467143,40 L353.787143,40 L368.032143,2.05 L370.782143,2.05 L370.782143,1.5 L360.277143,1.5 L360.277143,2.05 L362.642143,2.05 C364.292143,2.05 365.722143,3.425 365.722143,5.46 C365.722143,6.065 365.612143,6.725 365.337143,7.44 L354.447143,36.37 L341.247143,2.05 L345.372143,2.05 L345.372143,1.5 L335.087143,1.5 L335.087143,2.05 L338.002143,2.05 L344.382143,18.88 L337.892143,36.37 L324.692143,2.05 L328.927143,2.05 L328.927143,1.5 L318.752143,1.5 L318.752143,2.05 L321.447143,2.05 L335.912143,40 L337.232143,40 Z M403.687857,40.11 L403.687857,5.955 C403.687857,4.03 405.447857,2.05 407.262857,2.05 L408.362857,2.05 L408.362857,1.5 L396.977857,1.5 L396.977857,2.05 L399.452857,2.05 C401.267857,2.05 403.082857,4.03 403.082857,5.955 L403.082857,34.445 L381.412857,1.5 L374.152857,1.5 L374.152857,2.05 L377.782857,2.05 L378.882857,3.48 L378.882857,35.545 C378.882857,37.525 377.122857,39.45 375.307857,39.45 L374.152857,39.45 L374.152857,40 L385.592857,40 L385.592857,39.45 L383.062857,39.45 C381.302857,39.45 379.432857,37.47 379.432857,35.545 L379.432857,4.14 L403.137857,40.11 L403.687857,40.11 Z" id="LAURELGOWN" fill="#F99393" fill-rule="nonzero"></path>
    </g>
</svg>