<?xml version="1.0" encoding="UTF-8"?>
<svg width="306px" height="41px" viewBox="0 0 306 41" version="1.1" xmlns="http://www.w3.org/2000/svg" xmlns:xlink="http://www.w3.org/1999/xlink">
    <title>LILYGOWN</title>
    <g id="final-copy" stroke="none" stroke-width="1" fill="none" fill-rule="evenodd">
        <path d="M26.105,40 L26.105,32.19 L25.555,32.19 L25.555,33.675 C25.555,36.535 22.75,39.45 19.89,39.45 L7.845,39.45 L7.845,2.05 L12.96,2.05 L12.96,1.5 L0.2,1.5 L0.2,2.05 L4.765,2.05 L4.765,39.45 L0.2,39.45 L0.2,40 L26.105,40 Z M42.9507143,40 L42.9507143,39.45 L38.4407143,39.45 L38.4407143,2.05 L42.9507143,2.05 L42.9507143,1.5 L30.8507143,1.5 L30.8507143,2.05 L35.3607143,2.05 L35.3607143,39.45 L30.8507143,39.45 L30.8507143,40 L42.9507143,40 Z M74.0414286,40 L74.0414286,32.19 L73.4914286,32.19 L73.4914286,33.675 C73.4914286,36.535 70.6864286,39.45 67.8264286,39.45 L55.7814286,39.45 L55.7814286,2.05 L60.8964286,2.05 L60.8964286,1.5 L48.1364286,1.5 L48.1364286,2.05 L52.7014286,2.05 L52.7014286,39.45 L48.1364286,39.45 L48.1364286,40 L74.0414286,40 Z M92.8121429,40 L92.8121429,39.45 L88.3021429,39.45 L88.3021429,20.475 L101.667143,2.05 L104.032143,2.05 L104.032143,1.5 L92.4821429,1.5 L92.4821429,2.05 L95.2321429,2.05 C96.8271429,2.05 98.1471429,3.425 98.1471429,4.91 C98.1471429,5.405 97.9821429,5.955 97.5971429,6.45 L87.9721429,19.87 L75.9271429,2.05 L80.4921429,2.05 L80.4921429,1.5 L69.4371429,1.5 L69.4371429,2.05 L72.0221429,2.05 L85.2221429,21.575 L85.2221429,39.45 L80.7121429,39.45 L80.7121429,40 L92.8121429,40 Z M152.919286,40.55 C158.089286,40.55 162.764286,37.415 163.424286,32.245 C164.084286,33.125 165.679286,37.8 165.679286,40.055 L166.174286,40.055 L166.174286,21.575 L170.354286,21.575 L170.354286,21.025 L154.074286,21.025 L154.074286,21.575 L163.094286,21.575 L163.094286,30.155 C163.094286,36.535 158.419286,40 152.919286,40 C144.229286,40 139.884286,33.345 139.884286,20.86 C139.884286,8.155 144.779286,1.5 153.469286,1.5 C160.069286,1.5 164.799286,6.45 165.569286,12.72 L166.119286,12.72 L166.119286,1.445 L165.679286,1.445 C165.679286,2.49 164.249286,4.305 162.929286,4.305 C162.599286,4.305 162.214286,4.195 161.939286,3.92 C160.014286,2.27 157.319286,0.95 153.469286,0.95 C143.679286,0.95 136.529286,7.935 136.529286,20.86 C136.529286,33.565 143.129286,40.55 152.919286,40.55 Z M193.69,40.55 C203.535,40.55 210.685,33.565 210.685,20.86 C210.685,7.935 203.535,0.95 193.69,0.95 C183.9,0.95 176.75,7.935 176.75,20.86 C176.75,33.565 183.9,40.55 193.69,40.55 Z M193.69,40 C185,40 180.105,33.345 180.105,20.86 C180.105,8.155 185,1.5 193.69,1.5 C202.435,1.5 207.33,8.155 207.33,20.86 C207.33,33.345 202.435,40 193.69,40 Z M234.570714,40 L242.105714,19.87 L249.805714,40 L251.125714,40 L265.370714,2.05 L268.120714,2.05 L268.120714,1.5 L257.615714,1.5 L257.615714,2.05 L259.980714,2.05 C261.630714,2.05 263.060714,3.425 263.060714,5.46 C263.060714,6.065 262.950714,6.725 262.675714,7.44 L251.785714,36.37 L238.585714,2.05 L242.710714,2.05 L242.710714,1.5 L232.425714,1.5 L232.425714,2.05 L235.340714,2.05 L241.720714,18.88 L235.230714,36.37 L222.030714,2.05 L226.265714,2.05 L226.265714,1.5 L216.090714,1.5 L216.090714,2.05 L218.785714,2.05 L233.250714,40 L234.570714,40 Z M301.026429,40.11 L301.026429,5.955 C301.026429,4.03 302.786429,2.05 304.601429,2.05 L305.701429,2.05 L305.701429,1.5 L294.316429,1.5 L294.316429,2.05 L296.791429,2.05 C298.606429,2.05 300.421429,4.03 300.421429,5.955 L300.421429,34.445 L278.751429,1.5 L271.491429,1.5 L271.491429,2.05 L275.121429,2.05 L276.221429,3.48 L276.221429,35.545 C276.221429,37.525 274.461429,39.45 272.646429,39.45 L271.491429,39.45 L271.491429,40 L282.931429,40 L282.931429,39.45 L280.401429,39.45 C278.641429,39.45 276.771429,37.47 276.771429,35.545 L276.771429,4.14 L300.476429,40.11 L301.026429,40.11 Z" id="LILYGOWN" fill="#000000" fill-rule="nonzero"></path>
    </g>
</svg>