<svg xmlns="http://www.w3.org/2000/svg" width="294" height="49" viewBox="0 0 294 49">
    <g fill="none" fill-rule="evenodd">
        <g fill="#000" fill-rule="nonzero">
            <g>
                <path d="M2.285 109.77c1.328 1.074 3.1 1.518 5.318 1.333 2.216-.186 4.165-.494 5.844-.923l2.168-.381 3.047-.615 8.262-1.524.703-.41c-.273-.352-1.768-.425-4.482-.22-2.715.205-4.742.415-6.08.63-1.337.215-2.758.484-4.262.806-1.504.322-2.91.566-4.219.732-1.309.166-2.393.176-3.252.03-.86-.147-1.558-.616-2.095-1.407-.537-.79-.532-2.68.015-5.669.547-2.988 1.91-6.909 4.087-11.762 2.178-4.854 3.94-8.882 5.288-12.085 1.348-3.203 2.598-5.82 3.75-7.852-1.172-2.168-2.1-2.129-2.783.117-.274 1.035-1.236 3.384-2.886 7.046-1.65 3.662-3.555 8.008-5.713 13.037-2.158 5.03-3.413 8.892-3.765 11.587-.351 2.696-.356 4.531-.014 5.508.342.977.698 1.65 1.07 2.022zm32.557 1.26c.43.058.932-.391 1.508-1.348.576-.957 1.402-2.803 2.476-5.537.117.918.669 1.875 1.655 2.87.986.997 2.197 1.339 3.633 1.026 1.436-.312 2.495-.81 3.179-1.494.683-.684.918-1.06.703-1.128-.215-.068-.581.102-1.099.513-.517.41-1.299.727-2.344.952-1.044.224-2.08-.078-3.105-.908-1.025-.83-1.558-2.27-1.597-4.322.82-1.875 1.372-3.066 1.656-3.574.283-.508.78-1.528 1.494-3.061.713-1.534 1.538-3.457 2.475-5.772.938-2.314 1.773-4.595 2.505-6.84.733-2.247 1.28-3.97 1.64-5.172.362-1.2.684-2.456.968-3.764.283-1.309.42-2.574.41-3.794-.01-1.22-.288-2.017-.835-2.388-.528-.39-1.192-.195-1.992.586-.801.781-1.724 2.27-2.769 4.468-1.045 2.197-1.934 4.419-2.666 6.665-.732 2.246-1.377 4.302-1.934 6.167-.556 1.865-1.132 4.458-1.728 7.778-.596 3.32-.884 6.045-.864 8.174-1.23 3.086-2.1 5.21-2.608 6.372s-.879 1.519-1.113 1.07c-.234-.45-.444-.953-.63-1.51-.185-.556-.62-1.205-1.304-1.948l3.575-1.728c-.118-.488-.347-.801-.689-.938-.342-.136-.727-.044-1.157.279-.43.322-1.07.678-1.92 1.069-.849.39-1.425.586-1.728.586-.302 0-.454.215-.454.644 1.114.88 1.885 1.92 2.315 3.12.43 1.202.82 1.968 1.172 2.3.351.332.742.528 1.172.586zm4.892-13.243c.176-1.055.381-2.197.615-3.428.235-1.23.542-2.656.923-4.277s1.006-3.809 1.875-6.562c.87-2.754 1.646-5.079 2.33-6.973.683-1.914 1.435-3.574 2.255-4.98.82-1.407 1.319-2.09 1.494-2.051.235.097.152.854-.249 2.27-.4 1.416-.927 3.3-1.582 5.654-.654 2.354-1.323 4.444-2.007 6.27-.683 1.826-1.464 3.887-2.343 6.182-.88 2.295-1.519 3.867-1.92 4.716-.4.85-.864 1.91-1.39 3.18zm14.1 11.983c1.328 1.074 3.1 1.518 5.317 1.333 2.217-.186 4.165-.494 5.845-.923l2.168-.381 3.046-.615 8.262-1.524.703-.41c-.273-.352-1.767-.425-4.482-.22-2.715.205-4.741.415-6.08.63-1.337.215-2.758.484-4.262.806-1.504.322-2.91.566-4.219.732-1.308.166-2.392.176-3.252.03-.86-.147-1.557-.616-2.094-1.407-.538-.79-.533-2.68.014-5.669.547-2.988 1.91-6.909 4.087-11.762 2.178-4.854 3.94-8.882 5.288-12.085 1.348-3.203 2.598-5.82 3.75-7.852-1.172-2.168-2.1-2.129-2.783.117-.273 1.035-1.235 3.384-2.886 7.046-1.65 3.662-3.554 8.008-5.713 13.037-2.158 5.03-3.413 8.892-3.764 11.587-.352 2.696-.357 4.531-.015 5.508.342.977.698 1.65 1.07 2.022zm28.147 3.837c-.362.918-.196 1.114.498.586.693-.527 1.367-1.377 2.021-2.548.654-1.172 1.299-2.34 1.934-3.501.634-1.163 1.738-3.228 3.31-6.197 1.573-2.968 3.535-6.562 5.889-10.781 2.353-4.219 4.487-8.13 6.401-11.733 1.914-3.604 3.35-6.329 4.307-8.174.957-1.846 1.357-3.13 1.201-3.853-.156-.722-.45-1.172-.879-1.347-.41-.176-.947.102-1.611.835-.664.732-1.24 1.513-1.729 2.343-.488.83-.918 1.826-1.289 2.989-.37 1.162-.669 2.168-.893 3.017-.225.85-.81 1.695-1.758 2.534-.947.84-2.139 1.763-3.574 2.769-1.436 1.006-2.779 1.767-4.029 2.285-1.25.518-2.109.586-2.578.205-.468-.38-.918-1.313-1.347-2.798-.41-1.855-.66-3.09-.747-3.706-.088-.615-.24-1.21-.455-1.787-.214-.576-.585-.976-1.113-1.201-.527-.225-.888-.054-1.084.513.332.332.635 1.289.908 2.87.664 3.614 1.377 5.938 2.14 6.973.76 1.036 1.679 1.475 2.753 1.319 1.074-.156 2.651-.83 4.731-2.022 2.08-1.191 3.765-2.51 5.054-3.955C90.71 96.31 85.275 106.37 83.74 109.424l-.143.288c-.13.263-.22.453-.268.57-.537 1.3-.986 2.407-1.347 3.325zM103.323 73.5c.606-1.855 1.348-3.428 2.227-4.717.059.43-.684 2.002-2.227 4.717zm26.002 36.27c-.176.957-.054 1.367.366 1.23s.747-.615.981-1.436c1.954-.351 3.956-.869 6.006-1.552 2.051-.684 3.94-1.348 5.67-1.992 1.728-.645 3.031-1.182 3.91-1.612.88-.43 2.564-1.426 5.054-2.988 2.49-1.563 4.585-3.364 6.284-5.405 1.7-2.041 2.676-4.073 2.93-6.094.254-2.022.112-3.877-.425-5.567-.537-1.689-1.401-3.417-2.593-5.185-1.191-1.768-2.685-3.32-4.482-4.658-1.797-1.338-3.652-2.422-5.566-3.252-1.915-.83-3.53-1.367-4.85-1.612-1.317-.244-3.256-.444-5.815-.6-2.539-.176-5.102-.059-7.69.351s-4.492.855-5.713 1.333c-1.22.479-2.29 1.1-3.208 1.86-.918.763-1.289 1.837-1.113 3.223.254 1.036.835 1.695 1.743 1.978.908.283 1.104-.04.586-.967-.518-.928-.61-1.606-.278-2.036.898-.918 1.748-1.562 2.548-1.934.801-.37 1.958-.737 3.472-1.098 1.514-.361 3.296-.615 5.347-.762 2.05-.146 4.004-.127 5.86.059 1.855.185 3.974.625 6.357 1.318 2.382.693 4.658 1.914 6.826 3.662 2.168 1.748 3.76 3.53 4.775 5.347 1.016 1.816 1.65 3.35 1.904 4.6.254 1.25.318 2.563.19 3.94-.126 1.377-.76 2.768-1.903 4.175-1.143 1.406-2.354 2.651-3.633 3.735-1.28 1.084-2.671 2.09-4.175 3.018-1.504.927-3.589 1.963-6.255 3.105-2.666 1.143-6.382 2.398-11.147 3.765.742-3.164 1.338-5.791 1.787-7.881.449-2.09.884-4.136 1.303-6.138.42-2.002.86-4.145 1.319-6.43.459-2.286 1.01-4.751 1.655-7.398.645-2.646.635-4.307-.03-4.98-.663-.674-1.108-.606-1.332.205-.024.085-.049.179-.075.28l-.083.332c-.218.892-.512 2.255-.882 4.09-.469 2.324-.928 4.56-1.377 6.709-.45 2.148-.874 4.272-1.275 6.372-.4 2.1-.859 4.556-1.377 7.368-.517 2.813-.932 5.38-1.245 7.705-2.695.313-4.975.352-6.84.117-1.866-.234-2.408-.044-1.626.572.78.615 1.61.986 2.49 1.113.879.127 1.728.176 2.549.146.82-.029 1.845-.073 3.076-.131zm39.851 4.716c.352-.156.586-.307.703-.454.117-.146.303-.503.557-1.07.762-3.3 1.333-6.112 1.714-8.437l.79-4.819c.147-.889.445-2.954.894-6.196 4.043 2.949 6.914 5.19 8.614 6.723 1.699 1.534 4.033 3.35 7.001 5.45 2.97 2.1 5.938 3.579 8.907 4.438 1.23.098 1.308-.185.234-.85-.8-.273-1.973-.864-3.516-1.772-1.542-.908-3.476-2.256-5.8-4.043-2.325-1.787-4.741-3.71-7.251-5.771-2.51-2.061-5.152-4-7.925-5.816.137-.879.273-1.68.41-2.402 1.348-.313 3.086-.894 5.215-1.743 2.129-.85 3.799-1.636 5.01-2.359 1.21-.722 2.378-1.655 3.5-2.798 1.124-1.142 1.93-2.133 2.418-2.973.488-.84.766-1.69.835-2.55.068-.858.029-1.552-.118-2.08-.146-.526-.473-1.151-.981-1.874-.508-.723-1.343-1.406-2.505-2.05-1.162-.645-2.67-1.104-4.526-1.378-1.856-.273-3.848-.43-5.977-.469-.293-1.074-.683-1.66-1.172-1.757-.488-.118-.683.048-.586.498v.85l-.117.702c-.722.215-1.504.464-2.344.747-.84.284-1.855.762-3.046 1.436-1.192.674-1.9 1.245-2.124 1.714-.225.469-.337.879-.337 1.23 0 .352.068.62.205.806.136.185.327.586.571 1.201.244.615.552 1.304.923 2.066.39-.352.508-.757.351-1.216l-.63-1.846c-.263-.771-.082-1.411.543-1.919s1.264-.933 1.918-1.274c.655-.342 1.939-.796 3.853-1.363-.586 3.73-.977 6.138-1.172 7.222-.195 1.084-.405 2.402-.63 3.955l-.052.365-.11.77c-.189 1.328-.403 2.878-.643 4.651-1.68.332-3.013.552-4 .66-.986.107-1.933.18-2.841.22-.908.038-1.353.243-1.333.614.02.371.244.82.674 1.348.507 0 1.064-.049 1.67-.146.957 0 2.011.244 3.164.732l1.933 1.025c-.508 3.79-.986 7.041-1.435 9.756-.45 2.715-.86 5.01-1.23 6.885-.372 1.875-.694 3.457-.968 4.746l.498.615h.264zm5.684-27.04c.273-1.837.493-3.33.659-4.483l.239-1.661.132-.924.215-1.502.16-1.115.14-.987.227-1.59c.127-.888.347-2.319.66-4.291 1.425-.137 2.997-.088 4.716.146 1.719.234 3.003.488 3.853.762.85.273 1.743.703 2.68 1.289.86 1.055 1.328 1.86 1.407 2.417.078.556-.01 1.23-.264 2.021-.254.791-.786 1.665-1.597 2.622-.81.957-1.792 1.87-2.944 2.74-1.152.869-2.642 1.709-4.468 2.52-1.826.81-3.765 1.488-5.815 2.035zm-2.49 3.31c-.294-.156-.684-.322-1.172-.498.43-.098.859-.205 1.289-.322l-.118.82zm34.782 20.156c2.364.098 5.05.098 8.057 0 4.102-.43 7.969-1.426 11.602-2.988.664-.43.302-.576-1.084-.44-2.305.293-4.307.616-6.006.967-1.7.352-4.56.674-8.584.967-3.067-.04-4.976-.117-5.728-.234-.752-.118-1.44-.264-2.065-.44-.88-.605-1.201-1.387-.967-2.344l.38-.908c.567-.879 1.031-1.553 1.392-2.021.362-.469 1.06-1.28 2.095-2.432 1.094-1.074 2.315-2.197 3.662-3.37 1.348-.956 2.412-1.757 3.194-2.401.78-.645 1.65-1.28 2.607-1.905 1.348-.82 2.598-1.65 3.75-2.49 1.25-.898 2.666-1.787 4.248-2.666.781-.43 1.25-.908 1.406-1.436-.078-.742-.44-1.19-1.084-1.347-.625-.04-1.21-.02-1.757.058-1.094.079-2.286.206-3.575.381l-2.636.117c-1.934-.02-3.311-.078-4.131-.175-.82-.098-1.719-.293-2.696-.586-.878-.528-1.337-1.138-1.377-1.831-.039-.694.162-1.49.601-2.388.44-.898 1.226-2.017 2.358-3.354 1.133-1.338 2.452-2.408 3.956-3.209 2.07-1.171 3.745-1.972 5.024-2.402 1.28-.43 2.46-.747 3.545-.952 1.084-.205 2.173-.298 3.266-.278 1.465-.04 2.344.468 2.637 1.523.235.977.557 1.465.967 1.465.156-.059.322-.303.498-.732v-1.202c-.098-.605-.288-1.079-.571-1.42-.283-.342-.64-.62-1.07-.835l-1.582-.557h-1.757c-1.075.117-1.86.205-2.359.264-.498.058-1.528.302-3.09.732-1.583.488-3.067 1.103-4.454 1.846-2.324 1.132-4.375 2.46-6.152 3.984l-1.524 1.963c-.957 1.582-1.543 3.018-1.757 4.307l-.088 1.2c.176 1.505.82 2.51 1.933 3.018 1.016.47 2.344.752 3.985.85 1.601.039 2.998.049 4.19.03h1.991c1.504-.098 2.637-.206 3.399-.323l.967-.147c-.43.274-.977.645-1.641 1.114-.8.547-1.602 1.054-2.402 1.523-1.797 1.074-2.935 1.763-3.413 2.066-.479.302-.914.6-1.304.893-.39.293-1.04.762-1.948 1.406-.909.645-2.1 1.553-3.575 2.725-1.474 1.172-2.505 2.065-3.09 2.68-.586.616-1.187 1.285-1.802 2.008-.615.722-1.314 1.689-2.095 2.9-.371.625-.664 1.475-.879 2.549 0 1.386.43 2.46 1.29 3.222 1.132.606 2.88.957 5.243 1.055zm28.191.176c1.407.078 3.028-.044 4.864-.366 1.836-.323 3.594-.855 5.273-1.597 1.68-.742 3.208-1.606 4.585-2.593 1.377-.986 2.598-2.094 3.662-3.325 1.065-1.23 1.739-2.275 2.022-3.135.283-.86.239-1.675-.132-2.446-.371-.772-.781-1.392-1.23-1.86-.45-.47-1.011-.992-1.685-1.568-.674-.576-1.338-1.123-1.992-1.64-.655-.518-1.607-1.324-2.857-2.417-1.25-1.094-2.431-2.369-3.545-3.824-1.113-1.455-1.88-2.7-2.3-3.735-.42-1.035-.532-2.266-.336-3.691.195-1.426.927-2.769 2.197-4.029 1.27-1.26 3.08-2.28 5.434-3.061 2.354-.781 4.605-1.216 6.753-1.304 2.149-.088 3.653.376 4.512 1.392 1.309.976 1.758 2.373 1.348 4.19-.938 1.894-2.764 3.827-5.479 5.8 0 .195.254.215.762.058 1.426-.488 2.695-1.357 3.809-2.607 1.113-1.25 1.806-2.187 2.08-2.812.683-.88.854-1.914.512-3.106-.341-1.191-1.147-2.222-2.417-3.09-1.27-.87-2.968-1.295-5.097-1.275-2.13.02-4.053.283-5.772.79-1.719.509-3.213 1.09-4.482 1.744-1.27.654-2.276 1.323-3.018 2.007-.742.683-1.362 1.411-1.86 2.183-.498.771-.816 1.738-.952 2.9-.137 1.162-.005 2.515.395 4.058.4 1.542 1.201 3.027 2.403 4.453 1.2 1.425 2.534 2.793 3.999 4.101 2.46 2.11 4.252 3.638 5.376 4.585 1.123.947 1.684 1.91 1.684 2.886 0 .976-.679 2.28-2.036 3.911-1.357 1.63-3.389 3.12-6.094 4.468-2.705 1.347-5.44 2.104-8.203 2.27-2.764.166-5.073-.122-6.929-.864-.351-.781-.673-1.26-.966-1.435-.293-.215-.464-.2-.513.043-.049.245-.068.63-.059 1.158.01.527.269 1.03.777 1.508.507.479 1.2.791 2.08.938.879.146 2.021.259 3.427.337zm30.154 0c1.407.078 3.028-.044 4.864-.366 1.836-.323 3.594-.855 5.273-1.597 1.68-.742 3.208-1.606 4.585-2.593 1.377-.986 2.598-2.094 3.662-3.325 1.065-1.23 1.739-2.275 2.022-3.135.283-.86.239-1.675-.132-2.446-.371-.772-.781-1.392-1.23-1.86-.45-.47-1.011-.992-1.685-1.568-.674-.576-1.338-1.123-1.992-1.64-.655-.518-1.607-1.324-2.857-2.417-1.25-1.094-2.431-2.369-3.545-3.824-1.113-1.455-1.88-2.7-2.3-3.735-.42-1.035-.532-2.266-.336-3.691.195-1.426.927-2.769 2.197-4.029 1.27-1.26 3.08-2.28 5.434-3.061 2.354-.781 4.605-1.216 6.753-1.304 2.149-.088 3.653.376 4.512 1.392 1.309.976 1.758 2.373 1.348 4.19-.938 1.894-2.764 3.827-5.479 5.8 0 .195.254.215.762.058 1.426-.488 2.695-1.357 3.809-2.607 1.113-1.25 1.806-2.187 2.08-2.812.683-.88.854-1.914.512-3.106-.341-1.191-1.147-2.222-2.417-3.09-1.27-.87-2.968-1.295-5.097-1.275-2.13.02-4.053.283-5.772.79-1.719.509-3.213 1.09-4.482 1.744-1.27.654-2.276 1.323-3.018 2.007-.742.683-1.362 1.411-1.86 2.183-.498.771-.816 1.738-.952 2.9-.137 1.162-.005 2.515.395 4.058.4 1.542 1.201 3.027 2.403 4.453 1.2 1.425 2.534 2.793 3.999 4.101 2.46 2.11 4.252 3.638 5.376 4.585 1.123.947 1.684 1.91 1.684 2.886 0 .976-.679 2.28-2.036 3.911-1.357 1.63-3.389 3.12-6.094 4.468-2.705 1.347-5.44 2.104-8.203 2.27-2.764.166-5.073-.122-6.929-.864-.351-.781-.673-1.26-.966-1.435-.293-.215-.464-.2-.513.043-.049.245-.068.63-.059 1.158.01.527.269 1.03.777 1.508.507.479 1.2.791 2.08.938.879.146 2.021.259 3.427.337z" transform="translate(-824 -353) translate(824 287)"/>
            </g>
        </g>
    </g>
</svg>
