<?xml version="1.0" encoding="UTF-8"?>
<svg width="477px" height="59px" viewBox="0 0 477 59" version="1.1" xmlns="http://www.w3.org/2000/svg" xmlns:xlink="http://www.w3.org/1999/xlink">
    <title>MARIGOLDDRESS</title>
    <g id="final-copy" stroke="none" stroke-width="1" fill="none" fill-rule="evenodd">
        <path d="M27.1835938,53.8671875 C27.359375,54.2773438 27.6572266,54.3652344 28.0771484,54.1308594 C28.4970703,53.8964844 28.7607422,52.9833984 28.8681641,51.3916016 C28.9755859,49.7998047 29.1171875,48.4228516 29.2929688,47.2607422 C29.46875,46.0986328 29.6396484,44.8974609 29.8056641,43.6572266 C29.9716797,42.4169922 30.2255859,40.8789062 30.5673828,39.0429688 C30.9091797,37.2070312 31.3681641,35.0537109 31.9443359,32.5830078 C32.5205078,30.1123047 32.9794922,28.2128906 33.3212891,26.8847656 C33.6630859,25.5566406 34.1074219,23.7744141 34.6542969,21.5380859 C35.2011719,19.3017578 35.8017578,16.9873047 36.4560547,14.5947266 C37.1103516,12.2021484 37.6621094,10.4394531 38.1113281,9.30664062 C38.5605469,8.17382812 39.1074219,6.94335938 39.7519531,5.61523438 C40.3964844,4.28710938 41.0410156,3.33496094 41.6855469,2.75878906 C42.3300781,2.18261719 42.28125,1.65039062 41.5390625,1.16210938 C40.8164062,0.654296875 40.1669922,0.78125 39.5908203,1.54296875 C39.0146484,2.3046875 38.609375,2.95898438 38.375,3.50585938 C38.140625,4.05273438 37.7695312,4.73632812 37.2617188,5.55664062 C36.4804688,7.04101562 35.8798828,8.203125 35.4599609,9.04296875 C35.0400391,9.8828125 34.078125,11.4501953 32.5742188,13.7451172 C31.0703125,16.0400391 29.8007813,17.8759766 28.765625,19.2529297 C27.7304688,20.6298828 26.7685547,21.9189453 25.8798828,23.1201172 C24.9912109,24.3212891 24.1074219,25.4833984 23.2285156,26.6064453 C22.3496094,27.7294922 21.5097656,28.7353516 20.7089844,29.6240234 C19.9082031,30.5126953 19.3613281,30.9375 19.0683594,30.8984375 C18.5605469,29.375 18.1357422,27.8125 17.7939453,26.2109375 C17.4521484,24.609375 17.0175781,23.5546875 16.4902344,23.046875 C15.9628906,22.5390625 15.3867188,22.2851562 14.7617188,22.2851562 C14.2539062,21.0351562 13.9023437,20.1708984 13.7070312,19.6923828 C13.5117188,19.2138672 13.0576172,18.8427734 12.3447266,18.5791016 C11.6318359,18.3154297 11.03125,18.1835938 10.5429688,18.1835938 C10.0546875,18.1835938 9.81054688,18.4082031 9.81054688,18.8574219 C9.81054688,19.6582031 10.09375,20.3320312 10.6601562,20.8789062 C11.1484375,20.78125 11.4951172,20.6933594 11.7001953,20.6152344 C11.9052734,20.5371094 12.1054688,20.546875 12.3007812,20.6445312 C12.4960937,20.7421875 12.7060547,21.5722656 12.9306641,23.1347656 C13.1552734,24.6972656 13.1259766,26.2792969 12.8427734,27.8808594 C12.5595703,29.4824219 12.0126953,31.0986328 11.2021484,32.7294922 C10.3916016,34.3603516 9.41503906,35.8203125 8.27246094,37.109375 C7.12988281,38.3984375 6.00683594,39.296875 4.90332031,39.8046875 C3.79980469,40.3125 3.04785156,40.1416016 2.64746094,39.2919922 C2.24707031,38.4423828 2.03222656,37.4609375 2.00292969,36.3476562 C1.97363281,35.234375 2.13964844,33.9257812 2.50097656,32.421875 C2.86230469,30.9179687 3.16015625,29.7363281 3.39453125,28.8769531 L3.39453125,28.8769531 L2.72070313,29.2285156 C1.93945313,30.4980469 1.37304688,31.8994141 1.02148438,33.4326172 C0.669921875,34.9658203 0.5625,36.4453125 0.69921875,37.8710938 C0.8359375,39.296875 1.28027344,40.3564453 2.03222656,41.0498047 C2.78417969,41.7431641 3.609375,42.0556641 4.5078125,41.9873047 C5.40625,41.9189453 6.37792969,41.5283203 7.42285156,40.8154297 C8.46777344,40.1025391 9.42480469,39.2041016 10.2939453,38.1201172 C11.1630859,37.0361328 11.96875,35.7568359 12.7109375,34.2822266 C13.453125,32.8076172 13.9951172,31.40625 14.3369141,30.078125 C14.6787109,28.75 14.8984375,26.71875 14.9960938,23.984375 C15.8164063,26.8164062 16.4023438,28.8378906 16.7539062,30.0488281 C17.1054688,31.2597656 17.5107422,32.1240234 17.9697266,32.6416016 C18.4287109,33.1591797 18.9804688,33.3105469 19.625,33.0957031 C21.0898438,32.1386719 22.2373047,31.1083984 23.0673828,30.0048828 C23.8974609,28.9013672 24.7568359,27.8222656 25.6455078,26.7675781 C26.5341797,25.7128906 27.4912109,24.4482422 28.5166016,22.9736328 C29.5419922,21.4990234 30.484375,20.1025391 31.34375,18.7841797 C32.203125,17.4658203 33.1992188,15.8203125 34.3320312,13.8476562 C33.8242188,15.703125 33.3164062,17.7148438 32.8085938,19.8828125 C32.3007812,22.0507812 31.8613281,23.8183594 31.4902344,25.1855469 C31.1191406,26.5527344 30.6259766,28.6376953 30.0107422,31.4404297 C29.3955078,34.2431641 28.8779297,36.7578125 28.4580078,38.984375 C28.0380859,41.2109375 27.7255859,43.2714844 27.5205078,45.1660156 C27.3154297,47.0605469 27.203125,49.3457031 27.1835938,52.0214844 L27.1835938,52.0214844 L27.1835938,53.8671875 Z M59.359096,54.4238281 C59.6911272,54.3847656 59.9255022,54.2285156 60.062221,53.9550781 L60.062221,53.9550781 L60.1501116,53.1347656 C60.2282366,51.6113281 60.296596,50.2050781 60.3551897,48.9160156 C60.4333147,48.3886719 60.4967913,47.8076172 60.5456194,47.1728516 C60.5944475,46.5380859 60.7067522,45.5517578 60.8825335,44.2138672 C61.0583147,42.8759766 61.2389788,41.40625 61.4245257,39.8046875 C61.6100725,38.203125 61.8297991,36.8066406 62.0837054,35.6152344 C63.2165179,35.5175781 64.7106585,35.4101562 66.5661272,35.2929688 C69.202846,35.0195312 70.8239397,34.7558594 71.4294085,34.5019531 C72.0348772,34.2480469 72.0592913,34.0429688 71.5026507,33.8867188 C70.94601,33.7304688 70.1110491,33.671875 68.9977679,33.7109375 C67.8844866,33.75 66.7223772,33.7988281 65.5114397,33.8574219 C64.3005022,33.9160156 63.3337054,33.9648438 62.6110491,34.0039062 L62.6110491,34.0039062 L62.2301897,34.0039062 L62.2301897,33.8867188 C62.3473772,33.1054688 62.4401507,32.4609375 62.50851,31.953125 C62.5768694,31.4453125 62.7233538,30.5615234 62.9479632,29.3017578 C63.1725725,28.0419922 63.4704241,26.3671875 63.8415179,24.2773438 C64.2126116,22.1875 64.593471,20.4003906 64.984096,18.9160156 C65.3356585,17.2753906 65.8044085,15.5175781 66.390346,13.6425781 C66.6833147,12.6464844 67.405971,11.2988281 68.5583147,9.59960938 L68.5583147,9.59960938 L68.5583147,8.95507812 C68.2848772,8.56445312 67.8161272,8.30078125 67.1520647,8.1640625 C66.7614397,8.61328125 66.4489397,9.11621094 66.2145647,9.67285156 C65.9801897,10.2294922 65.4723772,11.2304688 64.6911272,12.6757812 C63.4801897,14.7460938 62.6549944,16.1425781 62.2155413,16.8652344 C61.7760882,17.5878906 61.155971,18.5742188 60.3551897,19.8242188 C58.9880022,21.8164062 57.9821429,23.2666016 57.3376116,24.1748047 C56.6930804,25.0830078 55.921596,26.171875 55.0231585,27.4414062 C54.124721,28.7109375 53.44601,29.6533203 52.9870257,30.2685547 C52.5280413,30.8837891 51.9714007,31.6162109 51.3171038,32.4658203 C50.6628069,33.3154297 49.671596,34.4433594 48.343471,35.8496094 C46.2536272,36.3183594 44.6471819,36.6455078 43.524135,36.8310547 C42.4010882,37.0166016 41.5075335,37.1337891 40.843471,37.1826172 C40.1794085,37.2314453 39.7204241,37.2558594 39.4665179,37.2558594 C39.2126116,37.2558594 39.0172991,37.3242188 38.8805804,37.4609375 C38.8805804,38.3984375 39.5446429,38.8671875 40.8727679,38.8671875 C41.3415179,38.8671875 41.5758929,38.9550781 41.5758929,39.1308594 C42.9040179,39.2089844 44.0661272,39.4238281 45.062221,39.7753906 C43.4801897,41.4550781 42.2985491,42.6074219 41.5172991,43.2324219 C40.7360491,43.8574219 39.9450335,44.3652344 39.1442522,44.7558594 C38.343471,45.1464844 37.9430804,45.4394531 37.9430804,45.6347656 C38.0016741,46.3378906 38.5094866,46.6894531 39.4665179,46.6894531 C41.8883929,45.0292969 43.524135,43.7792969 44.3737444,42.9394531 C45.2233538,42.0996094 46.0680804,41.2402344 46.9079241,40.3613281 C47.9430804,40.7324219 49.0172991,41.1914062 50.1305804,41.7382812 C51.5954241,42.6757812 52.6940569,43.5107422 53.4264788,44.2431641 C54.1589007,44.9755859 54.7985491,45.6835938 55.3454241,46.3671875 C55.8922991,47.0507812 56.4440569,47.8662109 57.0006975,48.8134766 C57.5573382,49.7607422 57.9137835,50.390625 58.0700335,50.703125 C58.2262835,51.015625 58.3337054,51.3476562 58.3922991,51.6992188 C58.4508929,52.6953125 58.524135,53.3349609 58.6120257,53.6181641 C58.6999163,53.9013672 58.9489397,54.1699219 59.359096,54.4238281 Z M51.2731585,35.4101562 C52.1911272,34.3164062 53.4508929,32.65625 55.0524554,30.4296875 C55.6562257,29.5278533 56.1822403,28.7546151 56.6304991,28.1099731 L56.917819,27.6992631 C57.4694199,26.9159455 57.8827882,26.3612432 58.1579241,26.0351562 C58.6266741,25.2734375 59.0807757,24.5800781 59.5202288,23.9550781 C59.9596819,23.3300781 60.6579241,22.3144531 61.6149554,20.9082031 C62.0055804,20.3417969 62.5231585,19.5898438 63.1676897,18.6523438 L63.1676897,18.6523438 L63.2262835,18.6523438 L63.2262835,18.7109375 L62.874721,20.6738281 C62.5426897,22.1777344 62.3180804,23.1835938 62.2008929,23.6914062 C62.0837054,24.1992188 61.8883929,25.1660156 61.6149554,26.5917969 C61.4587054,27.7832031 61.3219866,28.8769531 61.2047991,29.8730469 L61.2047991,29.8730469 L60.530971,34.1503906 C59.3200335,34.3261719 58.1969866,34.4726562 57.1618304,34.5898438 C55.2087054,34.9023438 53.2458147,35.1757812 51.2731585,35.4101562 Z M58.7731585,49.6191406 C58.343471,48.7597656 57.952846,48.0273438 57.6012835,47.421875 C57.249721,46.8164062 56.8297991,46.2158203 56.3415179,45.6201172 C55.8532366,45.0244141 55.2282366,44.3603516 54.4665179,43.6279297 C53.7047991,42.8955078 52.9040179,42.2363281 52.0641741,41.6503906 C51.2243304,41.0644531 50.5407366,40.6542969 50.0133929,40.4199219 C49.4860491,40.1855469 48.6950335,39.8535156 47.640346,39.4238281 C48.3239397,38.7597656 48.9782366,38.0859375 49.6032366,37.4023438 C52.0641741,36.9726562 54.1051897,36.6601562 55.7262835,36.4648438 C57.1130022,36.25 58.3337054,36.0839844 59.3883929,35.9667969 L59.3883929,35.9667969 L60.296596,35.8789062 L60.062221,37.1972656 C59.8083147,39.1308594 59.6130022,40.6542969 59.4762835,41.7675781 C59.3395647,42.8808594 59.1930804,44.3359375 59.0368304,46.1328125 C58.9001116,47.5 58.812221,48.6621094 58.7731585,49.6191406 Z M45.8239397,38.8671875 C44.8473772,38.59375 44.3005022,38.4472656 44.1833147,38.4277344 L44.1833147,38.4277344 L44.1833147,38.3691406 C45.1794085,38.1152344 46.0876116,37.9296875 46.9079241,37.8125 C46.5758929,38.1445312 46.2145647,38.4960938 45.8239397,38.8671875 Z M76.2123326,53.4863281 C76.5638951,53.3300781 76.7982701,53.1787109 76.9154576,53.0322266 C77.0326451,52.8857422 77.218192,52.5292969 77.4720982,51.9628906 C78.233817,48.6621094 78.805106,45.8496094 79.1859654,43.5253906 C79.5668248,41.2011719 79.8304967,39.5947266 79.976981,38.7060547 C80.1234654,37.8173828 80.421317,35.7519531 80.8705357,32.5097656 C84.9135045,35.4589844 87.7845982,37.7001953 89.483817,39.2333984 C91.1830357,40.7666016 93.5170201,42.5830078 96.4857701,44.6826172 C99.4545201,46.7822266 102.42327,48.2617188 105.39202,49.1210938 C106.622489,49.21875 106.700614,48.9355469 105.626395,48.2714844 C104.825614,47.9980469 103.653739,47.4072266 102.11077,46.4990234 C100.567801,45.5908203 98.6342076,44.2431641 96.3099888,42.4560547 C93.9857701,40.6689453 91.5687779,38.7451172 89.0590123,36.6845703 C86.5492467,34.6240234 83.9076451,32.6855469 81.1342076,30.8691406 C81.2709263,29.9902344 81.4076451,29.1894531 81.5443638,28.4667969 C82.8920201,28.1542969 84.6303013,27.5732422 86.7592076,26.7236328 C88.8881138,25.8740234 90.5580357,25.0878906 91.7689732,24.3652344 C92.9799107,23.6425781 94.1469029,22.7099609 95.2699498,21.5673828 C96.3929967,20.4248047 97.1986607,19.4335938 97.686942,18.59375 C98.1752232,17.7539062 98.4535435,16.9042969 98.5219029,16.0449219 C98.5902623,15.1855469 98.5511998,14.4921875 98.4047154,13.9648438 C98.258231,13.4375 97.9310826,12.8125 97.4232701,12.0898438 C96.9154576,11.3671875 96.0804967,10.6835938 94.9183873,10.0390625 C93.7562779,9.39453125 92.2474888,8.93554688 90.3920201,8.66210938 C88.5365513,8.38867188 86.5443638,8.23242188 84.4154576,8.19335938 C84.1224888,7.11914063 83.7318638,6.53320313 83.2435826,6.43554688 C82.7553013,6.31835938 82.5599888,6.484375 82.6576451,6.93359375 L82.6576451,6.93359375 L82.6576451,7.78320313 L82.5404576,8.48632812 C81.8178013,8.70117188 81.0365513,8.95019531 80.1967076,9.23339844 C79.3568638,9.51660156 78.3412388,9.99511719 77.1498326,10.6689453 C75.9584263,11.3427734 75.2504185,11.9140625 75.0258092,12.3828125 C74.8011998,12.8515625 74.6888951,13.2617188 74.6888951,13.6132812 C74.6888951,13.9648438 74.7572545,14.2333984 74.8939732,14.4189453 C75.030692,14.6044922 75.2211217,15.0048828 75.4652623,15.6201172 C75.7094029,16.2353516 76.0170201,16.9238281 76.3881138,17.6855469 C76.7787388,17.3339844 76.8959263,16.9287109 76.7396763,16.4697266 C76.5834263,16.0107422 76.3734654,15.3955078 76.1097935,14.6240234 C75.8461217,13.8525391 76.0267857,13.2128906 76.6517857,12.7050781 C77.2767857,12.1972656 77.9164342,11.7724609 78.570731,11.4306641 C79.2250279,11.0888672 80.5092076,10.6347656 82.4232701,10.0683594 C81.8373326,13.7988281 81.4467076,16.2060547 81.2513951,17.2900391 C81.0560826,18.3740234 80.8461217,19.6923828 80.6215123,21.2451172 C80.6042346,21.3645583 80.586697,21.4862241 80.5688993,21.6101146 L80.4589926,22.3801544 C80.2706143,23.7080483 80.0562328,25.2584135 79.8158482,27.03125 C78.1361607,27.3632812 76.8031529,27.5830078 75.8168248,27.6904297 C74.8304967,27.7978516 73.883231,27.8710938 72.9750279,27.9101562 C72.0668248,27.9492188 71.6224888,28.1542969 71.6420201,28.5253906 C71.6615513,28.8964844 71.8861607,29.3457031 72.3158482,29.8730469 C72.8236607,29.8730469 73.3803013,29.8242188 73.9857701,29.7265625 C74.9428013,29.7265625 75.9974888,29.9707031 77.1498326,30.4589844 L77.1498326,30.4589844 L79.0834263,31.484375 C78.5756138,35.2734375 78.0970982,38.5253906 77.6478795,41.2402344 C77.1986607,43.9550781 76.7885045,46.25 76.4174107,48.125 C76.046317,50 75.7240513,51.5820312 75.4506138,52.8710938 L75.4506138,52.8710938 L75.9486607,53.4863281 L76.2123326,53.4863281 Z M81.8959263,26.4453125 C82.1693638,24.609375 82.3890904,23.1152344 82.555106,21.9628906 C82.7211217,20.8105469 82.9164342,19.4482422 83.1410435,17.8759766 C83.1971959,17.4829102 83.2502965,17.1112061 83.3003453,16.7608643 L83.4413365,15.7739258 C83.5292271,15.1586914 83.6049107,14.6289063 83.6683873,14.1845703 C83.7953404,13.2958984 84.015067,11.8652344 84.327567,9.89257813 C85.7533482,9.75585938 87.3256138,9.8046875 89.0443638,10.0390625 C90.7631138,10.2734375 92.0472935,10.5273438 92.8969029,10.8007813 C93.7465123,11.0742188 94.640067,11.5039063 95.577567,12.0898438 C96.436942,13.1445313 96.905692,13.9501953 96.983817,14.5068359 C97.061942,15.0634766 96.9740513,15.7373047 96.7201451,16.5283203 C96.4662388,17.3193359 95.9340123,18.1933594 95.1234654,19.1503906 C94.3129185,20.1074219 93.3314732,21.0205078 92.1791295,21.8896484 C91.0267857,22.7587891 89.5375279,23.5986328 87.711356,24.4091797 C85.8851842,25.2197266 83.9467076,25.8984375 81.8959263,26.4453125 Z M79.405692,29.7558594 C79.1127232,29.5996094 78.7220982,29.4335938 78.233817,29.2578125 C78.6635045,29.1601562 79.093192,29.0527344 79.5228795,28.9355469 L79.5228795,28.9355469 L79.405692,29.7558594 Z M111.698382,50.0292969 C112.128069,50.0878906 112.630999,49.6386719 113.207171,48.6816406 C113.783343,47.7246094 114.608538,45.8789062 115.682757,43.1445312 C115.799944,44.0625 116.351702,45.0195312 117.33803,46.015625 C118.324358,47.0117188 119.535296,47.3535156 120.970843,47.0410156 C122.40639,46.7285156 123.46596,46.2304688 124.149554,45.546875 C124.833147,44.8632812 125.067522,44.4873047 124.852679,44.4189453 C124.637835,44.3505859 124.271624,44.5214844 123.754046,44.9316406 C123.236468,45.3417969 122.455218,45.6591797 121.410296,45.8837891 C120.365374,46.1083984 119.330218,45.8056641 118.304827,44.9755859 C117.279436,44.1455078 116.74721,42.7050781 116.708147,40.6542969 C117.52846,38.7792969 118.080218,37.5878906 118.363421,37.0800781 C118.646624,36.5722656 119.144671,35.5517578 119.857561,34.0185547 C120.570452,32.4853516 121.395647,30.5615234 122.333147,28.2470703 C123.270647,25.9326172 124.105608,23.6523438 124.83803,21.40625 C125.570452,19.1601562 126.117327,17.4365234 126.478655,16.2353516 C126.839983,15.0341797 127.162249,13.7792969 127.445452,12.4707031 C127.728655,11.1621094 127.865374,9.89746094 127.855608,8.67675781 C127.845843,7.45605469 127.567522,6.66015625 127.020647,6.2890625 C126.493304,5.8984375 125.829241,6.09375 125.02846,6.875 C124.227679,7.65625 123.304827,9.14550781 122.259905,11.3427734 C121.214983,13.5400391 120.326311,15.7617188 119.59389,18.0078125 C118.861468,20.2539062 118.216936,22.3095703 117.660296,24.1748047 C117.103655,26.0400391 116.527483,28.6328125 115.93178,31.953125 C115.336077,35.2734375 115.047991,37.9980469 115.067522,40.1269531 C113.837054,43.2128906 112.967913,45.3369141 112.4601,46.4990234 C111.952288,47.6611328 111.581194,48.0175781 111.346819,47.5683594 C111.112444,47.1191406 110.902483,46.6162109 110.716936,46.0595703 C110.53139,45.5029297 110.096819,44.8535156 109.413225,44.1113281 L109.413225,44.1113281 L112.987444,42.3828125 C112.870257,41.8945312 112.640765,41.5820312 112.298968,41.4453125 C111.957171,41.3085938 111.571429,41.4013672 111.141741,41.7236328 C110.712054,42.0458984 110.072405,42.4023438 109.222796,42.7929688 C108.373186,43.1835938 107.797015,43.3789062 107.49428,43.3789062 C107.191546,43.3789062 107.040179,43.59375 107.040179,44.0234375 C108.15346,44.9023438 108.924944,45.9423828 109.354632,47.1435547 C109.784319,48.3447266 110.174944,49.1113281 110.526507,49.4433594 C110.878069,49.7753906 111.268694,49.9707031 111.698382,50.0292969 Z M116.59096,36.7871094 C116.766741,35.7324219 116.971819,34.5898438 117.206194,33.359375 C117.440569,32.1289062 117.748186,30.703125 118.129046,29.0820312 C118.509905,27.4609375 119.134905,25.2734375 120.004046,22.5195312 C120.873186,19.765625 121.649554,17.4414062 122.333147,15.546875 C123.016741,13.6328125 123.768694,11.9726562 124.589007,10.5664062 C125.409319,9.16015625 125.907366,8.4765625 126.083147,8.515625 C126.317522,8.61328125 126.234515,9.37011719 125.834124,10.7861328 C125.433733,12.2021484 124.90639,14.0869141 124.252093,16.4404297 C123.597796,18.7939453 122.92885,20.8837891 122.245257,22.7099609 C121.561663,24.5361328 120.780413,26.5966797 119.901507,28.8916016 C119.0226,31.1865234 118.382952,32.7587891 117.982561,33.6083984 C117.582171,34.4580078 117.118304,35.5175781 116.59096,36.7871094 Z M152.750837,58.0273437 C153.024275,58.3203125 153.4149,57.9736328 153.922712,56.9873047 C154.430525,56.0009766 154.928571,54.9072266 155.416853,53.7060547 C155.905134,52.5048828 156.549665,50.8984375 157.350446,48.8867187 C158.151228,46.875 158.844587,45.0244141 159.430525,43.3349609 C160.016462,41.6455078 160.372907,40.4541016 160.499861,39.7607422 C160.626814,39.0673828 160.744001,38.5107422 160.851423,38.0908203 C160.958845,37.6708984 161.007673,37.1435547 160.997907,36.5087891 C160.988142,35.8740234 160.831892,35.3662109 160.529157,34.9853516 C160.226423,34.6044922 159.865095,34.3261719 159.445173,34.1503906 C159.025251,33.9746094 158.522321,33.8867188 157.936384,33.8867188 C157.350446,33.8867188 156.744978,33.9501953 156.119978,34.0771484 C155.494978,34.2041016 154.577009,34.4335938 153.366071,34.765625 C152.155134,35.0976562 151.041853,35.4394531 150.026228,35.7910156 C149.010603,36.1425781 148.644392,36.5527344 148.927595,37.0214844 C149.210798,37.4902344 149.503767,37.7685547 149.806501,37.8564453 C150.109236,37.9443359 150.773298,37.7832031 151.798689,37.3730469 C152.824079,36.9628906 153.976423,36.5673828 155.25572,36.1865234 C156.535017,35.8056641 157.516462,35.6738281 158.200056,35.7910156 C158.785993,35.9472656 159.137556,36.2792969 159.254743,36.7871094 C159.137556,37.5683594 158.976423,38.4179688 158.771345,39.3359375 C158.566267,40.2539062 158.297712,41.3183594 157.965681,42.5292969 C157.418806,42.7246094 156.715681,42.9296875 155.856306,43.1445312 C154.996931,43.359375 153.854353,43.6230469 152.428571,43.9355469 C151.00279,44.2480469 149.303571,44.4824219 147.330915,44.6386719 C145.358259,44.7949219 143.4149,44.8144531 141.500837,44.6972656 C139.586775,44.5800781 138.170759,44.4091797 137.25279,44.1845703 C136.334821,43.9599609 135.490095,43.5595703 134.718611,42.9833984 C133.947126,42.4072266 133.366071,41.7138672 132.975446,40.9033203 C132.584821,40.0927734 132.291853,39.1748047 132.09654,38.1494141 C131.901228,37.1240234 131.867048,35.8837891 131.994001,34.4287109 C132.120954,32.9736328 132.335798,31.6601562 132.638532,30.4882812 C132.941267,29.3164062 133.273298,28.3105469 133.634626,27.4707031 C133.995954,26.6308594 134.357282,25.8349609 134.718611,25.0830078 C135.079939,24.3310547 135.524275,23.5644531 136.051618,22.7832031 C136.578962,22.0019531 137.169782,21.2158203 137.824079,20.4248047 C138.478376,19.6337891 139.19615,18.8525391 139.9774,18.0810547 C140.75865,17.3095703 141.705915,16.5380859 142.819196,15.7666016 C143.932478,14.9951172 145.333845,14.2333984 147.023298,13.4814453 C148.712751,12.7294922 150.2899,12.2265625 151.754743,11.9726562 C153.219587,11.71875 154.376814,11.6845703 155.226423,11.8701172 C156.076032,12.0556641 156.754743,12.3730469 157.262556,12.8222656 C157.770368,13.2714844 158.087751,13.8232422 158.214704,14.4775391 C158.341657,15.1318359 158.385603,15.8007812 158.34654,16.484375 C158.307478,17.1679687 158.214704,17.7783203 158.06822,18.3154297 C157.921736,18.8525391 157.921736,19.3603516 158.06822,19.8388672 C158.214704,20.3173828 158.439314,20.4394531 158.742048,20.2050781 C159.044782,19.9707031 159.342634,19.2138672 159.635603,17.9345703 C159.928571,16.6552734 160.045759,15.4443359 159.987165,14.3017578 C159.928571,13.1591797 159.205915,12.109375 157.819196,11.1523437 C156.432478,10.1953125 153.952009,9.98046875 150.37779,10.5078125 C148.97154,10.859375 147.662946,11.2744141 146.452009,11.7529297 C145.241071,12.2314453 144.220564,12.7001953 143.390486,13.1591797 C142.560407,13.6181641 141.62779,14.2236328 140.592634,14.9755859 C139.557478,15.7275391 138.556501,16.6210937 137.589704,17.65625 C136.622907,18.6914062 135.787946,19.6582031 135.084821,20.5566406 C134.381696,21.4550781 133.712751,22.4902344 133.077986,23.6621094 C132.44322,24.8339844 131.847517,26.2646484 131.290876,27.9541016 C130.734236,29.6435547 130.387556,31.9335937 130.250837,34.8242187 C130.328962,36.9921875 130.514509,38.6035156 130.807478,39.6582031 C131.100446,40.7128906 131.554548,41.6796875 132.169782,42.5585937 C132.785017,43.4375 133.517439,44.1064453 134.367048,44.5654297 C135.216657,45.0244141 136.115095,45.3759766 137.062361,45.6201172 C138.009626,45.8642578 139.982282,46.0107422 142.980329,46.0595703 C145.978376,46.1083984 148.595564,45.9277344 150.831892,45.5175781 C153.06822,45.1074219 155.309431,44.453125 157.555525,43.5546875 C157.340681,43.9648437 157.150251,44.3847656 156.984236,44.8144531 C156.81822,45.2441406 156.47154,46.1376953 155.944196,47.4951172 C155.416853,48.8525391 154.811384,50.4052734 154.12779,52.1533203 C153.444196,53.9013672 152.985212,55.5761719 152.750837,57.1777344 L152.750837,57.1777344 L152.750837,58.0273437 Z M178.037337,50.0258636 L178.510324,50.0146484 C180.248605,49.9462891 181.908761,49.5605469 183.490792,48.8574219 C185.072824,48.1542969 186.518136,47.34375 187.82673,46.4257812 C189.135324,45.5078125 190.282785,44.5263672 191.269113,43.4814453 C192.255441,42.4365234 193.266183,41.0986328 194.301339,39.4677734 C195.336496,37.8369141 196.288644,36.0742188 197.157785,34.1796875 C198.026925,32.2851562 198.695871,30.4394531 199.164621,28.6425781 C199.633371,26.8457031 199.838449,25.2050781 199.779855,23.7207031 C199.721261,22.2363281 199.555246,20.8447266 199.281808,19.5458984 C199.008371,18.2470703 198.593331,17.0166016 198.036691,15.8544922 C197.48005,14.6923828 196.801339,13.6328125 196.000558,12.6757812 C195.199777,11.71875 194.1988,10.8496094 192.997628,10.0683594 C191.796456,9.28710938 190.937081,8.81347656 190.419503,8.64746094 C189.901925,8.48144531 189.26716,8.359375 188.515206,8.28125 C187.763253,8.203125 187.055246,8.17382812 186.391183,8.19335938 C185.746652,8.21289062 184.814035,8.48632812 183.593331,9.01367188 C182.372628,9.54101562 181.093331,10.3466797 179.755441,11.4306641 C178.41755,12.5146484 176.776925,14.4433594 174.833566,17.2167969 C172.890206,19.9902344 171.400949,22.6269531 170.365792,25.1269531 C169.330636,27.6269531 168.593331,29.8193359 168.153878,31.7041016 C167.714425,33.5888672 167.426339,35.2685547 167.289621,36.7431641 C167.152902,38.2177734 167.172433,39.8828125 167.348214,41.7382812 C167.660714,43.3789062 168.339425,44.9072266 169.384347,46.3232422 C170.429269,47.7392578 171.776925,48.7255859 173.427316,49.2822266 C175.077706,49.8388672 176.772042,50.0830078 178.510324,50.0146484 L178.037337,50.0258636 Z M179.989816,47.9931641 C179.023019,48.2568359 177.856027,48.28125 176.488839,48.0664062 C175.121652,47.8515625 173.969308,47.5048828 173.031808,47.0263672 C172.094308,46.5478516 171.313058,45.8789062 170.688058,45.0195312 C170.063058,44.1601562 169.594308,43.1640625 169.281808,42.03125 C168.969308,40.8984375 168.944894,39.2773438 169.208566,37.1679688 C169.472238,35.0585938 169.877511,33.0810547 170.424386,31.2353516 C170.971261,29.3896484 171.571847,27.6708984 172.226144,26.0791016 C172.880441,24.4873047 174.096261,22.2753906 175.873605,19.4433594 C177.650949,16.6113281 179.281808,14.5605469 180.766183,13.2910156 C182.250558,12.0214844 183.515206,11.1962891 184.560128,10.8154297 C185.60505,10.4345703 186.791574,10.2832031 188.119699,10.3613281 C189.467355,10.4199219 190.707589,11.2011719 191.840402,12.7050781 C191.898996,12.7050781 191.996652,12.6904297 192.133371,12.6611328 C192.270089,12.6318359 192.397042,12.5292969 192.51423,12.3535156 L192.51423,12.3535156 L192.484933,11.7382812 C194.711496,13.9648438 196.098214,15.8398438 196.645089,17.3632812 C197.191964,18.8867188 197.567941,20.3564453 197.773019,21.7724609 C197.978097,23.1884766 197.885324,24.8730469 197.494699,26.8261719 C197.104074,28.7792969 196.469308,30.7519531 195.590402,32.7441406 C194.711496,34.7363281 193.661691,36.6943359 192.440988,38.6181641 C191.220285,40.5419922 189.955636,42.0556641 188.647042,43.1591797 C187.338449,44.2626953 185.810128,45.2783203 184.062081,46.2060547 C182.314035,47.1337891 180.956613,47.7294922 179.989816,47.9931641 Z M204.504185,48.7695312 C205.83231,49.84375 207.604771,50.2880859 209.821568,50.1025391 C212.038365,49.9169922 213.986607,49.609375 215.666295,49.1796875 L215.666295,49.1796875 L217.834263,48.7988281 L220.881138,48.1835938 L229.142857,46.6601562 L229.845982,46.25 C229.572545,45.8984375 228.078404,45.8251953 225.36356,46.0302734 C222.648717,46.2353516 220.622349,46.4453125 219.284459,46.6601562 C217.946568,46.875 216.52567,47.1435547 215.021763,47.4658203 C213.517857,47.7880859 212.111607,48.0322266 210.803013,48.1982422 C209.49442,48.3642578 208.410435,48.3740234 207.55106,48.2275391 C206.691685,48.0810547 205.993443,47.6123047 205.456334,46.8212891 C204.919224,46.0302734 204.924107,44.140625 205.470982,41.1523438 C206.017857,38.1640625 207.380162,34.2431641 209.557896,29.3896484 C211.735631,24.5361328 213.498326,20.5078125 214.845982,17.3046875 C216.193638,14.1015625 217.443638,11.484375 218.595982,9.453125 C217.424107,7.28515625 216.496373,7.32421875 215.812779,9.5703125 C215.539342,10.6054688 214.577427,12.9541016 212.927037,16.6162109 C211.276646,20.2783203 209.372349,24.6240234 207.214146,29.6533203 C205.055943,34.6826172 203.80106,38.5449219 203.449498,41.2402344 C203.097935,43.9355469 203.093052,45.7714844 203.434849,46.7480469 C203.776646,47.7246094 204.133092,48.3984375 204.504185,48.7695312 Z M243.125,48.7695312 C242.949219,49.7265625 243.071289,50.1367188 243.491211,50 C243.911133,49.8632812 244.238281,49.3847656 244.472656,48.5644531 C246.425781,48.2128906 248.427734,47.6953125 250.478516,47.0117188 C252.529297,46.328125 254.418945,45.6640625 256.147461,45.0195312 C257.875977,44.375 259.179688,43.8378906 260.058594,43.4082031 C260.9375,42.9785156 262.62207,41.9824219 265.112305,40.4199219 C267.602539,38.8574219 269.697266,37.0556641 271.396484,35.0146484 C273.095703,32.9736328 274.072266,30.9423828 274.326172,28.9208984 C274.580078,26.8994141 274.438477,25.0439453 273.901367,23.3544922 C273.364258,21.6650391 272.5,19.9365234 271.308594,18.1689453 C270.117188,16.4013672 268.623047,14.8486328 266.826172,13.5107422 C265.029297,12.1728516 263.173828,11.0888672 261.259766,10.2587891 C259.345703,9.42871094 257.729492,8.89160156 256.411133,8.64746094 C255.092773,8.40332031 253.154297,8.203125 250.595703,8.046875 C248.056641,7.87109375 245.493164,7.98828125 242.905273,8.3984375 C240.317383,8.80859375 238.413086,9.25292969 237.192383,9.73144531 C235.97168,10.2099609 234.902344,10.8300781 233.984375,11.5917969 C233.066406,12.3535156 232.695313,13.4277344 232.871094,14.8144531 C233.125,15.8496094 233.706055,16.5087891 234.614258,16.7919922 C235.522461,17.0751953 235.717773,16.7529297 235.200195,15.8251953 C234.682617,14.8974609 234.589844,14.21875 234.921875,13.7890625 C235.820313,12.8710938 236.669922,12.2265625 237.470703,11.8554688 C238.271484,11.484375 239.428711,11.1181641 240.942383,10.7568359 C242.456055,10.3955078 244.238281,10.1416016 246.289063,9.99511719 C248.339844,9.84863281 250.292969,9.86816406 252.148438,10.0537109 C254.003906,10.2392578 256.123047,10.6787109 258.505859,11.3720703 C260.888672,12.0654297 263.164063,13.2861328 265.332031,15.0341797 C267.5,16.7822266 269.091797,18.5644531 270.107422,20.3808594 C271.123047,22.1972656 271.757813,23.7304688 272.011719,24.9804688 C272.265625,26.2304688 272.329102,27.5439453 272.202148,28.9208984 C272.075195,30.2978516 271.44043,31.6894531 270.297852,33.0957031 C269.155273,34.5019531 267.944336,35.7470703 266.665039,36.8310547 C265.385742,37.9150391 263.994141,38.9208984 262.490234,39.8486328 C260.986328,40.7763672 258.901367,41.8115234 256.235352,42.9541016 C253.569336,44.0966797 249.853516,45.3515625 245.087891,46.71875 C245.830078,43.5546875 246.425781,40.9277344 246.875,38.8378906 C247.324219,36.7480469 247.758789,34.7021484 248.178711,32.7001953 C248.598633,30.6982422 249.038086,28.5546875 249.49707,26.2695312 C249.956055,23.984375 250.507813,21.5185547 251.152344,18.8720703 C251.796875,16.2255859 251.787109,14.5654297 251.123047,13.8916016 C250.458984,13.2177734 250.014648,13.2861328 249.790039,14.0966797 C249.56543,14.9072266 249.21875,16.4746094 248.75,18.7988281 C248.28125,21.1230469 247.822266,23.359375 247.373047,25.5078125 C246.923828,27.65625 246.499023,29.7802734 246.098633,31.8798828 C245.698242,33.9794922 245.239258,36.4355469 244.72168,39.2480469 C244.204102,42.0605469 243.789063,44.6289062 243.476563,46.953125 C240.78125,47.265625 238.500977,47.3046875 236.635742,47.0703125 C234.770508,46.8359375 234.228516,47.0263672 235.009766,47.6416016 C235.791016,48.2568359 236.621094,48.6279297 237.5,48.7548828 C238.378906,48.8818359 239.228516,48.9306641 240.048828,48.9013672 C240.869141,48.8720703 241.894531,48.828125 243.125,48.7695312 Z M311.614397,48.7695312 C311.438616,49.7265625 311.560686,50.1367188 311.980608,50 C312.40053,49.8632812 312.727679,49.3847656 312.962054,48.5644531 C314.915179,48.2128906 316.917132,47.6953125 318.967913,47.0117188 C321.018694,46.328125 322.908343,45.6640625 324.636858,45.0195312 C326.365374,44.375 327.669085,43.8378906 328.547991,43.4082031 C329.426897,42.9785156 331.111468,41.9824219 333.601702,40.4199219 C336.091936,38.8574219 338.186663,37.0556641 339.885882,35.0146484 C341.5851,32.9736328 342.561663,30.9423828 342.815569,28.9208984 C343.069475,26.8994141 342.927874,25.0439453 342.390765,23.3544922 C341.853655,21.6650391 340.989397,19.9365234 339.797991,18.1689453 C338.606585,16.4013672 337.112444,14.8486328 335.315569,13.5107422 C333.518694,12.1728516 331.663225,11.0888672 329.749163,10.2587891 C327.8351,9.42871094 326.21889,8.89160156 324.90053,8.64746094 C323.582171,8.40332031 321.643694,8.203125 319.0851,8.046875 C316.546038,7.87109375 313.982561,7.98828125 311.394671,8.3984375 C308.80678,8.80859375 306.902483,9.25292969 305.68178,9.73144531 C304.461077,10.2099609 303.391741,10.8300781 302.473772,11.5917969 C301.555804,12.3535156 301.18471,13.4277344 301.360491,14.8144531 C301.614397,15.8496094 302.195452,16.5087891 303.103655,16.7919922 C304.011858,17.0751953 304.207171,16.7529297 303.689593,15.8251953 C303.172015,14.8974609 303.079241,14.21875 303.411272,13.7890625 C304.30971,12.8710938 305.159319,12.2265625 305.9601,11.8554688 C306.760882,11.484375 307.918108,11.1181641 309.43178,10.7568359 C310.945452,10.3955078 312.727679,10.1416016 314.77846,9.99511719 C316.829241,9.84863281 318.782366,9.86816406 320.637835,10.0537109 C322.493304,10.2392578 324.612444,10.6787109 326.995257,11.3720703 C329.378069,12.0654297 331.65346,13.2861328 333.821429,15.0341797 C335.989397,16.7822266 337.581194,18.5644531 338.596819,20.3808594 C339.612444,22.1972656 340.24721,23.7304688 340.501116,24.9804688 C340.755022,26.2304688 340.818499,27.5439453 340.691546,28.9208984 C340.564593,30.2978516 339.929827,31.6894531 338.787249,33.0957031 C337.644671,34.5019531 336.433733,35.7470703 335.154436,36.8310547 C333.87514,37.9150391 332.483538,38.9208984 330.979632,39.8486328 C329.475725,40.7763672 327.390765,41.8115234 324.724749,42.9541016 C322.058733,44.0966797 318.342913,45.3515625 313.577288,46.71875 C314.319475,43.5546875 314.915179,40.9277344 315.364397,38.8378906 C315.813616,36.7480469 316.248186,34.7021484 316.668108,32.7001953 C317.08803,30.6982422 317.527483,28.5546875 317.986468,26.2695312 C318.445452,23.984375 318.99721,21.5185547 319.641741,18.8720703 C320.286272,16.2255859 320.276507,14.5654297 319.612444,13.8916016 C318.948382,13.2177734 318.504046,13.2861328 318.279436,14.0966797 C318.054827,14.9072266 317.708147,16.4746094 317.239397,18.7988281 C316.770647,21.1230469 316.311663,23.359375 315.862444,25.5078125 C315.413225,27.65625 314.988421,29.7802734 314.58803,31.8798828 C314.18764,33.9794922 313.728655,36.4355469 313.211077,39.2480469 C312.693499,42.0605469 312.27846,44.6289062 311.96596,46.953125 C309.270647,47.265625 306.990374,47.3046875 305.12514,47.0703125 C303.259905,46.8359375 302.717913,47.0263672 303.499163,47.6416016 C304.280413,48.2568359 305.110491,48.6279297 305.989397,48.7548828 C306.868304,48.8818359 307.717913,48.9306641 308.538225,48.9013672 C309.358538,48.8720703 310.383929,48.828125 311.614397,48.7695312 Z M351.465681,53.4863281 C351.817243,53.3300781 352.051618,53.1787109 352.168806,53.0322266 C352.285993,52.8857422 352.47154,52.5292969 352.725446,51.9628906 C353.487165,48.6621094 354.058454,45.8496094 354.439314,43.5253906 C354.820173,41.2011719 355.083845,39.5947266 355.230329,38.7060547 C355.376814,37.8173828 355.674665,35.7519531 356.123884,32.5097656 C360.166853,35.4589844 363.037946,37.7001953 364.737165,39.2333984 C366.436384,40.7666016 368.770368,42.5830078 371.739118,44.6826172 C374.707868,46.7822266 377.676618,48.2617188 380.645368,49.1210938 C381.875837,49.21875 381.953962,48.9355469 380.879743,48.2714844 C380.078962,47.9980469 378.907087,47.4072266 377.364118,46.4990234 C375.82115,45.5908203 373.887556,44.2431641 371.563337,42.4560547 C369.239118,40.6689453 366.822126,38.7451172 364.312361,36.6845703 C361.802595,34.6240234 359.160993,32.6855469 356.387556,30.8691406 C356.524275,29.9902344 356.660993,29.1894531 356.797712,28.4667969 C358.145368,28.1542969 359.88365,27.5732422 362.012556,26.7236328 C364.141462,25.8740234 365.811384,25.0878906 367.022321,24.3652344 C368.233259,23.6425781 369.400251,22.7099609 370.523298,21.5673828 C371.646345,20.4248047 372.452009,19.4335938 372.94029,18.59375 C373.428571,17.7539062 373.706892,16.9042969 373.775251,16.0449219 C373.843611,15.1855469 373.804548,14.4921875 373.658064,13.9648438 C373.511579,13.4375 373.184431,12.8125 372.676618,12.0898438 C372.168806,11.3671875 371.333845,10.6835938 370.171736,10.0390625 C369.009626,9.39453125 367.500837,8.93554688 365.645368,8.66210938 C363.7899,8.38867188 361.797712,8.23242188 359.668806,8.19335938 C359.375837,7.11914063 358.985212,6.53320313 358.496931,6.43554688 C358.00865,6.31835938 357.813337,6.484375 357.910993,6.93359375 L357.910993,6.93359375 L357.910993,7.78320313 L357.793806,8.48632812 C357.07115,8.70117188 356.2899,8.95019531 355.450056,9.23339844 C354.610212,9.51660156 353.594587,9.99511719 352.403181,10.6689453 C351.211775,11.3427734 350.503767,11.9140625 350.279157,12.3828125 C350.054548,12.8515625 349.942243,13.2617188 349.942243,13.6132812 C349.942243,13.9648438 350.010603,14.2333984 350.147321,14.4189453 C350.28404,14.6044922 350.47447,15.0048828 350.718611,15.6201172 C350.962751,16.2353516 351.270368,16.9238281 351.641462,17.6855469 C352.032087,17.3339844 352.149275,16.9287109 351.993025,16.4697266 C351.836775,16.0107422 351.626814,15.3955078 351.363142,14.6240234 C351.09947,13.8525391 351.280134,13.2128906 351.905134,12.7050781 C352.530134,12.1972656 353.169782,11.7724609 353.824079,11.4306641 C354.478376,11.0888672 355.762556,10.6347656 357.676618,10.0683594 C357.090681,13.7988281 356.700056,16.2060547 356.504743,17.2900391 C356.309431,18.3740234 356.09947,19.6923828 355.874861,21.2451172 C355.857583,21.3645583 355.840045,21.4862241 355.822248,21.6101146 L355.712341,22.3801544 C355.523963,23.7080483 355.309581,25.2584135 355.069196,27.03125 C353.389509,27.3632812 352.056501,27.5830078 351.070173,27.6904297 C350.083845,27.7978516 349.136579,27.8710938 348.228376,27.9101562 C347.320173,27.9492188 346.875837,28.1542969 346.895368,28.5253906 C346.9149,28.8964844 347.139509,29.3457031 347.569196,29.8730469 C348.077009,29.8730469 348.63365,29.8242188 349.239118,29.7265625 C350.19615,29.7265625 351.250837,29.9707031 352.403181,30.4589844 L352.403181,30.4589844 L354.336775,31.484375 C353.828962,35.2734375 353.350446,38.5253906 352.901228,41.2402344 C352.452009,43.9550781 352.041853,46.25 351.670759,48.125 C351.299665,50 350.9774,51.5820312 350.703962,52.8710938 L350.703962,52.8710938 L351.202009,53.4863281 L351.465681,53.4863281 Z M357.149275,26.4453125 C357.422712,24.609375 357.642439,23.1152344 357.808454,21.9628906 C357.882239,21.4507378 357.961811,20.8971113 358.04717,20.302011 L358.179548,19.3782552 C358.247907,18.9008247 358.319522,18.4000651 358.394392,17.8759766 C358.450544,17.4829102 358.503645,17.1112061 358.553694,16.7608643 L358.694685,15.7739258 C358.782575,15.1586914 358.858259,14.6289063 358.921736,14.1845703 C359.048689,13.2958984 359.268415,11.8652344 359.580915,9.89257813 C361.006696,9.75585938 362.578962,9.8046875 364.297712,10.0390625 C366.016462,10.2734375 367.300642,10.5273438 368.150251,10.8007813 C368.999861,11.0742188 369.893415,11.5039063 370.830915,12.0898438 C371.69029,13.1445313 372.15904,13.9501953 372.237165,14.5068359 C372.31529,15.0634766 372.2274,15.7373047 371.973493,16.5283203 C371.719587,17.3193359 371.187361,18.1933594 370.376814,19.1503906 C369.566267,20.1074219 368.584821,21.0205078 367.432478,21.8896484 C366.280134,22.7587891 364.790876,23.5986328 362.964704,24.4091797 C361.138532,25.2197266 359.200056,25.8984375 357.149275,26.4453125 Z M354.65904,29.7558594 C354.366071,29.5996094 353.975446,29.4335938 353.487165,29.2578125 C353.916853,29.1601562 354.34654,29.0527344 354.776228,28.9355469 L354.776228,28.9355469 L354.65904,29.7558594 Z M389.441964,49.9121094 C391.805246,50.0097656 394.490792,50.0097656 397.498605,49.9121094 C401.600167,49.4824219 405.467355,48.4863281 409.100167,46.9238281 C409.76423,46.4941406 409.402902,46.3476562 408.016183,46.484375 C405.711496,46.7773438 403.709542,47.0996094 402.010324,47.4511719 C400.311105,47.8027344 397.449777,48.125 393.426339,48.4179688 C390.359933,48.3789062 388.450753,48.3007812 387.6988,48.1835938 C386.946847,48.0664062 386.258371,47.9199219 385.633371,47.7441406 C384.754464,47.1386719 384.432199,46.3574219 384.666574,45.4003906 L384.666574,45.4003906 L385.047433,44.4921875 C385.613839,43.6132812 386.077707,42.9394531 386.439035,42.4707031 C386.800363,42.0019531 387.498605,41.1914062 388.533761,40.0390625 C389.627511,38.9648438 390.848214,37.8417969 392.195871,36.6699219 C393.543527,35.7128906 394.60798,34.9121094 395.38923,34.2675781 C396.17048,33.6230469 397.039621,32.9882812 397.996652,32.3632812 C399.344308,31.5429688 400.594308,30.7128906 401.746652,29.8730469 C402.996652,28.9746094 404.412667,28.0859375 405.994699,27.2070312 C406.775949,26.7773438 407.244699,26.2988281 407.400949,25.7714844 C407.322824,25.0292969 406.961496,24.5800781 406.316964,24.4238281 C405.691964,24.3847656 405.106027,24.4042969 404.559152,24.4824219 C403.465402,24.5605469 402.273996,24.6875 400.984933,24.8632812 L400.984933,24.8632812 L398.348214,24.9804688 C396.414621,24.9609375 395.037667,24.9023438 394.217355,24.8046875 C393.397042,24.7070312 392.498605,24.5117188 391.522042,24.21875 C390.643136,23.6914062 390.184152,23.0810547 390.145089,22.3876953 C390.106027,21.6943359 390.306222,20.8984375 390.745675,20 C391.185128,19.1015625 391.971261,17.9833984 393.104074,16.6455078 C394.236886,15.3076172 395.555246,14.2382812 397.059152,13.4375 C399.129464,12.265625 400.804269,11.4648438 402.083566,11.0351562 C403.362863,10.6054688 404.544503,10.2880859 405.628488,10.0830078 C406.712472,9.87792969 407.801339,9.78515625 408.895089,9.8046875 C410.359933,9.765625 411.238839,10.2734375 411.531808,11.328125 C411.766183,12.3046875 412.088449,12.7929688 412.498605,12.7929688 C412.654855,12.734375 412.820871,12.4902344 412.996652,12.0605469 L412.996652,12.0605469 L412.996652,10.859375 C412.898996,10.2539062 412.708566,9.78027344 412.425363,9.43847656 C412.14216,9.09667969 411.785714,8.81835938 411.356027,8.60351562 L411.356027,8.60351562 L409.773996,8.046875 L408.016183,8.046875 C406.941964,8.1640625 406.155832,8.25195312 405.657785,8.31054688 C405.159738,8.36914062 404.129464,8.61328125 402.566964,9.04296875 C400.984933,9.53125 399.500558,10.1464844 398.113839,10.8886719 C395.789621,12.0214844 393.738839,13.3496094 391.961496,14.8730469 L391.961496,14.8730469 L390.438058,16.8359375 C389.481027,18.4179688 388.895089,19.8535156 388.680246,21.1425781 L388.680246,21.1425781 L388.592355,22.34375 C388.768136,23.8476562 389.412667,24.8535156 390.525949,25.3613281 C391.541574,25.8300781 392.869699,26.1132812 394.510324,26.2109375 C396.111886,26.25 397.508371,26.2597656 398.699777,26.2402344 L398.699777,26.2402344 L400.691964,26.2402344 C402.195871,26.1425781 403.328683,26.0351562 404.090402,25.9179688 L404.090402,25.9179688 L405.057199,25.7714844 C404.627511,26.0449219 404.080636,26.4160156 403.416574,26.8847656 C402.615792,27.4316406 401.815011,27.9394531 401.01423,28.4082031 C399.217355,29.4824219 398.07966,30.1708984 397.601144,30.4736328 C397.122628,30.7763672 396.688058,31.0742188 396.297433,31.3671875 C395.906808,31.6601562 395.257394,32.1289062 394.349191,32.7734375 C393.440988,33.4179688 392.249582,34.3261719 390.774972,35.4980469 C389.300363,36.6699219 388.270089,37.5634766 387.684152,38.1787109 C387.098214,38.7939453 386.497628,39.4628906 385.882394,40.1855469 C385.26716,40.9082031 384.568917,41.875 383.787667,43.0859375 C383.416574,43.7109375 383.123605,44.5605469 382.908761,45.6347656 C382.908761,47.0214844 383.338449,48.0957031 384.197824,48.8574219 C385.330636,49.4628906 387.078683,49.8144531 389.441964,49.9121094 Z M417.633092,50.0878906 C419.039342,50.1660156 420.660435,50.0439453 422.496373,49.7216797 C424.33231,49.3994141 426.090123,48.8671875 427.76981,48.125 C429.449498,47.3828125 430.977818,46.5185547 432.354771,45.5322266 C433.731724,44.5458984 434.952427,43.4375 436.016881,42.2070312 C437.081334,40.9765625 437.755162,39.9316406 438.038365,39.0722656 C438.321568,38.2128906 438.277623,37.3974609 437.906529,36.6259766 C437.535435,35.8544922 437.125279,35.234375 436.67606,34.765625 C436.226842,34.296875 435.665318,33.7744141 434.99149,33.1982422 C434.317662,32.6220703 433.653599,32.0751953 432.999302,31.5576172 C432.345006,31.0400391 431.392857,30.234375 430.142857,29.140625 C428.892857,28.046875 427.711217,26.7724609 426.597935,25.3173828 C425.484654,23.8623047 424.718052,22.6171875 424.298131,21.5820312 C423.878209,20.546875 423.765904,19.3164063 423.961217,17.890625 C424.156529,16.4648438 424.888951,15.1220703 426.158482,13.8623047 C427.428013,12.6025391 429.239537,11.5820313 431.593052,10.8007813 C433.946568,10.0195313 436.197545,9.58496094 438.345982,9.49707031 C440.49442,9.40917969 441.998326,9.87304688 442.857701,10.8886719 C444.166295,11.8652344 444.615513,13.2617188 444.205357,15.078125 C443.267857,16.9726562 441.441685,18.90625 438.726842,20.8789062 C438.726842,21.0742188 438.980748,21.09375 439.48856,20.9375 C440.914342,20.4492188 442.183873,19.5800781 443.297154,18.3300781 C444.410435,17.0800781 445.103795,16.1425781 445.377232,15.5175781 C446.060826,14.6386719 446.231724,13.6035156 445.889927,12.4121094 C445.548131,11.2207031 444.742467,10.1904297 443.472935,9.32128906 C442.203404,8.45214844 440.504185,8.02734375 438.375279,8.046875 C436.246373,8.06640625 434.322545,8.33007813 432.603795,8.83789063 C430.885045,9.34570313 429.390904,9.92675781 428.121373,10.5810547 C426.851842,11.2353516 425.845982,11.9042969 425.103795,12.5878906 C424.361607,13.2714844 423.74149,13.9990234 423.243443,14.7705078 C422.745396,15.5419922 422.428013,16.5087891 422.291295,17.6708984 C422.154576,18.8330078 422.286412,20.1855469 422.686802,21.7285156 C423.087193,23.2714844 423.887974,24.7558594 425.089146,26.1816406 C426.290318,27.6074219 427.623326,28.9746094 429.08817,30.2832031 C431.549107,32.3925781 433.341099,33.9208984 434.464146,34.8681641 C435.587193,35.8154297 436.148717,36.7773438 436.148717,37.7539062 C436.148717,38.7304688 435.470006,40.0341797 434.112584,41.6650391 C432.755162,43.2958984 430.723912,44.7851562 428.018834,46.1328125 C425.313756,47.4804688 422.579381,48.2373047 419.815709,48.4033203 C417.052037,48.5693359 414.742467,48.28125 412.886998,47.5390625 C412.535435,46.7578125 412.21317,46.2792969 411.920201,46.1035156 C411.627232,45.8886719 411.456334,45.9033203 411.407506,46.1474609 C411.358677,46.3916016 411.339146,46.7773438 411.348912,47.3046875 C411.358677,47.8320312 411.617467,48.3349609 412.125279,48.8134766 C412.633092,49.2919922 413.326451,49.6044922 414.205357,49.7509766 C415.084263,49.8974609 416.226842,50.0097656 417.633092,50.0878906 Z M447.787109,50.0878906 C449.193359,50.1660156 450.814453,50.0439453 452.650391,49.7216797 C454.486328,49.3994141 456.244141,48.8671875 457.923828,48.125 C459.603516,47.3828125 461.131836,46.5185547 462.508789,45.5322266 C463.885742,44.5458984 465.106445,43.4375 466.170898,42.2070312 C467.235352,40.9765625 467.90918,39.9316406 468.192383,39.0722656 C468.475586,38.2128906 468.431641,37.3974609 468.060547,36.6259766 C467.689453,35.8544922 467.279297,35.234375 466.830078,34.765625 C466.380859,34.296875 465.819336,33.7744141 465.145508,33.1982422 C464.47168,32.6220703 463.807617,32.0751953 463.15332,31.5576172 C462.499023,31.0400391 461.546875,30.234375 460.296875,29.140625 C459.046875,28.046875 457.865234,26.7724609 456.751953,25.3173828 C455.638672,23.8623047 454.87207,22.6171875 454.452148,21.5820312 C454.032227,20.546875 453.919922,19.3164063 454.115234,17.890625 C454.310547,16.4648438 455.042969,15.1220703 456.3125,13.8623047 C457.582031,12.6025391 459.393555,11.5820313 461.74707,10.8007813 C464.100586,10.0195313 466.351563,9.58496094 468.5,9.49707031 C470.648438,9.40917969 472.152344,9.87304688 473.011719,10.8886719 C474.320313,11.8652344 474.769531,13.2617188 474.359375,15.078125 C473.421875,16.9726562 471.595703,18.90625 468.880859,20.8789062 C468.880859,21.0742188 469.134766,21.09375 469.642578,20.9375 C471.068359,20.4492188 472.337891,19.5800781 473.451172,18.3300781 C474.564453,17.0800781 475.257813,16.1425781 475.53125,15.5175781 C476.214844,14.6386719 476.385742,13.6035156 476.043945,12.4121094 C475.702148,11.2207031 474.896484,10.1904297 473.626953,9.32128906 C472.357422,8.45214844 470.658203,8.02734375 468.529297,8.046875 C466.400391,8.06640625 464.476563,8.33007813 462.757813,8.83789063 C461.039063,9.34570313 459.544922,9.92675781 458.275391,10.5810547 C457.005859,11.2353516 456,11.9042969 455.257813,12.5878906 C454.515625,13.2714844 453.895508,13.9990234 453.397461,14.7705078 C452.899414,15.5419922 452.582031,16.5087891 452.445313,17.6708984 C452.308594,18.8330078 452.44043,20.1855469 452.84082,21.7285156 C453.241211,23.2714844 454.041992,24.7558594 455.243164,26.1816406 C456.444336,27.6074219 457.777344,28.9746094 459.242188,30.2832031 C461.703125,32.3925781 463.495117,33.9208984 464.618164,34.8681641 C465.741211,35.8154297 466.302734,36.7773438 466.302734,37.7539062 C466.302734,38.7304688 465.624023,40.0341797 464.266602,41.6650391 C462.90918,43.2958984 460.87793,44.7851562 458.172852,46.1328125 C455.467773,47.4804688 452.733398,48.2373047 449.969727,48.4033203 C447.206055,48.5693359 444.896484,48.28125 443.041016,47.5390625 C442.689453,46.7578125 442.367188,46.2792969 442.074219,46.1035156 C441.78125,45.8886719 441.610352,45.9033203 441.561523,46.1474609 C441.512695,46.3916016 441.493164,46.7773438 441.50293,47.3046875 C441.512695,47.8320312 441.771484,48.3349609 442.279297,48.8134766 C442.787109,49.2919922 443.480469,49.6044922 444.359375,49.7509766 C445.238281,49.8974609 446.380859,50.0097656 447.787109,50.0878906 Z" id="MARIGOLDDRESS" fill="#000000" fill-rule="nonzero"></path>
    </g>
</svg>