<?xml version="1.0" encoding="UTF-8"?>
<svg width="383px" height="41px" viewBox="0 0 383 41" version="1.1" xmlns="http://www.w3.org/2000/svg" xmlns:xlink="http://www.w3.org/1999/xlink">
    <title>POPPYGOWN</title>
    <g id="final-copy" stroke="none" stroke-width="1" fill="none" fill-rule="evenodd">
        <path d="M12.795,40 L12.795,39.45 L7.79,39.45 L7.79,22.565 L15.16,22.565 C25.5,22.565 29.295,18.44 29.295,11.95 C29.295,5.57 25.39,1.5 15.16,1.5 L0.2,1.5 L0.2,2.05 L4.71,2.05 L4.71,39.45 L0.2,39.45 L0.2,40 L12.795,40 Z M14.555,22.015 L7.79,22.015 L7.79,2.05 L14.555,2.05 C23.135,2.05 25.94,5.515 25.94,11.95 C25.94,18.165 23.41,22.015 14.555,22.015 Z M54.1707143,40.55 C64.0157143,40.55 71.1657143,33.565 71.1657143,20.86 C71.1657143,7.935 64.0157143,0.95 54.1707143,0.95 C44.3807143,0.95 37.2307143,7.935 37.2307143,20.86 C37.2307143,33.565 44.3807143,40.55 54.1707143,40.55 Z M54.1707143,40 C45.4807143,40 40.5857143,33.345 40.5857143,20.86 C40.5857143,8.155 45.4807143,1.5 54.1707143,1.5 C62.9157143,1.5 67.8107143,8.155 67.8107143,20.86 C67.8107143,33.345 62.9157143,40 54.1707143,40 Z M90.8164286,40 L90.8164286,39.45 L85.8114286,39.45 L85.8114286,22.565 L93.1814286,22.565 C103.521429,22.565 107.316429,18.44 107.316429,11.95 C107.316429,5.57 103.411429,1.5 93.1814286,1.5 L78.2214286,1.5 L78.2214286,2.05 L82.7314286,2.05 L82.7314286,39.45 L78.2214286,39.45 L78.2214286,40 L90.8164286,40 Z M92.5764286,22.015 L85.8114286,22.015 L85.8114286,2.05 L92.5764286,2.05 C101.156429,2.05 103.961429,5.515 103.961429,11.95 C103.961429,18.165 101.431429,22.015 92.5764286,22.015 Z M125.977143,40 L125.977143,39.45 L120.972143,39.45 L120.972143,22.565 L128.342143,22.565 C138.682143,22.565 142.477143,18.44 142.477143,11.95 C142.477143,5.57 138.572143,1.5 128.342143,1.5 L113.382143,1.5 L113.382143,2.05 L117.892143,2.05 L117.892143,39.45 L113.382143,39.45 L113.382143,40 L125.977143,40 Z M127.737143,22.015 L120.972143,22.015 L120.972143,2.05 L127.737143,2.05 C136.317143,2.05 139.122143,5.515 139.122143,11.95 C139.122143,18.165 136.592143,22.015 127.737143,22.015 Z M169.167857,40 L169.167857,39.45 L164.657857,39.45 L164.657857,20.475 L178.022857,2.05 L180.387857,2.05 L180.387857,1.5 L168.837857,1.5 L168.837857,2.05 L171.587857,2.05 C173.182857,2.05 174.502857,3.425 174.502857,4.91 C174.502857,5.405 174.337857,5.955 173.952857,6.45 L164.327857,19.87 L152.282857,2.05 L156.847857,2.05 L156.847857,1.5 L145.792857,1.5 L145.792857,2.05 L148.377857,2.05 L161.577857,21.575 L161.577857,39.45 L157.067857,39.45 L157.067857,40 L169.167857,40 Z M229.275,40.55 C234.445,40.55 239.12,37.415 239.78,32.245 C240.44,33.125 242.035,37.8 242.035,40.055 L242.53,40.055 L242.53,21.575 L246.71,21.575 L246.71,21.025 L230.43,21.025 L230.43,21.575 L239.45,21.575 L239.45,30.155 C239.45,36.535 234.775,40 229.275,40 C220.585,40 216.24,33.345 216.24,20.86 C216.24,8.155 221.135,1.5 229.825,1.5 C236.425,1.5 241.155,6.45 241.925,12.72 L242.475,12.72 L242.475,1.445 L242.035,1.445 C242.035,2.49 240.605,4.305 239.285,4.305 C238.955,4.305 238.57,4.195 238.295,3.92 C236.37,2.27 233.675,0.95 229.825,0.95 C220.035,0.95 212.885,7.935 212.885,20.86 C212.885,33.565 219.485,40.55 229.275,40.55 Z M270.045714,40.55 C279.890714,40.55 287.040714,33.565 287.040714,20.86 C287.040714,7.935 279.890714,0.95 270.045714,0.95 C260.255714,0.95 253.105714,7.935 253.105714,20.86 C253.105714,33.565 260.255714,40.55 270.045714,40.55 Z M270.045714,40 C261.355714,40 256.460714,33.345 256.460714,20.86 C256.460714,8.155 261.355714,1.5 270.045714,1.5 C278.790714,1.5 283.685714,8.155 283.685714,20.86 C283.685714,33.345 278.790714,40 270.045714,40 Z M310.926429,40 L318.461429,19.87 L326.161429,40 L327.481429,40 L341.726429,2.05 L344.476429,2.05 L344.476429,1.5 L333.971429,1.5 L333.971429,2.05 L336.336429,2.05 C337.986429,2.05 339.416429,3.425 339.416429,5.46 C339.416429,6.065 339.306429,6.725 339.031429,7.44 L328.141429,36.37 L314.941429,2.05 L319.066429,2.05 L319.066429,1.5 L308.781429,1.5 L308.781429,2.05 L311.696429,2.05 L318.076429,18.88 L311.586429,36.37 L298.386429,2.05 L302.621429,2.05 L302.621429,1.5 L292.446429,1.5 L292.446429,2.05 L295.141429,2.05 L309.606429,40 L310.926429,40 Z M377.382143,40.11 L377.382143,5.955 C377.382143,4.03 379.142143,2.05 380.957143,2.05 L382.057143,2.05 L382.057143,1.5 L370.672143,1.5 L370.672143,2.05 L373.147143,2.05 C374.962143,2.05 376.777143,4.03 376.777143,5.955 L376.777143,34.445 L355.107143,1.5 L347.847143,1.5 L347.847143,2.05 L351.477143,2.05 L352.577143,3.48 L352.577143,35.545 C352.577143,37.525 350.817143,39.45 349.002143,39.45 L347.847143,39.45 L347.847143,40 L359.287143,40 L359.287143,39.45 L356.757143,39.45 C354.997143,39.45 353.127143,37.47 353.127143,35.545 L353.127143,4.14 L376.832143,40.11 L377.382143,40.11 Z" id="POPPYGOWN" fill="#F99393" fill-rule="nonzero"></path>
    </g>
</svg>