<?xml version="1.0" encoding="UTF-8"?>
<svg width="347px" height="41px" viewBox="0 0 347 41" version="1.1" xmlns="http://www.w3.org/2000/svg" xmlns:xlink="http://www.w3.org/1999/xlink">
    <title>ROSEGOWN</title>
    <g id="final-copy" stroke="none" stroke-width="1" fill="none" fill-rule="evenodd">
        <path d="M28.965,40.385 C32.265,40.385 33.2,38.625 33.2,35.93 L33.2,33.51 L32.65,33.51 L32.65,35.93 C32.65,38.295 32.045,39.395 30.175,39.395 C28.58,39.395 28.085,38.295 28.085,35.985 C28.085,24.105 24.785,20.86 19.175,20.255 C26.325,19.265 29.295,15.855 29.295,10.795 C29.295,5.02 25.39,1.5 14.665,1.5 L0.2,1.5 L0.2,2.05 L4.71,2.05 L4.71,39.45 L0.2,39.45 L0.2,40 L12.85,40 L12.85,39.45 L7.79,39.45 L7.79,20.475 L15.05,20.475 C23.08,20.475 24.895,22.895 24.895,35.93 C24.895,38.68 26.325,40.385 28.965,40.385 Z M15.05,19.925 L7.79,19.925 L7.79,2.05 L14.06,2.05 C23.135,2.05 25.94,5.02 25.94,10.795 C25.94,16.515 23.905,19.925 15.05,19.925 Z M56.5357143,40.55 C66.3807143,40.55 73.5307143,33.565 73.5307143,20.86 C73.5307143,7.935 66.3807143,0.95 56.5357143,0.95 C46.7457143,0.95 39.5957143,7.935 39.5957143,20.86 C39.5957143,33.565 46.7457143,40.55 56.5357143,40.55 Z M56.5357143,40 C47.8457143,40 42.9507143,33.345 42.9507143,20.86 C42.9507143,8.155 47.8457143,1.5 56.5357143,1.5 C65.2807143,1.5 70.1757143,8.155 70.1757143,20.86 C70.1757143,33.345 65.2807143,40 56.5357143,40 Z M95.7114286,40.55 C102.531429,40.55 107.756429,36.48 107.756429,29.935 C107.756429,22.4973563 102.475876,20.3709658 96.9151344,18.8995275 L96.401185,18.765427 C96.3154427,18.7433417 96.2296705,18.7213775 96.1438866,18.6995175 L95.6291885,18.5694717 L95.6291885,18.5694717 L94.858527,18.3773096 L94.858527,18.3773096 L94.3469509,18.2499524 C93.3262859,17.9951605 92.3222906,17.7382759 91.3664286,17.45 C87.2964286,16.24 84.0514286,14.37 84.0514286,9.695 C84.0514286,4.8 88.2864286,1.5 94.3364286,1.5 C100.221429,1.5 104.401429,4.525 105.556429,11.73 L106.051429,11.73 L106.051429,1.445 L105.556429,1.445 C105.556429,2.71 104.401429,3.7 103.246429,3.7 C102.861429,3.7 102.421429,3.59 102.036429,3.26 C100.221429,1.885 97.9114286,0.95 94.3364286,0.95 C87.5714286,0.95 82.5114286,4.745 82.5114286,11.235 C82.5114286,18.0221264 87.4324498,19.861193 92.7435104,21.2642237 L93.5294007,21.468601 C93.7044323,21.5135536 93.8796438,21.5582761 94.0548752,21.6029273 L94.8430131,21.8039145 C95.3678099,21.9383013 95.8906313,22.0741945 96.4071654,22.2158879 L96.921444,22.3596737 C97.7745499,22.6030691 98.6061987,22.8665517 99.3964286,23.17 C103.081429,24.6 105.941429,26.745 105.941429,31.64 C105.941429,36.59 101.816429,40 95.7114286,40 C89.8264286,40 84.1614286,37.03 83.1164286,29.44 L82.5664286,29.44 L82.5664286,40.055 L83.0614286,40.055 C83.0614286,38.79 84.3264286,37.69 85.5914286,37.69 C85.9764286,37.69 86.4714286,37.8 86.8564286,38.075 C88.9464286,39.56 91.6414286,40.55 95.7114286,40.55 Z M142.147143,40 L142.147143,32.74 L141.597143,32.74 L141.597143,33.84 C141.597143,36.81 138.792143,39.45 135.822143,39.45 L122.402143,39.45 L122.402143,20.09 L130.652143,20.09 C132.742143,20.09 134.557143,21.96 134.557143,24.105 L134.557143,24.985 L135.107143,24.985 L135.107143,14.645 L134.557143,14.645 L134.557143,15.58 C134.557143,17.67 132.742143,19.54 130.652143,19.54 L122.402143,19.54 L122.402143,2.05 L135.767143,2.05 C138.517143,2.05 141.047143,4.47 141.047143,7.11 L141.047143,8.21 L141.597143,8.21 L141.597143,1.5 L114.812143,1.5 L114.812143,2.05 L119.322143,2.05 L119.322143,39.45 L114.812143,39.45 L114.812143,40 L142.147143,40 Z M193.619286,40.55 C198.789286,40.55 203.464286,37.415 204.124286,32.245 C204.784286,33.125 206.379286,37.8 206.379286,40.055 L206.874286,40.055 L206.874286,21.575 L211.054286,21.575 L211.054286,21.025 L194.774286,21.025 L194.774286,21.575 L203.794286,21.575 L203.794286,30.155 C203.794286,36.535 199.119286,40 193.619286,40 C184.929286,40 180.584286,33.345 180.584286,20.86 C180.584286,8.155 185.479286,1.5 194.169286,1.5 C200.769286,1.5 205.499286,6.45 206.269286,12.72 L206.819286,12.72 L206.819286,1.445 L206.379286,1.445 C206.379286,2.49 204.949286,4.305 203.629286,4.305 C203.299286,4.305 202.914286,4.195 202.639286,3.92 C200.714286,2.27 198.019286,0.95 194.169286,0.95 C184.379286,0.95 177.229286,7.935 177.229286,20.86 C177.229286,33.565 183.829286,40.55 193.619286,40.55 Z M234.39,40.55 C244.235,40.55 251.385,33.565 251.385,20.86 C251.385,7.935 244.235,0.95 234.39,0.95 C224.6,0.95 217.45,7.935 217.45,20.86 C217.45,33.565 224.6,40.55 234.39,40.55 Z M234.39,40 C225.7,40 220.805,33.345 220.805,20.86 C220.805,8.155 225.7,1.5 234.39,1.5 C243.135,1.5 248.03,8.155 248.03,20.86 C248.03,33.345 243.135,40 234.39,40 Z M275.270714,40 L282.805714,19.87 L290.505714,40 L291.825714,40 L306.070714,2.05 L308.820714,2.05 L308.820714,1.5 L298.315714,1.5 L298.315714,2.05 L300.680714,2.05 C302.330714,2.05 303.760714,3.425 303.760714,5.46 C303.760714,6.065 303.650714,6.725 303.375714,7.44 L292.485714,36.37 L279.285714,2.05 L283.410714,2.05 L283.410714,1.5 L273.125714,1.5 L273.125714,2.05 L276.040714,2.05 L282.420714,18.88 L275.930714,36.37 L262.730714,2.05 L266.965714,2.05 L266.965714,1.5 L256.790714,1.5 L256.790714,2.05 L259.485714,2.05 L273.950714,40 L275.270714,40 Z M341.726429,40.11 L341.726429,5.955 C341.726429,4.03 343.486429,2.05 345.301429,2.05 L346.401429,2.05 L346.401429,1.5 L335.016429,1.5 L335.016429,2.05 L337.491429,2.05 C339.306429,2.05 341.121429,4.03 341.121429,5.955 L341.121429,34.445 L319.451429,1.5 L312.191429,1.5 L312.191429,2.05 L315.821429,2.05 L316.921429,3.48 L316.921429,35.545 C316.921429,37.525 315.161429,39.45 313.346429,39.45 L312.191429,39.45 L312.191429,40 L323.631429,40 L323.631429,39.45 L321.101429,39.45 C319.341429,39.45 317.471429,37.47 317.471429,35.545 L317.471429,4.14 L341.176429,40.11 L341.726429,40.11 Z" id="ROSEGOWN" fill="#F99393" fill-rule="nonzero"></path>
    </g>
</svg>