<?xml version="1.0" encoding="UTF-8"?>
<svg width="330px" height="48px" viewBox="0 0 330 48" version="1.1" xmlns="http://www.w3.org/2000/svg" xmlns:xlink="http://www.w3.org/1999/xlink">
    <title>ROSEDRESS</title>
    <g id="final-copy" stroke="none" stroke-width="1" fill="none" fill-rule="evenodd">
        <path d="M5.18554687,47.4863281 C5.53710937,47.3300781 5.77148437,47.1787109 5.88867187,47.0322266 C6.00585937,46.8857422 6.19140625,46.5292969 6.4453125,45.9628906 C7.20703125,42.6621094 7.77832031,39.8496094 8.15917969,37.5253906 C8.54003906,35.2011719 8.80371094,33.5947266 8.95019531,32.7060547 C9.09667969,31.8173828 9.39453125,29.7519531 9.84375,26.5097656 C13.8867187,29.4589844 16.7578125,31.7001953 18.4570312,33.2333984 C20.15625,34.7666016 22.4902344,36.5830078 25.4589844,38.6826172 C28.4277344,40.7822266 31.3964844,42.2617188 34.3652344,43.1210938 C35.5957031,43.21875 35.6738281,42.9355469 34.5996094,42.2714844 C33.7988281,41.9980469 32.6269531,41.4072266 31.0839844,40.4990234 C29.5410156,39.5908203 27.6074219,38.2431641 25.2832031,36.4560547 C22.9589844,34.6689453 20.5419922,32.7451172 18.0322266,30.6845703 C15.5224609,28.6240234 12.8808594,26.6855469 10.1074219,24.8691406 C10.2441406,23.9902344 10.3808594,23.1894531 10.5175781,22.4667969 C11.8652344,22.1542969 13.6035156,21.5732422 15.7324219,20.7236328 C17.8613281,19.8740234 19.53125,19.0878906 20.7421875,18.3652344 C21.953125,17.6425781 23.1201172,16.7099609 24.2431641,15.5673828 C25.3662109,14.4248047 26.171875,13.4335937 26.6601562,12.59375 C27.1484375,11.7539062 27.4267578,10.9042969 27.4951172,10.0449219 C27.5634766,9.18554688 27.5244141,8.4921875 27.3779297,7.96484375 C27.2314453,7.4375 26.9042969,6.8125 26.3964844,6.08984375 C25.8886719,5.3671875 25.0537109,4.68359375 23.8916016,4.0390625 C22.7294922,3.39453125 21.2207031,2.93554688 19.3652344,2.66210938 C17.5097656,2.38867188 15.5175781,2.23242188 13.3886719,2.19335938 C13.0957031,1.11914063 12.7050781,0.533203125 12.2167969,0.435546875 C11.7285156,0.318359375 11.5332031,0.484375 11.6308594,0.93359375 L11.6308594,0.93359375 L11.6308594,1.78320313 L11.5136719,2.48632813 C10.7910156,2.70117188 10.0097656,2.95019531 9.16992187,3.23339844 C8.33007812,3.51660156 7.31445312,3.99511719 6.12304687,4.66894531 C4.93164062,5.34277344 4.22363281,5.9140625 3.99902344,6.3828125 C3.77441406,6.8515625 3.66210937,7.26171875 3.66210937,7.61328125 C3.66210937,7.96484375 3.73046875,8.23339844 3.8671875,8.41894531 C4.00390625,8.60449219 4.19433594,9.00488281 4.43847656,9.62011719 C4.68261719,10.2353516 4.99023437,10.9238281 5.36132812,11.6855469 C5.75195312,11.3339844 5.86914062,10.9287109 5.71289062,10.4697266 C5.55664062,10.0107422 5.34667969,9.39550781 5.08300781,8.62402344 C4.81933594,7.85253906 5,7.21289063 5.625,6.70507813 C6.25,6.19726563 6.88964844,5.77246094 7.54394531,5.43066406 C8.19824219,5.08886719 9.48242187,4.63476563 11.3964844,4.06835938 C10.8105469,7.79882813 10.4199219,10.2060547 10.2246094,11.2900391 C10.0292969,12.3740234 9.81933594,13.6923828 9.59472656,15.2451172 C9.37011719,16.7978516 9.1015625,18.7265625 8.7890625,21.03125 C7.109375,21.3632812 5.77636719,21.5830078 4.79003906,21.6904297 C3.80371094,21.7978516 2.85644531,21.8710938 1.94824219,21.9101562 C1.04003906,21.9492188 0.595703125,22.1542969 0.615234375,22.5253906 C0.634765625,22.8964844 0.859375,23.3457031 1.2890625,23.8730469 C1.796875,23.8730469 2.35351562,23.8242188 2.95898437,23.7265625 C3.91601562,23.7265625 4.97070312,23.9707031 6.12304687,24.4589844 L6.12304687,24.4589844 L8.05664062,25.484375 C7.54882812,29.2734375 7.0703125,32.5253906 6.62109375,35.2402344 C6.171875,37.9550781 5.76171875,40.25 5.390625,42.125 C5.01953125,44 4.69726562,45.5820312 4.42382812,46.8710938 L4.42382812,46.8710938 L4.921875,47.4863281 L5.18554687,47.4863281 Z M10.8691406,20.4453125 C11.1425781,18.609375 11.3623047,17.1152344 11.5283203,15.9628906 C11.602105,15.4507378 11.6816768,14.8971113 11.7670356,14.302011 L11.8994141,13.3782552 C11.9677734,12.9008247 12.039388,12.4000651 12.1142578,11.8759766 C12.1704102,11.4829102 12.2235107,11.1112061 12.2735596,10.7608643 L12.4145508,9.77392578 C12.5024414,9.15869141 12.578125,8.62890625 12.6416016,8.18457031 C12.7685547,7.29589844 12.9882813,5.86523438 13.3007813,3.89257812 C14.7265625,3.75585938 16.2988281,3.8046875 18.0175781,4.0390625 C19.7363281,4.2734375 21.0205078,4.52734375 21.8701172,4.80078125 C22.7197266,5.07421875 23.6132812,5.50390625 24.5507812,6.08984375 C25.4101562,7.14453125 25.8789062,7.95019531 25.9570312,8.50683594 C26.0351562,9.06347656 25.9472656,9.73730469 25.6933594,10.5283203 C25.4394531,11.3193359 24.9072266,12.1933594 24.0966797,13.1503906 C23.2861328,14.1074219 22.3046875,15.0205078 21.1523438,15.8896484 C20,16.7587891 18.5107422,17.5986328 16.6845703,18.4091797 C14.8583984,19.2197266 12.9199219,19.8984375 10.8691406,20.4453125 Z M8.37890625,23.7558594 C8.0859375,23.5996094 7.6953125,23.4335938 7.20703125,23.2578125 C7.63671875,23.1601562 8.06640625,23.0527344 8.49609375,22.9355469 L8.49609375,22.9355469 L8.37890625,23.7558594 Z M47.8450932,44.0258636 L48.3180804,44.0146484 C50.0563616,43.9462891 51.7165179,43.5605469 53.2985491,42.8574219 C54.8805804,42.1542969 56.3258929,41.34375 57.6344866,40.4257812 C58.9430804,39.5078125 60.0905413,38.5263672 61.0768694,37.4814453 C62.0631975,36.4365234 63.0739397,35.0986328 64.109096,33.4677734 C65.1442522,31.8369141 66.0964007,30.0742188 66.9655413,28.1796875 C67.8346819,26.2851562 68.5036272,24.4394531 68.9723772,22.6425781 C69.4411272,20.8457031 69.6462054,19.2050781 69.5876116,17.7207031 C69.5290179,16.2363281 69.3630022,14.8447266 69.0895647,13.5458984 C68.8161272,12.2470703 68.4010882,11.0166016 67.8444475,9.85449219 C67.2878069,8.69238281 66.609096,7.6328125 65.8083147,6.67578125 C65.0075335,5.71875 64.0065569,4.84960938 62.805385,4.06835938 C61.6042132,3.28710938 60.7448382,2.81347656 60.22726,2.64746094 C59.7096819,2.48144531 59.0749163,2.359375 58.3229632,2.28125 C57.57101,2.203125 56.8630022,2.17382812 56.1989397,2.19335938 C55.5544085,2.21289062 54.6217913,2.48632812 53.4010882,3.01367188 C52.180385,3.54101562 50.9010882,4.34667969 49.5631975,5.43066406 C48.2253069,6.51464844 46.5846819,8.44335938 44.6413225,11.2167969 C42.6979632,13.9902344 41.2087054,16.6269531 40.1735491,19.1269531 C39.1383929,21.6269531 38.4010882,23.8193359 37.961635,25.7041016 C37.5221819,27.5888672 37.234096,29.2685547 37.0973772,30.7431641 C36.9606585,32.2177734 36.9801897,33.8828125 37.155971,35.7382812 C37.468471,37.3789062 38.1471819,38.9072266 39.1921038,40.3232422 C40.2370257,41.7392578 41.5846819,42.7255859 43.2350725,43.2822266 C44.8854632,43.8388672 46.5797991,44.0830078 48.3180804,44.0146484 L47.8450932,44.0258636 Z M49.7975725,41.9931641 C48.8307757,42.2568359 47.6637835,42.28125 46.296596,42.0664062 C44.9294085,41.8515625 43.7770647,41.5048828 42.8395647,41.0263672 C41.9020647,40.5478516 41.1208147,39.8789062 40.4958147,39.0195312 C39.8708147,38.1601562 39.4020647,37.1640625 39.0895647,36.03125 C38.7770647,34.8984375 38.7526507,33.2773438 39.0163225,31.1679688 C39.2799944,29.0585938 39.6852679,27.0810547 40.2321429,25.2353516 C40.7790179,23.3896484 41.3796038,21.6708984 42.0339007,20.0791016 C42.6881975,18.4873047 43.9040179,16.2753906 45.6813616,13.4433594 C47.4587054,10.6113281 49.0895647,8.56054688 50.5739397,7.29101562 C52.0583147,6.02148438 53.3229632,5.19628906 54.367885,4.81542969 C55.4128069,4.43457031 56.5993304,4.28320312 57.9274554,4.36132812 C59.2751116,4.41992188 60.515346,5.20117188 61.6481585,6.70507812 C61.7067522,6.70507812 61.8044085,6.69042969 61.9411272,6.66113281 C62.077846,6.63183594 62.2047991,6.52929688 62.3219866,6.35351562 L62.3219866,6.35351562 L62.2926897,5.73828125 C64.5192522,7.96484375 65.905971,9.83984375 66.452846,11.3632812 C66.999721,12.8867188 67.3756975,14.3564453 67.5807757,15.7724609 C67.7858538,17.1884766 67.6930804,18.8730469 67.3024554,20.8261719 C66.9118304,22.7792969 66.2770647,24.7519531 65.3981585,26.7441406 C64.5192522,28.7363281 63.4694475,30.6943359 62.2487444,32.6181641 C61.0280413,34.5419922 59.7633929,36.0556641 58.4547991,37.1591797 C57.1462054,38.2626953 55.617885,39.2783203 53.8698382,40.2060547 C52.1217913,41.1337891 50.7643694,41.7294922 49.7975725,41.9931641 Z M73.6967076,44.0878906 C75.1029576,44.1660156 76.7240513,44.0439453 78.5599888,43.7216797 C80.3959263,43.3994141 82.1537388,42.8671875 83.8334263,42.125 C85.5131138,41.3828125 87.0414342,40.5185547 88.4183873,39.5322266 C89.7953404,38.5458984 91.0160435,37.4375 92.0804967,36.2070312 C93.1449498,34.9765625 93.8187779,33.9316406 94.101981,33.0722656 C94.3851842,32.2128906 94.3412388,31.3974609 93.9701451,30.6259766 C93.5990513,29.8544922 93.1888951,29.234375 92.7396763,28.765625 C92.2904576,28.296875 91.7289342,27.7744141 91.055106,27.1982422 C90.3812779,26.6220703 89.7172154,26.0751953 89.0629185,25.5576172 C88.4086217,25.0400391 87.4564732,24.234375 86.2064732,23.140625 C84.9564732,22.046875 83.7748326,20.7724609 82.6615513,19.3173828 C81.5482701,17.8623047 80.7816685,16.6171875 80.3617467,15.5820312 C79.9418248,14.546875 79.8295201,13.3164062 80.0248326,11.890625 C80.2201451,10.4648437 80.952567,9.12207031 82.2220982,7.86230469 C83.4916295,6.60253906 85.3031529,5.58203125 87.6566685,4.80078125 C90.0101842,4.01953125 92.2611607,3.58496094 94.4095982,3.49707031 C96.5580357,3.40917969 98.061942,3.87304687 98.921317,4.88867187 C100.229911,5.86523437 100.679129,7.26171875 100.268973,9.078125 C99.3314732,10.9726562 97.5053013,12.90625 94.7904576,14.8789062 C94.7904576,15.0742187 95.0443638,15.09375 95.5521763,14.9375 C96.9779576,14.4492187 98.2474888,13.5800781 99.3607701,12.3300781 C100.474051,11.0800781 101.167411,10.1425781 101.440848,9.51757812 C102.124442,8.63867187 102.29534,7.60351562 101.953544,6.41210937 C101.611747,5.22070312 100.806083,4.19042969 99.5365513,3.32128906 C98.2670201,2.45214844 96.5678013,2.02734375 94.4388951,2.046875 C92.3099888,2.06640625 90.3861607,2.33007812 88.6674107,2.83789062 C86.9486607,3.34570312 85.4545201,3.92675781 84.1849888,4.58105469 C82.9154576,5.23535156 81.9095982,5.90429687 81.1674107,6.58789062 C80.4252232,7.27148437 79.805106,7.99902344 79.3070592,8.77050781 C78.8090123,9.54199219 78.4916295,10.5087891 78.3549107,11.6708984 C78.218192,12.8330078 78.3500279,14.1855469 78.7504185,15.7285156 C79.1508092,17.2714844 79.9515904,18.7558594 81.1527623,20.1816406 C82.3539342,21.6074219 83.686942,22.9746094 85.1517857,24.2832031 C87.6127232,26.3925781 89.4047154,27.9208984 90.5277623,28.8681641 C91.6508092,29.8154297 92.2123326,30.7773438 92.2123326,31.7539062 C92.2123326,32.7304688 91.5336217,34.0341797 90.1761998,35.6650391 C88.8187779,37.2958984 86.7875279,38.7851562 84.0824498,40.1328125 C81.3773717,41.4804688 78.6429967,42.2373047 75.8793248,42.4033203 C73.1156529,42.5693359 70.8060826,42.28125 68.9506138,41.5390625 C68.5990513,40.7578125 68.2767857,40.2792969 67.983817,40.1035156 C67.6908482,39.8886719 67.5199498,39.9033203 67.4711217,40.1474609 C67.4222935,40.3916016 67.4027623,40.7773438 67.4125279,41.3046875 C67.4222935,41.8320312 67.6810826,42.3349609 68.1888951,42.8134766 C68.6967076,43.2919922 69.390067,43.6044922 70.2689732,43.7509766 C71.1478795,43.8974609 72.2904576,44.0097656 73.6967076,44.0878906 Z M105.813616,43.9121094 C108.176897,44.0097656 110.862444,44.0097656 113.870257,43.9121094 C117.971819,43.4824219 121.839007,42.4863281 125.471819,40.9238281 C126.135882,40.4941406 125.774554,40.3476562 124.387835,40.484375 C122.083147,40.7773438 120.081194,41.0996094 118.381975,41.4511719 C116.682757,41.8027344 113.821429,42.125 109.797991,42.4179688 C106.731585,42.3789062 104.822405,42.3007812 104.070452,42.1835938 C103.318499,42.0664062 102.630022,41.9199219 102.005022,41.7441406 C101.126116,41.1386719 100.80385,40.3574219 101.038225,39.4003906 L101.038225,39.4003906 L101.419085,38.4921875 C101.985491,37.6132812 102.449358,36.9394531 102.810686,36.4707031 C103.172015,36.0019531 103.870257,35.1914062 104.905413,34.0390625 C105.999163,32.9648438 107.219866,31.8417969 108.567522,30.6699219 C109.915179,29.7128906 110.979632,28.9121094 111.760882,28.2675781 C112.542132,27.6230469 113.411272,26.9882812 114.368304,26.3632812 C115.71596,25.5429688 116.96596,24.7128906 118.118304,23.8730469 C119.368304,22.9746094 120.784319,22.0859375 122.36635,21.2070312 C123.1476,20.7773438 123.61635,20.2988281 123.7726,19.7714844 C123.694475,19.0292969 123.333147,18.5800781 122.688616,18.4238281 C122.063616,18.3847656 121.477679,18.4042969 120.930804,18.4824219 C119.837054,18.5605469 118.645647,18.6875 117.356585,18.8632812 L117.356585,18.8632812 L114.719866,18.9804688 C112.786272,18.9609375 111.409319,18.9023438 110.589007,18.8046875 C109.768694,18.7070312 108.870257,18.5117188 107.893694,18.21875 C107.014788,17.6914062 106.555804,17.0810547 106.516741,16.3876953 C106.477679,15.6943359 106.677874,14.8984375 107.117327,14 C107.55678,13.1015625 108.342913,11.9833984 109.475725,10.6455078 C110.608538,9.30761719 111.926897,8.23828125 113.430804,7.4375 C115.501116,6.265625 117.175921,5.46484375 118.455218,5.03515625 C119.734515,4.60546875 120.916155,4.28808594 122.00014,4.08300781 C123.084124,3.87792969 124.172991,3.78515625 125.266741,3.8046875 C126.731585,3.765625 127.610491,4.2734375 127.90346,5.328125 C128.137835,6.3046875 128.4601,6.79296875 128.870257,6.79296875 C129.026507,6.734375 129.192522,6.49023438 129.368304,6.06054688 L129.368304,6.06054688 L129.368304,4.859375 C129.270647,4.25390625 129.080218,3.78027344 128.797015,3.43847656 C128.513811,3.09667969 128.157366,2.81835938 127.727679,2.60351562 L127.727679,2.60351562 L126.145647,2.046875 L124.387835,2.046875 C124.172991,2.0703125 123.969671,2.09257813 123.777874,2.11367188 L123.237054,2.1734375 C122.730804,2.2296875 122.328265,2.27539062 122.029436,2.31054688 C121.53139,2.36914062 120.501116,2.61328125 118.938616,3.04296875 C117.356585,3.53125 115.87221,4.14648438 114.485491,4.88867188 C112.161272,6.02148438 110.110491,7.34960938 108.333147,8.87304688 L108.333147,8.87304688 L106.80971,10.8359375 C105.852679,12.4179688 105.266741,13.8535156 105.051897,15.1425781 L105.051897,15.1425781 L104.964007,16.34375 C105.139788,17.8476562 105.784319,18.8535156 106.8976,19.3613281 C107.913225,19.8300781 109.24135,20.1132812 110.881975,20.2109375 C112.483538,20.25 113.880022,20.2597656 115.071429,20.2402344 L115.071429,20.2402344 L117.063616,20.2402344 C118.567522,20.1425781 119.700335,20.0351562 120.462054,19.9179688 L120.462054,19.9179688 L121.42885,19.7714844 C120.999163,20.0449219 120.452288,20.4160156 119.788225,20.8847656 C118.987444,21.4316406 118.186663,21.9394531 117.385882,22.4082031 C115.589007,23.4824219 114.451311,24.1708984 113.972796,24.4736328 C113.49428,24.7763672 113.05971,25.0742188 112.669085,25.3671875 C112.27846,25.6601562 111.629046,26.1289062 110.720843,26.7734375 C109.81264,27.4179688 108.621233,28.3261719 107.146624,29.4980469 C105.672015,30.6699219 104.641741,31.5634766 104.055804,32.1787109 C103.469866,32.7939453 102.86928,33.4628906 102.254046,34.1855469 C101.638811,34.9082031 100.940569,35.875 100.159319,37.0859375 C99.7882255,37.7109375 99.4952567,38.5605469 99.280413,39.6347656 C99.280413,41.0214844 99.7101005,42.0957031 100.569475,42.8574219 C101.702288,43.4628906 103.450335,43.8144531 105.813616,43.9121094 Z M164.693638,42.7695312 C164.517857,43.7265625 164.639927,44.1367188 165.059849,44 C165.479771,43.8632812 165.80692,43.3847656 166.041295,42.5644531 C167.99442,42.2128906 169.996373,41.6953125 172.047154,41.0117188 C174.097935,40.328125 175.987584,39.6640625 177.716099,39.0195312 C179.444615,38.375 180.748326,37.8378906 181.627232,37.4082031 C182.506138,36.9785156 184.190709,35.9824219 186.680943,34.4199219 C189.171177,32.8574219 191.265904,31.0556641 192.965123,29.0146484 C194.664342,26.9736328 195.640904,24.9423828 195.89481,22.9208984 C196.148717,20.8994141 196.007115,19.0439453 195.470006,17.3544922 C194.932896,15.6650391 194.068638,13.9365234 192.877232,12.1689453 C191.685826,10.4013672 190.191685,8.84863281 188.39481,7.51074219 C186.597935,6.17285156 184.742467,5.08886719 182.828404,4.25878906 C180.914342,3.42871094 179.298131,2.89160156 177.979771,2.64746094 C176.661412,2.40332031 174.722935,2.203125 172.164342,2.046875 C169.625279,1.87109375 167.061802,1.98828125 164.473912,2.3984375 C161.886021,2.80859375 159.981724,3.25292969 158.761021,3.73144531 C157.540318,4.20996094 156.470982,4.83007812 155.553013,5.59179688 C154.635045,6.35351562 154.263951,7.42773438 154.439732,8.81445312 C154.693638,9.84960938 155.274693,10.5087891 156.182896,10.7919922 C157.091099,11.0751953 157.286412,10.7529297 156.768834,9.82519531 C156.251256,8.89746094 156.158482,8.21875 156.490513,7.7890625 C157.388951,6.87109375 158.23856,6.2265625 159.039342,5.85546875 C159.840123,5.484375 160.997349,5.11816406 162.511021,4.75683594 C164.024693,4.39550781 165.80692,4.14160156 167.857701,3.99511719 C169.908482,3.84863281 171.861607,3.86816406 173.717076,4.05371094 C175.572545,4.23925781 177.691685,4.67871094 180.074498,5.37207031 C182.45731,6.06542969 184.732701,7.28613281 186.90067,9.03417969 C189.068638,10.7822266 190.660435,12.5644531 191.67606,14.3808594 C192.691685,16.1972656 193.326451,17.7304688 193.580357,18.9804688 C193.834263,20.2304688 193.89774,21.5439453 193.770787,22.9208984 C193.643834,24.2978516 193.009068,25.6894531 191.86649,27.0957031 C190.723912,28.5019531 189.512974,29.7470703 188.233677,30.8310547 C186.954381,31.9150391 185.562779,32.9208984 184.058873,33.8486328 C182.554967,34.7763672 180.470006,35.8115234 177.80399,36.9541016 C175.137974,38.0966797 171.422154,39.3515625 166.656529,40.71875 C167.398717,37.5546875 167.99442,34.9277344 168.443638,32.8378906 C168.892857,30.7480469 169.327427,28.7021484 169.747349,26.7001953 C170.167271,24.6982422 170.606724,22.5546875 171.065709,20.2695312 C171.524693,17.984375 172.076451,15.5185547 172.720982,12.8720703 C173.365513,10.2255859 173.355748,8.56542969 172.691685,7.89160156 C172.027623,7.21777344 171.583287,7.28613281 171.358677,8.09667969 C171.335034,8.18200041 171.310039,8.27570713 171.28369,8.37779984 L171.200588,8.70923595 C170.982687,9.6007212 170.688704,10.9639186 170.318638,12.7988281 C169.849888,15.1230469 169.390904,17.359375 168.941685,19.5078125 C168.492467,21.65625 168.067662,23.7802734 167.667271,25.8798828 C167.266881,27.9794922 166.807896,30.4355469 166.290318,33.2480469 C165.77274,36.0605469 165.357701,38.6289062 165.045201,40.953125 C162.349888,41.265625 160.069615,41.3046875 158.204381,41.0703125 C156.339146,40.8359375 155.797154,41.0263672 156.578404,41.6416016 C157.359654,42.2568359 158.189732,42.6279297 159.068638,42.7548828 C159.947545,42.8818359 160.797154,42.9306641 161.617467,42.9013672 C162.437779,42.8720703 163.46317,42.828125 164.693638,42.7695312 Z M204.544922,47.4863281 C204.896484,47.3300781 205.130859,47.1787109 205.248047,47.0322266 C205.365234,46.8857422 205.550781,46.5292969 205.804688,45.9628906 C206.566406,42.6621094 207.137695,39.8496094 207.518555,37.5253906 C207.899414,35.2011719 208.163086,33.5947266 208.30957,32.7060547 C208.456055,31.8173828 208.753906,29.7519531 209.203125,26.5097656 C213.246094,29.4589844 216.117188,31.7001953 217.816406,33.2333984 C219.515625,34.7666016 221.849609,36.5830078 224.818359,38.6826172 C227.787109,40.7822266 230.755859,42.2617188 233.724609,43.1210938 C234.955078,43.21875 235.033203,42.9355469 233.958984,42.2714844 C233.158203,41.9980469 231.986328,41.4072266 230.443359,40.4990234 C228.900391,39.5908203 226.966797,38.2431641 224.642578,36.4560547 C222.318359,34.6689453 219.901367,32.7451172 217.391602,30.6845703 C214.881836,28.6240234 212.240234,26.6855469 209.466797,24.8691406 C209.603516,23.9902344 209.740234,23.1894531 209.876953,22.4667969 C211.224609,22.1542969 212.962891,21.5732422 215.091797,20.7236328 C217.220703,19.8740234 218.890625,19.0878906 220.101563,18.3652344 C221.3125,17.6425781 222.479492,16.7099609 223.602539,15.5673828 C224.725586,14.4248047 225.53125,13.4335937 226.019531,12.59375 C226.507813,11.7539062 226.786133,10.9042969 226.854492,10.0449219 C226.922852,9.18554688 226.883789,8.4921875 226.737305,7.96484375 C226.59082,7.4375 226.263672,6.8125 225.755859,6.08984375 C225.248047,5.3671875 224.413086,4.68359375 223.250977,4.0390625 C222.088867,3.39453125 220.580078,2.93554688 218.724609,2.66210938 C216.869141,2.38867188 214.876953,2.23242188 212.748047,2.19335938 C212.455078,1.11914063 212.064453,0.533203125 211.576172,0.435546875 C211.087891,0.318359375 210.892578,0.484375 210.990234,0.93359375 L210.990234,0.93359375 L210.990234,1.78320313 L210.873047,2.48632813 C210.150391,2.70117188 209.369141,2.95019531 208.529297,3.23339844 C207.689453,3.51660156 206.673828,3.99511719 205.482422,4.66894531 C204.291016,5.34277344 203.583008,5.9140625 203.358398,6.3828125 C203.133789,6.8515625 203.021484,7.26171875 203.021484,7.61328125 C203.021484,7.96484375 203.089844,8.23339844 203.226563,8.41894531 C203.363281,8.60449219 203.553711,9.00488281 203.797852,9.62011719 C204.041992,10.2353516 204.349609,10.9238281 204.720703,11.6855469 C205.111328,11.3339844 205.228516,10.9287109 205.072266,10.4697266 C204.916016,10.0107422 204.706055,9.39550781 204.442383,8.62402344 C204.178711,7.85253906 204.359375,7.21289063 204.984375,6.70507813 C205.609375,6.19726563 206.249023,5.77246094 206.90332,5.43066406 C207.557617,5.08886719 208.841797,4.63476563 210.755859,4.06835938 C210.169922,7.79882813 209.779297,10.2060547 209.583984,11.2900391 C209.388672,12.3740234 209.178711,13.6923828 208.954102,15.2451172 C208.936824,15.3645583 208.919286,15.4862241 208.901489,15.6101146 L208.791582,16.3801544 C208.603204,17.7080483 208.388822,19.2584135 208.148438,21.03125 C206.46875,21.3632812 205.135742,21.5830078 204.149414,21.6904297 C203.163086,21.7978516 202.21582,21.8710938 201.307617,21.9101562 C200.399414,21.9492188 199.955078,22.1542969 199.974609,22.5253906 C199.994141,22.8964844 200.21875,23.3457031 200.648438,23.8730469 C201.15625,23.8730469 201.712891,23.8242188 202.318359,23.7265625 C203.275391,23.7265625 204.330078,23.9707031 205.482422,24.4589844 L205.482422,24.4589844 L207.416016,25.484375 C207.280599,26.4947917 207.147266,27.4670139 207.016016,28.4010417 L206.820703,29.7734375 C206.530078,31.7890625 206.25,33.6113281 205.980469,35.2402344 C205.53125,37.9550781 205.121094,40.25 204.75,42.125 C204.378906,44 204.056641,45.5820312 203.783203,46.8710938 L203.783203,46.8710938 L204.28125,47.4863281 L204.544922,47.4863281 Z M210.228516,20.4453125 C210.501953,18.609375 210.72168,17.1152344 210.887695,15.9628906 C210.96148,15.4507378 211.041052,14.8971113 211.126411,14.302011 L211.258789,13.3782552 C211.327148,12.9008247 211.398763,12.4000651 211.473633,11.8759766 C211.529785,11.4829102 211.582886,11.1112061 211.632935,10.7608643 L211.773926,9.77392578 C211.861816,9.15869141 211.9375,8.62890625 212.000977,8.18457031 C212.12793,7.29589844 212.347656,5.86523438 212.660156,3.89257812 C214.085938,3.75585938 215.658203,3.8046875 217.376953,4.0390625 C219.095703,4.2734375 220.379883,4.52734375 221.229492,4.80078125 C222.079102,5.07421875 222.972656,5.50390625 223.910156,6.08984375 C224.769531,7.14453125 225.238281,7.95019531 225.316406,8.50683594 C225.394531,9.06347656 225.306641,9.73730469 225.052734,10.5283203 C224.798828,11.3193359 224.266602,12.1933594 223.456055,13.1503906 C222.645508,14.1074219 221.664063,15.0205078 220.511719,15.8896484 C219.359375,16.7587891 217.870117,17.5986328 216.043945,18.4091797 C214.217773,19.2197266 212.279297,19.8984375 210.228516,20.4453125 Z M207.738281,23.7558594 C207.445313,23.5996094 207.054688,23.4335938 206.566406,23.2578125 C206.996094,23.1601562 207.425781,23.0527344 207.855469,22.9355469 L207.855469,22.9355469 L207.738281,23.7558594 Z M242.521205,43.9121094 C244.884487,44.0097656 247.570034,44.0097656 250.577846,43.9121094 C254.679409,43.4824219 258.546596,42.4863281 262.179409,40.9238281 C262.843471,40.4941406 262.482143,40.3476562 261.095424,40.484375 C258.790737,40.7773438 256.788784,41.0996094 255.089565,41.4511719 C253.390346,41.8027344 250.529018,42.125 246.50558,42.4179688 C243.439174,42.3789062 241.529994,42.3007812 240.778041,42.1835938 C240.026088,42.0664062 239.337612,41.9199219 238.712612,41.7441406 C237.833705,41.1386719 237.51144,40.3574219 237.745815,39.4003906 L237.745815,39.4003906 L238.126674,38.4921875 C238.69308,37.6132812 239.156948,36.9394531 239.518276,36.4707031 C239.879604,36.0019531 240.577846,35.1914062 241.613002,34.0390625 C242.706752,32.9648438 243.927455,31.8417969 245.275112,30.6699219 C246.622768,29.7128906 247.687221,28.9121094 248.468471,28.2675781 C249.249721,27.6230469 250.118862,26.9882812 251.075893,26.3632812 C252.423549,25.5429688 253.673549,24.7128906 254.825893,23.8730469 C256.075893,22.9746094 257.491909,22.0859375 259.07394,21.2070312 C259.85519,20.7773438 260.32394,20.2988281 260.48019,19.7714844 C260.402065,19.0292969 260.040737,18.5800781 259.396205,18.4238281 C258.771205,18.3847656 258.185268,18.4042969 257.638393,18.4824219 C256.544643,18.5605469 255.353237,18.6875 254.064174,18.8632812 L254.064174,18.8632812 L251.427455,18.9804688 C249.493862,18.9609375 248.116909,18.9023438 247.296596,18.8046875 C246.476284,18.7070312 245.577846,18.5117188 244.601284,18.21875 C243.722377,17.6914062 243.263393,17.0810547 243.22433,16.3876953 C243.185268,15.6943359 243.385463,14.8984375 243.824916,14 C244.264369,13.1015625 245.050502,11.9833984 246.183315,10.6455078 C247.316127,9.30761719 248.634487,8.23828125 250.138393,7.4375 C252.208705,6.265625 253.88351,5.46484375 255.162807,5.03515625 C256.442104,4.60546875 257.623744,4.28808594 258.707729,4.08300781 C259.791713,3.87792969 260.88058,3.78515625 261.97433,3.8046875 C263.439174,3.765625 264.31808,4.2734375 264.611049,5.328125 C264.845424,6.3046875 265.16769,6.79296875 265.577846,6.79296875 C265.734096,6.734375 265.900112,6.49023438 266.075893,6.06054688 L266.075893,6.06054688 L266.075893,4.859375 C265.978237,4.25390625 265.787807,3.78027344 265.504604,3.43847656 C265.221401,3.09667969 264.864955,2.81835938 264.435268,2.60351562 L264.435268,2.60351562 L262.853237,2.046875 L261.095424,2.046875 C260.021205,2.1640625 259.235073,2.25195312 258.737026,2.31054688 C258.238979,2.36914062 257.208705,2.61328125 255.646205,3.04296875 C254.064174,3.53125 252.579799,4.14648438 251.19308,4.88867188 C248.868862,6.02148438 246.81808,7.34960938 245.040737,8.87304688 L245.040737,8.87304688 L243.517299,10.8359375 C242.560268,12.4179688 241.97433,13.8535156 241.759487,15.1425781 L241.759487,15.1425781 L241.671596,16.34375 C241.847377,17.8476562 242.491909,18.8535156 243.60519,19.3613281 C244.620815,19.8300781 245.94894,20.1132812 247.589565,20.2109375 C249.191127,20.25 250.587612,20.2597656 251.779018,20.2402344 L251.779018,20.2402344 L253.771205,20.2402344 C255.275112,20.1425781 256.407924,20.0351562 257.169643,19.9179688 L257.169643,19.9179688 L258.13644,19.7714844 C257.706752,20.0449219 257.159877,20.4160156 256.495815,20.8847656 C255.695034,21.4316406 254.894252,21.9394531 254.093471,22.4082031 C252.296596,23.4824219 251.158901,24.1708984 250.680385,24.4736328 C250.201869,24.7763672 249.767299,25.0742188 249.376674,25.3671875 C248.986049,25.6601562 248.336635,26.1289062 247.428432,26.7734375 C246.520229,27.4179688 245.328823,28.3261719 243.854213,29.4980469 C242.379604,30.6699219 241.34933,31.5634766 240.763393,32.1787109 C240.177455,32.7939453 239.576869,33.4628906 238.961635,34.1855469 C238.346401,34.9082031 237.648159,35.875 236.866909,37.0859375 C236.495815,37.7109375 236.202846,38.5605469 235.988002,39.6347656 C235.988002,41.0214844 236.41769,42.0957031 237.277065,42.8574219 C238.409877,43.4628906 240.157924,43.8144531 242.521205,43.9121094 Z M270.712333,44.0878906 C272.118583,44.1660156 273.739676,44.0439453 275.575614,43.7216797 C277.411551,43.3994141 279.169364,42.8671875 280.849051,42.125 C282.528739,41.3828125 284.057059,40.5185547 285.434012,39.5322266 C286.810965,38.5458984 288.031669,37.4375 289.096122,36.2070312 C290.160575,34.9765625 290.834403,33.9316406 291.117606,33.0722656 C291.400809,32.2128906 291.356864,31.3974609 290.98577,30.6259766 C290.614676,29.8544922 290.20452,29.234375 289.755301,28.765625 C289.306083,28.296875 288.744559,27.7744141 288.070731,27.1982422 C287.396903,26.6220703 286.73284,26.0751953 286.078544,25.5576172 C285.424247,25.0400391 284.472098,24.234375 283.222098,23.140625 C281.972098,22.046875 280.790458,20.7724609 279.677176,19.3173828 C278.563895,17.8623047 277.797294,16.6171875 277.377372,15.5820312 C276.95745,14.546875 276.845145,13.3164062 277.040458,11.890625 C277.23577,10.4648437 277.968192,9.12207031 279.237723,7.86230469 C280.507254,6.60253906 282.318778,5.58203125 284.672294,4.80078125 C287.025809,4.01953125 289.276786,3.58496094 291.425223,3.49707031 C293.573661,3.40917969 295.077567,3.87304687 295.936942,4.88867187 C297.245536,5.86523437 297.694754,7.26171875 297.284598,9.078125 C296.347098,10.9726562 294.520926,12.90625 291.806083,14.8789062 C291.806083,15.0742187 292.059989,15.09375 292.567801,14.9375 C293.993583,14.4492187 295.263114,13.5800781 296.376395,12.3300781 C297.489676,11.0800781 298.183036,10.1425781 298.456473,9.51757812 C299.140067,8.63867187 299.310965,7.60351562 298.969169,6.41210937 C298.627372,5.22070312 297.821708,4.19042969 296.552176,3.32128906 C295.282645,2.45214844 293.583426,2.02734375 291.45452,2.046875 C289.325614,2.06640625 287.401786,2.33007812 285.683036,2.83789062 C283.964286,3.34570312 282.470145,3.92675781 281.200614,4.58105469 C279.931083,5.23535156 278.925223,5.90429687 278.183036,6.58789062 C277.440848,7.27148437 276.820731,7.99902344 276.322684,8.77050781 C275.824637,9.54199219 275.507254,10.5087891 275.370536,11.6708984 C275.233817,12.8330078 275.365653,14.1855469 275.766044,15.7285156 C276.166434,17.2714844 276.967215,18.7558594 278.168387,20.1816406 C279.369559,21.6074219 280.702567,22.9746094 282.167411,24.2832031 C284.628348,26.3925781 286.42034,27.9208984 287.543387,28.8681641 C288.666434,29.8154297 289.227958,30.7773438 289.227958,31.7539062 C289.227958,32.7304688 288.549247,34.0341797 287.191825,35.6650391 C285.834403,37.2958984 283.803153,38.7851562 281.098075,40.1328125 C278.392997,41.4804688 275.658622,42.2373047 272.89495,42.4033203 C270.131278,42.5693359 267.821708,42.28125 265.966239,41.5390625 C265.614676,40.7578125 265.292411,40.2792969 264.999442,40.1035156 C264.706473,39.8886719 264.535575,39.9033203 264.486747,40.1474609 C264.437919,40.3916016 264.418387,40.7773438 264.428153,41.3046875 C264.437919,41.8320312 264.696708,42.3349609 265.20452,42.8134766 C265.712333,43.2919922 266.405692,43.6044922 267.284598,43.7509766 C268.163504,43.8974609 269.306083,44.0097656 270.712333,44.0878906 Z M300.86635,44.0878906 C302.2726,44.1660156 303.893694,44.0439453 305.729632,43.7216797 C307.565569,43.3994141 309.323382,42.8671875 311.003069,42.125 C312.682757,41.3828125 314.211077,40.5185547 315.58803,39.5322266 C316.964983,38.5458984 318.185686,37.4375 319.25014,36.2070312 C320.314593,34.9765625 320.988421,33.9316406 321.271624,33.0722656 C321.554827,32.2128906 321.510882,31.3974609 321.139788,30.6259766 C320.768694,29.8544922 320.358538,29.234375 319.909319,28.765625 C319.4601,28.296875 318.898577,27.7744141 318.224749,27.1982422 C317.550921,26.6220703 316.886858,26.0751953 316.232561,25.5576172 C315.578265,25.0400391 314.626116,24.234375 313.376116,23.140625 C312.126116,22.046875 310.944475,20.7724609 309.831194,19.3173828 C308.717913,17.8623047 307.951311,16.6171875 307.53139,15.5820312 C307.111468,14.546875 306.999163,13.3164062 307.194475,11.890625 C307.389788,10.4648437 308.12221,9.12207031 309.391741,7.86230469 C310.661272,6.60253906 312.472796,5.58203125 314.826311,4.80078125 C317.179827,4.01953125 319.430804,3.58496094 321.579241,3.49707031 C323.727679,3.40917969 325.231585,3.87304687 326.09096,4.88867187 C327.399554,5.86523437 327.848772,7.26171875 327.438616,9.078125 C326.501116,10.9726562 324.674944,12.90625 321.9601,14.8789062 C321.9601,15.0742187 322.214007,15.09375 322.721819,14.9375 C324.1476,14.4492187 325.417132,13.5800781 326.530413,12.3300781 C327.643694,11.0800781 328.337054,10.1425781 328.610491,9.51757812 C329.294085,8.63867187 329.464983,7.60351562 329.123186,6.41210937 C328.78139,5.22070312 327.975725,4.19042969 326.706194,3.32128906 C325.436663,2.45214844 323.737444,2.02734375 321.608538,2.046875 C319.479632,2.06640625 317.555804,2.33007812 315.837054,2.83789062 C314.118304,3.34570312 312.624163,3.92675781 311.354632,4.58105469 C310.0851,5.23535156 309.079241,5.90429687 308.337054,6.58789062 C307.594866,7.27148437 306.974749,7.99902344 306.476702,8.77050781 C305.978655,9.54199219 305.661272,10.5087891 305.524554,11.6708984 C305.387835,12.8330078 305.519671,14.1855469 305.920061,15.7285156 C306.320452,17.2714844 307.121233,18.7558594 308.322405,20.1816406 C309.523577,21.6074219 310.856585,22.9746094 312.321429,24.2832031 C314.782366,26.3925781 316.574358,27.9208984 317.697405,28.8681641 C318.820452,29.8154297 319.381975,30.7773438 319.381975,31.7539062 C319.381975,32.7304688 318.703265,34.0341797 317.345843,35.6650391 C315.988421,37.2958984 313.957171,38.7851562 311.252093,40.1328125 C308.547015,41.4804688 305.81264,42.2373047 303.048968,42.4033203 C300.285296,42.5693359 297.975725,42.28125 296.120257,41.5390625 C295.768694,40.7578125 295.446429,40.2792969 295.15346,40.1035156 C294.860491,39.8886719 294.689593,39.9033203 294.640765,40.1474609 C294.591936,40.3916016 294.572405,40.7773438 294.582171,41.3046875 C294.591936,41.8320312 294.850725,42.3349609 295.358538,42.8134766 C295.86635,43.2919922 296.55971,43.6044922 297.438616,43.7509766 C298.317522,43.8974609 299.4601,44.0097656 300.86635,44.0878906 Z" id="ROSEDRESS" fill="#000000" fill-rule="nonzero"></path>
    </g>
</svg>