<?xml version="1.0" encoding="UTF-8"?>
<svg width="112px" height="11px" viewBox="0 0 112 11" version="1.1" xmlns="http://www.w3.org/2000/svg" xmlns:xlink="http://www.w3.org/1999/xlink">
    <title>Group 6</title>
    <g id="final-copy" stroke="none" stroke-width="1" fill="none" fill-rule="evenodd">
        <g id="Model-Page_375" transform="translate(-249.000000, -15.000000)" fill="#000000">
            <g id="Group-6" transform="translate(249.000000, 15.000000)">
                <g id="Group-3" fill-rule="nonzero">
                    <path d="M2.496,9.347 C3.29333333,9.347 3.97583333,9.14333333 4.5435,8.736 C5.11116667,8.32866667 5.395,7.72633333 5.395,6.929 C5.395,6.487 5.2845,6.08833333 5.0635,5.733 C4.8425,5.37766667 4.56516667,5.0895 4.2315,4.8685 C3.89783333,4.6475 3.536,4.42216667 3.146,4.1925 C2.756,3.96283333 2.39416667,3.75266667 2.0605,3.562 C1.72683333,3.37133333 1.4495,3.13083333 1.2285,2.8405 C1.0075,2.55016667 0.897,2.20133333 0.897,1.794 C0.897,1.38666667 1.053,1.0335 1.365,0.7345 C1.677,0.4355 2.09083333,0.286 2.6065,0.286 C3.12216667,0.286 3.57933333,0.4875 3.978,0.8905 C4.37666667,1.2935 4.576,1.90233333 4.576,2.717 L4.576,2.717 L4.771,2.769 C4.901,1.71166667 4.966,0.966333333 4.966,0.533 C4.27266667,0.177666667 3.52083333,-1.22568622e-13 2.7105,-1.22568622e-13 C1.90016667,-1.22568622e-13 1.25016667,0.199333333 0.7605,0.598 C0.270833333,0.996666667 0.026,1.53183333 0.026,2.2035 C0.026,2.87516667 0.325,3.46233333 0.923,3.965 C1.183,4.18166667 1.47333333,4.38966667 1.794,4.589 C2.11466667,4.78833333 2.43533333,4.98116667 2.756,5.1675 C3.07666667,5.35383333 3.367,5.54233333 3.627,5.733 C4.225,6.175 4.524,6.67766667 4.524,7.241 C4.524,7.865 4.33333333,8.32216667 3.952,8.6125 C3.57066667,8.90283333 3.081,9.048 2.483,9.048 C1.885,9.048 1.38016667,8.827 0.9685,8.385 C0.556833333,7.943 0.351,7.30166667 0.351,6.461 L0.351,6.461 L0.156,6.422 C0.052,7.27133333 -5.68434189e-14,7.97333333 -5.68434189e-14,8.528 C0.294666667,8.79666667 0.673833333,9.00033333 1.1375,9.139 C1.60116667,9.27766667 2.054,9.347 2.496,9.347 Z M8.567,9.217 L8.541,9.061 C8.16833333,9.061 7.9105,9.0285 7.7675,8.9635 C7.6245,8.8985 7.553,8.72516667 7.553,8.4435 C7.553,8.16183333 7.73933333,7.47066667 8.112,6.37 L8.112,6.37 L12.077,6.37 C12.5363333,7.62666667 12.766,8.36333333 12.766,8.58 C12.766,8.79666667 12.6988333,8.931 12.5645,8.983 C12.4301667,9.035 12.1983333,9.061 11.869,9.061 L11.869,9.061 L11.843,9.217 L15.093,9.217 L15.067,9.061 C14.7376667,9.061 14.4646667,8.98733333 14.248,8.84 C14.1266667,8.762 13.9988333,8.58433333 13.8645,8.307 C13.7301667,8.02966667 13.468,7.37533333 13.078,6.344 L13.078,6.344 L10.777,0.117 L8.632,0.117 L8.658,0.26 C9.00466667,0.26 9.23866667,0.296833333 9.36,0.3705 C9.48133333,0.444166667 9.542,0.606666667 9.542,0.858 C9.542,1.10933333 9.33833333,1.82433333 8.931,3.003 L8.931,3.003 L7.774,6.344 C7.55733333,6.98533333 7.371,7.48366667 7.215,7.839 C7.059,8.19433333 6.8965,8.46516667 6.7275,8.6515 C6.5585,8.83783333 6.4025,8.95266667 6.2595,8.996 C6.1165,9.03933333 5.91933333,9.061 5.668,9.061 L5.668,9.061 L5.642,9.217 L8.567,9.217 Z M11.973,6.058 L8.216,6.058 L10.049,0.819 L11.973,6.058 Z M23.426,9.282 L23.426,3.042 C23.426,2.184 23.465,1.56433333 23.543,1.183 C23.621,0.801666667 23.751,0.5525 23.933,0.4355 C24.115,0.3185 24.4183333,0.26 24.843,0.26 L24.843,0.26 L24.869,0.117 L21.645,0.117 L21.671,0.26 C22.0956667,0.26 22.399,0.3185 22.581,0.4355 C22.763,0.5525 22.8951667,0.801666667 22.9775,1.183 C23.0598333,1.56433333 23.101,2.184 23.101,3.042 L23.101,3.042 L23.101,7.852 L16.9,0.117 L15.132,0.117 L15.158,0.26 C15.5826667,0.26 15.8838333,0.3185 16.0615,0.4355 C16.2391667,0.5525 16.3691667,0.7995 16.4515,1.1765 C16.5338333,1.5535 16.575,2.17533333 16.575,3.042 L16.575,3.042 L16.575,6.253 C16.575,7.11966667 16.5338333,7.74366667 16.4515,8.125 C16.3691667,8.50633333 16.237,8.75766667 16.055,8.879 C15.873,9.00033333 15.574,9.061 15.158,9.061 L15.158,9.061 L15.132,9.217 L18.33,9.217 L18.304,9.061 C17.888,9.061 17.589,9.00033333 17.407,8.879 C17.225,8.75766667 17.095,8.50633333 17.017,8.125 C16.939,7.74366667 16.9,7.11966667 16.9,6.253 L16.9,6.253 L16.9,1.547 L23.023,9.282 L23.426,9.282 Z M29.523,9.217 C30.0603333,9.217 30.5846667,9.16933333 31.096,9.074 C31.4773333,9.00466667 31.824,8.91366667 32.136,8.801 C32.448,8.68833333 32.7795,8.51716667 33.1305,8.2875 C33.4815,8.05783333 33.7761667,7.787 34.0145,7.475 C34.2528333,7.163 34.4521667,6.7665 34.6125,6.2855 C34.7728333,5.8045 34.853,5.26283333 34.853,4.6605 C34.853,4.05816667 34.7728333,3.51433333 34.6125,3.029 C34.4521667,2.54366667 34.2528333,2.145 34.0145,1.833 C33.7761667,1.521 33.4663333,1.25233333 33.085,1.027 C32.7036667,0.801666667 32.344,0.628333333 32.006,0.507 C31.2606667,0.247 30.1426667,0.117 28.652,0.117 L28.652,0.117 L26.026,0.117 L26.052,0.26 C26.4853333,0.26 26.8016667,0.342333333 27.001,0.507 C27.105,0.593666667 27.1851667,0.808166667 27.2415,1.1505 C27.2978333,1.49283333 27.326,2.12766667 27.326,3.055 L27.326,6.279 C27.326,7.787 27.2176667,8.632 27.001,8.814 C26.8016667,8.97866667 26.4853333,9.061 26.052,9.061 L26.052,9.061 L26.026,9.217 L29.523,9.217 Z M29.3605,8.918 C29.0355,8.918 28.821,8.91366667 28.717,8.905 C28.5003333,8.801 28.366,8.59733333 28.314,8.294 C28.262,7.99066667 28.236,7.371 28.236,6.435 L28.236,6.435 L28.236,0.494 C28.522,0.442 28.86,0.416 29.25,0.416 C30.1166667,0.416 30.9096667,0.585 31.629,0.923 C32.0363333,1.12233333 32.3916667,1.37583333 32.695,1.6835 C32.9983333,1.99116667 33.2453333,2.40066667 33.436,2.912 C33.6266667,3.42333333 33.722,4.0105 33.722,4.6735 C33.722,5.3365 33.6245,5.92583333 33.4295,6.4415 C33.2345,6.95716667 32.9875,7.36666667 32.6885,7.67 C32.3895,7.97333333 32.0341667,8.2225 31.6225,8.4175 C31.2108333,8.6125 30.8121667,8.74466667 30.4265,8.814 C30.0408333,8.88333333 29.6855,8.918 29.3605,8.918 Z M38.519,9.347 C39.3163333,9.347 39.9988333,9.14333333 40.5665,8.736 C41.1341667,8.32866667 41.418,7.72633333 41.418,6.929 C41.418,6.487 41.3075,6.08833333 41.0865,5.733 C40.8655,5.37766667 40.5881667,5.0895 40.2545,4.8685 C39.9208333,4.6475 39.559,4.42216667 39.169,4.1925 C38.779,3.96283333 38.4171667,3.75266667 38.0835,3.562 C37.7498333,3.37133333 37.4725,3.13083333 37.2515,2.8405 C37.0305,2.55016667 36.92,2.20133333 36.92,1.794 C36.92,1.38666667 37.076,1.0335 37.388,0.7345 C37.7,0.4355 38.1138333,0.286 38.6295,0.286 C39.1451667,0.286 39.6023333,0.4875 40.001,0.8905 C40.3996667,1.2935 40.599,1.90233333 40.599,2.717 L40.599,2.717 L40.794,2.769 C40.924,1.71166667 40.989,0.966333333 40.989,0.533 C40.2956667,0.177666667 39.5438333,-1.22568622e-13 38.7335,-1.22568622e-13 C37.9231667,-1.22568622e-13 37.2731667,0.199333333 36.7835,0.598 C36.2938333,0.996666667 36.049,1.53183333 36.049,2.2035 C36.049,2.87516667 36.348,3.46233333 36.946,3.965 C37.206,4.18166667 37.4963333,4.38966667 37.817,4.589 C38.1376667,4.78833333 38.4583333,4.98116667 38.779,5.1675 C39.0996667,5.35383333 39.39,5.54233333 39.65,5.733 C40.248,6.175 40.547,6.67766667 40.547,7.241 C40.547,7.865 40.3563333,8.32216667 39.975,8.6125 C39.5936667,8.90283333 39.104,9.048 38.506,9.048 C37.908,9.048 37.4031667,8.827 36.9915,8.385 C36.5798333,7.943 36.374,7.30166667 36.374,6.461 L36.374,6.461 L36.179,6.422 C36.075,7.27133333 36.023,7.97333333 36.023,8.528 C36.3176667,8.79666667 36.6968333,9.00033333 37.1605,9.139 C37.6241667,9.27766667 38.077,9.347 38.519,9.347 Z M49.933,9.217 L49.907,9.061 C49.5083333,9.061 49.1703333,9.02633333 48.893,8.957 C48.763,8.92233333 48.6655,8.85516667 48.6005,8.7555 C48.5355,8.65583333 48.477,8.54966667 48.425,8.437 C48.3123333,8.229 48.256,7.50966667 48.256,6.279 L48.256,4.797 C48.9233333,4.81433333 49.4065,4.86633333 49.7055,4.953 C50.0045,5.03966667 50.1951667,5.16966667 50.2775,5.343 C50.3598333,5.51633333 50.401,5.80233333 50.401,6.201 L50.401,6.201 L50.557,6.227 L50.557,3.068 L50.401,3.094 C50.401,3.39733333 50.3836667,3.62266667 50.349,3.77 C50.3143333,3.91733333 50.2233333,4.05383333 50.076,4.1795 C49.9286667,4.30516667 49.7141667,4.3875 49.4325,4.4265 C49.1508333,4.4655 48.7586667,4.49366667 48.256,4.511 L48.256,4.511 L48.256,0.416 C49.504,0.416 50.4335,0.530833333 51.0445,0.7605 C51.6555,0.990166667 51.961,1.391 51.961,1.963 L51.961,1.963 L52.104,1.989 L52.104,0.117 L46.033,0.117 L46.059,0.26 C46.4923333,0.26 46.8086667,0.342333333 47.008,0.507 C47.112,0.593666667 47.1921667,0.808166667 47.2485,1.1505 C47.3048333,1.49283333 47.333,2.12766667 47.333,3.055 L47.333,3.055 L47.333,6.279 C47.333,7.787 47.2246667,8.632 47.008,8.814 C46.8086667,8.97866667 46.4923333,9.061 46.059,9.061 L46.059,9.061 L46.033,9.217 L49.933,9.217 Z M57.681,9.282 L59.423,3.666 L61.308,9.282 L62.14,9.282 L64.129,2.99 C64.4063333,2.12333333 64.6403333,1.508 64.831,1.144 C65.0216667,0.78 65.221,0.543833333 65.429,0.4355 C65.637,0.327166667 65.9576667,0.273 66.391,0.273 L66.391,0.273 L66.404,0.117 L63.245,0.117 L63.271,0.273 C63.609,0.273 63.8581667,0.3055 64.0185,0.3705 C64.1788333,0.4355 64.259,0.567666667 64.259,0.767 C64.259,1.157 64.09,1.898 63.752,2.99 L63.752,2.99 L62.036,8.463 L60.203,2.99 C59.8043333,1.82 59.605,1.10716667 59.605,0.8515 C59.605,0.595833333 59.67,0.4355 59.8,0.3705 C59.93,0.3055 60.164,0.273 60.502,0.273 L60.502,0.273 L60.528,0.117 L57.031,0.117 L57.057,0.273 C57.2736667,0.273 57.4426667,0.2795 57.564,0.2925 C57.6853333,0.3055 57.8131667,0.353166667 57.9475,0.4355 C58.0818333,0.517833333 58.188,0.602333333 58.266,0.689 C58.4566667,0.931666667 58.7903333,1.74633333 59.267,3.133 L59.267,3.133 L57.564,8.463 L55.757,2.99 C55.653,2.678 55.5533333,2.379 55.458,2.093 C55.432,1.99766667 55.3713333,1.80266667 55.276,1.508 C55.1806667,1.21333333 55.133,0.966333333 55.133,0.767 C55.133,0.559 55.2001667,0.424666667 55.3345,0.364 C55.4688333,0.303333333 55.705,0.273 56.043,0.273 L56.043,0.273 L56.069,0.117 L52.572,0.117 L52.598,0.273 C52.9186667,0.273 53.157,0.290333333 53.313,0.325 C53.469,0.359666667 53.6315,0.483166667 53.8005,0.6955 C53.9695,0.907833333 54.1125,1.16783333 54.2295,1.4755 C54.3465,1.78316667 54.522,2.288 54.756,2.99 L54.756,2.99 L56.862,9.282 L57.681,9.282 Z M75.998,9.217 L75.998,7.358 L75.842,7.358 C75.842,7.88666667 75.491,8.242 74.789,8.424 C74.087,8.606 73.034,8.697 71.63,8.697 C72.3406667,7.98633333 72.8953333,7.4165 73.294,6.9875 C73.6926667,6.5585 74.113,6.071 74.555,5.525 C75.3783333,4.49366667 75.79,3.57066667 75.79,2.756 C75.79,2.04533333 75.556,1.52966667 75.088,1.209 C74.62,0.888333333 74.0523333,0.728 73.385,0.728 C72.7176667,0.728 72.1456667,0.8515 71.669,1.0985 C71.1923333,1.3455 70.954,1.63366667 70.954,1.963 C70.954,2.08433333 70.9951667,2.18616667 71.0775,2.2685 C71.1598333,2.35083333 71.266,2.392 71.396,2.392 C71.526,2.392 71.6538333,2.32266667 71.7795,2.184 C71.9051667,2.04533333 72.02,1.89366667 72.124,1.729 C72.228,1.56433333 72.3883333,1.41266667 72.605,1.274 C72.8216667,1.13533333 73.0773333,1.066 73.372,1.066 C73.84,1.066 74.1996667,1.21766667 74.451,1.521 C74.7023333,1.82433333 74.828,2.21866667 74.828,2.704 C74.828,3.458 74.464,4.39833333 73.736,5.525 C73.008,6.65166667 72.0243333,7.826 70.785,9.048 L70.785,9.048 L70.785,9.217 L75.998,9.217 Z M80.5675,9.347 C81.4471667,9.347 82.16,8.97 82.706,8.216 C83.252,7.462 83.525,6.41116667 83.525,5.0635 C83.525,3.71583333 83.2498333,2.65633333 82.6995,1.885 C82.1491667,1.11366667 81.4363333,0.728 80.561,0.728 C79.6856667,0.728 78.9685,1.11366667 78.4095,1.885 C77.8505,2.65633333 77.571,3.718 77.571,5.07 C77.571,6.41333333 77.8505,7.462 78.4095,8.216 C78.9685,8.97 79.6878333,9.347 80.5675,9.347 Z M80.5675,8.97 C79.9825,8.97 79.4928333,8.60816667 79.0985,7.8845 C78.7041667,7.16083333 78.507,6.21833333 78.507,5.057 C78.507,3.89566667 78.7041667,2.94016667 79.0985,2.1905 C79.4928333,1.44083333 79.9825,1.066 80.5675,1.066 C81.1525,1.066 81.6356667,1.44083333 82.017,2.1905 C82.3983333,2.94016667 82.589,3.89783333 82.589,5.0635 C82.589,6.22916667 82.3983333,7.17166667 82.017,7.891 C81.6356667,8.61033333 81.1525,8.97 80.5675,8.97 Z M90.298,9.217 L90.298,7.358 L90.142,7.358 C90.142,7.88666667 89.791,8.242 89.089,8.424 C88.387,8.606 87.334,8.697 85.93,8.697 C86.6406667,7.98633333 87.1953333,7.4165 87.594,6.9875 C87.9926667,6.5585 88.413,6.071 88.855,5.525 C89.6783333,4.49366667 90.09,3.57066667 90.09,2.756 C90.09,2.04533333 89.856,1.52966667 89.388,1.209 C88.92,0.888333333 88.3523333,0.728 87.685,0.728 C87.0176667,0.728 86.4456667,0.8515 85.969,1.0985 C85.4923333,1.3455 85.254,1.63366667 85.254,1.963 C85.254,2.08433333 85.2951667,2.18616667 85.3775,2.2685 C85.4598333,2.35083333 85.566,2.392 85.696,2.392 C85.826,2.392 85.9538333,2.32266667 86.0795,2.184 C86.2051667,2.04533333 86.32,1.89366667 86.424,1.729 C86.528,1.56433333 86.6883333,1.41266667 86.905,1.274 C87.1216667,1.13533333 87.3773333,1.066 87.672,1.066 C88.14,1.066 88.4996667,1.21766667 88.751,1.521 C89.0023333,1.82433333 89.128,2.21866667 89.128,2.704 C89.128,3.458 88.764,4.39833333 88.036,5.525 C87.308,6.65166667 86.3243333,7.826 85.085,9.048 L85.085,9.048 L85.085,9.217 L90.298,9.217 Z M97.149,9.217 L97.123,9.061 C96.7503333,9.061 96.4426667,9.02633333 96.2,8.957 C96.0786667,8.92233333 95.9855,8.85516667 95.9205,8.7555 C95.8555,8.65583333 95.797,8.54966667 95.745,8.437 C95.641,8.21166667 95.589,7.49233333 95.589,6.279 L95.589,0.78 L95.446,0.715 C95.004,1.01833333 94.0333333,1.508 92.534,2.184 L92.534,2.184 L92.638,2.431 C93.34,2.119 93.8296667,1.963 94.107,1.963 C94.4883333,1.963 94.679,2.25766667 94.679,2.847 L94.679,2.847 L94.679,6.279 C94.679,7.15433333 94.653,7.76533333 94.601,8.112 C94.5576667,8.35466667 94.5078333,8.52583333 94.4515,8.6255 C94.3951667,8.72516667 94.3041667,8.814 94.1785,8.892 C94.0528333,8.97 93.9141667,9.01766667 93.7625,9.035 C93.6108333,9.05233333 93.405,9.061 93.145,9.061 L93.145,9.061 L93.119,9.217 L97.149,9.217 Z" id="SANDSFW2021"></path>
                </g>
                <g id="Group-4" transform="translate(101.000000, 0.000000)">
                    <rect id="Rectangle" x="0" y="5" width="11" height="1"></rect>
                    <rect id="Rectangle" transform="translate(5.500000, 5.500000) rotate(-270.000000) translate(-5.500000, -5.500000) " x="0" y="5" width="11" height="1"></rect>
                </g>
            </g>
        </g>
    </g>
</svg>