<svg xmlns="http://www.w3.org/2000/svg" width="254" height="37" viewBox="0 0 254 37">
    <g fill="none" fill-rule="evenodd">
        <g fill="#000" fill-rule="nonzero">
            <path d="M735.457 138.059c.938.052 2.018-.03 3.242-.245 1.224-.214 2.396-.57 3.516-1.064 1.12-.495 2.139-1.071 3.056-1.729.918-.657 1.732-1.396 2.442-2.216.71-.82 1.159-1.517 1.348-2.09.188-.573.16-1.117-.088-1.631s-.521-.928-.82-1.24c-.3-.313-.674-.661-1.124-1.045-.449-.384-.892-.749-1.328-1.094-.436-.345-1.07-.882-1.904-1.611-.833-.73-1.621-1.579-2.363-2.55-.743-.97-1.254-1.8-1.534-2.49-.28-.69-.354-1.51-.224-2.46.13-.95.618-1.846 1.465-2.686.846-.84 2.054-1.52 3.623-2.04 1.569-.522 3.07-.811 4.502-.87 1.432-.059 2.435.25 3.007.928.873.65 1.172 1.582.899 2.793-.625 1.263-1.843 2.552-3.652 3.867 0 .13.169.143.507.039.95-.326 1.797-.905 2.54-1.738.742-.834 1.204-1.459 1.386-1.875.456-.586.57-1.276.342-2.07-.228-.795-.765-1.482-1.611-2.061-.847-.58-1.98-.863-3.399-.85-1.42.013-2.702.19-3.847.528-1.146.338-2.142.726-2.989 1.162-.846.436-1.517.882-2.011 1.338-.495.455-.909.94-1.24 1.455-.333.514-.544 1.159-.635 1.933-.092.775-.004 1.677.263 2.705.267 1.029.801 2.019 1.602 2.97.8.95 1.69 1.861 2.666 2.733 1.64 1.407 2.835 2.426 3.584 3.057.748.632 1.123 1.273 1.123 1.924s-.453 1.52-1.358 2.607c-.905 1.088-2.259 2.08-4.062 2.979-1.804.898-3.626 1.403-5.469 1.514-1.842.11-3.382-.082-4.619-.577-.234-.52-.45-.84-.645-.957-.195-.143-.309-.133-.341.03-.033.162-.046.42-.04.771.007.352.18.687.518 1.006.339.319.8.527 1.387.625.586.098 1.348.173 2.285.225zm30.923 2.89c.221-.026.378-.13.469-.312l.058-.547c.052-1.016.098-1.953.137-2.813.052-.351.094-.739.127-1.162.033-.423.107-1.08.225-1.972.117-.892.237-1.872.361-2.94.124-1.068.27-1.999.44-2.793.755-.065 1.75-.137 2.988-.215 1.758-.182 2.838-.358 3.242-.527.404-.17.42-.306.049-.41-.371-.104-.928-.143-1.67-.117-.742.026-1.517.058-2.324.097-.808.04-1.452.072-1.934.098h-.254v-.078c.078-.521.14-.95.186-1.29.045-.338.143-.927.293-1.767l.595-3.35c.248-1.393.502-2.584.762-3.574.234-1.093.547-2.265.938-3.515.195-.664.677-1.563 1.445-2.696v-.43c-.182-.26-.495-.435-.938-.527-.26.3-.468.635-.625 1.006-.156.371-.494 1.039-1.015 2.002-.808 1.38-1.358 2.311-1.65 2.793-.294.482-.707 1.14-1.24 1.973-.912 1.328-1.583 2.295-2.013 2.9l-1.543 2.178c-.599.846-1.051 1.475-1.357 1.885-.306.41-.677.898-1.113 1.465-.437.566-1.097 1.318-1.983 2.255-1.393.313-2.464.531-3.213.655-.748.123-1.344.202-1.787.234-.442.033-.748.049-.918.049-.169 0-.3.045-.39.137 0 .625.442.937 1.328.937.312 0 .469.059.469.176.885.052 1.66.195 2.324.43-1.055 1.12-1.843 1.888-2.364 2.304-.52.417-1.048.755-1.582 1.016-.533.26-.8.456-.8.586.039.469.377.703 1.015.703 1.615-1.107 2.705-1.94 3.272-2.5.566-.56 1.13-1.133 1.69-1.719.69.248 1.405.554 2.148.918.976.625 1.709 1.182 2.197 1.67s.915.96 1.28 1.416c.364.456.732 1 1.103 1.631.37.631.608 1.051.713 1.26.104.208.175.43.214.664.04.664.088 1.09.147 1.28.059.188.225.367.498.536zm-5.39-12.676c.611-.729 1.451-1.835 2.519-3.32 1.029-1.536 1.719-2.513 2.07-2.93.313-.507.615-.97.908-1.386.293-.417.759-1.094 1.397-2.032l1.035-1.503h.04v.039l-.235 1.308c-.222 1.003-.371 1.673-.45 2.012-.078.338-.208.983-.39 1.934-.104.794-.195 1.523-.274 2.187l-.449 2.852c-.807.117-1.556.214-2.246.293-1.302.208-2.61.39-3.926.546zm5 9.473c-.287-.573-.547-1.061-.782-1.465-.234-.403-.514-.804-.84-1.2-.325-.398-.742-.84-1.25-1.329-.508-.488-1.041-.928-1.601-1.318-.56-.391-1.016-.664-1.367-.82-.352-.157-.88-.378-1.582-.665.455-.442.891-.892 1.308-1.347 1.64-.287 3.001-.495 4.082-.625.925-.144 1.738-.254 2.442-.332l.605-.06-.156.88c-.17 1.289-.3 2.305-.39 3.047-.092.742-.19 1.712-.294 2.91-.091.911-.15 1.686-.176 2.324zm-8.633-7.168c-.651-.182-1.016-.28-1.094-.293v-.039c.664-.17 1.27-.293 1.816-.371-.221.221-.462.456-.722.703zM789.432 138c.208 0 .41-.335.605-1.006.196-.67.404-1.448.625-2.334.222-.885.524-1.995.909-3.33.384-1.335.768-2.63 1.152-3.887.384-1.256.775-2.503 1.172-3.74.397-1.237.856-2.61 1.377-4.121.52-1.51 1.022-2.91 1.504-4.2.481-1.288 1.126-2.734 1.933-4.335.808-1.602 1.478-2.832 2.012-3.692.534-.859 1.068-1.556 1.602-2.09-.092-.104-.378-.058-.86.137-.482.183-1.14.912-1.972 2.188-.834 1.276-1.625 2.643-2.374 4.101-.748 1.459-1.526 3.23-2.334 5.313-.807 2.083-1.542 4.163-2.207 6.24-.664 2.077-1.328 4.242-1.992 6.494-.664 2.253-1.152 3.946-1.465 5.078-.586-1.497-1.227-3.265-1.923-5.302-.697-2.038-1.302-3.841-1.817-5.41-.514-1.57-.996-3.129-1.445-4.678-.45-1.55-.84-2.884-1.172-4.004-.332-1.12-.599-1.904-.8-2.354-.203-.449-.466-.706-.792-.771-.325-.065-.599.078-.82.43 0 .455.114.719.342.79.228.072.364.378.41.919.045.54.055 1.123.03 1.748-.027.625-.238 1.787-.636 3.486-.397 1.7-.82 3.19-1.27 4.473-.448 1.282-1.002 2.522-1.66 3.72-.657 1.198-1.298 2.181-1.923 2.95-.625.768-1.315 1.516-2.07 2.246-.678.586-.391.657.859.214.586-.416 1.198-.963 1.836-1.64.638-.677 1.234-1.446 1.787-2.305.553-.86 1.11-1.937 1.67-3.232.56-1.296 1.006-2.559 1.338-3.79.332-1.23.68-2.828 1.045-4.794.455 1.81.843 3.232 1.162 4.267.319 1.035.722 2.256 1.21 3.662.489 1.407 1.013 2.9 1.573 4.483.56 1.582 1.061 3.01 1.504 4.287.443 1.276.794 2.194 1.055 2.754.078.69.351 1.035.82 1.035zm17.837-.82c-.117.638-.036.911.244.82.28-.091.498-.41.654-.957 1.302-.234 2.637-.58 4.004-1.035 1.368-.456 2.627-.899 3.78-1.328 1.152-.43 2.021-.788 2.607-1.075.586-.286 1.709-.95 3.37-1.992 1.66-1.041 3.056-2.243 4.189-3.603 1.132-1.36 1.783-2.715 1.953-4.063.169-1.347.075-2.584-.283-3.71-.359-1.127-.935-2.28-1.729-3.458-.794-1.178-1.79-2.213-2.988-3.105-1.198-.892-2.435-1.615-3.711-2.168-1.276-.554-2.354-.912-3.233-1.074-.879-.163-2.17-.297-3.877-.4-1.692-.118-3.401-.04-5.127.234-1.725.273-2.994.57-3.808.888-.814.32-1.527.733-2.139 1.24-.612.508-.86 1.224-.742 2.149.17.69.557 1.13 1.162 1.318.606.19.736-.026.39-.644-.344-.619-.406-1.071-.185-1.358.6-.612 1.166-1.041 1.7-1.289.533-.247 1.305-.491 2.314-.732 1.009-.241 2.197-.41 3.564-.508 1.368-.098 2.67-.085 3.907.04 1.237.123 2.65.416 4.238.878 1.588.462 3.105 1.276 4.55 2.441 1.446 1.166 2.507 2.354 3.184 3.565.677 1.21 1.1 2.233 1.27 3.066.17.834.211 1.71.127 2.627-.085.918-.508 1.846-1.27 2.783-.762.938-1.569 1.768-2.422 2.49-.853.723-1.78 1.394-2.783 2.012-1.002.619-2.392 1.309-4.17 2.07-1.777.762-4.254 1.599-7.431 2.51.494-2.109.891-3.86 1.191-5.253.3-1.394.59-2.758.87-4.092.28-1.335.572-2.764.878-4.287.306-1.524.674-3.168 1.104-4.932.43-1.764.423-2.871-.02-3.32-.443-.45-.739-.404-.889.136-.15.54-.38 1.586-.693 3.135-.313 1.55-.619 3.04-.918 4.473-.3 1.432-.583 2.848-.85 4.248-.267 1.4-.573 3.037-.918 4.912-.345 1.875-.621 3.587-.83 5.137-1.797.208-3.317.234-4.56.078-1.244-.156-1.605-.03-1.084.38.52.41 1.074.658 1.66.743.586.085 1.152.117 1.7.098.546-.02 1.23-.05 2.05-.088zm22.075.879c.938.052 2.019-.03 3.242-.245 1.224-.214 2.396-.57 3.516-1.064 1.12-.495 2.139-1.071 3.057-1.729.918-.657 1.732-1.396 2.441-2.216.71-.82 1.159-1.517 1.348-2.09.189-.573.16-1.117-.088-1.631-.247-.514-.52-.928-.82-1.24-.3-.313-.674-.661-1.123-1.045-.45-.384-.892-.749-1.329-1.094-.436-.345-1.07-.882-1.904-1.611-.833-.73-1.62-1.579-2.363-2.55-.742-.97-1.253-1.8-1.533-2.49-.28-.69-.355-1.51-.225-2.46.13-.95.619-1.846 1.465-2.686.846-.84 2.054-1.52 3.623-2.04 1.569-.522 3.07-.811 4.502-.87 1.432-.059 2.435.25 3.008.928.872.65 1.172 1.582.898 2.793-.625 1.263-1.842 2.552-3.652 3.867 0 .13.17.143.508.039.95-.326 1.796-.905 2.539-1.738.742-.834 1.204-1.459 1.386-1.875.456-.586.57-1.276.342-2.07-.228-.795-.765-1.482-1.611-2.061-.846-.58-1.98-.863-3.399-.85-1.419.013-2.701.19-3.847.528s-2.142.726-2.989 1.162c-.846.436-1.516.882-2.011 1.338-.495.455-.908.94-1.24 1.455-.332.514-.544 1.159-.635 1.933-.091.775-.003 1.677.263 2.705.267 1.029.801 2.019 1.602 2.97.8.95 1.69 1.861 2.666 2.733 1.64 1.407 2.835 2.426 3.584 3.057.749.632 1.123 1.273 1.123 1.924s-.452 1.52-1.357 2.607c-.905 1.088-2.26 2.08-4.063 2.979-1.803.898-3.626 1.403-5.469 1.514-1.842.11-3.382-.082-4.619-.577-.234-.52-.449-.84-.644-.957-.196-.143-.31-.133-.342.03-.033.162-.046.42-.04.771.007.352.18.687.518 1.006.339.319.801.527 1.387.625.586.098 1.348.173 2.285.225zm25.176 3.31c.033.723.293.716.782-.02.488-.735 1.26-2.187 2.314-4.355 1.055-2.168 2.149-4.499 3.281-6.992 1.133-2.494 1.85-4.098 2.149-4.815 2.942-.742 5.13-1.223 6.562-1.445 1.433-.221 2.813-.426 4.14-.615 1.329-.189 1.88-.39 1.651-.606-.228-.214-.856-.296-1.884-.244-1.03.052-2.234.17-3.614.352-.73.096-1.635.233-2.712.41l-.744.124c-.77.13-1.616.277-2.54.442 2.162-3.906 4.518-7.597 7.07-11.074 1.433-.586 2.54-1.067 3.32-1.445.782-.378 1.475-.8 2.08-1.27.606-.468.935-.888.987-1.26.052-.37-.062-.719-.342-1.044-.28-.326-.589-.476-.927-.45-.326.014-.67.092-1.036.235-.364.143-.755.345-1.171.605-.417.26-.886.616-1.407 1.065-.52.449-1.025.98-1.513 1.592-.489.612-.81.99-.967 1.132-.912.274-1.683.482-2.315.625-.631.144-1.256.27-1.875.381-.618.11-1.432.186-2.441.225-1.01.039-1.66-.023-1.953-.186-.293-.162-.436-.094-.43.205.007.3.14.55.4.752.261.202.629.303 1.104.303.475 0 .993-.013 1.553-.039.56-.026 1.204-.088 1.933-.186.73-.097 1.771-.335 3.125-.712-1.94 2.825-3.326 4.918-4.16 6.279-.833 1.36-1.751 2.913-2.754 4.658-.911.195-1.79.378-2.636.547-.847.17-1.634.345-2.364.527-.729.183-1.093.495-1.093.938.078.247.348.387.81.42.462.032 1.048-.043 1.758-.225s1.605-.397 2.686-.644c-.756 1.757-1.742 3.955-2.96 6.591-1.217 2.637-2.174 4.652-2.87 6.045-.697 1.394-1.03 2.451-.997 3.174zm17.432-30.283c.872-.912 1.556-1.543 2.05-1.895.509-.364 1.03-.68 1.563-.947.534-.267.814-.303.84-.107.026.195-.254.517-.84.967-.586.449-1.79 1.11-3.613 1.982zm8.382 19.346c.164-2.743.223-5.396.178-7.96-.052-2.929-.274-5.175-.664-6.738-.26-1.471-.827-2.207-1.7-2.207-.104.052-.156.127-.156.225s.088.228.264.39c.176.163.329.7.459 1.612.221 2.63.355 5.078.4 7.344.046 2.265.023 4.368-.068 6.308-.091 1.94-.16 3.444-.205 4.512-.046 1.068.11 1.82.469 2.256.358.436.683.4.976-.108.293-.507.56-1.34.8-2.5.242-1.158.499-2.203.772-3.134.274-.931.58-1.914.918-2.95.339-1.035.795-2.294 1.368-3.779.572-1.484 1.07-2.695 1.494-3.633.423-.937.856-1.858 1.298-2.763.443-.905.844-1.7 1.202-2.383.358-.684.693-1.276 1.006-1.778.312-.5.481-.384.507.352.026.736.01 1.585-.048 2.549-.06.963-.108 1.956-.147 2.978-.039 1.023-.085 2.022-.137 2.998-.052.977-.114 2.64-.185 4.99-.072 2.35-.104 4.249-.098 5.694.007 1.445.068 2.8.186 4.063 0 .598.338 1.009 1.015 1.23.508-.117.938-.599 1.29-1.445.35-.847 1.034-2.937 2.05-6.27 1.107-3.372 1.96-5.752 2.559-7.139.599-1.386 1.028-2.373 1.289-2.959.26-.585.586-1.246.976-1.982.391-.736.944-1.732 1.66-2.988.717-1.257 1.351-2.27 1.905-3.037.553-.769 1.103-1.475 1.65-2.12.547-.644 1.032-1.155 1.455-1.533.423-.377.808-.634 1.153-.771s.55-.348.615-.635l-.469-.39h-.254c-.846.247-1.725.872-2.637 1.874-1.445 1.641-2.6 3.135-3.466 4.483-.866 1.348-1.494 2.39-1.885 3.125-.39.736-.726 1.35-1.006 1.846-.28.494-.778 1.569-1.494 3.222-.534 1.146-.925 1.992-1.172 2.54-.247.546-.492 1.161-.732 1.845-.241.684-.485 1.357-.733 2.022-.247.664-.566 1.65-.957 2.958-.39 1.31-.905 2.986-1.543 5.03-.104-.886-.166-1.572-.185-2.06-.02-.489-.02-1.127 0-1.915l.068-2.812c.026-1.088.062-2.435.107-4.043.046-1.608.085-2.865.118-3.77.032-.905.107-2.868.224-5.888 0-1.915-.153-3.034-.459-3.36-.306-.325-.602-.436-.888-.332-.456.156-.954.66-1.495 1.514-.54.853-1.191 2.044-1.953 3.574-.761 1.53-1.396 2.855-1.904 3.975s-.983 2.275-1.426 3.466c-.442 1.192-.918 2.579-1.426 4.16-.507 1.583-.846 2.725-1.015 3.428l-.001-.001.077-1.18zm28.059 6.298c.599-.234 1.367-.455 2.305-.664.937-.208 2.135-.416 3.593-.625 1.459-.208 3.161-.23 5.108-.068 1.946.163 3.655.407 5.127.732.338-.143.534-.276.586-.4.052-.124.003-.368-.147-.732-.15-.365-.954-.622-2.412-.772-1.458-.15-3.226-.237-5.303-.263-2.077-.027-4.345.195-6.806.664 2.278-2.67 4.023-4.766 5.234-6.29 1.211-1.523 2.52-3.297 3.926-5.322 1.406-2.025 2.25-3.457 2.53-4.297.279-.84.354-1.673.224-2.5-.13-.826-.365-1.48-.703-1.963-.612-1.184-1.654-2.011-3.125-2.48-.704-.091-1.51-.052-2.422.117-.912.17-1.882.625-2.91 1.367-1.03.743-1.68 1.66-1.954 2.754.183 1.615.41 2.422.684 2.422.378-.091.576-.547.596-1.367.02-.82.3-1.51.84-2.07.54-.56 1.224-1.01 2.05-1.348.827-.339 1.634-.485 2.422-.44.788.046 1.507.44 2.158 1.182 1.094 1.563 1.078 3.32-.048 5.274-1.127 1.953-2.367 3.808-3.721 5.566s-2.692 3.431-4.014 5.02c-1.321 1.588-2.607 3.06-3.857 4.414-.56.09-.84.423-.84.996.13.43.247.713.352.85.104.136.28.217.527.243zm24.83 1.27c1.054.078 2.174-.25 3.358-.986 1.185-.736 2.282-1.787 3.291-3.155 1.01-1.367 1.771-2.59 2.286-3.672.514-1.08.963-2.21 1.347-3.388.384-1.179.72-2.588 1.006-4.229.287-1.64.394-3.213.322-4.716-.071-1.504-.351-2.69-.84-3.555-.488-.866-1.096-1.462-1.826-1.787-1.028-.612-1.686-.918-1.972-.918-.547-.781-1.224-1.315-2.031-1.602-.495.026-.96.147-1.397.362-.436.214-.94.611-1.514 1.19-.573.58-1.318 1.7-2.236 3.36-.918 1.66-1.735 3.431-2.451 5.313-.716 1.881-1.237 3.5-1.563 4.853-.325 1.354-.55 2.598-.673 3.73-.124 1.134-.186 2.22-.186 3.262 0 1.693.54 3.223 1.621 4.59 1.068.899 2.2 1.348 3.399 1.348h.058zm-.411-1.094c-.99-.156-1.703-.455-2.139-.898-.436-.443-.745-1.185-.927-2.227-.157-1.81-.124-3.43.097-4.863.222-1.432.573-3.005 1.055-4.717.482-1.712 1.282-3.792 2.402-6.24.847-1.823 1.563-3.132 2.149-3.926.481-.86 1.204-1.575 2.168-2.148l.214.058c0 .209.339.313 1.016.313 1.589.338 2.76.872 3.516 1.601.39.417.693 1.023.908 1.817.215.794.277 2.067.185 3.818-.09 1.751-.306 3.317-.644 4.697-.339 1.38-.713 2.592-1.123 3.633-.41 1.042-1.113 2.33-2.11 3.867-.996 1.537-2.047 2.738-3.154 3.604-1.107.866-2.311 1.403-3.613 1.611zm13.765 3.897c.436.306.85-.004 1.24-.928.247-1.719.879-5.023 1.894-9.912 1.016-4.89 2.494-12.12 4.434-21.69.065-.338-.016-.68-.244-1.025-.228-.345-.53-.628-.908-.85-1.875 9.193-3.129 15.368-3.76 18.526-.632 3.157-1.618 7.965-2.959 14.424-.234.664-.133 1.149.303 1.455zm10.425-4.073c.599-.234 1.367-.455 2.304-.664.938-.208 2.136-.416 3.594-.625 1.458-.208 3.16-.23 5.108-.068 1.946.163 3.655.407 5.126.732.339-.143.534-.276.586-.4.053-.124.004-.368-.146-.732-.15-.365-.954-.622-2.412-.772-1.459-.15-3.226-.237-5.303-.263-2.077-.027-4.346.195-6.807.664 2.28-2.67 4.024-4.766 5.235-6.29 1.21-1.523 2.52-3.297 3.926-5.322 1.406-2.025 2.249-3.457 2.529-4.297.28-.84.355-1.673.225-2.5-.13-.826-.365-1.48-.704-1.963-.612-1.184-1.653-2.011-3.125-2.48-.703-.091-1.51-.052-2.421.117-.912.17-1.882.625-2.91 1.367-1.03.743-1.68 1.66-1.954 2.754.183 1.615.41 2.422.684 2.422.377-.091.576-.547.596-1.367.02-.82.299-1.51.84-2.07.54-.56 1.223-1.01 2.05-1.348.827-.339 1.634-.485 2.422-.44.788.046 1.507.44 2.158 1.182 1.094 1.563 1.078 3.32-.049 5.274-1.126 1.953-2.366 3.808-3.72 5.566s-2.692 3.431-4.014 5.02c-1.322 1.588-2.607 3.06-3.857 4.414-.56.09-.84.423-.84.996.13.43.247.713.351.85.104.136.28.217.528.243zm21.294 1.27c.455-.417.774-1.016.957-1.797.182-.781.469-2.161.86-4.14.39-1.98 1.077-5.163 2.06-9.551.983-4.388 1.8-8.17 2.45-11.348 0-.352-.087-.599-.263-.742-.176-.143-.446-.287-.81-.43h-.332l-2.11 10.235c-1.146 4.96-1.907 8.382-2.285 10.263-.378 1.882-.628 3.278-.752 4.19-.124.911-.218 1.764-.283 2.558.039.508.208.762.508.762z" transform="translate(-731 -105)"/>
        </g>
    </g>
</svg>
