<svg xmlns="http://www.w3.org/2000/svg" width="130" height="79" viewBox="0 0 130 79">
    <g fill="none" fill-rule="evenodd">
        <g fill="#000" fill-rule="nonzero">
            <path d="M134.373 140.975c.936.052 2.016-.03 3.24-.245 1.222-.216 2.393-.572 3.512-1.069 1.119-.497 2.137-1.075 3.054-1.735.917-.66 1.73-1.402 2.44-2.226.709-.823 1.158-1.522 1.346-2.098.189-.575.16-1.12-.088-1.637-.247-.516-.52-.931-.82-1.245-.299-.314-.673-.663-1.121-1.049-.45-.385-.892-.751-1.327-1.098-.436-.346-1.07-.885-1.903-1.617s-1.62-1.585-2.362-2.56c-.741-.973-1.252-1.806-1.532-2.499-.28-.693-.354-1.516-.224-2.47.13-.955.618-1.853 1.464-2.696.845-.843 2.052-1.526 3.62-2.05 1.568-.522 3.067-.813 4.498-.872 1.431-.059 2.433.252 3.005.932.872.653 1.171 1.588.898 2.803-.624 1.268-1.84 2.562-3.65 3.882 0 .131.17.144.508.04.95-.327 1.796-.909 2.537-1.745.742-.837 1.204-1.464 1.386-1.883.455-.588.569-1.28.341-2.078-.227-.797-.764-1.487-1.61-2.068-.845-.582-1.977-.866-3.395-.853-1.419.013-2.7.19-3.845.529-1.145.34-2.14.729-2.986 1.167-.845.438-1.515.885-2.01 1.343-.494.457-.907.944-1.24 1.46-.33.517-.542 1.164-.633 1.942-.091.777-.004 1.682.263 2.715s.8 2.026 1.6 2.98c.8.955 1.688 1.87 2.664 2.745 1.64 1.412 2.833 2.435 3.581 3.069.748.634 1.122 1.278 1.122 1.931 0 .654-.452 1.526-1.356 2.618-.904 1.091-2.257 2.088-4.06 2.99-1.801.902-3.622 1.408-5.463 1.52-1.841.11-3.38-.082-4.616-.58-.234-.522-.449-.842-.644-.96-.195-.144-.309-.134-.341.03-.033.163-.046.421-.04.774.007.353.18.69.518 1.01.338.32.8.53 1.385.627.586.098 1.347.173 2.284.226zm30.898 2.901c.22-.026.377-.13.468-.313l.058-.55c.053-1.019.098-1.96.137-2.823.052-.353.094-.741.127-1.166.032-.425.107-1.085.224-1.98.117-.896.238-1.88.361-2.951.124-1.072.27-2.007.44-2.804.754-.066 1.75-.137 2.985-.216 1.757-.183 2.837-.36 3.24-.53.403-.17.42-.306.049-.411-.371-.105-.927-.144-1.669-.118-.741.026-1.516.06-2.322.098-.807.04-1.45.072-1.932.098h-.254v-.078c.078-.523.14-.954.185-1.294.046-.34.144-.931.293-1.775l.595-3.362c.248-1.399.501-2.595.762-3.588.234-1.098.546-2.275.936-3.53.195-.666.677-1.568 1.444-2.705v-.432c-.182-.261-.494-.437-.936-.529-.26.3-.469.637-.625 1.01-.156.372-.494 1.042-1.015 2.01-.806 1.385-1.356 2.32-1.649 2.803-.292.484-.705 1.144-1.239 1.98-.91 1.334-1.58 2.304-2.01 2.912l-1.542 2.186c-.598.85-1.05 1.48-1.356 1.893-.306.411-.677.901-1.112 1.47-.436.569-1.097 1.324-1.981 2.265-1.392.313-2.462.532-3.21.656-.749.125-1.344.203-1.786.236-.443.032-.748.049-.917.049-.17 0-.3.046-.39.137 0 .627.442.941 1.326.941.313 0 .469.059.469.177.884.052 1.659.196 2.322.431-1.054 1.124-1.84 1.895-2.361 2.314-.52.418-1.048.758-1.581 1.02-.533.26-.8.457-.8.587.039.47.377.706 1.015.706 1.613-1.11 2.703-1.947 3.268-2.51.566-.562 1.13-1.137 1.689-1.725.69.248 1.405.556 2.146.922.976.627 1.708 1.186 2.196 1.676.488.49.914.964 1.278 1.422.364.457.732 1.003 1.103 1.637.37.634.608 1.055.712 1.264.104.21.176.432.215.667.039.667.087 1.095.146 1.284.058.19.224.37.498.54zm-5.387-12.724c.612-.732 1.451-1.844 2.518-3.334 1.028-1.542 1.717-2.522 2.068-2.94.313-.51.615-.974.908-1.393.293-.418.758-1.098 1.395-2.039l1.035-1.51h.039v.04l-.235 1.313c-.22 1.007-.37 1.68-.448 2.02-.078.34-.209.987-.39 1.94-.105.798-.196 1.53-.274 2.197l-.449 2.862c-.806.118-1.555.216-2.244.295-1.301.209-2.609.392-3.923.549zm4.996 9.509c-.286-.575-.546-1.065-.78-1.47-.235-.406-.514-.808-.84-1.206-.325-.4-.741-.844-1.248-1.334-.508-.49-1.041-.931-1.6-1.323-.56-.392-1.016-.667-1.367-.824-.351-.157-.878-.379-1.58-.666.455-.445.89-.896 1.307-1.353 1.64-.288 2.999-.497 4.079-.628.923-.143 1.737-.255 2.44-.333l.604-.059-.156.883c-.17 1.294-.3 2.313-.39 3.058-.091.745-.189 1.72-.293 2.922-.091.915-.15 1.692-.176 2.333zm-8.626-7.196c-.65-.183-1.014-.28-1.092-.294v-.04c.663-.17 1.268-.293 1.815-.372-.222.223-.462.458-.723.706zm32.05 7.45c.208 0 .41-.336.605-1.009.195-.673.403-1.454.624-2.343.221-.889.524-2.003.908-3.343.383-1.34.767-2.64 1.151-3.902.384-1.261.774-2.513 1.171-3.754.397-1.242.855-2.621 1.376-4.138.52-1.516 1.021-2.921 1.503-4.215.48-1.294 1.125-2.745 1.932-4.353.806-1.608 1.476-2.843 2.01-3.705.533-.863 1.066-1.563 1.6-2.098-.091-.105-.377-.06-.859.137-.481.183-1.138.915-1.97 2.196-.833 1.28-1.624 2.653-2.372 4.117-.748 1.464-1.525 3.242-2.332 5.333-.807 2.092-1.542 4.18-2.205 6.265-.664 2.085-1.327 4.258-1.99 6.52-.664 2.26-1.152 3.96-1.465 5.097-.585-1.503-1.226-3.278-1.922-5.323-.696-2.046-1.3-3.856-1.815-5.432-.514-1.575-.995-3.14-1.444-4.695-.449-1.556-.839-2.896-1.17-4.02-.333-1.124-.6-1.912-.8-2.362-.203-.451-.466-.71-.791-.775-.326-.065-.599.078-.82.431 0 .458.114.723.342.794.227.072.364.38.41.922.045.542.055 1.127.029 1.755-.026.627-.238 1.794-.635 3.5-.396 1.705-.82 3.202-1.268 4.49-.449 1.287-1.002 2.532-1.659 3.735-.657 1.202-1.298 2.19-1.922 2.96-.625.772-1.314 1.523-2.069 2.255-.676.588-.39.66.859.216.585-.418 1.197-.967 1.834-1.647.638-.68 1.233-1.451 1.786-2.314.553-.862 1.11-1.944 1.669-3.245.559-1.3 1.005-2.568 1.336-3.803.332-1.236.68-2.84 1.044-4.814.456 1.817.843 3.245 1.162 4.284.318 1.04.722 2.265 1.21 3.677.487 1.411 1.011 2.911 1.57 4.5.56 1.587 1.06 3.022 1.503 4.303.443 1.281.794 2.203 1.054 2.765.078.692.351 1.039.82 1.039zm17.822-.823c-.117.64-.035.915.244.824.28-.092.498-.412.654-.96 1.301-.236 2.635-.583 4-1.04 1.367-.458 2.625-.902 3.777-1.333 1.151-.432 2.02-.791 2.605-1.079.586-.287 1.708-.954 3.367-2 1.658-1.045 3.054-2.251 4.186-3.617 1.132-1.366 1.782-2.726 1.951-4.078.17-1.353.075-2.595-.283-3.726-.358-1.13-.933-2.287-1.727-3.47-.794-1.183-1.789-2.222-2.986-3.118-1.197-.895-2.433-1.62-3.708-2.176-1.275-.556-2.351-.915-3.23-1.078-.878-.164-2.169-.298-3.873-.402-1.692-.118-3.4-.04-5.123.235-1.724.274-2.992.572-3.806.892-.813.32-1.525.735-2.136 1.245-.612.51-.86 1.229-.742 2.157.17.693.556 1.134 1.161 1.323.605.19.735-.026.39-.647-.344-.62-.406-1.075-.185-1.362.598-.615 1.164-1.046 1.698-1.294.533-.249 1.304-.494 2.312-.736 1.009-.242 2.196-.411 3.562-.51 1.366-.098 2.667-.084 3.903.04 1.236.124 2.648.418 4.235.882 1.587.464 3.103 1.281 4.547 2.45 1.444 1.17 2.504 2.364 3.181 3.58.677 1.215 1.1 2.24 1.268 3.077.17.837.212 1.716.127 2.638-.084.921-.507 1.852-1.268 2.794-.761.94-1.568 1.774-2.42 2.5-.852.725-1.78 1.398-2.781 2.019-1.002.62-2.39 1.314-4.167 2.078-1.775.765-4.25 1.605-7.425 2.52.494-2.118.891-3.876 1.19-5.274.3-1.4.589-2.768.869-4.108.28-1.34.572-2.774.878-4.304.306-1.53.673-3.18 1.103-4.95.429-1.772.422-2.883-.02-3.334-.442-.45-.738-.405-.888.137-.15.543-.38 1.592-.693 3.147-.312 1.556-.618 3.053-.917 4.49-.3 1.438-.582 2.86-.849 4.265-.267 1.405-.572 3.049-.917 4.931-.345 1.882-.621 3.601-.83 5.157-1.795.209-3.314.235-4.556.078-1.243-.157-1.604-.03-1.083.382.52.412 1.073.66 1.658.746.586.084 1.152.117 1.698.098.547-.02 1.23-.05 2.05-.089zm22.058.883c.936.052 2.016-.03 3.24-.245 1.222-.216 2.393-.572 3.512-1.069 1.119-.497 2.137-1.075 3.054-1.735.917-.66 1.73-1.402 2.44-2.226.709-.823 1.158-1.522 1.346-2.098.189-.575.16-1.12-.088-1.637-.247-.516-.52-.931-.82-1.245-.299-.314-.673-.663-1.121-1.049-.45-.385-.892-.751-1.327-1.098-.436-.346-1.07-.885-1.903-1.617s-1.62-1.585-2.362-2.56c-.741-.973-1.252-1.806-1.532-2.499-.28-.693-.354-1.516-.224-2.47.13-.955.618-1.853 1.464-2.696.845-.843 2.052-1.526 3.62-2.05 1.568-.522 3.067-.813 4.498-.872 1.431-.059 2.433.252 3.005.932.872.653 1.171 1.588.898 2.803-.624 1.268-1.84 2.562-3.65 3.882 0 .131.17.144.508.04.95-.327 1.796-.909 2.537-1.745.742-.837 1.204-1.464 1.386-1.883.455-.588.569-1.28.341-2.078-.227-.797-.764-1.487-1.61-2.068-.845-.582-1.977-.866-3.395-.853-1.419.013-2.7.19-3.845.529-1.145.34-2.14.729-2.986 1.167-.845.438-1.515.885-2.01 1.343-.494.457-.907.944-1.24 1.46-.33.517-.542 1.164-.633 1.942-.091.777-.004 1.682.263 2.715s.8 2.026 1.6 2.98c.8.955 1.688 1.87 2.664 2.745 1.64 1.412 2.833 2.435 3.581 3.069.748.634 1.122 1.278 1.122 1.931 0 .654-.452 1.526-1.356 2.618-.904 1.091-2.257 2.088-4.06 2.99-1.801.902-3.622 1.408-5.463 1.52-1.841.11-3.38-.082-4.616-.58-.234-.522-.449-.842-.644-.96-.195-.144-.309-.134-.341.03-.033.163-.046.421-.04.774.007.353.18.69.518 1.01.338.32.8.53 1.385.627.586.098 1.347.173 2.284.226zM122.002 186.46c.033.725.293.719.78-.02.489-.738 1.26-2.196 2.313-4.372 1.054-2.177 2.147-4.516 3.279-7.02 1.132-2.503 1.847-4.114 2.147-4.833 2.94-.745 5.126-1.228 6.557-1.45 1.43-.223 2.81-.429 4.137-.618 1.327-.19 1.877-.392 1.65-.608-.229-.216-.856-.297-1.884-.245-1.028.052-2.231.17-3.61.353-.73.097-1.634.234-2.71.411l-.744.125c-.769.13-1.615.278-2.538.444 2.16-3.921 4.515-7.627 7.065-11.117 1.431-.588 2.537-1.072 3.318-1.45.78-.38 1.473-.805 2.078-1.275.605-.47.933-.892.985-1.265.052-.372-.061-.722-.341-1.049-.28-.327-.589-.477-.927-.45-.325.012-.67.09-1.034.234-.365.144-.755.347-1.171.608-.417.262-.885.618-1.405 1.069-.52.45-1.025.983-1.513 1.598-.488.614-.81.993-.966 1.137-.91.275-1.681.484-2.312.627-.631.144-1.256.272-1.874.383-.618.11-1.431.186-2.44.225-1.008.04-1.658-.023-1.95-.186-.294-.163-.437-.095-.43.206.006.3.14.552.4.755.26.202.628.304 1.102.304.475 0 .992-.013 1.552-.04.56-.026 1.203-.088 1.932-.186.729-.098 1.77-.336 3.122-.715-1.938 2.836-3.324 4.937-4.156 6.303-.833 1.366-1.75 2.925-2.752 4.676-.91.196-1.789.38-2.635.55-.845.17-1.632.346-2.361.529-.729.183-1.093.496-1.093.94.078.25.348.39.81.422.462.033 1.047-.042 1.756-.225.71-.183 1.604-.399 2.684-.647-.755 1.765-1.74 3.97-2.957 6.617-1.216 2.647-2.172 4.67-2.869 6.069-.696 1.398-1.027 2.46-.995 3.186zm17.418-30.4c.871-.916 1.554-1.55 2.049-1.903.507-.366 1.028-.683 1.561-.95.533-.269.813-.305.84-.108.025.196-.255.52-.84.97-.585.451-1.789 1.114-3.61 1.99zm8.375 19.42c.164-2.753.223-5.417.177-7.99-.052-2.941-.273-5.196-.663-6.764-.26-1.477-.826-2.216-1.698-2.216-.104.052-.156.128-.156.226s.088.228.263.392c.176.163.329.702.459 1.617.221 2.64.355 5.098.4 7.372.046 2.275.023 4.386-.068 6.334-.091 1.947-.16 3.457-.205 4.529-.046 1.072.11 1.826.468 2.264.358.438.683.402.976-.108.293-.51.56-1.346.8-2.51.24-1.163.498-2.212.771-3.146.273-.935.579-1.922.917-2.96.338-1.04.794-2.305 1.366-3.795.573-1.49 1.07-2.705 1.493-3.647.423-.94.856-1.866 1.298-2.774.442-.908.842-1.706 1.2-2.392.358-.686.693-1.281 1.005-1.784.312-.504.482-.386.508.353.026.738.01 1.591-.05 2.558-.058.968-.107 1.964-.146 2.99-.039 1.027-.084 2.03-.136 3.01-.052.98-.114 2.65-.186 5.01-.071 2.359-.104 4.264-.097 5.715.006 1.451.068 2.81.185 4.078 0 .602.339 1.013 1.015 1.236.507-.118.937-.602 1.288-1.451.351-.85 1.034-2.948 2.05-6.294 1.105-3.386 1.957-5.774 2.556-7.167.598-1.392 1.028-2.382 1.288-2.97.26-.588.585-1.252.976-1.99.39-.739.943-1.739 1.658-3 .716-1.261 1.35-2.278 1.903-3.049.553-.771 1.103-1.48 1.65-2.127.546-.647 1.03-1.16 1.453-1.54.423-.378.807-.637 1.151-.774.345-.137.55-.35.615-.637l-.468-.392h-.254c-.846.248-1.724.876-2.634 1.882-1.445 1.647-2.6 3.147-3.464 4.5-.866 1.353-1.493 2.398-1.884 3.137-.39.739-.725 1.356-1.005 1.853-.28.497-.777 1.575-1.493 3.235-.533 1.15-.923 2-1.17 2.549-.248.549-.492 1.167-.732 1.853-.241.686-.485 1.362-.732 2.03-.247.666-.566 1.656-.957 2.97-.39 1.313-.904 2.996-1.541 5.048-.104-.889-.166-1.578-.186-2.068-.02-.49-.02-1.13 0-1.922l.069-2.823c.026-1.092.061-2.444.107-4.059.046-1.614.085-2.875.117-3.784.033-.908.107-2.879.225-5.911 0-1.922-.153-3.046-.46-3.373-.305-.327-.6-.438-.887-.333-.455.157-.953.663-1.493 1.52-.54.856-1.19 2.052-1.951 3.588-.762 1.535-1.396 2.865-1.903 3.99-.508 1.124-.983 2.284-1.425 3.48-.442 1.196-.917 2.588-1.424 4.176-.508 1.588-.846 2.735-1.015 3.441l-.001-.001.077-1.185zm28.036 6.323c.598-.235 1.366-.457 2.303-.667.936-.209 2.133-.418 3.59-.627 1.458-.21 3.159-.232 5.104-.069 1.945.164 3.652.409 5.123.736.338-.144.533-.278.585-.402.052-.124.003-.37-.146-.736-.15-.366-.953-.624-2.41-.774-1.458-.15-3.224-.239-5.299-.265-2.075-.026-4.342.196-6.801.667 2.277-2.68 4.02-4.784 5.23-6.313 1.21-1.53 2.518-3.31 3.923-5.343 1.405-2.033 2.247-3.47 2.527-4.314.28-.843.355-1.68.224-2.51-.13-.83-.364-1.486-.702-1.97-.612-1.19-1.652-2.02-3.123-2.49-.702-.092-1.509-.052-2.42.117-.91.17-1.88.628-2.907 1.373-1.028.745-1.679 1.667-1.952 2.765.182 1.62.41 2.43.683 2.43.377-.09.576-.548.595-1.372.02-.823.3-1.516.84-2.078.54-.562 1.223-1.013 2.049-1.353.826-.34 1.632-.487 2.42-.441.787.046 1.506.441 2.156 1.186 1.093 1.569 1.077 3.333-.049 5.294-1.125 1.96-2.364 3.823-3.717 5.588-1.353 1.765-2.69 3.444-4.01 5.039-1.321 1.595-2.606 3.072-3.855 4.431-.56.092-.84.425-.84 1 .13.431.248.716.352.853.104.137.28.219.527.245zm24.809 1.275c1.054.078 2.173-.252 3.357-.99 1.184-.74 2.28-1.795 3.288-3.167 1.008-1.373 1.77-2.601 2.283-3.686.514-1.085.963-2.22 1.347-3.402.384-1.183.719-2.598 1.005-4.245.286-1.647.393-3.225.322-4.735-.072-1.51-.351-2.7-.84-3.568-.487-.87-1.095-1.468-1.824-1.794-1.028-.615-1.685-.922-1.971-.922-.546-.784-1.223-1.32-2.03-1.608-.494.026-.96.147-1.395.363-.436.216-.94.614-1.512 1.196-.573.582-1.318 1.706-2.235 3.372-.917 1.667-1.734 3.445-2.45 5.333-.715 1.89-1.235 3.513-1.56 4.873-.326 1.36-.55 2.607-.674 3.745-.123 1.137-.185 2.228-.185 3.274 0 1.7.54 3.235 1.62 4.608 1.067.902 2.198 1.353 3.395 1.353h.059zm-.41-1.098c-.989-.157-1.7-.458-2.137-.902-.436-.445-.745-1.19-.927-2.236-.156-1.816-.123-3.444.098-4.882.221-1.438.572-3.016 1.054-4.735.481-1.719 1.281-3.807 2.4-6.264.846-1.83 1.561-3.144 2.147-3.941.481-.863 1.203-1.582 2.166-2.157l.215.059c0 .209.338.314 1.014.314 1.588.34 2.759.875 3.513 1.607.39.419.693 1.026.908 1.824.214.797.276 2.075.185 3.833-.091 1.758-.306 3.33-.644 4.715-.338 1.386-.712 2.602-1.122 3.647-.41 1.046-1.112 2.34-2.108 3.883-.995 1.542-2.046 2.748-3.152 3.617-1.105.87-2.309 1.408-3.61 1.618zm13.754 3.911c.436.307.849-.003 1.239-.931.247-1.726.878-5.042 1.893-9.95 1.015-4.909 2.491-12.167 4.43-21.774.065-.34-.016-.683-.244-1.03-.228-.346-.53-.63-.907-.852-1.874 9.228-3.126 15.427-3.757 18.597-.631 3.17-1.617 7.996-2.957 14.48-.234.666-.133 1.153.303 1.46zm10.416-4.088c.599-.235 1.366-.457 2.303-.667.937-.209 2.134-.418 3.59-.627 1.458-.21 3.16-.232 5.104-.069 1.945.164 3.653.409 5.123.736.338-.144.533-.278.585-.402.052-.124.004-.37-.146-.736s-.953-.624-2.41-.774c-1.457-.15-3.223-.239-5.299-.265-2.075-.026-4.342.196-6.8.667 2.276-2.68 4.02-4.784 5.23-6.313 1.21-1.53 2.517-3.31 3.922-5.343 1.405-2.033 2.248-3.47 2.527-4.314.28-.843.355-1.68.225-2.51-.13-.83-.365-1.486-.703-1.97-.611-1.19-1.652-2.02-3.122-2.49-.703-.092-1.51-.052-2.42.117-.91.17-1.88.628-2.908 1.373s-1.678 1.667-1.952 2.765c.183 1.62.41 2.43.684 2.43.377-.09.575-.548.595-1.372.02-.823.299-1.516.839-2.078.54-.562 1.223-1.013 2.049-1.353.826-.34 1.633-.487 2.42-.441.787.046 1.506.441 2.156 1.186 1.093 1.569 1.077 3.333-.048 5.294-1.126 1.96-2.365 3.823-3.718 5.588-1.353 1.765-2.69 3.444-4.01 5.039-1.321 1.595-2.606 3.072-3.855 4.431-.56.092-.839.425-.839 1 .13.431.247.716.351.853.104.137.28.219.527.245zm21.277 1.275c.455-.419.774-1.02.956-1.804.182-.785.469-2.17.859-4.157s1.077-5.183 2.059-9.588c.982-4.405 1.798-8.202 2.449-11.391 0-.353-.088-.602-.263-.745-.176-.144-.446-.288-.81-.432h-.332l-2.108 10.274c-1.145 4.98-1.906 8.415-2.283 10.304-.377 1.889-.628 3.29-.751 4.205-.124.915-.218 1.772-.283 2.569.039.51.208.765.507.765z" transform="translate(-122 -108)"/>
        </g>
    </g>
</svg>
