<?xml version="1.0" encoding="UTF-8"?>
<svg width="242px" height="37px" viewBox="0 0 242 37" version="1.1" xmlns="http://www.w3.org/2000/svg" xmlns:xlink="http://www.w3.org/1999/xlink">
    <title>SANDSFW2021</title>
    <g id="final-copy" stroke="none" stroke-width="1" fill="none" fill-rule="evenodd">
        <g id="About_1440" transform="translate(-599.000000, -98.000000)" fill="#000000" fill-rule="nonzero">
            <g id="Group-3" transform="translate(370.000000, 98.000000)">
                <path d="M233.191081,32.8473166 C234.128581,32.8993999 235.20931,32.8180197 236.433268,32.603176 C237.657227,32.3883322 238.829102,32.0335145 239.948893,31.5387228 C241.068685,31.0439312 242.087565,30.4677593 243.005534,29.8102072 C243.923503,29.1526551 244.737305,28.4137228 245.44694,27.5934103 C246.156576,26.7730978 246.605794,26.0764832 246.794596,25.5035666 C246.983398,24.9306499 246.954102,24.3870301 246.706706,23.8727072 C246.45931,23.3583843 246.185872,22.9449728 245.886393,22.6324728 C245.586914,22.3199728 245.212565,21.9716655 244.763346,21.587551 C244.314128,21.2034364 243.871419,20.838853 243.435221,20.493801 C242.999023,20.1487489 242.364258,19.6116395 241.530924,18.8824728 C240.697591,18.1533062 239.909831,17.3036968 239.167643,16.3336447 C238.425456,15.3635926 237.914388,14.5335145 237.63444,13.8434103 C237.354492,13.1533062 237.279622,12.3329937 237.409831,11.3824728 C237.540039,10.431952 238.02832,9.5367697 238.874674,8.69692595 C239.721029,7.8570822 240.928711,7.17674366 242.497721,6.65591033 C244.066732,6.13507699 245.567383,5.84536345 246.999674,5.7867697 C248.431966,5.72817595 249.43457,6.03742074 250.007487,6.71450408 C250.879883,7.36554574 251.179362,8.29653533 250.905924,9.50747283 C250.280924,10.7704937 249.063477,12.0595562 247.253581,13.3746603 C247.253581,13.5048687 247.422852,13.5178895 247.761393,13.4137228 C248.711914,13.088202 249.558268,12.5087749 250.300456,11.6754416 C251.042643,10.8421082 251.504883,10.2171082 251.687174,9.80044158 C252.142904,9.21450408 252.256836,8.52439991 252.028971,7.73012908 C251.801107,6.93585824 251.263997,6.24900928 250.417643,5.6695822 C249.571289,5.09015512 248.438477,4.80695199 247.019206,4.81997283 C245.599935,4.83299366 244.317383,5.00877491 243.171549,5.34731658 C242.025716,5.68585824 241.029622,6.07322803 240.183268,6.50942595 C239.336914,6.94562387 238.666341,7.39158741 238.171549,7.84731658 C237.676758,8.30304574 237.263346,8.78807178 236.931315,9.3023947 C236.599284,9.81671762 236.387695,10.4612489 236.296549,11.2359885 C236.205404,12.010728 236.293294,12.9124207 236.560221,13.9410666 C236.827148,14.9697124 237.361003,15.9592957 238.161784,16.9098166 C238.962565,17.8603374 239.851237,18.7717957 240.827799,19.6441916 C242.468424,21.0504416 243.663086,22.0693218 244.411784,22.7008322 C245.160482,23.3323426 245.534831,23.9736187 245.534831,24.6246603 C245.534831,25.275702 245.082357,26.1448426 244.177409,27.2320822 C243.272461,28.3193218 241.918294,29.3121603 240.114909,30.2105978 C238.311523,31.1090353 236.488607,31.6135926 234.646159,31.7242697 C232.803711,31.8349468 231.263997,31.6428895 230.027018,31.1480978 C229.792643,30.6272645 229.577799,30.3082541 229.382487,30.1910666 C229.187174,30.0478374 229.073242,30.057603 229.04069,30.2203635 C229.008138,30.3831239 228.995117,30.6402853 229.001628,30.9918478 C229.008138,31.3434103 229.180664,31.6786968 229.519206,31.9977072 C229.857747,32.3167176 230.319987,32.525051 230.905924,32.6227072 C231.491862,32.7203635 232.253581,32.7952332 233.191081,32.8473166 Z M264.114072,35.7379416 C264.335426,35.7118999 264.491676,35.6077332 264.582822,35.4254416 L264.582822,35.4254416 L264.641416,34.8785666 C264.693499,33.8629416 264.739072,32.9254416 264.778134,32.0660666 C264.830218,31.7145041 264.872535,31.3271343 264.905087,30.9039572 C264.93764,30.4807801 265.012509,29.823228 265.129697,28.931301 C265.246884,28.0393739 265.367327,27.0595562 265.491025,25.9918478 C265.614723,24.9241395 265.761207,23.9931499 265.930478,23.1988791 C266.685686,23.1337749 267.68178,23.0621603 268.918759,22.9840353 C270.676572,22.8017437 271.757301,22.6259624 272.160947,22.4566916 C272.564593,22.2874207 272.580869,22.150702 272.209775,22.0465353 C271.838681,21.9423687 271.282041,21.9033062 270.539853,21.9293478 C269.797666,21.9553895 269.022926,21.9879416 268.215634,22.0270041 C267.408343,22.0660666 266.763811,22.0986187 266.282041,22.1246603 L266.282041,22.1246603 L266.028134,22.1246603 L266.028134,22.0465353 C266.106259,21.525702 266.168108,21.0960145 266.213681,20.7574728 C266.259254,20.4189312 266.35691,19.8297385 266.50665,18.9898947 C266.65639,18.150051 266.854957,17.0335145 267.102353,15.6402853 C267.349749,14.2470562 267.603655,13.0556499 267.864072,12.0660666 C268.098447,10.9723166 268.410947,9.80044158 268.801572,8.55044158 C268.996884,7.88637908 269.478655,6.98794158 270.246884,5.85512908 L270.246884,5.85512908 L270.246884,5.42544158 C270.064593,5.16502491 269.752093,4.98924366 269.309384,4.89809783 C269.048968,5.19757699 268.840634,5.53286345 268.684384,5.9039572 C268.528134,6.27505095 268.189593,6.94236866 267.668759,7.90591033 C266.861468,9.28611866 266.311337,10.2171082 266.018369,10.6988791 C265.7254,11.1806499 265.311988,11.838202 264.778134,12.6715353 C263.866676,13.9996603 263.196103,14.9664572 262.766416,15.571926 C262.336728,16.1773947 261.822405,16.9033062 261.223447,17.7496603 C260.624488,18.5960145 260.172015,19.2242697 259.866025,19.634426 C259.560035,20.0445822 259.188942,20.5328635 258.752744,21.0992697 C258.316546,21.665676 257.655738,22.4176291 256.770322,23.3551291 C255.377093,23.6676291 254.306129,23.885728 253.557431,24.009426 C252.808733,24.1331239 252.21303,24.2112489 251.770322,24.243801 C251.327613,24.276353 251.021624,24.2926291 250.852353,24.2926291 C250.683082,24.2926291 250.552874,24.338202 250.461728,24.4293478 C250.461728,25.0543478 250.904436,25.3668478 251.789853,25.3668478 C252.102353,25.3668478 252.258603,25.4254416 252.258603,25.5426291 C253.14402,25.5947124 253.918759,25.7379416 254.582822,25.9723166 C253.528134,27.0921082 252.740374,27.8603374 252.219541,28.2770041 C251.698707,28.6936707 251.171363,29.0322124 250.637509,29.2926291 C250.103655,29.5530457 249.836728,29.7483582 249.836728,29.8785666 C249.875791,30.3473166 250.214332,30.5816916 250.852353,30.5816916 C252.466936,29.4749207 253.557431,28.6415874 254.123837,28.0816916 C254.690244,27.5217957 255.253395,26.9488791 255.813291,26.3629416 C256.503395,26.6103374 257.219541,26.916327 257.961728,27.2809103 C258.938291,27.9059103 259.670712,28.462551 260.158994,28.9508322 C260.647275,29.4391135 261.073707,29.9111187 261.438291,30.3668478 C261.802874,30.822577 262.170712,31.3661968 262.541806,31.9977072 C262.9129,32.6292176 263.15053,33.0491395 263.254697,33.2574728 C263.358863,33.4658062 263.430478,33.6871603 263.469541,33.9215353 C263.508603,34.5855978 263.557431,35.0120301 263.616025,35.2008322 C263.674619,35.3896343 263.840634,35.5686707 264.114072,35.7379416 Z M258.723447,23.0621603 C259.335426,22.3329937 260.17527,21.2262228 261.242978,19.7418478 C262.271624,18.2053895 262.961728,17.228827 263.313291,16.8121603 C263.625791,16.3043478 263.928525,15.8421082 264.221494,15.4254416 C264.514462,15.0087749 264.979957,14.3316916 265.617978,13.3941916 C265.878395,13.0165874 266.223447,12.5152853 266.653134,11.8902853 L266.653134,11.8902853 L266.692197,11.8902853 L266.692197,11.9293478 L266.457822,13.2379416 C266.236468,14.2405457 266.086728,14.9111187 266.008603,15.2496603 C265.930478,15.588202 265.80027,16.2327332 265.617978,17.1832541 C265.513811,17.9775249 265.422666,18.7066916 265.344541,19.3707541 L265.344541,19.3707541 L264.895322,22.2223166 C264.08803,22.3395041 263.339332,22.4371603 262.649228,22.5152853 C261.347145,22.7236187 260.038551,22.9059103 258.723447,23.0621603 Z M263.723447,32.5348166 C263.436988,31.9618999 263.176572,31.4736187 262.942197,31.0699728 C262.707822,30.666327 262.427874,30.2659364 262.102353,29.868801 C261.776832,29.4716655 261.360166,29.0289572 260.852353,28.540676 C260.344541,28.0523947 259.810686,27.6129416 259.250791,27.2223166 C258.690895,26.8316916 258.235166,26.5582541 257.883603,26.4020041 C257.532041,26.2457541 257.004697,26.0243999 256.301572,25.7379416 C256.757301,25.2952332 257.193499,24.8460145 257.610166,24.3902853 C259.250791,24.103827 260.611468,23.8954937 261.692197,23.7652853 C262.616676,23.6220562 263.430478,23.5113791 264.133603,23.4332541 L264.133603,23.4332541 L264.739072,23.3746603 L264.582822,24.2535666 C264.413551,25.5426291 264.283343,26.5582541 264.192197,27.3004416 C264.101051,28.0426291 264.003395,29.0126812 263.899228,30.2105978 C263.808082,31.1220562 263.749488,31.8967957 263.723447,32.5348166 Z M255.090634,25.3668478 C254.439593,25.1845562 254.075009,25.0868999 253.996884,25.0738791 L253.996884,25.0738791 L253.996884,25.0348166 C254.660947,24.8655457 255.266416,24.7418478 255.813291,24.6637228 C255.591936,24.885077 255.351051,25.119452 255.090634,25.3668478 Z M287.165969,32.7887228 C287.374302,32.7887228 287.576125,32.4534364 287.771438,31.7828635 C287.96675,31.1122905 288.175084,30.3342957 288.396438,29.4488791 C288.617792,28.5634624 288.920526,27.4534364 289.304641,26.118801 C289.688756,24.7841655 290.07287,23.4885926 290.456985,22.2320822 C290.841099,20.9755718 291.231724,19.728827 291.62886,18.4918478 C292.025995,17.2548687 292.48498,15.8811707 293.005813,14.3707541 C293.526646,12.8603374 294.027948,11.4605978 294.509719,10.1715353 C294.99149,8.88247283 295.636021,7.43716033 296.443313,5.83559783 C297.250605,4.23403533 297.921177,3.00356658 298.455032,2.14419158 C298.988886,1.28481658 299.52274,0.588201993 300.056594,0.0543478261 C299.965448,-0.0498188406 299.67899,-0.00424592391 299.197219,0.191066576 C298.715448,0.373358243 298.057896,1.10252491 297.224563,2.37856658 C296.39123,3.65460824 295.600214,5.02179574 294.851516,6.48012908 C294.102818,7.93846241 293.324823,9.70929574 292.517532,11.7926291 C291.71024,13.8759624 290.974563,15.9560405 290.3105,18.0328635 C289.646438,20.1096864 288.982375,22.2743999 288.318313,24.5270041 C287.65425,26.7796082 287.165969,28.4723166 286.853469,29.6051291 C286.267532,28.1077332 285.626256,26.3401551 284.929641,24.3023947 C284.233026,22.2646343 283.627558,20.4612489 283.113235,18.8922385 C282.598912,17.323228 282.117141,15.7639832 281.667922,14.2145041 C281.218704,12.6650249 280.828079,11.3303895 280.496047,10.2105978 C280.164016,9.09080616 279.897089,8.30630095 279.695266,7.8570822 C279.493443,7.40786345 279.229771,7.15070199 278.90425,7.08559783 C278.57873,7.02049366 278.305292,7.16372283 278.083938,7.51528533 C278.083938,7.97101449 278.19787,8.23468637 278.425735,8.30630095 C278.653599,8.37791553 278.790318,8.68390512 278.835891,9.2242697 C278.881464,9.76463428 278.89123,10.3473166 278.865188,10.9723166 C278.839146,11.5973166 278.627558,12.759426 278.230422,14.4586447 C277.833287,16.1578635 277.41011,17.6487489 276.960891,18.931301 C276.511672,20.213853 275.958287,21.4540874 275.300735,22.6520041 C274.643183,23.8499207 274.001907,24.8329937 273.376907,25.6012228 C272.751907,26.369452 272.061802,27.1181499 271.306594,27.8473166 C270.629511,28.4332541 270.915969,28.5048687 272.165969,28.0621603 C272.751907,27.6454937 273.363886,27.0986187 274.001907,26.4215353 C274.639927,25.744452 275.235631,24.9762228 275.789016,24.1168478 C276.342401,23.2574728 276.899042,22.1799989 277.458938,20.884426 C278.018834,19.588853 278.464797,18.3258322 278.796829,17.0953635 C279.12886,15.8648947 279.477167,14.2665874 279.84175,12.3004416 C280.29748,14.1103374 280.684849,15.5328635 281.00386,16.5680197 C281.32287,17.603176 281.726516,18.8238791 282.214797,20.2301291 C282.703079,21.6363791 283.227167,23.1305197 283.787063,24.712551 C284.346959,26.2945822 284.848261,27.7236187 285.290969,28.9996603 C285.733677,30.275702 286.08524,31.1936707 286.345657,31.7535666 C286.423782,32.4436707 286.697219,32.7887228 287.165969,32.7887228 Z M305.003023,31.9684103 C304.885835,32.6064312 304.967215,32.8798687 305.247163,32.7887228 C305.527111,32.697577 305.74521,32.3785666 305.90146,31.8316916 C307.203544,31.5973166 308.538179,31.2522645 309.905366,30.7965353 C311.272554,30.3408062 312.53232,29.8980978 313.684663,29.4684103 C314.837007,29.0387228 315.706148,28.6806499 316.292085,28.3941916 C316.878023,28.1077332 318.00107,27.4436707 319.661226,26.4020041 C321.321382,25.3603374 322.717866,24.1591655 323.850679,22.7984885 C324.983491,21.4378114 325.634533,20.0836447 325.803804,18.7359885 C325.973075,17.3883322 325.878674,16.151353 325.520601,15.025051 C325.162528,13.8987489 324.586356,12.7464051 323.792085,11.5680197 C322.997814,10.3896343 322.001721,9.35447803 320.803804,8.46255095 C319.605887,7.57062387 318.368908,6.84796762 317.092866,6.2945822 C315.816825,5.74119678 314.739351,5.38312387 313.860445,5.22036345 C312.981538,5.05760303 311.689221,4.92413949 309.983491,4.81997283 C308.290783,4.70278533 306.581799,4.78091033 304.856538,5.05434783 C303.131278,5.32778533 301.861747,5.62400928 301.047945,5.9430197 C300.234142,6.26203012 299.521252,6.67544158 298.909273,7.18325408 C298.297294,7.69106658 298.049898,8.40721241 298.167085,9.33169158 C298.336356,10.0217957 298.723726,10.4612489 299.329195,10.650051 C299.934663,10.838853 300.064872,10.6240093 299.71982,10.0055197 C299.374767,9.38703012 299.312919,8.93455616 299.534273,8.64809783 C300.133231,8.03611866 300.699637,7.60643116 301.233491,7.35903533 C301.767346,7.11163949 302.53883,6.86749887 303.547945,6.62661345 C304.557059,6.38572803 305.74521,6.2164572 307.112398,6.11880095 C308.479585,6.0211447 309.781669,6.03416553 311.018648,6.15786345 C312.255627,6.28156137 313.668387,6.57453012 315.256929,7.0367697 C316.845471,7.49900928 318.362398,8.31281137 319.80771,9.47817595 C321.253023,10.6435405 322.314221,11.8316916 322.991304,13.0426291 C323.668387,14.2535666 324.091564,15.275702 324.260835,16.1090353 C324.430106,16.9423687 324.472424,17.8180197 324.387788,18.7359885 C324.303153,19.6539572 323.879976,20.5816916 323.118257,21.5191916 C322.356538,22.4566916 321.549247,23.2867697 320.696382,24.009426 C319.843517,24.7320822 318.915783,25.4026551 317.913179,26.0211447 C316.910575,26.6396343 315.520601,27.3297385 313.743257,28.0914572 C311.965913,28.853176 309.4887,29.6897645 306.311616,30.6012228 C306.806408,28.4918478 307.203544,26.7405457 307.503023,25.3473166 C307.802502,23.9540874 308.092215,22.5901551 308.372163,21.2555197 C308.652111,19.9208843 308.94508,18.4918478 309.25107,16.9684103 C309.557059,15.4449728 309.924898,13.8010926 310.354585,12.0367697 C310.784273,10.2724468 310.777762,9.16567595 310.335054,8.7164572 C309.892346,8.26723845 309.596122,8.31281137 309.446382,8.85317595 C309.296642,9.39354053 309.065523,10.4384624 308.753023,11.9879416 C308.440523,13.5374207 308.134533,15.0283062 307.835054,16.4605978 C307.535575,17.8928895 307.252372,19.3089051 306.985445,20.7086447 C306.718517,22.1083843 306.412528,23.7457541 306.067476,25.6207541 C305.722424,27.4957541 305.445731,29.2079937 305.237398,30.7574728 C303.440523,30.9658062 301.92034,30.9918478 300.676851,30.8355978 C299.433361,30.6793478 299.072033,30.806301 299.592866,31.2164572 C300.1137,31.6266135 300.667085,31.8740093 301.253023,31.9586447 C301.83896,32.0432801 302.405366,32.0758322 302.952241,32.056301 C303.499116,32.0367697 304.18271,32.0074728 305.003023,31.9684103 Z M327.078358,32.8473166 C328.015858,32.8993999 329.096587,32.8180197 330.320545,32.603176 C331.544503,32.3883322 332.716378,32.0335145 333.83617,31.5387228 C334.955962,31.0439312 335.974842,30.4677593 336.892811,29.8102072 C337.810779,29.1526551 338.624581,28.4137228 339.334217,27.5934103 C340.043852,26.7730978 340.493071,26.0764832 340.681873,25.5035666 C340.870675,24.9306499 340.841378,24.3870301 340.593983,23.8727072 C340.346587,23.3583843 340.073149,22.9449728 339.77367,22.6324728 C339.474191,22.3199728 339.099842,21.9716655 338.650623,21.587551 C338.201404,21.2034364 337.758696,20.838853 337.322498,20.493801 C336.8863,20.1487489 336.251535,19.6116395 335.418201,18.8824728 C334.584868,18.1533062 333.797108,17.3036968 333.05492,16.3336447 C332.312733,15.3635926 331.801665,14.5335145 331.521717,13.8434103 C331.241769,13.1533062 331.166899,12.3329937 331.297108,11.3824728 C331.427316,10.431952 331.915597,9.5367697 332.761951,8.69692595 C333.608305,7.8570822 334.815988,7.17674366 336.384998,6.65591033 C337.954009,6.13507699 339.45466,5.84536345 340.886951,5.7867697 C342.319243,5.72817595 343.321847,6.03742074 343.894764,6.71450408 C344.76716,7.36554574 345.066639,8.29653533 344.793201,9.50747283 C344.168201,10.7704937 342.950753,12.0595562 341.140858,13.3746603 C341.140858,13.5048687 341.310128,13.5178895 341.64867,13.4137228 C342.599191,13.088202 343.445545,12.5087749 344.187733,11.6754416 C344.92992,10.8421082 345.39216,10.2171082 345.574451,9.80044158 C346.03018,9.21450408 346.144113,8.52439991 345.916248,7.73012908 C345.688384,6.93585824 345.151274,6.24900928 344.30492,5.6695822 C343.458566,5.09015512 342.325753,4.80695199 340.906483,4.81997283 C339.487212,4.83299366 338.20466,5.00877491 337.058826,5.34731658 C335.912993,5.68585824 334.916899,6.07322803 334.070545,6.50942595 C333.224191,6.94562387 332.553618,7.39158741 332.058826,7.84731658 C331.564035,8.30304574 331.150623,8.78807178 330.818592,9.3023947 C330.486561,9.81671762 330.274972,10.4612489 330.183826,11.2359885 C330.09268,12.010728 330.180571,12.9124207 330.447498,13.9410666 C330.714425,14.9697124 331.248279,15.9592957 332.049061,16.9098166 C332.849842,17.8603374 333.738514,18.7717957 334.715076,19.6441916 C336.355701,21.0504416 337.550363,22.0693218 338.299061,22.7008322 C339.047759,23.3323426 339.422108,23.9736187 339.422108,24.6246603 C339.422108,25.275702 338.969634,26.1448426 338.064686,27.2320822 C337.159738,28.3193218 335.805571,29.3121603 334.002186,30.2105978 C332.1988,31.1090353 330.375884,31.6135926 328.533436,31.7242697 C326.690988,31.8349468 325.151274,31.6428895 323.914295,31.1480978 C323.67992,30.6272645 323.465076,30.3082541 323.269764,30.1910666 C323.074451,30.0478374 322.960519,30.057603 322.927967,30.2203635 C322.895415,30.3831239 322.882394,30.6402853 322.888904,30.9918478 C322.895415,31.3434103 323.067941,31.6786968 323.406483,31.9977072 C323.745024,32.3167176 324.207264,32.525051 324.793201,32.6227072 C325.379139,32.7203635 326.140858,32.7952332 327.078358,32.8473166 Z M352.254418,36.1578635 C352.28697,36.8805197 352.547387,36.8740093 353.035668,36.1383322 C353.523949,35.4026551 354.295433,33.9508322 355.350121,31.7828635 C356.404808,29.6148947 357.498558,27.2841655 358.631371,24.790676 C359.764183,22.2971864 360.480329,20.6923687 360.779808,19.9762228 C363.722517,19.2340353 365.910017,18.7522645 367.342308,18.5309103 C368.7746,18.3095562 370.154808,18.104478 371.482933,17.915676 C372.811058,17.7268739 373.361189,17.525051 373.133324,17.3102072 C372.905459,17.0953635 372.277204,17.0139832 371.248558,17.0660666 C370.219913,17.1181499 369.015486,17.2353374 367.635277,17.4176291 C366.904579,17.5141364 366.000532,17.6507876 364.923137,17.8275826 L364.179192,17.9513931 C363.409566,18.0811509 362.562897,18.2287504 361.639183,18.3941916 C363.800642,14.4879416 366.157413,10.7965353 368.709496,7.31997283 C370.141788,6.73403533 371.248558,6.25226449 372.029808,5.87466033 C372.811058,5.49705616 373.504418,5.07387908 374.109887,4.60512908 C374.715355,4.13637908 375.044131,3.7164572 375.096215,3.34536345 C375.148298,2.9742697 375.034366,2.62596241 374.754418,2.30044158 C374.47447,1.97492074 374.165225,1.82518116 373.826683,1.85122283 C373.501163,1.86424366 373.156111,1.94236866 372.791527,2.08559783 C372.426944,2.22882699 372.036319,2.43064991 371.619652,2.69106658 C371.202986,2.95148324 370.734236,3.30630095 370.213402,3.7555197 C369.692569,4.20473845 369.188012,4.73533741 368.69973,5.34731658 C368.211449,5.95929574 367.889183,6.33689991 367.732933,6.48012908 C366.821475,6.75356658 366.049991,6.96189991 365.41848,7.10512908 C364.78697,7.24835824 364.16197,7.37531137 363.54348,7.48598845 C362.924991,7.59666553 362.111189,7.67153533 361.102074,7.71059783 C360.092959,7.74966033 359.441918,7.68781137 359.148949,7.52505095 C358.85598,7.36229053 358.712751,7.43064991 358.719262,7.73012908 C358.725772,8.02960824 358.859236,8.28025928 359.119652,8.4820822 C359.380069,8.68390512 359.747907,8.78481658 360.223168,8.78481658 C360.698428,8.78481658 361.216006,8.77179574 361.775902,8.74575408 C362.335798,8.71971241 362.980329,8.65786345 363.709496,8.5602072 C364.438663,8.46255095 365.480329,8.22492074 366.834496,7.84731658 C364.894392,10.6728374 363.507673,12.7659364 362.67434,14.1266135 C361.841006,15.4872905 360.923038,17.0400249 359.920433,18.7848166 C359.008975,18.9801291 358.130069,19.1624207 357.283715,19.3316916 C356.437361,19.5009624 355.6496,19.6767437 354.920433,19.8590353 C354.191267,20.041327 353.826683,20.353827 353.826683,20.7965353 C353.904808,21.0439312 354.174991,21.1839051 354.63723,21.2164572 C355.09947,21.2490093 355.685407,21.1741395 356.395043,20.9918478 C357.104678,20.8095562 357.999861,20.5947124 359.08059,20.3473166 C358.325381,22.1051291 357.339053,24.3023947 356.121605,26.9391135 C354.904157,29.5758322 353.947126,31.5908062 353.250512,32.9840353 C352.553897,34.3772645 352.221866,35.4352072 352.254418,36.1578635 Z M369.686058,5.87466033 C370.558454,4.96320199 371.242048,4.33169158 371.73684,3.98012908 C372.244652,3.61554574 372.765486,3.29979053 373.29934,3.03286345 C373.833194,2.76593637 374.113142,2.73012908 374.139183,2.92544158 C374.165225,3.12075408 373.885277,3.4430197 373.29934,3.89223845 C372.713402,4.3414572 371.508975,5.00226449 369.686058,5.87466033 Z M378.068461,25.2209738 C378.232239,22.4780539 378.291341,19.8248556 378.245768,17.2613791 C378.193685,14.3316916 377.972331,12.0855978 377.581706,10.5230978 C377.321289,9.05174366 376.754883,8.31606658 375.882487,8.31606658 C375.77832,8.36814991 375.726237,8.4430197 375.726237,8.54067595 C375.726237,8.6383322 375.814128,8.76854053 375.989909,8.93130095 C376.16569,9.09406137 376.318685,9.63117074 376.448893,10.5426291 C376.670247,13.1728374 376.803711,15.6207541 376.849284,17.8863791 C376.894857,20.1520041 376.87207,22.2548687 376.780924,24.1949728 C376.689779,26.135077 376.621419,27.6389832 376.575846,28.7066916 C376.530273,29.7743999 376.686523,30.526353 377.044596,30.962551 C377.402669,31.3987489 377.72819,31.3629416 378.021159,30.8551291 C378.314128,30.3473166 378.581055,29.5139832 378.82194,28.3551291 C379.062826,27.1962749 379.319987,26.151353 379.593424,25.2203635 C379.866862,24.2893739 380.172852,23.306301 380.511393,22.2711447 C380.849935,21.2359885 381.305664,19.9762228 381.878581,18.4918478 C382.451497,17.0074728 382.949544,15.7965353 383.372721,14.8590353 C383.795898,13.9215353 384.228841,13.0003114 384.671549,12.0953635 C385.114258,11.1904155 385.514648,10.3961447 385.872721,9.71255095 C386.230794,9.0289572 386.566081,8.43650928 386.878581,7.9352072 C387.191081,7.43390512 387.360352,7.55109262 387.386393,8.2867697 C387.412435,9.02244678 387.396159,9.87205616 387.337565,10.8355978 C387.278971,11.7991395 387.230143,12.791978 387.191081,13.8141135 C387.152018,14.8362489 387.106445,15.8355978 387.054362,16.8121603 C387.002279,17.7887228 386.94043,19.4521343 386.868815,21.8023947 C386.797201,24.1526551 386.764648,26.0504416 386.771159,27.4957541 C386.777669,28.9410666 386.839518,30.2952332 386.956706,31.5582541 C386.956706,32.1572124 387.295247,32.5673687 387.972331,32.7887228 C388.480143,32.6715353 388.909831,32.1897645 389.261393,31.3434103 C389.612956,30.4970562 390.296549,28.4072124 391.312174,25.0738791 C392.418945,21.7014832 393.27181,19.321926 393.870768,17.9352072 C394.469727,16.5484885 394.899414,15.5621603 395.159831,14.9762228 C395.420247,14.3902853 395.745768,13.729478 396.136393,12.993801 C396.527018,12.2581239 397.080404,11.2620301 397.796549,10.0055197 C398.512695,8.74900928 399.147461,7.73663949 399.700846,6.96841033 C400.254232,6.20018116 400.804362,5.49380095 401.351237,4.8492697 C401.898112,4.20473845 402.383138,3.69367074 402.806315,3.31606658 C403.229492,2.93846241 403.613607,2.68130095 403.958659,2.5445822 C404.303711,2.40786345 404.508789,2.19627491 404.573893,1.90981658 L404.573893,1.90981658 L404.105143,1.51919158 L403.851237,1.51919158 C403.004883,1.76658741 402.125977,2.39158741 401.214518,3.39419158 C399.769206,5.03481658 398.613607,6.5289572 397.747721,7.87661345 C396.881836,9.2242697 396.253581,10.2659364 395.862956,11.0016135 C395.472331,11.7372905 395.137044,12.3525249 394.857096,12.8473166 C394.577148,13.3421082 394.079102,14.416327 393.362956,16.0699728 C392.829102,17.2158062 392.438477,18.0621603 392.191081,18.6090353 C391.943685,19.1559103 391.699544,19.7711447 391.458659,20.4547385 C391.217773,21.1383322 390.973633,21.8121603 390.726237,22.4762228 C390.478841,23.1402853 390.159831,24.1266135 389.769206,25.4352072 C389.378581,26.743801 388.864258,28.4202332 388.226237,30.4645041 C388.12207,29.5790874 388.060221,28.8922385 388.04069,28.4039572 C388.021159,27.915676 388.021159,27.2776551 388.04069,26.4898947 C388.060221,25.7021343 388.083008,24.7646343 388.109049,23.6773947 C388.135091,22.5901551 388.170898,21.2424989 388.216471,19.634426 C388.262044,18.026353 388.301107,16.7698426 388.333659,15.8648947 C388.366211,14.9599468 388.441081,12.9970562 388.558268,9.97622283 C388.558268,8.06216033 388.405273,6.94236866 388.099284,6.61684783 C387.793294,6.29132699 387.49707,6.18064991 387.210612,6.28481658 C386.754883,6.44106658 386.256836,6.94562387 385.716471,7.79848845 C385.176107,8.65135303 384.525065,9.84275928 383.763346,11.3727072 C383.001628,12.9026551 382.366862,14.2275249 381.859049,15.3473166 C381.351237,16.4671082 380.875977,17.6227072 380.433268,18.8141135 C379.99056,20.0055197 379.515299,21.3922385 379.007487,22.9742697 C378.499674,24.556301 378.161133,25.6988791 377.991862,26.4020041 L377.991049,26.4007228 L378.068461,25.2209738 Z M406.126907,31.5191916 C406.725865,31.2848166 407.494094,31.0634624 408.431594,30.8551291 C409.369094,30.6467957 410.567011,30.4384624 412.025344,30.2301291 C413.483677,30.0217957 415.186151,29.9990093 417.132766,30.1617697 C419.079381,30.3245301 420.788365,30.5686707 422.259719,30.8941916 C422.598261,30.7509624 422.793573,30.6174989 422.845657,30.493801 C422.89774,30.370103 422.848912,30.1259624 422.699172,29.7613791 C422.549433,29.3967957 421.745396,29.1396343 420.287063,28.9898947 C418.82873,28.8401551 417.061151,28.7522645 414.984329,28.7262228 C412.907506,28.7001812 410.638625,28.9215353 408.177688,29.3902853 C410.456334,26.7210145 412.201125,24.6246603 413.412063,23.1012228 C414.623,21.5777853 415.931594,19.8036968 417.337844,17.7789572 C418.744094,15.7542176 419.587193,14.321926 419.867141,13.4820822 C420.147089,12.6422385 420.221959,11.8089051 420.09175,10.9820822 C419.961542,10.1552593 419.727167,9.50096241 419.388625,9.01919158 C418.776646,7.83429574 417.73498,7.00747283 416.263625,6.53872283 C415.5605,6.44757699 414.753209,6.48663949 413.84175,6.65591033 C412.930292,6.82518116 411.96024,7.28091033 410.931594,8.02309783 C409.902948,8.76528533 409.251907,9.68325408 408.978469,10.7770041 C409.160761,12.3915874 409.388625,13.1988791 409.662063,13.1988791 C410.039667,13.1077332 410.238235,12.6520041 410.257766,11.8316916 C410.277297,11.0113791 410.557245,10.3212749 411.09761,9.76137908 C411.637974,9.20148324 412.321568,8.75226449 413.148391,8.41372283 C413.975214,8.07518116 414.782506,7.92869678 415.570266,7.9742697 C416.358026,8.01984262 417.077427,8.41372283 417.728469,9.15591033 C418.822219,10.7184103 418.805943,12.4762228 417.679641,14.4293478 C416.553339,16.3824728 415.313105,18.2379416 413.958938,19.9957541 C412.604771,21.7535666 411.266881,23.4267437 409.945266,25.0152853 C408.623651,26.603827 407.337844,28.0751812 406.087844,29.4293478 C405.527948,29.5204937 405.248,29.8525249 405.248,30.4254416 C405.378209,30.8551291 405.495396,31.1383322 405.599563,31.275051 C405.70373,31.4117697 405.879511,31.4931499 406.126907,31.5191916 Z M430.956148,32.7887228 C432.010835,32.8668478 433.130627,32.5380718 434.315523,31.8023947 C435.500419,31.0667176 436.597424,30.0152853 437.606538,28.6480978 C438.615653,27.2809103 439.377372,26.056952 439.891695,24.9762228 C440.406018,23.8954937 440.855236,22.7659364 441.239351,21.587551 C441.623465,20.4091655 441.958752,18.9996603 442.24521,17.3590353 C442.531669,15.7184103 442.63909,14.1461447 442.567476,12.6422385 C442.495861,11.1383322 442.215913,9.95343637 441.727632,9.08755095 C441.239351,8.22166553 440.630627,7.62596241 439.90146,7.30044158 C438.872814,6.68846241 438.215262,6.38247283 437.928804,6.38247283 C437.381929,5.60122283 436.704846,5.06736866 435.897554,4.78091033 C435.402762,4.80695199 434.937268,4.9273947 434.50107,5.14223845 C434.064872,5.3570822 433.560314,5.75421762 432.987398,6.3336447 C432.414481,6.91307178 431.669038,8.03286345 430.75107,9.6930197 C429.833101,11.353176 429.016044,13.1240093 428.299898,15.0055197 C427.583752,16.8870301 427.062919,18.5048687 426.737398,19.8590353 C426.411877,21.213202 426.187268,22.4566916 426.06357,23.5895041 C425.939872,24.7223166 425.878023,25.8095562 425.878023,26.8512228 C425.878023,28.5439312 426.418387,30.0738791 427.499116,31.4410666 C428.566825,32.3395041 429.699637,32.7887228 430.897554,32.7887228 L430.897554,32.7887228 L430.956148,32.7887228 Z M430.545991,31.6949728 C429.556408,31.5387228 428.843518,31.2392437 428.40732,30.7965353 C427.971122,30.353827 427.661877,29.6116395 427.479585,28.5699728 C427.323335,26.760077 427.355887,25.1389832 427.577241,23.7066916 C427.798596,22.2743999 428.150158,20.7021343 428.631929,18.9898947 C429.1137,17.2776551 429.914481,15.197577 431.034273,12.7496603 C431.880627,10.9267437 432.596773,9.61814991 433.18271,8.82387908 C433.664481,7.96450408 434.387137,7.24835824 435.350679,6.67544158 L435.350679,6.67544158 L435.565523,6.73403533 C435.565523,6.94236866 435.904064,7.04653533 436.581148,7.04653533 C438.169689,7.38507699 439.341564,7.91893116 440.096773,8.64809783 C440.487398,9.06476449 440.790132,9.67023324 441.004976,10.4645041 C441.21982,11.2587749 441.281669,12.5315614 441.190523,14.2828635 C441.099377,16.0341655 440.884533,17.5999207 440.545991,18.9801291 C440.20745,20.3603374 439.833101,21.5712749 439.422945,22.6129416 C439.012788,23.6546082 438.309663,24.9436707 437.31357,26.4801291 C436.317476,28.0165874 435.266044,29.2177593 434.159273,30.0836447 C433.052502,30.9495301 431.848075,31.4866395 430.545991,31.6949728 Z M443.031483,31.5191916 C443.630441,31.2848166 444.39867,31.0634624 445.33617,30.8551291 C446.27367,30.6467957 447.471587,30.4384624 448.92992,30.2301291 C450.388253,30.0217957 452.090727,29.9990093 454.037342,30.1617697 C455.983956,30.3245301 457.692941,30.5686707 459.164295,30.8941916 C459.502837,30.7509624 459.698149,30.6174989 459.750233,30.493801 C459.802316,30.370103 459.753488,30.1259624 459.603748,29.7613791 C459.454009,29.3967957 458.649972,29.1396343 457.191639,28.9898947 C455.733305,28.8401551 453.965727,28.7522645 451.888904,28.7262228 C449.812081,28.7001812 447.543201,28.9215353 445.082264,29.3902853 C447.121052,27.0019904 448.732461,25.0723462 449.916492,23.6013527 L450.316639,23.1012228 C451.527576,21.5777853 452.83617,19.8036968 454.24242,17.7789572 C455.64867,15.7542176 456.491769,14.321926 456.771717,13.4820822 C457.051665,12.6422385 457.126535,11.8089051 456.996326,10.9820822 C456.866118,10.1552593 456.631743,9.50096241 456.293201,9.01919158 C455.681222,7.83429574 454.639555,7.00747283 453.168201,6.53872283 C452.465076,6.44757699 451.657785,6.48663949 450.746326,6.65591033 C449.834868,6.82518116 448.864816,7.28091033 447.83617,8.02309783 C446.807524,8.76528533 446.156483,9.68325408 445.883045,10.7770041 C446.065337,12.3915874 446.293201,13.1988791 446.566639,13.1988791 C446.944243,13.1077332 447.142811,12.6520041 447.162342,11.8316916 C447.181873,11.0113791 447.461821,10.3212749 448.002186,9.76137908 C448.54255,9.20148324 449.226144,8.75226449 450.052967,8.41372283 C450.87979,8.07518116 451.687081,7.92869678 452.474842,7.9742697 C453.262602,8.01984262 453.982003,8.41372283 454.633045,9.15591033 C455.726795,10.7184103 455.710519,12.4762228 454.584217,14.4293478 C453.457915,16.3824728 452.21768,18.2379416 450.863514,19.9957541 C449.509347,21.7535666 448.171456,23.4267437 446.849842,25.0152853 C445.528227,26.603827 444.24242,28.0751812 442.99242,29.4293478 C442.432524,29.5204937 442.152576,29.8525249 442.152576,30.4254416 C442.282785,30.8551291 442.399972,31.1383322 442.504139,31.275051 C442.608305,31.4117697 442.784087,31.4931499 443.031483,31.5191916 Z M464.325567,32.7887228 C464.781297,32.3720562 465.100307,31.7730978 465.282599,30.9918478 C465.46489,30.2105978 465.751349,28.8303895 466.141974,26.8512228 C466.532599,24.8720562 467.219448,21.6884624 468.20252,17.3004416 C469.185593,12.9124207 470.002651,9.12986866 470.653692,5.95278533 C470.653692,5.60122283 470.565802,5.35382699 470.39002,5.21059783 C470.214239,5.06736866 469.944057,4.92413949 469.579474,4.78091033 L469.579474,4.78091033 L469.247442,4.78091033 L467.138067,15.0152853 C465.992234,19.9762228 465.230515,23.3974468 464.852911,25.2789572 C464.475307,27.1604676 464.224656,28.556952 464.100958,29.4684103 C463.97726,30.3798687 463.882859,31.2327332 463.817755,32.0270041 C463.856817,32.5348166 464.026088,32.7887228 464.325567,32.7887228 Z" id="SANDSFW2021"></path>
            </g>
        </g>
    </g>
</svg>