<?xml version="1.0" encoding="UTF-8"?>
<svg width="361px" height="49px" viewBox="0 0 361 49" version="1.1" xmlns="http://www.w3.org/2000/svg" xmlns:xlink="http://www.w3.org/1999/xlink">
    <title>VIOLETDRESS</title>
    <g id="final-copy" stroke="none" stroke-width="1" fill="none" fill-rule="evenodd">
        <path d="M4.47851562,44.9414062 C5.14257813,44.84375 5.58203125,44.6630859 5.796875,44.3994141 C6.01171875,44.1357422 6.29492188,43.7792969 6.64648438,43.3300781 L6.64648438,43.3300781 L7.84765625,41.4550781 C13.0973772,31.6950335 16.5189053,25.2327339 18.1122405,22.0681794 L18.3652344,21.5625 C19.8300781,18.6132812 21.5,15.2929688 23.375,11.6015625 C25.25,7.91015625 26.6123047,5.36132812 27.4619141,3.95507812 C28.3115234,2.54882812 29.0292969,1.22070312 29.6152344,-0.029296875 C29.0488281,0.107421875 28.0576172,1.04980469 26.6416016,2.79785156 C25.2255859,4.54589844 24.0195312,6.37695313 23.0234375,8.29101562 C22.0273438,10.2050781 20.6503906,12.8320313 18.8925781,16.171875 C17.1347656,19.5117188 15.0644531,23.5009766 12.6816406,28.1396484 C10.2988281,32.7783203 7.99414063,37.0703125 5.76757813,41.015625 L5.76757813,41.015625 L5.76757813,40.9277344 C6.25585938,38.6230469 6.578125,36.8847656 6.734375,35.7128906 C6.890625,34.5410156 6.98339844,32.6220703 7.01269531,29.9560547 C7.04199219,27.2900391 6.91503906,24.6289062 6.63183594,21.9726562 C6.34863281,19.3164062 6.06054688,17.1435547 5.76757813,15.4541016 C5.47460938,13.7646484 5.12304688,12.1289062 4.71289063,10.546875 C4.30273438,8.96484375 3.83398438,7.75390625 3.30664063,6.9140625 C2.77929688,6.07421875 2.13476563,5.65429688 1.37304688,5.65429688 L1.37304688,5.65429688 L1.28515625,5.65429688 C0.54296875,5.75195313 0.572265625,6.2109375 1.37304688,7.03125 C2.19335938,8.0859375 2.77929688,9.47265625 3.13085938,11.1914062 C3.48242188,12.9101562 3.80957031,14.7949219 4.11230469,16.8457031 C4.41503906,18.8964844 4.63964844,21.2207031 4.78613281,23.8183594 C4.93261719,26.4160156 4.99609375,28.6474609 4.9765625,30.5126953 C4.95703125,32.3779297 4.82519531,34.4287109 4.58105469,36.6650391 C4.33691406,38.9013672 3.9609375,41.2890625 3.453125,43.828125 C3.765625,44.4726562 4.10742188,44.84375 4.47851562,44.9414062 Z M23.8512835,45.0292969 C24.280971,45.0878906 24.7839007,44.6386719 25.3600725,43.6816406 C25.9362444,42.7246094 26.7614397,40.8789062 27.8356585,38.1445312 C27.952846,39.0625 28.5046038,40.0195312 29.4909319,41.015625 C30.47726,42.0117188 31.6881975,42.3535156 33.1237444,42.0410156 C34.5592913,41.7285156 35.6188616,41.2304688 36.3024554,40.546875 C36.9860491,39.8632812 37.2204241,39.4873047 37.0055804,39.4189453 C36.7907366,39.3505859 36.4245257,39.5214844 35.9069475,39.9316406 C35.3893694,40.3417969 34.6081194,40.6591797 33.5631975,40.8837891 C32.5182757,41.1083984 31.4831194,40.8056641 30.4577288,39.9755859 C29.4323382,39.1455078 28.9001116,37.7050781 28.8610491,35.6542969 C29.6813616,33.7792969 30.2331194,32.5878906 30.5163225,32.0800781 C30.7995257,31.5722656 31.2975725,30.5517578 32.0104632,29.0185547 C32.7233538,27.4853516 33.5485491,25.5615234 34.4860491,23.2470703 C35.4235491,20.9326172 36.25851,18.6523438 36.9909319,16.40625 C37.7233538,14.1601562 38.2702288,12.4365234 38.6315569,11.2353516 C38.992885,10.0341797 39.3151507,8.77929688 39.5983538,7.47070312 C39.8815569,6.16210938 40.0182757,4.89746094 40.00851,3.67675781 C39.9987444,2.45605469 39.7204241,1.66015625 39.1735491,1.2890625 C38.6462054,0.8984375 37.9821429,1.09375 37.1813616,1.875 C36.3805804,2.65625 35.4577288,4.14550781 34.4128069,6.34277344 C33.367885,8.54003906 32.4792132,10.7617188 31.7467913,13.0078125 C31.0143694,15.2539062 30.3698382,17.3095703 29.8131975,19.1748047 C29.2565569,21.0400391 28.680385,23.6328125 28.0846819,26.953125 C27.4889788,30.2734375 27.2008929,32.9980469 27.2204241,35.1269531 C25.9899554,38.2128906 25.1208147,40.3369141 24.6130022,41.4990234 C24.1051897,42.6611328 23.734096,43.0175781 23.499721,42.5683594 C23.265346,42.1191406 23.055385,41.6162109 22.8698382,41.0595703 C22.6842913,40.5029297 22.249721,39.8535156 21.5661272,39.1113281 L21.5661272,39.1113281 L25.140346,37.3828125 C25.0231585,36.8945312 24.7936663,36.5820312 24.4518694,36.4453125 C24.1100725,36.3085938 23.7243304,36.4013672 23.2946429,36.7236328 C22.8649554,37.0458984 22.2253069,37.4023438 21.3756975,37.7929688 C20.5260882,38.1835938 19.9499163,38.3789062 19.6471819,38.3789062 C19.3444475,38.3789062 19.1930804,38.59375 19.1930804,39.0234375 C20.3063616,39.9023438 21.077846,40.9423828 21.5075335,42.1435547 C21.937221,43.3447266 22.327846,44.1113281 22.6794085,44.4433594 C23.030971,44.7753906 23.421596,44.9707031 23.8512835,45.0292969 Z M28.7438616,31.7871094 C28.9196429,30.7324219 29.124721,29.5898437 29.359096,28.359375 C29.593471,27.1289062 29.9010882,25.703125 30.2819475,24.0820312 C30.6628069,22.4609375 31.2878069,20.2734375 32.1569475,17.5195312 C33.0260882,14.765625 33.8024554,12.4414062 34.4860491,10.546875 C35.1696429,8.6328125 35.921596,6.97265625 36.7419085,5.56640625 C37.562221,4.16015625 38.0602679,3.4765625 38.2360491,3.515625 C38.4704241,3.61328125 38.3874163,4.37011719 37.9870257,5.78613281 C37.586635,7.20214844 37.0592913,9.08691406 36.4049944,11.4404297 C35.7506975,13.7939453 35.0817522,15.8837891 34.3981585,17.7099609 C33.7145647,19.5361328 32.9333147,21.5966797 32.0544085,23.8916016 C31.1755022,26.1865234 30.5358538,27.7587891 30.1354632,28.6083984 C29.7350725,29.4580078 29.2712054,30.5175781 28.7438616,31.7871094 Z M52.3897361,45.0258636 L52.8627232,45.0146484 C54.6010045,44.9462891 56.2611607,44.5605469 57.843192,43.8574219 C59.4252232,43.1542969 60.8705357,42.34375 62.1791295,41.4257812 C63.4877232,40.5078125 64.6351842,39.5263672 65.6215123,38.4814453 C66.6078404,37.4365234 67.6185826,36.0986328 68.6537388,34.4677734 C69.6888951,32.8369141 70.6410435,31.0742188 71.5101842,29.1796875 C72.3793248,27.2851562 73.0482701,25.4394531 73.5170201,23.6425781 C73.9857701,21.8457031 74.1908482,20.2050781 74.1322545,18.7207031 C74.0736607,17.2363281 73.9076451,15.8447266 73.6342076,14.5458984 C73.3607701,13.2470703 72.945731,12.0166016 72.3890904,10.8544922 C71.8324498,9.69238281 71.1537388,8.6328125 70.3529576,7.67578125 C69.5521763,6.71875 68.5511998,5.84960938 67.3500279,5.06835938 C66.148856,4.28710938 65.289481,3.81347656 64.7719029,3.64746094 C64.2543248,3.48144531 63.6195592,3.359375 62.867606,3.28125 C62.1156529,3.203125 61.4076451,3.17382812 60.7435826,3.19335938 C60.0990513,3.21289062 59.1664342,3.48632812 57.945731,4.01367188 C56.7250279,4.54101562 55.445731,5.34667969 54.1078404,6.43066406 C52.7699498,7.51464844 51.1293248,9.44335938 49.1859654,12.2167969 C47.242606,14.9902344 45.7533482,17.6269531 44.718192,20.1269531 C43.6830357,22.6269531 42.945731,24.8193359 42.5062779,26.7041016 C42.0668248,28.5888672 41.7787388,30.2685547 41.6420201,31.7431641 C41.5053013,33.2177734 41.5248326,34.8828125 41.7006138,36.7382812 C42.0131138,38.3789062 42.6918248,39.9072266 43.7367467,41.3232422 C44.7816685,42.7392578 46.1293248,43.7255859 47.7797154,44.2822266 C49.430106,44.8388672 51.124442,45.0830078 52.8627232,45.0146484 L52.3897361,45.0258636 Z M54.3422154,42.9931641 C53.3754185,43.2568359 52.2084263,43.28125 50.8412388,43.0664062 C49.4740513,42.8515625 48.3217076,42.5048828 47.3842076,42.0263672 C46.4467076,41.5478516 45.6654576,40.8789062 45.0404576,40.0195312 C44.4154576,39.1601562 43.9467076,38.1640625 43.6342076,37.03125 C43.3217076,35.8984375 43.2972935,34.2773438 43.5609654,32.1679688 C43.8246373,30.0585938 44.2299107,28.0810547 44.7767857,26.2353516 C45.3236607,24.3896484 45.9242467,22.6708984 46.5785435,21.0791016 C47.2328404,19.4873047 48.4486607,17.2753906 50.2260045,14.4433594 C52.0033482,11.6113281 53.6342076,9.56054688 55.1185826,8.29101562 C56.6029576,7.02148437 57.867606,6.19628906 58.9125279,5.81542969 C59.9574498,5.43457031 61.1439732,5.28320312 62.4720982,5.36132812 C63.8197545,5.41992187 65.0599888,6.20117187 66.1928013,7.70507812 C66.2513951,7.70507812 66.3490513,7.69042969 66.4857701,7.66113281 C66.6224888,7.63183594 66.749442,7.52929687 66.8666295,7.35351562 L66.8666295,7.35351562 L66.8373326,6.73828125 C69.0638951,8.96484375 70.4506138,10.8398438 70.9974888,12.3632812 C71.5443638,13.8867188 71.9203404,15.3564453 72.1254185,16.7724609 C72.3304967,18.1884766 72.2377232,19.8730469 71.8470982,21.8261719 C71.4564732,23.7792969 70.8217076,25.7519531 69.9428013,27.7441406 C69.0638951,29.7363281 68.0140904,31.6943359 66.7933873,33.6181641 C65.5726842,35.5419922 64.3080357,37.0556641 62.999442,38.1591797 C61.6908482,39.2626953 60.1625279,40.2783203 58.414481,41.2060547 C56.6664342,42.1337891 55.3090123,42.7294922 54.3422154,42.9931641 Z M78.8565848,43.7695312 C80.1847098,44.84375 81.9571708,45.2880859 84.1739676,45.1025391 C86.3907645,44.9169922 88.3390067,44.609375 90.0186942,44.1796875 L90.0186942,44.1796875 L92.186663,43.7988281 L95.233538,43.1835938 L103.495257,41.6601562 L104.198382,41.25 C103.924944,40.8984375 102.430804,40.8251953 99.7159598,41.0302734 C97.0011161,41.2353516 94.9747489,41.4453125 93.6368583,41.6601562 C92.2989676,41.875 90.8780692,42.1435547 89.374163,42.4658203 C87.8702567,42.7880859 86.4640067,43.0322266 85.155413,43.1982422 C83.8468192,43.3642578 82.7628348,43.3740234 81.9034598,43.2275391 C81.0440848,43.0810547 80.3458426,42.6123047 79.8087333,41.8212891 C79.2716239,41.0302734 79.2765067,39.140625 79.8233817,36.1523438 C80.3702567,33.1640625 81.7325614,29.2431641 83.9102958,24.3896484 C86.0880301,19.5361328 87.8507255,15.5078125 89.1983817,12.3046875 C90.546038,9.1015625 91.796038,6.484375 92.9483817,4.453125 C91.7765067,2.28515625 90.8487723,2.32421875 90.1651786,4.5703125 C89.8917411,5.60546875 88.929827,7.95410156 87.2794364,11.6162109 C85.6290458,15.2783203 83.7247489,19.6240234 81.5665458,24.6533203 C79.4083426,29.6826172 78.1534598,33.5449219 77.8018973,36.2402344 C77.4503348,38.9355469 77.445452,40.7714844 77.7872489,41.7480469 C78.1290458,42.7246094 78.4854911,43.3984375 78.8565848,43.7695312 Z M115.368025,44.9121094 C117.731306,45.0097656 120.416853,45.0097656 123.424665,44.9121094 C127.526228,44.4824219 131.393415,43.4863281 135.026228,41.9238281 C135.69029,41.4941406 135.328962,41.3476562 133.942243,41.484375 C131.637556,41.7773438 129.635603,42.0996094 127.936384,42.4511719 C126.237165,42.8027344 123.375837,43.125 119.3524,43.4179688 C116.285993,43.3789062 114.376814,43.3007812 113.624861,43.1835938 C112.872907,43.0664062 112.184431,42.9199219 111.559431,42.7441406 C110.680525,42.1386719 110.358259,41.3574219 110.592634,40.4003906 L110.592634,40.4003906 L110.973493,39.4921875 C111.5399,38.6132812 112.003767,37.9394531 112.365095,37.4707031 C112.726423,37.0019531 113.424665,36.1914062 114.459821,35.0390625 C115.553571,33.9648438 116.774275,32.8417969 118.121931,31.6699219 C119.469587,30.7128906 120.53404,29.9121094 121.31529,29.2675781 C122.09654,28.6230469 122.965681,27.9882812 123.922712,27.3632812 C125.270368,26.5429688 126.520368,25.7128906 127.672712,24.8730469 C128.922712,23.9746094 130.338728,23.0859375 131.920759,22.2070312 C132.702009,21.7773438 133.170759,21.2988281 133.327009,20.7714844 C133.248884,20.0292969 132.887556,19.5800781 132.243025,19.4238281 C131.618025,19.3847656 131.032087,19.4042969 130.485212,19.4824219 C129.391462,19.5605469 128.200056,19.6875 126.910993,19.8632812 L126.910993,19.8632812 L124.274275,19.9804688 C122.340681,19.9609375 120.963728,19.9023438 120.143415,19.8046875 C119.323103,19.7070312 118.424665,19.5117188 117.448103,19.21875 C116.569196,18.6914062 116.110212,18.0810547 116.07115,17.3876953 C116.032087,16.6943359 116.232282,15.8984375 116.671736,15 C117.111189,14.1015625 117.897321,12.9833984 119.030134,11.6455078 C120.162946,10.3076172 121.481306,9.23828125 122.985212,8.4375 C125.055525,7.265625 126.730329,6.46484375 128.009626,6.03515625 C129.288923,5.60546875 130.470564,5.28808594 131.554548,5.08300781 C132.638532,4.87792969 133.7274,4.78515625 134.82115,4.8046875 C136.285993,4.765625 137.1649,5.2734375 137.457868,6.328125 C137.692243,7.3046875 138.014509,7.79296875 138.424665,7.79296875 C138.580915,7.734375 138.746931,7.49023438 138.922712,7.06054688 L138.922712,7.06054688 L138.922712,5.859375 C138.825056,5.25390625 138.634626,4.78027344 138.351423,4.43847656 C138.06822,4.09667969 137.711775,3.81835938 137.282087,3.60351562 L137.282087,3.60351562 L135.700056,3.046875 L133.942243,3.046875 C132.868025,3.1640625 132.081892,3.25195312 131.583845,3.31054688 C131.085798,3.36914062 130.055525,3.61328125 128.493025,4.04296875 C126.910993,4.53125 125.426618,5.14648438 124.0399,5.88867188 C121.715681,7.02148438 119.6649,8.34960938 117.887556,9.87304688 L117.887556,9.87304688 L116.364118,11.8359375 C115.407087,13.4179688 114.82115,14.8535156 114.606306,16.1425781 L114.606306,16.1425781 L114.518415,17.34375 C114.694196,18.8476562 115.338728,19.8535156 116.452009,20.3613281 C117.467634,20.8300781 118.795759,21.1132812 120.436384,21.2109375 C122.037946,21.25 123.434431,21.2597656 124.625837,21.2402344 L124.625837,21.2402344 L126.618025,21.2402344 C128.121931,21.1425781 129.254743,21.0351562 130.016462,20.9179688 L130.016462,20.9179688 L130.983259,20.7714844 C130.553571,21.0449219 130.006696,21.4160156 129.342634,21.8847656 C128.541853,22.4316406 127.741071,22.9394531 126.94029,23.4082031 C125.143415,24.4824219 124.00572,25.1708984 123.527204,25.4736328 C123.048689,25.7763672 122.614118,26.0742188 122.223493,26.3671875 C121.832868,26.6601562 121.183454,27.1289062 120.275251,27.7734375 C119.367048,28.4179688 118.175642,29.3261719 116.701032,30.4980469 C115.226423,31.6699219 114.19615,32.5634766 113.610212,33.1787109 C113.024275,33.7939453 112.423689,34.4628906 111.808454,35.1855469 C111.19322,35.9082031 110.494978,36.875 109.713728,38.0859375 C109.342634,38.7109375 109.049665,39.5605469 108.834821,40.6347656 C108.834821,42.0214844 109.264509,43.0957031 110.123884,43.8574219 C111.256696,44.4628906 113.004743,44.8144531 115.368025,44.9121094 Z M147.04548,44.8828125 C147.436105,45.2929688 147.82673,44.7900391 148.217355,43.3740234 C148.60798,41.9580078 149.213449,40.234375 150.033761,38.203125 C150.854074,36.171875 151.630441,34.3017578 152.362863,32.5927734 C153.095285,30.8837891 153.993722,28.8330078 155.058175,26.4404297 C156.122628,24.0478516 157.172433,21.7675781 158.207589,19.5996094 C159.242746,17.4316406 159.975167,15.8007812 160.404855,14.7070312 C161.244699,12.6367188 161.864816,11.0058594 162.265206,9.81445312 C162.665597,8.62304688 162.924386,7.54394531 163.041574,6.57714844 C163.158761,5.61035156 162.816964,4.78515625 162.016183,4.1015625 C161.762277,3.69140625 161.088449,3.38867188 159.994699,3.19335938 L159.994699,3.19335938 L157.387277,3.1640625 C154.691964,3.45703125 152.431222,3.77441406 150.60505,4.11621094 C148.778878,4.45800781 147.152902,4.83398438 145.727121,5.24414062 C144.301339,5.65429688 143.437081,5.90332031 143.134347,5.99121094 C142.999799,6.03027344 142.819918,6.08669705 142.594706,6.16048177 L142.222889,6.28417969 C142.019981,6.35253906 141.791574,6.43066406 141.537667,6.51855469 C140.775949,6.78222656 140.307199,6.94824219 140.131417,7.01660156 C139.955636,7.08496094 139.755441,7.17773438 139.530831,7.29492188 C139.306222,7.41210938 139.203683,7.6953125 139.223214,8.14453125 C139.867746,8.92578125 141.752511,8.66210938 144.877511,7.35351562 L144.877511,7.35351562 L149.008371,6.328125 C152.328683,5.60546875 154.85798,5.13671875 156.596261,4.921875 C158.334542,4.70703125 159.501535,4.70703125 160.097238,4.921875 C160.692941,5.13671875 161.000558,5.6640625 161.020089,6.50390625 C161.039621,7.34375 160.658761,8.77929688 159.877511,10.8105469 C158.471261,13.9550781 157.445871,16.2402344 156.801339,17.6660156 C156.156808,19.0917969 155.507394,20.46875 154.853097,21.796875 C154.1988,23.125 153.437081,24.8046875 152.567941,26.8359375 C151.6988,28.8671875 150.902902,30.7275391 150.180246,32.4169922 C149.457589,34.1064453 148.671456,35.9667969 147.821847,37.9980469 C146.972238,40.0292969 146.547433,41.5527344 146.547433,42.5683594 C146.488839,43.7011719 146.654855,44.4726562 147.04548,44.8828125 Z M195.613002,43.7695312 C195.437221,44.7265625 195.559291,45.1367188 195.979213,45 C196.399135,44.8632812 196.726284,44.3847656 196.960659,43.5644531 C198.913784,43.2128906 200.915737,42.6953125 202.966518,42.0117188 C205.017299,41.328125 206.906948,40.6640625 208.635463,40.0195312 C210.363979,39.375 211.66769,38.8378906 212.546596,38.4082031 C213.425502,37.9785156 215.110073,36.9824219 217.600307,35.4199219 C220.090541,33.8574219 222.185268,32.0556641 223.884487,30.0146484 C225.583705,27.9736328 226.560268,25.9423828 226.814174,23.9208984 C227.06808,21.8994141 226.926479,20.0439453 226.389369,18.3544922 C225.85226,16.6650391 224.988002,14.9365234 223.796596,13.1689453 C222.60519,11.4013672 221.111049,9.84863281 219.314174,8.51074219 C217.517299,7.17285156 215.66183,6.08886719 213.747768,5.25878906 C211.833705,4.42871094 210.217494,3.89160156 208.899135,3.64746094 C207.580776,3.40332031 205.642299,3.203125 203.083705,3.046875 C200.544643,2.87109375 197.981166,2.98828125 195.393276,3.3984375 C192.805385,3.80859375 190.901088,4.25292969 189.680385,4.73144531 C188.459682,5.20996094 187.390346,5.83007812 186.472377,6.59179688 C185.554409,7.35351562 185.183315,8.42773438 185.359096,9.81445312 C185.613002,10.8496094 186.194057,11.5087891 187.10226,11.7919922 C188.010463,12.0751953 188.205776,11.7529297 187.688198,10.8251953 C187.170619,9.89746094 187.077846,9.21875 187.409877,8.7890625 C188.308315,7.87109375 189.157924,7.2265625 189.958705,6.85546875 C190.759487,6.484375 191.916713,6.11816406 193.430385,5.75683594 C194.944057,5.39550781 196.726284,5.14160156 198.777065,4.99511719 C200.827846,4.84863281 202.780971,4.86816406 204.63644,5.05371094 C206.491909,5.23925781 208.611049,5.67871094 210.993862,6.37207031 C213.376674,7.06542969 215.652065,8.28613281 217.820034,10.0341797 C219.988002,11.7822266 221.579799,13.5644531 222.595424,15.3808594 C223.611049,17.1972656 224.245815,18.7304688 224.499721,19.9804688 C224.753627,21.2304688 224.817104,22.5439453 224.690151,23.9208984 C224.563198,25.2978516 223.928432,26.6894531 222.785854,28.0957031 C221.643276,29.5019531 220.432338,30.7470703 219.153041,31.8310547 C217.873744,32.9150391 216.482143,33.9208984 214.978237,34.8486328 C213.47433,35.7763672 211.389369,36.8115234 208.723354,37.9541016 C206.057338,39.0966797 202.341518,40.3515625 197.575893,41.71875 C198.31808,38.5546875 198.913784,35.9277344 199.363002,33.8378906 C199.812221,31.7480469 200.246791,29.7021484 200.666713,27.7001953 C201.086635,25.6982422 201.526088,23.5546875 201.985073,21.2695312 C202.444057,18.984375 202.995815,16.5185547 203.640346,13.8720703 C204.284877,11.2255859 204.275112,9.56542969 203.611049,8.89160156 C202.946987,8.21777344 202.502651,8.28613281 202.278041,9.09667969 C202.053432,9.90722656 201.706752,11.4746094 201.238002,13.7988281 C200.769252,16.1230469 200.310268,18.359375 199.861049,20.5078125 C199.41183,22.65625 198.987026,24.7802734 198.586635,26.8798828 C198.186244,28.9794922 197.72726,31.4355469 197.209682,34.2480469 C196.692104,37.0605469 196.277065,39.6289062 195.964565,41.953125 C193.269252,42.265625 190.988979,42.3046875 189.123744,42.0703125 C187.25851,41.8359375 186.716518,42.0263672 187.497768,42.6416016 C188.279018,43.2568359 189.109096,43.6279297 189.988002,43.7548828 C190.866909,43.8818359 191.716518,43.9306641 192.53683,43.9013672 C193.357143,43.8720703 194.382534,43.828125 195.613002,43.7695312 Z M235.464286,48.4863281 C235.815848,48.3300781 236.050223,48.1787109 236.167411,48.0322266 C236.284598,47.8857422 236.470145,47.5292969 236.724051,46.9628906 C237.48577,43.6621094 238.057059,40.8496094 238.437919,38.5253906 C238.818778,36.2011719 239.08245,34.5947266 239.228934,33.7060547 C239.375419,32.8173828 239.67327,30.7519531 240.122489,27.5097656 C244.165458,30.4589844 247.036551,32.7001953 248.73577,34.2333984 C250.434989,35.7666016 252.768973,37.5830078 255.737723,39.6826172 C258.706473,41.7822266 261.675223,43.2617188 264.643973,44.1210938 C265.874442,44.21875 265.952567,43.9355469 264.878348,43.2714844 C264.077567,42.9980469 262.905692,42.4072266 261.362723,41.4990234 C259.819754,40.5908203 257.886161,39.2431641 255.561942,37.4560547 C253.237723,35.6689453 250.820731,33.7451172 248.310965,31.6845703 C245.8012,29.6240234 243.159598,27.6855469 240.386161,25.8691406 C240.522879,24.9902344 240.659598,24.1894531 240.796317,23.4667969 C242.143973,23.1542969 243.882254,22.5732422 246.011161,21.7236328 C248.140067,20.8740234 249.809989,20.0878906 251.020926,19.3652344 C252.231864,18.6425781 253.398856,17.7099609 254.521903,16.5673828 C255.64495,15.4248047 256.450614,14.4335937 256.938895,13.59375 C257.427176,12.7539062 257.705497,11.9042969 257.773856,11.0449219 C257.842215,10.1855469 257.803153,9.4921875 257.656669,8.96484375 C257.510184,8.4375 257.183036,7.8125 256.675223,7.08984375 C256.167411,6.3671875 255.33245,5.68359375 254.17034,5.0390625 C253.008231,4.39453125 251.499442,3.93554688 249.643973,3.66210938 C247.788504,3.38867188 245.796317,3.23242188 243.667411,3.19335938 C243.374442,2.11914063 242.983817,1.53320313 242.495536,1.43554688 C242.007254,1.31835938 241.811942,1.484375 241.909598,1.93359375 L241.909598,1.93359375 L241.909598,2.78320313 L241.792411,3.48632813 C241.069754,3.70117188 240.288504,3.95019531 239.448661,4.23339844 C238.608817,4.51660156 237.593192,4.99511719 236.401786,5.66894531 C235.210379,6.34277344 234.502372,6.9140625 234.277762,7.3828125 C234.053153,7.8515625 233.940848,8.26171875 233.940848,8.61328125 C233.940848,8.96484375 234.009208,9.23339844 234.145926,9.41894531 C234.282645,9.60449219 234.473075,10.0048828 234.717215,10.6201172 C234.961356,11.2353516 235.268973,11.9238281 235.640067,12.6855469 C236.030692,12.3339844 236.147879,11.9287109 235.991629,11.4697266 C235.835379,11.0107422 235.625419,10.3955078 235.361747,9.62402344 C235.098075,8.85253906 235.278739,8.21289062 235.903739,7.70507813 C236.528739,7.19726563 237.168387,6.77246094 237.822684,6.43066406 C238.476981,6.08886719 239.761161,5.63476563 241.675223,5.06835938 C241.089286,8.79882812 240.698661,11.2060547 240.503348,12.2900391 C240.308036,13.3740234 240.098075,14.6923828 239.873465,16.2451172 C239.856188,16.3645583 239.83865,16.4862241 239.820852,16.6101146 L239.710946,17.3801544 C239.522567,18.7080483 239.308186,20.2584135 239.067801,22.03125 C237.388114,22.3632812 236.055106,22.5830078 235.068778,22.6904297 C234.08245,22.7978516 233.135184,22.8710938 232.226981,22.9101562 C231.318778,22.9492188 230.874442,23.1542969 230.893973,23.5253906 C230.913504,23.8964844 231.138114,24.3457031 231.567801,24.8730469 C232.075614,24.8730469 232.632254,24.8242188 233.237723,24.7265625 C234.194754,24.7265625 235.249442,24.9707031 236.401786,25.4589844 L236.401786,25.4589844 L238.335379,26.484375 C237.827567,30.2734375 237.349051,33.5253906 236.899833,36.2402344 C236.450614,38.9550781 236.040458,41.25 235.669364,43.125 C235.29827,45 234.976004,46.5820312 234.702567,47.8710938 L234.702567,47.8710938 L235.200614,48.4863281 L235.464286,48.4863281 Z M241.147879,21.4453125 C241.421317,19.609375 241.641044,18.1152344 241.807059,16.9628906 C241.973075,15.8105469 242.168387,14.4482422 242.392997,12.8759766 C242.449149,12.4829102 242.50225,12.1112061 242.552298,11.7608643 L242.69329,10.7739258 C242.78118,10.1586914 242.856864,9.62890625 242.92034,9.18457031 C243.047294,8.29589844 243.26702,6.86523438 243.57952,4.89257812 C245.005301,4.75585938 246.577567,4.8046875 248.296317,5.0390625 C250.015067,5.2734375 251.299247,5.52734375 252.148856,5.80078125 C252.998465,6.07421875 253.89202,6.50390625 254.82952,7.08984375 C255.688895,8.14453125 256.157645,8.95019531 256.23577,9.50683594 C256.313895,10.0634766 256.226004,10.7373047 255.972098,11.5283203 C255.718192,12.3193359 255.185965,13.1933594 254.375419,14.1503906 C253.564872,15.1074219 252.583426,16.0205078 251.431083,16.8896484 C250.278739,17.7587891 248.789481,18.5986328 246.963309,19.4091797 C245.137137,20.2197266 243.198661,20.8984375 241.147879,21.4453125 Z M238.657645,24.7558594 C238.364676,24.5996094 237.974051,24.4335938 237.48577,24.2578125 C237.915458,24.1601562 238.345145,24.0527344 238.774833,23.9355469 L238.774833,23.9355469 L238.657645,24.7558594 Z M273.440569,44.9121094 C275.80385,45.0097656 278.489397,45.0097656 281.49721,44.9121094 C285.598772,44.4824219 289.46596,43.4863281 293.098772,41.9238281 C293.762835,41.4941406 293.401507,41.3476562 292.014788,41.484375 C289.7101,41.7773438 287.708147,42.0996094 286.008929,42.4511719 C284.30971,42.8027344 281.448382,43.125 277.424944,43.4179688 C274.358538,43.3789062 272.449358,43.3007812 271.697405,43.1835938 C270.945452,43.0664062 270.256975,42.9199219 269.631975,42.7441406 C268.753069,42.1386719 268.430804,41.3574219 268.665179,40.4003906 L268.665179,40.4003906 L269.046038,39.4921875 C269.612444,38.6132812 270.076311,37.9394531 270.43764,37.4707031 C270.798968,37.0019531 271.49721,36.1914062 272.532366,35.0390625 C273.626116,33.9648438 274.846819,32.8417969 276.194475,31.6699219 C277.542132,30.7128906 278.606585,29.9121094 279.387835,29.2675781 C280.169085,28.6230469 281.038225,27.9882812 281.995257,27.3632812 C283.342913,26.5429688 284.592913,25.7128906 285.745257,24.8730469 C286.995257,23.9746094 288.411272,23.0859375 289.993304,22.2070312 C290.774554,21.7773438 291.243304,21.2988281 291.399554,20.7714844 C291.321429,20.0292969 290.9601,19.5800781 290.315569,19.4238281 C289.690569,19.3847656 289.104632,19.4042969 288.557757,19.4824219 C287.464007,19.5605469 286.2726,19.6875 284.983538,19.8632812 L284.983538,19.8632812 L282.346819,19.9804688 C280.413225,19.9609375 279.036272,19.9023438 278.21596,19.8046875 C277.395647,19.7070312 276.49721,19.5117188 275.520647,19.21875 C274.641741,18.6914062 274.182757,18.0810547 274.143694,17.3876953 C274.104632,16.6943359 274.304827,15.8984375 274.74428,15 C275.183733,14.1015625 275.969866,12.9833984 277.102679,11.6455078 C278.235491,10.3076172 279.55385,9.23828125 281.057757,8.4375 C283.128069,7.265625 284.802874,6.46484375 286.082171,6.03515625 C287.361468,5.60546875 288.543108,5.28808594 289.627093,5.08300781 C290.711077,4.87792969 291.799944,4.78515625 292.893694,4.8046875 C294.358538,4.765625 295.237444,5.2734375 295.530413,6.328125 C295.764788,7.3046875 296.087054,7.79296875 296.49721,7.79296875 C296.65346,7.734375 296.819475,7.49023438 296.995257,7.06054688 L296.995257,7.06054688 L296.995257,5.859375 C296.8976,5.25390625 296.707171,4.78027344 296.423968,4.43847656 C296.140765,4.09667969 295.784319,3.81835938 295.354632,3.60351562 L295.354632,3.60351562 L293.7726,3.046875 L292.014788,3.046875 C291.799944,3.0703125 291.596624,3.09257813 291.404827,3.11367188 L290.864007,3.1734375 C290.357757,3.2296875 289.955218,3.27539062 289.65639,3.31054688 C289.158343,3.36914062 288.128069,3.61328125 286.565569,4.04296875 C284.983538,4.53125 283.499163,5.14648438 282.112444,5.88867188 C279.788225,7.02148438 277.737444,8.34960938 275.9601,9.87304688 L275.9601,9.87304688 L274.436663,11.8359375 C273.479632,13.4179688 272.893694,14.8535156 272.67885,16.1425781 L272.67885,16.1425781 L272.59096,17.34375 C272.766741,18.8476562 273.411272,19.8535156 274.524554,20.3613281 C275.540179,20.8300781 276.868304,21.1132812 278.508929,21.2109375 C280.110491,21.25 281.506975,21.2597656 282.698382,21.2402344 L282.698382,21.2402344 L284.690569,21.2402344 C286.194475,21.1425781 287.327288,21.0351562 288.089007,20.9179688 L288.089007,20.9179688 L289.055804,20.7714844 C288.626116,21.0449219 288.079241,21.4160156 287.415179,21.8847656 C286.614397,22.4316406 285.813616,22.9394531 285.012835,23.4082031 C283.21596,24.4824219 282.078265,25.1708984 281.599749,25.4736328 C281.121233,25.7763672 280.686663,26.0742188 280.296038,26.3671875 C279.905413,26.6601562 279.255999,27.1289062 278.347796,27.7734375 C277.439593,28.4179688 276.248186,29.3261719 274.773577,30.4980469 C273.298968,31.6699219 272.268694,32.5634766 271.682757,33.1787109 C271.096819,33.7939453 270.496233,34.4628906 269.880999,35.1855469 C269.265765,35.9082031 268.567522,36.875 267.786272,38.0859375 C267.415179,38.7109375 267.12221,39.5605469 266.907366,40.6347656 C266.907366,42.0214844 267.337054,43.0957031 268.196429,43.8574219 C269.329241,44.4628906 271.077288,44.8144531 273.440569,44.9121094 Z M301.631696,45.0878906 C303.037946,45.1660156 304.65904,45.0439453 306.494978,44.7216797 C308.330915,44.3994141 310.088728,43.8671875 311.768415,43.125 C313.448103,42.3828125 314.976423,41.5185547 316.353376,40.5322266 C317.730329,39.5458984 318.951032,38.4375 320.015486,37.2070312 C321.079939,35.9765625 321.753767,34.9316406 322.03697,34.0722656 C322.320173,33.2128906 322.276228,32.3974609 321.905134,31.6259766 C321.53404,30.8544922 321.123884,30.234375 320.674665,29.765625 C320.225446,29.296875 319.663923,28.7744141 318.990095,28.1982422 C318.316267,27.6220703 317.652204,27.0751953 316.997907,26.5576172 C316.343611,26.0400391 315.391462,25.234375 314.141462,24.140625 C312.891462,23.046875 311.709821,21.7724609 310.59654,20.3173828 C309.483259,18.8623047 308.716657,17.6171875 308.296736,16.5820312 C307.876814,15.546875 307.764509,14.3164062 307.959821,12.890625 C308.155134,11.4648437 308.887556,10.1220703 310.157087,8.86230469 C311.426618,7.60253906 313.238142,6.58203125 315.591657,5.80078125 C317.945173,5.01953125 320.19615,4.58496094 322.344587,4.49707031 C324.493025,4.40917969 325.996931,4.87304687 326.856306,5.88867187 C328.1649,6.86523437 328.614118,8.26171875 328.203962,10.078125 C327.266462,11.9726562 325.44029,13.90625 322.725446,15.8789062 C322.725446,16.0742188 322.979353,16.09375 323.487165,15.9375 C324.912946,15.4492187 326.182478,14.5800781 327.295759,13.3300781 C328.40904,12.0800781 329.1024,11.1425781 329.375837,10.5175781 C330.059431,9.63867187 330.230329,8.60351562 329.888532,7.41210937 C329.546736,6.22070312 328.741071,5.19042969 327.47154,4.32128906 C326.202009,3.45214844 324.50279,3.02734375 322.373884,3.046875 C320.244978,3.06640625 318.32115,3.33007812 316.6024,3.83789062 C314.88365,4.34570312 313.389509,4.92675781 312.119978,5.58105469 C310.850446,6.23535156 309.844587,6.90429687 309.1024,7.58789062 C308.360212,8.27148437 307.740095,8.99902344 307.242048,9.77050781 C306.744001,10.5419922 306.426618,11.5087891 306.2899,12.6708984 C306.153181,13.8330078 306.285017,15.1855469 306.685407,16.7285156 C307.085798,18.2714844 307.886579,19.7558594 309.087751,21.1816406 C310.288923,22.6074219 311.621931,23.9746094 313.086775,25.2832031 C315.547712,27.3925781 317.339704,28.9208984 318.462751,29.8681641 C319.585798,30.8154297 320.147321,31.7773438 320.147321,32.7539062 C320.147321,33.7304688 319.468611,35.0341797 318.111189,36.6650391 C316.753767,38.2958984 314.722517,39.7851562 312.017439,41.1328125 C309.312361,42.4804688 306.577986,43.2373047 303.814314,43.4033203 C301.050642,43.5693359 298.741071,43.28125 296.885603,42.5390625 C296.53404,41.7578125 296.211775,41.2792969 295.918806,41.1035156 C295.625837,40.8886719 295.454939,40.9033203 295.406111,41.1474609 C295.357282,41.3916016 295.337751,41.7773438 295.347517,42.3046875 C295.357282,42.8320312 295.616071,43.3349609 296.123884,43.8134766 C296.631696,44.2919922 297.325056,44.6044922 298.203962,44.7509766 C299.082868,44.8974609 300.225446,45.0097656 301.631696,45.0878906 Z M331.785714,45.0878906 C333.191964,45.1660156 334.813058,45.0439453 336.648996,44.7216797 C338.484933,44.3994141 340.242746,43.8671875 341.922433,43.125 C343.602121,42.3828125 345.130441,41.5185547 346.507394,40.5322266 C347.884347,39.5458984 349.10505,38.4375 350.169503,37.2070312 C351.233957,35.9765625 351.907785,34.9316406 352.190988,34.0722656 C352.474191,33.2128906 352.430246,32.3974609 352.059152,31.6259766 C351.688058,30.8544922 351.277902,30.234375 350.828683,29.765625 C350.379464,29.296875 349.817941,28.7744141 349.144113,28.1982422 C348.470285,27.6220703 347.806222,27.0751953 347.151925,26.5576172 C346.497628,26.0400391 345.54548,25.234375 344.29548,24.140625 C343.04548,23.046875 341.863839,21.7724609 340.750558,20.3173828 C339.637277,18.8623047 338.870675,17.6171875 338.450753,16.5820312 C338.030832,15.546875 337.918527,14.3164062 338.113839,12.890625 C338.309152,11.4648437 339.041574,10.1220703 340.311105,8.86230469 C341.580636,7.60253906 343.39216,6.58203125 345.745675,5.80078125 C348.099191,5.01953125 350.350167,4.58496094 352.498605,4.49707031 C354.647042,4.40917969 356.150949,4.87304687 357.010324,5.88867187 C358.318917,6.86523437 358.768136,8.26171875 358.35798,10.078125 C357.42048,11.9726562 355.594308,13.90625 352.879464,15.8789062 C352.879464,16.0742188 353.133371,16.09375 353.641183,15.9375 C355.066964,15.4492187 356.336496,14.5800781 357.449777,13.3300781 C358.563058,12.0800781 359.256417,11.1425781 359.529855,10.5175781 C360.213449,9.63867187 360.384347,8.60351562 360.04255,7.41210937 C359.700753,6.22070312 358.895089,5.19042969 357.625558,4.32128906 C356.356027,3.45214844 354.656808,3.02734375 352.527902,3.046875 C350.398996,3.06640625 348.475167,3.33007812 346.756417,3.83789062 C345.037667,4.34570312 343.543527,4.92675781 342.273996,5.58105469 C341.004464,6.23535156 339.998605,6.90429687 339.256417,7.58789062 C338.51423,8.27148437 337.894113,8.99902344 337.396066,9.77050781 C336.898019,10.5419922 336.580636,11.5087891 336.443917,12.6708984 C336.307199,13.8330078 336.439035,15.1855469 336.839425,16.7285156 C337.239816,18.2714844 338.040597,19.7558594 339.241769,21.1816406 C340.442941,22.6074219 341.775949,23.9746094 343.240792,25.2832031 C345.70173,27.3925781 347.493722,28.9208984 348.616769,29.8681641 C349.739816,30.8154297 350.301339,31.7773438 350.301339,32.7539062 C350.301339,33.7304688 349.622628,35.0341797 348.265207,36.6650391 C346.907785,38.2958984 344.876535,39.7851562 342.171457,41.1328125 C339.466378,42.4804688 336.732003,43.2373047 333.968332,43.4033203 C331.20466,43.5693359 328.895089,43.28125 327.039621,42.5390625 C326.688058,41.7578125 326.365792,41.2792969 326.072824,41.1035156 C325.779855,40.8886719 325.608957,40.9033203 325.560128,41.1474609 C325.5113,41.3916016 325.491769,41.7773438 325.501535,42.3046875 C325.5113,42.8320312 325.770089,43.3349609 326.277902,43.8134766 C326.785714,44.2919922 327.479074,44.6044922 328.35798,44.7509766 C329.236886,44.8974609 330.379464,45.0097656 331.785714,45.0878906 Z" id="VIOLETDRESS" fill="#000000" fill-rule="nonzero"></path>
    </g>
</svg>