<?xml version="1.0" encoding="UTF-8"?>
<svg width="395px" height="41px" viewBox="0 0 395 41" version="1.1" xmlns="http://www.w3.org/2000/svg" xmlns:xlink="http://www.w3.org/1999/xlink">
    <title>VIOLETGOWN</title>
    <g id="final-copy" stroke="none" stroke-width="1" fill="none" fill-rule="evenodd">
        <path d="M18.975,40 L33.22,2.05 L35.97,2.05 L35.97,1.5 L25.52,1.5 L25.52,2.05 L27.995,2.05 C29.81,2.05 30.965,3.755 30.965,5.57 C30.965,6.01 30.91,6.56 30.69,7.055 L19.635,36.37 L6.435,2.05 L10.89,2.05 L10.89,1.5 L0.55,1.5 L0.55,2.05 L3.245,2.05 L17.71,40 L18.975,40 Z M51.4957143,40 L51.4957143,39.45 L46.9857143,39.45 L46.9857143,2.05 L51.4957143,2.05 L51.4957143,1.5 L39.3957143,1.5 L39.3957143,2.05 L43.9057143,2.05 L43.9057143,39.45 L39.3957143,39.45 L39.3957143,40 L51.4957143,40 Z M75.4914286,40.55 C85.3364286,40.55 92.4864286,33.565 92.4864286,20.86 C92.4864286,7.935 85.3364286,0.95 75.4914286,0.95 C65.7014286,0.95 58.5514286,7.935 58.5514286,20.86 C58.5514286,33.565 65.7014286,40.55 75.4914286,40.55 Z M75.4914286,40 C66.8014286,40 61.9064286,33.345 61.9064286,20.86 C61.9064286,8.155 66.8014286,1.5 75.4914286,1.5 C84.2364286,1.5 89.1314286,8.155 89.1314286,20.86 C89.1314286,33.345 84.2364286,40 75.4914286,40 Z M125.447143,40 L125.447143,32.19 L124.897143,32.19 L124.897143,33.675 C124.897143,36.535 122.092143,39.45 119.232143,39.45 L107.187143,39.45 L107.187143,2.05 L112.302143,2.05 L112.302143,1.5 L99.5421429,1.5 L99.5421429,2.05 L104.107143,2.05 L104.107143,39.45 L99.5421429,39.45 L99.5421429,40 L125.447143,40 Z M157.527857,40 L157.527857,32.74 L156.977857,32.74 L156.977857,33.84 C156.977857,36.81 154.172857,39.45 151.202857,39.45 L137.782857,39.45 L137.782857,20.09 L146.032857,20.09 C148.122857,20.09 149.937857,21.96 149.937857,24.105 L149.937857,24.985 L150.487857,24.985 L150.487857,14.645 L149.937857,14.645 L149.937857,15.58 C149.937857,17.67 148.122857,19.54 146.032857,19.54 L137.782857,19.54 L137.782857,2.05 L151.147857,2.05 C153.897857,2.05 156.427857,4.47 156.427857,7.11 L156.427857,8.21 L156.977857,8.21 L156.977857,1.5 L130.192857,1.5 L130.192857,2.05 L134.702857,2.05 L134.702857,39.45 L130.192857,39.45 L130.192857,40 L157.527857,40 Z M183.668571,40 L183.668571,39.45 L179.103571,39.45 L179.103571,2.05 L186.913571,2.05 C189.388571,2.05 192.028571,4.58 192.028571,7.11 L192.028571,9.145 L192.523571,9.145 L192.523571,1.5 L162.603571,1.5 L162.603571,9.145 L163.153571,9.145 L163.153571,7.11 C163.153571,4.58 165.738571,2.05 168.213571,2.05 L176.023571,2.05 L176.023571,39.45 L171.458571,39.45 L171.458571,40 L183.668571,40 Z M242.070714,40.55 C247.240714,40.55 251.915714,37.415 252.575714,32.245 C253.235714,33.125 254.830714,37.8 254.830714,40.055 L255.325714,40.055 L255.325714,21.575 L259.505714,21.575 L259.505714,21.025 L243.225714,21.025 L243.225714,21.575 L252.245714,21.575 L252.245714,30.155 C252.245714,36.535 247.570714,40 242.070714,40 C233.380714,40 229.035714,33.345 229.035714,20.86 C229.035714,8.155 233.930714,1.5 242.620714,1.5 C249.220714,1.5 253.950714,6.45 254.720714,12.72 L255.270714,12.72 L255.270714,1.445 L254.830714,1.445 C254.830714,2.49 253.400714,4.305 252.080714,4.305 C251.750714,4.305 251.365714,4.195 251.090714,3.92 C249.165714,2.27 246.470714,0.95 242.620714,0.95 C232.830714,0.95 225.680714,7.935 225.680714,20.86 C225.680714,33.565 232.280714,40.55 242.070714,40.55 Z M282.841429,40.55 C292.686429,40.55 299.836429,33.565 299.836429,20.86 C299.836429,7.935 292.686429,0.95 282.841429,0.95 C273.051429,0.95 265.901429,7.935 265.901429,20.86 C265.901429,33.565 273.051429,40.55 282.841429,40.55 Z M282.841429,40 C274.151429,40 269.256429,33.345 269.256429,20.86 C269.256429,8.155 274.151429,1.5 282.841429,1.5 C291.586429,1.5 296.481429,8.155 296.481429,20.86 C296.481429,33.345 291.586429,40 282.841429,40 Z M323.722143,40 L331.257143,19.87 L338.957143,40 L340.277143,40 L354.522143,2.05 L357.272143,2.05 L357.272143,1.5 L346.767143,1.5 L346.767143,2.05 L349.132143,2.05 C350.782143,2.05 352.212143,3.425 352.212143,5.46 C352.212143,6.065 352.102143,6.725 351.827143,7.44 L340.937143,36.37 L327.737143,2.05 L331.862143,2.05 L331.862143,1.5 L321.577143,1.5 L321.577143,2.05 L324.492143,2.05 L330.872143,18.88 L324.382143,36.37 L311.182143,2.05 L315.417143,2.05 L315.417143,1.5 L305.242143,1.5 L305.242143,2.05 L307.937143,2.05 L322.402143,40 L323.722143,40 Z M390.177857,40.11 L390.177857,5.955 C390.177857,4.03 391.937857,2.05 393.752857,2.05 L394.852857,2.05 L394.852857,1.5 L383.467857,1.5 L383.467857,2.05 L385.942857,2.05 C387.757857,2.05 389.572857,4.03 389.572857,5.955 L389.572857,34.445 L367.902857,1.5 L360.642857,1.5 L360.642857,2.05 L364.272857,2.05 L365.372857,3.48 L365.372857,35.545 C365.372857,37.525 363.612857,39.45 361.797857,39.45 L360.642857,39.45 L360.642857,40 L372.082857,40 L372.082857,39.45 L369.552857,39.45 C367.792857,39.45 365.922857,37.47 365.922857,35.545 L365.922857,4.14 L389.627857,40.11 L390.177857,40.11 Z" id="VIOLETGOWN" fill="#000000" fill-rule="nonzero"></path>
    </g>
</svg>